<?xml version="1.0" encoding="UTF-8" standalone="no"?>
<!-- Created with Inkscape (http://www.inkscape.org/) -->

<svg
   version="1.1"
   id="svg2"
   width="477.16"
   height="477.16"
   viewBox="0 0 477.16 477.16"
   sodipodi:docname="atlanta-hawks-seeklogo.com.eps"
   xmlns:inkscape="http://www.inkscape.org/namespaces/inkscape"
   xmlns:sodipodi="http://sodipodi.sourceforge.net/DTD/sodipodi-0.dtd"
   xmlns="http://www.w3.org/2000/svg"
   xmlns:svg="http://www.w3.org/2000/svg">
  <defs
     id="defs6" />
  <sodipodi:namedview
     id="namedview4"
     pagecolor="#ffffff"
     bordercolor="#000000"
     borderopacity="0.25"
     inkscape:showpageshadow="2"
     inkscape:pageopacity="0.0"
     inkscape:pagecheckerboard="0"
     inkscape:deskcolor="#d1d1d1" />
  <g
     id="g8"
     inkscape:groupmode="layer"
     inkscape:label="ink_ext_XXXXXX"
     transform="matrix(1.3333333,0,0,-1.3333333,0,477.16)">
    <g
       id="g10"
       transform="scale(0.1)">
      <path
         d="M 3578.7,1789.33 C 3578.7,801.121 2777.59,0 1789.38,0 801.164,0 0,801.121 0,1789.33 c 0,988.21 801.164,1789.32 1789.38,1789.32 988.21,0 1789.32,-801.11 1789.32,-1789.32"
         style="fill:#ffffff;fill-opacity:1;fill-rule:nonzero;stroke:none"
         id="path12" />
      <path
         d="m 1789.38,3459.91 c -548.74,0 -1035.603,-264.61 -1340.177,-673.12 308.969,-90.54 1226.987,-368.02 1351.367,-423.73 110.57,-49.53 175.96,-157.12 238.78,-207.13 49.01,-39.07 95.92,-74.06 141.8,-107.27 113.71,-82.23 369.59,-237.11 261.94,-542.52 -28.24,-80.08 -91.95,-148.81 -166.49,-196.77 4.4,25.99 16.74,79.76 -16.63,115.49 -39.44,42.21 -209.59,87.24 -443.76,62.19 -237.57,-25.37 -561.45,-114.34 -903.058,-300.34 71.399,98.96 200.798,240.5 316.708,286.95 -19.92,11.61 -776.266,-277.01 -968.383,-359.86 259.488,-586.038 845.733,-995.12 1527.903,-995.12 922.67,0 1670.59,747.968 1670.59,1670.64 0,922.62 -747.92,1670.59 -1670.59,1670.59 m 0,-2979.281 c -361.17,0 -687.93,146.512 -924.61,383.141 234.38,118.218 490.99,225.39 728.41,247.04 170.72,15.59 311.48,-1.83 341.24,-51.52 29.87,-49.74 -24.95,-167.528 -89.6,-246.669 0,0 664.07,29.758 899.66,547.589 136.04,274.92 62.19,603.76 -162.88,813.25 -79.98,74.43 -227.27,183.48 -273.09,213.25 -84.21,54.66 -183.65,213.14 -359.13,290.4 -143.95,63.34 -502.87,175.8 -785.68,261.27 185.89,101.52 398.93,159.58 625.68,159.58 722.76,0 1308.63,-585.93 1308.63,-1308.64 0,-722.76 -585.87,-1308.691 -1308.63,-1308.691"
         style="fill:#d21c2d;fill-opacity:1;fill-rule:nonzero;stroke:none"
         id="path14" />
      <path
         d="m 1761.66,2217.08 c -1.78,-173.13 -137.36,-239.35 -263.1,-221.67 -127.47,17.94 -244.79,121.98 -202.43,288.15 -6.22,17.84 -51.25,26.78 -106.39,13.34 164.04,167.27 359.4,-88.19 571.92,-79.82"
         style="fill:#d21c2d;fill-opacity:1;fill-rule:nonzero;stroke:none"
         id="path16" />
    </g>
  </g>
</svg>
