<?xml version="1.0" encoding="UTF-8"?>
<svg version="1.1" xmlns="http://www.w3.org/2000/svg" width="249" height="248">
<path d="M0 0 C1.93220764 1.93220764 1.2102335 5.53639249 1.23828125 8.171875 C1.25297203 9.28351013 1.25297203 9.28351013 1.26795959 10.41760254 C1.91845093 72.83562637 -15.19299468 132.24538942 -59 178 C-59.53109375 178.56364258 -60.0621875 179.12728516 -60.609375 179.70800781 C-72.86058404 192.66766878 -86.22565522 202.69080293 -102 211 C-102.99128906 211.54011719 -103.98257813 212.08023438 -105.00390625 212.63671875 C-109.81385633 215.07848757 -113.94271731 216.92417358 -119.36328125 215.90234375 C-139.88475885 208.87943808 -156.46462278 194.61890173 -172 180 C-172.65871094 179.38382813 -173.31742188 178.76765625 -173.99609375 178.1328125 C-179.14592886 173.16137815 -183.59316851 167.62977994 -188 162 C-188.4336084 161.44812012 -188.8672168 160.89624023 -189.31396484 160.32763672 C-196.99846999 150.46497757 -203.28293934 140.11075244 -209 129 C-209.32983887 128.36094727 -209.65967773 127.72189453 -209.99951172 127.06347656 C-226.53058232 94.55438739 -233.40074764 57.89421214 -234.61254883 21.71801758 C-234.68823569 19.54134225 -234.77872336 17.3655602 -234.86914062 15.18945312 C-234.91757747 13.79430216 -234.96513603 12.39912036 -235.01171875 11.00390625 C-235.05772217 9.75424072 -235.10372559 8.5045752 -235.15112305 7.21704102 C-235.00502297 4.10692677 -234.78415914 2.51180177 -233 0 C-230.71640757 -1.29413627 -228.59931673 -2.32296939 -226.1875 -3.3125 C-225.48101318 -3.60954834 -224.77452637 -3.90659668 -224.04663086 -4.21264648 C-201.42833839 -13.50994611 -177.59276152 -19.68923815 -153.33251953 -22.70751953 C-151.07117614 -22.99107505 -148.81557385 -23.30494673 -146.55859375 -23.62109375 C-98.25222687 -29.97204576 -43.6639793 -21.91396208 0 0 Z " fill="#040404" transform="translate(241,27)"/>
<path d="M0 0 C12.79465956 8.60492523 25.2117851 22.67170018 28.3515625 38.2109375 C28.50431641 39.48710937 28.50431641 39.48710937 28.66015625 40.7890625 C22.25620694 44.45054605 15.38825925 43.15487506 8.53515625 41.2890625 C6.90630342 40.80176027 5.27973813 40.3063434 3.66015625 39.7890625 C4.23960557 41.78770006 4.23960557 41.78770006 5.66015625 43.7890625 C10.65954631 46.23491795 15.60371207 46.02667618 21.03515625 45.9140625 C21.86660156 45.90503906 22.69804687 45.89601562 23.5546875 45.88671875 C25.58996962 45.8633247 27.62510189 45.82745975 29.66015625 45.7890625 C30.94333517 49.63859926 30.72659262 52.73644385 30.66015625 56.7890625 C14.38916388 63.7890625 14.38916388 63.7890625 7.66015625 63.7890625 C7.66015625 65.1090625 7.66015625 66.4290625 7.66015625 67.7890625 C9.27083984 67.28246094 9.27083984 67.28246094 10.9140625 66.765625 C12.35024583 66.31505768 13.78644457 65.86453947 15.22265625 65.4140625 C15.92712891 65.19234375 16.63160156 64.970625 17.35742188 64.7421875 C21.77457312 63.35801107 26.20401168 62.04217017 30.66015625 60.7890625 C30.16942872 68.14997548 30.16942872 68.14997548 28.06640625 70.7890625 C25.0594264 73.28837042 21.82794836 75.17297441 18.41015625 77.0390625 C17.35876465 77.61950317 17.35876465 77.61950317 16.28613281 78.21166992 C-18.87502292 97.46714889 -18.87502292 97.46714889 -39.140625 93.19921875 C-50.01817861 89.00662704 -58.56663397 78.36999313 -63.62109375 68.21484375 C-65.82674062 63.07096017 -66.92702087 58.36217133 -67.33984375 52.7890625 C-65.91671875 54.0884375 -65.91671875 54.0884375 -64.46484375 55.4140625 C-54.98297745 63.40968388 -45.14614535 66.69367484 -33.33984375 69.7890625 C-33.33984375 68.1390625 -33.33984375 66.4890625 -33.33984375 64.7890625 C-34.49484375 64.67949219 -35.64984375 64.56992188 -36.83984375 64.45703125 C-41.25928493 63.89973816 -45.19155498 62.69032237 -49.33984375 61.1015625 C-50.03682373 60.83754639 -50.73380371 60.57353027 -51.4519043 60.30151367 C-56.72517287 58.21724949 -61.18583047 55.70194572 -65.33984375 51.7890625 C-65.89027344 51.35464844 -66.44070312 50.92023438 -67.0078125 50.47265625 C-70.11651977 46.54346906 -68.86876027 40.47167206 -68.33984375 35.7890625 C-65.09977541 21.49178344 -65.09977541 21.49178344 -60.33984375 16.7890625 C-51.23158058 14.22476172 -41.56870071 19.31993334 -33.33984375 22.7890625 C-34.02630327 19.57855223 -34.02630327 19.57855223 -36.89453125 18.4375 C-44.11497686 15.66824674 -50.59183031 13.95986039 -58.33984375 13.7890625 C-52.31163713 4.22532542 -42.30742916 -3.56505586 -31.3671875 -6.79296875 C-20.50480226 -9.03242004 -9.34240684 -5.45757867 0 0 Z " fill="#F8F8F8" transform="translate(138.33984375,116.2109375)"/>
<path d="M0 0 C1.93220764 1.93220764 1.2102335 5.53639249 1.23828125 8.171875 C1.25297203 9.28351013 1.25297203 9.28351013 1.26795959 10.41760254 C1.91845093 72.83562637 -15.19299468 132.24538942 -59 178 C-59.53109375 178.56364258 -60.0621875 179.12728516 -60.609375 179.70800781 C-72.86058404 192.66766878 -86.22565522 202.69080293 -102 211 C-102.99128906 211.54011719 -103.98257813 212.08023438 -105.00390625 212.63671875 C-109.81385633 215.07848757 -113.94271731 216.92417358 -119.36328125 215.90234375 C-139.88475885 208.87943808 -156.46462278 194.61890173 -172 180 C-172.65871094 179.38382813 -173.31742188 178.76765625 -173.99609375 178.1328125 C-179.14592886 173.16137815 -183.59316851 167.62977994 -188 162 C-188.4336084 161.44812012 -188.8672168 160.89624023 -189.31396484 160.32763672 C-196.99846999 150.46497757 -203.28293934 140.11075244 -209 129 C-209.32983887 128.36094727 -209.65967773 127.72189453 -209.99951172 127.06347656 C-226.53058232 94.55438739 -233.40074764 57.89421214 -234.61254883 21.71801758 C-234.68823569 19.54134225 -234.77872336 17.3655602 -234.86914062 15.18945312 C-234.91757747 13.79430216 -234.96513603 12.39912036 -235.01171875 11.00390625 C-235.05772217 9.75424072 -235.10372559 8.5045752 -235.15112305 7.21704102 C-235.00502297 4.10692677 -234.78415914 2.51180177 -233 0 C-230.71640757 -1.29413627 -228.59931673 -2.32296939 -226.1875 -3.3125 C-225.48101318 -3.60954834 -224.77452637 -3.90659668 -224.04663086 -4.21264648 C-201.42833839 -13.50994611 -177.59276152 -19.68923815 -153.33251953 -22.70751953 C-151.07117614 -22.99107505 -148.81557385 -23.30494673 -146.55859375 -23.62109375 C-98.25222687 -29.97204576 -43.6639793 -21.91396208 0 0 Z M-186 -12 C-187.34795654 -11.62270752 -187.34795654 -11.62270752 -188.72314453 -11.23779297 C-202.91928377 -7.19962269 -216.82595931 -2.73559975 -230 4 C-230.52466312 32.24436445 -228.04940655 60.8062213 -220 88 C-219.74798828 88.85964355 -219.49597656 89.71928711 -219.23632812 90.60498047 C-212.70163507 112.46149136 -203.7239613 133.65107452 -190 152 C-189.58459961 152.56654297 -189.16919922 153.13308594 -188.74121094 153.71679688 C-172.9171745 175.17761822 -153.68266898 193.620618 -130.1875 206.4375 C-129.58953613 206.7677417 -128.99157227 207.0979834 -128.37548828 207.43823242 C-120.95024809 211.40452814 -120.95024809 211.40452814 -112.81225586 211.46850586 C-110.41471251 210.52291912 -108.16204776 209.43802491 -105.875 208.25 C-105.04460205 207.83532471 -104.2142041 207.42064941 -103.35864258 206.9934082 C-82.09019063 196.06723016 -63.59955169 178.71210146 -49 160 C-48.2471875 159.0409375 -47.494375 158.081875 -46.71875 157.09375 C-37.57999221 145.20084603 -30.37761843 132.52583889 -24 119 C-23.68643555 118.33564941 -23.37287109 117.67129883 -23.04980469 116.98681641 C-11.5091186 92.25591162 -6.80730457 66.00002077 -4 39 C-3.90211182 38.11030518 -3.80422363 37.22061035 -3.70336914 36.30395508 C-2.9852936 29.29308733 -2.88142784 22.35602614 -2.9375 15.3125 C-2.94426758 13.66991211 -2.94426758 13.66991211 -2.95117188 11.99414062 C-2.96280844 9.32936691 -2.97915436 6.66471483 -3 4 C-13.15465349 -0.63030849 -23.28927284 -4.7969733 -34 -8 C-34.80147461 -8.24105469 -35.60294922 -8.48210938 -36.42871094 -8.73046875 C-50.46595116 -12.89356446 -64.52135339 -15.85779225 -79 -18 C-79.74620605 -18.11859375 -80.49241211 -18.2371875 -81.26123047 -18.359375 C-114.92268692 -23.59438975 -153.21069753 -21.19518385 -186 -12 Z " fill="#141414" transform="translate(241,27)"/>
<path d="M0 0 C0.95519531 -0.020625 1.91039063 -0.04125 2.89453125 -0.0625 C11.84248541 -0.11228 11.84248541 -0.11228 15.75 3.25 C18.62705091 6.42098566 19.13344285 8.50008793 19.1484375 12.75 C19.15423828 14.3278125 19.15423828 14.3278125 19.16015625 15.9375 C19.14855469 17.030625 19.13695312 18.12375 19.125 19.25 C19.13660156 20.343125 19.14820313 21.43625 19.16015625 22.5625 C19.15628906 23.614375 19.15242188 24.66625 19.1484375 25.75 C19.14505371 26.7090625 19.14166992 27.668125 19.13818359 28.65625 C18.6920266 31.63736441 17.73238205 33.02416752 15.75 35.25 C16.72710937 36.12527344 17.70421875 37.00054687 18.7109375 37.90234375 C23.25433715 43.21723886 22.55380555 49.14305292 22.375 55.8125 C22.38466797 57.62137695 22.38466797 57.62137695 22.39453125 59.46679688 C22.25783295 70.7195525 22.25783295 70.7195525 17.75 75.25 C12.07406825 79.11062512 6.46679997 78.59580062 -0.125 78.4375 C-1.19492188 78.42396484 -2.26484375 78.41042969 -3.3671875 78.39648438 C-5.99531511 78.36128624 -8.62239194 78.31204693 -11.25 78.25 C-11.2731241 68.22772237 -11.29091543 58.20545103 -11.30181217 48.1831522 C-11.30704085 43.52988814 -11.31413823 38.87664226 -11.32543945 34.22338867 C-11.33626886 29.73655454 -11.34227695 25.24973796 -11.34487724 20.76289177 C-11.3467314 19.04719707 -11.35035182 17.33150338 -11.35573006 15.61581612 C-11.36294121 13.22115087 -11.36399091 10.82655904 -11.36352539 8.43188477 C-11.36712067 7.71547318 -11.37071594 6.99906158 -11.37442017 6.26094055 C-11.35718466 -1.87952231 -7.02479392 0.0373163 0 0 Z " fill="#050505" transform="translate(120.25,122.75)"/>
<path d="M0 0 C1.03511719 0.17692383 2.07023438 0.35384766 3.13671875 0.53613281 C26.11404271 4.58725053 49.10236462 10.34252696 70 21 C71.59608491 79.96510602 57.57378241 142.09422592 16 186 C14.78535694 187.39034614 13.57670441 188.78595562 12.375 190.1875 C5.87187915 197.61115393 -1.21657189 203.92634154 -9 210 C-9.5141748 210.40653809 -10.02834961 210.81307617 -10.55810547 211.23193359 C-17.53666451 216.6972247 -24.84792996 221.2899671 -32.75 225.3125 C-33.51763672 225.72822266 -34.28527344 226.14394531 -35.07617188 226.57226562 C-39.44784261 228.68517748 -42.29355593 229.32429899 -47.03125 228.01171875 C-51.81507494 226.23514729 -56.31801403 224.02010029 -60.75 221.5 C-61.91269409 220.84306152 -61.91269409 220.84306152 -63.09887695 220.17285156 C-107.98979723 194.15153852 -135.02849828 147.52033523 -149 99 C-150.73132898 92.39364186 -151.96402617 85.74616292 -153 79 C-153.13986328 78.13584473 -153.27972656 77.27168945 -153.42382812 76.38134766 C-156.40334935 57.87290922 -157.17752877 39.72518851 -157 21 C-147.18195005 16.16756974 -137.48481816 12.20275796 -127 9 C-125.95199219 8.66355469 -124.90398437 8.32710937 -123.82421875 7.98046875 C-84.41980687 -4.09585284 -40.63704895 -6.95673984 0 0 Z M-98 5 C-99.00546875 5.18054932 -99.00546875 5.18054932 -100.03125 5.36474609 C-110.44948437 7.33129285 -120.45682188 10.66779001 -130.5 14 C-131.15079529 14.21528351 -131.80159058 14.43056702 -132.47210693 14.65237427 C-139.82996996 17.09829878 -146.97961987 19.70347368 -154 23 C-155.33825777 81.88334185 -139.93619129 142.16627356 -98.93359375 185.85546875 C-97 188 -97 188 -96 190 C-95.34 190 -94.68 190 -94 190 C-93.75636719 190.57621094 -93.51273438 191.15242187 -93.26171875 191.74609375 C-85.24100123 206.07412474 -60.81728733 219.52694792 -46 225 C-40.78919736 225.69934456 -37.03586199 223.98842283 -32.5 221.625 C-31.80438965 221.26849365 -31.1087793 220.9119873 -30.39208984 220.54467773 C-19.99058833 215.05571821 -10.80913906 208.08436312 -2.22265625 200.0703125 C-0.21873266 198.20374044 1.83752915 196.44383926 3.9375 194.6875 C43.90180633 159.60860987 62.50926313 104.1693716 66.6875 52.5625 C67.23667652 42.72125679 67.08776415 32.85253794 67 23 C53.86760883 17.49557221 40.74556021 12.732009 27 9 C25.96407715 8.71431152 25.96407715 8.71431152 24.90722656 8.42285156 C5.50019999 3.16460281 -14.90921615 0.39190542 -35 0 C-35.76763672 -0.02046387 -36.53527344 -0.04092773 -37.32617188 -0.06201172 C-57.68153663 -0.56140327 -77.97179564 1.3957865 -98 5 Z " fill="#E6E6E6" transform="translate(168,10)"/>
<path d="M0 0 C0 24.42 0 48.84 0 74 C-3.80936706 75.52374682 -5.94732215 76.27886467 -9.8125 76.625 C-10.99779297 76.73714844 -10.99779297 76.73714844 -12.20703125 76.8515625 C-12.79871094 76.90054688 -13.39039062 76.94953125 -14 77 C-14.25168945 76.35562988 -14.50337891 75.71125977 -14.76269531 75.04736328 C-15.92471603 72.07308019 -17.08735483 69.09903905 -18.25 66.125 C-18.84361328 64.60519531 -18.84361328 64.60519531 -19.44921875 63.0546875 C-21.23594995 58.48534214 -23.02780954 53.91876435 -24.859375 49.3671875 C-27.95780742 41.59849016 -30.96857648 33.79508905 -34 26 C-34.33 45.14 -34.66 64.28 -35 84 C-37.97 84.99 -40.94 85.98 -44 87 C-44 61.92 -44 36.84 -44 11 C-35 7.625 -35 7.625 -31 8 C-28.97177481 13.11808139 -26.94551041 18.23693353 -24.92089844 23.35644531 C-24.23488622 25.09037162 -23.54837977 26.82410248 -22.86132812 28.55761719 C-21.86191102 31.07953813 -20.86440028 33.60220673 -19.8671875 36.125 C-19.57004852 36.87362305 -19.27290955 37.62224609 -18.96676636 38.39355469 C-15.87442717 46.22685749 -12.95873365 54.11004361 -10 62 C-10 41.87 -10 21.74 -10 1 C-4 -1 -4 -1 0 0 Z " fill="#F3F3F3" transform="translate(75,26)"/>
<path d="M0 0 C8.49015843 0.06530891 16.00905799 2.64495879 22.75 7.875 C28.34906436 13.61763012 29.32823822 18.30117773 29.25 26.125 C29.24097656 27.29546875 29.23195312 28.4659375 29.22265625 29.671875 C29.21105469 30.56390625 29.19945312 31.4559375 29.1875 32.375 C21.57408593 31.33680717 21.57408593 31.33680717 19.1875 29.375 C18.61328125 26.22265625 18.61328125 26.22265625 18.5 22.4375 C18.35556462 17.31489843 18.35556462 17.31489843 17.1875 12.375 C14.94006244 11.22479475 14.94006244 11.22479475 12.1875 10.375 C11.218125 10.00375 10.24875 9.6325 9.25 9.25 C6.03198525 8.33056721 3.51544247 8.07245978 0.1875 8.375 C-2.19348304 10.33558796 -2.19348304 10.33558796 -2.1875 14 C-1.9285587 22.58645488 3.63829053 28.41959785 9.375 34.25 C10.719203 35.65321203 12.06295426 37.05685693 13.40625 38.4609375 C14.66656319 39.76572496 15.92697139 41.07042066 17.1875 42.375 C25.99328926 51.55054139 30.63671559 57.27998316 30.62109375 70.32421875 C30.00529197 74.65702223 28.45582062 77.1970892 25.26953125 80.15625 C20.32471436 83.05077696 14.80222749 81.77315199 9.48046875 80.4609375 C2.21795918 78.31521672 -4.32913278 75.76382641 -9.8125 70.375 C-10.33585938 69.93285156 -10.85921875 69.49070312 -11.3984375 69.03515625 C-15.48148835 64.78291821 -15.17541592 60.01819855 -15.125 54.4375 C-15.06072779 51.74554701 -14.94865226 49.06476357 -14.8125 46.375 C-11.5125 47.035 -8.2125 47.695 -4.8125 48.375 C-4.77382812 49.91220703 -4.77382812 49.91220703 -4.734375 51.48046875 C-4.67806942 52.84118699 -4.62072263 54.20186243 -4.5625 55.5625 C-4.54832031 56.23603516 -4.53414062 56.90957031 -4.51953125 57.60351562 C-4.28321305 62.44803865 -3.28184857 64.99743314 0.1875 68.375 C5.57597735 71.97075257 11.7628565 73.543117 18.1875 72.375 C20.53770498 70.02479502 20.50664802 69.45590378 20.5625 66.25 C20.60503906 65.16332031 20.60503906 65.16332031 20.6484375 64.0546875 C19.08041518 54.93889671 12.79969444 49.58459097 6.375 43.5 C-11.84403781 26.17785824 -11.84403781 26.17785824 -12.14453125 16.11132812 C-12.15871094 15.43521484 -12.17289063 14.75910156 -12.1875 14.0625 C-12.23648438 12.74636719 -12.28546875 11.43023437 -12.3359375 10.07421875 C-11.69624324 5.55339442 -10.27959028 4.21801403 -6.8125 1.375 C-5.00848638 -0.42901362 -2.44072373 0.07527736 0 0 Z " fill="#F4F4F4" transform="translate(190.8125,27.625)"/>
<path d="M0 0 C0 2.31 0 4.62 0 7 C-10.23 7.66 -20.46 8.32 -31 9 C-31 17.58 -31 26.16 -31 35 C-27.04 34.34 -23.08 33.68 -19 33 C-16.58582804 32.88257918 -14.16645491 32.82246837 -11.75 32.875 C-10.65171875 32.89304688 -9.5534375 32.91109375 -8.421875 32.9296875 C-7.22304687 32.96449219 -7.22304687 32.96449219 -6 33 C-6 35.31 -6 37.62 -6 40 C-8.10373869 40.17198448 -10.20802692 40.33724805 -12.3125 40.5 C-13.48425781 40.5928125 -14.65601563 40.685625 -15.86328125 40.78125 C-20.90234057 41.04771584 -25.95390023 41 -31 41 C-31 50.9 -31 60.8 -31 71 C-25.555 70.01 -25.555 70.01 -20 69 C-16.40338127 68.87108893 -12.90016653 68.80523236 -9.3125 68.875 C-7.95608398 68.88853516 -7.95608398 68.88853516 -6.57226562 68.90234375 C-4.38139125 68.92552761 -2.19065663 68.96137922 0 69 C0.04254356 70.99954746 0.04080783 73.00041636 0 75 C-1.81339851 76.81339851 -4.63775214 76.34554839 -7.08984375 76.5 C-8.34990234 76.5825 -9.60996094 76.665 -10.90820312 76.75 C-12.25128515 76.83360584 -13.59438427 76.9169374 -14.9375 77 C-17.5300431 77.16517945 -20.12249362 77.33181915 -22.71484375 77.5 C-24.44915649 77.60828125 -24.44915649 77.60828125 -26.21850586 77.71875 C-30.81943932 78.0609461 -35.40925523 78.54092552 -40 79 C-40 53.92 -40 28.84 -40 3 C-12.14285714 -0.48214286 -12.14285714 -0.48214286 0 0 Z " fill="#F8F8F8" transform="translate(123,20)"/>
<path d="M0 0 C15.84253998 -0.58118014 31.40242026 1.26311633 47 4 C47 6.31 47 8.62 47 11 C44.58299013 10.85870713 42.16649571 10.71213513 39.75 10.5625 C39.06808594 10.52318359 38.38617188 10.48386719 37.68359375 10.44335938 C34.29480029 10.22950348 31.31127702 9.82781925 28 9 C28 31.44 28 53.88 28 77 C25.03 77 22.06 77 19 77 C18 76 18 76 17.87974548 73.26023865 C17.88196609 72.03668167 17.88418671 70.81312469 17.88647461 69.55249023 C17.88632858 68.87934784 17.88618256 68.20620544 17.8860321 67.51266479 C17.88673122 65.27794216 17.89452348 63.0433019 17.90234375 60.80859375 C17.90420794 59.26302638 17.90563184 57.71745843 17.90663147 56.17189026 C17.9104566 52.09642923 17.92028683 48.02100363 17.93133545 43.94555664 C17.94154968 39.78988118 17.94612911 35.63420001 17.95117188 31.47851562 C17.96190911 23.31899232 17.97950586 15.15950464 18 7 C12.06 7 6.12 7 0 7 C0 4.69 0 2.38 0 0 Z " fill="#F3F3F3" transform="translate(128,20)"/>
<path d="M0 0 C15.38483447 -0.60070937 28.63975324 3.13713769 40.4375 13.375 C47.46625303 20.17216314 53.81337926 26.84481255 54.3125 37 C54.23010279 40.89514075 53.01168305 43.64719492 51 47 C48.55651261 44.06931421 46.95914954 40.9654249 45.35009766 37.51757812 C38.17718989 22.2163327 27.28524667 9.03066856 11 3 C7.35359442 2.11504007 3.72106947 1.47397653 0 1 C0 0.67 0 0.34 0 0 Z " fill="#F2F2F2" transform="translate(120,107)"/>
<path d="M0 0 C9 0 9 0 12.52734375 1.27734375 C16.44416231 5.59017556 15.75887466 9.95031886 15.5625 15.5625 C15.56056641 16.61630859 15.55863281 17.67011719 15.55664062 18.75585938 C15.42185978 26.57814022 15.42185978 26.57814022 12 30 C8.04 30 4.08 30 0 30 C0 20.1 0 10.2 0 0 Z " fill="#F7F7F7" transform="translate(118,163)"/>
<path d="M0 0 C0.66 0 1.32 0 2 0 C0.75768487 3.44025728 -0.49478685 6.30207814 -3 9 C-3.639375 9.12503906 -4.27875 9.25007812 -4.9375 9.37890625 C-7.65299839 10.19664156 -8.14763213 11.30830327 -9.625 13.6875 C-13.23271889 18.74192321 -17.50271735 21.26752715 -23 24 C-23.7528125 24.41507813 -24.505625 24.83015625 -25.28125 25.2578125 C-34.53786187 29.55552515 -46.99092355 29.2768869 -57 28 C-57.99 27.34 -58.98 26.68 -60 26 C-59.30777344 25.98582031 -58.61554688 25.97164062 -57.90234375 25.95703125 C-39.71802545 25.07057568 -22.08529036 16.35111622 -7.98046875 5.1171875 C-6 4 -6 4 -3.73828125 4.3203125 C-2.87783203 4.65675781 -2.87783203 4.65675781 -2 5 C-1.34 3.35 -0.68 1.7 0 0 Z " fill="#EEEEEE" transform="translate(170,187)"/>
<path d="M0 0 C1.42308385 3.80101107 0.56065145 6.34806588 -0.6875 10.125 C-1.02136719 11.17945313 -1.35523438 12.23390625 -1.69921875 13.3203125 C-3.16180221 16.33332227 -3.98549778 16.80035116 -7 18 C-7.309375 18.680625 -7.61875 19.36125 -7.9375 20.0625 C-8.288125 20.701875 -8.63875 21.34125 -9 22 C-10.04220703 22.16435547 -10.04220703 22.16435547 -11.10546875 22.33203125 C-15.11819276 23.25804448 -17.97573056 25.36336595 -21.375 27.625 C-36.52250714 37.38217802 -50.8251764 43.24053331 -69 44 C-69.66 42.68 -70.32 41.36 -71 40 C-70.12859375 39.97421875 -69.2571875 39.9484375 -68.359375 39.921875 C-66.57273437 39.83679688 -66.57273437 39.83679688 -64.75 39.75 C-63.58984375 39.70359375 -62.4296875 39.6571875 -61.234375 39.609375 C-50.38224366 38.44583651 -40.65885322 33.04997974 -31.1875 28 C-30.00106769 27.3768103 -28.81421975 26.75441123 -27.62695312 26.1328125 C-17.71643061 21.42925224 -17.71643061 21.42925224 -9 15 C-8.34 14.67 -7.68 14.34 -7 14 C-6.49782647 12.04340367 -6.49782647 12.04340367 -6.1875 9.75 C-5.25342143 4.98847756 -3.71843012 3.03345615 0 0 Z " fill="#121212" transform="translate(177,170)"/>
<path d="M0 0 C3.3 0 6.6 0 10 0 C13.33406332 3.33406332 13.42851373 4.56354355 13.5078125 9.11132812 C13.50523437 9.87896484 13.50265625 10.64660156 13.5 11.4375 C13.52835938 12.20126953 13.55671875 12.96503906 13.5859375 13.75195312 C13.59947119 17.6395064 13.4570854 19.42952226 10.96875 22.53515625 C8 24 8 24 0 24 C0 16.08 0 8.16 0 0 Z " fill="#F5F5F5" transform="translate(118,131)"/>
<path d="M0 0 C0.556875 0.38671875 1.11375 0.7734375 1.6875 1.171875 C12.02966902 8.22970656 22.00477507 11.67405127 34 15 C34 16.65 34 18.3 34 20 C21.90094754 18.25184793 13.37701681 14.86282927 4 7 C3.27554688 6.49597656 2.55109375 5.99195313 1.8046875 5.47265625 C0 4 0 4 -1 1 C-0.67 0.67 -0.34 0.34 0 0 Z " fill="#101010" transform="translate(71,166)"/>
<path d="M0 0 C1.56640625 1.45703125 1.56640625 1.45703125 3 4 C2.8287461 7.03750335 2.49919233 9.72118293 1.9375 12.6875 C1.7933667 13.51805908 1.6492334 14.34861816 1.50073242 15.2043457 C0.00619933 23.54638524 -1.92783154 31.78495651 -4 40 C-4.99 40 -5.98 40 -7 40 C-8.37505444 37.24989113 -7.64870998 35.99342417 -6.85546875 33.046875 C-6.59137207 32.04076172 -6.32727539 31.03464844 -6.05517578 29.99804688 C-5.76884277 28.92619141 -5.48250977 27.85433594 -5.1875 26.75 C-2.87518281 17.85056032 -0.93549841 9.16143266 0 0 Z " fill="#E3E3E3" transform="translate(232,77)"/>
<path d="M0 0 C0.66 0.33 1.32 0.66 2 1 C1.01 2.485 1.01 2.485 0 4 C-0.27728529 7.20254015 -0.27728529 7.20254015 -0.1953125 10.85546875 C-0.19106766 11.84792351 -0.19106766 11.84792351 -0.18673706 12.86042786 C-0.17555918 14.96963737 -0.15045981 17.07841925 -0.125 19.1875 C-0.11496707 20.61913448 -0.10584176 22.05077564 -0.09765625 23.48242188 C-0.07562795 26.98841977 -0.04111485 30.49416813 0 34 C-0.99 34 -1.98 34 -3 34 C-4.39315424 23.37719894 -4.09675083 12.68873373 -4 2 C-2.125 0.9375 -2.125 0.9375 0 0 Z " fill="#ECEDED" transform="translate(15,29)"/>
<path d="M0 0 C0.33 0 0.66 0 1 0 C2.58299127 6.13409117 3.15474677 11.8444727 0.125 17.5 C-2 20 -2 20 -4 21 C-5.87693068 13.25766094 -5.15161059 8.47448539 -1.09375 1.72265625 C-0.7328125 1.15417969 -0.371875 0.58570313 0 0 Z " fill="#EEEEEE" transform="translate(177,149)"/>
<path d="M0 0 C1.99788438 0.34578768 3.99759451 0.68143549 6 1 C6 1.33 6 1.66 6 2 C-9.345 3.98 -9.345 3.98 -25 6 C-24.67 4.68 -24.34 3.36 -24 2 C-20.75198175 1.46626918 -17.50138509 0.95028732 -14.25 0.4375 C-13.32960938 0.28603516 -12.40921875 0.13457031 -11.4609375 -0.02148438 C-10.12675781 -0.2293457 -10.12675781 -0.2293457 -8.765625 -0.44140625 C-7.94868164 -0.57232666 -7.13173828 -0.70324707 -6.29003906 -0.83813477 C-3.90666084 -1.00659743 -2.27358765 -0.68027001 0 0 Z " fill="#E1E1E1" transform="translate(93,10)"/>
<path d="M0 0 C0 5.52104275 -5.29853122 9.22807867 -9 13 C-12.26998928 16.07550859 -15.60384462 19.06470077 -19 22 C-19.66 21.67 -20.32 21.34 -21 21 C-18.81898323 18.61897733 -16.62901221 16.24636275 -14.4375 13.875 C-13.82841797 13.20984375 -13.21933594 12.5446875 -12.59179688 11.859375 C-8.62183598 7.57433784 -4.50383106 3.72131215 0 0 Z " fill="#EAEAEA" transform="translate(185,192)"/>
<path d="M0 0 C1.43410153 3.78819273 0.51009497 6.06521279 -0.9375 9.75 C-1.31777344 10.73484375 -1.69804687 11.7196875 -2.08984375 12.734375 C-2.39019531 13.48203125 -2.69054687 14.2296875 -3 15 C-3.99 15 -4.98 15 -6 15 C-5.78943471 5.14171603 -5.78943471 5.14171603 -2.4375 1.875 C-1.633125 1.25625 -0.82875 0.6375 0 0 Z " fill="#DFDFDF" transform="translate(177,170)"/>
<path d="M0 0 C-0.33 0.99 -0.66 1.98 -1 3 C-3.36695387 4.03865096 -5.61555495 4.89577096 -8.0625 5.6875 C-8.72572266 5.91244141 -9.38894531 6.13738281 -10.07226562 6.36914062 C-11.71130207 6.92334719 -13.35522593 7.46306085 -15 8 C-14.08989622 5.05439528 -13.55591199 3.38420172 -10.9765625 1.6015625 C-9.81253906 1.11816406 -9.81253906 1.11816406 -8.625 0.625 C-7.85414062 0.28726562 -7.08328125 -0.05046875 -6.2890625 -0.3984375 C-3.75927608 -1.06326192 -2.4378414 -0.85714058 0 0 Z " fill="#E8E8E8" transform="translate(30,25)"/>
<path d="M0 0 C-1 3 -1 3 -3 4 C-5.37123246 4.23029956 -7.74741943 4.41119942 -10.125 4.5625 C-11.40632813 4.64628906 -12.68765625 4.73007813 -14.0078125 4.81640625 C-14.99523437 4.87699219 -15.98265625 4.93757812 -17 5 C-17.66 3.68 -18.32 2.36 -19 1 C-16.77100213 0.83109082 -14.54179338 0.66496313 -12.3125 0.5 C-10.45044922 0.36078125 -10.45044922 0.36078125 -8.55078125 0.21875 C-5.68500671 0.04220063 -2.86900043 -0.04388528 0 0 Z " fill="#323232" transform="translate(125,209)"/>
<path d="M0 0 C0.85464844 0.07605469 1.70929688 0.15210937 2.58984375 0.23046875 C5.37693066 0.8865129 6.91055832 1.96013257 9.0625 3.8125 C8.7325 4.4725 8.4025 5.1325 8.0625 5.8125 C2.7825 4.4925 -2.4975 3.1725 -7.9375 1.8125 C-4.58221483 -0.42435678 -3.84245882 -0.39869122 0 0 Z " fill="#202020" transform="translate(125.9375,108.1875)"/>
<path d="M0 0 C-2.98696425 3.33161397 -5.82719722 5.34826557 -10 7 C-12.375 6.6875 -12.375 6.6875 -14 6 C-11.86197902 3.67490219 -9.81401863 2.17832764 -7 0.75 C-6.319375 0.39421875 -5.63875 0.0384375 -4.9375 -0.328125 C-3 -1 -3 -1 0 0 Z " fill="#E8E8E8" transform="translate(141,230)"/>
<path d="M0 0 C0.66 0 1.32 0 2 0 C2.02717692 2.06242617 2.0464758 4.12495703 2.0625 6.1875 C2.07410156 7.33605469 2.08570313 8.48460938 2.09765625 9.66796875 C2.01192832 12.59300586 1.67849023 15.16316291 1 18 C0.34 17.67 -0.32 17.34 -1 17 C-1.10477512 11.21408489 -0.99250545 5.70690634 0 0 Z " fill="#FAFAFA" transform="translate(234,63)"/>
<path d="M0 0 C2.95749791 3.46741134 5.07848152 6.86873527 7 11 C6.01 11.66 5.02 12.32 4 13 C-1.05908096 5.9452954 -1.05908096 5.9452954 -0.8125 2 C-0.544375 1.34 -0.27625 0.68 0 0 Z " fill="#DDDDDD" transform="translate(42,159)"/>
<path d="M0 0 C0.99 0 1.98 0 3 0 C3.67119549 1.4562545 4.33681807 2.91507867 5 4.375 C5.556875 5.59316406 5.556875 5.59316406 6.125 6.8359375 C7 9 7 9 7 11 C6.01 11.33 5.02 11.66 4 12 C3.32645501 10.56570999 2.66140299 9.12742943 2 7.6875 C1.62875 6.88699219 1.2575 6.08648437 0.875 5.26171875 C0 3 0 3 0 0 Z " fill="#E2E2E3" transform="translate(29,136)"/>
<path d="M0 0 C1.5625 1.4375 1.5625 1.4375 3 4 C3.02026528 7.80311676 2.71232812 11.57534376 1 15 C0.34 15 -0.32 15 -1 15 C-1.18451025 4.44191344 -1.18451025 4.44191344 0 0 Z " fill="#E4E4E4" transform="translate(232,77)"/>
<path d="M0 0 C1.12377697 3.30435084 0.89554742 5.0506862 -0.4375 8.25 C-0.72496094 8.95640625 -1.01242188 9.6628125 -1.30859375 10.390625 C-1.53675781 10.92171875 -1.76492187 11.4528125 -2 12 C-2.66 12 -3.32 12 -4 12 C-3.91253716 10.56138706 -3.80434652 9.12402492 -3.6875 7.6875 C-3.62949219 6.88699219 -3.57148438 6.08648437 -3.51171875 5.26171875 C-2.91793306 2.63727666 -2.04219706 1.69179328 0 0 Z " fill="#E9EAEA" transform="translate(226,115)"/>
<path d="M0 0 C0.99 0.33 1.98 0.66 3 1 C2.34 1.66 1.68 2.32 1 3 C0.63105418 5.03060659 0.63105418 5.03060659 0.5859375 7.3515625 C0.54726562 8.20234375 0.50859375 9.053125 0.46875 9.9296875 C0.4378125 10.81914063 0.406875 11.70859375 0.375 12.625 C0.33632812 13.5221875 0.29765625 14.419375 0.2578125 15.34375 C0.16340643 17.5622927 0.07783252 19.78082403 0 22 C-0.33 22 -0.66 22 -1 22 C-1.22201613 19.0837882 -1.42808498 16.16792256 -1.625 13.25 C-1.72167969 12.0125 -1.72167969 12.0125 -1.8203125 10.75 C-1.871875 9.95078125 -1.9234375 9.1515625 -1.9765625 8.328125 C-2.02893066 7.5949707 -2.08129883 6.86181641 -2.13525391 6.10644531 C-1.97767085 3.65224559 -1.22264839 2.11146787 0 0 Z " fill="#1E1F1E" transform="translate(8,27)"/>
<path d="M0 0 C0.66 0 1.32 0 2 0 C0.7580393 3.43927579 -0.55740284 6.25207819 -3 9 C-3.66 9 -4.32 9 -5 9 C-5.66 7.68 -6.32 6.36 -7 5 C-6.01 4.67 -5.02 4.34 -4 4 C-3.34 4.33 -2.68 4.66 -2 5 C-1.34 3.35 -0.68 1.7 0 0 Z " fill="#868686" transform="translate(170,187)"/>
<path d="M0 0 C0.66 0.33 1.32 0.66 2 1 C-1.16548033 4.88901869 -4.40365256 8.50640535 -8 12 C-8 8.03869629 -6.65122875 7.17085599 -4 4.3125 C-3.2575 3.50425781 -2.515 2.69601563 -1.75 1.86328125 C-1.1725 1.24839844 -0.595 0.63351563 0 0 Z " fill="#DEDEDE" transform="translate(168,207)"/>
<path d="M0 0 C0.33 0.66 0.66 1.32 1 2 C1.66 2 2.32 2 3 2 C2.67 4.31 2.34 6.62 2 9 C1.01 9 0.02 9 -1 9 C-2.60031344 5.79937313 -1.03173691 3.27728194 0 0 Z " fill="#C6C6C6" transform="translate(226,108)"/>
<path d="M0 0 C0.33 0.99 0.66 1.98 1 3 C-0.9375 6.1875 -0.9375 6.1875 -3 9 C-3.66 8.67 -4.32 8.34 -5 8 C-3.8141763 4.62496331 -2.72426311 2.35277269 0 0 Z " fill="#EFF0F0" transform="translate(205,164)"/>
<path d="M0 0 C0.33 0.66 0.66 1.32 1 2 C1.66 2 2.32 2 3 2 C2.25 6.75 2.25 6.75 0 9 C-0.66 8.67 -1.32 8.34 -2 8 C-1.34 5.36 -0.68 2.72 0 0 Z " fill="#D3D3D3" transform="translate(221,125)"/>
<path d="M0 0 C0.33 0 0.66 0 1 0 C0.67 2.31 0.34 4.62 0 7 C-0.99 7.33 -1.98 7.66 -3 8 C-2.25 2.25 -2.25 2.25 0 0 Z " fill="#ECECED" transform="translate(220,132)"/>
<path d="M0 0 C0.66 0 1.32 0 2 0 C3.35439668 2.70879335 3.06501451 5.00933268 3 8 C2.01 7.67 1.02 7.34 0 7 C0 4.69 0 2.38 0 0 Z " fill="#ECECEC" transform="translate(19,102)"/>
<path d="M0 0 C1.98 0.66 3.96 1.32 6 2 C5.67 2.99 5.34 3.98 5 5 C2.69 4.34 0.38 3.68 -2 3 C-1.34 2.67 -0.68 2.34 0 2 C0 1.34 0 0.68 0 0 Z " fill="#2E2E2E" transform="translate(129,109)"/>
<path d="M0 0 C-0.33 0.99 -0.66 1.98 -1 3 C-2.65 3.33 -4.3 3.66 -6 4 C-6 2.68 -6 1.36 -6 0 C-3.50907189 -1.24546405 -2.58919267 -0.7767578 0 0 Z " fill="#DEDEDE" transform="translate(30,25)"/>
<path d="M0 0 C0.99 0.33 1.98 0.66 3 1 C1.68 2.32 0.36 3.64 -1 5 C-1.99 4.67 -2.98 4.34 -4 4 C-2.68 2.68 -1.36 1.36 0 0 Z " fill="#F1F1F1" transform="translate(138,229)"/>
<path d="M0 0 C0.66 0.33 1.32 0.66 2 1 C0.75 3.4375 0.75 3.4375 -1 6 C-2.32 6.33 -3.64 6.66 -5 7 C-3.35 4.69 -1.7 2.38 0 0 Z " fill="#EBEBEB" transform="translate(159,215)"/>
<path d="M0 0 C0.33 0 0.66 0 1 0 C1.33 2.97 1.66 5.94 2 9 C1.34 9 0.68 9 0 9 C-0.33 9.66 -0.66 10.32 -1 11 C-0.67 7.37 -0.34 3.74 0 0 Z " fill="#CFCFCF" transform="translate(19,93)"/>
</svg>
