<?xml version="1.0" encoding="UTF-8"?>
<svg version="1.1" xmlns="http://www.w3.org/2000/svg" width="393" height="353">
<path d="M0 0 C4.19981639 3.74146079 5.96089968 8.84140287 8.25 13.875 C8.73726563 14.94403564 9.22453125 16.01307129 9.7265625 17.11450195 C20.75683262 41.79217804 30.29272354 70.10788223 22 97 C14.81398713 115.44409969 1.80279204 126.22936433 -15.6875 134.25 C-23.53008217 137.45105395 -31.67934059 139.46466609 -39.91040039 141.40917969 C-42.35450013 142.10023254 -44.65663964 143.02455742 -47 144 C-46.27224365 144.17015625 -45.5444873 144.3403125 -44.79467773 144.515625 C-28.14771313 148.4451604 -12.03008656 153.00632528 4 159 C0.28175487 169.45079579 -8.63120447 173.83410862 -18.09765625 178.3359375 C-32.93364756 184.9236151 -49.19499345 182.46925835 -63.9921875 176.8671875 C-64.65476562 176.58101562 -65.31734375 176.29484375 -66 176 C-66.17607788 177.04824951 -66.17607788 177.04824951 -66.35571289 178.11767578 C-67.652259 183.91798778 -70.19942242 189.3808386 -72.4375 194.875 C-72.85792068 195.91093796 -72.85792068 195.91093796 -73.28683472 196.96780396 C-78.22937164 209.10378883 -83.5578733 221.04716428 -89.0625 232.9375 C-89.44409271 233.76279205 -89.82568542 234.58808411 -90.21884155 235.43838501 C-94.00743916 243.61676157 -97.84705681 251.76266743 -101.88671875 259.8203125 C-102.46091553 260.97539307 -103.0351123 262.13047363 -103.62670898 263.32055664 C-104.67414396 265.41243347 -105.7388872 267.49577498 -106.82446289 269.56811523 C-109.53083505 274.78334019 -109.53083505 274.78334019 -109.4296875 280.51171875 C-108.07143718 283.09951545 -108.07143718 283.09951545 -105.875 285.25 C-102.92896408 289.57085268 -103.20606974 292.91273921 -104 298 C-106.8094376 310.20582857 -111.49185541 321.33573022 -118 332 C-118.41121094 332.76054687 -118.82242188 333.52109375 -119.24609375 334.3046875 C-123.40118985 340.65312941 -131.72344373 341.95255109 -138.69335938 343.52734375 C-160.54470407 348.00492666 -186.30376423 348.24320978 -207 339 C-210.21918175 336.75038568 -212.03046013 334.37483317 -214 331 C-214.60070312 329.97648437 -215.20140625 328.95296875 -215.8203125 327.8984375 C-221.44098009 317.48021264 -224.50030366 306.76367311 -226 295 C-226.10183594 294.2059375 -226.20367187 293.411875 -226.30859375 292.59375 C-226.51895311 289.17700409 -226.61986818 286.89634347 -224.625 284.01171875 C-222.9375 282.1875 -222.9375 282.1875 -221.21484375 280.60546875 C-220.81394531 280.07566406 -220.41304687 279.54585938 -220 279 C-220.48254255 275.83191116 -221.76767888 273.37282748 -223.3359375 270.60546875 C-224.05789307 269.31491577 -224.05789307 269.31491577 -224.79443359 267.99829102 C-225.31602051 267.07072998 -225.83760742 266.14316895 -226.375 265.1875 C-232.74079036 253.67237877 -238.48397702 241.94192371 -244 230 C-244.57646525 228.75698379 -245.15296404 227.51398313 -245.72949219 226.27099609 C-265 184.65151977 -265 184.65151977 -265 177 C-265.94359375 177.33773437 -266.8871875 177.67546875 -267.859375 178.0234375 C-286.03095472 184.39312703 -302.35387653 186.72961678 -320.3125 178.1875 C-326.21121277 175.07600622 -332.75954137 171.07585992 -336 165 C-335.98828125 163.08984375 -335.98828125 163.08984375 -335 161 C-332.70254218 159.64053875 -330.65133634 158.65643726 -328.1875 157.6875 C-327.09284424 157.24736572 -327.09284424 157.24736572 -325.97607422 156.79833984 C-318.68230677 154.01532787 -311.18626336 152.03711807 -303.625 150.125 C-302.4496167 149.82682373 -301.2742334 149.52864746 -300.06323242 149.22143555 C-293.04496886 147.52119326 -286.21169676 146.40745082 -279 146 C-279 145.34 -279 144.68 -279 144 C-279.57363281 144.04640625 -280.14726562 144.0928125 -280.73828125 144.140625 C-300.82097261 144.99391082 -322.68616155 137.38181587 -338.1875 124.75 C-350.08330203 113.8154749 -355.18662517 98.79659544 -356 83 C-356.28224739 75.61775638 -355.56299992 68.64738176 -354.3125 61.375 C-354.13243408 60.32175537 -353.95236816 59.26851074 -353.7668457 58.18334961 C-350.52473652 40.05883747 -344.24263541 20.47494142 -334 5 C-333.34 4.67 -332.68 4.34 -332 4 C-331.98018066 5.03181396 -331.96036133 6.06362793 -331.93994141 7.12670898 C-331.86249138 11.04276497 -331.77402097 14.95851455 -331.68261719 18.87426758 C-331.64489129 20.55259041 -331.60995329 22.23097879 -331.578125 23.90942383 C-331.40891557 32.7321093 -331.09626171 41.49575523 -330.109375 50.26953125 C-330.03643219 50.94398788 -329.96348938 51.61844452 -329.88833618 52.31333923 C-328.77521104 61.31374509 -325.70543814 68.95924655 -320 76 C-320 76.66 -320 77.32 -320 78 C-319.42894531 78.26941406 -318.85789062 78.53882812 -318.26953125 78.81640625 C-315.93068948 80.03614645 -313.84946456 81.4283489 -311.6875 82.9375 C-297.13285025 92.61704862 -280.25891318 91.55449788 -263.44921875 90.1953125 C-261.22071197 90.02299761 -258.99219597 89.85080182 -256.76367188 89.67871094 C-255.60923584 89.58811401 -254.4547998 89.49751709 -253.26538086 89.4041748 C-193.53975995 84.74390544 -134.86970046 84.42564347 -75 87.55078125 C-45.41253519 89.62896577 -45.41253519 89.62896577 -18 80 C-17.04867187 79.42378906 -17.04867187 79.42378906 -16.078125 78.8359375 C-6.90358021 72.21889856 -2.79166918 58.62597643 -1 48 C-0.15560504 41.84162195 0.13739975 35.80111327 0.09765625 29.58984375 C0.0962413 28.73693253 0.09482635 27.8840213 0.09336853 27.00526428 C0.08782939 24.31597184 0.0752888 21.62676672 0.0625 18.9375 C0.05747712 17.09961059 0.0529156 15.26171985 0.04882812 13.42382812 C0.03788 8.94918578 0.02065839 4.47460762 0 0 Z " fill="#C91140" transform="translate(362,1)"/>
<path d="M0 0 C0.99 0.33 1.98 0.66 3 1 C3 4.63 3 8.26 3 12 C7.41734825 11.71813802 11.83369167 11.42267873 16.25 11.125 C18.10238281 11.00705078 18.10238281 11.00705078 19.9921875 10.88671875 C26.88997194 10.41476508 33.61071764 9.69017263 40.40527344 8.39794922 C42.98105102 8.00290618 45.39873748 7.9301241 48 8 C48 8.99 48 9.98 48 11 C32.89347306 13.66013541 18.35362399 15.66594032 3 15 C3 19.29 3 23.58 3 28 C7.91165398 27.59526448 12.82292261 27.18621556 17.73388672 26.77319336 C19.40403552 26.63333906 21.07428291 26.49465679 22.74462891 26.35717773 C25.14773099 26.15918271 27.55044517 25.95695337 29.953125 25.75390625 C30.69806213 25.6934462 31.44299927 25.63298615 32.21051025 25.57069397 C35.57317827 25.28270357 38.74033246 24.85996023 42 24 C44.33300933 23.96111651 46.66709801 23.9551365 49 24 C48.67 24.99 48.34 25.98 48 27 C45.6470386 27.48933268 43.29225316 27.96451776 40.93359375 28.42578125 C39.11018224 28.78269402 37.28922119 29.15270209 35.47265625 29.54296875 C24.7823876 31.63078921 13.85604466 31.65039856 3 32 C3 35.3 3 38.6 3 42 C19.02974695 40.91953808 35.0261943 39.72988218 51 38 C51 38.99 51 39.98 51 41 C44.12334231 42.51043687 37.32475534 43.51746249 30.3125 44.125 C29.36294434 44.20991699 28.41338867 44.29483398 27.43505859 44.38232422 C19.60219779 45.03958098 11.85656885 45.22027763 4 45 C5.94760997 54.14009943 8.8416693 62.20805876 16.5 68.0625 C22.96145352 71.62743987 30.68737318 70.83510404 37.703125 69.4765625 C47.07432461 66.42336521 53.9098495 58.16985369 60.625 51.3125 C67.88617892 43.98065268 75.42298768 37.15199303 86.125 36.625 C91.11487341 37.10789098 94.44904899 38.44904899 98 42 C98.125 45.625 98.125 45.625 98 49 C97.05125 49.35707031 96.1025 49.71414062 95.125 50.08203125 C91.75877957 51.72322309 91.75877957 51.72322309 90.75 55.07421875 C90.37875 56.86279297 90.37875 56.86279297 90 58.6875 C88.43870695 65.0110635 86.45850547 69.27992888 82 74 C81.54367187 74.51820313 81.08734375 75.03640625 80.6171875 75.5703125 C76.53264898 79.18128133 70.70955724 80.8820995 65.375 81.25 C64.59125 81.1675 63.8075 81.085 63 81 C65.41086944 84.24220373 66.74218142 85.74914292 70.78125 86.5546875 C73.52538928 86.78808079 76.24676404 86.94696043 79 87 C75.27649978 89.48233348 72.31433067 89.54322777 68 89 C65.50920001 88.19002181 63.35393425 87.17696713 61 86 C61.61996078 87.29409289 62.24616353 88.58519673 62.875 89.875 C63.39707031 90.95394531 63.39707031 90.95394531 63.9296875 92.0546875 C64.96557543 94.15135019 64.96557543 94.15135019 67 96 C69.07354839 96.28103071 69.07354839 96.28103071 71.375 96.1875 C72.53128906 96.17783203 72.53128906 96.17783203 73.7109375 96.16796875 C75.91889344 96.00595151 77.87535332 95.60634894 80 95 C79.34 96.65 78.68 98.3 78 100 C70.58172232 101.69897063 70.58172232 101.69897063 66.94921875 100.09375 C63.71984746 97.82558344 61.11872974 95.36504135 59 92 C52.98995312 107.16821356 50.8370006 121.88256847 50.75 138.125 C50.74073486 139.22859863 50.73146973 140.33219727 50.72192383 141.46923828 C50.72603271 142.51321777 50.7301416 143.55719727 50.734375 144.6328125 C50.73775879 146.03877686 50.73775879 146.03877686 50.74121094 147.47314453 C51.01007475 150.09837137 51.6673672 151.74431718 53 154 C53.66 153.67 54.32 153.34 55 153 C55.2475 154.19625 55.495 155.3925 55.75 156.625 C56.85557708 161.10298486 58.69316064 164.69316064 62 168 C63.73623 183.37803715 55.8188273 199.18804068 48 212 C47.58878906 212.76054687 47.17757812 213.52109375 46.75390625 214.3046875 C42.59881015 220.65312941 34.27655627 221.95255109 27.30664062 223.52734375 C5.45529593 228.00492666 -20.30376423 228.24320978 -41 219 C-44.21918175 216.75038568 -46.03046013 214.37483317 -48 211 C-48.60070312 209.97648438 -49.20140625 208.95296875 -49.8203125 207.8984375 C-55.44098009 197.48021264 -58.50030366 186.76367311 -60 175 C-60.10183594 174.2059375 -60.20367187 173.411875 -60.30859375 172.59375 C-60.51584002 169.22756812 -60.64020308 166.91644232 -58.66015625 164.08203125 C-57.56890315 162.91888383 -56.46106656 161.77103636 -55.3359375 160.640625 C-53.67434032 158.90364871 -53.67434032 158.90364871 -53.625 155.5625 C-53.74875 154.716875 -53.8725 153.87125 -54 153 C-53.34 152.67 -52.68 152.34 -52 152 C-51.01 153.98 -51.01 153.98 -50 156 C-48.29727114 148.82659337 -47.61291831 141.99120385 -47.625 134.625 C-47.62661133 133.58714355 -47.62822266 132.54928711 -47.62988281 131.47998047 C-47.83063105 118.58682664 -49.81137222 105.46926467 -55.265625 93.6796875 C-56 92 -56 92 -56 90 C-56.66 90 -57.32 90 -58 90 C-58.0928125 91.051875 -58.0928125 91.051875 -58.1875 92.125 C-59.30471238 96.07821304 -61.20187383 97.99713289 -64 101 C-66.88415883 102.44207941 -69.41721528 102.09394887 -72.625 102.0625 C-73.81351563 102.05347656 -75.00203125 102.04445313 -76.2265625 102.03515625 C-77.59941406 102.01775391 -77.59941406 102.01775391 -79 102 C-78.67 100.68 -78.34 99.36 -78 98 C-76.515 98.495 -76.515 98.495 -75 99 C-69.20070646 99.61574169 -69.20070646 99.61574169 -64.1875 97.0625 C-61.46190539 93.24666755 -60.20498404 89.49664777 -59 85 C-59.61746094 85.34933594 -60.23492187 85.69867188 -60.87109375 86.05859375 C-66.50173766 89.08388644 -71.51545758 91.1956543 -78 91 C-78.66 90.67 -79.32 90.34 -80 90 C-80 89.34 -80 88.68 -80 88 C-79.12988281 87.94392578 -79.12988281 87.94392578 -78.2421875 87.88671875 C-72.24141412 87.38170317 -67.4203251 86.4203251 -63 82 C-63.68964844 81.85304688 -64.37929687 81.70609375 -65.08984375 81.5546875 C-73.67913104 79.50456955 -80.98598948 76.58852209 -85.9375 68.9375 C-86.65182276 67.63940313 -87.34290961 66.32798521 -88 65 C-88.433125 64.13375 -88.86625 63.2675 -89.3125 62.375 C-90.14270272 59.50702697 -90.13813425 56.96988633 -90 54 C-90.78375 53.896875 -91.5675 53.79375 -92.375 53.6875 C-95 53 -95 53 -97 50 C-96.91257539 46.06589256 -96.0011086 44.00181407 -93.9375 40.625 C-91 38 -91 38 -87.3125 37.375 C-73.75120296 38.52210219 -64.73516826 48.16025065 -55.73388672 57.29052734 C-47.62744589 65.46834863 -39.31437287 72.0593588 -27.3125 72.4375 C-21.13444847 72.17608738 -17.10158463 70.85139599 -12.375 66.6875 C-11.59125 65.800625 -10.8075 64.91375 -10 64 C-9.154375 63.175 -8.30875 62.35 -7.4375 61.5 C-3.59520179 56.90383316 -2.50591735 50.67032568 -1 45 C-2.83498047 45.03480469 -2.83498047 45.03480469 -4.70703125 45.0703125 C-18.63142542 45.24997312 -32.2722965 44.41869062 -46 42 C-46 41.01 -46 40.02 -46 39 C-39.5398572 38.7834589 -33.33854304 38.99821651 -26.9375 39.9375 C-17.98821711 41.24919323 -9.03038869 41.63061919 0 42 C0 38.7 0 35.4 0 32 C-1.41667969 31.96261719 -2.83335937 31.92523438 -4.29296875 31.88671875 C-35.30231505 30.89922832 -35.30231505 30.89922832 -47 27 C-47 26.01 -47 25.02 -47 24 C-41.87293113 24.43781712 -36.75134788 24.91085856 -31.63671875 25.4765625 C-21.09774851 26.6385459 -10.5904588 27.48471519 0 28 C0 24.04 0 20.08 0 16 C-1.58748047 16.06960937 -1.58748047 16.06960937 -3.20703125 16.140625 C-17.73803851 16.55714475 -31.69903514 14.412095 -46 12 C-46 11.01 -46 10.02 -46 9 C-45.31711914 9.05534912 -44.63423828 9.11069824 -43.93066406 9.16772461 C-29.2940131 10.34576662 -14.67090183 11.37077396 0 12 C0 8.04 0 4.08 0 0 Z " fill="#0C1923" transform="translate(196,121)"/>
<path d="M0 0 C4.19981639 3.74146079 5.96089968 8.84140287 8.25 13.875 C8.73726563 14.94403564 9.22453125 16.01307129 9.7265625 17.11450195 C20.75683262 41.79217804 30.29272354 70.10788223 22 97 C14.81398713 115.44409969 1.80279204 126.22936433 -15.6875 134.25 C-23.53008217 137.45105395 -31.67934059 139.46466609 -39.91040039 141.40917969 C-42.35450013 142.10023254 -44.65663964 143.02455742 -47 144 C-46.27224365 144.17015625 -45.5444873 144.3403125 -44.79467773 144.515625 C-28.14771313 148.4451604 -12.03008656 153.00632528 4 159 C0.28175487 169.45079579 -8.63120447 173.83410862 -18.09765625 178.3359375 C-32.93364756 184.9236151 -49.19499345 182.46925835 -63.9921875 176.8671875 C-64.65476562 176.58101562 -65.31734375 176.29484375 -66 176 C-66.17607788 177.04824951 -66.17607788 177.04824951 -66.35571289 178.11767578 C-67.652259 183.91798778 -70.19942242 189.3808386 -72.4375 194.875 C-72.85792068 195.91093796 -72.85792068 195.91093796 -73.28683472 196.96780396 C-84.35425459 224.14292521 -97.16065521 250.62594196 -110 277 C-110.99 275.515 -110.99 275.515 -112 274 C-112.66 274.66 -113.32 275.32 -114 276 C-116.51288341 270.18332565 -116.34488767 264.53374894 -116.3125 258.3125 C-116.30512817 256.64888428 -116.30512817 256.64888428 -116.29760742 254.95166016 C-116.0804906 239.47735448 -113.46904377 225.46162166 -108 211 C-107.23558594 211.77730469 -106.47117188 212.55460938 -105.68359375 213.35546875 C-102.04286419 216.9432037 -99.01872434 219.6770041 -93.875 220.5 C-90.37611697 219.8914986 -89.204849 218.71366031 -87 216 C-87.99 216.33 -88.98 216.66 -90 217 C-93.73115298 217.55198705 -97.45127081 218.08338333 -100.6640625 215.8359375 C-103.30516304 212.82415618 -104.64977709 209.96919293 -105 206 C-104.01 206.33 -103.02 206.66 -102 207 C-97.91405167 208.1865126 -94.23657606 208.14865179 -90 208 C-92.64 207.67 -95.28 207.34 -98 207 C-98 206.67 -98 206.34 -98 206 C-97.28714844 205.97421875 -96.57429688 205.9484375 -95.83984375 205.921875 C-94.88207031 205.86515625 -93.92429687 205.8084375 -92.9375 205.75 C-91.99777344 205.70359375 -91.05804688 205.6571875 -90.08984375 205.609375 C-85.52122618 204.70835813 -81.62088267 203.14242341 -78.77612305 199.38232422 C-77.69299081 197.48000129 -76.76787594 195.56102232 -75.875 193.5625 C-75.54371094 192.86253906 -75.21242188 192.16257813 -74.87109375 191.44140625 C-71.91500497 185.09214162 -69.34964962 178.59709316 -67 172 C-63.84460011 172.70119998 -60.99282435 173.78861871 -58 175 C-51.97155846 177.20962798 -46.38272035 177.79489973 -40 178 C-38.99710937 178.06316406 -37.99421875 178.12632812 -36.9609375 178.19140625 C-25.03307431 178.6691372 -15.38713509 174.18190336 -6 167 C-3.75000425 164.76737873 -1.91641029 162.53794876 0 160 C-0.94875 159.9175 -1.8975 159.835 -2.875 159.75 C-6.01234269 159.31012354 -8.60134724 158.40646569 -11.50390625 157.1484375 C-17.23306262 154.80545652 -23.05146676 153.31035727 -29.0625 151.875 C-30.08666016 151.62363281 -31.11082031 151.37226563 -32.16601562 151.11328125 C-34.1826999 150.62102988 -36.20116338 150.13600394 -38.22143555 149.65869141 C-39.90867289 149.25871194 -41.59335024 148.84740783 -43.27270508 148.41552734 C-49.96323217 146.76345048 -56.70177109 146.33820361 -63.5625 145.875 C-65.36170898 145.74544922 -65.36170898 145.74544922 -67.19726562 145.61328125 C-70.13114168 145.40288376 -73.06530611 145.19860511 -76 145 C-76.10546143 144.23558594 -76.21092285 143.47117188 -76.31958008 142.68359375 C-78.79729357 119.96883378 -78.79729357 119.96883378 -84.0859375 97.8359375 C-85 95 -85 95 -85 91 C-96.4760071 90.3203295 -107.94507772 89.74983604 -119.4375 89.4375 C-120.57131104 89.40623016 -120.57131104 89.40623016 -121.72802734 89.37432861 C-136.65073967 88.97704856 -151.57256267 88.89151522 -166.5 88.875 C-167.56620575 88.8724118 -168.6324115 88.86982361 -169.73092651 88.86715698 C-188.29638412 88.83153714 -206.75282055 89.4131478 -225.25 91.0625 C-232.1972947 91.68013465 -239.02308071 92.10856202 -246 92 C-246.12761719 93.02480469 -246.25523437 94.04960938 -246.38671875 95.10546875 C-246.9465469 98.66055581 -247.75986046 101.8777917 -248.8125 105.3125 C-252.71898354 118.69398181 -255.44717389 132.14715652 -257 146 C-258.00933594 146.08636719 -259.01867187 146.17273438 -260.05859375 146.26171875 C-269.56963784 147.15771914 -278.88209487 148.62203088 -288.25 150.5 C-289.32048584 150.71358154 -290.39097168 150.92716309 -291.49389648 151.1472168 C-296.45659225 152.1674116 -301.21888766 153.29774638 -306 155 C-307.3695984 155.31606117 -308.74465905 155.60975801 -310.125 155.875 C-317.27742964 157.40506135 -324.52573706 159.55526152 -331 163 C-327.70718725 170.45300057 -320.07384816 174.95111504 -312.74609375 177.91015625 C-299.29267249 182.32616476 -282.12771402 181.48378934 -269.4375 175.25 C-268.2309375 174.63125 -268.2309375 174.63125 -267 174 C-264.8125 173.875 -264.8125 173.875 -263 175 C-260.96462312 178.82650854 -259.79919265 182.65362769 -258.625 186.8125 C-256.43321474 194.28968408 -253.83514127 201.68306867 -247 206 C-245.515 206.99 -245.515 206.99 -244 208 C-244.66 208 -245.32 208 -246 208 C-246 208.66 -246 209.32 -246 210 C-240.35338286 210.49101019 -236.50195162 209.24416457 -231.33203125 206.97265625 C-229.22409374 206.09346623 -227.22653037 205.48625376 -225 205 C-225.93437598 210.64313915 -226.813082 214.813082 -231 219 C-234.12706959 220.5635348 -237.57982443 220.39958487 -241 220 C-242.485 219.01 -242.485 219.01 -244 218 C-244 218.99 -244 219.98 -244 221 C-236.22374006 221.60484763 -236.22374006 221.60484763 -228.9375 219.4375 C-226.52719083 216.40517556 -225.32823219 213.63516177 -224 210 C-223.34 210 -222.68 210 -222 210 C-211.81223464 230.54254327 -210.29435218 254.77407193 -215 277 C-216.32 275.68 -217.64 274.36 -219 273 C-219.66 273.66 -220.32 274.32 -221 275 C-229.25951613 260.25816675 -236.91462827 245.33948805 -244 230 C-244.57646525 228.75698379 -245.15296404 227.51398313 -245.72949219 226.27099609 C-265 184.65151977 -265 184.65151977 -265 177 C-265.94359375 177.33773437 -266.8871875 177.67546875 -267.859375 178.0234375 C-286.03095472 184.39312703 -302.35387653 186.72961678 -320.3125 178.1875 C-326.21121277 175.07600622 -332.75954137 171.07585992 -336 165 C-335.98828125 163.08984375 -335.98828125 163.08984375 -335 161 C-332.70254218 159.64053875 -330.65133634 158.65643726 -328.1875 157.6875 C-327.09284424 157.24736572 -327.09284424 157.24736572 -325.97607422 156.79833984 C-318.68230677 154.01532787 -311.18626336 152.03711807 -303.625 150.125 C-302.4496167 149.82682373 -301.2742334 149.52864746 -300.06323242 149.22143555 C-293.04496886 147.52119326 -286.21169676 146.40745082 -279 146 C-279 145.34 -279 144.68 -279 144 C-279.57363281 144.04640625 -280.14726562 144.0928125 -280.73828125 144.140625 C-300.82097261 144.99391082 -322.68616155 137.38181587 -338.1875 124.75 C-350.08330203 113.8154749 -355.18662517 98.79659544 -356 83 C-356.28224739 75.61775638 -355.56299992 68.64738176 -354.3125 61.375 C-354.13243408 60.32175537 -353.95236816 59.26851074 -353.7668457 58.18334961 C-350.52473652 40.05883747 -344.24263541 20.47494142 -334 5 C-333.34 4.67 -332.68 4.34 -332 4 C-331.98018066 5.03181396 -331.96036133 6.06362793 -331.93994141 7.12670898 C-331.86249138 11.04276497 -331.77402097 14.95851455 -331.68261719 18.87426758 C-331.64489129 20.55259041 -331.60995329 22.23097879 -331.578125 23.90942383 C-331.40891557 32.7321093 -331.09626171 41.49575523 -330.109375 50.26953125 C-330.03643219 50.94398788 -329.96348938 51.61844452 -329.88833618 52.31333923 C-328.77521104 61.31374509 -325.70543814 68.95924655 -320 76 C-320 76.66 -320 77.32 -320 78 C-319.42894531 78.26941406 -318.85789062 78.53882812 -318.26953125 78.81640625 C-315.93068948 80.03614645 -313.84946456 81.4283489 -311.6875 82.9375 C-297.13285025 92.61704862 -280.25891318 91.55449788 -263.44921875 90.1953125 C-261.22071197 90.02299761 -258.99219597 89.85080182 -256.76367188 89.67871094 C-255.60923584 89.58811401 -254.4547998 89.49751709 -253.26538086 89.4041748 C-193.53975995 84.74390544 -134.86970046 84.42564347 -75 87.55078125 C-45.41253519 89.62896577 -45.41253519 89.62896577 -18 80 C-17.04867187 79.42378906 -17.04867187 79.42378906 -16.078125 78.8359375 C-6.90358021 72.21889856 -2.79166918 58.62597643 -1 48 C-0.15560504 41.84162195 0.13739975 35.80111327 0.09765625 29.58984375 C0.0962413 28.73693253 0.09482635 27.8840213 0.09336853 27.00526428 C0.08782939 24.31597184 0.0752888 21.62676672 0.0625 18.9375 C0.05747712 17.09961059 0.0529156 15.26171985 0.04882812 13.42382812 C0.03788 8.94918578 0.02065839 4.47460762 0 0 Z " fill="#212933" transform="translate(362,1)"/>
<path d="M0 0 C2.91015625 2.55078125 2.91015625 2.55078125 3.55078125 5.35546875 C1.79124327 19.18543726 -2.49142346 30.87267221 -10.08984375 42.55078125 C-10.65574219 43.59621094 -11.22164063 44.64164062 -11.8046875 45.71875 C-14.84161925 49.48246884 -17.51468041 50.16718463 -22.08984375 51.30078125 C-22.78207031 51.49542969 -23.47429687 51.69007813 -24.1875 51.890625 C-42.35253623 56.80276728 -62.315786 57.66666507 -80.77734375 53.86328125 C-81.51154541 53.71487793 -82.24574707 53.56647461 -83.00219727 53.41357422 C-89.48813615 51.87034466 -95.02464403 49.0619179 -99.296875 43.8671875 C-99.82667969 42.95839844 -100.35648438 42.04960937 -100.90234375 41.11328125 C-101.71638672 39.75396484 -101.71638672 39.75396484 -102.546875 38.3671875 C-109.63155188 25.4354102 -111.76748385 14.04474999 -111.08984375 -0.44921875 C-75.62547784 -21.8767142 -35.33987942 -22.31524461 0 0 Z " fill="#C91140" transform="translate(251.08984375,288.44921875)"/>
<path d="M0 0 C0.43570313 0.38671875 0.87140625 0.7734375 1.3203125 1.171875 C10.52229494 9.21863021 17.85483027 12.4865678 30.15234375 12.26171875 C35.65122125 11.75633495 41.20586949 10.44577028 46.12890625 7.8984375 C48 7 48 7 51 7 C50.731875 8.134375 50.46375 9.26875 50.1875 10.4375 C49.79160545 12.2916536 49.39578178 14.14582233 49 16 C48.73574219 17.10988281 48.47148437 18.21976563 48.19921875 19.36328125 C43.98181283 39.25104849 44.73828014 60.1929393 49 80 C49.34389897 81.99821035 49.68122969 83.99762726 50 86 C49.30777344 85.69707031 48.61554688 85.39414062 47.90234375 85.08203125 C42.150725 82.6192169 36.3593397 80.33334213 30.4375 78.3125 C29.28121094 77.91675781 28.12492187 77.52101563 26.93359375 77.11328125 C3.31183527 69.97902672 -23.20506678 72.73520306 -45 84 C-45.66 84 -46.32 84 -47 84 C-46.51461769 79.72863566 -45.67182556 75.80657146 -44.48828125 71.671875 C-42.66614925 64.43171734 -42.46630954 57.43866985 -42.5 50 C-42.49976837 49.32656555 -42.49953674 48.6531311 -42.4992981 47.95928955 C-42.52731555 36.05134481 -44.41720507 25.34747508 -48 14 C-48.362575 12.33944941 -48.71198981 10.67509373 -49 9 C-48.18970337 9.31831787 -48.18970337 9.31831787 -47.36303711 9.64306641 C-41.63155889 11.7445879 -36.64616288 12.48278509 -30.5625 12.375 C-29.31472778 12.35977295 -29.31472778 12.35977295 -28.04174805 12.34423828 C-16.1657235 12.04440324 -8.2922119 8.52043791 0 0 Z " fill="#C91140" transform="translate(196,196)"/>
<path d="M0 0 C8.21537461 3.66953399 12.66377405 10.7132323 16.640625 18.453125 C21.46626307 27.49426299 29.55013201 32.59404051 39 36 C42.41486631 36.79828423 45.56249665 37.12257753 49.06567383 37.11352539 C50.53663261 37.11341209 50.53663261 37.11341209 52.03730774 37.11329651 C53.0833165 37.10813522 54.12932526 37.10297394 55.20703125 37.09765625 C56.82782845 37.09553383 56.82782845 37.09553383 58.48136902 37.09336853 C61.92510776 37.0877808 65.36878098 37.0752305 68.8125 37.0625 C71.15038968 37.05748342 73.48828039 37.05292079 75.82617188 37.04882812 C81.55080353 37.03781538 87.27539708 37.02108941 93 37 C92.68809036 38.60578794 92.37363704 40.21108194 92.05810547 41.81616211 C91.8832663 42.7101622 91.70842712 43.60416229 91.52828979 44.5252533 C90.93605693 47.29953805 90.08696357 49.89523738 89.125 52.5625 C85.75546353 63.05113232 84.58079792 74.12883744 83 85 C28.54236157 85.86020571 28.54236157 85.86020571 7.5 67.5625 C-5.38751332 55.05465156 -10.37763985 40.80512002 -10.6875 23.0625 C-10.78291553 15.53381496 -10.77773522 10.25786799 -5.5625 4.5625 C-3.06640625 2.44140625 -3.06640625 2.44140625 -1 1 C-0.67 0.67 -0.34 0.34 0 0 Z " fill="#FBFBFB" transform="translate(20,57)"/>
<path d="M0 0 C2.09076271 1.2336571 3.54612745 2.32018503 5.10009766 4.19750977 C6.05487993 7.90741179 5.90466275 11.45322985 5.72509766 15.26000977 C5.69689941 16.29480469 5.66870117 17.32959961 5.63964844 18.39575195 C4.99020917 35.51831244 -0.55908689 48.17530401 -12.89990234 60.19750977 C-21.93064129 68.48988641 -34.364634 73.51311062 -45.89990234 77.19750977 C-46.72232422 77.47336914 -47.54474609 77.74922852 -48.39208984 78.03344727 C-61.41039366 82.02994783 -75.37486835 82.58890946 -88.89990234 82.19750977 C-90.27383403 76.70178304 -91.1490487 71.33019253 -91.77490234 65.69750977 C-92.53070215 59.00840273 -93.8404635 52.56889551 -95.49121094 46.04516602 C-96.5680918 41.77502706 -97.30645717 37.55869491 -97.89990234 33.19750977 C-96.77197266 33.18292725 -95.64404297 33.16834473 -94.48193359 33.15332031 C-90.21731954 33.09447492 -85.95318713 33.01726499 -81.68896484 32.93505859 C-79.85831637 32.9022082 -78.02757627 32.87405842 -76.19677734 32.85107422 C-49.9862333 32.59356128 -49.9862333 32.59356128 -27.63037109 20.09204102 C-24.1215804 16.30147363 -21.27508608 12.2692818 -18.46240234 7.94750977 C-13.83555505 1.14519528 -8.06477976 -3.40644193 0 0 Z " fill="#FBFCFC" transform="translate(377.89990234375,59.802490234375)"/>
<path d="M0 0 C4.07767129 4.07767129 5.88089283 8.66547251 8.25 13.875 C8.73726563 14.94403564 9.22453125 16.01307129 9.7265625 17.11450195 C20.75683262 41.79217804 30.29272354 70.10788223 22 97 C14.81398713 115.44409969 1.80279204 126.22936433 -15.6875 134.25 C-24.57441912 137.86536028 -35.3302448 142 -45 142 C-45 141.34 -45 140.68 -45 140 C-45.89525391 140.2165625 -45.89525391 140.2165625 -46.80859375 140.4375 C-55.56594877 142.3112877 -64.09796172 142.18785075 -73 142 C-73 141.67 -73 141.34 -73 141 C-71.67947632 140.90295776 -71.67947632 140.90295776 -70.33227539 140.80395508 C-46.72651998 139.17642059 -46.72651998 139.17642059 -24 133 C-22.90300781 132.59652344 -21.80601562 132.19304687 -20.67578125 131.77734375 C-5.39833695 125.81588179 7.3421144 116.82697 15 102 C18.97932464 92.77961363 20.27579734 84.47701817 20.5 74.5 C20.58121094 72.95119141 20.58121094 72.95119141 20.6640625 71.37109375 C20.88735037 65.88841993 20.88735037 65.88841993 18.52709961 61.16137695 C15.28386543 58.71273729 13.71067435 57.96123594 9.5625 58.1875 C8.716875 58.455625 7.87125 58.72375 7 59 C7.33 58.01 7.66 57.02 8 56 C6.02 56.66 4.04 57.32 2 58 C1.87411527 50.69868554 1.87411527 50.69868554 2.48632812 47.30078125 C3.03255433 43.79081058 3.21020655 40.40166672 3.31640625 36.8515625 C3.33718735 36.19417084 3.35796844 35.53677917 3.37937927 34.85946655 C3.44420753 32.78140638 3.50344564 30.70323144 3.5625 28.625 C3.60574888 27.20701989 3.64936509 25.78905093 3.69335938 24.37109375 C3.79981918 20.9141812 3.90126984 17.45714294 4 14 C3.01 13.505 3.01 13.505 2 13 C2.06900513 14.24873901 2.06900513 14.24873901 2.1394043 15.52270508 C2.30278719 18.61403034 2.45214626 21.70562543 2.59204102 24.7980957 C2.68660785 26.79367369 2.79732981 28.78846468 2.90820312 30.78320312 C2.96298828 32.03681641 3.01777344 33.29042969 3.07421875 34.58203125 C3.13182373 35.73936768 3.18942871 36.8967041 3.2487793 38.08911133 C3 41 3 41 0 44 C0 29.48 0 14.96 0 0 Z " fill="#243039" transform="translate(362,1)"/>
<path d="M0 0 C0.33 0 0.66 0 1 0 C1.01981934 1.03181396 1.03963867 2.06362793 1.06005859 3.12670898 C1.13750862 7.04276497 1.22597903 10.95851455 1.31738281 14.87426758 C1.35510871 16.55259041 1.39004671 18.23097879 1.421875 19.90942383 C1.59108443 28.7321093 1.90373829 37.49575523 2.890625 46.26953125 C2.96356781 46.94398788 3.03651062 47.61844452 3.11166382 48.31333923 C4.22478896 57.31374509 7.29456186 64.95924655 13 72 C13 72.66 13 73.32 13 74 C13.57105469 74.26941406 14.14210937 74.53882812 14.73046875 74.81640625 C17.06931052 76.03614645 19.15053544 77.4283489 21.3125 78.9375 C34.72549747 87.85779443 50.38133723 87.367261 66 88 C65.67 88.66 65.34 89.32 65 90 C60.89242037 90.07489276 56.7851124 90.12894754 52.67700195 90.16479492 C51.28337672 90.17975938 49.88979756 90.20013851 48.49633789 90.22631836 C40.54469123 90.3718275 33.35958275 90.33461089 26 87 C25.28191162 86.68933594 24.56382324 86.37867187 23.82397461 86.05859375 C13.78120168 81.56997871 8.11964501 73.99057649 3.125 64.4375 C0.62565002 59.88740133 -3.24158802 56.51210829 -7 53 C-11.91671409 55.17678311 -15.13657059 58.47650646 -18 63 C-18.82667102 65.94623984 -19.29126975 68.73705336 -19.61328125 71.77734375 C-19.74089844 72.51082031 -19.86851563 73.24429688 -20 74 C-20.99 74.495 -20.99 74.495 -22 75 C-24.03378982 49.3290529 -13.91501748 22.77194966 -1 1 C-0.67 0.67 -0.34 0.34 0 0 Z " fill="#1F2D36" transform="translate(29,5)"/>
<path d="M0 0 C0.66 0 1.32 0 2 0 C12.18776536 20.54254327 13.70564782 44.77407193 9 67 C5.03341019 63.34227803 2.75638835 58.71881325 0.125 54.0625 C-0.43856201 53.06645752 -1.00212402 52.07041504 -1.58276367 51.04418945 C-6.18825532 42.75379481 -10.33102695 34.28941528 -14.3125 25.6875 C-14.60066589 25.06682648 -14.88883179 24.44615295 -15.18572998 23.80667114 C-20 13.39819933 -20 13.39819933 -20 11 C-18.78763672 11.06960937 -18.78763672 11.06960937 -17.55078125 11.140625 C-11.01701893 11.44935319 -11.01701893 11.44935319 -4.9375 9.4375 C-2.52719083 6.40517556 -1.32823219 3.63516177 0 0 Z " fill="#C5113F" transform="translate(138,211)"/>
<path d="M0 0 C0.76957031 0.77601563 1.53914062 1.55203125 2.33203125 2.3515625 C7.12722888 7.37884166 7.12722888 7.37884166 13.60546875 9.0234375 C16.09694495 8.77745254 18.53203516 8.41287646 21 8 C18.81260727 14.8948884 16.20742597 21.49812117 13.3125 28.125 C12.65374878 29.63743286 12.65374878 29.63743286 11.98168945 31.18041992 C8.86891305 38.23698543 5.48467379 45.05352765 1.76171875 51.8046875 C-0.62709801 56.13739729 -2.82546352 60.55683651 -5 65 C-12.53856572 53.69215141 -8.44095195 32.17980926 -6 19.34765625 C-4.57028183 12.71287037 -2.39856549 6.34245182 0 0 Z " fill="#C81140" transform="translate(254,212)"/>
<path d="M0 0 C-3.32524571 3.32524571 -7.63514162 3.94606378 -12.125 4.875 C-19.27742964 6.40506135 -26.52573706 8.55526152 -33 12 C-29.70718725 19.45300057 -22.07384816 23.95111504 -14.74609375 26.91015625 C-1.29267249 31.32616476 15.87228598 30.48378934 28.5625 24.25 C29.366875 23.8375 30.17125 23.425 31 23 C33.1875 22.875 33.1875 22.875 35 24 C37.03537688 27.82650854 38.20080735 31.65362769 39.375 35.8125 C41.56678526 43.28968408 44.16485873 50.68306867 51 55 C52.485 55.99 52.485 55.99 54 57 C53.34 57 52.68 57 52 57 C52 57.66 52 58.32 52 59 C57.64661714 59.49101019 61.49804838 58.24416457 66.66796875 55.97265625 C68.77590626 55.09346623 70.77346963 54.48625376 73 54 C72.06562402 59.64313915 71.186918 63.813082 67 68 C63.87293041 69.5635348 60.42017557 69.39958487 57 69 C55.515 68.01 55.515 68.01 54 67 C54.67123894 72.10141595 56.82406156 76.48970338 58.9375 81.125 C59.33356445 81.99866211 59.72962891 82.87232422 60.13769531 83.77246094 C63.00736604 90.02111847 66.05242593 96.16302254 69.25 102.25 C69.64952881 103.01070801 70.04905762 103.77141602 70.46069336 104.55517578 C72.80289325 108.94298413 75.31273334 113.13792978 78.09155273 117.26464844 C79 119 79 119 78.8125 122 C78.544375 122.66 78.27625 123.32 78 124 C67.52272773 111.00415267 60.95185449 94.02659984 54 79 C53.71882324 78.39403992 53.43764648 77.78807983 53.14794922 77.16375732 C33 33.73327092 33 33.73327092 33 26 C32.05640625 26.33773437 31.1128125 26.67546875 30.140625 27.0234375 C11.96904528 33.39312703 -4.35387653 35.72961678 -22.3125 27.1875 C-28.21121277 24.07600622 -34.75954137 20.07585992 -38 14 C-37.77685547 11.99633789 -37.77685547 11.99633789 -37 10 C-34.35746476 8.60047963 -31.90216055 7.49160689 -29.125 6.4375 C-28.35285156 6.13448975 -27.58070312 5.83147949 -26.78515625 5.51928711 C-17.76604203 2.04207227 -9.74476976 -0.47925097 0 0 Z " fill="#2C313B" transform="translate(64,152)"/>
<path d="M0 0 C4.40945132 2.62246315 6.55446816 5.68685352 8.1875 10.5 C7.95583578 14.8243988 6.7920353 17.75867166 4 21 C0.65819771 23.86922419 -2.66460447 25.23932168 -7.0625 25.5 C-11.48459569 24.93846404 -13.53943334 23.73626201 -17 21 C-17.99 20.34 -18.98 19.68 -20 19 C-19.67 21.31 -19.34 23.62 -19 26 C-22 25 -22 25 -23.15625 23.234375 C-24.69915455 19.14853516 -24.72570604 15.28359228 -24 11 C-21.84619537 6.43945282 -19.05900719 3.6644751 -14.8125 1 C-9.7322147 -0.33253385 -5.19645687 -1.05910191 0 0 Z " fill="#0F1823" transform="translate(230,287)"/>
<path d="M0 0 C4.51148416 2.39703046 7.60323533 5.73772065 9.87109375 10.2734375 C10.3200346 14.66787779 10.31950157 18.274711 8.49609375 22.3359375 C7.95984375 22.9753125 7.42359375 23.6146875 6.87109375 24.2734375 C6.21109375 24.2734375 5.55109375 24.2734375 4.87109375 24.2734375 C4.87109375 22.2934375 4.87109375 20.3134375 4.87109375 18.2734375 C3.96359375 19.0984375 3.05609375 19.9234375 2.12109375 20.7734375 C-2.2063363 23.86445896 -6.17548054 23.98666031 -11.3828125 23.765625 C-15.3022334 23.06313989 -16.86802039 21.48243678 -19.12890625 18.2734375 C-19.72703125 17.6546875 -20.32515625 17.0359375 -20.94140625 16.3984375 C-22.7320229 13.19417612 -22.5715542 10.87785654 -22.12890625 7.2734375 C-17.16023316 -0.82365939 -8.9320305 -3.0483627 0 0 Z " fill="#0D1823" transform="translate(176.12890625,289.7265625)"/>
<path d="M0 0 C3.95841558 0.9158288 7.82018549 2.13863685 11.6875 3.375 C12.37650391 3.58382812 13.06550781 3.79265625 13.77539062 4.0078125 C15.54926342 4.579917 17.27995521 5.28210435 19 6 C19.495 7.485 19.495 7.485 20 9 C17.76968311 8.54729698 15.54078437 8.08760374 13.3125 7.625 C12.07113281 7.36976563 10.82976562 7.11453125 9.55078125 6.8515625 C6.52596682 6.12613946 3.83940745 5.24868779 1 4 C0.82392212 5.04824951 0.82392212 5.04824951 0.64428711 6.11767578 C-0.652259 11.91798778 -3.19942242 17.3808386 -5.4375 22.875 C-5.71778046 23.56562531 -5.99806091 24.25625061 -6.28683472 24.96780396 C-17.35425459 52.14292521 -30.16065521 78.62594196 -43 105 C-43.33 105 -43.66 105 -44 105 C-44.61344562 99.10148442 -42.51618797 95.1790592 -39.9375 90.0625 C-39.10379055 88.35695464 -38.27046116 86.65122344 -37.4375 84.9453125 C-36.81488281 83.68509277 -36.81488281 83.68509277 -36.1796875 82.39941406 C-30.45464636 70.75502161 -25.23481413 58.87011099 -20 47 C-20.66 46.67 -21.32 46.34 -22 46 C-21.67 45.34 -21.34 44.68 -21 44 C-21.99 44.495 -21.99 44.495 -23 45 C-26.71904472 45.57721912 -30.46565365 46.07080846 -33.66796875 43.8359375 C-36.30393716 40.82119357 -37.64983002 37.96859308 -38 34 C-37.01 34.33 -36.02 34.66 -35 35 C-30.91405167 36.1865126 -27.23657606 36.14865179 -23 36 C-25.64 35.67 -28.28 35.34 -31 35 C-31 34.67 -31 34.34 -31 34 C-30.28714844 33.97421875 -29.57429688 33.9484375 -28.83984375 33.921875 C-27.88207031 33.86515625 -26.92429687 33.8084375 -25.9375 33.75 C-24.99777344 33.70359375 -24.05804688 33.6571875 -23.08984375 33.609375 C-18.52122618 32.70835813 -14.62088267 31.14242341 -11.77612305 27.38232422 C-10.69299081 25.48000129 -9.76787594 23.56102232 -8.875 21.5625 C-8.54371094 20.86253906 -8.21242188 20.16257813 -7.87109375 19.44140625 C-4.91500497 13.09214162 -2.34964962 6.59709316 0 0 Z " fill="#222F38" transform="translate(295,173)"/>
<path d="M0 0 C0.99 0.495 0.99 0.495 2 1 C3.52560084 16.51027522 -4.10314846 32.06018988 -12 45 C-12.61681641 46.14082031 -12.61681641 46.14082031 -13.24609375 47.3046875 C-17.40118985 53.65312941 -25.72344373 54.95255109 -32.69335938 56.52734375 C-54.54470407 61.00492666 -80.30376423 61.24320978 -101 52 C-104.21918175 49.75038568 -106.03046013 47.37483317 -108 44 C-108.90105469 42.46472656 -108.90105469 42.46472656 -109.8203125 40.8984375 C-114.02148157 33.11133332 -120.10113785 21.58565139 -118.59375 12.5703125 C-118.29984375 11.79300781 -118.29984375 11.79300781 -118 11 C-116 12 -116 12 -115.31738281 13.77490234 C-115.11467773 14.53754395 -114.91197266 15.30018555 -114.703125 16.0859375 C-114.46964355 16.92954834 -114.23616211 17.77315918 -113.99560547 18.64233398 C-113.74955566 19.54411377 -113.50350586 20.44589355 -113.25 21.375 C-111.01742562 29.18348074 -108.4923442 36.16438692 -104 43 C-103.401875 43.969375 -102.80375 44.93875 -102.1875 45.9375 C-90.58022359 56.88150347 -69.4843244 55.64559503 -54.7421875 55.36328125 C-46.34722839 55.03581831 -38.29764457 53.61732526 -30.17480469 51.52050781 C-28 51 -28 51 -25.52050781 50.59667969 C-23.24581725 50.20955618 -21.15838803 49.81727628 -19 49 C-17.49015033 46.6863685 -17.49015033 46.6863685 -17 44 C-16.09802827 42.62191415 -15.15881904 41.26761764 -14.1875 39.9375 C-7.97578896 30.77143859 -5.13602733 20.76696705 -3 10 C-2.01 10 -1.02 10 0 10 C0 6.7 0 3.4 0 0 Z " fill="#272C37" transform="translate(256,288)"/>
<path d="M0 0 C0.33 0 0.66 0 1 0 C1.33 1.65 1.66 3.3 2 5 C2.33 3.35 2.66 1.7 3 0 C3.33 0 3.66 0 4 0 C4.03738281 1.16015625 4.07476563 2.3203125 4.11328125 3.515625 C4.80297139 21.22147197 7.93149106 35.44609075 20.52734375 48.71484375 C31.63749321 58.98251742 47.05182602 64.48860937 61.9375 66.0625 C63.06551025 66.1860083 63.06551025 66.1860083 64.21630859 66.31201172 C74.77618221 67.38434958 85.39584721 67.66786076 96 68 C96 68.33 96 68.66 96 69 C91.05 69 86.1 69 81 69 C80.34 70.65 79.68 72.3 79 74 C75.1260361 76.5826426 71.65990173 76.95571538 67.125 77.6875 C66.32191406 77.82994141 65.51882812 77.97238281 64.69140625 78.11914062 C60.52625309 78.80875824 57.13001283 79.24569213 53 78 C56.48913436 76.0037291 59.95816025 75.20890782 63.875 74.375 C65.06867188 74.11460937 66.26234375 73.85421875 67.4921875 73.5859375 C70.74466875 73.04264999 73.71170995 72.88938474 77 73 C77 72.34 77 71.68 77 71 C76.42636719 71.04640625 75.85273437 71.0928125 75.26171875 71.140625 C55.17902739 71.99391082 33.31383845 64.38181587 17.8125 51.75 C5.85386053 40.75771524 0.92436104 25.83264558 0 10 C-0.06835242 6.66440195 -0.06387256 3.33556691 0 0 Z " fill="#313E46" transform="translate(6,74)"/>
<path d="M0 0 C0 0.33 0 0.66 0 1 C-6.27 1 -12.54 1 -19 1 C-19 1.66 -19 2.32 -19 3 C-20.11955078 2.93433838 -21.23910156 2.86867676 -22.39257812 2.80102539 C-32.42501254 2.22172671 -42.45423132 1.72384575 -52.5 1.4375 C-53.22971008 1.41598877 -53.95942017 1.39447754 -54.71124268 1.37231445 C-66.65853196 1.03503823 -78.60344554 0.9656264 -90.5546875 0.97265625 C-91.28277367 0.97304838 -92.01085983 0.97344051 -92.76100922 0.97384453 C-100.15383893 0.97919656 -107.54657052 0.99458596 -114.93932915 1.02777004 C-117.75593427 1.03969317 -120.57254428 1.04775978 -123.38916397 1.05537224 C-125.3204857 1.06222347 -127.25178417 1.07488155 -129.18307495 1.08778381 C-137.83629798 1.11123635 -146.37720634 0.67461983 -155 0 C-155 -0.33 -155 -0.66 -155 -1 C-103.26756367 -4.29182536 -51.74547767 -2.77915931 0 0 Z " fill="#272C37" transform="translate(296,89)"/>
<path d="M0 0 C3.12360284 1.56180142 3.67324472 4.64069667 4.875 7.75 C5.14038574 8.42595215 5.40577148 9.1019043 5.67919922 9.79833984 C8.11513278 16.10458629 10.0976706 22.51478614 12 29 C13.08444281 32.47395646 14.1741436 35.94621831 15.265625 39.41796875 C16 42 16 42 16 44 C13.50638429 42.79618552 11.31856917 41.54571278 9 40 C4.86467552 40.33529658 1.6220369 42.06263142 -2 44 C-2.12588473 36.69868554 -2.12588473 36.69868554 -1.51367188 33.30078125 C-0.96744567 29.79081058 -0.78979345 26.40166672 -0.68359375 22.8515625 C-0.66281265 22.19417084 -0.64203156 21.53677917 -0.62062073 20.85946655 C-0.55579247 18.78140638 -0.49655436 16.70323144 -0.4375 14.625 C-0.39425112 13.20701989 -0.35063491 11.78905093 -0.30664062 10.37109375 C-0.20018082 6.9141812 -0.09873016 3.45714294 0 0 Z " fill="#C3113F" transform="translate(366,15)"/>
<path d="M0 0 C0.33 0 0.66 0 1 0 C1.01981934 0.69335449 1.03963867 1.38670898 1.06005859 2.10107422 C1.48064623 16.15706668 2.14432184 30.05538934 4 44 C0.07699728 42.17495091 -2.73787272 39.81729174 -6 37 C-8.31 39.64 -10.62 42.28 -13 45 C-14.09393093 40.62427629 -13.58532356 37.7535927 -12.5625 33.5 C-12.38928223 32.76821533 -12.21606445 32.03643066 -12.03759766 31.2824707 C-9.3122965 20.51131156 -5.04696611 9.89533119 0 0 Z " fill="#C4113F" transform="translate(26,16)"/>
<path d="M0 0 C0.99 0.33 1.98 0.66 3 1 C3 4.63 3 8.26 3 12 C7.41734825 11.71813802 11.83369167 11.42267873 16.25 11.125 C18.10238281 11.00705078 18.10238281 11.00705078 19.9921875 10.88671875 C26.88997194 10.41476508 33.61071764 9.69017263 40.40527344 8.39794922 C42.98105102 8.00290618 45.39873748 7.9301241 48 8 C48 8.99 48 9.98 48 11 C32.31221849 13.68395168 16.92047703 15.66198563 1 16 C1 20.29 1 24.58 1 29 C-1.97 29 -4.94 29 -8 29 C-8 28.67 -8 28.34 -8 28 C-5.36 28 -2.72 28 0 28 C0 24.04 0 20.08 0 16 C-1.58748047 16.06960937 -1.58748047 16.06960937 -3.20703125 16.140625 C-17.73803851 16.55714475 -31.69903514 14.412095 -46 12 C-46 11.01 -46 10.02 -46 9 C-44.97567871 9.08302368 -44.97567871 9.08302368 -43.93066406 9.16772461 C-29.2940131 10.34576662 -14.67090183 11.37077396 0 12 C0 8.04 0 4.08 0 0 Z " fill="#191824" transform="translate(196,121)"/>
<path d="M0 0 C19.06402487 4.34631118 37.69782647 8.99772294 56 16 C52.28175487 26.45079579 43.36879553 30.83410862 33.90234375 35.3359375 C27.69371631 38.08683704 22.12743144 39.27756292 15.3125 39.25 C13.38857422 39.25773437 13.38857422 39.25773437 11.42578125 39.265625 C8.30015217 39.02327292 6.60100317 38.65937418 4 37 C4 36.34 4 35.68 4 35 C5.31613281 35.04640625 6.63226563 35.0928125 7.98828125 35.140625 C23.07588327 35.51835364 33.724362 33.39183733 46 24 C48.24999575 21.76737873 50.08358971 19.53794876 52 17 C50.576875 16.87625 50.576875 16.87625 49.125 16.75 C45.98765731 16.31012354 43.39865276 15.40646569 40.49609375 14.1484375 C34.76693738 11.80545652 28.94853324 10.31035727 22.9375 8.875 C21.91333984 8.62363281 20.88917969 8.37226563 19.83398438 8.11328125 C14.1028305 6.6976782 14.1028305 6.6976782 8.32080078 5.51660156 C7.51497559 5.36932617 6.70915039 5.22205078 5.87890625 5.0703125 C5.17451416 4.95703613 4.47012207 4.84375977 3.74438477 4.72705078 C2 4 2 4 0.75756836 1.93310547 C0.5075708 1.29518066 0.25757324 0.65725586 0 0 Z " fill="#272733" transform="translate(310,144)"/>
<path d="M0 0 C0.66 0 1.32 0 2 0 C2.23074219 1.03898438 2.46148437 2.07796875 2.69921875 3.1484375 C5.79979103 16.62904575 10.05895538 29.36680298 22.21875 37.48046875 C31.04112808 42.03979474 41.88296784 42.61267212 51.4375 40.09375 C54.42869152 38.90337786 57.19213525 37.57206799 60 36 C60.73734375 35.60039062 61.4746875 35.20078125 62.234375 34.7890625 C73.86918252 27.34819723 78.06209907 12.45510331 82 0 C82.66 0 83.32 0 84 0 C83.02738981 13.9407461 75.51821975 26.02039685 65.5625 35.4375 C56.39178965 43.15354595 46.68507979 44.58902991 35 44 C24.14140316 43.01138148 16.78571418 37.78131224 9.85546875 29.55078125 C3.36349385 20.62602418 -0.19472078 11.040668 0 0 Z " fill="#2D1728" transform="translate(156,213)"/>
<path d="M0 0 C2.10271902 0.56788762 4.20684712 1.13058929 6.3125 1.6875 C7.87573889 2.12235247 9.43854438 2.55878709 11 3 C10.34 3.33 9.68 3.66 9 4 C9 4.66 9 5.32 9 6 C7.77023438 5.72285156 6.54046875 5.44570313 5.2734375 5.16015625 C3.64064416 4.79418533 2.00783059 4.42830468 0.375 4.0625 C-0.43324219 3.88009766 -1.24148437 3.69769531 -2.07421875 3.50976562 C-23.81965578 -1.35201908 -45.48673304 -0.30426194 -65.890625 8.890625 C-68.9448577 9.98032612 -70.07602952 10.24485872 -73 9 C-72 7 -72 7 -69.625 6.125 C-68.42875 5.75375 -67.2325 5.3825 -66 5 C-64.37442676 4.37649246 -62.74949503 3.75131134 -61.125 3.125 C-59.08855969 2.40177821 -57.04637366 1.69461768 -55 1 C-53.89269531 0.62101562 -52.78539062 0.24203125 -51.64453125 -0.1484375 C-35.30837812 -5.00280545 -16.27457019 -5.20598643 0 0 Z " fill="#151824" transform="translate(221,272)"/>
<path d="M0 0 C0.33 0 0.66 0 1 0 C1 12.21 1 24.42 1 37 C-1.56136221 34.43863779 -1.29666857 33.33438669 -1.4140625 29.7734375 C-1.45273437 28.7421875 -1.49140625 27.7109375 -1.53125 26.6484375 C-1.5621875 25.56820312 -1.593125 24.48796875 -1.625 23.375 C-1.66367187 22.28703125 -1.70234375 21.1990625 -1.7421875 20.078125 C-1.83666247 17.38558835 -1.92222431 14.69306243 -2 12 C-2.31453125 12.76183594 -2.6290625 13.52367187 -2.953125 14.30859375 C-3.38109375 15.34113281 -3.8090625 16.37367187 -4.25 17.4375 C-4.70632812 18.53964844 -5.16265625 19.64179688 -5.6328125 20.77734375 C-6.73990601 23.38692131 -7.9090236 25.94079385 -9.125 28.5 C-11.51849129 33.7831942 -12.73992577 39.35830402 -14 45 C-14.66 45 -15.32 45 -16 45 C-16.66 45.66 -17.32 46.32 -18 47 C-17.43919488 40.80274854 -16.03560506 35.40915049 -13.9375 29.5625 C-13.63239502 28.70156738 -13.32729004 27.84063477 -13.01293945 26.95361328 C-5.06549005 5.06549005 -5.06549005 5.06549005 0 0 Z " fill="#1A2630" transform="translate(28,7)"/>
<path d="M0 0 C-0.93437598 5.64313915 -1.813082 9.813082 -6 14 C-9.26380524 15.63190262 -12.48625857 15.68375509 -16 15 C-19.86055875 12.63119114 -22.50080527 9.7487921 -25 6 C-24.67 5.01 -24.34 4.02 -24 3 C-23.360625 3.350625 -22.72125 3.70125 -22.0625 4.0625 C-16.20693446 5.85502006 -10.94140861 4.68563331 -5.5625 1.9375 C-4.92441406 1.57527344 -4.28632813 1.21304688 -3.62890625 0.83984375 C-2 0 -2 0 0 0 Z " fill="#C3113F" transform="translate(137,206)"/>
<path d="M0 0 C1.89141724 0.00918457 1.89141724 0.00918457 3.82104492 0.01855469 C16.55149207 0.23098754 28.57335157 1.81630519 39.6875 8.4375 C36.10008882 9.73226679 34.31478903 9.12033071 30.875 7.625 C8.52272649 -0.88594472 -17.31649607 2.76605419 -39.3125 10.4375 C-39.3125 9.4475 -39.3125 8.4575 -39.3125 7.4375 C-26.4149423 2.25215537 -13.8971012 -0.1158481 0 0 Z " fill="#221726" transform="translate(196.3125,322.5625)"/>
<path d="M0 0 C0.495 1.485 0.495 1.485 1 3 C-6.82460397 3.15522968 -14.64930909 3.30337697 -22.47420597 3.4429636 C-26.10926113 3.50802089 -29.74424245 3.57534041 -33.37915039 3.64819336 C-36.89986521 3.71866826 -40.42064806 3.78272662 -43.94155693 3.84269524 C-45.91034272 3.87779531 -47.87901278 3.91920988 -49.84767151 3.96083069 C-58.62883874 4.10312662 -67.25251261 3.70860578 -76 3 C-76 2.67 -76 2.34 -76 2 C-50.6382282 0.38618612 -25.41155307 -0.27953138 0 0 Z " fill="#323A43" transform="translate(217,86)"/>
<path d="M0 0 C0.33 0 0.66 0 1 0 C1.33 1.65 1.66 3.3 2 5 C2.33 3.35 2.66 1.7 3 0 C3.33 0 3.66 0 4 0 C4.03738281 1.16015625 4.07476563 2.3203125 4.11328125 3.515625 C4.81329093 21.48639703 8.10927186 35.68975113 21 49 C20.34 49.99 19.68 50.98 19 52 C9.054479 45.36965267 3.93509295 33.35443619 1.37109375 22.0546875 C0.04798204 14.72882685 -0.14220968 7.42650554 0 0 Z " fill="#293941" transform="translate(6,74)"/>
<path d="M0 0 C0.99 0.33 1.98 0.66 3 1 C10.30029507 3.05229179 16.81893121 1.86175857 24 0 C22.60466338 4.43970742 20.43871468 6.90515679 17 10 C13.50269012 11.74865494 9.80608332 11.69679591 6 11 C2.78121431 8.75363434 1.25153394 5.89004317 0.1875 2.125 C0.125625 1.42375 0.06375 0.7225 0 0 Z " fill="#C0113F" transform="translate(257,207)"/>
<path d="M0 0 C0.66 0 1.32 0 2 0 C3.66681876 6.00054754 4.51679152 11.7945858 5 18 C14.34956835 17.48484207 23.68180768 16.94590721 33 16 C32.505 17.485 32.505 17.485 32 19 C30.02 19 28.04 19 26 19 C26.33 19.99 26.66 20.98 27 22 C18.75 21.67 10.5 21.34 2 21 C1.67 18.64875 1.34 16.2975 1 13.875 C0.84337891 12.78227783 0.84337891 12.78227783 0.68359375 11.66748047 C0.14752005 7.7458461 -0.09858168 3.95559003 0 0 Z " fill="#131D28" transform="translate(284,125)"/>
<path d="M0 0 C0.33 0 0.66 0 1 0 C1.21450187 4.93354296 0.62180382 9.20760524 -0.421875 14.0234375 C-1.57683864 19.9699395 -2.23548107 25.99306554 -3 32 C-9.93 32.66 -16.86 33.32 -24 34 C-23.01 32.02 -22.02 30.04 -21 28 C-18.1703969 27.36295275 -16.14186274 27.11443282 -13.3125 27.125 C-12.2596582 27.0940625 -12.2596582 27.0940625 -11.18554688 27.0625 C-9.45754532 27.01547955 -7.72863594 27.00425249 -6 27 C-5.83395264 26.09290283 -5.83395264 26.09290283 -5.66455078 25.16748047 C-5.15580802 22.40248208 -4.64046193 19.63875332 -4.125 16.875 C-3.86396484 15.44800781 -3.86396484 15.44800781 -3.59765625 13.9921875 C-2.6967171 9.18717871 -1.71764893 4.59587145 0 0 Z " fill="#0F1C26" transform="translate(108,115)"/>
<path d="M0 0 C0.99 0.33 1.98 0.66 3 1 C-4.52201066 17.40499613 -12.15960354 33.74449388 -20 50 C-20.33 50 -20.66 50 -21 50 C-21.61341564 44.10177273 -19.51656715 40.1787529 -16.9375 35.0625 C-16.10757071 33.36743329 -15.27814964 31.67211767 -14.44921875 29.9765625 C-14.03462402 29.13770508 -13.6200293 28.29884766 -13.19287109 27.43457031 C-11.49063623 23.96042253 -9.86889127 20.45103278 -8.25 16.9375 C-5.59887038 11.23973424 -2.8577169 5.59691098 0 0 Z " fill="#2E2C38" transform="translate(272,228)"/>
<path d="M0 0 C19.06402487 4.34631118 37.69782647 8.99772294 56 16 C55.67 16.66 55.34 17.32 55 18 C53.53936606 17.76381238 52.08159337 17.50994589 50.625 17.25 C49.81289063 17.11078125 49.00078125 16.9715625 48.1640625 16.828125 C45.40853328 16.10692476 43.01976975 15.21404857 40.40234375 14.1171875 C34.70715487 11.78135314 28.91526183 10.30241249 22.9375 8.875 C21.91333984 8.62363281 20.88917969 8.37226563 19.83398438 8.11328125 C14.1028305 6.6976782 14.1028305 6.6976782 8.32080078 5.51660156 C7.51497559 5.36932617 6.70915039 5.22205078 5.87890625 5.0703125 C5.17451416 4.95703613 4.47012207 4.84375977 3.74438477 4.72705078 C2 4 2 4 0.75756836 1.93310547 C0.5075708 1.29518066 0.25757324 0.65725586 0 0 Z " fill="#34313C" transform="translate(310,144)"/>
<path d="M0 0 C13.53 0 27.06 0 41 0 C41 0.33 41 0.66 41 1 C27.8 1 14.6 1 1 1 C2.32 6.28 3.64 11.56 5 17 C8.33476935 31.25901379 8.33476935 31.25901379 7 35 C7 34.34 7 33.68 7 33 C6.01 33 5.02 33 4 33 C3.88930176 32.34515625 3.77860352 31.6903125 3.66455078 31.015625 C3.15456899 28.00986343 2.63981904 25.00493668 2.125 22 C1.86396484 20.45505859 1.86396484 20.45505859 1.59765625 18.87890625 C0.61712406 13.17729313 -0.50837319 7.590241 -2 2 C-1.34 2 -0.68 2 0 2 C0 1.34 0 0.68 0 0 Z " fill="#3E414A" transform="translate(279,92)"/>
<path d="M0 0 C0.495 0.99 0.495 0.99 1 2 C-21.68932039 11 -21.68932039 11 -31 11 C-31 10.34 -31 9.68 -31 9 C-31.59683594 9.144375 -32.19367188 9.28875 -32.80859375 9.4375 C-41.56594877 11.3112877 -50.09796172 11.18785075 -59 11 C-59 10.67 -59 10.34 -59 10 C-58.11965088 9.93530518 -57.23930176 9.87061035 -56.33227539 9.80395508 C-30.64914854 8.04879675 -30.64914854 8.04879675 -6.25390625 0.28125 C-3 -1 -3 -1 0 0 Z " fill="#404F56" transform="translate(348,132)"/>
<path d="M0 0 C1.32 1.32 2.64 2.64 4 4 C4.66 3.67 5.32 3.34 6 3 C5.67 4.65 5.34 6.3 5 8 C5.66 8 6.32 8 7 8 C7 8.66 7 9.32 7 10 C5.3203125 11.2890625 5.3203125 11.2890625 3.125 12.625 C2.40570313 13.07101562 1.68640625 13.51703125 0.9453125 13.9765625 C-1 15 -1 15 -3 15 C-3 18.96 -3 22.92 -3 27 C-3.99 27 -4.98 27 -6 27 C-7.19282788 22.63286984 -7.8451558 18.49226958 -7 14 C-5.6038245 11.98918165 -4.05660983 10.36937498 -2.33203125 8.63671875 C-0.67584706 6.91206678 -0.67584706 6.91206678 -0.6875 3.625 C-0.790625 2.75875 -0.89375 1.8925 -1 1 C-0.67 0.67 -0.34 0.34 0 0 Z " fill="#232833" transform="translate(143,273)"/>
<path d="M0 0 C1.75037626 2.62556439 2.99622913 5.08629437 4.3125 7.9375 C6.31989354 12.00558071 8.08983955 14.53042498 12 17 C12.99 17.66 13.98 18.32 15 19 C14.34 19 13.68 19 13 19 C13 19.66 13 20.32 13 21 C12.01 20.67 11.02 20.34 10 20 C11.24155863 23.63294568 11.24155863 23.63294568 13.6875 26.5 C14.120625 26.995 14.55375 27.49 15 28 C14.6875 30.6875 14.6875 30.6875 14 33 C11 32 11 32 9.75732422 29.91455078 C9.3604541 29.01720215 8.96358398 28.11985352 8.5546875 27.1953125 C8.11769531 26.21949219 7.68070312 25.24367187 7.23046875 24.23828125 C6.78316406 23.21089844 6.33585937 22.18351562 5.875 21.125 C5.41996094 20.10535156 4.96492188 19.08570313 4.49609375 18.03515625 C1.67403763 11.67924943 -0.13317671 7.05836576 0 0 Z " fill="#272A35" transform="translate(103,190)"/>
<path d="M0 0 C1.02432129 0.08302368 1.02432129 0.08302368 2.06933594 0.16772461 C16.7059869 1.34576662 31.32909817 2.37077396 46 3 C46 3.33 46 3.66 46 4 C38.08 4.495 38.08 4.495 30 5 C35.28 5.33 40.56 5.66 46 6 C46 6.33 46 6.66 46 7 C30.3406235 7.68664745 15.42427595 5.60156006 0 3 C0 2.01 0 1.02 0 0 Z " fill="#3A162A" transform="translate(150,130)"/>
<path d="M0 0 C0 0.33 0 0.66 0 1 C-0.65073486 1.01981934 -1.30146973 1.03963867 -1.97192383 1.06005859 C-4.91919151 1.15529299 -7.86574885 1.26497818 -10.8125 1.375 C-11.83666016 1.4059375 -12.86082031 1.436875 -13.91601562 1.46875 C-15.39038086 1.52675781 -15.39038086 1.52675781 -16.89453125 1.5859375 C-17.80050049 1.6173584 -18.70646973 1.6487793 -19.63989258 1.68115234 C-22.26525392 1.86027919 -22.26525392 1.86027919 -25 4 C-27.41960774 4.47465989 -29.81466666 4.8812903 -32.25 5.25 C-39.66614479 6.47184304 -46.05432909 8.80989079 -52.890625 11.890625 C-55.9448577 12.98032612 -57.07602952 13.24485872 -60 12 C-59 10 -59 10 -56.625 9.125 C-55.42875 8.75375 -54.2325 8.3825 -53 8 C-51.37442676 7.37649246 -49.74949503 6.75131134 -48.125 6.125 C-46.08855969 5.40177821 -44.04637366 4.69461768 -42 4 C-40.89269531 3.62101562 -39.78539062 3.24203125 -38.64453125 2.8515625 C-25.91530725 -0.93098878 -13.17573874 -0.39213508 0 0 Z " fill="#351729" transform="translate(208,269)"/>
<path d="M0 0 C0.99 0 1.98 0 3 0 C3.23074219 0.73605469 3.46148437 1.47210938 3.69921875 2.23046875 C6.2334627 10.22569437 6.2334627 10.22569437 12 16 C15.63950642 16.96642261 19.26263612 17.56146518 23 18 C23 19.32 23 20.64 23 22 C14.92956989 21.6752342 9.4433244 20.62945004 3.6875 14.5625 C0.39771731 9.56690406 -0.23528721 5.99982378 0 0 Z " fill="#E0E3E4" transform="translate(110,176)"/>
<path d="M0 0 C0.99 0 1.98 0 3 0 C2.9677617 7.72107253 1.36859091 13.29441961 -4 19 C-8.80196918 22.60633718 -13.0993273 23.49172273 -19 23 C-19 22.01 -19 21.02 -19 20 C-18.39671875 19.87882812 -17.7934375 19.75765625 -17.171875 19.6328125 C-16.37265625 19.46523437 -15.5734375 19.29765625 -14.75 19.125 C-13.56664062 18.88136719 -13.56664062 18.88136719 -12.359375 18.6328125 C-9.13989362 17.76930922 -6.76998306 17.06330994 -4.76953125 14.30078125 C-2.6192525 9.83346744 -1.50934308 5.99156222 -1 1 C-0.67 0.67 -0.34 0.34 0 0 Z " fill="#D5D8DA" transform="translate(279,175)"/>
<path d="M0 0 C0.76695694 0.00141495 1.53391388 0.0028299 2.32411194 0.00428772 C4.74866815 0.00983859 7.17312844 0.02238162 9.59765625 0.03515625 C11.25195178 0.04017761 12.90624878 0.0447394 14.56054688 0.04882812 C18.59378637 0.05979187 22.62695511 0.07702201 26.66015625 0.09765625 C27.15515625 1.58265625 27.15515625 1.58265625 27.66015625 3.09765625 C13.14645449 5.05142379 -0.91989987 4.09646035 -15.33984375 2.09765625 C-15.33984375 1.76765625 -15.33984375 1.43765625 -15.33984375 1.09765625 C-10.17263974 0.2409024 -5.23203753 -0.03701956 0 0 Z " fill="#343842" transform="translate(186.33984375,342.90234375)"/>
<path d="M0 0 C15.84 0 31.68 0 48 0 C48 0.66 48 1.32 48 2 C32.82 2 17.64 2 2 2 C2 2.66 2 3.32 2 4 C1.34 4 0.68 4 0 4 C0 2.68 0 1.36 0 0 Z " fill="#11232C" transform="translate(277,90)"/>
<path d="M0 0 C-3.32524571 3.32524571 -7.63514162 3.94606378 -12.125 4.875 C-24.53297599 7.43833252 -24.53297599 7.43833252 -35 14 C-35.66 13.67 -36.32 13.34 -37 13 C-37 12.01 -37 11.02 -37 10 C-12.22506445 -0.60123268 -12.22506445 -0.60123268 0 0 Z " fill="#2B2B36" transform="translate(64,152)"/>
<path d="M0 0 C0.33 0 0.66 0 1 0 C1 12.21 1 24.42 1 37 C-1.56136221 34.43863779 -1.29666857 33.33438669 -1.4140625 29.7734375 C-1.45273437 28.7421875 -1.49140625 27.7109375 -1.53125 26.6484375 C-1.5621875 25.56820312 -1.593125 24.48796875 -1.625 23.375 C-1.66367187 22.28703125 -1.70234375 21.1990625 -1.7421875 20.078125 C-1.83666247 17.38558835 -1.92222431 14.69306243 -2 12 C-2.99 12 -3.98 12 -5 12 C-4.52496041 7.01208429 -3.0298864 3.9767259 0 0 Z " fill="#22202D" transform="translate(28,7)"/>
<path d="M0 0 C-0.33 0.99 -0.66 1.98 -1 3 C-21.91436464 7.34944751 -21.91436464 7.34944751 -31 7 C-31 6.67 -31 6.34 -31 6 C-28.69 6 -26.38 6 -24 6 C-24 5.34 -24 4.68 -24 4 C-26.31 4 -28.62 4 -31 4 C-31 3.67 -31 3.34 -31 3 C-30.12263184 2.91697632 -30.12263184 2.91697632 -29.22753906 2.83227539 C-26.56804892 2.57882735 -23.90903168 2.32071175 -21.25 2.0625 C-20.32960937 1.97548828 -19.40921875 1.88847656 -18.4609375 1.79882812 C-17.57148438 1.71181641 -16.68203125 1.62480469 -15.765625 1.53515625 C-14.94868164 1.456604 -14.13173828 1.37805176 -13.29003906 1.29711914 C-11.02068702 1.0499845 -11.02068702 1.0499845 -8.93652344 0.47045898 C-5.96748877 -0.25083827 -3.03920428 -0.05844624 0 0 Z " fill="#2D1728" transform="translate(245,145)"/>
<path d="M0 0 C0.33 0 0.66 0 1 0 C4.48489075 9.22389734 3.53943912 18.63581825 1 28 C0.01 28 -0.98 28 -2 28 C-1.86064456 24.27056178 -1.71237699 20.54152904 -1.5625 16.8125 C-1.52318359 15.75740234 -1.48386719 14.70230469 -1.44335938 13.61523438 C-1.40146484 12.59365234 -1.35957031 11.57207031 -1.31640625 10.51953125 C-1.27974854 9.58214111 -1.24309082 8.64475098 -1.20532227 7.67895508 C-1.00374401 5.04885018 -0.57321679 2.57233586 0 0 Z " fill="#2E3E45" transform="translate(384,65)"/>
<path d="M0 0 C0 0.99 0 1.98 0 3 C-8.60397419 5.13031092 -17.1849081 5.58440013 -26 6 C-26 5.34 -26 4.68 -26 4 C-28.31 4 -30.62 4 -33 4 C-33 3.67 -33 3.34 -33 3 C-28.94347189 2.57010863 -24.88666708 2.14294035 -20.82958984 1.71826172 C-19.45027985 1.57349732 -18.07104686 1.42799714 -16.69189453 1.28173828 C-14.70626035 1.07129255 -12.72032055 0.86373685 -10.734375 0.65625 C-8.94338379 0.46772461 -8.94338379 0.46772461 -7.11621094 0.27539062 C-4 0 -4 0 0 0 Z " fill="#311728" transform="translate(247,159)"/>
<path d="M0 0 C3.82005844 3.82005844 5.883636 6.90544794 6.1875 12.375 C6.125625 13.24125 6.06375 14.1075 6 15 C5.67 14.34 5.34 13.68 5 13 C4.01 13 3.02 13 2 13 C2.04600342 13.83249268 2.09200684 14.66498535 2.1394043 15.52270508 C2.30278719 18.61403034 2.45214626 21.70562543 2.59204102 24.7980957 C2.68660785 26.79367369 2.79732981 28.78846468 2.90820312 30.78320312 C2.96298828 32.03681641 3.01777344 33.29042969 3.07421875 34.58203125 C3.13182373 35.73936768 3.18942871 36.8967041 3.2487793 38.08911133 C3 41 3 41 0 44 C0 29.48 0 14.96 0 0 Z " fill="#16272F" transform="translate(362,1)"/>
<path d="M0 0 C0.66 0.33 1.32 0.66 2 1 C2 1.99 2 2.98 2 4 C-5.22187138 8.44207949 -11.55026078 11.0520602 -20 12 C-20 11.34 -20 10.68 -20 10 C-21.65 10 -23.3 10 -25 10 C-25 9.67 -25 9.34 -25 9 C-24.10539062 8.84144531 -23.21078125 8.68289062 -22.2890625 8.51953125 C-10.24236388 6.3572417 -10.24236388 6.3572417 0 0 Z " fill="#24343C" transform="translate(345,80)"/>
<path d="M0 0 C0.33 0 0.66 0 1 0 C1.03758423 1.5634314 1.03758423 1.5634314 1.07592773 3.15844727 C1.17154069 7.10042461 1.27135701 11.04228708 1.37231445 14.98413086 C1.41509183 16.67616044 1.45679438 18.3682176 1.49731445 20.06030273 C1.75372992 30.73161817 2.18472791 41.35544752 3 52 C2.01 51.67 1.02 51.34 0 51 C-1.09562779 48.14375451 -1.12639699 45.37317061 -1.12939453 42.33911133 C-1.13254669 41.42168655 -1.13569885 40.50426178 -1.13894653 39.55903625 C-1.1369223 38.5766246 -1.13489807 37.59421295 -1.1328125 36.58203125 C-1.13376923 35.56904465 -1.13472595 34.55605804 -1.13571167 33.51237488 C-1.13639145 31.37486712 -1.13455124 29.23735729 -1.13037109 27.09985352 C-1.12500338 23.81456927 -1.13033146 20.52942071 -1.13671875 17.24414062 C-1.13605826 15.16927053 -1.1347777 13.09440052 -1.1328125 11.01953125 C-1.13584885 9.53680473 -1.13584885 9.53680473 -1.13894653 8.02412415 C-1.13579437 7.11615585 -1.13264221 6.20818756 -1.12939453 5.27270508 C-1.12859894 4.46980545 -1.12780334 3.66690582 -1.12698364 2.8396759 C-1 1 -1 1 0 0 Z " fill="#4B515A" transform="translate(29,5)"/>
<path d="M0 0 C14.03921478 -0.13088769 27.98555763 0.14879743 42 1 C42 1.33 42 1.66 42 2 C35.73 2 29.46 2 23 2 C23 2.66 23 3.32 23 4 C18.71 3.67 14.42 3.34 10 3 C10 2.34 10 1.68 10 1 C6.7 1 3.4 1 0 1 C0 0.67 0 0.34 0 0 Z " fill="#40474F" transform="translate(254,88)"/>
<path d="M0 0 C0.928125 1.175625 0.928125 1.175625 1.875 2.375 C4.33995116 5.83579817 4.33995116 5.83579817 8.0234375 7.23046875 C9.18746094 7.20919922 9.18746094 7.20919922 10.375 7.1875 C11.53128906 7.17783203 11.53128906 7.17783203 12.7109375 7.16796875 C14.91889344 7.00595151 16.87535332 6.60634894 19 6 C18.34 7.65 17.68 9.3 17 11 C9.64849478 12.68367807 9.64849478 12.68367807 5.984375 11.1640625 C1.94290721 8.40532144 -0.55741647 5.20124367 -3 1 C-2.01 0.67 -1.02 0.34 0 0 Z " fill="#251726" transform="translate(257,210)"/>
<path d="M0 0 C0.66 0 1.32 0 2 0 C1.14285714 8.57142857 1.14285714 8.57142857 -1 12 C-1.99 12 -2.98 12 -4 12 C-4 11.34 -4 10.68 -4 10 C-4.763125 10.350625 -5.52625 10.70125 -6.3125 11.0625 C-11.36755261 12.34768287 -15.8764457 11.67463171 -21 11 C-21 10.67 -21 10.34 -21 10 C-19.93072266 9.96132812 -19.93072266 9.96132812 -18.83984375 9.921875 C-12.45087859 9.54352444 -8.16221199 8.87165899 -3 5 C-1.21037181 2.38142305 -1.21037181 2.38142305 0 0 Z " fill="#212530" transform="translate(285,197)"/>
<path d="M0 0 C0.33 0 0.66 0 1 0 C1.33 1.65 1.66 3.3 2 5 C2.33 3.35 2.66 1.7 3 0 C3.33 0 3.66 0 4 0 C4.25413123 3.62370661 4.47405533 7.24868737 4.6875 10.875 C4.76033203 11.90753906 4.83316406 12.94007812 4.90820312 14.00390625 C4.96298828 14.99003906 5.01777344 15.97617188 5.07421875 16.9921875 C5.13182373 17.90339355 5.18942871 18.81459961 5.2487793 19.75341797 C5.16668213 20.49479004 5.08458496 21.23616211 5 22 C4.01 22.66 3.02 23.32 2 24 C0.70098079 15.95072024 -0.33853295 8.16240568 0 0 Z " fill="#505D63" transform="translate(6,74)"/>
<path d="M0 0 C0 0.33 0 0.66 0 1 C-1.90072266 1.38091797 -1.90072266 1.38091797 -3.83984375 1.76953125 C-5.53912181 2.11689748 -7.23833725 2.46457017 -8.9375 2.8125 C-9.76830078 2.97814453 -10.59910156 3.14378906 -11.45507812 3.31445312 C-17.13059435 4.48489032 -22.5458179 6.04342039 -28 8 C-28 7.01 -28 6.02 -28 5 C-10.19874101 -1.85431655 -10.19874101 -1.85431655 0 0 Z " fill="#371729" transform="translate(185,325)"/>
<path d="M0 0 C-0.33 0.99 -0.66 1.98 -1 3 C-1 2.34 -1 1.68 -1 1 C-10.405 1.495 -10.405 1.495 -20 2 C-20 1.67 -20 1.34 -20 1 C-22.31 0.67 -24.62 0.34 -27 0 C-27 -0.33 -27 -0.66 -27 -1 C-4.25321337 -2.83547558 -4.25321337 -2.83547558 0 0 Z " fill="#34444B" transform="translate(114,93)"/>
<path d="M0 0 C-7.91390109 3.95695055 -23.31579265 0.68980938 -32 0 C-32 -0.33 -32 -0.66 -32 -1 C-4.81047191 -2.78501005 -4.81047191 -2.78501005 0 0 Z " fill="#3C444D" transform="translate(173,89)"/>
<path d="M0 0 C6.43311296 -0.09507063 12.65758005 -0.15316726 19 1 C19 1.33 19 1.66 19 2 C17.35 2.33 15.7 2.66 14 3 C16.97 3.495 16.97 3.495 20 4 C20 4.33 20 4.66 20 5 C13.13484138 5.26404456 6.74153283 4.25841946 0 3 C0 2.01 0 1.02 0 0 Z " fill="#3B162A" transform="translate(150,160)"/>
<path d="M0 0 C0.66 0.33 1.32 0.66 2 1 C1.79861029 4.52431989 0.98017112 6.0247861 -1.25 8.8125 C-5.97313388 12.5351671 -12.33586721 11.3781691 -18 11 C-17.67 9.68 -17.34 8.36 -17 7 C-16.01 7.33 -15.02 7.66 -14 8 C-8.03127747 8.67057648 -8.03127747 8.67057648 -3.0625 5.6875 C-0.85767219 3.11753287 -0.85767219 3.11753287 0 0 Z " fill="#1A1825" transform="translate(135,212)"/>
<path d="M0 0 C0.33 1.32 0.66 2.64 1 4 C-2.86762536 7.38417219 -7.83573776 10.05363156 -13.07421875 9.96484375 C-14.73026211 9.72634663 -16.36914714 9.37373711 -18 9 C-18 8.34 -18 7.68 -18 7 C-17.41992188 6.96261719 -16.83984375 6.92523438 -16.2421875 6.88671875 C-9.78605887 6.34338119 -4.40654095 5.14096444 0 0 Z " fill="#231726" transform="translate(134,202)"/>
<path d="M0 0 C6.35219042 0.54881057 12.67873638 1.16511613 19 2 C16.35883155 4.64116845 14.98734853 5.00103701 11.1875 5.3125 C7.20347249 5.17048026 3.77103764 4.25701255 0 3 C0 2.01 0 1.02 0 0 Z " fill="#221726" transform="translate(149,145)"/>
<path d="M0 0 C0.99 0 1.98 0 3 0 C2.53234153 4.7190991 0.65065406 6.91832317 -2.5625 10.3125 C-3.38878906 11.19550781 -4.21507812 12.07851562 -5.06640625 12.98828125 C-5.70449219 13.65214844 -6.34257812 14.31601563 -7 15 C-7.99 14.67 -8.98 14.34 -10 14 C-9.44570313 13.32453125 -8.89140625 12.6490625 -8.3203125 11.953125 C-7.59585937 11.06109375 -6.87140625 10.1690625 -6.125 9.25 C-5.40570313 8.36828125 -4.68640625 7.4865625 -3.9453125 6.578125 C-2.31557412 4.41823076 -1.09215995 2.460234 0 0 Z " fill="#1E2F37" transform="translate(355,68)"/>
<path d="M0 0 C2.01878541 6.87601347 -0.37951729 14.20341234 -2 21 C-2.66 21 -3.32 21 -4 21 C-4.66 21.99 -5.32 22.98 -6 24 C-5.36145015 18.47324097 -4.06306646 13.37632649 -2.4375 8.0625 C-2.20353516 7.28326172 -1.96957031 6.50402344 -1.72851562 5.70117188 C-1.15682579 3.79942813 -0.57904309 1.89951774 0 0 Z " fill="#29363E" transform="translate(112,97)"/>
<path d="M0 0 C1.48831242 0.00667405 2.97660807 0.01863442 4.46484375 0.03515625 C5.22345703 0.03966797 5.98207031 0.04417969 6.76367188 0.04882812 C8.64326246 0.06064945 10.52281274 0.07858547 12.40234375 0.09765625 C10.40234375 2.09765625 10.40234375 2.09765625 8.23828125 2.29296875 C7.02011719 2.25816406 7.02011719 2.25816406 5.77734375 2.22265625 C4.96007812 2.20460938 4.1428125 2.1865625 3.30078125 2.16796875 C2.67429687 2.14476563 2.0478125 2.1215625 1.40234375 2.09765625 C1.27859375 3.19078125 1.15484375 4.28390625 1.02734375 5.41015625 C0.40234375 9.09765625 0.40234375 9.09765625 -1.59765625 12.09765625 C-2.87116933 9.55063009 -2.3995755 8.66936175 -1.66015625 5.97265625 C-1.36818359 4.88597656 -1.36818359 4.88597656 -1.0703125 3.77734375 C-0.91433594 3.22304687 -0.75835937 2.66875 -0.59765625 2.09765625 C-1.91765625 1.76765625 -3.23765625 1.43765625 -4.59765625 1.09765625 C-3.59765625 0.09765625 -3.59765625 0.09765625 0 0 Z " fill="#1A1825" transform="translate(114.59765625,90.90234375)"/>
<path d="M0 0 C7.13393752 0.51537952 14.01812817 1.44005901 21 3 C21 3.33 21 3.66 21 4 C6.21867882 4.18451025 6.21867882 4.18451025 0 3 C0 2.01 0 1.02 0 0 Z " fill="#131824" transform="translate(150,130)"/>
<path d="M0 0 C-4.61348006 4.61348006 -13.66229782 5.86376726 -20.0625 6.125 C-20.701875 6.08375 -21.34125 6.0425 -22 6 C-19 4 -19 4 -16 4 C-16 3.34 -16 2.68 -16 2 C-10.51324804 0.13216954 -5.77807024 -0.2358396 0 0 Z " fill="#1F232F" transform="translate(64,152)"/>
<path d="M0 0 C6.41688675 -0.10349817 12.62694402 0.25492456 19 1 C19 1.66 19 2.32 19 3 C16.58265458 3.08117951 14.16805051 3.14056926 11.75 3.1875 C11.06808594 3.21263672 10.38617188 3.23777344 9.68359375 3.26367188 C6.40800711 3.31137459 4.34651444 3.21085076 1.515625 1.48828125 C1.01546875 0.99714844 0.5153125 0.50601563 0 0 Z " fill="#192B33" transform="translate(68,142)"/>
<path d="M0 0 C0.33 0 0.66 0 1 0 C1.53181175 2.24743045 2.05007126 4.49807102 2.5625 6.75 C2.85253906 8.00296875 3.14257812 9.2559375 3.44140625 10.546875 C3.93444283 13.59473748 4.07666879 15.17641828 3 18 C3 17.34 3 16.68 3 16 C2.01 16 1.02 16 0 16 C-0.19504458 13.89651926 -0.38078496 11.79217415 -0.5625 9.6875 C-0.66691406 8.51574219 -0.77132813 7.34398438 -0.87890625 6.13671875 C-1 3 -1 3 0 0 Z " fill="#2D363F" transform="translate(283,109)"/>
<path d="M0 0 C0.33 0 0.66 0 1 0 C1.10957031 0.59167969 1.21914062 1.18335938 1.33203125 1.79296875 C2.26240653 6.42971708 3.25351767 10.05939492 6 14 C6.33 14.66 6.66 15.32 7 16 C5.68 16.33 4.36 16.66 3 17 C-0.8516972 11.63096754 -1.33087188 8.46015032 -0.359375 1.94140625 C-0.24078125 1.30074219 -0.1221875 0.66007813 0 0 Z " fill="#2A313B" transform="translate(109,176)"/>
<path d="M0 0 C2.93200474 2.85276137 5.64315404 5.65079784 8 9 C7.34 9.66 6.68 10.32 6 11 C2.01930733 8.12505529 -0.43571997 5.17882671 -3 1 C-2.01 0.67 -1.02 0.34 0 0 Z " fill="#304047" transform="translate(19,115)"/>
<path d="M0 0 C0.33 0 0.66 0 1 0 C1.33 4.95 1.66 9.9 2 15 C2.33 15 2.66 15 3 15 C3.125 17.875 3.125 17.875 3 21 C2.34 21.66 1.68 22.32 1 23 C0.34 23 -0.32 23 -1 23 C-0.67 15.41 -0.34 7.82 0 0 Z " fill="#435259" transform="translate(383,70)"/>
<path d="M0 0 C0.33 0.66 0.66 1.32 1 2 C1.66 2 2.32 2 3 2 C2.34 5.3 1.68 8.6 1 12 C0.34 12 -0.32 12 -1 12 C-1.66 12.66 -2.32 13.32 -3 14 C-2.48594831 9.03083364 -1.76615118 4.70973649 0 0 Z " fill="#2F3942" transform="translate(13,40)"/>
<path d="M0 0 C0.66 0.66 1.32 1.32 2 2 C1.61650247 6.21847279 0.42009551 10.02373258 -1 14 C-1.66 13.34 -2.32 12.68 -3 12 C-3.99 12.495 -3.99 12.495 -5 13 C-4.54554036 11.58208592 -4.08625056 10.16571954 -3.625 8.75 C-3.24214844 7.56664062 -3.24214844 7.56664062 -2.8515625 6.359375 C-2.04826333 4.13372042 -1.10288338 2.09068328 0 0 Z " fill="#2F303B" transform="translate(22,17)"/>
<path d="M0 0 C0.66 0 1.32 0 2 0 C2 0.99 2 1.98 2 3 C2.99 3.33 3.98 3.66 5 4 C6.80886571 8.76017293 7.20666253 12.93676791 7 18 C4.73453148 14.60179721 3.61098372 11.16057722 2.375 7.3125 C2.14554687 6.61060547 1.91609375 5.90871094 1.6796875 5.18554688 C1.11570791 3.45835938 0.55730661 1.72935218 0 0 Z " fill="#333640" transform="translate(96,177)"/>
<path d="M0 0 C0.33 0 0.66 0 1 0 C1.21718359 4.3592665 1.41401147 8.71883387 1.59204102 13.07983398 C1.65546136 14.56315646 1.72443412 16.04625239 1.79907227 17.52905273 C1.90541696 19.66094272 1.99174743 21.79285085 2.07421875 23.92578125 C2.13182373 25.20880127 2.18942871 26.49182129 2.2487793 27.8137207 C2 31 2 31 -1 34 C-0.67 22.78 -0.34 11.56 0 0 Z " fill="#4A585E" transform="translate(363,11)"/>
<path d="M0 0 C0.66 0.33 1.32 0.66 2 1 C2.22084624 7.09781001 2.01167675 12.21642935 0 18 C-0.99 18 -1.98 18 -3 18 C-4.43088528 15.13822943 -3.59991697 13.06624227 -3 10 C-2.01 10 -1.02 10 0 10 C0 6.7 0 3.4 0 0 Z " fill="#383843" transform="translate(256,288)"/>
<path d="M0 0 C0 0.99 0 1.98 0 3 C-3.61867559 4.2062252 -6.92506251 4.10816918 -10.6875 4.0625 C-11.38939453 4.05798828 -12.09128906 4.05347656 -12.81445312 4.04882812 C-14.54300538 4.03706927 -16.27151365 4.01913454 -18 4 C-18 3.67 -18 3.34 -18 3 C-17.15695313 2.86722656 -16.31390625 2.73445312 -15.4453125 2.59765625 C-14.34960938 2.42105469 -13.25390625 2.24445313 -12.125 2.0625 C-10.48917969 1.80146484 -10.48917969 1.80146484 -8.8203125 1.53515625 C-0.72992701 0 -0.72992701 0 0 0 Z " fill="#141824" transform="translate(247,159)"/>
<path d="M0 0 C0.33 0 0.66 0 1 0 C1.25706972 5.91260345 0.2982126 11.23918159 -1 17 C-1.99 17.33 -2.98 17.66 -4 18 C-2.07289294 5.33029613 -2.07289294 5.33029613 0 0 Z " fill="#0E1D27" transform="translate(108,115)"/>
<path d="M0 0 C3.45519603 2.99450322 5.04306291 5.50239569 6 10 C5.01 11.485 5.01 11.485 4 13 C3.13372601 11.40233897 2.28233535 9.79660056 1.4375 8.1875 C0.96183594 7.29417969 0.48617187 6.40085938 -0.00390625 5.48046875 C-1 3 -1 3 0 0 Z " fill="#383842" transform="translate(126,243)"/>
<path d="M0 0 C4.95 1.32 9.9 2.64 15 4 C15 4.33 15 4.66 15 5 C5.02710552 5.3910939 5.02710552 5.3910939 1 3 C0.67 2.01 0.34 1.02 0 0 Z " fill="#1A252F" transform="translate(310,144)"/>
<path d="M0 0 C2.46800047 1.15173355 4.04783565 2.04783565 6 4 C5.625 6.625 5.625 6.625 5 9 C2 8 2 8 0.8125 6.1875 C0 4 0 4 0 0 Z " fill="#1B252F" transform="translate(112,214)"/>
<path d="M0 0 C0.66 0 1.32 0 2 0 C2.99 4.95 3.98 9.9 5 15 C4.01 15 3.02 15 2 15 C1.66048381 13.43883181 1.32867456 11.87598662 1 10.3125 C0.814375 9.44238281 0.62875 8.57226562 0.4375 7.67578125 C0.01027953 5.06287036 -0.07616201 2.64186962 0 0 Z " fill="#3A162A" transform="translate(156,213)"/>
<path d="M0 0 C0.66 0.33 1.32 0.66 2 1 C1.54738642 2.43931117 1.08767021 3.87638999 0.625 5.3125 C0.36976563 6.11300781 0.11453125 6.91351563 -0.1484375 7.73828125 C-1 10 -1 10 -3 13 C-3.85637238 10.07406105 -4.38673104 7.91825712 -3.17578125 5.04296875 C-2.17852152 3.32488268 -1.09427085 1.65798613 0 0 Z " fill="#393440" transform="translate(290,187)"/>
<path d="M0 0 C1.32 0.33 2.64 0.66 4 1 C3.34 1 2.68 1 2 1 C1.896875 1.70125 1.79375 2.4025 1.6875 3.125 C0.90640997 6.39137647 -0.42058743 9.0471852 -2 12 C-2.66 11.34 -3.32 10.68 -4 10 C-2.68 6.7 -1.36 3.4 0 0 Z " fill="#2C2F3A" transform="translate(294,176)"/>
<path d="M0 0 C0.33 0 0.66 0 1 0 C1.33 1.65 1.66 3.3 2 5 C2.33 5 2.66 5 3 5 C3 9.29 3 13.58 3 18 C-0.73997229 12.39004157 -0.11406407 6.52699931 0 0 Z " fill="#35444B" transform="translate(6,74)"/>
<path d="M0 0 C-0.33 0.99 -0.66 1.98 -1 3 C-4.47325181 4.1577506 -7.36067448 4.06866652 -11 4 C-11 3.01 -11 2.02 -11 1 C-9.5437328 0.63743142 -8.08488815 0.28520207 -6.625 -0.0625 C-5.40683594 -0.35833984 -5.40683594 -0.35833984 -4.1640625 -0.66015625 C-2 -1 -2 -1 0 0 Z " fill="#C3C7CA" transform="translate(271,194)"/>
<path d="M0 0 C0.66 0 1.32 0 2 0 C2.69965443 1.26418246 3.38434763 2.53665402 4.0625 3.8125 C4.63677734 4.87404297 4.63677734 4.87404297 5.22265625 5.95703125 C6 8 6 8 5 11 C2.65808437 8.8709858 1.16445046 6.95591271 0 4 C0 2.68 0 1.36 0 0 Z " fill="#252531" transform="translate(121,233)"/>
<path d="M0 0 C1.41750563 0.11509661 2.83401169 0.24253658 4.25 0.375 C5.03890625 0.44460937 5.8278125 0.51421875 6.640625 0.5859375 C9.085877 1.01507113 10.84836903 1.78600638 13 3 C13 3.66 13 4.32 13 5 C11.01853549 4.55170486 9.03985789 4.09107502 7.0625 3.625 C5.96035156 3.36976563 4.85820312 3.11453125 3.72265625 2.8515625 C2.82417969 2.57054687 1.92570312 2.28953125 1 2 C0.67 1.34 0.34 0.68 0 0 Z " fill="#2A2935" transform="translate(337,152)"/>
<path d="M0 0 C0.99 0 1.98 0 3 0 C4.5625 2.8125 4.5625 2.8125 6 6 C5.67 6.99 5.34 7.98 5 9 C2.5 6.75 2.5 6.75 0 4 C0 2.68 0 1.36 0 0 Z " fill="#22333B" transform="translate(13,108)"/>
<path d="M0 0 C2.94586829 4.41880243 3.0985616 6.67767339 3 12 C2.01 12.495 2.01 12.495 1 13 C-0.6290678 8.20862412 -1.20577428 4.94367454 0 0 Z " fill="#161F29" transform="translate(30,54)"/>
<path d="M0 0 C4.62 0 9.24 0 14 0 C14 0.99 14 1.98 14 3 C12.41753293 3.08153933 10.83383727 3.13943557 9.25 3.1875 C8.36828125 3.22230469 7.4865625 3.25710937 6.578125 3.29296875 C4 3 4 3 0 0 Z " fill="#3B414B" transform="translate(56,182)"/>
<path d="M0 0 C0 0.99 0 1.98 0 3 C-4.455 3.495 -4.455 3.495 -9 4 C-9 3.34 -9 2.68 -9 2 C-9.66 1.67 -10.32 1.34 -11 1 C-7.27569643 0.30710631 -3.78916254 -0.11144596 0 0 Z " fill="#281727" transform="translate(244,129)"/>
<path d="M0 0 C0.33 1.32 0.66 2.64 1 4 C-1.3125 6.75 -1.3125 6.75 -4 9 C-4.66 9 -5.32 9 -6 9 C-6.33 8.01 -6.66 7.02 -7 6 C-4.69 4.02 -2.38 2.04 0 0 Z " fill="#2D3C44" transform="translate(367,117)"/>
<path d="M0 0 C0.66 0.33 1.32 0.66 2 1 C1.39301257 5.12751449 -0.03810791 8.3321148 -2 12 C-2.33 12 -2.66 12 -3 12 C-3.34833144 7.12335991 -2.41685712 4.22949995 0 0 Z " fill="#313740" transform="translate(266,241)"/>
<path d="M0 0 C-2 3 -2 3 -3.9453125 3.51171875 C-4.66460937 3.56972656 -5.38390625 3.62773437 -6.125 3.6875 C-8.043125 3.8421875 -8.043125 3.8421875 -10 4 C-10.33 3.01 -10.66 2.02 -11 1 C-7.26562152 0.12132271 -3.83225427 -0.08912219 0 0 Z " fill="#1D2E36" transform="translate(327,139)"/>
<path d="M0 0 C1.79240663 0.11389875 3.58394835 0.24147687 5.375 0.375 C6.87160156 0.47941406 6.87160156 0.47941406 8.3984375 0.5859375 C11 1 11 1 13 3 C11.20906809 3.08086147 9.41710372 3.13912702 7.625 3.1875 C6.12839844 3.23970703 6.12839844 3.23970703 4.6015625 3.29296875 C3.74304688 3.19628906 2.88453125 3.09960938 2 3 C1.34 2.01 0.68 1.02 0 0 Z " fill="#1D212C" transform="translate(165,341)"/>
<path d="M0 0 C-3.26545761 1.88391785 -6.28111761 2.49287967 -10 3 C-10 2.34 -10 1.68 -10 1 C-10.66 0.67 -11.32 0.34 -12 0 C-7.91556885 -1.53166168 -4.20544343 -0.63081652 0 0 Z " fill="#32333E" transform="translate(236,340)"/>
<path d="M0 0 C1.98 0.495 1.98 0.495 4 1 C3.34 3.64 2.68 6.28 2 9 C1.01 8.34 0.02 7.68 -1 7 C-0.67 4.69 -0.34 2.38 0 0 Z " fill="#2E3E46" transform="translate(381,92)"/>
<path d="M0 0 C0.33 0.99 0.66 1.98 1 3 C-1 5 -1 5 -4.125 5.125 C-5.548125 5.063125 -5.548125 5.063125 -7 5 C-7.33 4.34 -7.66 3.68 -8 3 C-5.36 2.01 -2.72 1.02 0 0 Z " fill="#1E2530" transform="translate(239,335)"/>
<path d="M0 0 C0.99 0.495 0.99 0.495 2 1 C2.4140625 3.28515625 2.4140625 3.28515625 2.625 6.0625 C2.69976562 6.98160156 2.77453125 7.90070313 2.8515625 8.84765625 C2.92503906 9.91306641 2.92503906 9.91306641 3 11 C2.01 11 1.02 11 0 11 C0 7.37 0 3.74 0 0 Z " fill="#0E1A24" transform="translate(137,289)"/>
<path d="M0 0 C0.89332031 0.12761719 1.78664062 0.25523437 2.70703125 0.38671875 C3.60808594 0.50660156 4.50914062 0.62648438 5.4375 0.75 C6.12457031 0.85699219 6.81164062 0.96398437 7.51953125 1.07421875 C6.34375 2.59375 6.34375 2.59375 4.51953125 4.07421875 C2.0390625 4.1484375 2.0390625 4.1484375 -0.66796875 3.76171875 C-2.01955078 3.58189453 -2.01955078 3.58189453 -3.3984375 3.3984375 C-4.42904297 3.23794922 -4.42904297 3.23794922 -5.48046875 3.07421875 C-3.68981165 0.76004728 -2.99175075 0.08951695 0 0 Z " fill="#42162B" transform="translate(211.48046875,269.92578125)"/>
<path d="M0 0 C0.33 0.99 0.66 1.98 1 3 C-1.25 5.0625 -1.25 5.0625 -4 7 C-5.32 6.67 -6.64 6.34 -8 6 C-5.36 4.02 -2.72 2.04 0 0 Z " fill="#E9EAEB" transform="translate(276,189)"/>
<path d="M0 0 C-0.33 0.99 -0.66 1.98 -1 3 C-3.0625 3.6875 -3.0625 3.6875 -5 4 C-5 3.34 -5 2.68 -5 2 C-6.98 2 -8.96 2 -11 2 C-7.36576791 -0.32590854 -4.22911669 -0.16265833 0 0 Z " fill="#40162B" transform="translate(245,145)"/>
<path d="M0 0 C0.66 0.33 1.32 0.66 2 1 C-3.14285714 6.57142857 -3.14285714 6.57142857 -7 7 C-6.875 5.1875 -6.875 5.1875 -6 3 C-3.0625 1.1875 -3.0625 1.1875 0 0 Z " fill="#1F2C35" transform="translate(273,194)"/>
<path d="M0 0 C3.35595828 0.59927826 5.37801226 1.84622436 8 4 C7.67 4.66 7.34 5.32 7 6 C2.32307692 4.52307692 2.32307692 4.52307692 0.6875 1.875 C0.460625 1.25625 0.23375 0.6375 0 0 Z " fill="#1C1E2A" transform="translate(113,192)"/>
<path d="M0 0 C0.33 0.66 0.66 1.32 1 2 C-1.31 2.66 -3.62 3.32 -6 4 C-6 3.34 -6 2.68 -6 2 C-6.66 1.67 -7.32 1.34 -8 1 C-3.375 -1.125 -3.375 -1.125 0 0 Z " fill="#2F3E46" transform="translate(348,132)"/>
<path d="M0 0 C0 0.66 0 1.32 0 2 C-1.98 2.33 -3.96 2.66 -6 3 C-6 2.34 -6 1.68 -6 1 C-7.65 1 -9.3 1 -11 1 C-11 0.67 -11 0.34 -11 0 C-3.57142857 -1.28571429 -3.57142857 -1.28571429 0 0 Z " fill="#314048" transform="translate(331,89)"/>
<path d="M0 0 C2.64465038 3.1254959 3.84414715 6.08788267 5 10 C4.01 10 3.02 10 2 10 C-0.09350689 6.5980513 -0.17942163 3.94727588 0 0 Z " fill="#2B323C" transform="translate(368,13)"/>
<path d="M0 0 C-0.598125 0.28875 -1.19625 0.5775 -1.8125 0.875 C-4.19327792 2.04742026 -4.19327792 2.04742026 -7 4 C-9.6875 3.625 -9.6875 3.625 -12 3 C-4.82142857 -1.78571429 -4.82142857 -1.78571429 0 0 Z " fill="#383E47" transform="translate(48,156)"/>
<path d="M0 0 C2.49361571 1.20381448 4.68143083 2.45428722 7 4 C7 4.66 7 5.32 7 6 C2.25 5.25 2.25 5.25 0 3 C0 2.01 0 1.02 0 0 Z " fill="#192B33" transform="translate(26,124)"/>
<path d="M0 0 C3.0916909 2.52956528 3.90931332 5.22454612 5 9 C2.525 8.01 2.525 8.01 0 7 C0 4.69 0 2.38 0 0 Z " fill="#57646A" transform="translate(362,1)"/>
<path d="M0 0 C1.74627478 2.61941217 2.38722388 4.03824877 3 7 C1.68 7 0.36 7 -1 7 C-1.33 5.02 -1.66 3.04 -2 1 C-1.34 0.67 -0.68 0.34 0 0 Z " fill="#2D1728" transform="translate(246,271)"/>
<path d="M0 0 C0.625 1.8125 0.625 1.8125 1 4 C0.01 5.485 0.01 5.485 -1 7 C-1.99 7 -2.98 7 -4 7 C-3.39816251 4.97954558 -2.72693904 2.97888961 -2 1 C-1.34 0.67 -0.68 0.34 0 0 Z " fill="#23232F" transform="translate(276,221)"/>
<path d="M0 0 C-4.455 1.485 -4.455 1.485 -9 3 C-9 2.01 -9 1.02 -9 0 C-4.5 -2.25 -4.5 -2.25 0 0 Z " fill="#28313B" transform="translate(345,179)"/>
<path d="M0 0 C3.41021743 0.78697325 6.68885166 1.87119943 10 3 C10 3.33 10 3.66 10 4 C3.375 4.125 3.375 4.125 0 3 C0 2.01 0 1.02 0 0 Z " fill="#1E1825" transform="translate(295,173)"/>
<path d="M0 0 C0.99 0.33 1.98 0.66 3 1 C2.67 2.98 2.34 4.96 2 7 C1.34 7 0.68 7 0 7 C-0.66 7.99 -1.32 8.98 -2 10 C-1.54177532 6.53058454 -1.10868317 3.32604951 0 0 Z " fill="#41454E" transform="translate(108,111)"/>
<path d="M0 0 C3.93846154 3.32307692 3.93846154 3.32307692 4.25 6.75 C4.1675 7.4925 4.085 8.235 4 9 C3.34 9 2.68 9 2 9 C1.34 6.03 0.68 3.06 0 0 Z " fill="#1D212C" transform="translate(371,22)"/>
<path d="M0 0 C3.3 0.66 6.6 1.32 10 2 C10 2.33 10 2.66 10 3 C6.37 3.33 2.74 3.66 -1 4 C-0.67 2.68 -0.34 1.36 0 0 Z " fill="#2E1728" transform="translate(118,219)"/>
<path d="M0 0 C0.33 0 0.66 0 1 0 C1 1.65 1 3.3 1 5 C-0.98 5.99 -0.98 5.99 -3 7 C-2.25 2.25 -2.25 2.25 0 0 Z " fill="#1B212C" transform="translate(254,304)"/>
<path d="M0 0 C0.66 0.33 1.32 0.66 2 1 C2.625 3.5625 2.625 3.5625 3 6 C2.34 6 1.68 6 1 6 C0.67 6.99 0.34 7.98 0 9 C-0.87890625 2.84765625 -0.87890625 2.84765625 -1 1 C-0.67 0.67 -0.34 0.34 0 0 Z " fill="#2E3C44" transform="translate(138,299)"/>
<path d="M0 0 C0.99 0 1.98 0 3 0 C1.25 5.75 1.25 5.75 -1 8 C-1.125 2.25 -1.125 2.25 0 0 Z " fill="#323D45" transform="translate(252,270)"/>
<path d="M0 0 C-0.66 1.32 -1.32 2.64 -2 4 C-6.455 3.01 -6.455 3.01 -11 2 C-11 1.67 -11 1.34 -11 1 C-9.5437328 0.63743142 -8.08488815 0.28520207 -6.625 -0.0625 C-5.40683594 -0.35833984 -5.40683594 -0.35833984 -4.1640625 -0.66015625 C-2 -1 -2 -1 0 0 Z " fill="#3C162A" transform="translate(276,217)"/>
<path d="M0 0 C-3.41139003 1.09651823 -6.20655581 0.94215473 -9.75 0.5625 C-11.22726562 0.40974609 -11.22726562 0.40974609 -12.734375 0.25390625 C-13.48203125 0.17011719 -14.2296875 0.08632812 -15 0 C-15 -0.33 -15 -0.66 -15 -1 C-13.25181409 -1.22304441 -11.50129677 -1.4278645 -9.75 -1.625 C-8.77546875 -1.74101562 -7.8009375 -1.85703125 -6.796875 -1.9765625 C-3.86570607 -2.00112537 -2.45471036 -1.5312717 0 0 Z " fill="#4B162C" transform="translate(279,208)"/>
<path d="M0 0 C0.33 0 0.66 0 1 0 C1 2.31 1 4.62 1 7 C0.01 7.33 -0.98 7.66 -2 8 C-1.125 1.125 -1.125 1.125 0 0 Z " fill="#0F212A" transform="translate(364,42)"/>
<path d="M0 0 C-2.91765 1.9451 -4.62537285 2.45276317 -8 3 C-8 2.01 -8 1.02 -8 0 C-4.71023192 -1.09658936 -3.28696233 -0.79953138 0 0 Z " fill="#55152E" transform="translate(165,330)"/>
<path d="M0 0 C2.64 0 5.28 0 8 0 C8 0.99 8 1.98 8 3 C5.6568787 2.74438677 3.32156597 2.40729228 1 2 C0.67 1.34 0.34 0.68 0 0 Z " fill="#2F363F" transform="translate(50,181)"/>
<path d="M0 0 C0.33 1.32 0.66 2.64 1 4 C0.34 4 -0.32 4 -1 4 C-1 3.01 -1 2.02 -1 1 C-2.65 1.33 -4.3 1.66 -6 2 C-6 1.34 -6 0.68 -6 0 C-3.50907189 -1.24546405 -2.58919267 -0.7767578 0 0 Z " fill="#261A29" transform="translate(99,176)"/>
<path d="M0 0 C4.455 0.99 4.455 0.99 9 2 C5 4 5 4 2.8125 3.8125 C2.214375 3.544375 1.61625 3.27625 1 3 C0.67 2.01 0.34 1.02 0 0 Z " fill="#3E4C53" transform="translate(310,144)"/>
<path d="M0 0 C2 0.6875 2 0.6875 4 2.6875 C1.69 3.0175 -0.62 3.3475 -3 3.6875 C-3.33 2.6975 -3.66 1.7075 -4 0.6875 C-2 -0.3125 -2 -0.3125 0 0 Z " fill="#3A4950" transform="translate(329,137.3125)"/>
<path d="M0 0 C0 0.99 0 1.98 0 3 C-1.98 3.33 -3.96 3.66 -6 4 C-5.67 3.01 -5.34 2.02 -5 1 C-3 0 -3 0 0 0 Z " fill="#1A2B33" transform="translate(353,129)"/>
<path d="M0 0 C2 2 2 2 2.125 5.125 C2.08375 6.07375 2.0425 7.0225 2 8 C1.01 8.33 0.02 8.66 -1 9 C-0.67 6.03 -0.34 3.06 0 0 Z " fill="#1F2B34" transform="translate(105,124)"/>
</svg>
