<?xml version="1.0" encoding="UTF-8"?>
<svg version="1.1" xmlns="http://www.w3.org/2000/svg" width="541" height="461">
<path d="M0 0 C0.72606445 0.3398291 1.45212891 0.6796582 2.20019531 1.02978516 C11.27107378 5.35312869 19.78287777 10.19206107 27.8125 16.25 C28.43237793 16.71349854 29.05225586 17.17699707 29.69091797 17.65454102 C31.86419619 19.36235725 33.9183429 21.18125835 36 23 C36.56396484 23.43886536 37.12792969 23.87773071 37.70898438 24.32989502 C43.81334578 29.10939357 49.85470677 33.85877261 51.12329102 41.87890625 C51.53818895 47.23482131 51.23015979 52.52462778 50.875 57.875 C50.80460465 59.7380438 50.74075623 61.60134699 50.68359375 63.46484375 C50.53095884 67.98309364 50.29054274 72.48860559 50 77 C-8.5 110.75 -8.5 110.75 -11.75048828 112.62524414 C-13.91557071 113.87435518 -16.08060982 115.12354129 -18.24560547 116.37280273 C-23.68615706 119.51202309 -29.12747216 122.64990563 -34.5703125 125.78515625 C-45.06232094 131.83055159 -55.54481676 137.89110219 -66 144 C-79.8053083 152.06635482 -93.65946848 160.04751199 -107.51660156 168.02441406 C-109.87346291 169.38115258 -112.23006924 170.73833221 -114.58642578 172.09594727 C-116.79006869 173.36546119 -118.99413955 174.63423268 -121.19873047 175.90209961 C-122.20564941 176.4822583 -123.21256836 177.06241699 -124.25 177.66015625 C-125.21292969 178.21461426 -126.17585938 178.76907227 -127.16796875 179.34033203 C-130.80140222 181.46964934 -134.37766114 183.68759761 -137.94140625 185.93139648 C-140 187 -140 187 -143 187 C-144.04449911 183.86650268 -143.93423645 183.01031744 -143 180 C-142.34 180 -141.68 180 -141 180 C-140.72542969 179.12561279 -140.45085937 178.25122559 -140.16796875 177.3503418 C-139.07358056 174.2110673 -137.80294794 171.36241124 -136.3125 168.39453125 C-135.78430664 167.33943359 -135.25611328 166.28433594 -134.71191406 165.19726562 C-134.14698242 164.08029297 -133.58205078 162.96332031 -133 161.8125 C-132.11779785 160.05776367 -132.11779785 160.05776367 -131.21777344 158.26757812 C-127.96035623 151.80942526 -124.6490536 145.38455936 -121.25 139 C-116.83463067 130.68888236 -112.56479524 122.30545382 -108.33361816 113.89941406 C-107.58129455 112.40646555 -106.82688532 110.91456583 -106.07019043 109.42382812 C-101.51252022 100.43758866 -97.39015992 91.50395029 -94 82 C-99.75916504 81.81276257 -104.6940525 82.31972945 -110.25 83.8125 C-111.04937988 84.02696777 -111.84875977 84.24143555 -112.67236328 84.46240234 C-146.33539788 93.99826103 -178.63815337 111.2643319 -206 133 C-207.59292333 134.20657999 -209.18589594 135.41309703 -210.78051758 136.61743164 C-229.21671497 150.6096009 -247.2091447 166.30212629 -262.234375 183.953125 C-264.3943342 186.45714849 -266.63487993 188.87997698 -268.875 191.3125 C-321.97080846 249.44989133 -321.97080846 249.44989133 -346.2734375 321.65625 C-346.15149668 324.15454695 -346.15149668 324.15454695 -344.4375 326.5 C-326.83525098 337.33215325 -296.9394663 329.10729355 -278.55078125 324.86328125 C-264.5297501 321.47776405 -250.75494439 317.32228802 -237 313 C-236.07191528 312.70847046 -235.14383057 312.41694092 -234.18762207 312.11657715 C-176.18752462 293.84903846 -119.31062792 272.59561607 -63.375 248.75 C-62.69009491 248.45911499 -62.00518982 248.16822998 -61.29953003 247.86853027 C-47.13854524 241.83546338 -33.47417845 234.93926472 -20 227.5 C-18.53433594 226.695625 -18.53433594 226.695625 -17.0390625 225.875 C-14.69122804 224.58599285 -12.34488774 223.29435728 -10 222 C-8.72210481 225.83368558 -9.40608468 227.97294062 -10.21582031 231.93066406 C-10.35715897 232.63186874 -10.49849762 233.33307343 -10.64411926 234.05552673 C-11.11433634 236.37722257 -11.59587245 238.69640155 -12.078125 241.015625 C-12.40913262 242.63115143 -12.73967207 244.24677385 -13.06976318 245.86248779 C-13.76429984 249.25297035 -14.46441585 252.64224044 -15.16845703 256.03076172 C-16.06762231 260.36056028 -16.95317409 264.69300667 -17.83452225 269.02646255 C-18.51539772 272.36658294 -19.20347758 275.7051881 -19.89369965 279.04338837 C-20.22278726 280.63923062 -20.5496864 282.23552586 -20.87430573 283.83228302 C-21.33113071 286.07368579 -21.79762693 288.31286997 -22.26660156 290.55175781 C-22.52942932 291.82400208 -22.79225708 293.09624634 -23.06304932 294.40704346 C-24.8526163 301.26955661 -27.20005941 305.86099034 -32.875 310.3125 C-33.45016357 310.78051025 -34.02532715 311.24852051 -34.61791992 311.73071289 C-36.39915804 313.17079575 -38.19627766 314.58821843 -40 316 C-40.5347998 316.4218457 -41.06959961 316.84369141 -41.62060547 317.27832031 C-44.81181892 319.78862193 -48.03506877 322.25351242 -51.27685547 324.69775391 C-53.04578688 326.03460289 -54.80631874 327.38200311 -56.56640625 328.73046875 C-74.67464194 342.53711312 -93.43050182 355.35678118 -113 367 C-113.98274902 367.58604004 -114.96549805 368.17208008 -115.97802734 368.77587891 C-179.80470395 406.65315127 -253.2068268 440.21348275 -328.35546875 444.75390625 C-331.10483528 444.90885345 -331.10483528 444.90885345 -334 446 C-377.89514484 448.95861883 -421.8657464 439.83519621 -455.875 411 C-463.26562763 404.17155369 -469.44163755 395.97859271 -474 387 C-474 386.34 -474 385.68 -474 385 C-474.66 384.67 -475.32 384.34 -476 384 C-476.8515625 382.2578125 -476.8515625 382.2578125 -477.625 380.125 C-477.88539063 379.42632812 -478.14578125 378.72765625 -478.4140625 378.0078125 C-479 376 -479 376 -479 373 C-479.66 372.67 -480.32 372.34 -481 372 C-481.78822923 369.30812281 -482.45786896 366.67098405 -483.0625 363.9375 C-483.23587891 363.19822266 -483.40925781 362.45894531 -483.58789062 361.69726562 C-494.1155023 315.59358689 -476.45663336 267.03917271 -452.26269531 228.21191406 C-445.89223941 218.23304246 -439.1611067 208.56804774 -431.79296875 199.30078125 C-429.98833475 197.14086735 -429.98833475 197.14086735 -429 195 C-429.5902446 195.15033691 -430.1804892 195.30067383 -430.78862 195.45556641 C-436.93500582 197.01982823 -443.08345065 198.57578744 -449.2331543 200.12695312 C-451.52763808 200.70685799 -453.82158934 201.2888741 -456.11499023 201.87304688 C-459.41251945 202.71259967 -462.71189232 203.54452874 -466.01171875 204.375 C-467.03585373 204.63748535 -468.05998871 204.8999707 -469.11515808 205.17041016 C-470.07577652 205.41065918 -471.03639496 205.6509082 -472.02612305 205.8984375 C-472.86773483 206.11161621 -473.70934662 206.32479492 -474.57646179 206.54443359 C-477.10525977 207.01978628 -479.43300018 207.08073148 -482 207 C-478.40112352 200.26097779 -474.4001015 193.86972006 -470.1875 187.5 C-463.92726261 177.97273778 -457.75069958 168.39584773 -451.6315918 158.77734375 C-450.38881448 156.82793984 -449.14147894 154.88143372 -447.8894043 152.93798828 C-446.58392699 150.90799552 -445.29193654 148.86928862 -444.01098633 146.82373047 C-440.10573082 140.71908266 -436.36151472 135.85092849 -430.5625 131.5 C-429.53660767 130.69864624 -429.53660767 130.69864624 -428.48999023 129.88110352 C-421.54481375 124.51441214 -414.36198936 119.47432003 -407.14111328 114.48828125 C-404.99732408 112.99813998 -402.86963253 111.48758537 -400.74609375 109.96875 C-391.01403327 103.01200045 -381.11462616 96.3869353 -371 90 C-370.20110352 89.49355957 -369.40220703 88.98711914 -368.57910156 88.46533203 C-354.96661167 79.85751193 -341.09324167 71.79259476 -327 64 C-326.06381836 63.47970215 -325.12763672 62.9594043 -324.16308594 62.42333984 C-288.10469665 42.42619166 -250.94499507 24.66210781 -212 11 C-210.77700195 10.5673584 -209.55400391 10.1347168 -208.29394531 9.68896484 C-178.74469805 -0.72087313 -149.04316583 -8.44414377 -118 -13 C-116.72116943 -13.19698486 -116.72116943 -13.19698486 -115.41650391 -13.39794922 C-77.66969906 -19.02720499 -34.80155679 -16.41299979 0 0 Z " fill="#B4975B" transform="translate(488,15)"/>
<path d="M0 0 C4.25100279 3.02265125 8.3001586 6.38181753 11.78613281 10.27001953 C11.78613281 10.93001953 11.78613281 11.59001953 11.78613281 12.27001953 C9.84375 13.69604492 9.84375 13.69604492 7.08300781 15.36767578 C6.05409424 15.99561035 5.02518066 16.62354492 3.96508789 17.27050781 C2.82218086 17.95797473 1.6791935 18.64530813 0.53613281 19.33251953 C-0.64175443 20.04784929 -1.81923834 20.76384356 -2.99633789 21.48046875 C-5.47409166 22.98719316 -7.95443739 24.48951303 -10.43701172 25.98828125 C-14.08466502 28.19056497 -17.72620188 30.40278641 -21.36621094 32.61767578 C-26.0605234 35.47304581 -30.75715866 38.32454254 -35.45605469 41.17236328 C-42.5857143 45.49368122 -49.70793008 49.82717138 -56.828125 54.1640625 C-61.61364554 57.07884904 -66.40056019 59.99129011 -71.19042969 62.89892578 C-73.17749002 64.10582341 -75.16447014 65.31285311 -77.15136719 66.52001953 C-78.58041382 67.38796143 -78.58041382 67.38796143 -80.03833008 68.2734375 C-86.54322836 72.23205691 -93.01413799 76.24149189 -99.43237305 80.33935547 C-102.01694831 81.97556261 -104.29751515 83.29790218 -107.21386719 84.27001953 C-105.80680219 79.88211067 -104.16601566 75.65066256 -102.40136719 71.39501953 C-101.32009102 68.69384018 -100.26222214 65.98412986 -99.21386719 63.27001953 C-98.83464111 62.29766357 -98.83464111 62.29766357 -98.44775391 61.30566406 C-94.18514676 50.10891504 -91.77228362 38.1251408 -95.03027344 26.30908203 C-97.80291611 20.49329496 -102.3474443 17.62078648 -108.21386719 15.27001953 C-122.3034186 11.09414846 -139.4609329 14.03498897 -153.21386719 18.27001953 C-154.29796875 18.59357422 -155.38207031 18.91712891 -156.49902344 19.25048828 C-184.7727897 28.18864665 -214.04056559 42.94038756 -237.53320312 60.98535156 C-239.41413925 62.42310372 -241.31615961 63.82986944 -243.22167969 65.23486328 C-251.06570909 71.03457981 -258.75253457 76.98178595 -266.21386719 83.27001953 C-266.73625977 83.70749512 -267.25865234 84.1449707 -267.796875 84.59570312 C-284.19928796 98.35364543 -300.37091408 112.89724542 -314.21386719 129.27001953 C-315.14909912 130.3541869 -316.08539598 131.43743608 -317.02246094 132.52001953 C-322.90271566 139.32354312 -328.66668005 146.19056742 -334.21386719 153.27001953 C-335.25025161 154.57476575 -336.28671718 155.8794475 -337.32324219 157.18408203 C-362.90657858 189.54736494 -388.2189554 225.4008306 -397.21386719 266.27001953 C-397.40722656 267.11306641 -397.60058594 267.95611328 -397.79980469 268.82470703 C-399.82511049 280.78547525 -398.18020818 293.18240862 -391.08886719 303.20751953 C-383.01038395 312.55254463 -371.06884235 316.21769732 -359.21386719 318.27001953 C-354.98716946 318.49243796 -350.75835619 318.45517753 -346.52636719 318.45751953 C-345.41197266 318.46976562 -344.29757812 318.48201172 -343.14941406 318.49462891 C-325.8068976 318.52410627 -309.41692178 315.52346373 -292.58886719 311.58251953 C-291.62209045 311.35903839 -290.65531372 311.13555725 -289.65924072 310.90530396 C-268.08326201 305.91473701 -247.20536856 299.79251057 -226.32714844 292.38330078 C-222.1799623 290.923619 -218.01596153 289.577562 -213.80761719 288.30517578 C-206.92535527 286.21660581 -200.16562343 283.83554707 -193.40136719 281.39501953 C-191.56215698 280.73530151 -191.56215698 280.73530151 -189.68579102 280.06225586 C-183.2385188 277.7434215 -176.80623499 275.39096004 -170.40136719 272.95751953 C-164.35510782 270.66032814 -158.26733324 268.59745701 -152.10449219 266.64111328 C-148.90221353 265.56416772 -145.80665829 264.28674812 -142.69335938 262.97558594 C-136.70048452 260.46615101 -130.68193153 258.02704346 -124.65136719 255.60986328 C-122.46232677 254.73000571 -120.27336474 253.8499531 -118.08447266 252.96972656 C-116.96022888 252.51776917 -115.83598511 252.06581177 -114.67767334 251.60015869 C-113.53461731 251.14058777 -112.39156128 250.68101685 -111.21386719 250.20751953 C-110.05711487 249.74247009 -108.90036255 249.27742065 -107.70855713 248.79827881 C-92.95178288 242.86028579 -78.2296588 236.87444523 -63.70605469 230.38305664 C-62.71605469 229.94614502 -61.72605469 229.5092334 -60.70605469 229.05908203 C-59.87444824 228.68477051 -59.0428418 228.31045898 -58.18603516 227.92480469 C-56.21386719 227.27001953 -56.21386719 227.27001953 -54.21386719 228.27001953 C-63.27938987 236.25901139 -72.6114616 243.69629793 -82.33251953 250.86914062 C-85.11640143 252.94205969 -87.85020978 255.07515609 -90.58886719 257.20751953 C-112.44223277 274.08172313 -135.62169231 288.959799 -159.21386719 303.27001953 C-160.13619141 303.82995605 -161.05851562 304.38989258 -162.00878906 304.96679688 C-172.72998305 311.45139001 -183.46704108 317.69748915 -194.77832031 323.09277344 C-197.67254788 324.49172746 -200.54366882 325.93409224 -203.41699219 327.37548828 C-221.11897553 336.17919503 -239.18374672 343.7245299 -257.61474609 350.86474609 C-260.6219012 352.03888697 -263.60865386 353.2500441 -266.59277344 354.48095703 C-271.45667533 356.43345093 -276.41360161 357.88363516 -281.46386719 359.27001953 C-283.31938495 359.78807319 -285.17485369 360.30630246 -287.03027344 360.82470703 C-288.36662842 361.19547363 -288.36662842 361.19547363 -289.72998047 361.57373047 C-291.84362117 362.16623128 -293.95012633 362.77579653 -296.05371094 363.40283203 C-322.10338203 371.12350468 -348.49964498 374.64933171 -375.64257812 374.58569336 C-378.47661926 374.58250519 -381.30963907 374.60622775 -384.14355469 374.63134766 C-395.21696705 374.66939608 -405.41873238 373.79616787 -416.21386719 371.27001953 C-417.52431544 370.97669124 -418.83486273 370.683805 -420.14550781 370.39135742 C-441.09999201 365.55694195 -461.01696983 354.04115224 -473.02636719 335.83251953 C-474.11715981 333.99485478 -475.18075459 332.14071957 -476.21386719 330.27001953 C-476.68695313 329.41923828 -477.16003906 328.56845703 -477.64746094 327.69189453 C-488.71085799 305.76207485 -485.45490221 279.10468729 -478.35302734 256.53417969 C-462.87692449 210.45817265 -431.44542162 170.94521185 -398.68017578 135.84960938 C-397.22926859 134.28661078 -395.79189973 132.71226535 -394.35839844 131.13330078 C-386.25629161 122.23017307 -377.77791513 113.7277529 -369.21386719 105.27001953 C-385.53124041 107.45867119 -401.46954473 111.50124121 -417.40185547 115.56054688 C-421.53901793 116.60435605 -425.68609247 117.60289536 -429.83886719 118.58251953 C-430.50684326 118.74171875 -431.17481934 118.90091797 -431.86303711 119.06494141 C-435.62867706 119.94834176 -439.39205 120.67616794 -443.21386719 121.27001953 C-439.67957881 117.61137656 -435.98019757 114.33447021 -431.96386719 111.20751953 C-431.35091797 110.72984131 -430.73796875 110.25216309 -430.10644531 109.76000977 C-407.80544913 92.53737488 -383.86537058 76.72276633 -359.49658203 62.59375 C-357.17388147 61.24683209 -354.85948949 59.88642208 -352.54589844 58.52392578 C-341.40935071 51.99185662 -330.1151287 45.76221773 -318.74902344 39.63964844 C-316.5025591 38.42598656 -314.26340414 37.20015157 -312.02636719 35.96923828 C-254.13340042 4.37171558 -184.55873456 -23.40876882 -118.28027344 -26.51904297 C-115.30865094 -26.65262671 -115.30865094 -26.65262671 -112.82104492 -27.23266602 C-75.1031 -34.42729602 -31.06282666 -20.92662087 0 0 Z " fill="#72253D" transform="translate(505.2138671875,41.72998046875)"/>
</svg>
