<?xml version="1.0" encoding="UTF-8"?>
<svg version="1.1" xmlns="http://www.w3.org/2000/svg" width="392" height="395">
<path d="M0 0 C-2.64 3.63 -5.28 7.26 -8 11 C-6.55753906 10.84015625 -5.11507812 10.6803125 -3.62890625 10.515625 C25.660936 7.61492772 64.88798763 10.16571175 90.09765625 27.078125 C92.77976445 28.85416435 94.822982 29.73767208 97.875 30.625 C120.24516886 38.4059283 149.74526712 61.97533824 160.9375 83 C161.23527344 83.66 161.53304688 84.32 161.83984375 85 C163.4541553 87.78292091 165.72645896 89.73328641 168 92 C188.41088102 120.05967908 197.24540809 155.40824796 197.1875 189.625 C197.18656342 190.33886871 197.18562683 191.05273743 197.18466187 191.78823853 C197.15560826 201.99263873 196.98729158 211.94787961 195 222 C194.78996338 223.12631836 194.78996338 223.12631836 194.57568359 224.27539062 C190.31135961 246.57563526 181.87364239 274.90381212 165 291 C164.566875 291.886875 164.13375 292.77375 163.6875 293.6875 C161.14902696 298.67042856 157.57863353 302.72661344 154 307 C153.33742188 307.79921875 152.67484375 308.5984375 151.9921875 309.421875 C148.4704042 313.57728459 148.4704042 313.57728459 147 315 C146.34 315 145.68 315 145 315 C144.67 315.99 144.34 316.98 144 318 C141.53439588 320.54666508 138.71446244 322.72363118 136 325 C135.1646875 325.74507813 134.329375 326.49015625 133.46875 327.2578125 C113.06489582 345.08252781 87.64120187 357.6866213 61.5625 364.75 C60.54675903 365.02976685 60.54675903 365.02976685 59.51049805 365.31518555 C44.07014683 369.25706424 28.63552523 370.55313114 12.75 370.4375 C11.85713287 370.43445862 10.96426575 370.43141724 10.04434204 370.42828369 C-3.96242227 370.35794114 -17.38787908 369.54325018 -31 366 C-31.85207031 365.78569336 -32.70414063 365.57138672 -33.58203125 365.35058594 C-45.95284812 362.16514696 -57.53895972 357.60902953 -69 352 C-69.72848145 351.64534668 -70.45696289 351.29069336 -71.20751953 350.92529297 C-116.12621154 328.78956866 -144.77832055 291.01222847 -163.84277344 245.72119141 C-164.83603021 243.38557115 -165.85965114 241.07016304 -166.9140625 238.76171875 C-180.82281596 207.96376467 -173.77198912 177.49015481 -164.22924805 146.70068359 C-162.32876505 140.44262557 -160.90832091 134.14706911 -159.5625 127.75 C-156.01086759 111.3658793 -149.47028321 93.88214463 -135 84 C-134.34 84 -133.68 84 -133 84 C-132.76023438 83.45214844 -132.52046875 82.90429688 -132.2734375 82.33984375 C-130.69518217 79.4399206 -128.74058323 77.09627992 -126.625 74.5625 C-120.57261376 67.3610585 -120.57261376 67.3610585 -115.25 59.625 C-109.50599445 51.04444851 -102.02726929 46.7356585 -93.01953125 42.11328125 C-88.28973762 39.66834532 -83.75934419 36.92224585 -79.21801758 34.1472168 C-75.90432256 32.12669246 -72.57146781 30.22056841 -69.125 28.4375 C-65.94134729 26.70686875 -63.46432765 24.71760562 -60.8125 22.25 C-47.2969835 9.75051009 -29.71734207 1.09602426 -11.5 -1.375 C-10.81728027 -1.47192139 -10.13456055 -1.56884277 -9.43115234 -1.66870117 C-5.27638029 -2.15509586 -3.90045584 -1.95022792 0 0 Z " fill="#091B24" transform="translate(185,14)"/>
<path d="M0 0 C-1.64514216 3.53620763 -3.7400422 6.67866818 -5.875 9.9375 C-10.83758485 17.78183903 -14.70576498 26.5351875 -14 36 C-13.37831268 37.68396173 -12.70801572 39.35047402 -12 41 C-11.4254951 43.34636902 -10.88885957 45.7021077 -10.375 48.0625 C-8.26433419 57.46997818 -5.55965971 66.69734662 -2.81787109 75.93774414 C-0.77532684 82.91438627 0.87694508 89.81572484 2 97 C-9.01375011 92.8306234 -15.87465941 83.25068118 -21 73 C-22.48722177 97.85312832 -11.29239752 119.86897814 4.859375 138.31640625 C7.19247757 140.92277336 9.57845545 143.475411 12 146 C3.44568333 146 -5.12255273 136.58720296 -11 131 C-10.54378638 133.79202736 -10.08507099 136.58360776 -9.625 139.375 C-9.43550781 140.53708984 -9.43550781 140.53708984 -9.2421875 141.72265625 C-7.82889212 150.27309327 -6.07582026 158.73508047 -4.19848633 167.19458008 C-2.11780383 176.57722013 -0.22115869 185.95975945 1.390625 195.43359375 C2.16707064 199.97779162 3.05839823 204.48764865 4 209 C4.15114258 209.73637695 4.30228516 210.47275391 4.45800781 211.23144531 C4.98966142 213.82162967 5.52563975 216.41089014 6.0625 219 C6.3243811 220.27593018 6.3243811 220.27593018 6.59155273 221.57763672 C6.75856689 222.3770166 6.92558105 223.17639648 7.09765625 224 C7.24726807 224.721875 7.39687988 225.44375 7.55102539 226.1875 C7.95042903 228.08338717 7.95042903 228.08338717 9 230 C9.33773437 229.14535156 9.67546875 228.29070312 10.0234375 227.41015625 C10.46945313 226.30542969 10.91546875 225.20070312 11.375 224.0625 C11.81585938 222.96035156 12.25671875 221.85820312 12.7109375 220.72265625 C14 218 14 218 16 217 C17.13899354 225.64891065 18.23739969 234.30081527 19.26269531 242.96395874 C19.72763229 246.86334892 20.24988437 250.7466642 20.83984375 254.62890625 C22.1500202 264.35500322 22.1500202 264.35500322 19.17578125 268.609375 C16.56991937 270.85115257 14.0471216 272.41697317 11 274 C10.11441406 274.49757813 9.22882813 274.99515625 8.31640625 275.5078125 C-0.79170854 280.35992845 -9.30210547 282.13493944 -19.625 282.1875 C-20.89601563 282.20167969 -22.16703125 282.21585937 -23.4765625 282.23046875 C-26.8049746 282.01275665 -29.02397107 281.44240483 -32 280 C-24.16377568 292.29606902 -14.73768501 299.33676906 -2 306 C-0.64068359 306.7115625 -0.64068359 306.7115625 0.74609375 307.4375 C25.42961828 319.45991682 53.1431021 319.52159251 80 320 C60.54103589 330.63914908 31.04550635 329.05009078 10 325 C9.22897949 324.86489014 8.45795898 324.72978027 7.66357422 324.59057617 C-20.87423821 319.52825603 -45.31090486 303.74734401 -66 284 C-67.09634766 282.96552734 -67.09634766 282.96552734 -68.21484375 281.91015625 C-76.35969852 274.02335628 -83.01322548 265.19607458 -89.3125 255.8125 C-90.06805176 254.69029053 -90.06805176 254.69029053 -90.83886719 253.54541016 C-93.94478825 248.84295853 -96.57439142 244.08744031 -99 239 C-95.6758842 239 -95.06635303 239.42791398 -92.4375 241.25 C-81.20920395 248.49010346 -67.98627494 250.82709967 -55 253 C-55.48726562 252.41476562 -55.97453125 251.82953125 -56.4765625 251.2265625 C-59.00364827 248.16649137 -61.50585037 245.08690765 -64 242 C-64.79543213 241.01918457 -64.79543213 241.01918457 -65.60693359 240.01855469 C-91.32133483 208.16039989 -91.32133483 208.16039989 -96.875 191.125 C-97.11992188 190.40570313 -97.36484375 189.68640625 -97.6171875 188.9453125 C-98 187 -98 187 -97 184 C-96.57589844 184.58007812 -96.15179688 185.16015625 -95.71484375 185.7578125 C-90.96005414 192.09056526 -86.26597907 197.59654575 -79 201 C-79.43570313 200.13761719 -79.87140625 199.27523437 -80.3203125 198.38671875 C-83.95438339 191.00783215 -86.99665231 183.59006399 -89.5 175.75 C-89.76699707 174.92846436 -90.03399414 174.10692871 -90.30908203 173.26049805 C-90.54739746 172.48875244 -90.78571289 171.71700684 -91.03125 170.921875 C-91.24330078 170.23706055 -91.45535156 169.55224609 -91.67382812 168.84667969 C-92 167 -92 167 -91 164 C-90.59910156 164.44730469 -90.19820312 164.89460937 -89.78515625 165.35546875 C-82.81070672 172.77274047 -74.92780986 176.79581117 -65 179 C-64.01 179 -63.02 179 -62 179 C-62.65226562 178.26136719 -63.30453125 177.52273437 -63.9765625 176.76171875 C-76.09649746 162.79860655 -85.45666406 145.40847462 -85.3125 126.5 C-85.30758545 125.72317871 -85.3026709 124.94635742 -85.29760742 124.14599609 C-85.04980796 111.63402938 -82.44357823 100.31243601 -77 89 C-76.41663477 87.7317855 -75.83330338 86.46355545 -75.25 85.1953125 C-70.22904558 74.51317377 -64.23990693 64.3932067 -56.0234375 55.8359375 C-49.6039964 49.06867597 -47.17252088 44.42635473 -46.12792969 35.10864258 C-45.16056371 27.70930403 -41.57301535 23.83972385 -36 19 C-35.071875 18.071875 -35.071875 18.071875 -34.125 17.125 C-25.93026065 9.21283787 -11.6122888 0 0 0 Z " fill="#FAFBFB" transform="translate(170,21)"/>
<path d="M0 0 C3.68143485 1.97369701 7.34478552 3.97816561 11 6 C11.79019531 6.433125 12.58039063 6.86625 13.39453125 7.3125 C25.5835074 14.28949486 36.89378827 23.28655584 47 33 C47.55510254 33.51868652 48.11020508 34.03737305 48.68212891 34.57177734 C68.15928384 52.81705269 84.73880006 76.46206758 90.53125 102.91796875 C90.89583885 104.53735091 91.32583732 106.1420598 91.78125 107.73828125 C94.38979747 117.43579799 97.08924617 129.85114072 92.37109375 139.2421875 C90.09712192 142.11414476 87.70669827 144.53363447 85 147 C83.71802734 148.27230469 83.71802734 148.27230469 82.41015625 149.5703125 C75.81768682 155.90140649 68.64348034 161.03459694 61 166 C60.11054688 166.57878906 59.22109375 167.15757812 58.3046875 167.75390625 C51.28256474 172.14548459 43.56044134 176.90109909 35 176 C34.85552702 170.49316535 35.34243192 165.52973956 36.47265625 160.1328125 C38.21530492 151.01934571 38.51247709 142.13250038 38.4375 132.875 C38.43445862 132.07184357 38.43141724 131.26868713 38.42828369 130.44119263 C38.35324398 116.97523331 37.31126862 104.09891499 34 91 C33.78569336 90.13149414 33.57138672 89.26298828 33.35058594 88.36816406 C30.32435319 76.45264792 25.96192224 65.72968652 20 55 C19.41089844 53.90945312 18.82179688 52.81890625 18.21484375 51.6953125 C14.42101073 44.90270941 10.04815548 38.90931141 5 33 C4.34257812 32.22011719 3.68515625 31.44023437 3.0078125 30.63671875 C-0.0708659 26.79684835 -0.0708659 26.79684835 -4 24 C-4 23.34 -4 22.68 -4 22 C-0.01027827 22.58019293 2.76872792 23.82210245 6.1875 25.9375 C7.04730469 26.46214844 7.90710938 26.98679688 8.79296875 27.52734375 C11 29 11 29 13 31 C10.80498961 19.61449894 7.65709142 10.75096163 0 2 C0 1.34 0 0.68 0 0 Z " fill="#005EAA" transform="translate(249,143)"/>
<path d="M0 0 C0.99 0.495 0.99 0.495 2 1 C1.46632813 1.48726563 0.93265625 1.97453125 0.3828125 2.4765625 C-24.73248007 26.3751973 -39.96103455 63.65338205 -41 98 C-41.16177752 106.33462972 -41.13376764 114.66524692 -41 123 C-47.81388734 116.18611266 -47.25095478 101.68052616 -47.32568359 92.82739258 C-47.26609365 75.2450489 -47.26609365 75.2450489 -46 67 C-57.31575459 88.51543475 -60.57250988 110.14953838 -54 134 C-53.75636719 134.93714844 -53.51273438 135.87429687 -53.26171875 136.83984375 C-47.73571272 155.51303 -37.58682415 173.22997449 -25 188 C-25.33 188.66 -25.66 189.32 -26 190 C-40.38123956 182.78294412 -50.00010187 172.92862523 -58 159 C-58.3225912 165.79860961 -57.17466889 171.73578173 -55.5 178.3125 C-55.23155273 179.36703369 -54.96310547 180.42156738 -54.68652344 181.50805664 C-47.68088557 207.90273378 -33.67771305 230.28463623 -15 250 C-14.10796875 250.95648438 -13.2159375 251.91296875 -12.296875 252.8984375 C-0.82373489 264.95429698 12.63272596 273.7592113 27 282 C27.85464844 282.50402344 28.70929688 283.00804687 29.58984375 283.52734375 C44.22653053 291.99038408 60.4915171 295.34443462 77 298 C77.92522461 298.17418457 78.85044922 298.34836914 79.80371094 298.52783203 C83.22727538 299.03357398 86.49285457 299.14626622 89.953125 299.16796875 C90.60600998 299.17233948 91.25889496 299.17671021 91.93156433 299.18121338 C126.75541725 299.34952312 156.49832015 292.74802468 187.609375 276.69921875 C190.37673125 275.31235243 193.10579076 274.08809012 196 273 C187.65678345 282.49400504 175.23055772 287.67173405 164 293 C163.16815186 293.40492676 162.33630371 293.80985352 161.47924805 294.22705078 C154.74320929 297.42108659 148.0005021 299.67815554 140.8125 301.625 C139.80380859 301.91117187 138.79511719 302.19734375 137.75585938 302.4921875 C122.88200037 306.60047247 108.90024558 308.5865008 93.5 308.5 C92.25941833 308.49785492 92.25941833 308.49785492 90.99377441 308.4956665 C76.84451594 308.43538588 63.6291237 306.99639024 50 303 C48.80503906 302.66307129 48.80503906 302.66307129 47.5859375 302.31933594 C19.1852392 294.16244642 -6.68271192 279.43201864 -28 259 C-29.31871094 257.77603516 -29.31871094 257.77603516 -30.6640625 256.52734375 C-44.46296012 243.33093321 -53.37905343 227.63029338 -62.40332031 210.93359375 C-63.80103563 208.365559 -65.2297593 205.82000892 -66.6796875 203.28125 C-72.32960626 193.2578329 -76.01566713 183.09923133 -79 172 C-79.51046875 170.16115234 -79.51046875 170.16115234 -80.03125 168.28515625 C-82.29155901 159.14974066 -82.30525764 150.33862257 -82 141 C-79.82386494 143.17613506 -79.5713544 144.02551258 -78.88671875 146.9296875 C-78.69327881 147.71956055 -78.49983887 148.50943359 -78.30053711 149.32324219 C-78.09823486 150.16532227 -77.89593262 151.00740234 -77.6875 151.875 C-75.05085139 162.35073266 -71.43835973 171.66395751 -66 181 C-66.11069824 180.44650879 -66.22139648 179.89301758 -66.33544922 179.32275391 C-68.9296875 166.3515625 -68.9296875 166.3515625 -69.46386719 163.65771484 C-69.81206049 161.93165278 -70.17146121 160.20779997 -70.54394531 158.48681641 C-71.84480037 152.37955532 -72.52475583 146.3471783 -73 140.125 C-73.44278046 134.37705364 -74.00622001 128.74244993 -75.03515625 123.06640625 C-78.80170304 101.30959636 -75.89370927 79.78514261 -64 61 C-61.78515625 59.1171875 -61.78515625 59.1171875 -60 58 C-60.45833333 59.83333333 -60.91666667 61.66666667 -61.375 63.5 C-61.78298828 65.14742187 -61.78298828 65.14742187 -62.19921875 66.828125 C-62.66075755 68.65626893 -63.13511216 70.48149061 -63.64453125 72.296875 C-64.96308033 77.03985731 -65.17409793 81.12525802 -65 86 C-64.8040625 85.319375 -64.608125 84.63875 -64.40625 83.9375 C-59.97824776 69.58466514 -52.67171915 52.84664358 -41.3515625 42.4921875 C-39.32852954 40.25866556 -38.66960124 37.7690565 -37.6875 34.9375 C-34.5607561 26.51500966 -30.80194797 19.0017188 -24 13 C-24.2165625 13.61488281 -24.433125 14.22976562 -24.65625 14.86328125 C-24.9346875 15.67152344 -25.213125 16.47976562 -25.5 17.3125 C-25.7784375 18.11300781 -26.056875 18.91351563 -26.34375 19.73828125 C-27.13933107 22.08769422 -27.13933107 22.08769422 -27 25 C-26.60844727 24.56244385 -26.21689453 24.1248877 -25.81347656 23.67407227 C-17.8049076 14.78072707 -9.97161181 6.68487943 0 0 Z " fill="#BDC7CC" transform="translate(109,63)"/>
<path d="M0 0 C7.13281698 -0.66044602 11.96222147 1.192875 18 5 C19.79296875 6.66796875 19.79296875 6.66796875 21 8 C20.67 5.36 20.34 2.72 20 0 C21.77101956 0.29053375 23.54180269 0.5825087 25.3125 0.875 C26.29863281 1.03742188 27.28476562 1.19984375 28.30078125 1.3671875 C30.36637403 1.72054128 32.43016447 2.08757206 34.48364258 2.50561523 C41.06917189 3.81451483 47.35302555 4.34947464 54.0625 4.3125 C55.07530029 4.31048584 56.08810059 4.30847168 57.1315918 4.30639648 C76.84443954 4.06232843 76.84443954 4.06232843 96 0 C99.22576011 -0.43423694 101.76333126 -0.63089647 104.73046875 0.8828125 C123.95594989 15.57688733 131.11576588 49.36791625 134.3046875 71.73828125 C137.28678304 96.07172325 137.48576392 131.44449193 122 152 C121.34 152 120.68 152 120 152 C118.85874539 149.71749078 118.80660456 148.23605259 118.67578125 145.6953125 C117.43848894 126.03133071 112.62020589 109.17513212 103 92 C102.66129883 91.37818848 102.32259766 90.75637695 101.97363281 90.11572266 C89.96631211 68.19352508 71.86809044 49.02558929 52 34 C50.81462248 33.07483558 49.62976386 32.14900609 48.4453125 31.22265625 C33.27134316 19.47636283 17.0998439 9.67034339 0 1 C0 0.67 0 0.34 0 0 Z " fill="#005EAA" transform="translate(230,108)"/>
<path d="M0 0 C19.40011884 14.71967059 29.94723689 39.91917434 35 63 C35.5580321 65.06371332 36.1202013 67.12631474 36.6875 69.1875 C39.44088725 80.38914376 39.18650458 92.06477215 39.18530273 103.53759766 C39.18749069 105.86509475 39.20573315 108.19211722 39.22460938 110.51953125 C39.33105282 137.62641218 39.33105282 137.62641218 34 143 C31.15489664 143.99655512 28.62358217 144.68363287 25.6875 145.25 C24.39839722 145.50148804 24.39839722 145.50148804 23.08325195 145.75805664 C5.7031295 148.73677067 -13.96313439 149.02139197 -31 144 C-29.65107883 139.95323649 -26.90953845 138.35269658 -23.625 135.875 C-22.35537018 134.88814764 -21.08584031 133.90116667 -19.81640625 132.9140625 C-17.43263975 131.08002543 -15.02630831 129.28665898 -12.58984375 127.5234375 C-11.59082031 126.77320313 -10.59179688 126.02296875 -9.5625 125.25 C-8.20318359 124.26773438 -8.20318359 124.26773438 -6.81640625 123.265625 C-4.667925 121.07803937 -4.667925 121.07803937 -5.04296875 117.87890625 C-6.21523519 113.12763861 -7.4295455 108.39981529 -8.75 103.6875 C-9.14662842 102.23597534 -9.14662842 102.23597534 -9.55126953 100.75512695 C-10.80140452 96.19860563 -12.08773502 91.66287998 -13.5078125 87.15625 C-19.1411831 69.01428947 -16.7775932 52.57392333 -14 34 C-8.80871662 36.40598102 -6.3436952 39.76758824 -4.3125 45.0625 C-2.58035867 49.94926744 -1.88071422 54.02570809 -1.9375 59.25 C-1.94652344 60.32765625 -1.95554688 61.4053125 -1.96484375 62.515625 C-1.97644531 63.33546875 -1.98804688 64.1553125 -2 65 C-1.34 65 -0.68 65 0 65 C0.16435547 64.18208984 0.16435547 64.18208984 0.33203125 63.34765625 C1.32902626 58.6058507 2.55676928 54.08363198 4.21875 49.53125 C6.43513825 42.35015208 7.36156527 35.57381531 7.3125 28.0625 C7.30831055 27.18513184 7.30412109 26.30776367 7.29980469 25.40380859 C7.1393066 16.21956142 5.39909605 9.44702904 0 2 C0 1.34 0 0.68 0 0 Z " fill="#005EAA" transform="translate(239,179)"/>
<path d="M0 0 C23.65215944 -1.48686451 49.86638066 3.28022108 70.921875 14.38671875 C73.0107444 15.48151959 75.12738977 16.52458686 77.265625 17.51953125 C92.07909942 24.46968877 104.88318779 34.13265715 116.52880859 45.56396484 C117.99690795 46.99698184 119.48909598 48.40038908 120.98828125 49.80078125 C121.89964844 50.67089844 122.81101562 51.54101562 123.75 52.4375 C124.54921875 53.19933594 125.3484375 53.96117187 126.171875 54.74609375 C128.18180919 57.22415364 128.66790715 58.86172256 129 62 C119.32545542 67.0571483 108.46081403 66.08375568 97.8125 66.125 C96.79099854 66.12975342 95.76949707 66.13450684 94.71704102 66.1394043 C84.95575239 66.11802748 76.2012534 65.07661205 66.8125 62.375 C65.44254883 61.98175537 65.44254883 61.98175537 64.04492188 61.58056641 C54.12788714 58.61278384 44.99030632 54.7271329 37 48 C37.95241459 41.20375762 42.14807117 37.24543098 47.40625 33.10546875 C52.46480917 29.52232267 57.71174635 26.23171057 63 23 C55.85328163 17.17731382 47.35569433 16.52368306 38.4375 16.6875 C37.11588867 16.68266602 37.11588867 16.68266602 35.76757812 16.67773438 C31.30365375 16.71397288 27.4856185 17.07125404 23.1953125 18.33203125 C20.98510742 18.87426758 20.98510742 18.87426758 19 19 C15.99609375 17 15.99609375 17 13.4375 14 C9.70409611 9.80561682 6.02834169 6.27164559 1.36328125 3.12109375 C0.91339844 2.75113281 0.46351563 2.38117187 0 2 C0 1.34 0 0.68 0 0 Z " fill="#005DA9" transform="translate(199,39)"/>
<path d="M0 0 C4.42311919 1.44993594 7.59651587 3.86413979 11.0625 6.875 C11.90687622 7.6031189 11.90687622 7.6031189 12.76831055 8.34594727 C22.78484958 17.08890092 30.92747805 25.68396488 38 37 C38.98414771 38.3450766 39.97827132 39.68324328 41 41 C45.59147181 33.00255935 47.87845981 24.88913486 50 16 C50.66 16.33 51.32 16.66 52 17 C59.19623964 40.85420177 53.80237093 72.30414325 45 95 C44.34 95.66 43.68 96.32 43 97 C43.47413584 92.25864156 44.27354872 87.76147555 45.375 83.125 C46.9207012 76.08939453 47.84511746 69.02663513 48.6875 61.875 C48.81882324 60.79105957 48.95014648 59.70711914 49.08544922 58.59033203 C49.90093286 51.36481859 50.15439251 44.26870115 50 37 C49.60167969 38.08539063 49.20335937 39.17078125 48.79296875 40.2890625 C48.25799097 41.73444107 47.72282469 43.17974988 47.1875 44.625 C46.92646484 45.33785156 46.66542969 46.05070312 46.39648438 46.78515625 C44.83035219 51.00017866 43.09518176 55.01097526 41 59 C40.34 59 39.68 59 39 59 C38.79431396 58.48203857 38.58862793 57.96407715 38.37670898 57.43041992 C32.39616546 40.31281783 32.39616546 40.31281783 21 27 C21.13575439 27.55236328 21.27150879 28.10472656 21.41137695 28.67382812 C26.94259062 51.27619766 31.6868757 73.60806647 31 97 C28.91801313 93.45619257 28.3606786 90.03081176 27.6875 86 C23.0365942 60.00806365 14.58233175 34.79275817 4.3125 10.5 C2.84171053 7.0122647 1.39590576 3.5184474 0 0 Z " fill="#B8C2C7" transform="translate(167,63)"/>
<path d="M0 0 C0.94875 0.309375 1.8975 0.61875 2.875 0.9375 C5.25786284 1.6932767 6.9000651 2.00858436 9.41015625 1.79296875 C12.48111402 1.58887109 14.15610687 1.76247334 17 3 C18.53669475 5.36639957 19.68456697 7.47743804 20.83203125 10.0234375 C21.17022888 10.73653076 21.50842651 11.44962402 21.85687256 12.18432617 C22.92378489 14.44782942 23.96365955 16.7223588 25 19 C25.6601488 20.4268622 26.32086277 21.85346307 26.98217773 23.27978516 C28.93159901 27.50789398 30.84349278 31.75240691 32.75 36 C34.0343817 38.85510685 35.32143525 41.70899682 36.609375 44.5625 C36.90896118 45.22983154 37.20854736 45.89716309 37.51721191 46.5847168 C39.08301395 50.05409019 40.72829613 53.45244435 42.515625 56.8125 C44 60 44 60 43 63 C24.80006955 45.69270919 9.86492415 24.05926021 0 1 C0 0.67 0 0.34 0 0 Z " fill="#102129" transform="translate(100,211)"/>
<path d="M0 0 C1.1287504 3.55122241 1.00114423 6.73306437 0.875 10.4375 C0.81558086 21.88162581 3.00192724 34.17505945 10.78515625 43.03125 C14.29893771 46.32847634 17.21490249 48.14957979 21.8125 49.5625 C24.078125 50.44140625 24.078125 50.44140625 26 52 C28.24523544 57.84755939 29 63.76266477 29 70 C15.82773617 66.1564802 5.84014702 55.26498149 -0.74609375 43.58203125 C-7.04335123 30.61478143 -6.1667417 17.07192503 -1.97265625 3.6328125 C-1 1 -1 1 0 0 Z " fill="#12232B" transform="translate(120,101)"/>
<path d="M0 0 C2.16016767 2.16016767 2.48189477 3.10916775 3.26171875 5.98046875 C3.49004395 6.80345459 3.71836914 7.62644043 3.95361328 8.47436523 C4.1957959 9.36969971 4.43797852 10.26503418 4.6875 11.1875 C5.21822387 13.09946675 5.75084547 15.01090753 6.28515625 16.921875 C6.7030542 18.41750977 6.7030542 18.41750977 7.12939453 19.94335938 C8.55897176 24.96251442 10.0920589 29.94913516 11.625 34.9375 C12.21130353 36.85796121 12.79725109 38.77853113 13.3828125 40.69921875 C14.15784514 43.24101689 14.93320892 45.78267772 15.71386719 48.32275391 C16.3178596 50.29588608 16.9094849 52.27279254 17.5 54.25 C17.8196875 55.30703125 18.139375 56.3640625 18.46875 57.453125 C19 60 19 60 18 63 C17.319375 62.34 16.63875 61.68 15.9375 61 C12.31312143 58.53233799 10.30379794 58.60150019 6 59 C4.515 59.495 4.515 59.495 3 60 C2.20848103 54.93320171 1.73820856 49.90731297 1.46484375 44.78515625 C1.42186661 44.011754 1.37888947 43.23835175 1.33460999 42.44151306 C1.2448662 40.80866875 1.15671269 39.17573633 1.07006836 37.54272461 C0.93952651 35.10041404 0.80115615 32.65863609 0.66210938 30.21679688 C0.10704618 20.13180803 -0.11764232 10.10068233 0 0 Z " fill="#C6CFD3" transform="translate(151,183)"/>
<path d="M0 0 C0.33 0 0.66 0 1 0 C1.19640573 5.54300612 1.14302212 10.84858439 0.125 16.3125 C-0.95506787 22.20658467 -1.57402631 28.10028469 -2.125 34.0625 C-2.21249512 34.97233643 -2.29999023 35.88217285 -2.39013672 36.81958008 C-3.36853703 47.76801741 -3.24349864 56.83607367 0.125 67.375 C0.76194799 69.47128453 1.39866183 71.56764021 2.03515625 73.6640625 C2.68919805 75.77632245 3.34413905 77.88830419 4 80 C5.20768408 83.91089085 6.39238402 87.82772701 7.5625 91.75 C7.83787598 92.62446777 8.11325195 93.49893555 8.39697266 94.39990234 C8.63851074 95.21152832 8.88004883 96.0231543 9.12890625 96.859375 C9.34619385 97.56545898 9.56348145 98.27154297 9.78735352 98.99902344 C10.06876303 101.64705144 9.46143484 102.79592854 8 105 C6.39941406 106.47631836 6.39941406 106.47631836 4.515625 107.83984375 C3.82726562 108.34580078 3.13890625 108.85175781 2.4296875 109.37304688 C1.35074219 110.14745117 1.35074219 110.14745117 0.25 110.9375 C-1.16258938 111.96589612 -2.57406442 112.99582477 -3.984375 114.02734375 C-5.00047852 114.76960205 -5.00047852 114.76960205 -6.03710938 115.52685547 C-8.78087691 117.58604617 -11.3913523 119.7728055 -14 122 C-14.66 121.67 -15.32 121.34 -16 121 C-15.56655273 120.57178955 -15.13310547 120.1435791 -14.68652344 119.70239258 C-12.70499954 117.74178536 -10.72747941 115.7771861 -8.75 113.8125 C-7.72712891 112.80219727 -7.72712891 112.80219727 -6.68359375 111.77148438 C-4.76908928 109.86627362 -2.88400496 107.93528119 -1 106 C0.26070312 104.76830078 0.26070312 104.76830078 1.546875 103.51171875 C3.89236076 99.45755922 2.51643325 95.1793169 1.47793579 90.79692078 C0.84769543 88.43829395 0.17865797 86.09400718 -0.50390625 83.75 C-1.00219793 81.98965261 -1.50023717 80.22923375 -1.99804688 78.46875 C-2.77992826 75.72934025 -3.56511148 72.99095351 -4.35522461 70.25390625 C-5.1222168 67.58843511 -5.87623172 64.91954375 -6.62890625 62.25 C-6.86638077 61.44143555 -7.10385529 60.63287109 -7.348526 59.79980469 C-9.5570919 51.91815328 -9.33349756 45.90796397 -7 38 C-6.70626842 36.21194466 -6.43906177 34.41947397 -6.1875 32.625 C-4.60016142 21.66849223 -2.2179469 10.84259185 0 0 Z " fill="#B1BBC0" transform="translate(218,194)"/>
<path d="M0 0 C2.27832261 3.41748392 2.76664241 5.92247221 3.625 9.9375 C5.71977679 19.39253188 8.42780562 28.6558861 11.18212891 37.93725586 C13.22444984 44.91411943 14.87692028 51.81556621 16 59 C5.55572296 55.04620371 -0.66180948 46.45672824 -6 37 C-2.42188369 37 -1.73324619 37.86465142 1 40 C1.99 40.33 2.98 40.66 4 41 C3.87882813 39.90010742 3.75765625 38.80021484 3.6328125 37.66699219 C3.18336982 33.58210538 2.73676645 29.49691227 2.29101562 25.41162109 C2.09777896 23.64428372 1.90377472 21.87703009 1.70898438 20.10986328 C1.42896412 17.5682509 1.15171503 15.02634909 0.875 12.484375 C0.78750488 11.69569031 0.70000977 10.90700562 0.60986328 10.09442139 C0.24265456 6.69912604 0 3.42005182 0 0 Z " fill="#BAC3C8" transform="translate(156,59)"/>
<path d="M0 0 C0.16435547 1.01707031 0.16435547 1.01707031 0.33203125 2.0546875 C1.89879623 11.25147057 4.15422873 19.67782782 8.23046875 28.08984375 C9 30 9 30 9 33 C3.07771837 32.6446631 0.14979733 31.24411091 -4 27 C-7.60708718 22.19055043 -7.60671852 17.03767281 -7.5 11.21484375 C-6.99049571 7.93889038 -4.30871776 0 0 0 Z " fill="#10212A" transform="translate(138,105)"/>
<path d="M0 0 C2.4296875 0.3828125 2.4296875 0.3828125 4.5546875 2.8203125 C8.98013132 10.38119223 10.59937698 18.7286492 10.4296875 27.3828125 C8.12927645 23.93219593 6.54030495 20.33870294 4.84375 16.5625 C3.47579164 13.91134275 3.47579164 13.91134275 -0.5703125 13.3828125 C-1.5603125 16.6828125 -2.5503125 19.9828125 -3.5703125 23.3828125 C-7.25022465 21.54285643 -8.29019853 17.12023066 -9.5703125 13.3828125 C-9.79237759 8.83047815 -6.86477418 5.5572961 -4.3359375 1.95703125 C-2.5703125 0.3828125 -2.5703125 0.3828125 0 0 Z " fill="#11232B" transform="translate(166.5703125,258.6171875)"/>
<path d="M0 0 C5.022832 3.05309396 6.69255901 5.83353532 8.41772461 11.34545898 C9.4885946 16.22745873 9.3098635 21.08952175 9.1875 26.0625 C9.16719727 27.64708008 9.16719727 27.64708008 9.14648438 29.26367188 C9.1114709 31.84299809 9.06236675 34.42121494 9 37 C8.34 36.67 7.68 36.34 7 36 C7.0928125 34.1128125 7.0928125 34.1128125 7.1875 32.1875 C7.17365341 23.3810716 4.17546272 15.63101807 0 8 C-2.36286889 7.62378533 -2.36286889 7.62378533 -5 8 C-6.86919567 9.95264271 -6.86919567 9.95264271 -8.25 12.5 C-9.15307216 14.00822361 -10.06618092 15.51061768 -11 17 C-11.33 17 -11.66 17 -12 17 C-12.45028522 10.69600687 -11.61202629 6.28621366 -8 1 C-5.09704195 -0.45147903 -3.22738221 -0.37239025 0 0 Z " fill="#C0C9CE" transform="translate(169,252)"/>
<path d="M0 0 C0.66 0.33 1.32 0.66 2 1 C1.54109375 1.65484375 1.0821875 2.3096875 0.609375 2.984375 C-3.46370359 9.04265156 -6.07431612 14.45485999 -7.78515625 21.56640625 C-9 24 -9 24 -11.984375 25.21875 C-13.47710937 25.60546875 -13.47710937 25.60546875 -15 26 C-17.2085766 27.87508162 -17.2085766 27.87508162 -19 30 C-19.99516917 31.00480761 -20.99435042 32.00568168 -22 33 C-20.42445381 20.47712422 -14.65830269 11.06258312 -5 3 C-2.34765625 1.1875 -2.34765625 1.1875 0 0 Z " fill="#13242D" transform="translate(157,29)"/>
<path d="M0 0 C4.78456528 7.17684792 3.94802028 19.39221902 2.5390625 27.7265625 C0.24769981 35.35545239 -4.37181873 42.51623032 -11 47 C-11 43.62239652 -10.30447212 42.46732602 -8.6875 39.5625 C-3.57493005 29.52510985 -2.49775671 18.96106805 -1.4296875 7.90625 C-1.12103302 5.1003002 -0.72536531 2.69186137 0 0 Z " fill="#B3BDC2" transform="translate(230,127)"/>
<path d="M0 0 C0.70640625 -0.00515625 1.4128125 -0.0103125 2.140625 -0.015625 C7.24106704 0.05356704 7.24106704 0.05356704 9.5 2.3125 C8.8709375 2.39886719 8.241875 2.48523437 7.59375 2.57421875 C-1.64185719 4.09030487 -7.57299803 8.25137328 -14.5 14.3125 C-15.17119549 12.8562455 -15.83681807 11.39742133 -16.5 9.9375 C-16.87125 9.12539062 -17.2425 8.31328125 -17.625 7.4765625 C-18.5 5.3125 -18.5 5.3125 -18.5 3.3125 C-12.33706006 0.82362041 -6.58700263 0.01184713 0 0 Z " fill="#B5BFC4" transform="translate(241.5,58.6875)"/>
<path d="M0 0 C0.33 0 0.66 0 1 0 C1.93556846 13.30586252 1.93556846 13.30586252 -0.30078125 17.35546875 C-1.38384436 18.56777567 -2.48276199 19.7661192 -3.59765625 20.94921875 C-6.38811458 25.02997257 -5.98399414 30.19824308 -6 35 C-8.22500126 33.24714755 -8.94120422 32.33847299 -9.43359375 29.50390625 C-9.44843672 18.32714964 -6.47708932 9.10293634 0 0 Z " fill="#C4CCD1" transform="translate(137,90)"/>
<path d="M0 0 C0.33 0 0.66 0 1 0 C1.24134322 6.8112419 0.75229072 13.08958695 -0.48828125 19.78515625 C-1.3957782 25.4864539 -1.67624348 31.24054194 -2 37 C-2.33 37 -2.66 37 -3 37 C-3.33 35.35 -3.66 33.7 -4 32 C-4.99 32.495 -4.99 32.495 -6 33 C-5.24374431 25.90684314 -3.86577754 18.98535736 -2.4375 12 C-2.20353516 10.84371094 -1.96957031 9.68742188 -1.72851562 8.49609375 C-1.15497733 5.66351686 -0.57873932 2.83151798 0 0 Z " fill="#AFB9BF" transform="translate(218,194)"/>
<path d="M0 0 C0.66 0.99 1.32 1.98 2 3 C2.66 2.01 3.32 1.02 4 0 C3.31282115 6.13370756 1.76723027 11.88886891 0.0625 17.8125 C-0.33485352 19.24239258 -0.33485352 19.24239258 -0.74023438 20.70117188 C-0.99998047 21.61060547 -1.25972656 22.52003906 -1.52734375 23.45703125 C-1.76187256 24.28178955 -1.99640137 25.10654785 -2.23803711 25.95629883 C-3 28 -3 28 -5 30 C-4.36685886 23.66858864 -3.0683074 17.57817501 -1.69921875 11.3671875 C-0.91206449 7.57653401 -0.38494835 3.84948349 0 0 Z " fill="#A9B3B9" transform="translate(215,130)"/>
<path d="M0 0 C0.66 0.33 1.32 0.66 2 1 C1.03900391 1.67095703 1.03900391 1.67095703 0.05859375 2.35546875 C-4.98020472 5.87737111 -10.00481918 9.41650072 -15 13 C-15.66 12.67 -16.32 12.34 -17 12 C-17 11.01 -17 10.02 -17 9 C-15.85660156 8.43410156 -14.71320313 7.86820312 -13.53515625 7.28515625 C-12.04421862 6.54437592 -10.55333604 5.80348478 -9.0625 5.0625 C-8.30775391 4.68931641 -7.55300781 4.31613281 -6.77539062 3.93164062 C-6.05673828 3.57392578 -5.33808594 3.21621094 -4.59765625 2.84765625 C-3.93258057 2.51773682 -3.26750488 2.18781738 -2.58227539 1.84790039 C-1.00380637 1.10022992 -1.00380637 1.10022992 0 0 Z " fill="#A2ACB2" transform="translate(303,336)"/>
<path d="M0 0 C-1.38517117 3.4340702 -2.65444364 4.70022022 -6 6.25 C-6.70125 6.58515625 -7.4025 6.9203125 -8.125 7.265625 C-10 8 -10 8 -12 8 C-11.4375 5.6875 -11.4375 5.6875 -10 3 C-6.48388132 1.14604652 -3.99073753 0 0 0 Z " fill="#B5BEC4" transform="translate(287,346)"/>
<path d="M0 0 C0.33 0 0.66 0 1 0 C2.65538713 7.31129316 0.9120062 12.2011529 -2 19 C-3.56454159 14.97985339 -2.46223974 11.30074319 -1.5625 7.25 C-1.34110352 6.20392578 -1.34110352 6.20392578 -1.11523438 5.13671875 C-0.75131967 3.4227979 -0.37670932 1.71115419 0 0 Z " fill="#949FA5" transform="translate(213,141)"/>
<path d="M0 0 C2.88313603 2.88313603 2.96482045 6.08099777 3 10 C2.54120467 12.47007988 1.84297968 14.61982207 1 17 C0.67 17 0.34 17 0 17 C0 11.39 0 5.78 0 0 Z " fill="#99A4A9" transform="translate(27,204)"/>
<path d="M0 0 C0.33 0 0.66 0 1 0 C1.09945415 6.11090483 1.0712828 11.97403427 0 18 C-2.25676604 14.61485094 -2.17329248 13.97622233 -1.6875 10.125 C-1.57921875 9.24328125 -1.4709375 8.3615625 -1.359375 7.453125 C-0.99210268 4.94609222 -0.57591762 2.46821837 0 0 Z " fill="#7A868D" transform="translate(218,194)"/>
<path d="M0 0 C0.33 0 0.66 0 1 0 C1 1.65 1 3.3 1 5 C1.66 5 2.32 5 3 5 C2.01 8.3 1.02 11.6 0 15 C-0.33 15 -0.66 15 -1 15 C-1.18451025 4.44191344 -1.18451025 4.44191344 0 0 Z " fill="#304048" transform="translate(44,136)"/>
<path d="M0 0 C2.35953094 2.35953094 2.49141413 3.77895617 3 7 C2.34 7 1.68 7 1 7 C1 9.97 1 12.94 1 16 C0.67 16 0.34 16 0 16 C0 10.72 0 5.44 0 0 Z " fill="#D1D7DB" transform="translate(151,183)"/>
<path d="M0 0 C1.90401138 1.90401138 2.93520439 3.33425686 3.19921875 6.046875 C3.1886578 8.03233273 3.09915043 10.0169914 3 12 C2.67 12 2.34 12 2 12 C1.67 10.35 1.34 8.7 1 7 C0.01 7.495 0.01 7.495 -1 8 C-0.67 5.36 -0.34 2.72 0 0 Z " fill="#88949A" transform="translate(213,219)"/>
<path d="M0 0 C0 3.50492555 -0.56962239 5.79867869 -2 9 C-4.625 10.375 -4.625 10.375 -7 11 C-5.5140084 6.40693504 -3.14985318 3.56430755 0 0 Z " fill="#A2ADB2" transform="translate(84,76)"/>
<path d="M0 0 C2 3 2 3 1.75 5.4375 C1.05282249 7.81952314 0.20252143 9.83546142 -1 12 C-1.14285714 3.42857143 -1.14285714 3.42857143 0 0 Z " fill="#909BA1" transform="translate(230,127)"/>
<path d="M0 0 C1.60031344 3.20062687 0.03173691 5.72271806 -1 9 C-1.66 8.34 -2.32 7.68 -3 7 C-3.99 7.495 -3.99 7.495 -5 8 C-3.8141763 4.62496331 -2.72426311 2.35277269 0 0 Z " fill="#9FAAB0" transform="translate(48,121)"/>
<path d="M0 0 C0.66 0.33 1.32 0.66 2 1 C-2.455 3.97 -2.455 3.97 -7 7 C-7.66 6.34 -8.32 5.68 -9 5 C-7.54735962 4.1361871 -6.0876837 3.28419546 -4.625 2.4375 C-3.40683594 1.72400391 -3.40683594 1.72400391 -2.1640625 0.99609375 C-1.44992187 0.66738281 -0.73578125 0.33867187 0 0 Z " fill="#859197" transform="translate(303,336)"/>
<path d="M0 0 C0.33 0 0.66 0 1 0 C1.98248524 4.0527516 2.08159574 7.83861737 2 12 C-0.40501922 8.39247116 -1.24602334 6.54643242 -0.5625 2.25 C-0.376875 1.5075 -0.19125 0.765 0 0 Z " fill="#314048" transform="translate(175,274)"/>
<path d="M0 0 C2 3 2 3 1.8125 5 C1 7 1 7 -2 10 C-1.34 6.7 -0.68 3.4 0 0 Z " fill="#4A575E" transform="translate(137,52)"/>
<path d="M0 0 C0.33 0 0.66 0 1 0 C1 1.98 1 3.96 1 6 C-0.32 6.33 -1.64 6.66 -3 7 C-1.125 1.125 -1.125 1.125 0 0 Z " fill="#CBCED0" transform="translate(185,238)"/>
<path d="M0 0 C0.33 0 0.66 0 1 0 C1 2.97 1 5.94 1 9 C0.01 8.01 -0.98 7.02 -2 6 C-1.57894737 1.57894737 -1.57894737 1.57894737 0 0 Z " fill="#BAC4C9" transform="translate(214,225)"/>
</svg>
