<?xml version="1.0" encoding="UTF-8"?>
<svg version="1.1" xmlns="http://www.w3.org/2000/svg" width="500" height="500">
<path d="M0 0 C0.59232422 0.40138184 1.18464844 0.80276367 1.79492188 1.21630859 C10.68251548 7.25537583 18.94721496 13.89400895 27 21 C27.50241211 21.43924805 28.00482422 21.87849609 28.52246094 22.33105469 C75.25957918 63.35146621 105.80450001 124.17170481 110.125 186.25 C110.2084668 187.44093262 110.29193359 188.63186523 110.37792969 189.85888672 C114.01949996 244.44528189 100.78337394 302.40006799 68 347 C67.56220215 347.60328125 67.1244043 348.2065625 66.67333984 348.828125 C52.37590835 368.49132689 36.51266015 387.29003398 17 402 C16.46262207 402.41378906 15.92524414 402.82757813 15.37158203 403.25390625 C-38.35384351 444.56031356 -104.83841612 462.03066822 -171.9921875 453.62548828 C-216.65986681 447.58040373 -260.41905528 429.04251385 -295 400 C-295.61327148 399.48824219 -296.22654297 398.97648437 -296.85839844 398.44921875 C-309.40022229 387.93480854 -320.91534906 376.94048129 -331 364 C-331.80050781 362.99324219 -332.60101563 361.98648437 -333.42578125 360.94921875 C-359.29177827 328.19944739 -375.92281301 289.98658958 -383.3125 249 C-383.47218262 248.11747559 -383.63186523 247.23495117 -383.79638672 246.32568359 C-394.71382618 181.14676048 -376.98611509 114.30380692 -339 61 C-332.29366054 51.77985935 -324.90292061 43.2143063 -317 35 C-316.40026367 34.37303223 -315.80052734 33.74606445 -315.18261719 33.10009766 C-306.34156055 23.90530977 -297.29861406 15.52538536 -287 8 C-286.34950684 7.5157959 -285.69901367 7.0315918 -285.02880859 6.53271484 C-274.50562368 -1.28128301 -263.64439905 -7.99176854 -252 -14 C-251.20674316 -14.41491699 -250.41348633 -14.82983398 -249.59619141 -15.25732422 C-172.20548891 -55.34758855 -71.8628837 -49.66751876 0 0 Z " fill="#061D3D" transform="translate(387,42)"/>
<path d="M0 0 C0.59232422 0.40138184 1.18464844 0.80276367 1.79492188 1.21630859 C10.68251548 7.25537583 18.94721496 13.89400895 27 21 C27.50241211 21.43924805 28.00482422 21.87849609 28.52246094 22.33105469 C75.25957918 63.35146621 105.80450001 124.17170481 110.125 186.25 C110.2084668 187.44093262 110.29193359 188.63186523 110.37792969 189.85888672 C114.01949996 244.44528189 100.78337394 302.40006799 68 347 C67.56220215 347.60328125 67.1244043 348.2065625 66.67333984 348.828125 C52.37590835 368.49132689 36.51266015 387.29003398 17 402 C16.46262207 402.41378906 15.92524414 402.82757813 15.37158203 403.25390625 C-38.35384351 444.56031356 -104.83841612 462.03066822 -171.9921875 453.62548828 C-216.65986681 447.58040373 -260.41905528 429.04251385 -295 400 C-295.61327148 399.48824219 -296.22654297 398.97648437 -296.85839844 398.44921875 C-309.40022229 387.93480854 -320.91534906 376.94048129 -331 364 C-331.80050781 362.99324219 -332.60101563 361.98648437 -333.42578125 360.94921875 C-359.29177827 328.19944739 -375.92281301 289.98658958 -383.3125 249 C-383.47218262 248.11747559 -383.63186523 247.23495117 -383.79638672 246.32568359 C-394.71382618 181.14676048 -376.98611509 114.30380692 -339 61 C-332.29366054 51.77985935 -324.90292061 43.2143063 -317 35 C-316.40026367 34.37303223 -315.80052734 33.74606445 -315.18261719 33.10009766 C-306.34156055 23.90530977 -297.29861406 15.52538536 -287 8 C-286.34950684 7.5157959 -285.69901367 7.0315918 -285.02880859 6.53271484 C-274.50562368 -1.28128301 -263.64439905 -7.99176854 -252 -14 C-251.20674316 -14.41491699 -250.41348633 -14.82983398 -249.59619141 -15.25732422 C-172.20548891 -55.34758855 -71.8628837 -49.66751876 0 0 Z M-168.95019531 -19.32080078 C-171.25194045 -18.96057054 -173.55818411 -18.6500286 -175.8671875 -18.33984375 C-183.96968186 -17.20869486 -191.57581224 -15.79642034 -199.28125 -12.94921875 C-201.99056991 -12.0032924 -204.63091923 -11.39983221 -207.4375 -10.8125 C-217.0590275 -8.49223649 -226.02457302 -4.08288506 -235 0 C-235.71736328 0.32097656 -236.43472656 0.64195313 -237.17382812 0.97265625 C-260.83230978 11.65713183 -281.43550469 28.09498942 -300 46 C-300.86882812 46.82757813 -301.73765625 47.65515625 -302.6328125 48.5078125 C-317.77175191 63.22476056 -333.9383839 83.68112592 -341.91796875 103.4296875 C-342.81659567 105.56433196 -343.77745123 107.61957763 -344.80078125 109.6953125 C-349.80665426 119.88592545 -353.77184594 130.11650918 -357 141 C-357.22816406 141.76570312 -357.45632813 142.53140625 -357.69140625 143.3203125 C-370.53071154 187.19405286 -367.48825722 231.11777172 -357 275 C-356.34 275 -355.68 275 -355 275 C-354.938125 276.0725 -354.87625 277.145 -354.8125 278.25 C-354.02039349 284.27417843 -351.48839472 289.5132306 -349 295 C-348.59942383 295.88848633 -348.19884766 296.77697266 -347.78613281 297.69238281 C-344.87800539 304.1377082 -341.9470008 310.57236391 -339 317 C-338.34 317 -337.68 317 -337 317 C-336.75378906 317.85335938 -336.50757813 318.70671875 -336.25390625 319.5859375 C-334.90073455 323.27027416 -333.08903914 326.37336715 -330.9375 329.625 C-330.54046875 330.23255127 -330.1434375 330.84010254 -329.734375 331.46606445 C-325.74656272 337.50046099 -321.49703797 343.33485955 -317 349 C-316.36191406 349.80727539 -315.72382813 350.61455078 -315.06640625 351.44628906 C-302.05096705 367.65840248 -287.07593205 382.13055311 -270 394 C-269.00613281 394.69706055 -269.00613281 394.69706055 -267.9921875 395.40820312 C-260.27037837 400.79075831 -252.42814515 405.78592743 -244 410 C-243.26007813 410.37125 -242.52015625 410.7425 -241.7578125 411.125 C-232.53207376 415.72349906 -223.27261196 420.13876562 -213.5625 423.625 C-212.88364746 423.8725 -212.20479492 424.12 -211.50537109 424.375 C-207.55210944 425.72892492 -204.17002401 426.2449164 -200 426 C-200 426.66 -200 427.32 -200 428 C-163.53916688 437.88003318 -122.71946812 438.8659748 -86 430 C-84.00028634 429.55989484 -82.00028931 429.12107511 -80 428.68359375 C-60.42030093 424.19090783 -42.44280941 415.8192039 -25 406 C-24.30148926 405.62407715 -23.60297852 405.2481543 -22.88330078 404.86083984 C-17.54743489 401.97005401 -12.55833275 398.78053284 -7.625 395.25 C-6.88677002 394.72414307 -6.14854004 394.19828613 -5.38793945 393.65649414 C5.06320746 386.14997528 14.64118042 377.80671655 24 369 C24.65871094 368.38382812 25.31742187 367.76765625 25.99609375 367.1328125 C31.14557444 362.16172029 35.55783575 356.60003985 40 351 C40.80695313 349.99839844 41.61390625 348.99679687 42.4453125 347.96484375 C49.00109394 339.72343711 54.52816406 330.98643825 60 322 C60.66 321.01 61.32 320.02 62 319 C62 318.01 62 317.02 62 316 C62.66 316 63.32 316 64 316 C67.03817288 309.29381568 70.0533453 302.5781605 73.01953125 295.83984375 C73.52073486 294.701521 74.02193848 293.56319824 74.53833008 292.39038086 C80.5772134 278.38303617 83.95729398 263.914285 87 249 C87.18369141 248.11940918 87.36738281 247.23881836 87.55664062 246.33154297 C92.82636485 219.88319601 92.04059694 189.40445735 87 163 C86.83661133 162.1136084 86.67322266 161.2272168 86.50488281 160.31396484 C85.76868548 156.44717597 85.05979824 153.13952923 83.5 149.5 C82.25219851 146.5884632 81.6722009 144.52976804 81.1640625 141.4765625 C80.04390083 135.66400336 78.0753344 130.35655928 75.875 124.875 C75.47466553 123.86945068 75.07433105 122.86390137 74.66186523 121.82788086 C64.24751832 96.06044579 49.20172842 71.58150852 29.66894531 51.69970703 C27.81497526 49.81156492 25.98278809 47.90329349 24.1484375 45.99609375 C16.26167878 37.87365409 8.27418826 30.53053077 -1 24 C-1.65033203 23.53722656 -2.30066406 23.07445312 -2.97070312 22.59765625 C-14.64165482 13.00112934 -14.64165482 13.00112934 -28 8 C-28 7.34 -28 6.68 -28 6 C-50.57636987 -4.35101849 -71.64800281 -12.69968798 -96.10791016 -17.43164062 C-98.59389241 -17.92019091 -101.06757438 -18.44558968 -103.54296875 -18.984375 C-124.21127259 -23.17335297 -148.16508709 -22.61778502 -168.95019531 -19.32080078 Z " fill="#FDC625" transform="translate(387,42)"/>
<path d="M0 0 C0.71213654 0.1263382 1.42427307 0.25267639 2.1579895 0.38284302 C14.86245991 2.68388478 27.51115106 5.66751447 39.6875 10 C40.38214355 10.24532471 41.07678711 10.49064941 41.79248047 10.7434082 C48.3385783 13.13783582 54.49747142 16.18564523 60.6640625 19.41796875 C64.12007873 21.22361887 67.64932979 22.75512021 71.25 24.25 C71.25 24.91 71.25 25.57 71.25 26.25 C72.10464844 26.4975 72.95929688 26.745 73.83984375 27 C77.49598569 28.34016658 80.5827204 30.12053048 83.8125 32.25 C84.41674805 32.64372803 85.02099609 33.03745605 85.64355469 33.44311523 C91.46946692 37.29546558 97.01768064 41.47712811 102.47265625 45.8371582 C103.8050382 46.89629205 105.14799812 47.94214181 106.49609375 48.98120117 C121.04775999 60.33041574 134.83229773 73.97284524 145.25 89.25 C145.78141602 90.01248047 146.31283203 90.77496094 146.86035156 91.56054688 C157.29466048 106.56525557 166.39712933 121.67098857 172.9140625 138.7734375 C174.13996997 141.96366455 175.48658849 145.06567775 176.875 148.1875 C179.47092914 154.31724236 180.96376486 160.60842897 182.453125 167.07421875 C182.92149271 170.09274311 182.92149271 170.09274311 184.25 171.25 C184.60672955 172.91823523 184.90909591 174.5981707 185.1875 176.28125 C185.44660156 177.83972656 185.44660156 177.83972656 185.7109375 179.4296875 C185.88882812 180.52539062 186.06671875 181.62109375 186.25 182.75 C186.42789062 183.81476563 186.60578125 184.87953125 186.7890625 185.9765625 C188.29401638 195.11859576 189.40097738 204.05360426 189.453125 213.32421875 C189.46009399 214.16245682 189.46706299 215.00069489 189.47424316 215.86433411 C189.49154222 218.55544106 189.49796306 221.24633976 189.5 223.9375 C189.50100708 224.85595703 189.50201416 225.77441406 189.50305176 226.72070312 C189.49287332 240.42926722 189.05582026 253.78500076 186.25 267.25 C186.0948291 268.00522949 185.9396582 268.76045898 185.77978516 269.53857422 C184.87362798 273.83289093 183.85051503 278.08540281 182.73974609 282.33105469 C182.27758553 284.14191314 181.8656497 285.96537621 181.45703125 287.7890625 C177.63319477 303.98202263 170.17021194 319.18825372 163.25 334.25 C162.59 334.25 161.93 334.25 161.25 334.25 C161.14171875 334.80429687 161.0334375 335.35859375 160.921875 335.9296875 C156.45906708 351.34194276 142.06916586 366.81076337 131.25 378.25 C130.07751186 379.59912936 128.91061821 380.9531458 127.75 382.3125 C112.18748538 400.08803276 91.1484825 416.76300068 69.8125 427.125 C69.13783691 427.45669189 68.46317383 427.78838379 67.76806641 428.13012695 C46.77624684 438.35191676 26.18116616 445.62936769 3.25 450.25 C2.59307159 450.38557312 1.93614319 450.52114624 1.25930786 450.66082764 C-11.30507741 453.20281364 -23.51702712 453.732756 -36.3125 453.625 C-37.27467438 453.62101196 -38.23684875 453.61702393 -39.22817993 453.61291504 C-60.24205443 453.5109345 -80.40478908 451.76307641 -100.75 446.25 C-100.75 445.59 -100.75 444.93 -100.75 444.25 C-101.905 444.20875 -103.06 444.1675 -104.25 444.125 C-118.37975277 442.49633691 -132.18859445 434.47820108 -144.75 428.25 C-145.73355469 427.77046875 -146.71710938 427.2909375 -147.73046875 426.796875 C-160.88044807 420.02820348 -173.55675725 410.88186649 -184.75 401.25 C-185.4821875 400.62738281 -186.214375 400.00476563 -186.96875 399.36328125 C-189.61611854 397.04683378 -192.19593534 394.66809173 -194.75 392.25 C-195.37326172 391.6607373 -195.99652344 391.07147461 -196.63867188 390.46435547 C-207.13101424 380.46089471 -216.32742017 370.04277792 -224.75 358.25 C-225.19875488 357.63044434 -225.64750977 357.01088867 -226.10986328 356.37255859 C-237.75 340.27393917 -237.75 340.27393917 -237.75 335.25 C-238.41 335.25 -239.07 335.25 -239.75 335.25 C-243.10731386 327.92743947 -246.43909429 320.59365811 -249.75 313.25 C-250.06291992 312.5600293 -250.37583984 311.87005859 -250.69824219 311.15917969 C-253.41666183 305.13050734 -255.36737527 299.88216193 -255.75 293.25 C-256.41 293.25 -257.07 293.25 -257.75 293.25 C-259.41389122 285.44400088 -261.04587034 277.63263091 -262.62261963 269.80859375 C-263.32840497 266.30781154 -264.06024006 262.81439124 -264.81640625 259.32421875 C-269.12078083 237.96865124 -268.0915864 213.68297774 -264.75 192.25 C-264.57316819 190.80382762 -264.40012515 189.35718796 -264.23046875 187.91015625 C-261.51235894 166.33443551 -254.40430153 145.65881285 -244.75 126.25 C-244.39881104 125.54149902 -244.04762207 124.83299805 -243.68579102 124.10302734 C-242.71292166 122.14907685 -241.73309701 120.19882009 -240.75 118.25 C-240.31558594 117.38375 -239.88117188 116.5175 -239.43359375 115.625 C-229.67997083 97.03502278 -216.24348866 80.33245536 -201.75 65.25 C-200.89277344 64.35152344 -200.03554687 63.45304687 -199.15234375 62.52734375 C-193.38202019 56.61070454 -187.28385746 51.30656411 -180.75 46.25 C-179.92870605 45.61408936 -179.92870605 45.61408936 -179.09082031 44.96533203 C-154.51678112 26.08292179 -126.95297013 11.56758421 -96.75 4.25 C-95.01984051 3.73247429 -93.29061291 3.21181909 -91.5625 2.6875 C-86.37246006 1.26567768 -81.12597898 0.43058083 -75.8125 -0.375 C-75.00208252 -0.49818604 -74.19166504 -0.62137207 -73.35668945 -0.74829102 C-49.04476877 -4.25885376 -24.18131977 -4.31177116 0 0 Z M-81.8125 18.125 C-83.06728149 18.38325562 -83.06728149 18.38325562 -84.34741211 18.64672852 C-94.99253593 20.88016304 -105.32188338 23.2508003 -115.15234375 28.04296875 C-117.75255071 29.25118522 -120.34171276 30.1634917 -123.0625 31.0625 C-128.88618515 33.11449748 -134.05076934 36.11162202 -139.3359375 39.24609375 C-142.31046129 40.99200989 -145.31282712 42.60346533 -148.375 44.1875 C-154.01219326 47.25636503 -159.0354933 50.94775754 -164.06640625 54.92236328 C-165.22814441 55.83847873 -166.3951648 56.74792155 -167.56640625 57.65185547 C-184.61881974 70.82195614 -199.3131701 85.63814149 -211.75 103.25 C-212.22050781 103.91306152 -212.69101563 104.57612305 -213.17578125 105.25927734 C-218.81400093 113.2738875 -223.55058217 121.38201956 -227.75 130.25 C-228.64945545 131.98762932 -229.54898904 133.72522064 -230.45166016 135.46118164 C-233.52623324 141.41765891 -235.98386497 147.31208792 -237.92578125 153.7265625 C-238.75 156.25 -238.75 156.25 -239.7734375 158.2890625 C-243.64783706 166.06885681 -244.59518996 176.05470216 -246.375 184.5 C-246.59325439 185.52963867 -246.81150879 186.55927734 -247.03637695 187.62011719 C-247.24351318 188.61688477 -247.45064941 189.61365234 -247.6640625 190.640625 C-247.8492041 191.52782227 -248.0343457 192.41501953 -248.22509766 193.32910156 C-249.39807713 199.85632313 -249.90801571 206.16522536 -249.91796875 212.78125 C-249.92129715 213.57543335 -249.92462555 214.3696167 -249.92805481 215.18786621 C-249.93308804 216.86189196 -249.93546426 218.53592763 -249.93530273 220.20996094 C-249.93747031 222.71567266 -249.95561235 225.22092948 -249.97460938 227.7265625 C-250.04454387 247.77671892 -246.64480389 266.76094275 -241.3125 286.0625 C-241.02415283 287.11236084 -240.73580566 288.16222168 -240.4387207 289.24389648 C-237.80310125 298.57441719 -234.38601521 307.35831344 -230 316 C-229.65638428 316.67973877 -229.31276855 317.35947754 -228.95874023 318.05981445 C-218.2636479 339.01401154 -204.95393656 357.19016591 -188.75 374.25 C-188.2338916 374.79479004 -187.7177832 375.33958008 -187.18603516 375.90087891 C-179.90488949 383.53222884 -172.42209927 390.18849392 -163.75 396.25 C-162.71101563 396.99894531 -161.67203125 397.74789063 -160.6015625 398.51953125 C-149.62857924 406.31752299 -138.10285175 412.71257509 -126 418.5625 C-125.13697266 418.98329834 -124.27394531 419.40409668 -123.38476562 419.83764648 C-118.35178197 422.22581453 -113.39870909 424.05816391 -108.03540039 425.55761719 C-105.75 426.25 -105.75 426.25 -102.35546875 427.77734375 C-97.37976036 429.80967535 -92.32232943 430.7710472 -87.0625 431.8125 C-85.54366211 432.12477539 -85.54366211 432.12477539 -83.99414062 432.44335938 C-81.92796866 432.86290671 -79.85924762 433.27006927 -77.78833008 433.66552734 C-75.88980559 434.03073969 -73.99525149 434.41809388 -72.1081543 434.83837891 C-62.49574569 436.78917585 -52.78005857 436.55124336 -43.01538086 436.51074219 C-39.95471209 436.50006007 -36.89463489 436.51066329 -33.83398438 436.5234375 C-17.80349178 436.53758707 -3.07807467 434.89068147 12.5 430.875 C14.2634375 430.43800781 14.2634375 430.43800781 16.0625 429.9921875 C66.61894589 417.18455454 114.02055852 382.67793978 140.9375 337.875 C142.41361405 335.35395436 143.84123167 332.80922155 145.25 330.25 C145.66378906 329.49928223 146.07757813 328.74856445 146.50390625 327.97509766 C149.52413754 322.45190604 152.42675962 316.87624247 155.25 311.25 C156.10078125 309.56390625 156.10078125 309.56390625 156.96875 307.84375 C176.02667514 266.88948533 177.68413469 216.4694944 166.74414062 173.23193359 C166.27377368 171.34535313 165.84662952 169.44815167 165.421875 167.55078125 C158.0245818 136.44852576 140.21302616 107.95968772 119.25 84.25 C118.4559375 83.33347656 117.661875 82.41695313 116.84375 81.47265625 C112.2857357 76.28245161 107.54155829 71.67632931 102.25 67.25 C100.83267578 66.00089844 100.83267578 66.00089844 99.38671875 64.7265625 C77.37858566 45.42310952 50.75460405 30.43908377 22.45947266 22.8515625 C20.21802784 22.24129509 17.99043971 21.59258115 15.76171875 20.9375 C-2.38494376 15.71387012 -20.36893557 13.9842154 -39.1875 13.9375 C-40.24627853 13.93198624 -40.24627853 13.93198624 -41.32644653 13.92636108 C-55.03066024 13.88904274 -68.38512798 15.32638716 -81.8125 18.125 Z " fill="#8B1F2E" transform="translate(287.75,23.75)"/>
<path d="M0 0 C-0.88300781 0.4125 -1.76601562 0.825 -2.67578125 1.25 C-10.76677915 5.11138088 -17.91063253 9.45901232 -25 15 C-25.73347656 15.55300781 -26.46695313 16.10601562 -27.22265625 16.67578125 C-38.27207514 25.07815242 -48.52733867 34.2062409 -58.27734375 44.0715332 C-59.89000884 45.70268086 -61.51076062 47.325457 -63.1328125 48.94726562 C-71.04168079 56.88190453 -78.39636348 65.11195262 -85.375 73.875 C-85.90738281 74.53757812 -86.43976563 75.20015625 -86.98828125 75.8828125 C-87.49488281 76.51703125 -88.00148438 77.15125 -88.5234375 77.8046875 C-88.97638184 78.37171387 -89.42932617 78.93874023 -89.89599609 79.52294922 C-91.08567001 81.02361502 -91.08567001 81.02361502 -92 83 C-91.34257813 83.20753906 -90.68515625 83.41507812 -90.0078125 83.62890625 C-85.85958387 85.51985203 -82.48235206 88.17449173 -78.875 90.9375 C-78.15957031 91.47568359 -77.44414062 92.01386719 -76.70703125 92.56835938 C-73.61858112 94.90923139 -70.69370315 97.20459898 -68 100 C-68.99 101.98 -68.99 101.98 -70 104 C-69.41210693 104.3717334 -68.82421387 104.7434668 -68.21850586 105.12646484 C-48.50439717 117.60277546 -48.50439717 117.60277546 -40.5 123 C-34.7748115 126.85881014 -28.96478738 130.56727042 -23.125 134.25 C-11.86673296 141.35761911 -0.80661482 148.75337613 10.23974609 156.18457031 C13.52149213 158.39034854 16.81479605 160.57779387 20.11700439 162.75280762 C21.37413889 163.58546414 22.62688705 164.42478061 23.87518311 165.27062988 C25.63381706 166.46083245 27.40617988 167.62716145 29.18359375 168.7890625 C30.1883374 169.4588916 31.19308105 170.1287207 32.22827148 170.81884766 C34.92673652 172.29800536 34.92673652 172.29800536 37.61938477 171.34619141 C38.40498779 170.90194824 39.19059082 170.45770508 40 170 C40.65291016 169.63487305 41.30582031 169.26974609 41.97851562 168.89355469 C42.61466797 168.49040039 43.25082031 168.08724609 43.90625 167.671875 C44.63900146 167.20918213 45.37175293 166.74648926 46.12670898 166.26977539 C46.90989502 165.76824951 47.69308105 165.26672363 48.5 164.75 C49.74535522 163.95807251 49.74535522 163.95807251 51.01586914 163.15014648 C58.10361064 158.62122337 65.10430229 153.9653798 72.09204102 149.28417969 C83.12833009 141.89218741 94.24830856 134.62861545 105.4765625 127.53125 C107.33854928 126.35417871 109.20052844 125.17709537 111.0625 124 C111.97088623 123.42620605 112.87927246 122.85241211 113.81518555 122.26123047 C121.06482175 117.6558837 128.16315401 112.85164059 135.18774414 107.91015625 C135.92500732 107.39582031 136.66227051 106.88148438 137.421875 106.3515625 C138.06737305 105.89604004 138.71287109 105.44051758 139.37792969 104.97119141 C141 104 141 104 143 104 C141.515 101.525 141.515 101.525 140 99 C143.0558043 96.69929619 146.12074738 94.41108401 149.1875 92.125 C150.05181641 91.47402344 150.91613281 90.82304687 151.80664062 90.15234375 C152.64775391 89.52714844 153.48886719 88.90195313 154.35546875 88.2578125 C155.12528076 87.6817627 155.89509277 87.10571289 156.68823242 86.51220703 C159.05337175 84.96508769 161.34715107 83.9560925 164 83 C158.37181743 75.25625944 152.49468946 68.04286509 146 61 C144.76545175 59.60892416 143.53591494 58.21337732 142.3125 56.8125 C141.75046875 56.17054687 141.1884375 55.52859375 140.609375 54.8671875 C139.56445561 53.65487812 138.53231416 52.43139248 137.515625 51.1953125 C134.34914183 47.36488931 130.969644 44.14433048 127.1796875 40.93359375 C124.78661406 38.81070602 122.59460677 36.55329686 120.375 34.25 C114.38167103 28.20168636 107.79907758 23.09701553 101 18 C100.4220166 17.56123535 99.8440332 17.1224707 99.24853516 16.67041016 C90.61665679 10.14470036 81.66894651 4.8480152 72 0 C75.10954622 -0.991608 77.08696025 -0.97336742 80.23046875 -0.14453125 C81.02936523 0.06381348 81.82826172 0.2721582 82.65136719 0.48681641 C83.48829102 0.71804199 84.32521484 0.94926758 85.1875 1.1875 C86.47188965 1.53433838 86.47188965 1.53433838 87.78222656 1.88818359 C93.46162091 3.4636246 98.72721182 5.36360591 104 8 C105.62615234 8.68642578 105.62615234 8.68642578 107.28515625 9.38671875 C138.11086505 22.49847609 165.634165 46.51901959 187 72 C188.65 71.34 190.3 70.68 192 70 C194.1545763 73.41122634 196.29710968 76.82985798 198.4375 80.25 C199.04916016 81.21808594 199.66082031 82.18617188 200.29101562 83.18359375 C201.1659668 84.58544922 201.1659668 84.58544922 202.05859375 86.015625 C202.59798584 86.87446289 203.13737793 87.73330078 203.69311523 88.61816406 C204.88586468 90.79198502 205.54649364 92.5780309 206 95 C204.515 95.495 204.515 95.495 203 96 C204.16663293 99.83880893 205.61114097 103.49288397 207.20703125 107.16796875 C212.61482178 119.62551579 217.00018706 131.76120892 220 145 C220.28230469 146.155 220.56460937 147.31 220.85546875 148.5 C221.61793068 151.65821795 222.31310234 154.82452083 223 158 C223.38369751 159.7015625 223.38369751 159.7015625 223.77514648 161.4375 C225.83461604 171.29522901 226.4984521 180.76473742 226.44604492 190.82592773 C226.43754015 193.30081769 226.46643039 195.77338273 226.49804688 198.24804688 C226.54613682 209.93043816 224.81012906 220.67568268 222 232 C221.67 232 221.34 232 221 232 C220.92483154 231.32122803 220.84966309 230.64245605 220.7722168 229.94311523 C217.42104245 200.01558315 211.09617203 171.5105638 198.01171875 144.16796875 C197.05442487 142.11662472 196.2580241 140.06918102 195.5 137.9375 C193.44916143 132.27162395 190.55008354 127.0001617 187.7890625 121.65625 C185 116.19680851 185 116.19680851 185 114 C184.51644043 114.28721924 184.03288086 114.57443848 183.53466797 114.87036133 C181.31603169 116.18653296 179.0955355 117.49953534 176.875 118.8125 C176.11445313 119.26431641 175.35390625 119.71613281 174.5703125 120.18164062 C162.93884653 127.05022182 162.93884653 127.05022182 158 128 C157.67 127.34 157.34 126.68 157 126 C153.37829497 126.55682137 150.90836606 127.44146639 147.875 129.484375 C146.70795532 130.25890015 146.70795532 130.25890015 145.51733398 131.04907227 C144.68661377 131.61037842 143.85589355 132.17168457 143 132.75 C141.20054405 133.94340699 139.39971895 135.13475164 137.59765625 136.32421875 C136.67227051 136.93571777 135.74688477 137.5472168 134.79345703 138.17724609 C130.38962365 141.05078394 125.91762286 143.80996529 121.4375 146.5625 C114.6625551 150.732324 107.90848332 154.9311739 101.1875 159.1875 C95.46890366 162.80886623 89.74348249 166.41822073 84 170 C74.20421013 176.11132632 64.44846708 182.28599978 54.69238281 188.46044922 C52.3993988 189.91162406 50.10607279 191.36225591 47.8125 192.8125 C47.04333252 193.29887939 46.27416504 193.78525879 45.48168945 194.28637695 C37.9349296 199.05230563 30.35735178 203.76855027 22.78271484 208.48999023 C16.79666272 212.22898677 10.84789886 216.01767259 4.9375 219.875 C-0.04600997 223.12641846 -5.06744975 226.28063528 -10.1875 229.3125 C-20.28084849 235.29218426 -30.12041846 241.67599595 -40 248 C-51.10865245 255.10709736 -62.22866809 262.17791668 -73.50463867 269.01708984 C-80.17911185 273.07876655 -86.74950611 277.29118461 -93.28125 281.578125 C-95.42856105 282.98743236 -97.57882959 284.34794812 -99.78125 285.671875 C-105.1316314 288.93340887 -108.61211978 292.8161597 -112.37109375 297.828125 C-114 300 -114 300 -116 302 C-119.27683781 302.15241106 -121.25309189 301.63339124 -123.7734375 299.49609375 C-129.04636205 293.79719057 -133.8604465 287.12317158 -134.12890625 279.19140625 C-134.08636719 278.13824219 -134.04382813 277.08507812 -134 276 C-132.20369141 275.63261719 -132.20369141 275.63261719 -130.37109375 275.2578125 C-119.3260438 272.80513316 -111.33689922 269.29486927 -102.28759766 262.63574219 C-97.51051935 259.21990177 -92.54854005 256.0740752 -87.625 252.875 C-86.49130963 252.13438029 -85.3578477 251.39341081 -84.22460938 250.65209961 C-76.82965936 245.8182776 -69.39252492 241.05313123 -61.9375 236.3125 C-50.46332305 229.01268504 -39.15125268 221.47988051 -27.86889648 213.88793945 C-20.48722353 208.93025296 -13.05076215 204.089848 -5.48216248 199.42129517 C-0.30460778 196.22338256 4.7313129 192.85280065 9.7421875 189.3984375 C12 188 12 188 14 188 C11.34544175 185.20008477 8.73028722 183.01728526 5.46484375 180.96875 C4.5823999 180.4113916 3.69995605 179.8540332 2.79077148 179.27978516 C1.84919189 178.69245605 0.9076123 178.10512695 -0.0625 177.5 C-1.03823975 176.88560059 -2.01397949 176.27120117 -3.01928711 175.63818359 C-5.03238158 174.37096371 -7.04679467 173.10583622 -9.0625 171.84277344 C-11.78596738 170.13426847 -14.5037577 168.41724415 -17.21875 166.6953125 C-23.95502442 162.42375748 -30.69902363 158.1680637 -37.5 154 C-53.46590558 144.21509443 -69.20838564 134.06246963 -85 124 C-85.495 125.485 -85.495 125.485 -86 127 C-90.32614203 126.46682924 -93.42613259 125.47850249 -97.1796875 123.27734375 C-98.1078125 122.73916016 -99.0359375 122.20097656 -99.9921875 121.64648438 C-100.94351563 121.08251953 -101.89484375 120.51855469 -102.875 119.9375 C-103.84953125 119.36966797 -104.8240625 118.80183594 -105.828125 118.21679688 C-108.2237038 116.81937591 -110.61396262 115.41363019 -113 114 C-113.2897168 114.74080811 -113.57943359 115.48161621 -113.87792969 116.24487305 C-114.82789078 118.5774037 -115.84275858 120.82343263 -116.953125 123.08203125 C-121.31244592 132.05100091 -125.29203481 140.99713926 -128.671875 150.37890625 C-129.85256265 153.5980164 -131.13679501 156.73013785 -132.5 159.875 C-134.62737095 164.9077125 -136.44626689 170.01157839 -138.1875 175.1875 C-138.56261719 176.29230713 -138.56261719 176.29230713 -138.9453125 177.41943359 C-140.64354404 182.55658399 -141.90682021 187.70393736 -143 193 C-143.16395264 193.76207764 -143.32790527 194.52415527 -143.49682617 195.30932617 C-145.96639206 206.82797578 -147.84583765 218.27614037 -149 230 C-150.81402445 227.27896332 -151.40757315 225.94600152 -152.0625 222.875 C-152.21847656 222.17117188 -152.37445313 221.46734375 -152.53515625 220.7421875 C-153.98062522 212.21513527 -154.15278647 203.88233122 -154.125 195.25 C-154.12886719 194.0640625 -154.13273437 192.878125 -154.13671875 191.65625 C-154.11539501 172.12370263 -150.98661763 153.80739543 -146 135 C-145.34 135 -144.68 135 -144 135 C-143.95875 133.824375 -143.9175 132.64875 -143.875 131.4375 C-142.67824325 120.70040068 -136.7222914 110.14416131 -132.1015625 100.51171875 C-130.86611982 98.15184381 -130.86611982 98.15184381 -131 96 C-132.485 95.01 -132.485 95.01 -134 94 C-132.70208638 90.51825247 -131.18014318 87.48384093 -129.1796875 84.35546875 C-128.64472656 83.51435547 -128.10976562 82.67324219 -127.55859375 81.80664062 C-127.00300781 80.94232422 -126.44742188 80.07800781 -125.875 79.1875 C-125.31167969 78.30384766 -124.74835938 77.42019531 -124.16796875 76.50976562 C-122.78236826 74.33742587 -121.39295366 72.16762917 -120 70 C-117.03 70.99 -117.03 70.99 -114 72 C-113.28457031 71.14019531 -112.56914063 70.28039062 -111.83203125 69.39453125 C-101.50882644 57.10099493 -90.68660436 45.88520227 -78 36 C-77.05253906 35.22398438 -76.10507813 34.44796875 -75.12890625 33.6484375 C-57.92191266 19.83900315 -37.45324805 7.59884014 -16 2 C-14.90042969 1.690625 -13.80085937 1.38125 -12.66796875 1.0625 C-3.84071725 -1.32843632 -3.84071725 -1.32843632 0 0 Z " fill="#FAC422" transform="translate(214,64)"/>
<path d="M0 0 C1.57114634 3.6642354 3.13760116 7.33043621 4.69970703 10.99853516 C5.23194385 12.24648273 5.76546678 13.4938826 6.30029297 14.74072266 C7.06814869 16.53143628 7.83102285 18.32428343 8.59375 20.1171875 C9.05458984 21.19597168 9.51542969 22.27475586 9.99023438 23.38623047 C11 26 11 26 11 28 C11.66 28 12.32 28 13 28 C13.2475 27.46375 13.495 26.9275 13.75 26.375 C15.29696975 23.43575748 17.13014369 20.74245592 19 18 C22.56327445 18.56056391 23.94001186 19.67501483 26.171875 22.46484375 C26.7498584 23.17761475 27.3278418 23.89038574 27.92333984 24.62475586 C28.5261377 25.38796143 29.12893555 26.15116699 29.75 26.9375 C30.37471191 27.71295166 30.99942383 28.48840332 31.64306641 29.28735352 C33.43743947 31.51808866 35.21968379 33.75804243 37 36 C37.79664063 36.99 38.59328125 37.98 39.4140625 39 C41.87908559 42.06409245 44.32219545 45.14524647 46.765625 48.2265625 C51.12092309 53.69813448 55.54866757 59.10654318 60 64.5 C65.05458114 70.62438311 70.06258981 76.7805584 75 83 C76.49936722 84.87550605 77.99936244 86.75051023 79.5 88.625 C80.66666667 90.08333333 81.83333333 91.54166667 83 93 C79.63481566 94.1291525 77.5373633 93.85217969 74.1484375 92.890625 C73.21386719 92.63023437 72.27929688 92.36984375 71.31640625 92.1015625 C70.34574219 91.82054687 69.37507812 91.53953125 68.375 91.25 C67.42753906 90.98445313 66.48007812 90.71890625 65.50390625 90.4453125 C60.04313557 88.90643595 54.60928513 87.2894701 49.19042969 85.60913086 C46.13813516 84.76032626 43.14656767 84.34201823 40 84 C39.75765625 84.54398437 39.5153125 85.08796875 39.265625 85.6484375 C37.696692 88.56355375 35.78766748 91.01381684 33.75 93.625 C33.31671387 94.18203613 32.88342773 94.73907227 32.43701172 95.31298828 C31.47925219 96.54372433 30.52003115 97.77332401 29.55957031 99.00195312 C27.91694901 101.10640095 26.28205048 103.21667789 24.6484375 105.328125 C18.41173312 113.38096466 12.13174283 121.39455829 5.73095703 129.31787109 C3.7092824 131.82649276 1.7887027 134.31694595 0 137 C-3.49141151 135.83619616 -4.1069986 134.88522339 -6.2578125 131.9921875 C-6.87172852 131.17717773 -7.48564453 130.36216797 -8.11816406 129.52246094 C-8.73916992 128.69004883 -9.36017578 127.85763672 -10 127 C-11.13997446 125.52092327 -12.28311897 124.04428344 -13.4296875 122.5703125 C-13.99284668 121.84328125 -14.55600586 121.11625 -15.13623047 120.3671875 C-20.33313931 113.66564148 -25.56541688 107.00861657 -30.96484375 100.46875 C-33.14193733 97.82782267 -35.29427986 95.16848161 -37.4375 92.5 C-38.07558594 91.7059375 -38.71367187 90.911875 -39.37109375 90.09375 C-40.65121252 88.44832155 -41.84359458 86.73460813 -43 85 C-50.94841137 85.63327486 -58.03779134 87.63186665 -65.62304688 90.00390625 C-66.51701172 90.27332031 -67.41097656 90.54273438 -68.33203125 90.8203125 C-69.13358643 91.07055176 -69.9351416 91.32079102 -70.76098633 91.57861328 C-73.19884693 92.03742338 -74.66999305 91.782552 -77 91 C-76.29875 90.17757812 -75.5975 89.35515625 -74.875 88.5078125 C-70.51993259 83.3878324 -66.17402555 78.26970725 -62 73 C-58.90926605 69.09858174 -55.72624925 65.28905662 -52.5 61.5 C-48.56937727 56.88182044 -44.72617202 52.20875862 -40.95703125 47.45703125 C-37.35295939 42.9321586 -33.66961105 38.47174634 -30 34 C-25.90743116 29.00721731 -21.8179806 24.01211345 -17.75390625 18.99609375 C-17.18510742 18.29444092 -16.61630859 17.59278809 -16.03027344 16.86987305 C-14.91678189 15.49573332 -13.80410074 14.12093636 -12.69238281 12.74536133 C-11.13544868 10.82422785 -9.56958872 8.91080366 -8 7 C-7.45263184 6.32646484 -6.90526367 5.65292969 -6.34130859 4.95898438 C-5.80973145 4.31767578 -5.2781543 3.67636719 -4.73046875 3.015625 C-4.25375732 2.43586914 -3.7770459 1.85611328 -3.28588867 1.25878906 C-2 0 -2 0 0 0 Z " fill="#FBC523" transform="translate(250,67)"/>
<path d="M0 0 C0.33 0 0.66 0 1 0 C1 44.88 1 89.76 1 136 C0.34 136 -0.32 136 -1 136 C-2.48486328 134.34326172 -2.48486328 134.34326172 -4.1953125 132.0546875 C-4.81825195 131.2306543 -5.44119141 130.40662109 -6.08300781 129.55761719 C-7.03191895 128.29159668 -7.03191895 128.29159668 -8 127 C-9.1403432 125.52120755 -10.28348512 124.04456819 -11.4296875 122.5703125 C-11.99284668 121.84328125 -12.55600586 121.11625 -13.13623047 120.3671875 C-18.33313931 113.66564148 -23.56541688 107.00861657 -28.96484375 100.46875 C-31.14193733 97.82782267 -33.29427986 95.16848161 -35.4375 92.5 C-36.07558594 91.7059375 -36.71367187 90.911875 -37.37109375 90.09375 C-38.65121252 88.44832155 -39.84359458 86.73460813 -41 85 C-48.94841137 85.63327486 -56.03779134 87.63186665 -63.62304688 90.00390625 C-64.51701172 90.27332031 -65.41097656 90.54273438 -66.33203125 90.8203125 C-67.13358643 91.07055176 -67.9351416 91.32079102 -68.76098633 91.57861328 C-71.19884693 92.03742338 -72.66999305 91.782552 -75 91 C-74.29875 90.17757812 -73.5975 89.35515625 -72.875 88.5078125 C-68.51993259 83.3878324 -64.17402555 78.26970725 -60 73 C-56.90926605 69.09858174 -53.72624925 65.28905662 -50.5 61.5 C-46.56937727 56.88182044 -42.72617202 52.20875862 -38.95703125 47.45703125 C-35.35295939 42.9321586 -31.66961105 38.47174634 -28 34 C-23.90743116 29.00721731 -19.8179806 24.01211345 -15.75390625 18.99609375 C-15.18510742 18.29444092 -14.61630859 17.59278809 -14.03027344 16.86987305 C-12.91678189 15.49573332 -11.80410074 14.12093636 -10.69238281 12.74536133 C-8.04514387 9.47887802 -5.37788852 6.23037334 -2.66796875 3.015625 C-1.93549927 2.14599121 -1.93549927 2.14599121 -1.18823242 1.25878906 C-0.79611572 0.84338867 -0.40399902 0.42798828 0 0 Z " fill="#FCFCFC" transform="translate(248,67)"/>
<path d="M0 0 C3.66066439 0.44188452 6.10013675 1.45732706 9.109375 3.546875 C9.86476563 4.0625 10.62015625 4.578125 11.3984375 5.109375 C12.17445313 5.65078125 12.95046875 6.1921875 13.75 6.75 C18.22694804 9.84592339 22.65422067 12.87429426 27.453125 15.453125 C31.64321687 17.72148982 35.45607252 20.36415745 39.33056641 23.13037109 C44.17481206 26.52320384 49.19285253 29.64729405 54.1875 32.8125 C61.78079326 37.64525174 69.33883953 42.51366008 76.80029297 47.54736328 C81.91157549 50.97961932 87.13421486 54.22045733 92.36889648 57.46020508 C96.02707638 59.73459762 99.61162035 62.06690791 103.125 64.5625 C103.90230469 65.10777344 104.67960937 65.65304687 105.48046875 66.21484375 C107.35187209 67.54078379 109.20608684 68.89105263 111.05078125 70.25390625 C120.40693669 76.91254418 129.83404871 79.63110415 141 82 C140.22693553 91.84359889 136.82604713 98.00043043 130.72265625 105.6875 C128.13088908 107.66217975 126.23960931 107.97545751 123 108 C120.62109375 106.0859375 120.62109375 106.0859375 118.4375 103.375 C113.05024808 96.82579178 108.03392943 92.14564418 100.75 87.875 C99.12777284 86.90423527 97.50670526 85.93153053 95.88671875 84.95703125 C95.06864746 84.46541504 94.25057617 83.97379883 93.40771484 83.46728516 C89.74640283 81.23604553 86.15229062 78.90652434 82.5625 76.5625 C70.50946801 68.7123823 58.36293429 61.01944353 46.0625 53.5625 C38.76420562 49.13686175 31.60630534 44.51861332 24.46777344 39.84057617 C18.25743368 35.78362778 11.96469905 31.88617978 5.61767578 28.04760742 C-2.36646495 23.20410957 -10.18678398 18.11320593 -18 13 C-16.85783619 9.57350858 -16.45803971 9.40118921 -13.4375 7.7734375 C-12.72335937 7.3815625 -12.00921875 6.9896875 -11.2734375 6.5859375 C-10.52320313 6.18632812 -9.77296875 5.78671875 -9 5.375 C-7.52017613 4.57152175 -6.04097581 3.76689363 -4.5625 2.9609375 C-3.90378906 2.60821777 -3.24507813 2.25549805 -2.56640625 1.89208984 C-1.00762566 1.09579597 -1.00762566 1.09579597 0 0 Z " fill="#FAC422" transform="translate(279,258)"/>
<path d="M0 0 C18.81 0 37.62 0 57 0 C57 14.54110353 52.11912273 27.2484321 42 38 C37.28247293 38 35.19811282 36.3891122 31.5 33.8125 C21.58385348 27.19397047 11.61936848 23.62819049 0 21 C0 14.07 0 7.14 0 0 Z " fill="#F7C122" transform="translate(256,376)"/>
<path d="M0 0 C19.14 0 38.28 0 58 0 C58 6.93 58 13.86 58 21 C55.2775 21.70125 52.555 22.4025 49.75 23.125 C38.75840207 26.11000523 29.47914975 30.1998519 20.83984375 37.77734375 C20.23269531 38.18082031 19.62554687 38.58429688 19 39 C13.59199059 37.1973302 10.9595921 31.66450926 8 27 C6.38916954 23.74364427 5.17916862 20.43222294 4 17 C3.62875 16.05640625 3.2575 15.1128125 2.875 14.140625 C2.50375 13.18671875 2.1325 12.2328125 1.75 11.25 C1.41484375 10.38890625 1.0796875 9.5278125 0.734375 8.640625 C0 6 0 6 0 0 Z " fill="#F6C122" transform="translate(186,376)"/>
<path d="M0 0 C0.66 0 1.32 0 2 0 C8.16393088 6.93896345 12.64279168 14.3530727 16 23 C16.433125 24.051875 16.86625 25.10375 17.3125 26.1875 C18 29 18 29 18 37 C-0.81 37 -19.62 37 -39 37 C-39 30.73 -39 24.46 -39 18 C-36.73125 17.4225 -34.4625 16.845 -32.125 16.25 C-20.27328061 13.10418113 -8.89169728 8.89169728 0 0 Z " fill="#F8F9FA" transform="translate(295,327)"/>
<path d="M0 0 C3.15568555 1.46256659 5.8249781 3.25580639 8.625 5.3125 C19.0685673 12.61844984 28.6288497 15.34903922 41 18 C41 24.27 41 30.54 41 37 C22.19 37 3.38 37 -16 37 C-14.53115377 22.31153775 -9.86699464 11.02781754 0 0 Z " fill="#F8F9FA" transform="translate(203,327)"/>
<path d="M0 0 C0 7.92 0 15.84 0 24 C-12.12526324 22.69620825 -20.98831672 19.28100626 -30 11 C-22.4168476 2.71143808 -10.89201611 0 0 0 Z " fill="#F0F2F4" transform="translate(244,308)"/>
<path d="M0 0 C7.09681361 0.78853485 11.26111368 1.59306768 17.25 4.75 C17.930625 5.08515625 18.61125 5.4203125 19.3125 5.765625 C23.64350516 7.98148811 26.74106313 10.38738006 30 14 C26.66235657 16.77446787 23.17276288 18.37426838 19.1875 20.0625 C18.00542969 20.56910156 16.82335937 21.07570313 15.60546875 21.59765625 C10.17688512 23.70909885 5.86018078 25 0 25 C0 16.75 0 8.5 0 0 Z " fill="#F4C023" transform="translate(256,410)"/>
<path d="M0 0 C0 8.25 0 16.5 0 25 C-3.95720483 25 -5.67283093 24.9838551 -9.125 23.75 C-9.89457031 23.47671875 -10.66414063 23.2034375 -11.45703125 22.921875 C-12.71580078 22.46554687 -12.71580078 22.46554687 -14 22 C-14.95261719 21.67515625 -15.90523437 21.3503125 -16.88671875 21.015625 C-17.85222656 20.68046875 -18.81773437 20.3453125 -19.8125 20 C-20.70582031 19.690625 -21.59914062 19.38125 -22.51953125 19.0625 C-25.06919314 17.97036136 -26.97053711 16.89227309 -29 15 C-29 14.01 -29 13.02 -29 12 C-21.20537901 5.40815619 -10.24828813 0 0 0 Z " fill="#F1BE23" transform="translate(244,410)"/>
<path d="M0 0 C12.65706571 0.71107111 12.65706571 0.71107111 19 4 C20.8120843 4.89667391 22.62460658 5.79246311 24.4375 6.6875 C25.95933433 7.4563552 27.4805201 8.22650218 29 9 C29 9.99 29 10.98 29 12 C21.65075663 18.39934117 9.89647458 24 0 24 C0 16.08 0 8.16 0 0 Z " fill="#F7F7F8" transform="translate(256,308)"/>
<path d="M0 0 C0.66 0 1.32 0 2 0 C2 9.9 2 19.8 2 30 C1.34 30 0.68 30 0 30 C-0.33773438 29.10796875 -0.67546875 28.2159375 -1.0234375 27.296875 C-1.69246094 25.54117188 -1.69246094 25.54117188 -2.375 23.75 C-3.03628906 22.00976562 -3.03628906 22.00976562 -3.7109375 20.234375 C-4.89427443 17.12037765 -4.89427443 17.12037765 -6.1640625 14.71875 C-7 13 -7 13 -7 10.75 C-5.50351742 6.6346729 -2.98780576 3.19386133 0 0 Z " fill="#FAF4E0" transform="translate(269,85)"/>
<path d="M0 0 C4.02992782 0.55312735 8.02022924 1.1558062 12 2 C12.33 3.65 12.66 5.3 13 7 C8.50202887 5.31326082 4.27113698 3.18326108 0 1 C0 0.67 0 0.34 0 0 Z " fill="#C7A228" transform="translate(286,63)"/>
</svg>
