<?xml version="1.0" encoding="UTF-8"?>
<svg version="1.1" xmlns="http://www.w3.org/2000/svg" width="333" height="353">
<path d="M0 0 C0.99 0.33 1.98 0.66 3 1 C3.84375 2.77148438 3.84375 2.77148438 4.5 5.09375 C4.7460498 5.95178223 4.99209961 6.80981445 5.24560547 7.69384766 C5.49455566 8.61987793 5.74350586 9.5459082 6 10.5 C6.26055176 11.44020996 6.52110352 12.38041992 6.78955078 13.34912109 C12 32.65613274 12 32.65613274 12 42 C12.93070312 41.84015625 13.86140625 41.6803125 14.8203125 41.515625 C33.54990197 38.86547737 57.23650737 39.72608157 73.37109375 50.59765625 C79.01032017 55.140079 81.74278762 60.22836285 84 67 C85.05451185 78.05209534 82.03617948 87.4515195 75 96 C70.02265154 101.21886536 64.4155092 104.77739469 58 108 C58.80824219 108.29132813 59.61648437 108.58265625 60.44921875 108.8828125 C71.37077314 113.0722628 71.37077314 113.0722628 75 119 C76.8655013 123.57703309 77.18683332 127.22810025 76.9765625 132.1484375 C76.95153656 132.80582916 76.92651062 133.46322083 76.90072632 134.14053345 C76.81922001 136.21926917 76.72237079 138.29695318 76.625 140.375 C76.56668908 141.7929272 76.50938745 143.21089629 76.453125 144.62890625 C76.31374797 148.08649886 76.16061336 151.54332125 76 155 C76.55123535 154.98952637 77.1024707 154.97905273 77.67041016 154.96826172 C137.93322373 153.9868636 137.93322373 153.9868636 158 171 C159.92161546 173.48208664 159.99260208 174.66709369 160.0625 177.8125 C157.88863982 184.33408054 152.74060449 187.84858509 146.875 191.0625 C124.66642506 201.40810944 99.14031561 204.10664191 75 206 C75.00523682 206.96897217 75.01047363 207.93794434 75.01586914 208.9362793 C75.09854209 225.78167831 75.14224918 242.60320104 74.42382812 259.43676758 C74.06553927 268.44000217 73.90284589 277.43966458 73.78125 286.44921875 C73.76287582 287.74725937 73.74450165 289.04529999 73.72557068 290.38267517 C73.65082126 295.7026176 73.57655508 301.02243544 73.52127075 306.34262085 C73.48200209 310.11137829 73.43131927 313.87984324 73.37890625 317.6484375 C73.37052734 318.78895065 73.36214844 319.92946381 73.35351562 321.10453796 C73.26494495 326.77725952 72.91685125 331.64393702 71 337 C70.34 337 69.68 337 69 337 C68.29459052 326.5545777 67.77657799 316.12218897 67.46484375 305.65625 C67.42165066 304.26663545 67.37823471 302.87702782 67.33460999 301.48742676 C67.22227521 297.89066979 67.11289611 294.29382931 67.00421143 290.69696045 C66.89202317 287.00234354 66.77693069 283.3078171 66.66210938 279.61328125 C66.43862281 272.40893791 66.21827016 265.20450347 66 258 C65.94465088 259.3003418 65.88930176 260.60068359 65.83227539 261.94042969 C65.62409989 266.8160247 65.41272562 271.69147691 65.20043945 276.56689453 C65.10941244 278.66744347 65.0192254 280.76802901 64.92993164 282.86865234 C63.64480274 313.06559178 63.64480274 313.06559178 62 318 C61.01 318 60.02 318 59 318 C58.97716446 317.40166855 58.95432892 316.8033371 58.93080139 316.18687439 C58.69170652 309.94089574 58.44752755 303.69513033 58.20043945 297.44946289 C58.10897404 295.1207374 58.01879066 292.79196117 57.92993164 290.46313477 C57.80174043 287.10939494 57.66888977 283.75586659 57.53515625 280.40234375 C57.49656998 279.36665756 57.4579837 278.33097137 57.41822815 277.26390076 C57.20802123 272.10687903 56.85229311 267.09190501 56 262 C55.92483154 263.46808105 55.92483154 263.46808105 55.84814453 264.96582031 C55.65950038 268.60419187 55.45918304 272.24184371 55.25537109 275.87939453 C55.16886031 277.45246519 55.08549688 279.02571228 55.00537109 280.59912109 C54.88950605 282.86349605 54.76225713 285.1269907 54.6328125 287.390625 C54.59938751 288.09181458 54.56596252 288.79300415 54.53152466 289.51544189 C54.31383498 293.11927496 53.94323998 295.91571164 52 299 C51.34 299 50.68 299 50 299 C49.2624973 289.13869839 48.79403242 279.3028252 48.55444336 269.41796494 C48.4983867 267.11336144 48.43816426 264.80889711 48.37695312 262.50442505 C48.20403733 255.96565622 48.03885507 249.42669668 47.875 242.88769531 C47.77371355 238.85677411 47.6682333 234.82597934 47.56030273 230.79523087 C47.50105535 228.53249263 47.44676809 226.26966954 47.39257812 224.00680542 C47.35574072 222.62025235 47.31864533 221.2337061 47.28125 219.84716797 C47.25095703 218.64220673 47.22066406 217.43724548 47.18945312 216.19577026 C47.02134233 213.36001085 46.64298329 210.76167994 46 208 C45.13721436 208.00523682 44.27442871 208.01047363 43.38549805 208.01586914 C40.18188727 208.03291996 36.97829964 208.04545453 33.7746582 208.05493164 C32.38858275 208.05995777 31.00251259 208.06677966 29.61645508 208.07543945 C27.62323285 208.08758018 25.62997181 208.09271021 23.63671875 208.09765625 C21.83787231 208.10551147 21.83787231 208.10551147 20.00268555 208.11352539 C17 208 17 208 14 207 C13.97716446 207.92770706 13.95432892 208.85541412 13.93080139 209.81123352 C13.71398206 218.59344059 13.49366497 227.37555166 13.26950932 236.15757465 C13.15441539 240.67149244 13.04063043 245.18543501 12.92993164 249.69946289 C12.82286792 254.06323214 12.7122421 258.4268984 12.59924126 262.79051781 C12.55693541 264.44767311 12.51587037 266.10486062 12.4761219 267.76207924 C11.87072918 292.90329924 11.87072918 292.90329924 9 298 C8.34 297.67 7.68 297.34 7 297 C6.34 279.18 5.68 261.36 5 243 C4.13352556 254.95053181 4.13352556 254.95053181 3.2956543 266.90307617 C3.18120627 268.40811908 3.06579217 269.91308897 2.94921875 271.41796875 C2.89979126 272.1912854 2.85036377 272.96460205 2.79943848 273.76135254 C2.43905166 278.22914202 1.81196628 281.3266778 -1 285 C-1.33 285 -1.66 285 -2 285 C-3.04033077 278.93202088 -3.21504726 272.9650399 -3.31640625 266.81640625 C-3.33718735 265.76090073 -3.35796844 264.7053952 -3.37937927 263.61790466 C-3.44444848 260.2661655 -3.50356052 256.914352 -3.5625 253.5625 C-3.60572581 251.28189354 -3.64934136 249.00129443 -3.69335938 246.72070312 C-3.80008584 241.14721262 -3.90192922 235.57364917 -4 230 C-4.08040527 231.03406982 -4.16081055 232.06813965 -4.24365234 233.13354492 C-4.54506002 236.98267894 -4.85691436 240.83090832 -5.171875 244.67895508 C-5.3065484 246.34213921 -5.43841621 248.00555307 -5.56738281 249.66918945 C-5.75362609 252.06528081 -5.95006021 254.46035519 -6.1484375 256.85546875 C-6.20373627 257.5952446 -6.25903503 258.33502045 -6.31600952 259.09721375 C-6.65419849 263.05056836 -7.15251347 266.46031681 -9 270 C-9.66 270.33 -10.32 270.66 -11 271 C-12.00718323 267.60722111 -12.19733072 264.41320565 -12.31640625 260.8828125 C-12.3793689 259.03248413 -12.3793689 259.03248413 -12.44360352 257.14477539 C-12.48365408 255.8048627 -12.52327635 254.46493715 -12.5625 253.125 C-12.58367889 252.44936005 -12.60485779 251.77372009 -12.62667847 251.0776062 C-13.09344387 236.05120627 -13.10546195 221.03238392 -13 206 C-13.86197998 205.94884033 -14.72395996 205.89768066 -15.61206055 205.8449707 C-23.75362884 205.31911837 -31.75557741 204.46210392 -39.8125 203.1875 C-40.93833496 203.01009277 -42.06416992 202.83268555 -43.22412109 202.64990234 C-84.45405338 195.97783861 -84.45405338 195.97783861 -96.5 182.125 C-96.995 181.42375 -97.49 180.7225 -98 180 C-96.26661254 173.83684458 -92.00301104 168.90190699 -86.65625 165.515625 C-64.18689848 154.55166432 -37.40803474 154.77289976 -13 155 C-13.15821732 154.16747208 -13.31643463 153.33494415 -13.47944641 152.47718811 C-14.03533925 148.76394125 -14.22941465 145.11072288 -14.32885742 141.36499023 C-14.35172318 140.62421738 -14.37458893 139.88344452 -14.39814758 139.120224 C-14.47189494 136.68312459 -14.53920392 134.24590742 -14.60546875 131.80859375 C-14.65364364 130.0995323 -14.70184662 128.39047165 -14.75007629 126.68141174 C-14.84986201 123.0997805 -14.94583714 119.51806786 -15.03979492 115.9362793 C-15.160121 111.37937167 -15.29512406 106.82302819 -15.43377209 102.26664639 C-15.53866365 98.73462111 -15.63288542 95.2023662 -15.72432899 91.66996956 C-15.76951583 89.99199677 -15.81851709 88.31412165 -15.87163353 86.63638115 C-16.17814786 76.81414859 -15.95096909 67.67934737 -14 58 C-14.88768066 58.03327393 -15.77536133 58.06654785 -16.68994141 58.10083008 C-19.66691423 58.21186312 -22.64397535 58.32019218 -25.62109375 58.42724609 C-27.56777274 58.4979223 -29.51435719 58.57118759 -31.4609375 58.64453125 C-39.98103571 58.94882047 -48.47500977 59.0594191 -57 59 C-56.03806737 56.49653338 -55.52849936 55.25789592 -53.07080078 54.05859375 C-52.28688965 53.85363281 -51.50297852 53.64867187 -50.6953125 53.4375 C-49.81053223 53.1998291 -48.92575195 52.9621582 -48.01416016 52.71728516 C-47.0607373 52.48058105 -46.10731445 52.24387695 -45.125 52 C-44.15224121 51.74653809 -43.17948242 51.49307617 -42.17724609 51.23193359 C-32.52952841 48.76971503 -22.78921363 46.80495262 -13 45 C-12.82404297 44.2174585 -12.64808594 43.43491699 -12.46679688 42.62866211 C-10.63216773 34.56264081 -8.63654923 26.55356733 -6.5 18.5625 C-6.20480469 17.43134766 -5.90960938 16.30019531 -5.60546875 15.13476562 C-4.17358731 9.77624897 -2.78498951 4.81429589 0 0 Z M14 60 C14.66 76.83 15.32 93.66 16 111 C29.5809098 109.30238627 41.69251415 105.56955492 50.6875 94.8671875 C54.5887347 89.31721671 53.58782492 81.47307206 53 75 C51.42975257 70.60170491 47.65250329 68.61261281 43.75 66.375 C39.07692164 64.20359968 34.30363193 62.88938876 29.3125 61.6875 C28.24370605 61.43009033 28.24370605 61.43009033 27.15332031 61.16748047 C22.48677332 60.12818215 19.01651788 60 14 60 Z M16 118 C15.00812949 120.97561152 14.84710625 123.02523174 14.79467773 126.13549805 C14.77473251 127.18476974 14.75478729 128.23404144 14.73423767 129.31510925 C14.71752518 130.45249039 14.70081268 131.58987152 14.68359375 132.76171875 C14.66281265 133.9403096 14.64203156 135.11890045 14.62062073 136.33320618 C14.57731809 138.83741612 14.53628098 141.3416661 14.49731445 143.84594727 C14.43843873 147.62721045 14.37321077 151.40831839 14.30664062 155.18945312 C14.26524616 157.63020194 14.22421963 160.07095702 14.18359375 162.51171875 C14.16485703 163.62278488 14.1461203 164.73385101 14.1268158 165.87858582 C13.9926507 174.58893761 14 183.28547255 14 192 C24.89 192 35.78 192 47 192 C47.87299143 178.92884832 47.87299143 178.92884832 48.203125 165.8671875 C48.21167511 164.41857834 48.21167511 164.41857834 48.22039795 162.94070435 C48.22971853 160.93281104 48.2363292 158.92490333 48.24023438 156.91699219 C48.25009489 153.84544297 48.2812985 150.77452254 48.3125 147.703125 C48.31901815 145.73698307 48.32427326 143.77083646 48.328125 141.8046875 C48.3404718 140.89322968 48.3528186 139.98177185 48.36553955 139.04269409 C48.34851076 134.20748957 48.18358977 130.90604552 45 127 C36.41950847 120.73075198 26.23967922 119.38308463 16 118 Z M76 160 C76 170.23 76 180.46 76 191 C105.41612094 188.77198338 105.41612094 188.77198338 131 176 C130.03634269 173.60041495 129.38972404 172.2536868 127.1940918 170.82446289 C121.49355956 168.43622111 115.84884868 166.75058402 109.8125 165.4375 C108.87647949 165.22843018 107.94045898 165.01936035 106.97607422 164.80395508 C96.72183195 162.59418038 86.40723508 161.28400952 76 160 Z M-24.51953125 161.13671875 C-25.25515793 161.25803665 -25.99078461 161.37935455 -26.748703 161.50434875 C-28.30992635 161.76388801 -29.87081829 162.0254276 -31.43139648 162.28881836 C-33.76446027 162.67945644 -36.09976322 163.05376116 -38.43554688 163.42773438 C-48.13290424 165.03002965 -58.02550795 166.83867016 -67 171 C-67.33 171.99 -67.66 172.98 -68 174 C-62.0565394 183.19179587 -50.16714594 184.58849171 -40.1875 186.75 C-31.40441063 188.61907686 -23.0035897 190.15795771 -14 190 C-13.32807613 179.9811352 -12.84276076 170.04584053 -13 160 C-16.95462767 160 -20.63667925 160.49378379 -24.51953125 161.13671875 Z " fill="#CB1748" transform="translate(135,6)"/>
<path d="M0 0 C0 45.21 0 90.42 0 137 C-0.66 137 -1.32 137 -2 137 C-2 126.44 -2 115.88 -2 105 C-7.31771333 105.91587128 -12.6339996 106.83698972 -17.94848633 107.77099609 C-19.75069866 108.0861704 -21.55342426 108.39842606 -23.35668945 108.70751953 C-33.03222187 110.36802468 -42.38490288 112.11233378 -51.67504883 115.35449219 C-54 116 -54 116 -56 115 C-53.59681852 112.20689835 -51.32797623 111.15243608 -47.875 109.9375 C-46.98554687 109.61652344 -46.09609375 109.29554688 -45.1796875 108.96484375 C-35.9309877 106.1584201 -26.49237842 105.05940794 -16.9375 103.875 C-15.4849772 103.69179308 -14.03250275 103.50820234 -12.58007812 103.32421875 C-9.05393176 102.8783874 -5.52715997 102.43774888 -2 102 C-2.15789001 100.8418277 -2.31578003 99.6836554 -2.47845459 98.49038696 C-2.99006815 94.3826978 -3.22392609 90.28993587 -3.34472656 86.15380859 C-3.36919861 85.41434998 -3.39367065 84.67489136 -3.41888428 83.9130249 C-3.4974087 81.49161436 -3.56976949 79.07008401 -3.640625 76.6484375 C-3.67796375 75.39484373 -3.67796375 75.39484373 -3.71605682 74.11592484 C-3.84708521 69.690853 -3.97285738 65.2656651 -4.09472656 60.84033203 C-4.22071245 56.3080809 -4.36610596 51.77667086 -4.51590347 47.24515343 C-4.6284349 43.72604686 -4.72574976 40.2066297 -4.81920624 36.68696976 C-4.86615705 35.01813447 -4.91871198 33.34944572 -4.97736359 31.68098068 C-5.05870508 29.32832092 -5.1180535 26.97596806 -5.17285156 24.62255859 C-5.20076782 23.95610321 -5.22868408 23.28964783 -5.25744629 22.60299683 C-5.38278199 15.21155382 -3.6533558 9.71566039 -2 2 C-12.89 2 -23.78 2 -35 2 C-35 1.67 -35 1.34 -35 1 C-23.44587616 -0.65058912 -11.6714276 0 0 0 Z " fill="#625C5E" transform="translate(124,61)"/>
<path d="M0 0 C3.41746259 0.57675061 6.1548969 2.08909438 9.17651367 3.72973633 C17.60823813 8.26958069 25.70328266 10.77862687 35.06591797 12.60742188 C37.81753312 13.16594209 40.52834526 13.87418474 43.25 14.5625 C56.23282187 17.55099862 69.70676357 19.20185537 83 20 C83.74536429 26.09061529 84.18731648 32.08259332 84.31640625 38.21484375 C84.33718735 39.06945694 84.35796844 39.92407013 84.37937927 40.80458069 C84.42234338 42.60543546 84.46341877 44.4063362 84.50268555 46.20727539 C84.56166486 48.8993802 84.62699244 51.59127142 84.69335938 54.28320312 C84.95984551 65.52396735 85.05409332 76.756318 85 88 C84.01 88.495 84.01 88.495 83 89 C81.99281677 85.60722111 81.80266928 82.41320565 81.68359375 78.8828125 C81.6206311 77.03248413 81.6206311 77.03248413 81.55639648 75.14477539 C81.51634592 73.8048627 81.47672365 72.46493715 81.4375 71.125 C81.41632111 70.44936005 81.39514221 69.77372009 81.37332153 69.0776062 C80.90655613 54.05120627 80.89453805 39.03238392 81 24 C80.13802002 23.94884033 79.27604004 23.89768066 78.38793945 23.8449707 C70.24637116 23.31911837 62.24442259 22.46210392 54.1875 21.1875 C52.49874756 20.92138916 52.49874756 20.92138916 50.77587891 20.64990234 C12.23509124 14.41301139 12.23509124 14.41301139 1 4 C0.33984375 1.8515625 0.33984375 1.8515625 0 0 Z " fill="#260F15" transform="translate(41,188)"/>
<path d="M0 0 C-5.14772036 3.46375865 -10.09337542 6.10190391 -16 8 C-16.76562256 8.24854736 -17.53124512 8.49709473 -18.32006836 8.75317383 C-37.12283079 14.6172445 -58.25238626 19 -78 19 C-77.99476318 19.96897217 -77.98952637 20.93794434 -77.98413086 21.9362793 C-77.88061752 42.9852989 -78.0695497 63.96835879 -79 85 C-79.33 85 -79.66 85 -80 85 C-80.0985572 66.39088391 -80.15030353 47.78953905 -79.5625 29.1875 C-79.54285187 28.51766083 -79.52320374 27.84782166 -79.50296021 27.15768433 C-79.4466317 25.28592706 -79.38176134 23.41443258 -79.31640625 21.54296875 C-79.26141968 19.9655188 -79.26141968 19.9655188 -79.20532227 18.35620117 C-79 16 -79 16 -78 15 C-76.25427067 14.72436844 -74.49914278 14.5078528 -72.7421875 14.31640625 C-71.6490625 14.19475098 -70.5559375 14.0730957 -69.4296875 13.94775391 C-68.25664062 13.82062012 -67.08359375 13.69348633 -65.875 13.5625 C-63.47649993 13.29091659 -61.0780619 13.01878474 -58.6796875 12.74609375 C-54.97774305 12.32979224 -51.27534328 11.92285038 -47.5703125 11.53515625 C-33.62267465 9.9328565 -20.39219691 5.75894615 -7.30517578 0.79199219 C-2.20826489 -1.10413244 -2.20826489 -1.10413244 0 0 Z " fill="#906F78" transform="translate(288,193)"/>
<path d="M0 0 C12.21 0 24.42 0 37 0 C38.48199999 31.69098203 39.30170777 63.27426784 39 95 C38.34 95 37.68 95 37 95 C36.15332952 83.81459993 35.70443708 72.65022573 35.4375 61.4375 C35.40573166 60.16495361 35.40573166 60.16495361 35.37332153 58.86669922 C34.90680094 39.90737289 34.92816166 20.96532125 35 2 C23.45 2 11.9 2 0 2 C0 1.34 0 0.68 0 0 Z " fill="#352C2E" transform="translate(148,210)"/>
<path d="M0 0 C13.21087922 -0.68332134 24.99609199 2.17302234 35 11 C36.3951713 13.79034261 36.11955162 16.07225972 36.11352539 19.19384766 C36.11344986 20.49504547 36.11337433 21.79624329 36.11329651 23.13687134 C36.10818947 24.56260211 36.10297347 25.9883325 36.09765625 27.4140625 C36.09579147 28.86851961 36.09436785 30.32297734 36.09336853 31.7774353 C36.08954805 35.60792776 36.07972176 39.43838237 36.06866455 43.26885986 C36.05844035 47.17663053 36.05386874 51.08440731 36.04882812 54.9921875 C36.03809908 62.6614756 36.02102828 70.3307325 36 78 C35.34 78 34.68 78 34 78 C33.99191315 77.2446698 33.98382629 76.4893396 33.97549438 75.71112061 C33.89752349 68.58960079 33.81022548 61.46828513 33.71247292 54.34701157 C33.6625468 50.68596937 33.61621661 47.02495551 33.578125 43.36376953 C33.54122537 39.82990214 33.49485305 36.29627396 33.44193649 32.76261139 C33.41441037 30.75968743 33.39667189 28.75663673 33.37905884 26.75360107 C33.35918915 25.53263733 33.33931946 24.31167358 33.31884766 23.05371094 C33.30552399 21.97893494 33.29220032 20.90415894 33.2784729 19.79681396 C32.99829131 16.98283898 32.55311008 15.34335302 31 13 C28.39544816 11.31492648 28.39544816 11.31492648 25.3125 9.9375 C24.22582031 9.42574219 23.13914063 8.91398438 22.01953125 8.38671875 C21.02308594 7.92910156 20.02664062 7.47148437 19 7 C17.845 6.4225 16.69 5.845 15.5 5.25 C10.45094457 3.44676592 5.29652144 2.73925176 0 2 C0 1.34 0 0.68 0 0 Z " fill="#1C1A1A" transform="translate(149,121)"/>
<path d="M0 0 C3 1 3 1 4 3 C4.11817113 4.48499709 4.17698842 5.97493344 4.20532227 7.46435547 C4.22526245 8.39575851 4.24520264 9.32716156 4.26574707 10.28678894 C4.2824646 11.30332047 4.29918213 12.31985199 4.31640625 13.3671875 C4.33723267 14.42210892 4.35805908 15.47703033 4.3795166 16.56391907 C4.44563516 20.00087215 4.50436533 23.43790331 4.5625 26.875 C4.60527637 29.21264852 4.6481637 31.55029501 4.69116211 33.88793945 C4.97628303 49.92635892 5.14455345 65.95901436 5 82 C-0.70290954 76.29709046 1.68626959 60.48032974 1.46484375 52.71484375 C1.42169699 51.28185745 1.37828059 49.84887925 1.33460999 48.41590881 C1.22164055 44.68380616 1.11253051 40.95160047 1.00421143 37.21936035 C0.91484772 34.16268007 0.82273682 31.10608538 0.73049068 28.04949093 C0.54007428 21.73872585 0.35176464 15.42789765 0.16772461 9.11694336 C0.13521103 8.00508163 0.10269745 6.89321991 0.06919861 5.74766541 C0.02095969 3.83224543 0 1.91602732 0 0 Z " fill="#413337" transform="translate(201,259)"/>
<path d="M0 0 C1.98 0.99 1.98 0.99 4 2 C4.65018196 23.67215569 5.18347551 45.31601801 5 67 C4.01 67 3.02 67 2 67 C1.34 44.89 0.68 22.78 0 0 Z " fill="#2F1C20" transform="translate(140,236)"/>
<path d="M0 0 C3.91402944 -0.16655444 7.28942909 -0.02306137 11.09765625 0.9140625 C16.19646695 2.09259813 21.31535431 2.81324198 26.5 3.5 C36.08018732 4.76899133 45.00554085 6.40221634 54 10 C54 10.66 54 11.32 54 12 C55.32 12.66 56.64 13.32 58 14 C58 15.65 58 17.3 58 19 C57.01 19.495 57.01 19.495 56 20 C55.74992187 19.38253906 55.49984375 18.76507813 55.2421875 18.12890625 C52.5815657 13.56903555 46.56427122 12.440244 41.73828125 11.08203125 C38.83274745 10.34963042 35.92427218 9.65313693 33 9 C33 8.34 33 7.68 33 7 C22.11 5.35 11.22 3.7 0 2 C0 1.34 0 0.68 0 0 Z " fill="#69575C" transform="translate(210,163)"/>
<path d="M0 0 C0.33 0 0.66 0 1 0 C1.2889979 7.68214044 1.57328772 15.36444537 1.85449219 23.046875 C1.95044443 25.6536848 2.04742628 28.26045694 2.14550781 30.8671875 C3.18928963 58.64456489 3.18928963 58.64456489 3 72 C2.01 72 1.02 72 0 72 C-1.00892618 56.25354495 -1.11161794 40.52288581 -1.125 24.75 C-1.12749756 23.70334167 -1.12999512 22.65668335 -1.13256836 21.57830811 C-1.13845804 18.56779672 -1.13696712 15.55738752 -1.1328125 12.546875 C-1.13479645 11.62901215 -1.1367804 10.71114929 -1.13882446 9.76547241 C-1.13571259 8.91828644 -1.13260071 8.07110046 -1.12939453 7.19824219 C-1.12859894 6.45709167 -1.12780334 5.71594116 -1.12698364 4.95233154 C-1 3 -1 3 0 0 Z " fill="#321D22" transform="translate(194,252)"/>
<path d="M0 0 C0.66 0 1.32 0 2 0 C2.8770824 5.36282159 3.20358859 10.5905849 3.31640625 16.01953125 C3.33718735 16.87697433 3.35796844 17.73441742 3.37937927 18.61784363 C3.42245252 20.43064882 3.4635166 22.24350273 3.50268555 24.05639648 C3.5614962 26.76624715 3.62685981 29.47587521 3.69335938 32.18554688 C3.95931706 43.45883311 4.05432434 54.72381945 4 66 C3.01 66.495 3.01 66.495 2 67 C1.00201472 63.62907259 0.80328823 60.46030474 0.68359375 56.953125 C0.64161865 55.72988525 0.59964355 54.50664551 0.55639648 53.24633789 C0.51716064 51.92754639 0.4779248 50.60875488 0.4375 49.25 C0.41632111 48.5775827 0.39514221 47.90516541 0.37332153 47.21237183 C-0.1168919 31.47566226 -0.10215337 15.74262039 0 0 Z " fill="#393133" transform="translate(122,210)"/>
<path d="M0 0 C14.23485198 0.61066673 30.1957816 2.3799409 41.25 12.5 C44.03221938 18.06443877 43.72069707 23.89304062 43 30 C42.34 30.99 41.68 31.98 41 33 C40.98582031 32.05898437 40.97164062 31.11796875 40.95703125 30.1484375 C40.97952535 22.37906171 40.97952535 22.37906171 38.0625 15.4375 C31.14248526 9.92973317 23.99296777 7.46486247 15.37109375 5.7734375 C14.58863281 5.51820312 13.80617187 5.26296875 13 5 C12.67 4.01 12.34 3.02 12 2 C8.04 2 4.08 2 0 2 C0 1.34 0 0.68 0 0 Z " fill="#282223" transform="translate(148,63)"/>
<path d="M0 0 C-3.64787772 2.18674187 -7.45492048 2.73080891 -11.58984375 3.3671875 C-13.11264847 3.61577359 -14.63543429 3.86447542 -16.15820312 4.11328125 C-18.5334758 4.49338328 -20.90917321 4.87054053 -23.28540039 5.24462891 C-32.33340344 6.67870937 -40.91931523 8.31676476 -49.59594727 11.33251953 C-52 12 -52 12 -54 11 C-43.11376334 -1.65254658 -15.25947774 -0.36093377 0 0 Z " fill="#807377" transform="translate(122,165)"/>
<path d="M0 0 C0.33 0 0.66 0 1 0 C1 19.8 1 39.6 1 60 C0.34 60 -0.32 60 -1 60 C-1 49.11 -1 38.22 -1 27 C-4.96 27.33 -8.92 27.66 -13 28 C-8.60171741 25.8008587 -5.81449408 25.48144941 -1 25 C-1.00523682 24.31373535 -1.01047363 23.6274707 -1.01586914 22.92041016 C-1.03660956 19.82194936 -1.04965076 16.72350314 -1.0625 13.625 C-1.07087891 12.54476562 -1.07925781 11.46453125 -1.08789062 10.3515625 C-1.09272461 8.8046875 -1.09272461 8.8046875 -1.09765625 7.2265625 C-1.10289307 6.27346191 -1.10812988 5.32036133 -1.11352539 4.33837891 C-1 2 -1 2 0 0 Z " fill="#0C0305" transform="translate(123,138)"/>
<path d="M0 0 C6.07917485 -0.2218171 11.29979393 0.53917771 17.1875 2 C24.0038115 3.72375153 24.0038115 3.72375153 31 4 C31 3.67 31 3.34 31 3 C36.60741736 2.89896545 41.94806761 3.23917964 47.5 4 C48.22703125 4.09539062 48.9540625 4.19078125 49.703125 4.2890625 C51.46935867 4.52146167 53.23477406 4.76006638 55 5 C55 5.66 55 6.32 55 7 C54.34 7 53.68 7 53 7 C53 7.66 53 8.32 53 9 C35.28725916 8.35590033 17.12451726 5.57578194 0 1 C0 0.67 0 0.34 0 0 Z " fill="#643C46" transform="translate(69,203)"/>
<path d="M0 0 C0.33 0 0.66 0 1 0 C1.05083907 6.99256271 1.08579201 13.98507748 1.10986328 20.9777832 C1.11990158 23.35507997 1.13353504 25.73236445 1.15087891 28.10961914 C1.17522241 31.53274576 1.18650505 34.95570866 1.1953125 38.37890625 C1.20563507 39.43646622 1.21595764 40.49402618 1.22659302 41.58363342 C1.22743027 47.12891385 0.86478295 51.76376691 -1 57 C-1.66 57 -2.32 57 -3 57 C-2.83668686 56.44082886 -2.67337372 55.88165771 -2.50511169 55.30554199 C-1.96170473 52.82520429 -1.89355841 50.64915988 -1.91821289 48.11132812 C-1.9247438 47.14352417 -1.93127472 46.17572021 -1.93800354 45.17858887 C-1.95515663 43.62065613 -1.95515663 43.62065613 -1.97265625 42.03125 C-1.98529958 39.82942864 -1.99766076 37.62760564 -2.00976562 35.42578125 C-2.03461537 31.95616567 -2.06262835 28.48663483 -2.09594727 25.01708984 C-2.12611181 21.66763765 -2.14391053 18.31829452 -2.16015625 14.96875 C-2.17361588 13.93012817 -2.1870755 12.89150635 -2.20094299 11.82141113 C-2.20432175 10.85360718 -2.2077005 9.88580322 -2.21118164 8.88867188 C-2.21863907 8.0391394 -2.2260965 7.18960693 -2.23377991 6.31433105 C-1.97936566 3.79572799 -1.2655631 2.1731263 0 0 Z " fill="#B24F69" transform="translate(207,286)"/>
<path d="M0 0 C12.21 0 24.42 0 37 0 C36.67 13.2 36.34 26.4 36 40 C35.67 40 35.34 40 35 40 C35 27.46 35 14.92 35 2 C23.45 2 11.9 2 0 2 C0 1.34 0 0.68 0 0 Z " fill="#472029" transform="translate(148,210)"/>
<path d="M0 0 C1.24072266 0.00322266 2.48144531 0.00644531 3.75976562 0.00976562 C5.03658203 0.01814453 6.31339844 0.02652344 7.62890625 0.03515625 C9.58473633 0.04192383 9.58473633 0.04192383 11.58007812 0.04882812 C14.78390177 0.06056374 17.98762988 0.07698262 21.19140625 0.09765625 C21.21852623 2.17440659 21.23785651 4.25125961 21.25390625 6.328125 C21.26550781 7.48465576 21.27710938 8.64118652 21.2890625 9.83276367 C21.1749968 13.64626526 20.51333061 16.54498453 19.19140625 20.09765625 C18.86140625 20.09765625 18.53140625 20.09765625 18.19140625 20.09765625 C18.16422933 18.03523008 18.14493045 15.97269922 18.12890625 13.91015625 C18.11730469 12.76160156 18.10570313 11.61304687 18.09375 10.4296875 C18.19140625 7.09765625 18.19140625 7.09765625 19.19140625 2.09765625 C8.30140625 2.09765625 -2.58859375 2.09765625 -13.80859375 2.09765625 C-13.80859375 1.76765625 -13.80859375 1.43765625 -13.80859375 1.09765625 C-9.1564444 0.35031264 -4.70991433 -0.02170467 0 0 Z " fill="#320F17" transform="translate(102.80859375,60.90234375)"/>
<path d="M0 0 C0.66 0 1.32 0 2 0 C1.34776771 3.66970257 0.38498093 7.2008331 -0.6628418 10.77563477 C-3.22734951 19.55625474 -5.1446399 28.33471573 -6.65551758 37.35742188 C-6.80400146 38.21013672 -6.95248535 39.06285156 -7.10546875 39.94140625 C-7.23074951 40.70138916 -7.35603027 41.46137207 -7.48510742 42.24438477 C-7.65502197 42.82373779 -7.82493652 43.40309082 -8 44 C-8.99 44.495 -8.99 44.495 -10 45 C-10.46486672 36.86921796 -8.73925759 29.77711299 -6.6875 21.9375 C-6.37876953 20.70966797 -6.07003906 19.48183594 -5.75195312 18.21679688 C-4.15762695 11.98382065 -2.41944455 5.96300025 0 0 Z " fill="#473B3E" transform="translate(134,7)"/>
<path d="M0 0 C0.66 0.33 1.32 0.66 2 1 C4.47832659 1.15626576 6.93311331 1.25813198 9.4140625 1.31640625 C10.14370209 1.33718735 10.87334167 1.35796844 11.62509155 1.37937927 C13.95829763 1.44481917 16.29161721 1.50373368 18.625 1.5625 C20.20574095 1.60569053 21.78647039 1.64930499 23.3671875 1.69335938 C27.24467504 1.80049481 31.12227685 1.90177782 35 2 C35 3.65 35 5.3 35 7 C34.505 5.02 34.505 5.02 34 3 C33.19481934 3.03029297 32.38963867 3.06058594 31.56005859 3.09179688 C28.4997463 3.20567711 25.43935847 3.31719559 22.37890625 3.42724609 C20.43222726 3.4979223 18.48564281 3.57118759 16.5390625 3.64453125 C8.01896429 3.94882047 -0.47500977 4.0594191 -9 4 C-8.1875 2.0625 -8.1875 2.0625 -7 0 C-3.83299069 -1.05566977 -3.03571759 -0.97926374 0 0 Z " fill="#8F8689" transform="translate(87,61)"/>
<path d="M0 0 C10.32971777 -0.53429575 21.44110067 0.82963072 30 7 C30.33 7.66 30.66 8.32 31 9 C28.525 8.505 28.525 8.505 26 8 C25.67 7.01 25.34 6.02 25 5 C24.01 5.33 23.02 5.66 22 6 C15.52066116 6.34710744 15.52066116 6.34710744 12 4 C9.95130926 3.55570562 7.88545707 3.18705805 5.8125 2.875 C4.18248047 2.62363281 4.18248047 2.62363281 2.51953125 2.3671875 C1.27236328 2.18542969 1.27236328 2.18542969 0 2 C0 1.34 0 0.68 0 0 Z " fill="#441924" transform="translate(149,121)"/>
<path d="M0 0 C1.32 0.33 2.64 0.66 4 1 C3.67 19.81 3.34 38.62 3 58 C2.67 58 2.34 58 2 58 C1.98969254 57.31761765 1.97938507 56.63523529 1.96876526 55.93217468 C1.86076179 48.84343768 1.74615869 41.75482937 1.62768555 34.66625977 C1.58431696 32.01915168 1.54264332 29.37201528 1.50268555 26.72485352 C1.44502977 22.924555 1.38132156 19.12439932 1.31640625 15.32421875 C1.29969376 14.13664474 1.28298126 12.94907074 1.26576233 11.72550964 C1.24581711 10.62459488 1.22587189 9.52368011 1.20532227 8.3894043 C1.18977798 7.41899704 1.1742337 6.44858978 1.15821838 5.44877625 C1.09534871 2.86204325 1.09534871 2.86204325 0 0 Z " fill="#5A5254" transform="translate(130,226)"/>
<path d="M0 0 C3.90017596 -0.16596493 7.26807054 -0.02814602 11.0625 0.90625 C16.35651517 2.1299922 21.68189527 2.89111098 27.0625 3.625 C28.50399414 3.82609375 28.50399414 3.82609375 29.97460938 4.03125 C32.31597687 4.35741065 34.65774764 4.68026702 37 5 C33.17478449 7.65020536 29.71618863 6.83992638 25.390625 6.1015625 C24.66381531 5.98775238 23.93700562 5.87394226 23.18817139 5.75668335 C20.87335725 5.39139765 18.56186432 5.00846866 16.25 4.625 C14.67857191 4.37383044 13.10695858 4.12381687 11.53515625 3.875 C7.68782831 3.26337962 3.84338245 2.6359235 0 2 C0 1.34 0 0.68 0 0 Z " fill="#270E14" transform="translate(210,163)"/>
<path d="M0 0 C-6.42637721 4.49846404 -16.3375796 10.858496 -24.421875 9.6328125 C-24.94265625 9.42398438 -25.4634375 9.21515625 -26 9 C-26 8.34 -26 7.68 -26 7 C-25.18917969 6.75765625 -24.37835938 6.5153125 -23.54296875 6.265625 C-16.97496799 4.27763874 -10.53062376 2.15188549 -4.14453125 -0.36328125 C-2 -1 -2 -1 0 0 Z " fill="#906C76" transform="translate(288,193)"/>
<path d="M0 0 C0.99 0.33 1.98 0.66 3 1 C2.67 8.92 2.34 16.84 2 25 C1.67 25 1.34 25 1 25 C0.67 22.69 0.34 20.38 0 18 C-0.33 21.63 -0.66 25.26 -1 29 C-1.33 29 -1.66 29 -2 29 C-2.32445141 6.97335423 -2.32445141 6.97335423 0 0 Z " fill="#A09196" transform="translate(191,250)"/>
<path d="M0 0 C0.99 0.495 0.99 0.495 2 1 C3.32227764 5.34937867 3.11479353 9.81123392 3.0625 14.3125 C3.05798828 15.05306641 3.05347656 15.79363281 3.04882812 16.55664062 C3.03712175 18.37112899 3.01918898 20.18557534 3 22 C2.01 22 1.02 22 0 22 C0 14.74 0 7.48 0 0 Z " fill="#473539" transform="translate(194,302)"/>
<path d="M0 0 C1.98 0.99 1.98 0.99 4 2 C4 7.28 4 12.56 4 18 C3.67 18 3.34 18 3 18 C2.67 23.94 2.34 29.88 2 36 C1.67 36 1.34 36 1 36 C0.67 24.12 0.34 12.24 0 0 Z " fill="#6E4C56" transform="translate(140,236)"/>
<path d="M0 0 C0.33 0 0.66 0 1 0 C1.36125654 22.27748691 1.36125654 22.27748691 -2 29 C-2 21.08 -2 13.16 -2 5 C-1.34 5 -0.68 5 0 5 C0 3.35 0 1.7 0 0 Z " fill="#D0758E" transform="translate(128,246)"/>
<path d="M0 0 C5.92317574 -0.20101275 11.01102795 0.46481705 16.75 1.875 C23.79957499 3.529775 30.83389195 4.93210939 38 6 C38 6.33 38 6.66 38 7 C31.27424993 7.24049166 25.04622333 6.32813749 18.4375 5.125 C16.93413086 4.86396484 16.93413086 4.86396484 15.40039062 4.59765625 C10.15958957 3.66611162 5.08303296 2.58265542 0 1 C0 0.67 0 0.34 0 0 Z " fill="#B1B2B3" transform="translate(69,203)"/>
<path d="M0 0 C0.33 0 0.66 0 1 0 C0.91888292 3.7300411 0.80605925 7.458476 0.6875 11.1875 C0.66494141 12.24259766 0.64238281 13.29769531 0.61914062 14.38476562 C0.5659668 15.91713867 0.5659668 15.91713867 0.51171875 17.48046875 C0.48553467 18.41785889 0.45935059 19.35524902 0.43237305 20.32104492 C-0.07128473 23.44167552 -1.23324144 25.40642312 -3 28 C-3.33 27.01 -3.66 26.02 -4 25 C-3.34 25 -2.68 25 -2 25 C-2.01571045 24.07719238 -2.01571045 24.07719238 -2.03173828 23.13574219 C-2.07338695 20.34053657 -2.09935416 17.54539634 -2.125 14.75 C-2.14175781 13.78191406 -2.15851563 12.81382812 -2.17578125 11.81640625 C-2.18222656 10.88183594 -2.18867188 9.94726562 -2.1953125 8.984375 C-2.20578613 8.12553711 -2.21625977 7.26669922 -2.22705078 6.38183594 C-1.98293323 3.82096404 -1.28990512 2.20488971 0 0 Z " fill="#C27187" transform="translate(137,263)"/>
<path d="M0 0 C9.20503028 -0.30683434 18.35428907 0.63777908 27 4 C27 4.33 27 4.66 27 5 C20.4576343 5.20956527 14.78261159 4.54580496 8.4375 3 C7.61958984 2.80921875 6.80167969 2.6184375 5.95898438 2.421875 C3.97056956 1.95674873 1.98496244 1.47964573 0 1 C0 0.67 0 0.34 0 0 Z " fill="#2E0812" transform="translate(77,203)"/>
<path d="M0 0 C0.33 0 0.66 0 1 0 C1.09776087 10.38437692 1.1555538 20.66192051 0 31 C-0.33 31 -0.66 31 -1 31 C-1.22978281 27.70947386 -1.42974313 24.41774088 -1.625 21.125 C-1.72167969 19.74828125 -1.72167969 19.74828125 -1.8203125 18.34375 C-2.18224959 11.91936661 -1.56534378 6.23932802 0 0 Z " fill="#C58093" transform="translate(198,290)"/>
<path d="M0 0 C9.01258426 0.38663453 17.33108203 1.47553488 26 4 C25.67 4.66 25.34 5.32 25 6 C20.71 5.34 16.42 4.68 12 4 C12 3.34 12 2.68 12 2 C8.04 2 4.08 2 0 2 C0 1.34 0 0.68 0 0 Z " fill="#191012" transform="translate(148,63)"/>
<path d="M0 0 C1.15628906 0.12568359 1.15628906 0.12568359 2.3359375 0.25390625 C3.33882812 0.35574219 4.34171875 0.45757812 5.375 0.5625 C6.37273438 0.66691406 7.37046875 0.77132812 8.3984375 0.87890625 C10.984037 1.21144708 10.984037 1.21144708 13 0 C14.89213403 0.40626902 16.76666849 0.89728735 18.625 1.4375 C19.62789062 1.72496094 20.63078125 2.01242188 21.6640625 2.30859375 C22.43492188 2.53675781 23.20578125 2.76492187 24 3 C24 3.33 24 3.66 24 4 C15.38261147 4.30654742 8.06524596 4.39589303 0 1 C0 0.67 0 0.34 0 0 Z " fill="#6B4A53" transform="translate(56,199)"/>
<path d="M0 0 C9.9 0 19.8 0 30 0 C30 0.33 30 0.66 30 1 C21.09 1.99 21.09 1.99 12 3 C12 2.67 12 2.34 12 2 C8.04 1.67 4.08 1.34 0 1 C0 0.67 0 0.34 0 0 Z " fill="#AE0D38" transform="translate(90,163)"/>
<path d="M0 0 C2.64 0.33 5.28 0.66 8 1 C8 1.66 8 2.32 8 3 C9.32 3.66 10.64 4.32 12 5 C12 6.65 12 8.3 12 10 C11.01 10.495 11.01 10.495 10 11 C9.46375 9.88625 8.9275 8.7725 8.375 7.625 C6.65041109 4.55423918 6.15782274 4.06980621 2.75 2.5625 C1.8425 2.376875 0.935 2.19125 0 2 C0 1.34 0 0.68 0 0 Z " fill="#281F21" transform="translate(256,172)"/>
<path d="M0 0 C0.66 0 1.32 0 2 0 C1.35417745 3.40580003 0.5827992 6.73080063 -0.375 10.0625 C-0.60960937 10.89910156 -0.84421875 11.73570313 -1.0859375 12.59765625 C-2.05096773 15.13395365 -3.27821632 16.91750745 -5 19 C-4.39297368 12.3227105 -2.22368606 6.29872004 0 0 Z " fill="#5A494E" transform="translate(134,7)"/>
<path d="M0 0 C8.21052632 -0.13684211 8.21052632 -0.13684211 12 1 C13.99788438 1.34578768 15.99759451 1.68143549 18 2 C18.33 3.32 18.66 4.64 19 6 C18.29875 5.80664062 17.5975 5.61328125 16.875 5.4140625 C11.26507866 3.874383 5.64989553 2.38582343 0 1 C0 0.67 0 0.34 0 0 Z " fill="#676565" transform="translate(161,67)"/>
<path d="M0 0 C0.99 0.33 1.98 0.66 3 1 C3 9.91 3 18.82 3 28 C2.67 28 2.34 28 2 28 C1.98018066 27.32420898 1.96036133 26.64841797 1.93994141 25.95214844 C1.84456762 22.88437956 1.73493835 19.81728002 1.625 16.75 C1.57859375 15.15478516 1.57859375 15.15478516 1.53125 13.52734375 C1.49257812 12.50253906 1.45390625 11.47773438 1.4140625 10.421875 C1.3826416 9.47924805 1.3512207 8.53662109 1.31884766 7.56542969 C0.99399023 4.95164571 0.32323838 3.25646966 -1 1 C-0.67 0.67 -0.34 0.34 0 0 Z " fill="#080103" transform="translate(201,259)"/>
<path d="M0 0 C3.65564909 0.68761019 6.51867272 2.25449545 9.75 4.0625 C10.73484375 4.61035156 11.7196875 5.15820312 12.734375 5.72265625 C13.48203125 6.14417969 14.2296875 6.56570312 15 7 C15 7.66 15 8.32 15 9 C12.5625 8.625 12.5625 8.625 10 8 C9.67 7.34 9.34 6.68 9 6 C8.05125 5.690625 7.1025 5.38125 6.125 5.0625 C3.1581533 4.05377212 1.8905281 3.4156748 0 1 C0 0.67 0 0.34 0 0 Z " fill="#2A040E" transform="translate(41,188)"/>
<path d="M0 0 C0.89203125 0.01804688 1.7840625 0.03609375 2.703125 0.0546875 C3.71632813 0.08949219 3.71632813 0.08949219 4.75 0.125 C1.5877726 1.85669596 -1.51742722 2.8378976 -5 3.75 C-5.98484375 4.01039063 -6.9696875 4.27078125 -7.984375 4.5390625 C-9.10585937 4.82910156 -9.10585937 4.82910156 -10.25 5.125 C-9.25 2.125 -9.25 2.125 -7.515625 0.9453125 C-4.86680319 -0.01374367 -2.80934533 -0.07393014 0 0 Z " fill="#90757C" transform="translate(78.25,171.875)"/>
<path d="M0 0 C-12.375 4.125 -12.375 4.125 -19 4 C-15.91433716 1.94289144 -13.63014688 1.21653907 -10.0625 0.3125 C-8.50208984 -0.09548828 -8.50208984 -0.09548828 -6.91015625 -0.51171875 C-4.1294044 -0.97828785 -2.61519118 -0.93894816 0 0 Z " fill="#5F1125" transform="translate(95,168)"/>
<path d="M0 0 C0.66 0 1.32 0 2 0 C3.125 3.3125 3.125 3.3125 4 7 C3.01 8.485 3.01 8.485 2 10 C0.68 8.35 -0.64 6.7 -2 5 C-1.34 3.35 -0.68 1.7 0 0 Z " fill="#6E6C6D" transform="translate(39,181)"/>
<path d="M0 0 C9.41002278 -0.18451025 9.41002278 -0.18451025 14 1 C14 1.66 14 2.32 14 3 C7.07 2.505 7.07 2.505 0 2 C0 1.34 0 0.68 0 0 Z " fill="#3B0614" transform="translate(149,121)"/>
<path d="M0 0 C2.97 0.99 5.94 1.98 9 3 C9 3.66 9 4.32 9 5 C11.475 5.99 11.475 5.99 14 7 C13.01 7.495 13.01 7.495 12 8 C9.6875 7.109375 9.6875 7.109375 7 5.75 C5.6696875 5.09257812 5.6696875 5.09257812 4.3125 4.421875 C2 3 2 3 0 0 Z " fill="#858586" transform="translate(42,191)"/>
<path d="M0 0 C1.49341969 2.98683937 0.40648676 4.95160978 -0.4375 8.125 C-0.72496094 9.22070312 -1.01242188 10.31640625 -1.30859375 11.4453125 C-1.53675781 12.28835937 -1.76492187 13.13140625 -2 14 C-2.66 13.34 -3.32 12.68 -4 12 C-3.96712417 9.27130593 -3.43602229 6.7033382 -3 4 C-2.34 4 -1.68 4 -1 4 C-0.67 2.68 -0.34 1.36 0 0 Z " fill="#4B2B32" transform="translate(131,22)"/>
<path d="M0 0 C5.52677733 -0.19392201 9.75614911 0.2520497 15 2 C15 2.33 15 2.66 15 3 C9.47322267 3.19392201 5.24385089 2.7479503 0 1 C0 0.67 0 0.34 0 0 Z " fill="#929393" transform="translate(69,203)"/>
<path d="M0 0 C0.33 0.66 0.66 1.32 1 2 C-2.96 2 -6.92 2 -11 2 C-7.13288408 -0.57807728 -4.48091374 -1.69965693 0 0 Z " fill="#B21640" transform="translate(95,60)"/>
<path d="M0 0 C2.3828125 0.0234375 2.3828125 0.0234375 5.125 0.375 C6.03507813 0.48585937 6.94515625 0.59671875 7.8828125 0.7109375 C8.93082031 0.85402344 8.93082031 0.85402344 10 1 C5.61991557 3.58464442 2.88874887 2.81479148 -2 2 C-1.34 1.34 -0.68 0.68 0 0 Z " fill="#370C17" transform="translate(237,167)"/>
<path d="M0 0 C1.62580966 0.11398665 3.25067157 0.24155659 4.875 0.375 C5.77992188 0.44460937 6.68484375 0.51421875 7.6171875 0.5859375 C10 1 10 1 12 3 C8.69564916 4.12377697 6.9493138 3.89554742 3.75 2.5625 C3.04359375 2.27503906 2.3371875 1.98757812 1.609375 1.69140625 C1.07828125 1.46324219 0.5471875 1.23507813 0 1 C0 0.67 0 0.34 0 0 Z " fill="#150509" transform="translate(162,65)"/>
<path d="M0 0 C0 0.66 0 1.32 0 2 C-4.01804691 2.84098656 -7.01803543 3.05404945 -11 2 C-11 1.67 -11 1.34 -11 1 C-7.26513121 0.4254048 -3.78706732 0 0 0 Z " fill="#5C1B2C" transform="translate(240,205)"/>
<path d="M0 0 C2.64 0.33 5.28 0.66 8 1 C7.67 1.99 7.34 2.98 7 4 C4.69 3.34 2.38 2.68 0 2 C0 1.34 0 0.68 0 0 Z " fill="#240B11" transform="translate(256,172)"/>
<path d="M0 0 C1.6875 1.375 1.6875 1.375 3 3 C3 3.66 3 4.32 3 5 C0.03 4.01 -2.94 3.02 -6 2 C-3 0 -3 0 0 0 Z " fill="#666566" transform="translate(174,126)"/>
<path d="M0 0 C-3.96 1.98 -3.96 1.98 -8 4 C-8.33 3.34 -8.66 2.68 -9 2 C-8.01 2 -7.02 2 -6 2 C-6 1.34 -6 0.68 -6 0 C-4 -1 -4 -1 0 0 Z " fill="#8B5D69" transform="translate(198,111)"/>
</svg>
