<?xml version="1.0" encoding="UTF-8"?>
<svg version="1.1" xmlns="http://www.w3.org/2000/svg" width="355" height="327">
<path d="M0 0 C1.19797714 -0.00281982 2.39595428 -0.00563965 3.63023376 -0.00854492 C4.96546951 -0.0066002 6.30070511 -0.00455201 7.63594055 -0.00241089 C9.03732346 -0.00376559 10.43870601 -0.00554591 11.84008789 -0.00772095 C15.6595826 -0.01229589 19.4790504 -0.01050315 23.2985456 -0.00734186 C27.31301429 -0.00480812 31.32748068 -0.0071596 35.34194946 -0.00872803 C42.10694286 -0.01055116 48.87192537 -0.00814426 55.63691711 -0.00338745 C63.40044312 0.00200932 71.16394268 0.00032689 78.927468 -0.00521386 C85.62165762 -0.00979655 92.3158394 -0.01036928 99.01003009 -0.00777519 C102.99411468 -0.00623447 106.97818699 -0.00595583 110.96227074 -0.00931168 C139.39118861 -0.02984236 139.39118861 -0.02984236 153.44502258 0.55715942 C154.33659152 0.5937863 155.22816046 0.63041317 156.14674664 0.66814995 C189.27179013 2.28077456 219.826774 17.00984316 242.41841125 41.32620239 C263.49615845 64.97737466 274.81048458 96.89088535 273.72309875 128.57620239 C271.72717439 160.64740439 259.24318789 186.9552688 237.37153625 210.12698364 C236.32739563 211.26780396 236.32739563 211.26780396 235.26216125 212.43167114 C212.0247622 236.94119058 176.3366399 247.20241445 143.42856979 248.18499756 C132.49538748 248.41484458 121.55636357 248.32407339 110.6217804 248.26431274 C106.41078222 248.24354764 102.19975879 248.23465469 97.98872375 248.22463989 C89.78292684 248.2034366 81.57725047 248.16947783 73.37153625 248.12698364 C73.26667908 248.82392334 73.1618219 249.52086304 73.05378723 250.23892212 C71.74996819 258.50571131 69.94113927 266.59119591 67.96528625 274.72073364 C67.63640263 276.0840002 67.30775323 277.44732328 66.97932434 278.81069946 C66.2962898 281.64174794 65.61017466 284.47202664 64.92182922 287.30178833 C64.04136558 290.92262206 63.1692582 294.54541038 62.29944611 298.16881561 C61.62519405 300.97321654 60.94635427 303.77649145 60.2661438 306.57945251 C59.94254164 307.91550832 59.62040996 309.25192122 59.29980469 310.58869934 C58.85250704 312.45090407 58.39830382 314.311446 57.94380188 316.17190552 C57.68780212 317.22825195 57.43180237 318.28459839 57.16804504 319.37295532 C56.45373823 321.84276007 55.55086524 323.85838482 54.37153625 326.12698364 C37.76881429 326.28096787 21.16605157 326.42899872 4.5632143 326.56994724 C-3.14580741 326.63553112 -10.85480288 326.70306121 -18.56376648 326.775177 C-25.28308161 326.83802989 -32.0024173 326.89722706 -38.72180301 326.95203918 C-42.2794781 326.98118779 -45.83711606 327.01216369 -49.39473534 327.04751778 C-53.36672919 327.08692124 -57.33876448 327.11816281 -61.31083679 327.14871216 C-63.07921402 327.16813118 -63.07921402 327.16813118 -64.88331604 327.1879425 C-65.96720108 327.19498199 -67.05108612 327.20202148 -68.16781616 327.20927429 C-69.57677674 327.2217185 -69.57677674 327.2217185 -71.01420116 327.2344141 C-73.65029572 327.12608648 -76.06043694 326.71567128 -78.62846375 326.12698364 C-77.20592074 317.01667763 -75.41322506 308.00831035 -73.48002625 298.99417114 C-73.32878925 298.28506466 -73.17755226 297.57595818 -73.02173233 296.84536362 C-69.80377387 281.76018821 -66.42229867 266.71283598 -63.00657654 251.67141724 C-61.2490674 243.931508 -59.50116535 236.18942481 -57.75346375 228.44729614 C-57.5773695 227.66742592 -57.40127525 226.88755569 -57.21984482 226.08405304 C-53.22546879 208.38896292 -49.3186353 190.67508494 -45.42948914 172.95657349 C-44.90341742 170.5602406 -44.37729429 168.16391901 -43.85112 165.76760864 C-43.46054161 163.9887175 -43.46054161 163.9887175 -43.06207275 162.17388916 C-41.07836301 153.1493838 -39.07423856 144.12954653 -37.0620575 135.11135864 C-36.7597954 133.75636421 -36.45753914 132.40136849 -36.1552887 131.04637146 C-36.00566366 130.37562434 -35.85603863 129.70487722 -35.7018795 129.01380444 C-35.55229097 128.34321656 -35.40270245 127.67262869 -35.24858093 126.98171997 C-35.09900751 126.31120008 -34.94943409 125.64068018 -34.79532814 124.9498415 C-29.7675987 102.40938099 -24.82448338 79.85403824 -20.05375671 57.25759888 C-17.45788911 44.96973976 -14.79691621 32.69804613 -12.06596375 20.43948364 C-11.89534424 19.67310577 -11.72472473 18.90672791 -11.54893494 18.11712646 C-9.61654047 9.44645048 -9.61654047 9.44645048 -8.62846375 5.12698364 C-8.47385681 4.35120972 -8.31924988 3.57543579 -8.15995789 2.77615356 C-7.98456482 2.23192749 -7.80917175 1.68770142 -7.62846375 1.12698364 C-4.97318155 -0.20065745 -2.97467234 0.0010733 0 0 Z " fill="#0D2040" transform="translate(79.62846374511719,-0.126983642578125)"/>
<path d="M0 0 C1.19797714 -0.00281982 2.39595428 -0.00563965 3.63023376 -0.00854492 C4.96546951 -0.0066002 6.30070511 -0.00455201 7.63594055 -0.00241089 C9.03732346 -0.00376559 10.43870601 -0.00554591 11.84008789 -0.00772095 C15.6595826 -0.01229589 19.4790504 -0.01050315 23.2985456 -0.00734186 C27.31301429 -0.00480812 31.32748068 -0.0071596 35.34194946 -0.00872803 C42.10694286 -0.01055116 48.87192537 -0.00814426 55.63691711 -0.00338745 C63.40044312 0.00200932 71.16394268 0.00032689 78.927468 -0.00521386 C85.62165762 -0.00979655 92.3158394 -0.01036928 99.01003009 -0.00777519 C102.99411468 -0.00623447 106.97818699 -0.00595583 110.96227074 -0.00931168 C139.39118861 -0.02984236 139.39118861 -0.02984236 153.44502258 0.55715942 C154.33659152 0.5937863 155.22816046 0.63041317 156.14674664 0.66814995 C189.27179013 2.28077456 219.826774 17.00984316 242.41841125 41.32620239 C263.49615845 64.97737466 274.81048458 96.89088535 273.72309875 128.57620239 C271.72717439 160.64740439 259.24318789 186.9552688 237.37153625 210.12698364 C236.32739563 211.26780396 236.32739563 211.26780396 235.26216125 212.43167114 C212.0247622 236.94119058 176.3366399 247.20241445 143.42856979 248.18499756 C132.49538748 248.41484458 121.55636357 248.32407339 110.6217804 248.26431274 C106.41078222 248.24354764 102.19975879 248.23465469 97.98872375 248.22463989 C89.78292684 248.2034366 81.57725047 248.16947783 73.37153625 248.12698364 C73.26667908 248.82392334 73.1618219 249.52086304 73.05378723 250.23892212 C71.74996819 258.50571131 69.94113927 266.59119591 67.96528625 274.72073364 C67.63640263 276.0840002 67.30775323 277.44732328 66.97932434 278.81069946 C66.2962898 281.64174794 65.61017466 284.47202664 64.92182922 287.30178833 C64.04136558 290.92262206 63.1692582 294.54541038 62.29944611 298.16881561 C61.62519405 300.97321654 60.94635427 303.77649145 60.2661438 306.57945251 C59.94254164 307.91550832 59.62040996 309.25192122 59.29980469 310.58869934 C58.85250704 312.45090407 58.39830382 314.311446 57.94380188 316.17190552 C57.68780212 317.22825195 57.43180237 318.28459839 57.16804504 319.37295532 C56.45373823 321.84276007 55.55086524 323.85838482 54.37153625 326.12698364 C37.76881429 326.28096787 21.16605157 326.42899872 4.5632143 326.56994724 C-3.14580741 326.63553112 -10.85480288 326.70306121 -18.56376648 326.775177 C-25.28308161 326.83802989 -32.0024173 326.89722706 -38.72180301 326.95203918 C-42.2794781 326.98118779 -45.83711606 327.01216369 -49.39473534 327.04751778 C-53.36672919 327.08692124 -57.33876448 327.11816281 -61.31083679 327.14871216 C-63.07921402 327.16813118 -63.07921402 327.16813118 -64.88331604 327.1879425 C-65.96720108 327.19498199 -67.05108612 327.20202148 -68.16781616 327.20927429 C-69.57677674 327.2217185 -69.57677674 327.2217185 -71.01420116 327.2344141 C-73.65029572 327.12608648 -76.06043694 326.71567128 -78.62846375 326.12698364 C-77.20592074 317.01667763 -75.41322506 308.00831035 -73.48002625 298.99417114 C-73.32878925 298.28506466 -73.17755226 297.57595818 -73.02173233 296.84536362 C-69.80377387 281.76018821 -66.42229867 266.71283598 -63.00657654 251.67141724 C-61.2490674 243.931508 -59.50116535 236.18942481 -57.75346375 228.44729614 C-57.5773695 227.66742592 -57.40127525 226.88755569 -57.21984482 226.08405304 C-53.22546879 208.38896292 -49.3186353 190.67508494 -45.42948914 172.95657349 C-44.90341742 170.5602406 -44.37729429 168.16391901 -43.85112 165.76760864 C-43.46054161 163.9887175 -43.46054161 163.9887175 -43.06207275 162.17388916 C-41.07836301 153.1493838 -39.07423856 144.12954653 -37.0620575 135.11135864 C-36.7597954 133.75636421 -36.45753914 132.40136849 -36.1552887 131.04637146 C-36.00566366 130.37562434 -35.85603863 129.70487722 -35.7018795 129.01380444 C-35.55229097 128.34321656 -35.40270245 127.67262869 -35.24858093 126.98171997 C-35.09900751 126.31120008 -34.94943409 125.64068018 -34.79532814 124.9498415 C-29.7675987 102.40938099 -24.82448338 79.85403824 -20.05375671 57.25759888 C-17.45788911 44.96973976 -14.79691621 32.69804613 -12.06596375 20.43948364 C-11.89534424 19.67310577 -11.72472473 18.90672791 -11.54893494 18.11712646 C-9.61654047 9.44645048 -9.61654047 9.44645048 -8.62846375 5.12698364 C-8.47385681 4.35120972 -8.31924988 3.57543579 -8.15995789 2.77615356 C-7.98456482 2.23192749 -7.80917175 1.68770142 -7.62846375 1.12698364 C-4.97318155 -0.20065745 -2.97467234 0.0010733 0 0 Z M0.37153625 10.12698364 C-0.11708937 11.71845898 -0.60276615 13.31083989 -1.08720398 14.90359497 C-1.35798264 15.79025345 -1.62876129 16.67691193 -1.90774536 17.59043884 C-2.77597039 20.64612846 -3.28404482 23.66580032 -3.69096375 26.81448364 C-4.29350036 31.42245417 -5.33024691 35.66619346 -6.62846375 40.12698364 C-7.17662189 42.6002522 -7.69712926 45.0797981 -8.19096375 47.56448364 C-8.32172302 48.21973022 -8.4524823 48.87497681 -8.58720398 49.55007935 C-9.25520607 52.96379452 -9.82684568 56.35536207 -10.19096375 59.81448364 C-10.59076107 62.84152056 -11.22166445 64.5009583 -12.62846375 67.12698364 C-12.62846375 68.44698364 -12.62846375 69.76698364 -12.62846375 71.12698364 C-12.02438753 71.13121558 -11.42031132 71.13544752 -10.79792976 71.1398077 C3.93489963 71.24333991 18.66768501 71.35201025 33.40043449 71.4663229 C40.52522595 71.52148226 47.6500224 71.57493475 54.77485657 71.6242981 C60.98851012 71.66735287 67.20212939 71.7136825 73.41572964 71.76386219 C76.70244979 71.79029286 79.98916361 71.8146509 83.27592087 71.83605766 C86.95481296 71.86029675 90.63361668 71.89032336 94.31245422 71.92166138 C95.38923935 71.92741684 96.46602448 71.9331723 97.57543945 71.93910217 C106.68489683 72.02695252 115.33096077 72.60720252 124.12153625 75.06448364 C125.35388 75.40350708 126.58622375 75.74253052 127.85591125 76.09182739 C130.11299175 76.75641221 132.35556043 77.47379216 134.57466125 78.25588989 C137.51981443 79.32522613 137.51981443 79.32522613 141.37153625 79.12698364 C141.37153625 79.78698364 141.37153625 80.44698364 141.37153625 81.12698364 C142.69153625 81.12698364 144.01153625 81.12698364 145.37153625 81.12698364 C145.37153625 81.78698364 145.37153625 82.44698364 145.37153625 83.12698364 C146.16817688 83.51370239 146.9648175 83.90042114 147.78559875 84.29885864 C157.5070868 89.07681627 157.5070868 89.07681627 160.99653625 91.50198364 C163.16701932 93.31521161 163.16701932 93.31521161 165.37153625 93.12698364 C165.37153625 93.78698364 165.37153625 94.44698364 165.37153625 95.12698364 C166.69153625 95.45698364 168.01153625 95.78698364 169.37153625 96.12698364 C169.37153625 96.78698364 169.37153625 97.44698364 169.37153625 98.12698364 C171.02153625 98.45698364 172.67153625 98.78698364 174.37153625 99.12698364 C174.37153625 99.78698364 174.37153625 100.44698364 174.37153625 101.12698364 C177.34153625 101.62198364 177.34153625 101.62198364 180.37153625 102.12698364 C180.37153625 102.78698364 180.37153625 103.44698364 180.37153625 104.12698364 C187.28089829 106.59671305 193.03409118 107.44144557 200.37153625 107.12698364 C200.37153625 111.41698364 200.37153625 115.70698364 200.37153625 120.12698364 C153.84153625 119.79698364 107.31153625 119.46698364 59.37153625 119.12698364 C59.37153625 106.12698364 59.37153625 106.12698364 60.37153625 105.12698364 C63.20669368 93.17742727 63.20669368 93.17742727 60.55903625 81.68948364 C58.56206349 78.90370381 58.56206349 78.90370381 55.37153625 78.12698364 C53.11755467 78.03717899 50.8609451 78.0094084 48.60517883 78.01345825 C47.92199081 78.01331223 47.2388028 78.0131662 46.53491211 78.01301575 C44.27859819 78.01371195 42.02236699 78.02149069 39.7660675 78.02932739 C38.20093837 78.03119261 36.63580864 78.03261602 35.07067871 78.03361511 C30.95250332 78.03743213 26.83436323 78.04725546 22.71620178 78.05831909 C18.51342751 78.06855074 14.31064752 78.07311649 10.10786438 78.07815552 C1.86240548 78.08887845 -6.38302474 78.1059451 -14.62846375 78.12698364 C-15.10708514 80.0145461 -15.58385248 81.90257874 -16.05986023 83.790802 C-16.3255632 84.84214828 -16.59126617 85.89349457 -16.86502075 86.97669983 C-17.96603434 91.51994055 -18.8455683 96.09297007 -19.69096375 100.68948364 C-19.8601532 101.59335815 -20.02934265 102.49723267 -20.20365906 103.42849731 C-20.68272803 105.99391628 -21.15676743 108.56020013 -21.62846375 111.12698364 C-21.97457703 113.00643677 -21.97457703 113.00643677 -22.3276825 114.92385864 C-22.76606577 117.3240848 -23.2009104 119.72480894 -23.62846375 122.12698364 C-24.28846375 122.12698364 -24.94846375 122.12698364 -25.62846375 122.12698364 C-25.62846375 123.77698364 -25.62846375 125.42698364 -25.62846375 127.12698364 C49.28153625 127.12698364 124.19153625 127.12698364 201.37153625 127.12698364 C199.37153625 141.12698364 199.37153625 141.12698364 198.37153625 142.12698364 C196.35559044 142.36126142 194.33306225 142.54034488 192.30903625 142.68948364 C191.20430969 142.77327271 190.09958313 142.85706177 188.96138 142.94338989 C188.10673157 143.00397583 187.25208313 143.06456177 186.37153625 143.12698364 C186.37153625 143.78698364 186.37153625 144.44698364 186.37153625 145.12698364 C185.17528625 145.10635864 183.97903625 145.08573364 182.74653625 145.06448364 C175.27029006 145.81568541 169.37565771 150.98071119 163.37153625 155.12698364 C162.71153625 155.45698364 162.05153625 155.78698364 161.37153625 156.12698364 C161.37153625 156.78698364 161.37153625 157.44698364 161.37153625 158.12698364 C160.71153625 158.37448364 160.05153625 158.62198364 159.37153625 158.87698364 C154.76694126 160.79556489 150.34334276 163.06793273 145.94966125 165.42776489 C141.26688015 167.89276923 137.06070004 169.63500223 131.8598175 170.59573364 C127.67519228 171.48915441 123.64589706 172.89524832 119.58247375 174.22463989 C113.85098729 175.8353131 108.27894986 176.25101659 102.3441925 176.22463989 C101.05835266 176.22141724 99.77251282 176.21819458 98.44770813 176.21487427 C97.10981681 176.20652166 95.77192618 176.19805675 94.43403625 176.18948364 C93.06880352 176.18446023 91.70356899 176.17989881 90.33833313 176.17581177 C87.01602169 176.16407215 83.69380217 176.14765043 80.37153625 176.12698364 C80.37153625 175.46698364 80.37153625 174.80698364 80.37153625 174.12698364 C79.13403625 173.67323364 77.89653625 173.21948364 76.62153625 172.75198364 C75.20452599 172.21121647 73.7878299 171.66962489 72.37153625 171.12698364 C71.58778625 170.83823364 70.80403625 170.54948364 69.99653625 170.25198364 C67.68377269 168.65083964 67.37615534 166.73003011 66.37153625 164.12698364 C65.57235313 162.55763064 64.7594626 160.99519372 63.93403625 159.43948364 C62.16089441 155.96060009 60.84229454 152.64099598 59.80903625 148.87698364 C58.60431276 144.57923411 57.26600839 141.54772344 54.37153625 138.12698364 C52.25034497 137.17466767 52.25034497 137.17466767 50.37153625 137.12698364 C50.37153625 136.46698364 50.37153625 135.80698364 50.37153625 135.12698364 C46.83321832 133.94754433 44.00531813 133.98544255 40.26972961 133.96585083 C39.5507399 133.96088593 38.83175018 133.95592102 38.0909729 133.95080566 C35.7144322 133.93620857 33.33795815 133.92938791 30.96138 133.92385864 C29.31136065 133.91810735 27.66134133 133.91234962 26.01132202 133.90658569 C22.55383492 133.89608421 19.09637104 133.89023525 15.63887024 133.88674927 C11.20096936 133.88125115 6.76337322 133.85719174 2.3255682 133.82877731 C-1.08098258 133.81019287 -4.48745912 133.8049477 -7.89405632 133.80341339 C-9.5307883 133.80037932 -11.16751874 133.79232553 -12.80420113 133.77922821 C-15.08839104 133.7622467 -17.37182491 133.7640275 -19.65605164 133.77053833 C-21.60771996 133.76506989 -21.60771996 133.76506989 -23.59881592 133.75949097 C-24.5985997 133.88076355 -25.59838348 134.00203613 -26.62846375 134.12698364 C-28.9816497 137.65676258 -29.49421635 140.90997512 -30.19096375 145.00198364 C-30.44210029 146.41607555 -30.69339868 147.83013873 -30.94487 149.24417114 C-31.17045593 150.52549927 -31.39604187 151.80682739 -31.62846375 153.12698364 C-31.82182312 154.04092896 -32.0151825 154.95487427 -32.21440125 155.89651489 C-32.78756205 158.9840132 -32.68985792 161.9958808 -32.62846375 165.12698364 C-33.28846375 165.12698364 -33.94846375 165.12698364 -34.62846375 165.12698364 C-35.13915365 166.97823453 -35.6364844 168.83317269 -36.12846375 170.68948364 C-36.40690125 171.72202271 -36.68533875 172.75456177 -36.97221375 173.81838989 C-37.66986632 177.33572161 -37.67301056 180.55024533 -37.62846375 184.12698364 C-19.46887659 184.1738272 -1.30930524 184.2090328 16.8503294 184.23060799 C25.2832816 184.24089462 33.71619613 184.25490465 42.14912415 184.27786255 C49.50432942 184.2978768 56.85950739 184.31071904 64.21473914 184.31516063 C68.1046673 184.31775448 71.9945174 184.32379588 75.88442039 184.33844376 C79.5558199 184.35215505 83.22711019 184.35617933 86.89853287 184.35319901 C88.86771295 184.354 90.83688151 184.36468999 92.80603027 184.37582397 C100.83750944 184.35748818 108.47513401 183.58027814 116.37153625 182.12698364 C117.27954326 181.96106783 118.18755026 181.79515202 119.12307262 181.62420845 C123.66960045 180.76894253 128.17999338 179.7440888 132.68403625 178.68948364 C133.64954407 178.46389771 134.61505188 178.23831177 135.6098175 178.00588989 C138.53517959 177.07490479 140.77097714 175.73847765 143.37153625 174.12698364 C145.68845079 173.40532174 148.02002549 172.72638835 150.37153625 172.12698364 C150.37153625 171.46698364 150.37153625 170.80698364 150.37153625 170.12698364 C152.35153625 169.79698364 154.33153625 169.46698364 156.37153625 169.12698364 C156.37153625 168.46698364 156.37153625 167.80698364 156.37153625 167.12698364 C156.92841125 167.02385864 157.48528625 166.92073364 158.05903625 166.81448364 C160.84844636 165.98519956 162.98544266 164.78399309 165.37153625 163.12698364 C165.37153625 162.46698364 165.37153625 161.80698364 165.37153625 161.12698364 C165.92841125 161.04448364 166.48528625 160.96198364 167.05903625 160.87698364 C170.08413864 159.89586936 171.93196826 158.15004003 174.37153625 156.12698364 C178.2028 153.50559266 181.88021347 152.27183063 186.37153625 151.12698364 C186.37153625 150.46698364 186.37153625 149.80698364 186.37153625 149.12698364 C190.00153625 149.12698364 193.63153625 149.12698364 197.37153625 149.12698364 C197.37153625 151.10698364 197.37153625 153.08698364 197.37153625 155.12698364 C196.71153625 155.12698364 196.05153625 155.12698364 195.37153625 155.12698364 C195.04153625 157.10698364 194.71153625 159.08698364 194.37153625 161.12698364 C193.71153625 161.12698364 193.05153625 161.12698364 192.37153625 161.12698364 C192.04153625 163.10698364 191.71153625 165.08698364 191.37153625 167.12698364 C190.71153625 167.12698364 190.05153625 167.12698364 189.37153625 167.12698364 C188.69745317 168.39389872 188.03253129 169.66569113 187.37153625 170.93948364 C186.81466125 172.00102661 186.81466125 172.00102661 186.24653625 173.08401489 C185.17468267 175.21619093 185.17468267 175.21619093 185.37153625 178.12698364 C184.71153625 178.12698364 184.05153625 178.12698364 183.37153625 178.12698364 C183.37153625 178.78698364 183.37153625 179.44698364 183.37153625 180.12698364 C182.71153625 180.12698364 182.05153625 180.12698364 181.37153625 180.12698364 C178.4091793 183.76022053 178.4091793 183.76022053 177.37153625 188.12698364 C176.38153625 188.45698364 175.39153625 188.78698364 174.37153625 189.12698364 C172.92231684 190.62788617 172.92231684 190.62788617 171.55903625 192.43948364 C169.54216384 194.90623487 167.70128583 196.75141299 164.99653625 198.43948364 C164.13028625 198.99635864 163.26403625 199.55323364 162.37153625 200.12698364 C162.37153625 200.78698364 162.37153625 201.44698364 162.37153625 202.12698364 C161.25778625 202.52917114 161.25778625 202.52917114 160.12153625 202.93948364 C157.46833307 204.08518502 155.65959787 205.39360363 153.37153625 207.12698364 C144.93424227 212.06588744 134.8955195 214.74759095 125.30513 212.36526489 C117.28039444 210.01270626 109.69863769 207.13822699 102.49653625 202.87698364 C99.53222278 200.88268196 99.53222278 200.88268196 96.37153625 201.12698364 C96.37153625 200.46698364 96.37153625 199.80698364 96.37153625 199.12698364 C90.25207983 193.1682887 84.68539717 190.22219092 76.15592957 190.09829712 C74.48072739 190.13437073 74.48072739 190.13437073 72.77168274 190.1711731 C71.56384628 190.165186 70.35600983 190.15919891 69.11157227 190.1530304 C65.83429474 190.14503602 62.5597657 190.17233497 59.28285861 190.21703744 C55.84323763 190.2561966 52.40364183 190.25178823 48.96383667 190.25300598 C43.19985445 190.26129207 37.43672605 190.2997136 31.67304993 190.3586731 C25.00794613 190.42668798 18.34356854 190.45632944 11.6781382 190.46364814 C4.56882484 190.4715119 -2.54023357 190.5022783 -9.64943194 190.54244208 C-11.69592938 190.55277024 -13.74241265 190.559331 -15.78892708 190.56527138 C-19.59066148 190.58111225 -23.3916418 190.61707732 -27.19316101 190.65945435 C-28.32818054 190.66123688 -29.46320007 190.66301941 -30.63261414 190.66485596 C-31.66282181 190.68054123 -32.69302948 190.6962265 -33.75445557 190.71238708 C-35.10188764 190.72382484 -35.10188764 190.72382484 -36.47654057 190.73549366 C-37.18667521 190.86468535 -37.89680986 190.99387705 -38.62846375 191.12698364 C-43.63880879 198.64250121 -44.1136344 208.80949999 -45.10112 217.58401489 C-45.64544558 221.24107644 -46.58515572 224.58202097 -47.62846375 228.12698364 C-48.55107429 232.06550459 -49.37817189 236.02523401 -50.21635437 239.98245239 C-51.52340422 246.02192412 -51.52340422 246.02192412 -52.62846375 247.12698364 C-53.86656645 252.07939445 -54.7917865 257.04452037 -55.63749695 262.07839966 C-55.75826599 262.79568237 -55.87903503 263.51296509 -56.00346375 264.25198364 C-56.12616638 264.98151245 -56.24886902 265.71104126 -56.37528992 266.462677 C-57.24971855 271.46559146 -58.4226079 276.30778403 -59.81596375 281.18948364 C-61.27841584 286.40537744 -62.06870588 290.73401748 -61.62846375 296.12698364 C-62.28846375 296.12698364 -62.94846375 296.12698364 -63.62846375 296.12698364 C-63.96969955 298.12565051 -64.30103154 300.12600906 -64.62846375 302.12698364 C-64.81408875 303.24073364 -64.99971375 304.35448364 -65.19096375 305.50198364 C-65.78822396 309.84216022 -65.78822396 309.84216022 -65.62846375 317.12698364 C-28.33846375 317.12698364 8.95153625 317.12698364 47.37153625 317.12698364 C47.37153625 316.46698364 47.37153625 315.80698364 47.37153625 315.12698364 C48.03153625 315.12698364 48.69153625 315.12698364 49.37153625 315.12698364 C49.49270813 314.12538208 49.61388 313.12378052 49.73872375 312.09182739 C49.90770776 310.74934334 50.07699484 309.40689741 50.24653625 308.06448364 C50.32516907 307.4077063 50.40380188 306.75092896 50.4848175 306.07424927 C51.05747116 301.6031457 52.11971362 297.46663544 53.37153625 293.12698364 C53.44557303 290.7948252 53.46669512 288.45837577 53.37153625 286.12698364 C54.03153625 286.12698364 54.69153625 286.12698364 55.37153625 286.12698364 C56.04761894 283.27475979 56.71258741 280.42067072 57.37153625 277.56448364 C57.65770813 276.36468872 57.65770813 276.36468872 57.94966125 275.14065552 C59.04614747 270.34352833 59.58285823 266.04682331 59.37153625 261.12698364 C60.03153625 261.12698364 60.69153625 261.12698364 61.37153625 261.12698364 C63.02153625 254.19698364 64.67153625 247.26698364 66.37153625 240.12698364 C68.96923889 240.10716431 71.56694153 240.08734497 74.24336243 240.06692505 C82.86875985 239.9997322 91.49404118 239.92209851 100.1193037 239.83945656 C105.34389834 239.78971321 110.56847487 239.7433829 115.79316711 239.70510864 C120.84424943 239.66797635 125.89517167 239.62154428 130.94611549 239.56892014 C132.86398292 239.55052349 134.78188447 239.53536249 136.69980431 239.52363968 C149.62458673 239.44188218 161.92149862 239.0328778 174.37153625 235.12698364 C175.70280448 234.785496 177.03628071 234.45253166 178.37153625 234.12698364 C182.06716729 233.21751194 185.71799548 232.1925997 189.37153625 231.12698364 C189.37153625 230.46698364 189.37153625 229.80698364 189.37153625 229.12698364 C190.34091125 229.02385864 191.31028625 228.92073364 192.30903625 228.81448364 C199.09464952 227.82146707 204.68269427 226.30087824 209.37153625 221.12698364 C210.34091125 220.65260864 211.31028625 220.17823364 212.30903625 219.68948364 C215.77183697 217.92274858 217.65316392 215.90713717 220.37153625 213.12698364 C221.90888797 211.97536745 223.45112446 210.8302608 224.99653625 209.68948364 C231.13326386 204.87564343 235.56257568 198.93809934 240.17134094 192.71536255 C241.30202789 191.21897336 242.49532595 189.77049002 243.69184875 188.32620239 C245.5738624 186.32329313 245.5738624 186.32329313 245.37153625 184.12698364 C246.03153625 184.12698364 246.69153625 184.12698364 247.37153625 184.12698364 C248.47962451 181.79544451 249.58304901 179.4618741 250.68403625 177.12698364 C250.99276672 176.47858521 251.30149719 175.83018677 251.61958313 175.16213989 C255.22103001 167.50432652 257.86759245 159.81421816 259.99653625 151.62698364 C260.21309875 150.82389771 260.42966125 150.02081177 260.65278625 149.19338989 C262.80801841 140.98488224 263.56736458 133.16438971 263.55903625 124.68948364 C263.55823059 123.82710083 263.55742493 122.96471802 263.55659485 122.07620239 C263.50185214 116.21980636 263.16329591 110.44533893 262.49653625 104.62698364 C262.41814514 103.9277478 262.33975403 103.22851196 262.25898743 102.50808716 C261.80979947 99.02440416 261.20493442 96.14669827 259.37153625 93.12698364 C258.71153625 93.12698364 258.05153625 93.12698364 257.37153625 93.12698364 C257.46434875 91.92042114 257.46434875 91.92042114 257.55903625 90.68948364 C257.32014218 86.15049631 255.95110361 82.35796763 254.37153625 78.12698364 C253.71153625 78.12698364 253.05153625 78.12698364 252.37153625 78.12698364 C252.28903625 77.32260864 252.20653625 76.51823364 252.12153625 75.68948364 C251.16956951 71.16764159 249.35573446 67.27995663 247.37153625 63.12698364 C246.71153625 63.12698364 246.05153625 63.12698364 245.37153625 63.12698364 C245.10985657 62.39479614 244.84817688 61.66260864 244.5785675 60.90823364 C241.75002128 54.39067729 236.47797038 48.96465808 231.37153625 44.12698364 C230.16497375 42.85854614 230.16497375 42.85854614 228.93403625 41.56448364 C224.31048872 36.95364264 224.31048872 36.95364264 218.37153625 35.12698364 C218.11759094 34.52499146 217.86364563 33.92299927 217.602005 33.30276489 C214.12045872 27.14650685 205.7307375 24.1878614 199.55903625 21.25198364 C198.91297424 20.94156128 198.26691223 20.63113892 197.60127258 20.31130981 C194.21025895 18.74809538 192.18012588 18.12698364 188.37153625 18.12698364 C188.37153625 17.46698364 188.37153625 16.80698364 188.37153625 16.12698364 C186.62336767 15.62061757 184.87291363 15.12213745 183.12153625 14.62698364 C182.147005 14.34854614 181.17247375 14.07010864 180.16841125 13.78323364 C177.20130212 12.97469498 177.20130212 12.97469498 173.37153625 13.12698364 C173.37153625 12.46698364 173.37153625 11.80698364 173.37153625 11.12698364 C164.6832277 9.97629954 156.01880549 9.99180311 147.27339172 10.01345825 C145.66602582 10.01374079 144.05865978 10.01358109 142.45129395 10.01301575 C138.11523607 10.01273037 133.77920621 10.018585 129.44315481 10.0255897 C124.90147133 10.03186659 120.35978712 10.03243046 115.81809998 10.03361511 C107.23005478 10.03671569 98.64202241 10.04491184 90.05398285 10.0549646 C80.271593 10.06616538 70.48920252 10.07164616 60.70680785 10.07666004 C40.59504351 10.08709558 20.48329069 10.10467024 0.37153625 10.12698364 Z " fill="#D1D1D2" transform="translate(79.62846374511719,-0.126983642578125)"/>
<path d="M0 0 C74.91 0 149.82 0 227 0 C227 10.29411765 227 10.29411765 225 15 C224 16 224 16 221.27734375 16.09765625 C219.62412109 16.08025391 219.62412109 16.08025391 217.9375 16.0625 C216.83277344 16.05347656 215.72804688 16.04445312 214.58984375 16.03515625 C213.73519531 16.02355469 212.88054687 16.01195312 212 16 C212 16.66 212 17.32 212 18 C211.32195312 18.13535156 210.64390625 18.27070313 209.9453125 18.41015625 C203.27305743 19.95346179 198.58759599 22.26273394 193.19140625 26.4765625 C191.05571436 27.9612681 189.53939386 28.57194728 187 29 C187 29.66 187 30.32 187 31 C182.67624704 33.35163366 178.34094828 35.68033584 174 38 C173.08476562 38.49757812 172.16953125 38.99515625 171.2265625 39.5078125 C166.66977663 41.90839054 162.54996546 43.53373196 157.48828125 44.46875 C153.30365603 45.36217077 149.2743608 46.76826467 145.2109375 48.09765625 C138.15410287 50.08078131 131.27023424 50.15431546 124 50.125 C122.56140625 50.13080078 122.56140625 50.13080078 121.09375 50.13671875 C115.95394638 50.12965858 111.06448904 49.88628558 106 49 C106 48.34 106 47.68 106 47 C105.13375 46.9175 104.2675 46.835 103.375 46.75 C97.95933345 45.54651854 94.8659366 43.28904747 91.76953125 38.6796875 C91.09918307 37.42088215 90.44728972 36.15210595 89.8125 34.875 C89.46864258 34.20992432 89.12478516 33.54484863 88.77050781 32.85961914 C86.51620574 28.38079084 84.90374867 23.95191795 83.640625 19.09375 C82.64388618 15.83611582 81.15778132 13.62979599 79 11 C78.01 10.67 77.02 10.34 76 10 C76 9.34 76 8.68 76 8 C50.59 7.67 25.18 7.34 -1 7 C-0.67 4.69 -0.34 2.38 0 0 Z " fill="#F9B325" transform="translate(54,127)"/>
<path d="M0 0 C15.47334581 -0.02341189 30.94669029 -0.04101978 46.42004967 -0.05181217 C53.60539723 -0.05695756 60.79073375 -0.06396662 67.97607422 -0.07543945 C74.24243637 -0.08544014 80.50879052 -0.0918662 86.77516043 -0.09408849 C90.08984789 -0.09538649 93.40450728 -0.09894755 96.71918869 -0.10573006 C100.4291798 -0.11301766 104.13912395 -0.11398769 107.84912109 -0.11352539 C109.47832489 -0.1189183 109.47832489 -0.1189183 111.14044189 -0.12442017 C120.18348706 -0.11227379 128.77527887 0.42828473 137.5 2.875 C138.76972656 3.22820312 140.03945312 3.58140625 141.34765625 3.9453125 C145.9092852 5.26257434 150.46557099 6.5916597 155 8 C155 8.66 155 9.32 155 10 C156.32 10 157.64 10 159 10 C159 10.66 159 11.32 159 12 C159.721875 12.10570313 160.44375 12.21140625 161.1875 12.3203125 C164.25815229 13.0623868 166.33219229 14.19928328 169 15.875 C169.825 16.38804688 170.65 16.90109375 171.5 17.4296875 C172.325 17.94789062 173.15 18.46609375 174 19 C175.3921875 19.77730469 175.3921875 19.77730469 176.8125 20.5703125 C177.534375 21.04210937 178.25625 21.51390625 179 22 C179 22.66 179 23.32 179 24 C180.32 24.33 181.64 24.66 183 25 C183 25.66 183 26.32 183 27 C184.65 27.33 186.3 27.66 188 28 C188 28.66 188 29.32 188 30 C189.98 30.33 191.96 30.66 194 31 C194 31.66 194 32.32 194 33 C198.44936465 33.75981458 202.90581802 34.43006859 207.375 35.0625 C208.62023437 35.23910156 209.86546875 35.41570312 211.1484375 35.59765625 C212.08945312 35.73042969 213.03046875 35.86320312 214 36 C214 40.29 214 44.58 214 49 C196.20650322 49.02314101 178.4130116 49.04099056 160.61950302 49.05181217 C152.35782102 49.0569702 144.09614854 49.06400355 135.83447266 49.07543945 C128.63427132 49.08540131 121.43407687 49.09185702 114.23386884 49.09408849 C110.42082443 49.09539304 106.60779975 49.09846278 102.79476166 49.10573006 C99.20630991 49.11251393 95.61788603 49.11461212 92.02942848 49.11310768 C90.08357513 49.11351425 88.13772482 49.11889714 86.19187927 49.12442017 C84.45452263 49.12235817 84.45452263 49.12235817 82.68206787 49.12025452 C81.17217096 49.12163721 81.17217096 49.12163721 79.63177109 49.12304783 C77.23483857 49.01097982 75.25420288 48.81525024 73 48 C71.68835158 45.37670316 71.86737154 43.36301375 71.875 40.4375 C71.87242187 39.44621094 71.86984375 38.45492187 71.8671875 37.43359375 C72 35 72 35 73 34 C75.90184406 22.54606473 75.90184406 22.54606473 73.5 11.625 C73.005 11.08875 72.51 10.5525 72 10 C72 9.34 72 8.68 72 8 C47.91 7.67 23.82 7.34 -1 7 C-0.67 4.69 -0.34 2.38 0 0 Z " fill="#FAB325" transform="translate(66,71)"/>
<path d="M0 0 C3.02964783 -0.36749268 3.02964783 -0.36749268 6.97241211 -0.35644531 C8.0482682 -0.35951187 8.0482682 -0.35951187 9.14585876 -0.36264038 C11.52327748 -0.36565515 13.90000714 -0.3471493 16.27734375 -0.328125 C17.92639494 -0.32506809 19.57544871 -0.32319145 21.22450256 -0.32244873 C24.68386691 -0.31784109 28.14299906 -0.30339922 31.60229492 -0.28125 C36.03890537 -0.25298939 40.4753326 -0.24204114 44.9120245 -0.2375679 C48.31862729 -0.23341207 51.72519296 -0.22359285 55.13177681 -0.21169281 C56.7676622 -0.20599079 58.40355116 -0.20123185 60.03944206 -0.19742584 C62.32575627 -0.1905566 64.6119255 -0.17692038 66.89819336 -0.16113281 C68.20010117 -0.15430481 69.50200897 -0.14747681 70.84336853 -0.14044189 C74 0 74 0 77 1 C77 1.66 77 2.32 77 3 C77.60714844 3.0928125 78.21429688 3.185625 78.83984375 3.28125 C82.23310639 4.41029218 83.10722998 6.72190214 84.8515625 9.703125 C86.27983902 12.55967803 87.19318659 15.43609545 88.109375 18.48828125 C89.59774223 22.68573796 91.72633123 26.55892299 93.79296875 30.49609375 C95 33 95 33 95 35 C95.5775 35.28875 96.155 35.5775 96.75 35.875 C98.83333333 36.91666667 100.91666667 37.95833333 103 39 C103 39.66 103 40.32 103 41 C103.99 41 104.98 41 106 41 C106 41.66 106 42.32 106 43 C119.365 43.495 119.365 43.495 133 44 C133 44.33 133 44.66 133 45 C130.98177083 45.16276042 128.96354167 45.32552083 126.9453125 45.48828125 C124.60480784 45.87393036 124.60480784 45.87393036 123 49 C120.67679405 49.36914349 120.67679405 49.36914349 117.71029663 49.36076355 C116.0275489 49.36694954 116.0275489 49.36694954 114.31080627 49.3732605 C113.0743486 49.36247467 111.83789093 49.35168884 110.56396484 49.34057617 C109.26644791 49.34101425 107.96893097 49.34145233 106.63209534 49.34190369 C103.06815404 49.34276652 99.50451396 49.32509452 95.94064283 49.30418181 C92.21838872 49.28546281 88.49612815 49.28366836 84.77383423 49.28010559 C77.72251494 49.27077103 70.67133474 49.24613828 63.62007678 49.21605712 C55.59360056 49.18255689 47.56711779 49.16603814 39.54058909 49.15097082 C23.0269779 49.11958986 6.51350668 49.0668021 -10 49 C-9.67 45.7 -9.34 42.4 -9 39 C-8.34 39 -7.68 39 -7 39 C-7.04898438 37.97519531 -7.09796875 36.95039063 -7.1484375 35.89453125 C-7.14557272 29.39291111 -5.79046899 23.06156774 -4.625 16.6875 C-4.40328125 15.41326172 -4.1815625 14.13902344 -3.953125 12.82617188 C-3.73398437 11.60865234 -3.51484375 10.39113281 -3.2890625 9.13671875 C-3.09006348 8.03030029 -2.89106445 6.92388184 -2.68603516 5.78393555 C-2 3 -2 3 0 0 Z " fill="#0C2040" transform="translate(53,134)"/>
<path d="M0 0 C3.63 0 7.26 0 11 0 C11 1.98 11 3.96 11 6 C10.34 6 9.68 6 9 6 C8.67 7.98 8.34 9.96 8 12 C7.34 12 6.68 12 6 12 C5.67 13.98 5.34 15.96 5 18 C4.34 18 3.68 18 3 18 C2.8453125 18.7734375 2.8453125 18.7734375 2.6875 19.5625 C1.75736134 22.86026435 0.38604488 25.86633332 -1 29 C-1.66 29 -2.32 29 -3 29 C-3 29.66 -3 30.32 -3 31 C-3.66 31 -4.32 31 -5 31 C-5.36351562 32.0828125 -5.36351562 32.0828125 -5.734375 33.1875 C-8.92767612 40.28372472 -15.7641577 46.43718856 -22 51 C-22.66 51 -23.32 51 -24 51 C-24 51.66 -24 52.32 -24 53 C-25.9695362 54.46452692 -27.90423321 55.73561177 -30 57 C-30.66515625 57.41765625 -31.3303125 57.8353125 -32.015625 58.265625 C-40.89134732 63.56551675 -50.81343408 66.7851979 -61.06640625 64.23828125 C-71.28712976 61.24193936 -80.53854988 56.81961134 -90 52 C-90 51.34 -90 50.68 -90 50 C-90.515625 49.773125 -91.03125 49.54625 -91.5625 49.3125 C-94 48 -94 48 -96.89125061 45.45918274 C-101.93193883 41.85951164 -107.18456602 42.29500473 -113.17749023 42.34057617 C-114.38795517 42.33009247 -115.5984201 42.31960876 -116.8455658 42.30880737 C-120.14716226 42.28502544 -123.44738628 42.28311206 -126.74896502 42.29110122 C-130.20571045 42.29423556 -133.66225151 42.26916496 -137.11891174 42.24714661 C-143.65650339 42.20975775 -150.19388705 42.1975617 -156.73157507 42.1945222 C-164.17788663 42.18982574 -171.62399056 42.15688367 -179.07021034 42.12162435 C-194.3801253 42.04975879 -209.68991521 42.01318416 -225 42 C-224.67 39.69 -224.34 37.38 -224 35 C-223.28530705 34.99668985 -222.57061411 34.99337971 -221.8342638 34.98996925 C-204.39650861 34.90853879 -186.9588426 34.81638175 -169.52120686 34.71247292 C-161.08829348 34.6624774 -152.6553892 34.61603366 -144.22241211 34.578125 C-136.86715557 34.5450518 -129.51197239 34.5051375 -122.15679711 34.45720994 C-118.26690701 34.43209632 -114.37706461 34.41027154 -110.48711586 34.39665604 C-106.81565946 34.38369676 -103.14436796 34.36149774 -99.47300339 34.33261681 C-97.50387019 34.31941537 -95.53468059 34.31564655 -93.56550598 34.31230164 C-85.54492246 34.23795127 -77.88797421 33.44275203 -70 32 C-69.091993 31.83420252 -68.183986 31.66840504 -67.24846363 31.49758339 C-62.70203739 30.64163113 -58.19157455 29.61711258 -53.6875 28.5625 C-52.72199219 28.33691406 -51.75648438 28.11132812 -50.76171875 27.87890625 C-47.8416063 26.94959182 -45.60998017 25.58310273 -43 24 C-39.1875 23.3125 -39.1875 23.3125 -36 23 C-36 22.34 -36 21.68 -36 21 C-33.03 20.505 -33.03 20.505 -30 20 C-30 19.34 -30 18.68 -30 18 C-23.25 14 -23.25 14 -21 14 C-21 13.34 -21 12.68 -21 12 C-19.4840625 11.1646875 -19.4840625 11.1646875 -17.9375 10.3125 C-15.28149394 8.81615856 -12.90178535 7.1860015 -10.5 5.3125 C-7.02398874 2.74293158 -4.27892922 2.26197526 0 2 C0 1.34 0 0.68 0 0 Z " fill="#F6B125" transform="translate(266,149)"/>
<path d="M0 0 C2.61698787 1.19662787 5.14290419 2.45163722 7.640625 3.87890625 C7.640625 4.53890625 7.640625 5.19890625 7.640625 5.87890625 C8.1975 5.98203125 8.754375 6.08515625 9.328125 6.19140625 C12.1175351 7.02069033 14.2545314 8.22189681 16.640625 9.87890625 C16.640625 10.53890625 16.640625 11.19890625 16.640625 11.87890625 C17.176875 12.10578125 17.713125 12.33265625 18.265625 12.56640625 C23.52728394 15.47416514 26.53165599 18.30520244 28.640625 23.87890625 C29.9559591 24.58041777 31.29180092 25.2441655 32.640625 25.87890625 C36.640625 30.32335069 36.640625 30.32335069 36.640625 32.87890625 C37.300625 32.87890625 37.960625 32.87890625 38.640625 32.87890625 C39.31217433 34.16804112 39.97771359 35.46030829 40.640625 36.75390625 C41.011875 37.47320312 41.383125 38.1925 41.765625 38.93359375 C42.640625 40.87890625 42.640625 40.87890625 42.640625 42.87890625 C43.300625 42.87890625 43.960625 42.87890625 44.640625 42.87890625 C46.640625 47.87890625 46.640625 47.87890625 48.640625 52.87890625 C49.19556641 54.19568359 49.19556641 54.19568359 49.76171875 55.5390625 C50.74385333 58.15372299 50.87155659 60.10772717 50.640625 62.87890625 C49.640625 63.87890625 49.640625 63.87890625 46.578125 64.12890625 C40.72679084 63.75739297 35.77362156 61.65927939 30.640625 58.87890625 C30.640625 58.21890625 30.640625 57.55890625 30.640625 56.87890625 C30.07472656 56.61207031 29.50882812 56.34523437 28.92578125 56.0703125 C25.68706388 54.38175045 22.76493849 52.29011066 19.76171875 50.21875 C17.59171332 48.72966323 17.59171332 48.72966323 14.640625 47.87890625 C14.310625 47.21890625 13.980625 46.55890625 13.640625 45.87890625 C11.79382239 45.0810158 9.91063121 44.36687683 8.015625 43.69140625 C4.23141266 42.30482463 0.58901371 40.90680652 -2.99609375 39.06640625 C-11.13018895 34.89849587 -18.15587406 32.88940232 -27.2890625 32.16796875 C-30.359375 31.87890625 -30.359375 31.87890625 -31.359375 30.87890625 C-33.37532082 30.64462847 -35.397849 30.46554501 -37.421875 30.31640625 C-38.52660156 30.23261719 -39.63132813 30.14882812 -40.76953125 30.0625 C-41.62417969 30.00191406 -42.47882813 29.94132812 -43.359375 29.87890625 C-43.359375 29.21890625 -43.359375 28.55890625 -43.359375 27.87890625 C-44.12121094 27.89050781 -44.88304687 27.90210937 -45.66796875 27.9140625 C-51.99777822 27.96937919 -58.08493049 27.71549885 -64.359375 26.87890625 C-64.07794077 23.67944346 -63.22328367 22.74496147 -60.8828125 20.44140625 C-59.8428585 19.5756679 -58.79280048 18.72196184 -57.734375 17.87890625 C-57.18458984 17.43321289 -56.63480469 16.98751953 -56.06835938 16.52832031 C-52.28064007 13.50306398 -48.68444218 11.04143984 -44.359375 8.87890625 C-43.45574219 8.38648438 -42.55210937 7.8940625 -41.62109375 7.38671875 C-35.99497084 4.39851115 -30.94032065 2.20005588 -24.61328125 1.30078125 C-22.28764656 0.95072915 -22.28764656 0.95072915 -19.98828125 -0.140625 C-13.73026062 -2.47459703 -6.26635517 -2.09121388 0 0 Z " fill="#F8B225" transform="translate(226.359375,36.12109375)"/>
<path d="M0 0 C3.60241671 0.44638642 5.58501264 2.06368719 8.25 4.4375 C8.95640625 5.05496094 9.6628125 5.67242187 10.390625 6.30859375 C12 8 12 8 12 10 C12.66 10 13.32 10 14 10 C14.495 12.97 14.495 12.97 15 16 C15.66 16 16.32 16 17 16 C18.06608927 26.15323118 18.06608927 26.15323118 15.51171875 30.578125 C13.76768713 32.58574732 12.10808719 34.37839447 10 36 C9.34 36 8.68 36 8 36 C7.67 36.99 7.34 37.98 7 39 C6.34 39 5.68 39 5 39 C5 39.66 5 40.32 5 41 C2.8828125 42.7265625 2.8828125 42.7265625 0.125 44.625 C-0.77992188 45.25664062 -1.68484375 45.88828125 -2.6171875 46.5390625 C-5 48 -5 48 -7 48 C-7 48.66 -7 49.32 -7 50 C-7.84304688 50.40992188 -8.68609375 50.81984375 -9.5546875 51.2421875 C-10.65039062 51.78101563 -11.74609375 52.31984375 -12.875 52.875 C-13.96554687 53.40867188 -15.05609375 53.94234375 -16.1796875 54.4921875 C-19.03882547 55.84535937 -19.03882547 55.84535937 -21 58 C-23.65537372 58.56520003 -26.29144713 58.73788198 -29 59 C-29 59.66 -29 60.32 -29 61 C-30.87387477 61.3396019 -32.74916697 61.67138691 -34.625 62 C-35.66914063 62.185625 -36.71328125 62.37125 -37.7890625 62.5625 C-40.90574865 62.98715797 -43.85930812 63.07545206 -47 63 C-47 62.01 -47 61.02 -47 60 C-45.02 59.505 -45.02 59.505 -43 59 C-43 58.34 -43 57.68 -43 57 C-41.13671875 55.52734375 -41.13671875 55.52734375 -38.6875 53.9375 C-37.88699219 53.41027344 -37.08648437 52.88304687 -36.26171875 52.33984375 C-34 51 -34 51 -31 50 C-30.67 49.01 -30.34 48.02 -30 47 C-29.34 47 -28.68 47 -28 47 C-27.73703125 46.41605469 -27.4740625 45.83210938 -27.203125 45.23046875 C-25.94463607 42.89736103 -24.55249646 41.24896579 -22.75 39.3125 C-19.49447529 35.69676065 -16.84071251 31.90448054 -14.26171875 27.78515625 C-13 26 -13 26 -11 25 C-9.64540368 22.00468801 -8.49562098 18.95098876 -7.31640625 15.8828125 C-6.07767741 13.17010662 -5.04406186 12.03839964 -3 10 C-2.25219166 7.76846991 -2.25219166 7.76846991 -1.875 5.375 C-1.08333333 1.08333333 -1.08333333 1.08333333 0 0 Z " fill="#F4AF25" transform="translate(284,152)"/>
<path d="M0 0 C16.63097624 1.53392499 16.63097624 1.53392499 24 6 C25.2822908 6.58355749 26.57399114 7.14695864 27.875 7.6875 C29.60296931 8.41324711 31.32367383 9.16183691 33 10 C33 10.66 33 11.32 33 12 C33.86238281 12.16822266 33.86238281 12.16822266 34.7421875 12.33984375 C42.44227445 14.59125326 50.22642825 21.62737073 56 27 C56.495 28.485 56.495 28.485 57 30 C57.825 30.825 58.65 31.65 59.5 32.5 C62.66372111 35.66372111 62.94902519 37.24812157 63.25 41.6875 C63.16602899 47.38703222 61.56677214 52.10088225 57.9375 56.5 C56 58 56 58 54 58 C54 58.66 54 59.32 54 60 C51.18230651 62.17364926 49.7809319 63.08677021 46.1875 62.6875 C45.465625 62.460625 44.74375 62.23375 44 62 C43.81824219 61.43152344 43.63648438 60.86304688 43.44921875 60.27734375 C42.21384038 56.4825148 40.95023084 52.76700145 39.3125 49.125 C38 46 38 46 38 43 C37.34 43 36.68 43 36 43 C35.62875 42.195625 35.2575 41.39125 34.875 40.5625 C33.02543485 36.82780114 30.67777219 33.46873159 28.3046875 30.05078125 C27 28 27 28 26 25 C25.01 24.67 24.02 24.34 23 24 C22.54625 23.236875 22.0925 22.47375 21.625 21.6875 C19.7795082 18.63534049 17.82388318 17.15153004 15 15 C14.195625 14.175 13.39125 13.35 12.5625 12.5 C10.02433467 9.86678777 10.02433467 9.86678777 6.6875 7.8125 C5.800625 7.214375 4.91375 6.61625 4 6 C4 5.34 4 4.68 4 4 C2.68 3.67 1.36 3.34 0 3 C0 2.01 0 1.02 0 0 Z " fill="#F4AF25" transform="translate(239,33)"/>
<path d="M0 0 C1.20446777 0.01047363 2.40893555 0.02094727 3.64990234 0.03173828 C5.60283203 0.04140625 5.60283203 0.04140625 7.59521484 0.05126953 C8.9754258 0.06798149 10.35563413 0.08491139 11.73583984 0.10205078 C13.12385436 0.11208072 14.51187574 0.12120655 15.89990234 0.12939453 C19.3037201 0.15303215 22.70719491 0.18598211 26.11083984 0.22705078 C28.81998951 5.64535012 27.38556399 14.49079214 26.11083984 20.22705078 C25.45083984 20.22705078 24.79083984 20.22705078 24.11083984 20.22705078 C24.08957031 21.13583984 24.08957031 21.13583984 24.06787109 22.06298828 C23.66833959 29.081785 21.60348634 34.1696934 18.11083984 40.22705078 C17.12083984 40.22705078 16.13083984 40.22705078 15.11083984 40.22705078 C14.85689453 39.69595703 14.60294922 39.16486328 14.34130859 38.61767578 C12.51333239 34.86587443 10.66219673 31.54381473 8.11083984 28.22705078 C8.11083984 27.56705078 8.11083984 26.90705078 8.11083984 26.22705078 C7.49208984 25.91767578 6.87333984 25.60830078 6.23583984 25.28955078 C4.86083984 24.60205078 3.48583984 23.91455078 2.11083984 23.22705078 C2.11083984 22.56705078 2.11083984 21.90705078 2.11083984 21.22705078 C1.16208984 20.93830078 0.21333984 20.64955078 -0.76416016 20.35205078 C-3.88916016 19.22705078 -3.88916016 19.22705078 -5.88916016 17.22705078 C-5.92436388 14.66891336 -5.84324637 12.26626304 -5.63916016 9.72705078 C-5.59919922 9.03740234 -5.55923828 8.34775391 -5.51806641 7.63720703 C-4.99554987 0.39258589 -4.99554987 0.39258589 0 0 Z " fill="#EDAB26" transform="translate(291.88916015625,125.77294921875)"/>
<path d="M0 0 C0.99 0 1.98 0 3 0 C3.67667998 1.24460783 4.34094719 2.49596896 5 3.75 C5.556875 4.79414062 5.556875 4.79414062 6.125 5.859375 C7 8 7 8 7 12 C7.66 12 8.32 12 9 12 C9 13.65 9 15.3 9 17 C9.66 17 10.32 17 11 17 C11.19594676 20.14536768 11.3803401 23.29130614 11.5625 26.4375 C11.61857422 27.33533203 11.67464844 28.23316406 11.73242188 29.15820312 C11.78076172 30.01220703 11.82910156 30.86621094 11.87890625 31.74609375 C11.9260376 32.53685303 11.97316895 33.3276123 12.02172852 34.14233398 C12 36 12 36 11 37 C8.79349344 37.10012401 6.58377614 37.1308118 4.375 37.1328125 C3.71290527 37.13376923 3.05081055 37.13472595 2.36865234 37.13571167 C0.96647039 37.13639326 -0.4357147 37.13454042 -1.83789062 37.13037109 C-3.99095713 37.12502246 -6.14381502 37.1303167 -8.296875 37.13671875 C-9.65625046 37.13605796 -11.0156258 37.13477679 -12.375 37.1328125 C-13.62023437 37.13168457 -14.86546875 37.13055664 -16.1484375 37.12939453 C-19 37 -19 37 -20 36 C-20.07319621 33.30345146 -20.09242537 30.63308542 -20.0625 27.9375 C-20.05798828 27.17888672 -20.05347656 26.42027344 -20.04882812 25.63867188 C-20.0370068 23.75908129 -20.01907078 21.87953101 -20 20 C-19.34 20 -18.68 20 -18 20 C-18 19.34 -18 18.68 -18 18 C-17.41992188 17.731875 -16.83984375 17.46375 -16.2421875 17.1875 C-10.80676481 14.46081931 -7.54495136 11.7547411 -4.19140625 6.671875 C-3 5 -3 5 -1 4 C-0.34786708 1.97536745 -0.34786708 1.97536745 0 0 Z " fill="#EFAC26" transform="translate(307,84)"/>
<path d="M0 0 C0.33 0 0.66 0 1 0 C1 2.64 1 5.28 1 8 C0.34 8 -0.32 8 -1 8 C-0.979375 9.093125 -0.95875 10.18625 -0.9375 11.3125 C-1 15 -1 15 -2 18 C41.89 17.67 85.78 17.34 131 17 C131.33 16.01 131.66 15.02 132 14 C126.06 13.34 120.12 12.68 114 12 C114 11.34 114 10.68 114 10 C113.01 9.67 112.02 9.34 111 9 C112.32 9 113.64 9 115 9 C115 9.66 115 10.32 115 11 C118.92858919 11.05012431 122.85704984 11.08605502 126.78588867 11.10986328 C128.76552896 11.12464917 130.74508063 11.15008592 132.72460938 11.17578125 C142.69652962 11.22627199 151.81792899 10.37236058 161.25 7 C166.78163416 5.07252644 172.30044602 3.36789296 178 2 C177.67 2.66 177.34 3.32 177 4 C176.34 4 175.68 4 175 4 C174.67 5.65 174.34 7.3 174 9 C174.99 9.33 175.98 9.66 177 10 C167.35104177 14.60518461 157.24956493 16.27529404 146.69970703 17.35375977 C143.63908766 17.66789647 140.93069304 18.02310232 138 19 C136.09719962 19.09106103 134.19130848 19.12194783 132.28633118 19.12025452 C131.09581146 19.12162918 129.90529175 19.12300385 128.67869568 19.12442017 C127.37102737 19.12082489 126.06335907 19.11722961 124.71606445 19.11352539 C123.32647707 19.11324335 121.93688954 19.11340159 120.54730225 19.1139679 C116.77279387 19.1142552 112.99831716 19.10836926 109.22381616 19.10139394 C105.28000565 19.09514928 101.33619445 19.09455572 97.39237976 19.09336853 C89.92324515 19.0902585 82.45412515 19.08204953 74.98499697 19.07201904 C66.48206822 19.06084772 57.97913878 19.05534488 49.47620451 19.05032361 C31.98412789 19.03986665 14.49206549 19.02227355 -3 19 C-3.05956234 14.21764068 -2.74737241 10.18817268 -1.5 5.5625 C-1.2215625 4.51191406 -0.943125 3.46132812 -0.65625 2.37890625 C-0.33140625 1.20134766 -0.33140625 1.20134766 0 0 Z " fill="#3A3A41" transform="translate(45,165)"/>
<path d="M0 0 C2.64 0 5.28 0 8 0 C7.01 0.66 6.02 1.32 5 2 C5 2.66 5 3.32 5 4 C6.32 4 7.64 4 9 4 C9 4.66 9 5.32 9 6 C6.03 6 3.06 6 0 6 C0 6.66 0 7.32 0 8 C-1.134375 8.37125 -2.26875 8.7425 -3.4375 9.125 C-7.73758624 10.71366419 -11.22088783 13.0194189 -14.921875 15.6953125 C-16.98253506 16.98903517 -18.62343594 17.56108502 -21 18 C-21 18.66 -21 19.32 -21 20 C-26.29411765 24 -26.29411765 24 -30 24 C-30 24.66 -30 25.32 -30 26 C-31.98 26.33 -33.96 26.66 -36 27 C-36 27.66 -36 28.32 -36 29 C-39.87684087 30.19287411 -42.91621923 31 -47 31 C-46.88671875 28.7578125 -46.88671875 28.7578125 -46 26 C-43.26953125 23.8671875 -43.26953125 23.8671875 -39.8125 21.875 C-38.68457031 21.21242187 -37.55664062 20.54984375 -36.39453125 19.8671875 C-27.5460251 15 -27.5460251 15 -25 15 C-25 14.34 -25 13.68 -25 13 C-23.00447511 11.58662824 -21.03201212 10.31278379 -18.9375 9.0625 C-17.81214844 8.37285156 -16.68679687 7.68320313 -15.52734375 6.97265625 C-10.60873695 4.12707303 -5.84087063 1.46901176 0 2 C0 1.34 0 0.68 0 0 Z " fill="#1C273E" transform="translate(266,143)"/>
<path d="M0 0 C-8.61384646 2.93453027 -16.61402284 3.41595087 -25.65112305 3.34057617 C-27.09115074 3.33972804 -28.53117972 3.34020866 -29.97120667 3.34190369 C-33.84658101 3.34275783 -37.72167184 3.32522738 -41.59698081 3.30418181 C-45.65951298 3.28531706 -49.72205298 3.2836569 -53.78462219 3.28010559 C-61.46249966 3.27081372 -69.14024765 3.24623902 -76.81806833 3.21605712 C-85.56541799 3.18242367 -94.31277412 3.1660047 -103.06017244 3.15097082 C-121.04018813 3.11968662 -139.02008362 3.06698226 -157 3 C-157 2.67 -157 2.34 -157 2 C-156.29046079 1.99668985 -155.58092157 1.99337971 -154.84988117 1.98996925 C-137.53730352 1.90853627 -120.22481566 1.81637844 -102.91235828 1.71247292 C-94.5399792 1.66247891 -86.16760926 1.61603517 -77.79516602 1.578125 C-70.49264683 1.54505021 -63.19020152 1.50513508 -55.88776416 1.45720994 C-52.02581976 1.43209787 -48.16392339 1.41027267 -44.30191994 1.39665604 C-40.65672778 1.38369531 -37.01170164 1.36149486 -33.36660194 1.33261681 C-31.41178235 1.31941747 -29.45690597 1.31564684 -27.50204468 1.31230164 C-20.410842 1.24610406 -13.70419491 0.64334337 -6.7306776 -0.67136574 C-4.10494494 -0.98736998 -2.47709292 -0.84487528 0 0 Z " fill="#CD9629" transform="translate(200,182)"/>
<path d="M0 0 C0.33 0 0.66 0 1 0 C1 34.98 1 69.96 1 106 C0.67 106 0.34 106 0 106 C-0.89869802 99.86395406 -1.14610025 93.91145446 -1.1328125 87.71484375 C-1.13413177 86.72036224 -1.13545105 85.72588074 -1.1368103 84.70126343 C-1.13872821 81.44664413 -1.1323738 78.19211061 -1.125 74.9375 C-1.12367065 73.26982071 -1.12367065 73.26982071 -1.12231445 71.56845093 C-1.10012569 47.70465091 -0.62473962 23.85475179 0 0 Z " fill="#F5F6F7" transform="translate(354,217)"/>
<path d="M0 0 C0.33 0 0.66 0 1 0 C1 1.65 1 3.3 1 5 C22.45 5 43.9 5 66 5 C66.495 5.99 66.495 5.99 67 7 C44.56 7 22.12 7 -1 7 C-0.67 4.69 -0.34 2.38 0 0 Z " fill="#E2A32C" transform="translate(66,71)"/>
<path d="M0 0 C0.66 0.33 1.32 0.66 2 1 C1.01 1.33 0.02 1.66 -1 2 C-1.33 3.65 -1.66 5.3 -2 7 C-1.01 7.33 -0.02 7.66 1 8 C-4.12325529 10.45489316 -8.33895411 11.50341703 -14 12 C-14.33 11.01 -14.66 10.02 -15 9 C-14.67 8.67 -14.34 8.34 -14 8 C-16.31 8 -18.62 8 -21 8 C-18.17051108 5.17051108 -14.84864529 4.85246543 -11.0625 4 C-5.2613909 2.71754841 -5.2613909 2.71754841 0 0 Z " fill="#36373B" transform="translate(221,167)"/>
<path d="M0 0 C0.33 0 0.66 0 1 0 C0.25759768 14.08610709 0.25759768 14.08610709 -2 21 C-2.165 22.19625 -2.33 23.3925 -2.5 24.625 C-2.96899962 27.79074746 -3.78448012 30.06845206 -5 33 C-5.73065791 35.6542267 -6.3642212 38.32064647 -7 41 C-8.35194118 36.58554507 -7.35208023 32.91288914 -6.34765625 28.515625 C-6.16867294 27.70003113 -5.98968964 26.88443726 -5.80528259 26.04412842 C-5.2327026 23.44415594 -4.64778105 20.84713964 -4.0625 18.25 C-3.67170902 16.48585787 -3.28172541 14.72153669 -2.89257812 12.95703125 C-1.93773531 8.63588867 -0.97181612 4.31735559 0 0 Z " fill="#EDEDED" transform="translate(55,78)"/>
<path d="M0 0 C2 1 2 1 2 1 Z M0 2 C-0.66 2.66 -1.32 3.32 -2 4 C-1.34 4.66 -0.68 5.32 0 6 C-0.66 6 -1.32 6 -2 6 C-2 6.66 -2 7.32 -2 8 C-4.64 8.33 -7.28 8.66 -10 9 C-9.8125 6.6875 -9.8125 6.6875 -9 4 C-5.81738059 1.41949778 -3.89040693 0.4150194 0 2 Z " fill="#0C1D3F" transform="translate(229,165)"/>
<path d="M0 0 C0.33 0 0.66 0 1 0 C0.59314111 9.35775436 -0.60438853 17.92982326 -3 27 C-3.66 27 -4.32 27 -5 27 C-4.39828638 20.67250629 -3.37848091 14.62404348 -1.9375 8.4375 C-1.75123047 7.61958984 -1.56496094 6.80167969 -1.37304688 5.95898438 C-0.91979313 3.97164104 -0.46053788 1.98566799 0 0 Z " fill="#EEEEEE" transform="translate(14,263)"/>
<path d="M0 0 C-0.495 0.45375 -0.99 0.9075 -1.5 1.375 C-3.22609337 2.87635519 -3.22609337 2.87635519 -3 5 C-6.3 5.33 -9.6 5.66 -13 6 C-10.56601607 1.25373134 -10.56601607 1.25373134 -8.1875 0.1875 C-5.448268 -0.04729131 -2.74762532 -0.06244603 0 0 Z " fill="#051940" transform="translate(210,174)"/>
<path d="M0 0 C0.66 0.33 1.32 0.66 2 1 C1.01 1.33 0.02 1.66 -1 2 C-1 2.66 -1 3.32 -1 4 C3.29 4 7.58 4 12 4 C12 4.33 12 4.66 12 5 C10.12612523 5.3396019 8.25083303 5.67138691 6.375 6 C5.33085937 6.185625 4.28671875 6.37125 3.2109375 6.5625 C0.09425135 6.98715797 -2.85930812 7.07545206 -6 7 C-6 6.01 -6 5.02 -6 4 C-4.68 3.67 -3.36 3.34 -2 3 C-2 2.34 -2 1.68 -2 1 C-1.34 0.67 -0.68 0.34 0 0 Z " fill="#B6882D" transform="translate(243,208)"/>
<path d="M0 0 C17.44648318 -0.3853211 17.44648318 -0.3853211 25 2 C25.33 2.66 25.66 3.32 26 4 C23.8537974 3.85970581 21.70803782 3.71261836 19.5625 3.5625 C18.36753906 3.48128906 17.17257813 3.40007812 15.94140625 3.31640625 C13 3 13 3 12 2 C9.98405418 1.76572222 7.961526 1.58663876 5.9375 1.4375 C4.83277344 1.35371094 3.72804687 1.26992187 2.58984375 1.18359375 C1.73519531 1.12300781 0.88054687 1.06242187 0 1 C0 0.67 0 0.34 0 0 Z " fill="#8D6D32" transform="translate(183,65)"/>
<path d="M0 0 C1.54578627 3.09157253 0.60277633 5.68473019 0 9 C-0.33 9.33 -0.66 9.66 -1 10 C-1.23287008 11.68183948 -1.41264166 13.3712416 -1.5625 15.0625 C-1.68818359 16.44115234 -1.68818359 16.44115234 -1.81640625 17.84765625 C-1.87699219 18.55792969 -1.93757812 19.26820312 -2 20 C-2.66 19.67 -3.32 19.34 -4 19 C-3.67 14.71 -3.34 10.42 -3 6 C-2.34 6 -1.68 6 -1 6 C-1.020625 5.195625 -1.04125 4.39125 -1.0625 3.5625 C-1 1 -1 1 0 0 Z " fill="#836633" transform="translate(140,96)"/>
<path d="M0 0 C-0.33 0.66 -0.66 1.32 -1 2 C-4.96 2 -8.92 2 -13 2 C-13 2.66 -13 3.32 -13 4 C-14.98 4.33 -16.96 4.66 -19 5 C-19 4.34 -19 3.68 -19 3 C-13.20843638 -0.47493817 -6.53217065 -0.11459949 0 0 Z " fill="#B8892D" transform="translate(279,141)"/>
<path d="M0 0 C0.33 0.66 0.66 1.32 1 2 C0.34 2 -0.32 2 -1 2 C-1.20625 2.556875 -1.4125 3.11375 -1.625 3.6875 C-3.57683032 6.97012371 -5.94230994 8.70673246 -9 11 C-9.66 11 -10.32 11 -11 11 C-9.52202738 7.32943063 -7.52384523 5.58914217 -4.375 3.25 C-3.55773437 2.63640625 -2.74046875 2.0228125 -1.8984375 1.390625 C-0.95871094 0.70226563 -0.95871094 0.70226563 0 0 Z " fill="#C5912B" transform="translate(173,51)"/>
<path d="M0 0 C0.33 0.66 0.66 1.32 1 2 C-1.09016808 6.54918935 -4.13620455 8.99482576 -8 12 C-8.66 11.34 -9.32 10.68 -10 10 C-9.44570312 9.52949219 -8.89140625 9.05898437 -8.3203125 8.57421875 C-7.59585938 7.95160156 -6.87140625 7.32898438 -6.125 6.6875 C-5.40570313 6.07261719 -4.68640625 5.45773438 -3.9453125 4.82421875 C-1.80820669 2.9587676 -1.80820669 2.9587676 0 0 Z " fill="#38353B" transform="translate(255,188)"/>
<path d="M0 0 C0.33 0.66 0.66 1.32 1 2 C-0.25 4.5625 -0.25 4.5625 -2 7 C-2.99 7.33 -3.98 7.66 -5 8 C-5.33 8.66 -5.66 9.32 -6 10 C-8.31 10 -10.62 10 -13 10 C-10.06279492 8.47700477 -7.0831351 7.19899698 -4 6 C-4 5.34 -4 4.68 -4 4 C-2.70766393 2.62689293 -1.37562854 1.28965176 0 0 Z " fill="#483F39" transform="translate(297,87)"/>
<path d="M0 0 C0.88571118 2.65713355 1.14623516 5.21910239 1.25 8 C1.27578125 8.66 1.3015625 9.32 1.328125 10 C0.89956817 12.61215593 -0.31013876 14.00774254 -2 16 C-1.85936865 13.70800823 -1.71234057 11.41640814 -1.5625 9.125 C-1.48128906 7.84882813 -1.40007813 6.57265625 -1.31640625 5.2578125 C-1 2 -1 2 0 0 Z " fill="#2B3857" transform="translate(37,204)"/>
<path d="M0 0 C2.64745321 0.28056438 5.29237964 0.57385631 7.9375 0.875 C8.69224609 0.95363281 9.44699219 1.03226563 10.22460938 1.11328125 C12.15919299 1.33883808 14.08176019 1.66258974 16 2 C16.33 2.66 16.66 3.32 17 4 C12.38 3.34 7.76 2.68 3 2 C2.67 2.66 2.34 3.32 2 4 C1.34 3.67 0.68 3.34 0 3 C0 2.01 0 1.02 0 0 Z " fill="#906F32" transform="translate(239,33)"/>
<path d="M0 0 C0.33 0 0.66 0 1 0 C1 4.95 1 9.9 1 15 C0.01 15.33 -0.98 15.66 -2 16 C-1.34 10.72 -0.68 5.44 0 0 Z " fill="#47536B" transform="translate(25,256)"/>
<path d="M0 0 C0.33 0.66 0.66 1.32 1 2 C0.67 2.66 0.34 3.32 0 4 C-0.66 4 -1.32 4 -2 4 C-2.33 5.32 -2.66 6.64 -3 8 C-4.32 8.33 -5.64 8.66 -7 9 C-7 7 -7 7 -5.125 4.875 C-3 3 -3 3 -1 3 C-0.67 2.01 -0.34 1.02 0 0 Z " fill="#524838" transform="translate(299,181)"/>
</svg>
