<?xml version="1.0" encoding="UTF-8"?>
<svg version="1.1" xmlns="http://www.w3.org/2000/svg" width="224" height="223">
<path d="M0 0 C22.33501209 18.16754627 37.0651449 41.42395192 41.6796875 70.1796875 C42.20896487 75.73140053 42.21508986 81.29508967 42.1796875 86.8671875 C42.17792511 87.61192322 42.17616272 88.35665894 42.17434692 89.1239624 C42.11146327 101.06737638 41.05255468 111.98450008 36.6796875 123.1796875 C36.2782251 124.24074707 36.2782251 124.24074707 35.86865234 125.32324219 C25.05927915 153.35035744 4.08718893 175.19025264 -23.16748047 187.60058594 C-49.59551882 199.14498566 -80.42035449 199.63720706 -107.3203125 189.1796875 C-118.28203631 184.60356117 -128.0002108 178.50156414 -137.3203125 171.1796875 C-138.19042969 170.50679687 -139.06054688 169.83390625 -139.95703125 169.140625 C-152.64754483 158.55497921 -161.90495842 144.27164141 -168.3203125 129.1796875 C-168.81144531 128.03113281 -169.30257812 126.88257813 -169.80859375 125.69921875 C-180.38270812 98.59330316 -178.16626778 68.76894429 -167.3203125 42.1796875 C-155.99107 17.09619616 -134.80402129 -4.31141244 -109.14453125 -14.546875 C-71.92306952 -28.56134807 -31.95935989 -24.37256823 0 0 Z " fill="#F9F8FA" transform="translate(178.3203125,23.8203125)"/>
<path d="M0 0 C22.33501209 18.16754627 37.0651449 41.42395192 41.6796875 70.1796875 C42.20896487 75.73140053 42.21508986 81.29508967 42.1796875 86.8671875 C42.17792511 87.61192322 42.17616272 88.35665894 42.17434692 89.1239624 C42.11146327 101.06737638 41.05255468 111.98450008 36.6796875 123.1796875 C36.2782251 124.24074707 36.2782251 124.24074707 35.86865234 125.32324219 C25.05927915 153.35035744 4.08718893 175.19025264 -23.16748047 187.60058594 C-49.59551882 199.14498566 -80.42035449 199.63720706 -107.3203125 189.1796875 C-118.28203631 184.60356117 -128.0002108 178.50156414 -137.3203125 171.1796875 C-138.19042969 170.50679687 -139.06054688 169.83390625 -139.95703125 169.140625 C-152.64754483 158.55497921 -161.90495842 144.27164141 -168.3203125 129.1796875 C-168.81144531 128.03113281 -169.30257812 126.88257813 -169.80859375 125.69921875 C-180.38270812 98.59330316 -178.16626778 68.76894429 -167.3203125 42.1796875 C-155.99107 17.09619616 -134.80402129 -4.31141244 -109.14453125 -14.546875 C-71.92306952 -28.56134807 -31.95935989 -24.37256823 0 0 Z M-130.2265625 17.26171875 C-132.3203125 19.1796875 -132.3203125 19.1796875 -135.3203125 21.1796875 C-133.86565205 25.21711244 -131.89311277 28.57844677 -129.5703125 32.1796875 C-115.36934358 54.82176921 -110.52944939 81.19974017 -115.5703125 107.5546875 C-116.11309355 109.77333633 -116.69318649 111.98338906 -117.3203125 114.1796875 C-117.58714844 115.17097656 -117.85398437 116.16226563 -118.12890625 117.18359375 C-121.6703259 129.00406555 -127.41136681 140.68895267 -135.3203125 150.1796875 C-130.17775957 162.52746569 -113.71150221 170.10275634 -102.125 175.00390625 C-91.80088732 179.1530193 -82.48511834 181.1796875 -71.3203125 181.1796875 C-71.3203125 172.2696875 -71.3203125 163.3596875 -71.3203125 154.1796875 C-68.3503125 154.1796875 -65.3803125 154.1796875 -62.3203125 154.1796875 C-62.3203125 163.0896875 -62.3203125 171.9996875 -62.3203125 181.1796875 C-55.31574542 181.1796875 -50.70360096 180.92245023 -44.2578125 179.1796875 C-43.03106812 178.85073486 -43.03106812 178.85073486 -41.77954102 178.51513672 C-24.80192376 173.67941691 -11.09167768 164.16303227 1.6796875 152.1796875 C0.04379144 148.69088877 -1.98706524 145.54260281 -4.0703125 142.3046875 C-14.95529621 124.96612671 -19.72487845 106.84769799 -19.6953125 86.4921875 C-19.69443634 85.8294986 -19.69356018 85.16680969 -19.69265747 84.48403931 C-19.64713487 74.0379406 -18.933515 65.00073643 -15.3203125 55.1796875 C-15.08425293 54.50228516 -14.84819336 53.82488281 -14.60498047 53.12695312 C-10.70235969 42.04562373 -5.18915504 32.67444569 1.6796875 23.1796875 C-9.83396877 8.63612169 -26.46966059 -0.4064218 -44.3203125 -4.8203125 C-45.14015625 -5.04332031 -45.96 -5.26632813 -46.8046875 -5.49609375 C-52.29257251 -6.88698874 -56.40246755 -6.8203125 -62.3203125 -6.8203125 C-62.3203125 1.7596875 -62.3203125 10.3396875 -62.3203125 19.1796875 C-65.2903125 19.1796875 -68.2603125 19.1796875 -71.3203125 19.1796875 C-71.3203125 10.5996875 -71.3203125 2.0196875 -71.3203125 -6.8203125 C-93.75765579 -6.8203125 -113.91822146 1.879988 -130.2265625 17.26171875 Z " fill="#0D1F28" transform="translate(178.3203125,23.8203125)"/>
<path d="M0 0 C22.33501209 18.16754627 37.0651449 41.42395192 41.6796875 70.1796875 C42.20896487 75.73140053 42.21508986 81.29508967 42.1796875 86.8671875 C42.17792511 87.61192322 42.17616272 88.35665894 42.17434692 89.1239624 C42.11146327 101.06737638 41.05255468 111.98450008 36.6796875 123.1796875 C36.2782251 124.24074707 36.2782251 124.24074707 35.86865234 125.32324219 C25.05927915 153.35035744 4.08718893 175.19025264 -23.16748047 187.60058594 C-49.59551882 199.14498566 -80.42035449 199.63720706 -107.3203125 189.1796875 C-118.28203631 184.60356117 -128.0002108 178.50156414 -137.3203125 171.1796875 C-138.19042969 170.50679687 -139.06054688 169.83390625 -139.95703125 169.140625 C-152.64754483 158.55497921 -161.90495842 144.27164141 -168.3203125 129.1796875 C-168.81144531 128.03113281 -169.30257812 126.88257813 -169.80859375 125.69921875 C-180.38270812 98.59330316 -178.16626778 68.76894429 -167.3203125 42.1796875 C-155.99107 17.09619616 -134.80402129 -4.31141244 -109.14453125 -14.546875 C-71.92306952 -28.56134807 -31.95935989 -24.37256823 0 0 Z M-145.84667969 19.50341797 C-158.49084273 33.88625817 -165.32077116 50.70728532 -169.3203125 69.1796875 C-169.49916992 69.99026611 -169.67802734 70.80084473 -169.86230469 71.63598633 C-174.57991528 97.8368311 -166.59378788 125.3798965 -151.73828125 146.9296875 C-147.73931853 152.45324443 -143.13465608 157.36534392 -138.3203125 162.1796875 C-137.58039063 162.91960937 -136.84046875 163.65953125 -136.078125 164.421875 C-115.37493463 183.91169158 -88.72874698 190.89989002 -61.1171875 190.4921875 C-34.24773044 189.5980292 -8.52432746 176.60529046 9.890625 157.25 C29.5174016 134.53779128 38.44199259 107.60771344 36.89550781 77.74609375 C34.59785044 50.42372459 20.15008178 25.02161222 -0.3203125 7.1796875 C-19.94932005 -8.50864808 -42.0470656 -15.99467004 -67.0703125 -16.0078125 C-68.88789063 -16.02618164 -68.88789063 -16.02618164 -70.7421875 -16.04492188 C-100.4808598 -16.09299085 -126.00193704 -2.08067985 -145.84667969 19.50341797 Z " fill="#F1F3F6" transform="translate(178.3203125,23.8203125)"/>
<path d="M0 0 C1.04659538 -0.0076664 1.04659538 -0.0076664 2.11433411 -0.01548767 C4.42665118 -0.02941672 6.73867129 -0.02842443 9.05102539 -0.02612305 C10.65523897 -0.03000828 12.25945152 -0.03434259 13.86366272 -0.03910828 C17.22880383 -0.04657768 20.59384005 -0.04627411 23.95898438 -0.04101562 C28.27465931 -0.03522114 32.58990505 -0.05214771 36.905509 -0.0753603 C40.21947242 -0.09008184 43.53333213 -0.09097149 46.84732246 -0.08785057 C48.43856214 -0.08836462 50.02980749 -0.09361801 51.62101555 -0.10366249 C53.84528472 -0.11597893 56.06871336 -0.10926485 58.29296875 -0.09765625 C59.55934677 -0.09828568 60.82572479 -0.0989151 62.13047791 -0.0995636 C65.21118164 0.2746582 65.21118164 0.2746582 67.12228394 1.54714966 C68.44070801 3.63879596 68.57506872 4.82392339 68.55175781 7.28710938 C68.55153122 8.08771286 68.55130463 8.88831635 68.55107117 9.71318054 C68.53558731 10.57264786 68.52010345 11.43211517 68.50415039 12.31762695 C68.49990555 13.20122391 68.49566071 14.08482086 68.49128723 14.99519348 C68.47449207 17.81782482 68.43683861 20.63974261 68.39868164 23.4621582 C68.38363587 25.37555935 68.36994728 27.28897169 68.35766602 29.20239258 C68.32458583 33.89342279 68.27279795 38.58391951 68.21118164 43.2746582 C64.25118164 43.2746582 60.29118164 43.2746582 56.21118164 43.2746582 C56.21118164 32.3846582 56.21118164 21.4946582 56.21118164 10.2746582 C38.72118164 10.2746582 21.23118164 10.2746582 3.21118164 10.2746582 C3.21118164 41.2946582 3.21118164 72.3146582 3.21118164 104.2746582 C20.70118164 104.2746582 38.19118164 104.2746582 56.21118164 104.2746582 C56.21118164 93.7146582 56.21118164 83.1546582 56.21118164 72.2746582 C60.17118164 72.2746582 64.13118164 72.2746582 68.21118164 72.2746582 C68.28539105 77.61316898 68.33981166 82.95137888 68.37597656 88.2902832 C68.39105426 90.10609162 68.41151962 91.92186368 68.4375 93.73754883 C68.47392844 96.34896828 68.49091802 98.95990585 68.50415039 101.5715332 C68.51963425 102.38209167 68.5351181 103.19265015 68.55107117 104.027771 C68.55199488 107.12790178 68.50421474 109.67830164 67.12228394 112.49069214 C64.28482762 115.13938645 62.12627068 114.76912505 58.29296875 114.76049805 C57.24374489 114.76619308 57.24374489 114.76619308 56.17332458 114.77200317 C53.8612687 114.7794128 51.55046954 114.75802457 49.23852539 114.7355957 C47.63334806 114.73321165 46.02816791 114.73230588 44.42298889 114.7328186 C41.0594841 114.72969005 37.69640542 114.71311952 34.33300781 114.6862793 C30.01619229 114.65227179 25.69984452 114.64465142 21.38291073 114.64616966 C18.06896987 114.64562653 14.75513178 114.63466906 11.44122505 114.62016678 C9.84917542 114.61379173 8.25711412 114.60985824 6.66505241 114.60837936 C4.44316526 114.60405528 2.22177981 114.58657518 0 114.56518555 C-1.26558243 114.55756195 -2.53116486 114.54993835 -3.83509827 114.54208374 C-6.78881836 114.2746582 -6.78881836 114.2746582 -8.78881836 112.2746582 C-9.04050064 110.3162384 -9.04050064 110.3162384 -9.04278564 107.87158203 C-9.04842529 106.94616608 -9.05406494 106.02075012 -9.05987549 105.06729126 C-9.05582703 104.04904266 -9.05177856 103.03079407 -9.04760742 101.98168945 C-9.05111206 100.91171722 -9.0546167 99.841745 -9.05822754 98.73934937 C-9.06705855 95.18855375 -9.06119081 91.63795599 -9.05444336 88.0871582 C-9.05578961 85.62858034 -9.05772981 83.17000273 -9.0602417 80.71142578 C-9.06319482 75.55311555 -9.05888924 70.39487448 -9.04956055 65.23657227 C-9.03816597 58.61164343 -9.04472443 51.98687662 -9.05670547 45.36195374 C-9.06391897 40.28347545 -9.06163849 35.20503582 -9.05644989 30.1265564 C-9.05511198 27.68321717 -9.05676602 25.23987448 -9.061409 22.79653931 C-9.06646581 19.38680673 -9.05877576 15.97733966 -9.04760742 12.56762695 C-9.05165588 11.54937836 -9.05570435 10.53112976 -9.05987549 9.48202515 C-9.05423584 8.55660919 -9.04859619 7.63119324 -9.04278564 6.67773438 C-9.04165457 5.46762947 -9.04165457 5.46762947 -9.04050064 4.233078 C-8.38365585 -0.87803999 -4.12356104 0.01501195 0 0 Z " fill="#1E428A" transform="translate(82.788818359375,53.725341796875)"/>
<path d="M0 0 C9.9 0 19.8 0 30 0 C30 23.1 30 46.2 30 70 C26.37 70 22.74 70 19 70 C19 63.07 19 56.14 19 49 C16.69 49 14.38 49 12 49 C12 56.26 12 63.52 12 71 C8.04 71 4.08 71 0 71 C0 47.57 0 24.14 0 0 Z " fill="#C81331" transform="translate(105,68)"/>
<path d="M0 0 C4.29 0 8.58 0 13 0 C13 24.42 13 48.84 13 74 C23.89 74 34.78 74 46 74 C46 77.96 46 81.92 46 86 C30.82 86 15.64 86 0 86 C0 57.62 0 29.24 0 0 Z " fill="#C91734" transform="translate(89,68)"/>
<path d="M0 0 C12.87 0 25.74 0 39 0 C37.43537396 17.21088648 33.57851193 32.10115815 24.3125 46.75 C23.72335815 47.68223389 23.72335815 47.68223389 23.12231445 48.63330078 C22.13977456 50.12879207 21.07633245 51.57052901 20 53 C19.34 53 18.68 53 18 53 C16.45049561 50.79903403 15.05291554 48.62516381 13.6875 46.3125 C13.28378174 45.62986084 12.88006348 44.94722168 12.46411133 44.24389648 C4.64044777 30.69053602 0 15.64065445 0 0 Z " fill="#F9F9FA" transform="translate(167,115)"/>
<path d="M0 0 C12.87 0 25.74 0 39 0 C37.69572704 18.25982145 33.4762276 37.71485241 21 52 C20.01 52 19.02 52 18 52 C16.37057056 49.79386238 14.99033933 47.67630274 13.625 45.3125 C13.22579346 44.62768555 12.82658691 43.94287109 12.4152832 43.23730469 C5.0600875 30.31896626 0 14.99186793 0 0 Z " fill="#F9FAFA" transform="translate(17,115)"/>
<path d="M0 0 C11.51976066 10.80102343 18.46866912 28.38746567 20 44 C20 46.64 20 49.28 20 52 C7.46 52 -5.08 52 -18 52 C-18 33.0353856 -12.49304325 14.67932582 0 0 Z " fill="#FBFBFB" transform="translate(36,54)"/>
<path d="M0 0 C5.63489571 1.87829857 8.26243314 8.92011576 11 14 C17.33674659 26.8715165 20 37.43555321 20 52 C7.46 52 -5.08 52 -18 52 C-18 32.65069065 -10.79190148 15.7783381 0 0 Z " fill="#FBFBFC" transform="translate(185,54)"/>
<path d="M0 0 C1.98 0 3.96 0 6 0 C6 8.58 6 17.16 6 26 C4.02 26 2.04 26 0 26 C0 17.42 0 8.84 0 0 Z " fill="#FAE9EC" transform="translate(117,79)"/>
<path d="M0 0 C0.66 0.33 1.32 0.66 2 1 C-4.6 7.6 -11.2 14.2 -18 21 C-18.66 20.67 -19.32 20.34 -20 20 C-7.23404255 5.85106383 -7.23404255 5.85106383 0 0 Z " fill="#D7E0F0" transform="translate(45,23)"/>
</svg>
