<?xml version="1.0" encoding="UTF-8"?>
<svg version="1.1" xmlns="http://www.w3.org/2000/svg" width="420" height="433">
<path d="M0 0 C0.66 0.99 1.32 1.98 2 3 C1.51789063 3.51949219 1.03578125 4.03898438 0.5390625 4.57421875 C-0.09257812 5.27160156 -0.72421875 5.96898437 -1.375 6.6875 C-2.00148438 7.37199219 -2.62796875 8.05648438 -3.2734375 8.76171875 C-8.29604469 15.27292671 -7.80038878 23.13186095 -7 31 C-6.20583891 35.53599306 -5.06215088 39.97170286 -3.875 44.41796875 C-3 48 -3 48 -3 52 C-2.34 52 -1.68 52 -1 52 C-0.93941406 51.08476563 -0.87882812 50.16953125 -0.81640625 49.2265625 C-0.73261719 48.03804687 -0.64882813 46.84953125 -0.5625 45.625 C-0.48128906 44.44164062 -0.40007812 43.25828125 -0.31640625 42.0390625 C0 39 0 39 1 37 C3.63385361 37.36329015 4.75230819 37.7182742 6.53515625 39.74609375 C11.82023912 47.87807459 11.63322566 58.62828324 12 68 C19.66353089 62.83071685 19.66353089 62.83071685 24 55 C24.5667314 47.97697554 23.84717674 40.97407993 23 34 C24.69140625 34.10546875 24.69140625 34.10546875 27 35 C28.82026542 37.0748066 30.37817494 39.05542595 31.9375 41.3125 C32.37626465 41.94260986 32.8150293 42.57271973 33.26708984 43.22192383 C38.80678794 51.40393244 42.50657028 59.21787002 42.6640625 69.234375 C40.74200653 77.23917281 35.15138697 81.98866408 28.8125 86.75 C27.37631775 87.84216352 25.94510244 88.94089698 24.51953125 90.046875 C23.89151611 90.51963867 23.26350098 90.99240234 22.61645508 91.47949219 C20.82052409 93.16882283 19.96730666 94.7487035 19 97 C20.20011719 97.21914062 21.40023438 97.43828125 22.63671875 97.6640625 C52.85140764 103.34157912 95.6502956 112.81105346 114.6328125 139.7265625 C119.6574003 148.08173421 121.33883528 155.72008314 119.5625 165.37890625 C117.82100175 171.63741558 114.23449678 176.17713103 110 181 C109.52175781 181.58394531 109.04351562 182.16789063 108.55078125 182.76953125 C98.19627757 194.37418498 82.2110069 200.66307641 68 206 C67.29214355 206.2676416 66.58428711 206.5352832 65.85498047 206.81103516 C49.12594603 213.01905992 31.45175379 217.67073989 13.8125 220.30859375 C13.13616516 220.4114418 12.45983032 220.51428986 11.76300049 220.62025452 C8.4942045 221.11145777 5.23010265 221.56333453 1.94824219 221.96313477 C-7.43758174 223.2854505 -12.2573891 226.1250471 -17.98828125 233.58984375 C-22.12766636 240.92839965 -26.09907618 248.50318875 -26.1418457 257.11230469 C-26.14906647 257.91630707 -26.15628723 258.72030945 -26.16372681 259.54867554 C-26.16770477 260.41433136 -26.17168274 261.27998718 -26.17578125 262.171875 C-26.19561399 264.04086649 -26.21674107 265.90984459 -26.23901367 267.77880859 C-26.25016205 268.7545282 -26.26131042 269.7302478 -26.27279663 270.73553467 C-26.49773623 287.81400018 -26.96734858 304.32611948 -31 321 C-31.22349121 321.94407715 -31.44698242 322.8881543 -31.67724609 323.86083984 C-39.71384203 357.07471363 -55.16010785 384.50399353 -84.4375 403.3125 C-110.11025252 418.34194891 -141.05192383 423.51068783 -170 416 C-197.94778331 408.51398661 -221.73943273 390.59797525 -237 366 C-250.86495942 341.58824026 -256.89620407 311.54869536 -249.59521484 284.04248047 C-241.68995118 256.91555847 -226.6678979 233.42905827 -203.046875 217.48828125 C-200.8872077 216.15809698 -200.8872077 216.15809698 -200 214 C-200.88921143 213.84760864 -200.88921143 213.84760864 -201.79638672 213.69213867 C-208.47339838 212.46318899 -214.73383615 210.58356543 -221.125 208.3125 C-222.12764893 207.95800781 -223.13029785 207.60351562 -224.16333008 207.23828125 C-244.07661594 200.1007886 -266.3147485 191.06989513 -276.9140625 171.43359375 C-280.53823239 163.31180296 -280.95892353 155.45751757 -277.94140625 147.05078125 C-272.09048998 134.10583618 -262.17998471 126.70109885 -250 120 C-248.95457031 119.41605469 -247.90914062 118.83210938 -246.83203125 118.23046875 C-220.31237309 104.19437727 -189.46388036 97.4036008 -159.92529297 93.39697266 C-157.05246966 93.00712032 -154.18483771 92.58876433 -151.31640625 92.16796875 C-139.4104318 90.48886901 -127.49573027 89.52845193 -115.5 88.8125 C-114.79537628 88.76961853 -114.09075256 88.72673706 -113.36477661 88.68255615 C-103.23452687 88.07909473 -93.14709906 87.9007349 -83 88 C-82.79375 86.88625 -82.5875 85.7725 -82.375 84.625 C-80.98864532 79.10887047 -78.16608775 74.67228484 -75 70 C-74.59265625 69.38125 -74.1853125 68.7625 -73.765625 68.125 C-62.88160138 53.61296851 -42.42264503 48.95419972 -26 44 C-26.48771162 39.51115907 -27.00180327 35.50233313 -28.5625 31.25 C-30.71128293 24.35687457 -31.43199286 17.2816503 -28.5 10.5625 C-20.95450106 2.82836359 -10.83377052 -1.00779261 0 0 Z M-170.9375 132.875 C-171.67024139 132.99184143 -172.40298279 133.10868286 -173.15792847 133.22906494 C-193.54886522 136.51375364 -221.56892341 141.32495875 -235.03125 158.33984375 C-236.20551095 160.0583063 -236.20551095 160.0583063 -236.125 162.625 C-231.14168518 173.14533129 -218.49333937 177.79384518 -208.125 181.5625 C-194.13971186 186.39317719 -179.50349605 189.20402631 -165 192 C-164.02611328 192.19062012 -163.05222656 192.38124023 -162.04882812 192.57763672 C-152.31859498 194.50614025 -152.31859498 194.50614025 -142.9375 192.0625 C-140.89564034 190.63642534 -140.89564034 190.63642534 -139 189 C-138.29488281 188.47792969 -137.58976562 187.95585937 -136.86328125 187.41796875 C-127.84808327 180.30246128 -125.37683853 171.75810702 -123.625 160.75 C-121.35733989 148.09228318 -117.65258473 138.70138288 -109 129 C-109 128.34 -109 127.68 -109 127 C-129.71291243 126.56853648 -150.5340171 129.53495877 -170.9375 132.875 Z M19 137 C19 137.99 19 138.98 19 140 C19.66 140 20.32 140 21 140 C20.41972284 143.5522372 19.13468626 145.16192965 16.625 147.6875 C11.30103872 153.64293317 10.14346537 159.06210509 9.39550781 166.93408203 C8.67571151 174.29932161 7.83326963 179.94203836 2 185 C-0.26144438 186.67871725 -2.53724297 188.22193056 -4.94921875 189.67578125 C-6.92775014 190.95334723 -8.36997312 192.31601601 -10 194 C-0.26338732 193.54317469 8.90904759 192.25862605 18.4375 190.1875 C19.70650146 189.91687744 20.97550293 189.64625488 22.28295898 189.36743164 C52.15437963 183.73081375 52.15437963 183.73081375 76.09765625 166.65625 C77.18193012 164.93747397 77.18193012 164.93747397 77.1875 162.4375 C74.02107441 155.93799484 69.7308009 152.82997592 63.375 149.875 C62.66206787 149.53299561 61.94913574 149.19099121 61.21459961 148.83862305 C55.59039622 146.18167398 49.93543353 143.87230299 44 142 C43.34322266 141.78714355 42.68644531 141.57428711 42.00976562 141.35498047 C39.78200381 140.63748959 37.54867701 139.94078661 35.3125 139.25 C34.61133057 139.02675049 33.91016113 138.80350098 33.18774414 138.57348633 C28.30480618 137.11325974 24.09539456 136.79412547 19 137 Z " fill="#090405" transform="translate(288,8)"/>
<path d="M0 0 C4.00212239 0.01140206 8.00397655 0.00480539 12.00608921 -0.00714493 C15.14558337 -0.01446084 18.28501661 -0.01203182 21.42451286 -0.00688934 C22.89811169 -0.00558006 24.37171654 -0.00710174 25.8453083 -0.01184845 C35.11799917 -0.03518685 44.11851747 0.56067458 53.31138611 1.78985596 C57.34687476 2.27337318 61.3074172 2.51804628 65.36645508 2.69824219 C71.93973676 3.0601928 78.12187223 4.11311138 84.54614258 5.51464844 C88.17388329 6.24709926 91.75289273 6.71891006 95.42895508 7.13574219 C104.17229865 8.22980936 112.58666637 10.42808718 121.09155273 12.69091797 C122.79810973 13.14323503 124.5092866 13.57811548 126.22192383 14.00683594 C141.96389674 18.03618036 157.00380743 23.42439252 171.24145508 31.26074219 C172.18375977 31.76347656 173.12606445 32.26621094 174.09692383 32.78417969 C183.8151012 38.23841257 194.03106885 46.22826303 197.69458008 57.09667969 C199.52029654 64.32130053 198.23486777 69.53223873 194.63989258 75.98730469 C185.67347544 90.563994 168.78464946 98.6086715 153.24145508 104.26074219 C151.09491159 105.11312265 148.94907378 105.96728241 146.80395508 106.82324219 C135.51334462 111.12569966 123.93626789 113.87597631 112.17895508 116.57324219 C110.98834473 116.85224365 109.79773438 117.13124512 108.57104492 117.41870117 C107.44005371 117.67208252 106.3090625 117.92546387 105.14379883 118.18652344 C104.12793701 118.41766846 103.1120752 118.64881348 102.06542969 118.88696289 C95.98257645 119.69208507 90.22146896 117.03708667 84.49536133 115.19824219 C78.03825177 113.33785048 72.03289428 113.13298337 65.36645508 113.19824219 C64.48731445 113.20275391 63.60817383 113.20726562 62.70239258 113.21191406 C60.54871705 113.22361882 58.39507691 113.2415515 56.24145508 113.26074219 C56.36645508 111.38574219 56.36645508 111.38574219 57.24145508 109.26074219 C61.88141599 107.09428985 66.8314346 106.67196137 71.86645508 106.11230469 C73.56049821 105.90945267 75.25450754 105.70631832 76.94848633 105.50292969 C79.58262396 105.19394851 82.2170787 104.88851399 84.85229492 104.58886719 C95.73185845 103.34103194 105.77209701 101.55141305 116.24145508 98.26074219 C117.68362748 97.89137961 119.12975463 97.53667438 120.58129883 97.20605469 C136.66813948 93.53804542 155.25265589 88.20736747 165.24145508 74.26074219 C167.02579912 70.69205409 166.97394088 67.14043391 166.24145508 63.26074219 C158.43076456 49.32747813 139.02914663 44.63969779 124.80786133 40.37402344 C121.24145508 39.26074219 121.24145508 39.26074219 118.69067383 38.20214844 C112.85673108 35.95975577 106.38834304 35.31738564 100.24145508 34.26074219 C99.33782227 34.1031543 98.43418945 33.94556641 97.50317383 33.78320312 C80.82227653 30.8995974 64.09941798 28.79739296 47.24145508 27.26074219 C46.234375 27.16212891 45.22729492 27.06351563 44.18969727 26.96191406 C33.23690626 26.01765021 22.27233159 26.10993155 11.28686523 26.13037109 C7.90840043 26.13567632 4.53007181 26.13042857 1.15161133 26.12402344 C-19.56924515 26.11579949 -40.21677262 26.65062608 -60.82104492 28.94824219 C-61.59316315 29.03277649 -62.36528137 29.11731079 -63.16079712 29.20440674 C-85.4342163 31.67554283 -107.78539893 35.09460237 -128.75854492 43.26074219 C-129.86713867 43.67066406 -130.97573242 44.08058594 -132.11791992 44.50292969 C-142.26800435 48.44445994 -150.63302462 53.18264272 -157.07104492 62.07324219 C-158.65533567 67.11416728 -157.26852391 71.24078421 -155.00854492 75.76074219 C-138.20224068 96.70911008 -99.02449144 100.11849224 -74.75854492 104.26074219 C-74.75854492 104.92074219 -74.75854492 105.58074219 -74.75854492 106.26074219 C-78.82789973 107.82090278 -82.91559277 109.32620045 -87.00854492 110.82324219 C-88.14807617 111.26087891 -89.28760742 111.69851562 -90.46166992 112.14941406 C-101.53784281 116.14564689 -110.5859967 115.321734 -121.69604492 112.01074219 C-122.46255371 111.78966797 -123.2290625 111.56859375 -124.01879883 111.34082031 C-130.75248527 109.35461491 -137.2686881 106.93601477 -143.75854492 104.26074219 C-144.73952148 103.88304687 -145.72049805 103.50535156 -146.73120117 103.11621094 C-161.8267138 97.16949384 -179.11392434 88.41437884 -186.71557617 73.36621094 C-189.37234509 67.21560892 -189.93972247 61.72552966 -187.76245117 55.33886719 C-180.15023242 38.34615223 -161.37924598 28.85625848 -144.75854492 22.26074219 C-137.82557058 19.71831124 -130.80451744 17.46628674 -123.75854492 15.26074219 C-123.02571289 15.02468262 -122.29288086 14.78862305 -121.5378418 14.54541016 C-99.19704407 7.40497175 -75.40964637 4.87540714 -52.15283203 2.62548828 C-49.83330272 2.37623439 -47.518464 2.08004103 -45.20996094 1.74365234 C-30.22476531 -0.37320101 -15.09888207 -0.04347374 0 0 Z " fill="#FBFAFA" transform="translate(203.758544921875,102.7392578125)"/>
<path d="M0 0 C0.16435547 0.97839844 0.16435547 0.97839844 0.33203125 1.9765625 C1.25922288 7.08742366 2.23768366 11.51123594 5 16 C8.74056414 17.87028207 12.92606798 17.52525539 17 17 C20.30900009 15.44207799 20.30900009 15.44207799 22 12 C22.69549088 7.94823872 22.8638219 4.13073574 23 0 C26.96 0 30.92 0 35 0 C34.72286637 8.96261937 34.43646169 17.92483106 34.13671875 26.88671875 C34.05095927 29.45176103 33.96784278 32.01683336 33.88671875 34.58203125 C32.78510364 68.97690309 26.25321169 96.39704435 2 122 C1.35160156 122.68964844 0.70320313 123.37929688 0.03515625 124.08984375 C-4.74863522 129.0301601 -9.94481043 133.3381154 -15.30566406 137.63525391 C-21.58727744 142.69493961 -27.79200046 147.8505073 -34 153 C-34.9909668 153.81984375 -34.9909668 153.81984375 -36.00195312 154.65625 C-51.76884823 167.74453729 -65.23457253 181.72946905 -68 203 C-69.01007705 217.80218812 -67.4401547 229.39105048 -59.171875 242.0390625 C-58 244 -58 244 -58 246 C-61.65622474 246.74050121 -65.32118256 247.38271534 -69 248 C-70.2375 248.2475 -71.475 248.495 -72.75 248.75 C-77.42467978 247.67122774 -78.68326079 245.20000305 -81.17578125 241.234375 C-92.02252888 222.00288241 -100.53266267 201.34943425 -101 179 C-101.03867188 177.62545654 -101.03867188 177.62545654 -101.078125 176.22314453 C-101.80621296 147.67754597 -97.81614622 123.91129182 -77.53076172 102.48999023 C-65.70533968 90.37784433 -52.1819622 82.34940404 -36.6796875 75.68359375 C-35.78644775 75.29695557 -34.89320801 74.91031738 -33.97290039 74.51196289 C-32.24823058 73.77489881 -30.51588384 73.05544908 -28.77514648 72.35717773 C-21.74676859 69.38119791 -18.21450341 65.45256966 -14.1484375 59.11328125 C-12.64488507 55.03732449 -12.55988618 51.49586409 -12.625 47.1875 C-12.61339844 46.43146484 -12.60179687 45.67542969 -12.58984375 44.89648438 C-12.61089318 40.78132039 -13.07467126 37.40828594 -14.4921875 33.53515625 C-16.24507342 28.72806282 -16.51622099 24.33528076 -16.5 19.25 C-16.52835937 18.42628906 -16.55671875 17.60257813 -16.5859375 16.75390625 C-16.60004664 12.37301697 -16.46687272 10.58031122 -13.63671875 7.0625 C-12.76660156 6.381875 -11.89648438 5.70125 -11 5 C-10.113125 4.2575 -9.22625 3.515 -8.3125 2.75 C-4.99280006 0.23779464 -4.35709819 0 0 0 Z " fill="#B1002A" transform="translate(195,134)"/>
<path d="M0 0 C8.39119475 -0.10890973 16.64108581 0.2450013 25 1 C23.5633449 4.86410682 21.73733047 8.30256818 19.6875 11.875 C14.39498086 21.71026473 10.99672946 31.51819131 9.89453125 42.6328125 C9.81138672 43.449776 9.72824219 44.2667395 9.64257812 45.10845947 C8.80215549 54.03615512 8.64698715 62.96283909 8.53695679 71.92425537 C7.91823236 119.23240536 2.88986212 163.78610638 -29 201 C-29.99580078 202.21623047 -29.99580078 202.21623047 -31.01171875 203.45703125 C-45.09356223 220.06019528 -67.69931594 236.64714179 -89 242 C-92.83342732 241.64632069 -93.75678921 241.24321079 -96.5625 238.4375 C-103.00958706 229.97696934 -104.18024608 222.08236626 -104.1875 211.6875 C-104.19974609 210.77548828 -104.21199219 209.86347656 -104.22460938 208.92382812 C-104.25828944 193.26260007 -97.52470821 180.65765656 -86.74609375 169.734375 C-85.83988281 168.83203125 -84.93367188 167.9296875 -84 167 C-83.26910156 166.22140625 -82.53820312 165.4428125 -81.78515625 164.640625 C-76.50862993 159.09879847 -70.6744838 154.49419368 -64.6328125 149.8359375 C-58.92520635 145.41842765 -53.4757933 140.69882263 -48 136 C-46.90945312 135.09701172 -46.90945312 135.09701172 -45.796875 134.17578125 C-21.15651961 113.49190569 -7.41010585 83.942346 -4.51000977 52.12109375 C-4.09139179 46.918059 -3.75993468 41.70973958 -3.4375 36.5 C-3.21310863 32.98916297 -2.98258743 29.47879245 -2.74609375 25.96875 C-2.68964691 25.12675049 -2.63320007 24.28475098 -2.57504272 23.41723633 C-2.02145124 15.56793302 -1.08500358 7.79285849 0 0 Z " fill="#B1002A" transform="translate(238,135)"/>
<path d="M0 0 C0.33 0 0.66 0 1 0 C1.20496094 1.18078125 1.40992188 2.3615625 1.62109375 3.578125 C1.89315305 5.13542997 2.16529268 6.6927209 2.4375 8.25 C2.57220703 9.02730469 2.70691406 9.80460938 2.84570312 10.60546875 C3.04389648 11.73662109 3.04389648 11.73662109 3.24609375 12.890625 C3.36654053 13.58188477 3.4869873 14.27314453 3.61108398 14.98535156 C3.87577898 16.35651486 4.18483901 17.71968508 4.53222656 19.07226562 C6.23502967 26.08966297 5.85739203 33.83225431 2.4609375 40.21875 C-3.12947014 47.03486199 -10.73981721 49.88054742 -18.625 53.375 C-32.33870075 59.47889127 -44.74226425 65.96737079 -56 76 C-57.28390625 77.14082031 -57.28390625 77.14082031 -58.59375 78.3046875 C-69.04731672 88.14523642 -75.45501159 99.45485667 -80 113 C-80.29519531 113.76570313 -80.59039062 114.53140625 -80.89453125 115.3203125 C-91.97288604 144.89897406 -84.68287207 182.55837865 -72.0625 210.421875 C-69.92083026 214.89591111 -67.58788925 219.13484384 -64.796875 223.2421875 C-63 226 -63 226 -63 228 C-64.89657143 227.96672682 -66.79252321 227.89707677 -68.6875 227.8125 C-69.74324219 227.77769531 -70.79898438 227.74289062 -71.88671875 227.70703125 C-76.53273106 226.65191428 -78.60387628 224.1214728 -81.18041992 220.20629883 C-82.41379205 218.15970307 -83.5872466 216.08747939 -84.75 214 C-88.45333035 207.52401556 -92.39663658 201.41353547 -96.703125 195.3203125 C-112.3480692 172.96844874 -120.81867386 152.76763131 -117.5390625 125.11328125 C-113.71690976 105.03573776 -101.82367206 88.02192247 -85.375 76.16796875 C-75.26797767 69.45514082 -63.71790849 64.37761141 -52.03515625 61.19140625 C-39.01820369 57.5711166 -25.99982827 51.21925096 -16 42 C-15.36835938 41.46761719 -14.73671875 40.93523437 -14.0859375 40.38671875 C-5.71438728 32.3535929 -3.89106259 18.54663534 -2.45703125 7.515625 C-1.96634574 4.81475774 -1.09693391 2.50985701 0 0 Z " fill="#AF002A" transform="translate(172,154)"/>
<path d="M0 0 C1.32451172 0.01353516 1.32451172 0.01353516 2.67578125 0.02734375 C3.67158203 0.04474609 3.67158203 0.04474609 4.6875 0.0625 C2.21151964 2.64164621 -0.38486997 4.96212444 -3.125 7.25 C-10.57525422 13.77070667 -15.175667 20.70516766 -18.3125 30.0625 C-18.55365036 30.67876755 -18.79480072 31.2950351 -19.04325867 31.92997742 C-21.27009766 37.91150647 -21.75310908 43.23506879 -21.75390625 49.58203125 C-21.76711411 50.56185471 -21.78032196 51.54167816 -21.79393005 52.55119324 C-21.83450683 55.65915789 -21.85638822 58.7668322 -21.875 61.875 C-22.06975339 87.04146626 -22.06975339 87.04146626 -24.3125 97.0625 C-24.53550781 98.28582031 -24.75851563 99.50914062 -24.98828125 100.76953125 C-29.57732049 123.15165515 -38.48300085 143.12406164 -57.3125 157 C-62.40188513 160.30208925 -67.67483346 162.84113683 -73.3125 165.0625 C-74.240625 165.45695313 -75.16875 165.85140625 -76.125 166.2578125 C-88.50135955 170.86671723 -104.31208607 171.65705661 -116.5625 166.25 C-120.34023286 164.41987822 -121.96893831 163.57784253 -124.3125 160.0625 C-123.13816406 159.54042969 -121.96382812 159.01835937 -120.75390625 158.48046875 C-105.34043626 151.48870854 -91.16607449 143.15010512 -78.3125 132.0625 C-77.51972656 131.4025 -76.72695312 130.7425 -75.91015625 130.0625 C-64.13311311 119.94131285 -55.12038836 108.10618117 -47.31103516 94.75878906 C-46.49593044 93.37410751 -45.64890683 92.00825687 -44.79296875 90.6484375 C-40.36362227 83.36462329 -37.92692467 75.1255322 -35.3125 67.0625 C-34.96372803 66.02440186 -34.96372803 66.02440186 -34.60791016 64.96533203 C-30.95602127 53.96261169 -29.38717042 43.08241936 -28.38793945 31.53955078 C-27.58382872 22.68718217 -26.31146774 13.98438586 -20.3125 7.0625 C-13.66668393 2.26399551 -8.23149348 -0.10975325 0 0 Z " fill="#AF002A" transform="translate(278.3125,222.9375)"/>
<path d="M0 0 C-0.65226562 0.94875 -1.30453125 1.8975 -1.9765625 2.875 C-4.62454297 7.52123582 -4.52350468 11.76325616 -4.375 17 C-4.37371094 17.86367188 -4.37242187 18.72734375 -4.37109375 19.6171875 C-4.30048352 24.77957961 -3.47022219 29.02870397 -2 34 C-0.8135193 43.57964515 -0.92895768 53.10082359 -7 61 C-12.31536587 67.12443041 -18.3460604 72.29095829 -24.7734375 77.2109375 C-27.07084037 78.91700762 -27.07084037 78.91700762 -28.72265625 81.20703125 C-32.269397 83.99940519 -35.68392892 83.4660755 -40.0625 83.3125 C-40.93487305 83.29703125 -41.80724609 83.2815625 -42.70605469 83.265625 C-51.81225912 83.06944106 -60.91082475 82.57578486 -70 82 C-67.82527646 70.19274819 -61.69424219 62.09372326 -52 55 C-43.498646 49.39242937 -33.82878216 47.00627199 -24.10131836 44.35913086 C-22.57776733 43.94159546 -22.57776733 43.94159546 -21.0234375 43.515625 C-20.10481934 43.27102539 -19.18620117 43.02642578 -18.23974609 42.77441406 C-15.83376432 42.12524467 -15.83376432 42.12524467 -14 40 C-12.88781623 32.17591653 -14.47777283 25.34283779 -17.125 18.0078125 C-18.05752044 14.80227347 -18.28589777 12.32010308 -18 9 C-14.76408295 3.60680491 -11.08688582 1.80722779 -5.3046875 -0.43359375 C-3 -1 -3 -1 0 0 Z " fill="#F99C00" transform="translate(280,15)"/>
<path d="M0 0 C0.76441406 0.0515625 1.52882813 0.103125 2.31640625 0.15625 C3.17878906 0.2078125 4.04117187 0.259375 4.9296875 0.3125 C10.27428589 0.93544657 15.57944378 1.72593684 20.87890625 2.65625 C18.52142877 5.32290485 16.1606068 6.61727456 12.94140625 8.09375 C8.54091435 10.22343413 5.12835703 12.15734844 2.87890625 16.65625 C2.60711478 20.80106996 2.56720877 23.72115757 3.87890625 27.65625 C6.23667581 30.01401956 6.85484388 29.95169746 10.06640625 29.96875 C11.32453125 29.865625 12.58265625 29.7625 13.87890625 29.65625 C14.45898438 28.51736328 14.45898438 28.51736328 15.05078125 27.35546875 C15.5715625 26.36160156 16.09234375 25.36773437 16.62890625 24.34375 C17.39460938 22.86455078 17.39460938 22.86455078 18.17578125 21.35546875 C19.87131851 18.66827553 21.1588602 17.25373736 23.87890625 15.65625 C26.62890625 15.46875 26.62890625 15.46875 28.87890625 15.65625 C28.24662109 16.36201172 28.24662109 16.36201172 27.6015625 17.08203125 C27.05371094 17.70464844 26.50585938 18.32726562 25.94140625 18.96875 C25.12349609 19.89107422 25.12349609 19.89107422 24.2890625 20.83203125 C21.54039007 24.38779309 21.70230363 27.94485018 21.50390625 32.28125 C20.98335527 39.93177194 20.04757308 47.366544 14.64453125 53.2578125 C9.80460981 57.0912016 3.76769703 59.42871851 -1.87890625 61.828125 C-9.85071371 65.38740295 -14.55769268 70.72826746 -18.05859375 78.71875 C-18.40921875 79.688125 -18.75984375 80.6575 -19.12109375 81.65625 C-19.45109375 81.65625 -19.78109375 81.65625 -20.12109375 81.65625 C-22.07595621 6.8301301 -22.07595621 6.8301301 0 0 Z " fill="#AE0029" transform="translate(273.12109375,137.34375)"/>
<path d="M0 0 C0 4.04586562 -1.3623692 4.79537774 -4.1875 7.625 C-14.34342693 17.42482851 -30.3232499 30.25608377 -45.1875 30.6875 C-64.35000847 29.20746886 -83.16761135 21.41766095 -97 8 C-98.30859375 5.7265625 -98.30859375 5.7265625 -99 4 C-96.60468244 3.66254646 -94.20885732 3.3299171 -91.8125 3 C-90.80219727 2.85691406 -90.80219727 2.85691406 -89.77148438 2.7109375 C-80.09374263 1.3890996 -80.09374263 1.3890996 -76.96484375 3.13671875 C-76.29582031 3.64847656 -75.62679687 4.16023438 -74.9375 4.6875 C-61.29586399 14.33033149 -46.43536475 15.39413662 -30.3125 13.3125 C-20.17221428 11.51787023 -7.49181468 7.49181468 0 0 Z " fill="#AD0029" transform="translate(225,385)"/>
<path d="M0 0 C15.26902774 -0.94074578 15.26902774 -0.94074578 20.34375 3.45703125 C22.36659477 5.50318069 24.2257929 7.68156009 26.109375 9.85546875 C30.49670735 14.87923512 36.19391297 17.85738493 42 21 C43.0003125 21.55429687 44.000625 22.10859375 45.03125 22.6796875 C52.10050644 26.41895209 59.29811309 28.8881923 67 31 C67 31.33 67 31.66 67 32 C46.12267904 36.66718552 22.3115283 34.65576415 3 25 C2.95101562 23.78183594 2.90203125 22.56367188 2.8515625 21.30859375 C2.77647727 19.68487563 2.70093198 18.06117874 2.625 16.4375 C2.57859375 15.23770508 2.57859375 15.23770508 2.53125 14.01367188 C2.28743436 9.03576917 1.56368612 4.73555351 0 0 Z " fill="#AE0029" transform="translate(99,389)"/>
<path d="M0 0 C0.33 0 0.66 0 1 0 C1.03867187 1.4540625 1.03867187 1.4540625 1.078125 2.9375 C2.15456252 31.42721298 15.49950964 52.88112119 31 76 C32.50134465 78.24910614 34.00060843 80.49959043 35.5 82.75 C36.1703125 83.75546875 36.840625 84.7609375 37.53125 85.796875 C38.0159375 86.52390625 38.500625 87.2509375 39 88 C38.67 88.66 38.34 89.32 38 90 C20.34895839 82.03597255 8.58338389 70.20551895 0 53 C-0.68642578 51.65421875 -0.68642578 51.65421875 -1.38671875 50.28125 C-7.35458341 36.04213432 -5.17066345 16.56490758 -1 2 C-0.67 1.34 -0.34 0.68 0 0 Z " fill="#AC0029" transform="translate(45,287)"/>
<path d="M0 0 C0.33 0 0.66 0 1 0 C4.62551033 14.11885729 2.4317418 29.19541514 -4 42 C-10.76261649 42.11097627 -17.33785639 41.69258682 -24.0625 41 C-25.50399414 40.85691406 -25.50399414 40.85691406 -26.97460938 40.7109375 C-29.31682923 40.4778808 -31.65856955 40.24083651 -34 40 C-32.41998416 36.6433364 -30.8222234 34.68920737 -28 32.25 C-26.79923828 31.20779297 -26.79923828 31.20779297 -25.57421875 30.14453125 C-23.02571609 28.02142357 -20.42892771 25.97601781 -17.8125 23.9375 C-9.34498241 17.16871279 -4.87189122 9.58522977 0 0 Z " fill="#F69B00" transform="translate(292,60)"/>
<path d="M0 0 C4.58363037 3.95140549 6.66427497 7.98656452 7.32421875 13.91015625 C7.55566509 20.35074935 7.21073122 23.86250497 3 29 C0.57568415 31.09472293 -1.99145768 32.92871882 -4.625 34.75 C-5.97230082 35.70178638 -7.31869614 36.65485618 -8.6640625 37.609375 C-9.55279053 38.2276416 -9.55279053 38.2276416 -10.45947266 38.85839844 C-13.95751692 41.45061 -14.75491387 43.9090027 -16 48 C-17.98 47.67 -19.96 47.34 -22 47 C-21.93963048 44.28940855 -21.8524809 41.58406023 -21.75 38.875 C-21.73582031 38.11445312 -21.72164063 37.35390625 -21.70703125 36.5703125 C-21.47962117 31.29439856 -20.53968635 28.13953253 -17 24 C-14.125 21.69140625 -14.125 21.69140625 -11 19.5625 C-5.49282319 15.55118242 -1.93842404 12.70042484 -0.55859375 5.7890625 C-0.29244771 3.8687683 -0.13571186 1.93389395 0 0 Z " fill="#F79C00" transform="translate(318,57)"/>
<path d="M0 0 C0.928125 0.845625 1.85625 1.69125 2.8125 2.5625 C11.92474089 10.33632321 22.35804778 15.62234676 33.5625 19.6875 C37 21 37 21 39 23 C42.0205058 30.06621978 43.51070372 36.33944416 43 44 C25.02791606 37.41553739 8.86308246 18.60693609 0 2 C0 1.34 0 0.68 0 0 Z " fill="#AB0029" transform="translate(52,365)"/>
<path d="M0 0 C0.33 0.66 0.66 1.32 1 2 C0.69835937 2.72703125 0.39671875 3.4540625 0.0859375 4.203125 C-3.7378513 14.05144435 -0.49040827 25.6224147 2.125 35.41796875 C3 39 3 39 3 43 C3.66 43 4.32 43 5 43 C5.06058594 42.08476563 5.12117188 41.16953125 5.18359375 40.2265625 C5.26738281 39.03804687 5.35117187 37.84953125 5.4375 36.625 C5.51871094 35.44164062 5.59992188 34.25828125 5.68359375 33.0390625 C6 30 6 30 7 28 C9.63939877 28.364055 10.75271975 28.71748389 12.53515625 30.75390625 C18.19177057 39.42738154 17.66032752 51.00894394 18 61 C17.01 61.495 17.01 61.495 16 62 C15.85304688 60.02580078 15.85304688 60.02580078 15.703125 58.01171875 C15.22497315 42.99468578 15.22497315 42.99468578 9 30 C8.85304688 30.96679688 8.70609375 31.93359375 8.5546875 32.9296875 C6.73852683 43.83507269 3.51348216 52.48810397 -5 60 C-4.71125 59.29875 -4.4225 58.5975 -4.125 57.875 C-0.56461682 48.77624299 0.10032276 40.49147779 -2 30.875 C-3.07582114 25.63520928 -3.25972859 20.51842675 -3.3125 15.1875 C-3.32990234 14.37458496 -3.34730469 13.56166992 -3.36523438 12.72412109 C-3.36110752 7.71927974 -2.67582127 4.38439316 0 0 Z " fill="#181818" transform="translate(282,17)"/>
<path d="M0 0 C5.58315145 0.81378038 11.04698401 0.10428507 16.625 -0.5 C12.93194109 1.96203927 9.6111441 2.17943111 5.3125 2.625 C4.56548828 2.71136719 3.81847656 2.79773438 3.04882812 2.88671875 C-1.11341675 3.34716024 -5.18052229 3.5933588 -9.375 3.5 C-4.03087045 -0.59716599 -4.03087045 -0.59716599 0 0 Z " fill="#1B1B1B" transform="translate(279.375,200.5)"/>
<path d="M0 0 C0.66 0.33 1.32 0.66 2 1 C-1.96 4.96 -5.92 8.92 -10 13 C-10 8.41771462 -7.08388033 6.1816619 -4 3 C-1.625 1.0625 -1.625 1.0625 0 0 Z " fill="#0F0F0F" transform="translate(223,68)"/>
<path d="M0 0 C2.31 0 4.62 0 7 0 C7 0.33 7 0.66 7 1 C5.02 1 3.04 1 1 1 C1 1.99 1 2.98 1 4 C1.66 4 2.32 4 3 4 C3 4.66 3 5.32 3 6 C1.02 6 -0.96 6 -3 6 C-2 4 -1 2 0 0 Z " fill="#1E1E1E" transform="translate(306,144)"/>
</svg>
