<?xml version="1.0" encoding="UTF-8"?>
<svg version="1.1" xmlns="http://www.w3.org/2000/svg" width="360" height="416">
<path d="M0 0 C-0.75023438 0.54527344 -1.50046875 1.09054688 -2.2734375 1.65234375 C-18.32107083 13.47585193 -31.18127521 26.53974592 -41 44 C-40.35039307 43.84853516 -39.70078613 43.69707031 -39.03149414 43.54101562 C-36.04407262 42.85052794 -33.05341422 42.17519113 -30.0625 41.5 C-29.04091797 41.26152344 -28.01933594 41.02304687 -26.96679688 40.77734375 C-20.82202239 39.40311303 -15.29531899 38.73742152 -9 39 C-11.41723924 41.41723924 -13.33647829 41.93601683 -16.5625 43.0625 C-22.25059692 45.19078571 -27.57680541 47.71129042 -32.9375 50.5625 C-33.64656494 50.93834229 -34.35562988 51.31418457 -35.08618164 51.70141602 C-44.97795295 56.9535048 -44.97795295 56.9535048 -50.12109375 66.49609375 C-57.84898416 97.30461683 -54.25800443 129.4279457 -38 157 C-35.50174729 160.77120436 -32.84722454 164.41864696 -30.13671875 168.0390625 C-28 171 -28 171 -26.89453125 173.3359375 C-26.04917012 175.3646513 -26.04917012 175.3646513 -23 176 C-21.31126121 177.64429829 -19.64694485 179.31384218 -18 181 C-16.35135455 182.35555293 -14.68996005 183.69631653 -13 185 C-13.23783203 183.62134766 -13.23783203 183.62134766 -13.48046875 182.21484375 C-16.39087477 161.61454534 -14.18999868 141.69204552 -2.1875 124.38671875 C4.49220575 115.51186777 13.74068591 107.49903866 24 103 C25.485 103.495 25.485 103.495 27 104 C26.21496094 104.67804688 25.42992187 105.35609375 24.62109375 106.0546875 C16.16813496 113.48887702 8.76882476 121.13691686 5 132 C5 132.99 5 133.98 5 135 C6.37671875 134.25943359 6.37671875 134.25943359 7.78125 133.50390625 C19.87157938 127.14256841 19.87157938 127.14256841 27 127 C27 127.66 27 128.32 27 129 C24.98359619 130.44199798 22.96032499 131.79021163 20.875 133.125 C15.41865134 136.77089645 11.30651331 140.22206548 8 146 C7.38705078 146.9590625 7.38705078 146.9590625 6.76171875 147.9375 C2.41787766 155.81910858 2.63246871 165.81427293 4.8828125 174.34765625 C7.56741189 181.23694277 11.51329137 187.15564178 16 193 C18.80838072 192.65827226 19.87384005 192.13172583 21.859375 190.05859375 C30.00459004 178.7663638 35.74170007 166.70025044 40.09814453 153.49560547 C41.14601601 150.32016846 42.13079766 147.80380352 44 145 C44.70028631 163.28525362 41.59691742 182.48552786 31.234375 197.94921875 C30.00666606 199.98892506 29.44098768 201.67431498 29 204 C43.6660064 212.20906996 60.02920452 214.56561095 76.5 210.8125 C82.24900137 209.12352785 87.64462817 206.66714384 93 204 C91.65186093 200.41780189 90.0342025 197.18890072 88.125 193.875 C81.50682315 181.83024018 78.55078401 168.90293145 76.6875 155.375 C76.58679199 154.68768799 76.48608398 154.00037598 76.38232422 153.29223633 C75.90383858 149.48099834 75.79171704 148.31242444 78 145 C79.48355248 148.93141406 80.95922998 152.86230398 82.359375 156.82421875 C87.07701974 170.03700585 92.8675404 185.9116936 105 194 C113.59069108 182.58700695 119.39084128 171.57444944 118 157 C114.76160899 144.41653779 105.90931042 135.47740306 95 129 C95 128.34 95 127.68 95 127 C103.67135605 128.23612948 110.71984598 131.14656399 118 136 C112.86515548 122.50158296 106.21366107 113.29280246 95 104 C95.66 103.67 96.32 103.34 97 103 C110.92974691 108.29230528 123.4452922 121.17715587 129.75 134.4375 C136.74945193 150.94607576 137.06175392 167.29100648 135 185 C157.80639618 165.71693016 171.17587077 139.49719102 175 110 C175.29904049 105.99488812 175.38106812 102.01549678 175.375 98 C175.37411377 96.92709717 175.37322754 95.85419434 175.37231445 94.7487793 C175.20238582 83.09098494 174.32561106 69.15976683 168 59 C158.00163373 50.409082 142.85557143 43.61469249 130 41 C130 40.34 130 39.68 130 39 C137.5786627 38.62553959 144.28174361 39.68624508 151.625 41.5 C152.62917969 41.73847656 153.63335937 41.97695313 154.66796875 42.22265625 C157.11455443 42.80517665 159.55821717 43.39772347 162 44 C158.36033855 36.62076482 154.15904527 30.42715273 148.7578125 24.21484375 C147 22 147 22 147 20 C146.34 20 145.68 20 145 20 C143.81824503 18.57134265 142.6397385 17.13983352 141.48046875 15.69287109 C138.97823376 12.83164131 136.01097424 10.61254977 133 8.3125 C132.39671875 7.84005859 131.7934375 7.36761719 131.171875 6.88085938 C127.89857262 4.34405003 124.61173987 2.04528451 121 0 C124.45389697 -1.15415109 124.96678097 -1.013632 128.6171875 0.484375 C130.04555082 1.2222419 131.46440376 1.97871045 132.875 2.75 C133.62515381 3.15468506 134.37530762 3.55937012 135.14819336 3.97631836 C153.67537413 14.29096431 168.62808552 29.49418869 178.4375 48.25 C181.87435359 54.76530015 185.3822559 58.77001118 191.421875 63.10546875 C194.23581038 65.1732849 196.58451682 67.48459575 199 70 C192.26580077 46.67484067 181.3492032 28.78449134 164 12 C164.66 11.67 165.32 11.34 166 11 C173.4027894 14.62859874 180.02368018 19.58892335 186.3125 24.875 C186.88137939 25.35098633 187.45025879 25.82697266 188.03637695 26.31738281 C189.4010862 27.4963699 190.70690415 28.74288226 192 30 C192 30.66 192 31.32 192 32 C192.66 32 193.32 32 194 32 C210.69401331 51.05478287 219.53984641 76.66252729 218 102 C214.19996076 138.39366437 190.19908833 167.18164979 163 190 C161.3356566 191.40060654 159.67211882 192.80215503 158.00952148 194.20483398 C156.86386405 195.17022563 155.71633142 196.13339771 154.56665039 197.09399414 C151.56966685 199.61120637 148.74705015 202.214899 146 205 C146.70608398 204.68659668 147.41216797 204.37319336 148.13964844 204.05029297 C151.33622073 202.64226647 154.5427234 201.25845913 157.75 199.875 C159.41675781 199.13443359 159.41675781 199.13443359 161.1171875 198.37890625 C162.18710937 197.92128906 163.25703125 197.46367187 164.359375 196.9921875 C165.34389648 196.56276855 166.32841797 196.13334961 167.34277344 195.69091797 C170 195 170 195 172.35253906 195.87548828 C172.89620117 196.24657715 173.43986328 196.61766602 174 197 C172.86090783 209.93804692 171.38577935 226.30525369 161.24609375 235.609375 C152.02488398 241.42491118 140.91881138 241.39845874 130.3125 242.125 C129.12205078 242.21136719 127.93160156 242.29773438 126.70507812 242.38671875 C123.80372125 242.59645539 120.90209489 242.80078324 118 243 C118.43143311 244.11012451 118.43143311 244.11012451 118.87158203 245.24267578 C121.53369427 253.34470062 121.53369427 253.34470062 120.07714844 257.86230469 C118.48983146 260.66938159 116.76376365 263.26156785 114.875 265.875 C113.66246275 267.66297866 112.45147975 269.45201251 111.2421875 271.2421875 C110.67209961 272.06299805 110.10201172 272.88380859 109.51464844 273.72949219 C107.73134172 276.4027276 106.32197398 279.07621812 105 282 C107.475 280.02 107.475 280.02 110 278 C112.43540057 284.22787677 114.4053206 290.51199872 116.25 296.9375 C116.55156006 297.98019043 116.85312012 299.02288086 117.16381836 300.09716797 C119.92114377 309.66094794 122.62776061 319.23893739 125.28125 328.83203125 C126.43653552 333.00603014 127.62760685 337.16756 128.84375 341.32421875 C129.41672465 343.32029586 129.98964369 345.31638893 130.5625 347.3125 C130.97640991 348.69139404 130.97640991 348.69139404 131.39868164 350.09814453 C131.63965576 350.94876465 131.88062988 351.79938477 132.12890625 352.67578125 C132.34619385 353.41739502 132.56348145 354.15900879 132.78735352 354.9230957 C133.06317499 357.617026 132.48398803 358.75576753 131 361 C129.41870117 362.56469727 129.41870117 362.56469727 127.54296875 364.06640625 C126.84888916 364.6289209 126.15480957 365.19143555 125.43969727 365.77099609 C124.69647217 366.36219238 123.95324707 366.95338867 123.1875 367.5625 C121.63738364 368.81561845 120.08791086 370.0695334 118.5390625 371.32421875 C117.76981445 371.94474121 117.00056641 372.56526367 116.20800781 373.20458984 C113.11993868 375.71560935 110.08814848 378.28941237 107.0625 380.875 C102.64536742 384.6365435 98.15628584 388.2911787 93.609375 391.89453125 C89.3685561 395.31638961 85.22728333 398.85474772 81.078125 402.38671875 C80.31918945 403.02939697 80.31918945 403.02939697 79.54492188 403.68505859 C78.47260114 404.59775131 77.40660524 405.51790682 76.34570312 406.44384766 C72.21791461 410 72.21791461 410 70 410 C73.52101929 391.91716575 77.37576463 373.91674173 81.36962891 355.93322754 C82.12264431 352.53988443 82.87269521 349.14588606 83.62304688 345.75195312 C85.07924312 339.16734967 86.5385388 332.58343685 88 326 C84.43119039 329.53717452 81.04638791 333.15590019 77.8125 337 C77.34416748 337.55453857 76.87583496 338.10907715 76.39331055 338.68041992 C71.40176032 344.63796863 66.6803482 350.79676193 62 357 C57.73465262 355.45973567 55.61089758 352.25393731 53 348.75 C48.95313069 343.45425139 44.78922393 338.29874183 40.4375 333.25 C39.92509766 332.65413086 39.41269531 332.05826172 38.88476562 331.44433594 C36.97523414 329.23539608 35.06534755 327.06534755 33 325 C33.26103516 326.11407227 33.52207031 327.22814453 33.79101562 328.37597656 C38.28403583 347.56554852 42.77179981 366.75741436 47.09985352 385.98498535 C47.44804538 387.5282151 47.79844475 389.07094854 48.15112305 390.61315918 C48.6408899 392.75767341 49.12233897 394.90388995 49.6015625 397.05078125 C49.87307129 398.25387939 50.14458008 399.45697754 50.42431641 400.6965332 C50.9782765 403.87534324 51.10964165 406.78149702 51 410 C46.19350802 406.96276887 41.99944484 403.5181179 37.75 399.75 C32.84791451 395.45279451 27.90650909 391.25427344 22.78515625 387.21875 C18.25707783 383.61152904 13.80416776 379.91315629 9.33984375 376.22753906 C4.2797226 372.05068013 -0.79883793 367.89815443 -5.8984375 363.76953125 C-6.59195313 363.18558594 -7.28546875 362.60164063 -8 362 C-8.82165649 361.33991943 -8.82165649 361.33991943 -9.65991211 360.66650391 C-11 359 -11 359 -11.05541992 357.00610352 C-9.18780679 348.11469905 -6.66400134 339.41711999 -4.11904907 330.70019531 C-2.75595389 326.0311469 -1.40944618 321.35732183 -0.0625 316.68359375 C0.20290085 315.76399872 0.4683017 314.84440369 0.741745 313.89694214 C3.28601145 305.05721611 5.69246207 296.18494764 8.03198242 287.28881836 C8.28310791 286.3375708 8.5342334 285.38632324 8.79296875 284.40625 C9.0046167 283.59478516 9.21626465 282.78332031 9.43432617 281.94726562 C10 280 10 280 11 278 C12.32 278.33 13.64 278.66 15 279 C14.61142822 278.35973877 14.22285645 277.71947754 13.82250977 277.05981445 C12.06153767 274.14858307 10.31193946 271.23067493 8.5625 268.3125 C7.95083984 267.30509766 7.33917969 266.29769531 6.70898438 265.25976562 C6.12568359 264.28330078 5.54238281 263.30683594 4.94140625 262.30078125 C4.13231812 260.95753784 4.13231812 260.95753784 3.30688477 259.5871582 C1.07582086 255.17046024 0.72609796 251.96184923 1.9375 247.1875 C2.13214844 246.39730469 2.32679687 245.60710937 2.52734375 244.79296875 C2.68332031 244.20128906 2.83929688 243.60960937 3 243 C2.28046143 242.95512451 1.56092285 242.91024902 0.81958008 242.86401367 C-32.79681165 240.70328666 -32.79681165 240.70328666 -39.5 235.875 C-48.92680101 225.03417884 -52.53325446 210.1312432 -52 196 C-48.14231222 194.71410407 -46.95293026 195.56250076 -43.23828125 197.08984375 C-42.12001953 197.54423828 -41.00175781 197.99863281 -39.84960938 198.46679688 C-38.68236328 198.95212891 -37.51511719 199.43746094 -36.3125 199.9375 C-35.13365234 200.41896484 -33.95480469 200.90042969 -32.74023438 201.39648438 C-29.82325392 202.58925776 -26.9101686 203.79072299 -24 205 C-27.18096991 201.73382554 -30.4259921 198.76510686 -34 195.9375 C-40.60841233 190.57312791 -46.8418939 184.87303947 -53 179 C-53.64163086 178.39236816 -54.28326172 177.78473633 -54.94433594 177.15869141 C-75.95636326 157.1489327 -95.05193133 132.49798625 -96.23828125 102.234375 C-96.79143703 74.98771514 -89.24883989 50.33008853 -70.2421875 30.23828125 C-62.25887892 22.26888088 -53.7151096 14.96998665 -43 11 C-44.30693567 13.98184351 -45.54082049 15.66583135 -48.125 17.625 C-59.74552687 27.30076927 -67.54964481 41.60295363 -73 55.5 C-73.43614624 56.61181641 -73.43614624 56.61181641 -73.88110352 57.74609375 C-75.53505637 62.1766644 -76.5048238 66.29582612 -77 71 C-76.61070313 70.52691406 -76.22140625 70.05382812 -75.8203125 69.56640625 C-72.49024038 65.63016893 -69.13201234 62.24943657 -65.125 59 C-60.09313636 54.60093133 -57.33719077 49.77747778 -54.26318359 43.95751953 C-51.1285025 38.0516188 -47.37560255 33.05776776 -43 28 C-42.236875 26.989375 -41.47375 25.97875 -40.6875 24.9375 C-33.71425866 17.31558504 -11.16673782 -3.72224594 0 0 Z " fill="#054B1F" transform="translate(118,3)"/>
<path d="M0 0 C0.59167969 0.08378906 1.18335938 0.16757813 1.79296875 0.25390625 C6.09939457 0.80889424 9.75552644 1.23226652 14 0 C15.89324585 4.82777692 17.49356894 9.64258175 18.9375 14.625 C20.63441589 20.18319999 22.56389154 24.33158223 26.515625 28.66015625 C31.34500591 33.99357449 33.78552348 39.3654034 33.56640625 46.80078125 C32.27145093 51.82878017 28.95740486 55.76389554 25 59 C21.81950562 59.79389844 19.19364266 59.66534222 16 59 C17.5298969 55.7872165 19.02641488 52.9652833 21.1875 50.125 C23.55842806 46.03719301 23.3210616 43.65539326 23 39 C22.34 39 21.68 39 21 39 C21 39.66 21 40.32 21 41 C15.18895 45.53545366 9.81125172 45.63797947 2.55859375 45.47265625 C-2.33282948 44.82297216 -4.51230329 43.40263094 -8 40 C-9.42003538 42.84007075 -9.27656294 44.84641427 -9 48 C-7.52278148 50.79436262 -7.52278148 50.79436262 -5.5 53.3125 C-2 57.95833333 -2 57.95833333 -2 59 C-5.19412722 59.66544317 -7.81986517 59.79870875 -11 59 C-15.40183635 55.33541703 -18.55698515 51.21507427 -19.6875 45.5625 C-19.3471875 43.7990625 -19.3471875 43.7990625 -19 42 C-18.83886719 41.10925781 -18.67773438 40.21851563 -18.51171875 39.30078125 C-17.09004172 32.76804447 -15.41863051 30.09161896 -10 26 C-6.79016532 21.29224248 -5.25700504 15.90879261 -3.7265625 10.4765625 C-2.67810659 6.90279344 -1.34946416 3.47005069 0 0 Z " fill="#F7F9F8" transform="translate(172,251)"/>
<path d="M0 0 C-0.75023438 0.54527344 -1.50046875 1.09054688 -2.2734375 1.65234375 C-18.32107083 13.47585193 -31.18127521 26.53974592 -41 44 C-40.35039307 43.84853516 -39.70078613 43.69707031 -39.03149414 43.54101562 C-36.04407262 42.85052794 -33.05341422 42.17519113 -30.0625 41.5 C-29.04091797 41.26152344 -28.01933594 41.02304687 -26.96679688 40.77734375 C-20.82202239 39.40311303 -15.29531899 38.73742152 -9 39 C-11.41723924 41.41723924 -13.33647829 41.93601683 -16.5625 43.0625 C-22.25059692 45.19078571 -27.57680541 47.71129042 -32.9375 50.5625 C-33.64656494 50.93834229 -34.35562988 51.31418457 -35.08618164 51.70141602 C-44.97795295 56.9535048 -44.97795295 56.9535048 -50.12109375 66.49609375 C-57.84898416 97.30461683 -54.25800443 129.4279457 -38 157 C-35.50174729 160.77120436 -32.84722454 164.41864696 -30.13671875 168.0390625 C-28 171 -28 171 -26.89453125 173.3359375 C-26.04917012 175.3646513 -26.04917012 175.3646513 -23 176 C-21.31126121 177.64429829 -19.64694485 179.31384218 -18 181 C-16.35135455 182.35555293 -14.68996005 183.69631653 -13 185 C-13.23783203 183.62134766 -13.23783203 183.62134766 -13.48046875 182.21484375 C-15.99440784 164.42079883 -15.36412182 144.29132728 -5 129 C-4 132 -4 132 -4.70703125 133.83203125 C-5.07183594 134.48558594 -5.43664062 135.13914063 -5.8125 135.8125 C-14.57256496 151.65651641 -12.69884786 170.79484491 -10 188 C-18.1709364 187.22606795 -24.57189945 178.91662681 -29.6875 172.94140625 C-39.47539652 160.96227413 -46.32190043 147.69995714 -51 133 C-51.29519531 132.19175781 -51.59039062 131.38351563 -51.89453125 130.55078125 C-55.77236355 119.91062071 -56.36298398 108.98417094 -56.3125 97.75 C-56.30621582 95.84009277 -56.30621582 95.84009277 -56.29980469 93.89160156 C-56.1881751 84.57884351 -55.5331123 75.97897841 -53 67 C-52.814375 66.14148438 -52.62875 65.28296875 -52.4375 64.3984375 C-49.94094962 56.14279933 -41.09768773 51.94954877 -34 48 C-30.39027124 46.16635646 -26.76530268 44.4873337 -23 43 C-29.99731325 44.3100138 -29.99731325 44.3100138 -36.875 46.125 C-40 47 -40 47 -44 47 C-39.41529971 31.82840726 -27.1370868 19.7393337 -16 9 C-15.67 8.67 -15.34 8.34 -15 8 C-22.79783632 12.61050779 -29.4610387 17.74240537 -36 24 C-36.92232422 24.82757812 -36.92232422 24.82757812 -37.86328125 25.671875 C-45.4582586 32.72560109 -50.91776203 41.66809593 -55.5 50.875 C-58.19496356 56.05428628 -60.79524628 58.91655461 -65.5859375 62.16796875 C-69.58042102 65.199381 -72.6780801 69.05448124 -75.93359375 72.83984375 C-76.61550781 73.55269531 -77.29742187 74.26554687 -78 75 C-78.66 75 -79.32 75 -80 75 C-79.63019801 67.86338764 -78.24590096 61.89612444 -75.5 55.3125 C-75.14615234 54.44963379 -74.79230469 53.58676758 -74.42773438 52.69775391 C-69.32072666 40.61221245 -62.58833977 29.94562508 -54 20 C-74.24624966 32.20518596 -85.78453004 52.51642804 -91.51123047 74.95751953 C-97.49585027 99.9661755 -92.30035931 123.97000088 -79.1328125 145.71875 C-75.80771845 150.8342793 -72.03265472 155.43105096 -68 160 C-67.32582031 160.78375 -66.65164062 161.5675 -65.95703125 162.375 C-56.73392765 172.89591368 -46.73352731 183.01888531 -36 192 C-40.52758582 192 -42.65348963 188.92546476 -45.75 185.9375 C-46.41104736 185.3069873 -47.07209473 184.67647461 -47.75317383 184.02685547 C-49.14549859 182.69334741 -50.53384457 181.35567434 -51.91845703 180.01416016 C-53.90186906 178.09495429 -55.90121428 176.1936613 -57.90234375 174.29296875 C-78.69214141 154.30606165 -95.68785059 129.3468041 -96.29248047 99.56469727 C-96.4790127 73.33872043 -88.47050991 49.50732103 -70.2421875 30.23828125 C-62.25887892 22.26888088 -53.7151096 14.96998665 -43 11 C-44.30693567 13.98184351 -45.54082049 15.66583135 -48.125 17.625 C-59.74552687 27.30076927 -67.54964481 41.60295363 -73 55.5 C-73.43614624 56.61181641 -73.43614624 56.61181641 -73.88110352 57.74609375 C-75.53505637 62.1766644 -76.5048238 66.29582612 -77 71 C-76.61070313 70.52691406 -76.22140625 70.05382812 -75.8203125 69.56640625 C-72.49024038 65.63016893 -69.13201234 62.24943657 -65.125 59 C-60.09313636 54.60093133 -57.33719077 49.77747778 -54.26318359 43.95751953 C-51.1285025 38.0516188 -47.37560255 33.05776776 -43 28 C-42.236875 26.989375 -41.47375 25.97875 -40.6875 24.9375 C-33.71425866 17.31558504 -11.16673782 -3.72224594 0 0 Z " fill="#93A398" transform="translate(118,3)"/>
<path d="M0 0 C4.86489027 0.54878335 8.73744554 2.06623353 13 4.375 C13.64718994 4.72369141 14.29437988 5.07238281 14.96118164 5.43164062 C33.13318011 15.57743416 47.82654839 30.86953925 57.4375 49.25 C60.88820346 55.8047857 64.41765662 59.78220693 70.51953125 64.10546875 C73.18046962 66.137839 74.95769739 68.36405628 77 71 C77.66 71.33 78.32 71.66 79 72 C79.33 71.34 79.66 70.68 80 70 C80.33 71.98 80.66 73.96 81 76 C77.54138868 74.55256354 75.73550595 72.75783067 73.375 69.875 C70.48353557 66.47833546 67.64532975 63.93233903 64 61.375 C59.77732617 58.13270416 57.48604433 54.72310268 55.1875 50 C45.9425914 31.0117533 30.46641736 18.15521855 13 7 C13.99 7.825 14.98 8.65 16 9.5 C27.32885492 19.28504303 38.03126142 31.07294331 44 45 C44 45.99 44 46.98 44 48 C37.33333333 46.66666667 30.66666667 45.33333333 24 44 C25.68416016 44.87011719 25.68416016 44.87011719 27.40234375 45.7578125 C31.26201959 47.76327542 35.09816849 49.80949584 38.92285156 51.88085938 C40.60362893 52.78644041 42.29620503 53.67010077 43.9921875 54.546875 C49.37529101 57.6281127 51.48781414 60.78060337 53.2265625 66.72265625 C53.48179687 67.80417969 53.73703125 68.88570313 54 70 C54.29648437 71.21558594 54.59296875 72.43117188 54.8984375 73.68359375 C61.67083937 104.44457581 54.83686625 136.6891133 38.0234375 163.10546875 C31.3606074 172.51572082 23.42217288 182.22663074 14 189 C13.01 189 12.02 189 11 189 C11.16113281 187.76121094 11.32226562 186.52242187 11.48828125 185.24609375 C12.12151348 179.51562226 12.18387468 173.82313288 12.1875 168.0625 C12.20586914 166.53206055 12.20586914 166.53206055 12.22460938 164.97070312 C12.25896496 147.02563386 6.33523857 131.46499142 -6.1875 118.5 C-8.6411181 116.06137345 -10.8325418 114.40463778 -14 113 C-13.46890625 113.68964844 -12.9378125 114.37929687 -12.390625 115.08984375 C-3.6689253 126.69225083 -3.6689253 126.69225083 -2 133 C-2.33 133.99 -2.66 134.98 -3 136 C-3.46148437 134.97261719 -3.92296875 133.94523438 -4.3984375 132.88671875 C-8.79373386 123.43162767 -13.47656514 116.32706462 -21 109 C-22.66666667 107.33333333 -24.33333333 105.66666667 -26 104 C-11.34898119 108.47016486 0.12266127 119.42032239 7.41894531 132.65527344 C16.13230326 149.48392358 16.14836472 167.54708164 14 186 C36.80639618 166.71693016 50.17587077 140.49719102 54 111 C54.29904049 106.99488812 54.38106812 103.01549678 54.375 99 C54.37411377 97.92709717 54.37322754 96.85419434 54.37231445 95.7487793 C54.20238582 84.09098494 53.32561106 70.15976683 47 60 C37.00163373 51.409082 21.85557143 44.61469249 9 42 C9 41.34 9 40.68 9 40 C16.5786627 39.62553959 23.28174361 40.68624508 30.625 42.5 C31.62917969 42.73847656 32.63335937 42.97695313 33.66796875 43.22265625 C36.11455443 43.80517665 38.55821717 44.39772347 41 45 C37.36033855 37.62076482 33.15904527 31.42715273 27.7578125 25.21484375 C26 23 26 23 26 21 C25.34 21 24.68 21 24 21 C22.81824503 19.57134265 21.6397385 18.13983352 20.48046875 16.69287109 C17.97823376 13.83164131 15.01097424 11.61254977 12 9.3125 C11.39671875 8.84005859 10.7934375 8.36761719 10.171875 7.88085938 C6.89178322 5.33878825 3.56763286 3.12841733 0 1 C0 0.67 0 0.34 0 0 Z " fill="#8A9A90" transform="translate(239,2)"/>
<path d="M0 0 C0 4.66639835 -2.53584044 8.12325416 -4.6875 12.1875 C-6.21144273 14.93581203 -6.21144273 14.93581203 -6 18 C-5.0821875 17.50628906 -4.164375 17.01257813 -3.21875 16.50390625 C8.87157938 10.14256841 8.87157938 10.14256841 16 10 C16 10.66 16 11.32 16 12 C13.98359619 13.44199798 11.96032499 14.79021163 9.875 16.125 C4.41865134 19.77089645 0.30651331 23.22206548 -3 29 C-3.40863281 29.639375 -3.81726563 30.27875 -4.23828125 30.9375 C-8.58212234 38.81910858 -8.36753129 48.81427293 -6.1171875 57.34765625 C-3.43258811 64.23694277 0.51329137 70.15564178 5 76 C7.80838072 75.65827226 8.87384005 75.13172583 10.859375 73.05859375 C19.00459004 61.7663638 24.74170007 49.70025044 29.09814453 36.49560547 C30.14601601 33.32016846 31.13079766 30.80380352 33 28 C33.70028631 46.28525362 30.59691742 65.48552786 20.234375 80.94921875 C19.00666606 82.98892506 18.44098768 84.67431498 18 87 C32.6660064 95.20906996 49.02920452 97.56561095 65.5 93.8125 C71.24900137 92.12352785 76.64462817 89.66714384 82 87 C80.65186093 83.41780189 79.0342025 80.18890072 77.125 76.875 C70.50682315 64.83024018 67.55078401 51.90293145 65.6875 38.375 C65.53643799 37.34403198 65.53643799 37.34403198 65.38232422 36.29223633 C64.90383858 32.48099834 64.79171704 31.31242444 67 28 C68.48355248 31.93141406 69.95922998 35.86230398 71.359375 39.82421875 C76.07701974 53.03700585 81.8675404 68.9116936 94 77 C102.59069108 65.58700695 108.39084128 54.57444944 107 40 C103.76160899 27.41653779 94.90931042 18.47740306 84 12 C84 11.34 84 10.68 84 10 C91.47716347 11.06589352 97.40039744 13.38758597 104 17 C104.73476562 17.3196875 105.46953125 17.639375 106.2265625 17.96875 C108 19 108 19 109 22 C105.95871087 20.89407668 103.21327296 19.58262406 100.4375 17.9375 C97.69589604 16.39223232 95.96567136 15.6294751 93 15 C93.97839844 15.87398437 93.97839844 15.87398437 94.9765625 16.765625 C103.13492968 24.41860661 109.02044287 31.8280638 109.65551758 43.29418945 C109.84574895 56.41434547 104.50557987 66.45059555 97 77 C96.34 77.66 95.68 78.32 95 79 C90.08407352 78.65033159 87.56578863 74.91545465 84.51953125 71.4296875 C78.19184995 63.28445412 72.91622134 52.88009417 70 43 C69.77938471 48.3016613 70.48144814 52.88844785 72 57.9375 C72.21567627 58.66606201 72.43135254 59.39462402 72.65356445 60.14526367 C75.18155808 68.22666882 79.00426501 75.56422827 83 83 C83.672601 84.33034962 84.34278694 85.66198161 85 87 C76.44155798 92.8734406 66.54155591 97.71963947 56 98 C54.96359375 98.05027344 53.9271875 98.10054688 52.859375 98.15234375 C38.46305434 98.54871822 27.39504089 94.78289344 15 88 C15.541342 84.57542344 16.27269889 82.21580603 18.25 79.375 C25.05059596 68.81153826 30.678609 54.81816995 30 42 C29.74347656 42.76441406 29.48695313 43.52882812 29.22265625 44.31640625 C24.53749425 57.42539487 17.86792242 69.07830144 8 79 C4.20684017 78.46049149 2.84914871 77.06735708 0.5625 74.0625 C-7.10150468 63.70129196 -11.38369553 52.98545038 -10 40 C-7.62753929 29.24884893 -0.86653945 21.37488073 7 14 C5.05886066 14.92994117 3.1222049 15.8692453 1.1875 16.8125 C0.10855469 17.33457031 -0.97039062 17.85664063 -2.08203125 18.39453125 C-4.59719587 19.77837685 -6.06351789 20.96577747 -8 23 C-8.66 23 -9.32 23 -10 23 C-8.65338954 14.92033725 -5.92617571 5.92617571 0 0 Z " fill="#8E9E94" transform="translate(129,120)"/>
<path d="M0 0 C3.30546554 3.04161463 5.51524014 6.21189946 7.8125 10.0625 C8.50558144 11.21670418 9.19961057 12.37033975 9.89453125 13.5234375 C10.24209473 14.1019043 10.5896582 14.68037109 10.94775391 15.27636719 C13.13239631 18.85492295 15.45063623 22.3499655 17.75 25.85546875 C19 28 19 28 19 30 C15.21388773 29.45912682 13.44599233 27.88277668 11 25 C11 24.34 11 23.68 11 23 C10.34 23 9.68 23 9 23 C8.67 22.34 8.34 21.68 8 21 C6.02304423 26.79226449 4.19832304 32.60314005 2.546875 38.49609375 C2.32555908 39.27945602 2.10424316 40.0628183 1.8762207 40.86991882 C1.16477185 43.39169311 0.45688029 45.91444151 -0.25 48.4375 C-0.612005 49.72850616 -0.612005 49.72850616 -0.98132324 51.04559326 C-2.20137638 55.39889574 -3.41843558 59.75302103 -4.6328125 64.10791016 C-5.67121467 67.82954718 -6.71994542 71.54811868 -7.7744751 75.26521301 C-8.60882017 78.21592194 -9.42861989 81.17066038 -10.25 84.125 C-10.54938477 85.17099365 -10.84876953 86.2169873 -11.15722656 87.29467773 C-11.41987305 88.25188721 -11.68251953 89.20909668 -11.953125 90.1953125 C-12.18161133 91.01016113 -12.41009766 91.82500977 -12.64550781 92.66455078 C-13.066152 95.43581956 -12.83338367 97.32685666 -12 100 C-9.89675068 102.12080077 -7.87446267 103.95201051 -5.5625 105.8125 C-4.60307495 106.60841553 -4.60307495 106.60841553 -3.62426758 107.42041016 C-1.76027238 108.9607512 0.11656963 110.48351924 2 112 C3.26457031 113.02287109 3.26457031 113.02287109 4.5546875 114.06640625 C6.09513392 115.30036246 7.63958975 116.52932593 9.1875 117.75390625 C12.92476706 120.73852925 16.61996153 123.77280623 20.3125 126.8125 C21.40377197 127.71077515 21.40377197 127.71077515 22.51708984 128.62719727 C27.74254794 132.93910154 32.92819203 137.29572648 38.06567383 141.7121582 C40.85818235 144.1096821 40.85818235 144.1096821 44 146 C43.69449219 144.77539062 43.38898438 143.55078125 43.07421875 142.2890625 C39.46830883 127.63243389 36.14940345 112.91336308 32.88491821 98.1774292 C32.37839782 95.8928902 31.87007703 93.60874964 31.35995483 91.32501221 C30.6329749 88.06680826 29.9131579 84.80710207 29.1953125 81.546875 C28.97370956 80.55817413 28.75210663 79.56947327 28.52378845 78.55081177 C28.32274002 77.63008881 28.12169159 76.70936584 27.91455078 75.76074219 C27.73723419 74.95900574 27.5599176 74.15726929 27.37722778 73.33123779 C26.97577913 70.85031696 26.93488795 68.50888221 27 66 C29.72211477 68.72211477 29.84856664 71.00956256 30.6640625 74.76953125 C30.81724442 75.46581635 30.97042633 76.16210144 31.12825012 76.87948608 C31.63441599 79.18897594 32.12985358 81.50062463 32.625 83.8125 C32.97475844 85.42175776 33.3251088 87.03088697 33.67602539 88.63989258 C34.4122054 92.02111977 35.14383935 95.40329018 35.87255859 98.78613281 C36.80556615 103.11138845 37.75305094 107.43330243 38.70672607 111.75404358 C39.44360789 115.0936062 40.17629684 118.4340802 40.90814209 121.77474976 C41.25816197 123.37009866 41.60941896 124.9651767 41.9619751 126.55996704 C43.68014199 134.34546849 45.35958399 142.03538966 46 150 C41.19350802 146.96276887 36.99944484 143.5181179 32.75 139.75 C27.84791451 135.45279451 22.90650909 131.25427344 17.78515625 127.21875 C13.25707783 123.61152904 8.80416776 119.91315629 4.33984375 116.22753906 C-0.7202774 112.05068013 -5.79883793 107.89815443 -10.8984375 103.76953125 C-11.59195313 103.18558594 -12.28546875 102.60164063 -13 102 C-13.547771 101.55994629 -14.09554199 101.11989258 -14.65991211 100.66650391 C-16 99 -16 99 -16.05541992 97.00610352 C-14.18780679 88.11469905 -11.66400134 79.41711999 -9.11904907 70.70019531 C-7.75595389 66.0311469 -6.40944618 61.35732183 -5.0625 56.68359375 C-4.79709915 55.76399872 -4.5316983 54.84440369 -4.258255 53.89694214 C-1.71398855 45.05721611 0.69246207 36.18494764 3.03198242 27.28881836 C3.40867065 25.86194702 3.40867065 25.86194702 3.79296875 24.40625 C4.0046167 23.59478516 4.21626465 22.78332031 4.43432617 21.94726562 C5 20 5 20 6 18 C7.32 18.33 8.64 18.66 10 19 C9.69707031 18.49549316 9.39414063 17.99098633 9.08203125 17.47119141 C7.71681731 15.19180921 6.35834217 12.90848332 5 10.625 C4.52304688 9.8309375 4.04609375 9.036875 3.5546875 8.21875 C3.10351562 7.45820313 2.65234375 6.69765625 2.1875 5.9140625 C1.76855469 5.2123291 1.34960938 4.5105957 0.91796875 3.78759766 C0 2 0 2 0 0 Z " fill="#8D9D92" transform="translate(123,263)"/>
<path d="M0 0 C1.19879827 3.5963948 0.62254723 5.26895165 0 9 C-0.18028806 12.35424821 -0.19015594 15.70392116 -0.1875 19.0625 C-0.18741943 20.02260986 -0.18733887 20.98271973 -0.18725586 21.97192383 C-0.11484254 31.30409526 0.72342215 40.5043534 1.75634766 49.77246094 C2.0855809 52.78240492 2.35887315 55.79639571 2.625 58.8125 C2.69976562 59.64394531 2.77453125 60.47539062 2.8515625 61.33203125 C2.90054688 61.88246094 2.94953125 62.43289062 3 63 C-2.2575998 60.3712001 -4.39200041 51.1827797 -6.1875 45.9375 C-6.80644071 43.96290372 -7.41185125 41.98398566 -8 40 C-8.22816406 39.26265625 -8.45632812 38.5253125 -8.69140625 37.765625 C-11.16217734 28.57366543 -11.81632783 17.52366822 -7.2890625 8.94140625 C-5.13766137 5.70126576 -2.69776513 2.79668318 0 0 Z " fill="#EDF2EE" transform="translate(50,80)"/>
<path d="M0 0 C7.33731984 7.1390139 11.14337524 13.07466633 11.3125 23.5 C11.29344425 28.63234793 10.3768805 33.09907982 9 38 C8.82315674 38.64598145 8.64631348 39.29196289 8.46411133 39.95751953 C5.95134325 48.93379236 2.92591375 57.01020175 -2 65 C-3.15145913 61.31888155 -2.5700478 58.94044199 -1.55175781 55.23095703 C-0.59132345 51.34757242 -0.24406331 47.4141287 0.125 43.4375 C0.20919189 42.53999023 0.29338379 41.64248047 0.38012695 40.71777344 C0.9752094 33.72630835 1.18179878 26.76534644 1.1875 19.75 C1.18830566 18.8108374 1.18911133 17.8716748 1.18994141 16.90405273 C1.14407098 11.20031966 0.72170609 5.65817574 0 0 Z " fill="#ECF1EE" transform="translate(307,80)"/>
<path d="M0 0 C0.66 0.33 1.32 0.66 2 1 C-6.48949326 7.88337292 -18.21341783 7.40751655 -28.6875 8.125 C-29.87794922 8.21136719 -31.06839844 8.29773438 -32.29492188 8.38671875 C-35.19627875 8.59645539 -38.09790511 8.80078324 -41 9 C-40.71237793 9.74008301 -40.42475586 10.48016602 -40.12841797 11.24267578 C-37.46630573 19.34470062 -37.46630573 19.34470062 -38.92285156 23.86230469 C-40.51016854 26.66938159 -42.23623635 29.26156785 -44.125 31.875 C-45.33753725 33.66297866 -46.54852025 35.45201251 -47.7578125 37.2421875 C-48.32790039 38.06299805 -48.89798828 38.88380859 -49.48535156 39.72949219 C-51.26865828 42.4027276 -52.67802602 45.07621812 -54 48 C-52.35 46.68 -50.7 45.36 -49 44 C-46.56459943 50.22787677 -44.5946794 56.51199872 -42.75 62.9375 C-42.44843994 63.98019043 -42.14687988 65.02288086 -41.83618164 66.09716797 C-39.07885623 75.66094794 -36.37223939 85.23893739 -33.71875 94.83203125 C-32.56346448 99.00603014 -31.37239315 103.16756 -30.15625 107.32421875 C-29.58327535 109.32029586 -29.01035631 111.31638893 -28.4375 113.3125 C-28.16156006 114.2317627 -27.88562012 115.15102539 -27.60131836 116.09814453 C-27.23985718 117.37407471 -27.23985718 117.37407471 -26.87109375 118.67578125 C-26.65380615 119.41739502 -26.43651855 120.15900879 -26.21264648 120.9230957 C-25.93895784 123.59619481 -26.5465153 124.76686392 -28 127 C-30.01006187 128.83745268 -32.00259315 130.55601402 -34.125 132.25 C-34.68832031 132.70890625 -35.25164062 133.1678125 -35.83203125 133.640625 C-37.21622599 134.76674953 -38.60743411 135.88424385 -40 137 C-40.66 136.67 -41.32 136.34 -42 136 C-40.58510266 134.72719706 -39.16800334 133.4568417 -37.75 132.1875 C-36.56664062 131.12595703 -36.56664062 131.12595703 -35.359375 130.04296875 C-33.29708621 128.25724518 -31.19026435 126.62249287 -29 125 C-30.34356682 116.59871183 -32.38059839 108.49657369 -34.6875 100.3125 C-35.0383667 99.0538916 -35.3892334 97.7952832 -35.75073242 96.49853516 C-38.31450649 87.32164338 -40.95450295 78.16671873 -43.65307617 69.02856445 C-45.03014077 64.36293744 -46.38645451 59.69197653 -47.69921875 55.0078125 C-47.94889404 54.11980957 -48.19856934 53.23180664 -48.45581055 52.31689453 C-49 50 -49 50 -49 47 C-49.53109375 47.48210937 -50.0621875 47.96421875 -50.609375 48.4609375 C-51.31578125 49.09257812 -52.0221875 49.72421875 -52.75 50.375 C-53.44609375 51.00148438 -54.1421875 51.62796875 -54.859375 52.2734375 C-56.84508688 53.87505183 -58.67954093 54.96520068 -61 56 C-59.75112455 51.84970439 -58.23271779 48.44911082 -55.8828125 44.8125 C-55.27566406 43.86632812 -54.66851562 42.92015625 -54.04296875 41.9453125 C-53.09357422 40.48738281 -53.09357422 40.48738281 -52.125 39 C-51.49980469 38.02804687 -50.87460938 37.05609375 -50.23046875 36.0546875 C-47.72938291 32.1735099 -45.22963108 28.31379488 -42.54296875 24.55859375 C-40.33235656 20.89289505 -41.18448665 17.96604354 -42 14 C-42.33880971 11.66745557 -42.67260194 9.33417353 -43 7 C-42.15405273 6.92483154 -41.30810547 6.84966309 -40.43652344 6.7722168 C-37.23753632 6.48336477 -34.03948405 6.18593616 -30.84179688 5.88305664 C-29.46905759 5.75472282 -28.09601214 5.62961451 -26.72265625 5.50805664 C-12.41043089 5.15485509 -12.41043089 5.15485509 0 0 Z " fill="#8D9E93" transform="translate(277,237)"/>
<path d="M0 0 C1.80478389 5.41435167 -0.67581649 11.12403893 -3 16.171875 C-5.54070617 20.30052252 -8.39418728 22.27931723 -13.04296875 23.578125 C-19.64620524 24.52019837 -26.34983541 24.20614747 -33 24 C-30.25035563 21.01593894 -27.76412045 19.20175444 -24.125 17.4375 C-16.7016194 13.54097452 -10.48036363 8.25858807 -4 3 C-2.67314589 1.99141884 -1.34316849 0.98675032 0 0 Z " fill="#F1F5F2" transform="translate(280,210)"/>
<path d="M0 0 C1.03125 0.78375 2.0625 1.5675 3.125 2.375 C12.44064773 9.33704768 21.68266068 16.07197231 31.8671875 21.72265625 C32.57101563 22.14417969 33.27484375 22.56570312 34 23 C34 23.33 34 23.66 34 24 C13.58624339 24.32063492 13.58624339 24.32063492 8.0625 21.5 C3.3050215 15.73335939 0 7.44639154 0 0 Z " fill="#F4F7F5" transform="translate(77,210)"/>
<path d="M0 0 C0.33 0 0.66 0 1 0 C1.14695312 0.7528125 1.29390625 1.505625 1.4453125 2.28125 C5.41908732 21.09958593 12.97981181 37.49697398 25.56640625 52.14453125 C27 54 27 54 27 56 C28.485 56.495 28.485 56.495 30 57 C31.68873879 58.64429829 33.35305515 60.31384218 35 62 C36.64864545 63.35555293 38.31003995 64.69631653 40 66 C39.76216797 64.62134766 39.76216797 64.62134766 39.51953125 63.21484375 C37.00559216 45.42079883 37.63587818 25.29132728 48 10 C49 13 49 13 48.29296875 14.83203125 C47.92816406 15.48558594 47.56335938 16.13914063 47.1875 16.8125 C38.42743504 32.65651641 40.30115214 51.79484491 43 69 C34.8290636 68.22606795 28.42810055 59.91662681 23.3125 53.94140625 C13.52044531 41.95718506 6.69228246 28.70004114 2 14 C1.67 13.11054688 1.34 12.22109375 1 11.3046875 C-0.52348399 7.18311921 -1.53908972 4.33743467 0 0 Z " fill="#8B9B90" transform="translate(65,122)"/>
<path d="M0 0 C9.35518546 2.41349993 18.126276 6.24256466 27 10 C27 9.34 27 8.68 27 8 C29.62187494 9.04874998 30.79371361 9.64931313 32.25 12.125 C32.4975 12.74375 32.745 13.3625 33 14 C29.335901 13.20978123 25.96571658 11.8728061 22.484375 10.49609375 C21.86854553 10.2533522 21.25271606 10.01061066 20.6182251 9.76051331 C18.66122086 8.98850448 16.70560121 8.21305508 14.75 7.4375 C13.41936088 6.91188136 12.08863266 6.38648822 10.7578125 5.86132812 C7.50417228 4.57682897 4.25176441 3.28924162 1 2 C1.39365105 5.31564839 1.81919136 8.62649132 2.25 11.9375 C2.35957031 12.86369141 2.46914062 13.78988281 2.58203125 14.74414062 C3.73483408 23.39016185 6.57684443 32.70726383 13 39 C25.07770392 46.12362452 43.27642772 44.88751962 57 46 C56.85780029 46.61125732 56.71560059 47.22251465 56.5690918 47.85229492 C56.38515869 48.65771729 56.20122559 49.46313965 56.01171875 50.29296875 C55.73654419 51.48829224 55.73654419 51.48829224 55.45581055 52.70776367 C54.60532959 56.98476724 54.71973405 60.83913567 56 65 C53.9375 63.5 53.9375 63.5 52 61 C52.13820588 58.0976766 52.39307237 55.78564222 53 53 C53.33476051 51.3336194 53.66825267 49.66698308 54 48 C53.28046143 47.95512451 52.56092285 47.91024902 51.81958008 47.86401367 C18.20318835 45.70328666 18.20318835 45.70328666 11.5 40.875 C2.19112496 30.1697937 -1.77848429 15.01271717 -1 1 C-0.67 0.67 -0.34 0.34 0 0 Z " fill="#96A49B" transform="translate(67,198)"/>
<path d="M0 0 C7.63769418 -0.49275446 14.29394336 0.76905293 21.66552734 2.57714844 C25.52974495 3.51377669 28.98737598 4.25629535 33 4 C32.67 4.99 32.34 5.98 32 7 C31.25234375 6.855625 30.5046875 6.71125 29.734375 6.5625 C28.74953125 6.376875 27.7646875 6.19125 26.75 6 C25.77546875 5.814375 24.8009375 5.62875 23.796875 5.4375 C20.81315721 4.89696983 20.81315721 4.89696983 17 5 C17.97839844 5.50789063 18.95679688 6.01578125 19.96484375 6.5390625 C23.36900837 8.31739636 26.74915223 10.13679733 30.11914062 11.97900391 C31.68930641 12.83134468 33.27282947 13.65901963 34.859375 14.48046875 C40.30243655 17.59470363 42.46801936 20.71295606 44.2265625 26.72265625 C44.48179687 27.80417969 44.73703125 28.88570312 45 30 C45.44472656 31.82337891 45.44472656 31.82337891 45.8984375 33.68359375 C48.53451718 45.71319381 48.31683441 57.74419496 48 70 C45.95166017 66.92749026 45.75461229 66.28282989 45.7265625 62.81640625 C45.70867676 61.98052979 45.69079102 61.14465332 45.67236328 60.28344727 C45.6567334 59.38553467 45.64110352 58.48762207 45.625 57.5625 C45.3786679 49.91355552 44.63600438 42.56762359 43.125 35.0625 C42.96338379 34.24144775 42.80176758 33.42039551 42.63525391 32.57446289 C41.46361953 27.09032588 40.27680046 21.95630021 35.86328125 18.1640625 C24.55756474 11.34254289 13.06164531 4.65660583 0 2 C0 1.34 0 0.68 0 0 Z " fill="#86958B" transform="translate(248,42)"/>
<path d="M0 0 C0 4.66639835 -2.53584044 8.12325416 -4.6875 12.1875 C-6.21144273 14.93581203 -6.21144273 14.93581203 -6 18 C-5.0821875 17.50628906 -4.164375 17.01257813 -3.21875 16.50390625 C8.87157938 10.14256841 8.87157938 10.14256841 16 10 C16 10.66 16 11.32 16 12 C13.98359619 13.44199798 11.96032499 14.79021163 9.875 16.125 C4.41865134 19.77089645 0.30651331 23.22206548 -3 29 C-3.40863281 29.639375 -3.81726563 30.27875 -4.23828125 30.9375 C-8.08453952 37.91627789 -8.14630264 46.2552808 -7 54 C-5.73604848 58.24892929 -4.05873743 62.08216028 -2 66 C-1.33333333 67.33333333 -0.66666667 68.66666667 0 70 C-0.99 70.495 -0.99 70.495 -2 71 C-7.87492449 59.91523682 -12.19600038 49.95149537 -9.3828125 37.203125 C-6.37867121 27.79192132 -0.10901852 20.66470486 7 14 C5.05886066 14.92994117 3.1222049 15.8692453 1.1875 16.8125 C0.10855469 17.33457031 -0.97039062 17.85664063 -2.08203125 18.39453125 C-4.59719587 19.77837685 -6.06351789 20.96577747 -8 23 C-8.66 23 -9.32 23 -10 23 C-8.65338954 14.92033725 -5.92617571 5.92617571 0 0 Z " fill="#84968A" transform="translate(129,120)"/>
<path d="M0 0 C0.66 0 1.32 0 2 0 C0.75386912 7.8873226 -0.72117956 15.68398224 -2.4609375 23.4765625 C-2.6927774 24.52669525 -2.92461731 25.576828 -3.16348267 26.65878296 C-3.8977596 29.98150398 -4.63629709 33.30326049 -5.375 36.625 C-5.86226156 38.82676044 -6.34924267 41.02858296 -6.8359375 43.23046875 C-7.3150251 45.39585083 -7.79419086 47.56121561 -8.2734375 49.7265625 C-8.50625427 50.77861877 -8.73907104 51.83067505 -8.97894287 52.91461182 C-10.05409399 57.76478856 -11.13666483 62.61292601 -12.24316406 67.45605469 C-12.43165924 68.28656342 -12.62015442 69.11707214 -12.81436157 69.9727478 C-13.1606413 71.49605992 -13.5103004 73.01860971 -13.86410522 74.54019165 C-14.60784954 77.82194053 -15 80.60812229 -15 84 C-14.11957031 83.25234375 -13.23914063 82.5046875 -12.33203125 81.734375 C-11.158885 80.73954698 -9.98570618 79.74475735 -8.8125 78.75 C-7.9452832 78.01330078 -7.9452832 78.01330078 -7.06054688 77.26171875 C-3.74768589 74.45420944 -0.4063788 71.69431092 3 69 C3.66 69.33 4.32 69.66 5 70 C-13.8279703 87.2759901 -13.8279703 87.2759901 -19 89 C-15.4975378 71.01380862 -11.66448137 53.11168299 -7.68865967 35.22467041 C-6.65643123 30.57799078 -5.62839311 25.93038169 -4.59979248 21.28289795 C-4.05636336 18.82865957 -3.51217143 16.37458994 -2.96710205 13.92071533 C-2.72304626 12.82056091 -2.47899048 11.72040649 -2.22753906 10.58691406 C-2.01389709 9.62529358 -1.80025513 8.6636731 -1.58013916 7.6729126 C-1.02607473 5.12013579 -0.50439712 2.56300651 0 0 Z " fill="#8B9C91" transform="translate(207,324)"/>
<path d="M0 0 C8.3744816 3.19940582 15.29613225 8.02156726 22.125 13.75 C22.70572266 14.2339624 23.28644531 14.7179248 23.88476562 15.21655273 C25.2988424 16.43004672 26.65527678 17.71007742 28 19 C28 19.66 28 20.32 28 21 C28.66 21 29.32 21 30 21 C32.12079476 23.25058029 33.86572377 25.81701029 35.6875 28.3125 C36.21150391 29.00279297 36.73550781 29.69308594 37.27539062 30.40429688 C37.76587891 31.07138672 38.25636719 31.73847656 38.76171875 32.42578125 C39.21506592 33.03848877 39.66841309 33.65119629 40.13549805 34.2824707 C40.42078369 34.84925537 40.70606934 35.41604004 41 36 C40.67 36.99 40.34 37.98 40 39 C39.39671875 38.10796875 38.7934375 37.2159375 38.171875 36.296875 C37.36480891 35.11442934 36.55750461 33.93214624 35.75 32.75 C35.35425781 32.16347656 34.95851563 31.57695313 34.55078125 30.97265625 C32.72764188 28.31266602 30.99381503 25.99381503 28.703125 23.703125 C28.14109375 23.14109375 27.5790625 22.5790625 27 22 C27 21.34 27 20.68 27 20 C26.4328125 19.7525 25.865625 19.505 25.28125 19.25 C21.78087911 17.33198855 19.12548724 14.58264565 16.21875 11.875 C14.19789547 10.1672356 12.41137444 9.05223612 10 8 C10.54527344 8.54785156 11.09054687 9.09570312 11.65234375 9.66015625 C20.71543453 19.18802091 26.94042089 29.90233167 32 42 C32.29084473 42.69359619 32.58168945 43.38719238 32.88134766 44.10180664 C34.60043057 48.41617372 35.51869619 52.37948347 36 57 C34.32301419 54.48452128 33.36639207 52.5723209 32.3359375 49.7890625 C28.42098789 39.46160863 24.36353315 30.09260936 18 21 C17.17242187 19.81083984 17.17242187 19.81083984 16.328125 18.59765625 C12.52840877 13.44994545 8.14098481 8.981238 3.55541992 4.54052734 C2.35472584 3.37617973 1.17519912 2.19007506 0 1 C0 0.67 0 0.34 0 0 Z " fill="#919D95" transform="translate(282,14)"/>
<path d="M0 0 C0.3125 3.1875 0.3125 3.1875 0 7 C-2.1727422 9.63016161 -3.94673788 11.47336894 -7 13 C-12.02618483 13.3793347 -14.89888036 12.98263247 -19 10 C-18.890625 8.203125 -18.890625 8.203125 -18 6 C-15.234375 4.296875 -15.234375 4.296875 -11.75 2.75 C-10.04070312 1.96882812 -10.04070312 1.96882812 -8.296875 1.171875 C-5.23275438 0.0827326 -3.20428041 -0.26501567 0 0 Z " fill="#F1F5F2" transform="translate(217,237)"/>
<path d="M0 0 C4.78642607 0.5746621 8.53788787 1.98245643 12.875 4.0625 C14.60363281 4.88427734 14.60363281 4.88427734 16.3671875 5.72265625 C17.67042969 6.35494141 17.67042969 6.35494141 19 7 C18.1953125 10.84375 18.1953125 10.84375 16.4375 12.25 C12.92834493 13.32974002 9.60574088 13.60095681 6 13 C3.1899654 11.20636089 1.49059532 9.98119065 0 7 C-0.04022391 4.6670134 -0.04320247 2.33293334 0 0 Z " fill="#F4F7F5" transform="translate(141,237)"/>
<path d="M0 0 C7.92 0 15.84 0 24 0 C19 8 19 8 15.625 9.02734375 C6.02750748 8.78947486 6.02750748 8.78947486 2.9765625 6.4453125 C0 2.29877168 0 2.29877168 0 0 Z " fill="#F0F5F2" transform="translate(167,318)"/>
<path d="M0 0 C11.74471155 3.58342294 19.82313263 11.25375696 28 20 C27.67 20.66 27.34 21.32 27 22 C26.25234375 21.22914062 25.5046875 20.45828125 24.734375 19.6640625 C23.73985349 18.65077644 22.74504677 17.63777025 21.75 16.625 C21.25886719 16.11710937 20.76773438 15.60921875 20.26171875 15.0859375 C17.69417864 12.48416352 15.42608429 10.35411903 12 9 C12.53109375 9.68964844 13.0621875 10.37929687 13.609375 11.08984375 C22.3310747 22.69225083 22.3310747 22.69225083 24 29 C23.67 29.99 23.34 30.98 23 32 C22.53851563 30.97261719 22.07703125 29.94523437 21.6015625 28.88671875 C17.20626614 19.43162767 12.52343486 12.32706462 5 5 C3.33333333 3.33333333 1.66666667 1.66666667 0 0 Z " fill="#95A299" transform="translate(213,106)"/>
<path d="M0 0 C-1.93521061 1.79419526 -3.8730354 3.58541329 -5.8125 5.375 C-6.63331055 6.13683594 -6.63331055 6.13683594 -7.47070312 6.9140625 C-9.90022015 9.15216303 -12.24568668 11.16379112 -15 13 C-14.67 12.360625 -14.34 11.72125 -14 11.0625 C-12.92728775 9.23205433 -12.92728775 9.23205433 -13 8 C-19.77261043 13.00110267 -25.16891083 18.0893029 -30 25 C-30 19.8864425 -26.3245396 16.66353558 -23 13 C-6.5308204 -2.17694013 -6.5308204 -2.17694013 0 0 Z " fill="#92A197" transform="translate(145,107)"/>
<path d="M0 0 C0 4.66639835 -2.53584044 8.12325416 -4.6875 12.1875 C-6.21144273 14.93581203 -6.21144273 14.93581203 -6 18 C-5.25234375 17.55527344 -4.5046875 17.11054688 -3.734375 16.65234375 C-2.25710937 15.80349609 -2.25710937 15.80349609 -0.75 14.9375 C0.22453125 14.36902344 1.1990625 13.80054688 2.203125 13.21484375 C5 12 5 12 7.359375 12.31640625 C7.90078125 12.54199219 8.4421875 12.76757812 9 13 C8.02417969 13.47050781 7.04835937 13.94101563 6.04296875 14.42578125 C4.75765492 15.05436539 3.47250733 15.68328952 2.1875 16.3125 C1.22360352 16.7755957 1.22360352 16.7755957 0.24023438 17.24804688 C-3.00326278 18.84458693 -5.54577837 20.35009293 -8 23 C-8.66 23 -9.32 23 -10 23 C-8.65338954 14.92033725 -5.92617571 5.92617571 0 0 Z " fill="#95A49A" transform="translate(129,120)"/>
<path d="M0 0 C0.33 0.66 0.66 1.32 1 2 C-0.21484375 4.3828125 -0.21484375 4.3828125 -1.9375 7.125 C-2.50339844 8.03507812 -3.06929687 8.94515625 -3.65234375 9.8828125 C-4.09707031 10.58148438 -4.54179687 11.28015625 -5 12 C-3.68 11.01 -2.36 10.02 -1 9 C-0.34 9.33 0.32 9.66 1 10 C0.67 11.32 0.34 12.64 0 14 C0 13.34 0 12.68 0 12 C-0.53109375 12.48210937 -1.0621875 12.96421875 -1.609375 13.4609375 C-2.31578125 14.09257812 -3.0221875 14.72421875 -3.75 15.375 C-4.44609375 16.00148438 -5.1421875 16.62796875 -5.859375 17.2734375 C-7.84508688 18.87505183 -9.67954093 19.96520068 -12 21 C-10.54488901 15.63114222 -7.99676879 11.63713641 -4.875 7.125 C-4.40707031 6.43664062 -3.93914062 5.74828125 -3.45703125 5.0390625 C-2.31098303 3.35507328 -1.15635521 1.6769284 0 0 Z " fill="#99A89E" transform="translate(228,272)"/>
<path d="M0 0 C-2.49855905 2.49855905 -4.74739285 3.15752205 -8.0625 4.375 C-13.47079004 6.40010416 -18.7594362 8.57606997 -24 11 C-24.33 10.34 -24.66 9.68 -25 9 C-21.04 7.02 -17.08 5.04 -13 3 C-13.66 2.34 -14.32 1.68 -15 1 C-9.94997778 -0.03590199 -5.12583611 -0.10251672 0 0 Z " fill="#7D8E83" transform="translate(109,42)"/>
<path d="M0 0 C0.33 0 0.66 0 1 0 C1 4.62 1 9.24 1 14 C2.5675 12.576875 4.135 11.15375 5.75 9.6875 C8.742116 6.97097363 11.72227548 4.36639457 15 2 C13.47925254 5.60047236 11.33755655 7.90006763 8.5625 10.625 C7.38880859 11.78902344 7.38880859 11.78902344 6.19140625 12.9765625 C1.83397683 17 1.83397683 17 -2 17 C-1.34 11.39 -0.68 5.78 0 0 Z " fill="#93A398" transform="translate(252,174)"/>
<path d="M0 0 C1.90845703 0.16628906 1.90845703 0.16628906 3.85546875 0.3359375 C4.83128906 0.43132812 5.80710937 0.52671875 6.8125 0.625 C6.5959375 1.49511719 6.5959375 1.49511719 6.375 2.3828125 C4.9649933 8.31659071 3.97523128 13.65387665 5.8125 19.625 C3.75 18.125 3.75 18.125 1.8125 15.625 C1.95070588 12.7226766 2.20557237 10.41064222 2.8125 7.625 C3.1425 5.975 3.4725 4.325 3.8125 2.625 C-3.1175 2.13 -3.1175 2.13 -10.1875 1.625 C-6.35207543 -0.93194972 -4.52847467 -0.41545639 0 0 Z " fill="#849289" transform="translate(117.1875,243.375)"/>
<path d="M0 0 C1 3 1 3 0.29296875 4.83203125 C-0.07183594 5.48558594 -0.43664062 6.13914063 -0.8125 6.8125 C-3.84351393 12.29458657 -5.24136485 17.68955394 -6.125 23.875 C-6.29257813 25.02742188 -6.46015625 26.17984375 -6.6328125 27.3671875 C-6.75398438 28.23601562 -6.87515625 29.10484375 -7 30 C-7.66 29.67 -8.32 29.34 -9 29 C-8.53424228 18.47387557 -5.66435914 8.90113578 0 0 Z " fill="#91A097" transform="translate(113,132)"/>
<path d="M0 0 C-1.95687959 1.48112446 -3.91541437 2.95996347 -5.875 4.4375 C-6.43058594 4.85837891 -6.98617187 5.27925781 -7.55859375 5.71289062 C-11.7734375 8.88671875 -11.7734375 8.88671875 -14 10 C-14 9.01 -14 8.02 -14 7 C-15.98 7.99 -15.98 7.99 -18 9 C-16.78747132 5.36241395 -15.39227469 4.87168976 -12.08203125 3.19921875 C-11.43621094 2.88597656 -10.79039063 2.57273437 -10.125 2.25 C-9.16787109 1.75693359 -9.16787109 1.75693359 -8.19140625 1.25390625 C-3.38002232 -1.12667411 -3.38002232 -1.12667411 0 0 Z " fill="#86968B" transform="translate(118,3)"/>
<path d="M0 0 C3.56720996 2.67540747 6.41126424 5.35659412 9 9 C9 9.66 9 10.32 9 11 C13.82675589 8.58662205 16.69984002 5.13937592 20 1 C20 4.99282941 18.52191924 6.15331592 16 9.1875 C15.2575 10.08855469 14.515 10.98960937 13.75 11.91796875 C13.1725 12.60503906 12.595 13.29210937 12 14 C8.17147621 12.48238697 6.26678134 10.20656585 3.75 7 C3.04359375 6.113125 2.3371875 5.22625 1.609375 4.3125 C0 2 0 2 0 0 Z " fill="#96A49A" transform="translate(168,346)"/>
<path d="M0 0 C0.66 0.33 1.32 0.66 2 1 C2.8515625 3.72265625 2.8515625 3.72265625 3.625 7.0625 C3.88539063 8.16722656 4.14578125 9.27195313 4.4140625 10.41015625 C4.60742188 11.26480469 4.80078125 12.11945313 5 13 C4.34 13 3.68 13 3 13 C2.67 14.98 2.34 16.96 2 19 C1.67 19 1.34 19 1 19 C0.63752129 16.39674384 0.28472345 13.79279598 -0.0625 11.1875 C-0.2181543 10.08051758 -0.2181543 10.08051758 -0.37695312 8.95117188 C-0.82086566 5.56825221 -1.09314992 3.27944975 0 0 Z " fill="#7E8A82" transform="translate(195,148)"/>
<path d="M0 0 C5.34844008 0.53484401 9.35796103 2.46690767 14 5 C13.01 6.32 12.02 7.64 11 9 C10.113125 8.236875 9.22625 7.47375 8.3125 6.6875 C5.68601772 4.48524764 2.95645515 2.73909127 0 1 C0 0.67 0 0.34 0 0 Z " fill="#89908B" transform="translate(239,2)"/>
<path d="M0 0 C5.43035852 4.60757693 8.86553725 10.65881023 12 17 C12 17.99 12 18.98 12 20 C11.01 20 10.02 20 9 20 C8.91878906 19.13890625 8.83757812 18.2778125 8.75390625 17.390625 C7.86893531 13.41054846 6.29462735 11.05912411 3.9375 7.75 C0 2.18629174 0 2.18629174 0 0 Z " fill="#94A499" transform="translate(271,30)"/>
<path d="M0 0 C0.66 0.33 1.32 0.66 2 1 C-0.97 3.64 -3.94 6.28 -7 9 C-6.67 9.66 -6.34 10.32 -6 11 C-7.98 11.66 -9.96 12.32 -12 13 C-10.44997253 9.11602311 -7.99523379 6.97020381 -4.875 4.25 C-3.96492188 3.45078125 -3.05484375 2.6515625 -2.1171875 1.828125 C-1.06917969 0.92320312 -1.06917969 0.92320312 0 0 Z " fill="#99A69D" transform="translate(270,199)"/>
<path d="M0 0 C0 0.99 0 1.98 0 3 C-3.15830185 6.06806466 -5.61999924 7.49942848 -10 8 C-10.33 7.34 -10.66 6.68 -11 6 C-7.37 4.02 -3.74 2.04 0 0 Z " fill="#89958D" transform="translate(74,14)"/>
<path d="M0 0 C0 0.66 0 1.32 0 2 C-1.78398614 3.28006797 -3.62853906 4.47660351 -5.5 5.625 C-7.03140625 6.57246094 -7.03140625 6.57246094 -8.59375 7.5390625 C-9.3878125 8.02117187 -10.181875 8.50328125 -11 9 C-9.84826645 6.53199953 -8.95216435 4.95216435 -7 3 C-7.33 2.34 -7.66 1.68 -8 1 C-5.23735711 0.40267181 -2.83967231 0 0 0 Z " fill="#838E87" transform="translate(145,130)"/>
<path d="M0 0 C0.33 0 0.66 0 1 0 C1 3.3 1 6.6 1 10 C0.01 10.495 0.01 10.495 -1 11 C-1.72159424 12.64363134 -2.39351421 14.31050386 -3 16 C-4.49828872 12.11764181 -3.43110582 9.56550712 -2.0625 5.75 C-1.68222656 4.67234375 -1.30195313 3.5946875 -0.91015625 2.484375 C-0.45962891 1.25460938 -0.45962891 1.25460938 0 0 Z " fill="#9BA49E" transform="translate(161,148)"/>
<path d="M0 0 C1.485 0.99 1.485 0.99 3 2 C5.67145537 1.19838209 5.67145537 1.19838209 8 0 C5.19195732 2.96404505 2.81684226 5.44499019 -1 7 C-0.67 4.69 -0.34 2.38 0 0 Z " fill="#808B84" transform="translate(189,406)"/>
<path d="M0 0 C0 4.03381023 -1.59573562 5.49433637 -4 8.6875 C-4.7425 9.68136719 -5.485 10.67523438 -6.25 11.69921875 C-7.11625 12.83810547 -7.11625 12.83810547 -8 14 C-8.66 13.34 -9.32 12.68 -10 12 C-9.61328125 11.55269531 -9.2265625 11.10539063 -8.828125 10.64453125 C-5.81609925 7.1478974 -2.85678969 3.62592537 0 0 Z " fill="#8A998F" transform="translate(276,163)"/>
<path d="M0 0 C-3.465 2.97 -3.465 2.97 -7 6 C-8.32 5.34 -9.64 4.68 -11 4 C-9.73760288 3.13341385 -8.46472499 2.28207941 -7.1875 1.4375 C-6.47980469 0.96183594 -5.77210938 0.48617187 -5.04296875 -0.00390625 C-3 -1 -3 -1 0 0 Z " fill="#999F9B" transform="translate(145,107)"/>
<path d="M0 0 C1.22589844 0.01353516 1.22589844 0.01353516 2.4765625 0.02734375 C3.41628906 0.04474609 3.41628906 0.04474609 4.375 0.0625 C2.0620518 2.3754482 0.89595125 2.55830975 -2.25 3.1875 C-3.06726563 3.35507812 -3.88453125 3.52265625 -4.7265625 3.6953125 C-5.66628906 3.87707031 -5.66628906 3.87707031 -6.625 4.0625 C-6.625 3.0725 -6.625 2.0825 -6.625 1.0625 C-4.21954362 -0.14022819 -2.67503047 -0.03821472 0 0 Z " fill="#959C97" transform="translate(104.625,41.9375)"/>
<path d="M0 0 C3.33727786 1.17255709 5.77437487 2.18868404 8 5 C8 5.66 8 6.32 8 7 C8.66 7 9.32 7 10 7 C9.67 7.99 9.34 8.98 9 10 C8.7525 9.38125 8.505 8.7625 8.25 8.125 C6.75710375 5.58707638 5.59572059 5.2585312 3 4 C1.25 1.875 1.25 1.875 0 0 Z " fill="#788E80" transform="translate(302,28)"/>
<path d="M0 0 C-1.09445838 0.86657116 -2.20097781 1.71792724 -3.3125 2.5625 C-3.92738281 3.03816406 -4.54226562 3.51382812 -5.17578125 4.00390625 C-5.77777344 4.33261719 -6.37976563 4.66132812 -7 5 C-7.99 4.67 -8.98 4.34 -10 4 C-6.87839899 0.56623888 -4.64008112 -1.54669371 0 0 Z " fill="#929794" transform="translate(118,3)"/>
<path d="M0 0 C0 3.80345877 -1.13786331 4.77701015 -3.5 7.6875 C-4.1496875 8.49574219 -4.799375 9.30398438 -5.46875 10.13671875 C-5.9740625 10.75160156 -6.479375 11.36648438 -7 12 C-7.99 11.34 -8.98 10.68 -10 10 C-9.278125 9.46375 -8.55625 8.9275 -7.8125 8.375 C-4.752158 5.7907112 -2.48779989 3.12751986 0 0 Z " fill="#889A8E" transform="translate(188,347)"/>
<path d="M0 0 C0.66 0 1.32 0 2 0 C1.71831703 1.95979427 1.42433283 3.91782378 1.125 5.875 C0.96257812 6.96554687 0.80015625 8.05609375 0.6328125 9.1796875 C0 12 0 12 -2 14 C-1.85970581 11.8537974 -1.71261836 9.70803782 -1.5625 7.5625 C-1.48128906 6.36753906 -1.40007812 5.17257812 -1.31640625 3.94140625 C-1 1 -1 1 0 0 Z " fill="#96A59B" transform="translate(207,324)"/>
<path d="M0 0 C1.485 0.99 1.485 0.99 3 2 C3.99 2 4.98 2 6 2 C6.66 3.65 7.32 5.3 8 7 C4.21388773 6.45912682 2.44599233 4.88277668 0 2 C0 1.34 0 0.68 0 0 Z " fill="#95B09E" transform="translate(134,286)"/>
<path d="M0 0 C-1.98 2.31 -3.96 4.62 -6 7 C-6 4 -6 4 -5 2 C-5.66 1.34 -6.32 0.68 -7 0 C-4.3333581 -1.33332095 -2.83319697 -0.67102033 0 0 Z " fill="#839488" transform="translate(137,113)"/>
<path d="M0 0 C0.66 0.33 1.32 0.66 2 1 C1.67 4.3 1.34 7.6 1 11 C0.34 10.67 -0.32 10.34 -1 10 C-0.67 6.7 -0.34 3.4 0 0 Z " fill="#668170" transform="translate(105,151)"/>
<path d="M0 0 C0.66 0 1.32 0 2 0 C1.67 3.96 1.34 7.92 1 12 C0.34 11.67 -0.32 11.34 -1 11 C-1.02688151 9.35425434 -1.04634123 7.70838587 -1.0625 6.0625 C-1.07410156 5.14597656 -1.08570313 4.22945312 -1.09765625 3.28515625 C-1 1 -1 1 0 0 Z " fill="#79897F" transform="translate(160,158)"/>
<path d="M0 0 C0.66 0.33 1.32 0.66 2 1 C1.67 2.32 1.34 3.64 1 5 C1 4.34 1 3.68 1 3 C-1.31 4.65 -3.62 6.3 -6 8 C-4.55746343 4.63408134 -2.66735273 2.48952921 0 0 Z " fill="#A0ADA5" transform="translate(227,281)"/>
<path d="M0 0 C1.32 0.66 2.64 1.32 4 2 C3.01 2 2.02 2 1 2 C0.67 4.31 0.34 6.62 0 9 C-0.33 9 -0.66 9 -1 9 C-1.09765625 2.84765625 -1.09765625 2.84765625 -1 1 C-0.67 0.67 -0.34 0.34 0 0 Z " fill="#849389" transform="translate(67,198)"/>
<path d="M0 0 C1.65 0.33 3.3 0.66 5 1 C3.37660195 2.70884005 1.70680947 4.37446717 0 6 C-0.66 6 -1.32 6 -2 6 C-2 5.01 -2 4.02 -2 3 C-1.34 3 -0.68 3 0 3 C0 2.01 0 1.02 0 0 Z " fill="#7F9286" transform="translate(121,137)"/>
<path d="M0 0 C2.31 0.33 4.62 0.66 7 1 C6.67 1.99 6.34 2.98 6 4 C4.35 3.67 2.7 3.34 1 3 C0.67 2.01 0.34 1.02 0 0 Z " fill="#858F88" transform="translate(213,130)"/>
</svg>
