<?xml version="1.0" encoding="UTF-8"?>
<svg version="1.1" xmlns="http://www.w3.org/2000/svg" width="422" height="418">
<path d="M0 0 C1.64841442 1.48582422 3.28624841 2.98352407 4.91015625 4.49609375 C6.79099542 6.24058956 8.71789906 7.87998818 10.69921875 9.5078125 C14.56189877 12.80456498 17.7514459 16.56466385 21.01171875 20.4453125 C22.12160156 21.70601562 22.12160156 21.70601562 23.25390625 22.9921875 C57.87943267 63.03832348 74.86455238 115.75471575 72.01171875 168.4453125 C68.43295461 217.23964511 48.48366696 265.99413977 13.01171875 300.4453125 C12.35171875 300.4453125 11.69171875 300.4453125 11.01171875 300.4453125 C11.01171875 301.1053125 11.01171875 301.7653125 11.01171875 302.4453125 C9.54296875 303.92578125 9.54296875 303.92578125 7.51171875 305.6328125 C4.36168001 308.28772931 4.36168001 308.28772931 1.296875 311.0390625 C-37.53381824 346.96405761 -91.62346703 362.00036056 -143.48144531 360.59765625 C-186.05298308 358.74826614 -228.17546085 342.62340707 -260.98828125 315.4453125 C-261.86226562 314.72359863 -261.86226562 314.72359863 -262.75390625 313.98730469 C-273.95195036 304.68551056 -284.02295424 294.96583156 -292.98828125 283.4453125 C-293.61839111 282.64577148 -293.61839111 282.64577148 -294.26123047 281.83007812 C-328.11509145 238.59956376 -341.61489352 184.31775042 -335.734375 130.109375 C-332.88154356 106.94262316 -326.17553794 83.67416515 -314.92773438 63.17431641 C-314.02583642 61.5144304 -313.16999448 59.82976969 -312.31640625 58.14453125 C-305.11036467 44.09275016 -295.83846852 31.7312939 -285.34082031 19.99511719 C-283.93251838 18.38141671 -282.59945191 16.71928609 -281.26171875 15.046875 C-280.51148438 14.18835938 -279.76125 13.32984375 -278.98828125 12.4453125 C-278.32828125 12.4453125 -277.66828125 12.4453125 -276.98828125 12.4453125 C-276.65828125 11.4553125 -276.32828125 10.4653125 -275.98828125 9.4453125 C-274.59765625 8.0078125 -274.59765625 8.0078125 -272.73828125 6.4453125 C-271.64966797 5.52685547 -271.64966797 5.52685547 -270.5390625 4.58984375 C-269.69730469 3.88214844 -268.85554688 3.17445312 -267.98828125 2.4453125 C-267.03308594 1.60355469 -266.07789063 0.76179688 -265.09375 -0.10546875 C-236.2967975 -25.36794084 -201.33544166 -39.55563082 -163.98828125 -46.5546875 C-162.78558594 -46.78414062 -161.58289063 -47.01359375 -160.34375 -47.25 C-103.36164427 -56.1711235 -43.4380012 -37.1352324 0 0 Z " fill="#022040" transform="translate(342.98828125,51.5546875)"/>
<path d="M0 0 C3.32639066 1.18799666 5.20007457 2.97739357 7.05078125 5.9765625 C10.61842315 13.58165921 11.49543841 21.70599396 11 30 C9.07924147 27.1188622 8.07475706 24.68495267 6.9375 21.4375 C5.62433842 17.65253559 5.62433842 17.65253559 4 14 C3.92523438 15.09054688 3.85046875 16.18109375 3.7734375 17.3046875 C2.61567477 31.40131622 -1.06463596 44.11512479 -7.0546875 56.92578125 C-11.49424925 66.58632987 -11.49424925 66.58632987 -12 77 C-10.97122608 79.91080119 -10.97122608 79.91080119 -9 82 C-5.58129199 83.29654043 -4.15392878 83.05858755 -0.6953125 81.7421875 C0.50271573 81.13518431 1.69266109 80.5120237 2.875 79.875 C3.49777832 79.5545874 4.12055664 79.2341748 4.76220703 78.90405273 C8.02277073 77.19172262 11.00612878 75.36689425 13.875 73.0625 C18.02356191 70.32444914 20.12083992 70.4211166 25 71 C25.66 71.66 26.32 72.32 27 73 C26.625 75.625 26.625 75.625 26 78 C24.44345703 78.34998047 24.44345703 78.34998047 22.85546875 78.70703125 C8.4298441 82.87056873 -4.09983438 103.62897204 -11.3203125 115.8828125 C-17.47994521 127.31394484 -21.22663311 138.80155411 -21.3125 151.8125 C-21.31805908 152.51785889 -21.32361816 153.22321777 -21.3293457 153.94995117 C-21.26416001 158.67284962 -20.45697564 162.55941686 -19 167 C-18.83564453 166.00419922 -18.83564453 166.00419922 -18.66796875 164.98828125 C-17.01176471 155.76470588 -17.01176471 155.76470588 -14 152 C-13.34 152 -12.68 152 -12 152 C-11.76925781 153.02738281 -11.53851563 154.05476562 -11.30078125 155.11328125 C-9.57434469 162.54352593 -7.65719873 169.39466062 -4.296875 176.28125 C-0.15908407 184.95565508 4.61398682 195.17621083 4 205 C2.02 204.01 0.04 203.02 -2 202 C-1.79503906 202.54527344 -1.59007812 203.09054687 -1.37890625 203.65234375 C-1.10949219 204.40644531 -0.84007812 205.16054688 -0.5625 205.9375 C-0.29566406 206.66839844 -0.02882813 207.39929688 0.24609375 208.15234375 C2.17813373 215.45004918 2.18203742 222.99441974 2.1875 230.5 C2.19974609 231.38558594 2.21199219 232.27117187 2.22460938 233.18359375 C2.23761422 239.08779128 1.47074721 244.27978162 0 250 C-0.66 250 -1.32 250 -2 250 C-2.18433594 249.36835938 -2.36867188 248.73671875 -2.55859375 248.0859375 C-6.19218663 236.87832212 -12.33884765 227.02428889 -20.96875 218.9765625 C-37.0834198 203.2957492 -49.10587601 183.415274 -52 161 C-66.27252759 168.83006722 -73.46960366 183.89867887 -78 199 C-78.66 199 -79.32 199 -80 199 C-88.28708331 174.64184451 -96.89610512 146.64654941 -89 121 C-99.3726701 125.77204201 -109.14166053 130.98640418 -117.2109375 139.26953125 C-119 141 -119 141 -121 141 C-119.93936322 125.51470305 -113.21499571 112.66311543 -102 102 C-101.31808594 101.33355469 -100.63617188 100.66710937 -99.93359375 99.98046875 C-95.73337627 96.076157 -90.03093502 91 -84 91 C-83.67 92.98 -83.34 94.96 -83 97 C-80.97321665 93.95982497 -80.27285665 91.74378617 -79.3125 88.25 C-71.4048217 62.09383331 -53.47661824 38.0424214 -35.90625 17.53125 C-33.99697682 15.29161912 -32.56376743 13.27294572 -31.03125 10.71875 C-28.83695903 7.33433512 -27.65588438 5.78247099 -24 4 C-15.97204348 3.3899904 -7.90568982 4.68660065 0 6 C0 4.02 0 2.04 0 0 Z " fill="#9CA1A1" transform="translate(275,122)"/>
<path d="M0 0 C1.64841442 1.48582422 3.28624841 2.98352407 4.91015625 4.49609375 C6.79099542 6.24058956 8.71789906 7.87998818 10.69921875 9.5078125 C14.56189877 12.80456498 17.7514459 16.56466385 21.01171875 20.4453125 C22.12160156 21.70601562 22.12160156 21.70601562 23.25390625 22.9921875 C57.87943267 63.03832348 74.86455238 115.75471575 72.01171875 168.4453125 C68.43295461 217.23964511 48.48366696 265.99413977 13.01171875 300.4453125 C12.35171875 300.4453125 11.69171875 300.4453125 11.01171875 300.4453125 C11.01171875 301.1053125 11.01171875 301.7653125 11.01171875 302.4453125 C9.54296875 303.92578125 9.54296875 303.92578125 7.51171875 305.6328125 C4.36168001 308.28772931 4.36168001 308.28772931 1.296875 311.0390625 C-37.53381824 346.96405761 -91.62346703 362.00036056 -143.48144531 360.59765625 C-186.05298308 358.74826614 -228.17546085 342.62340707 -260.98828125 315.4453125 C-261.86226562 314.72359863 -261.86226562 314.72359863 -262.75390625 313.98730469 C-273.95195036 304.68551056 -284.02295424 294.96583156 -292.98828125 283.4453125 C-293.61839111 282.64577148 -293.61839111 282.64577148 -294.26123047 281.83007812 C-328.11509145 238.59956376 -341.61489352 184.31775042 -335.734375 130.109375 C-332.88154356 106.94262316 -326.17553794 83.67416515 -314.92773438 63.17431641 C-314.02583642 61.5144304 -313.16999448 59.82976969 -312.31640625 58.14453125 C-305.11036467 44.09275016 -295.83846852 31.7312939 -285.34082031 19.99511719 C-283.93251838 18.38141671 -282.59945191 16.71928609 -281.26171875 15.046875 C-280.51148438 14.18835938 -279.76125 13.32984375 -278.98828125 12.4453125 C-278.32828125 12.4453125 -277.66828125 12.4453125 -276.98828125 12.4453125 C-276.65828125 11.4553125 -276.32828125 10.4653125 -275.98828125 9.4453125 C-274.59765625 8.0078125 -274.59765625 8.0078125 -272.73828125 6.4453125 C-271.64966797 5.52685547 -271.64966797 5.52685547 -270.5390625 4.58984375 C-269.69730469 3.88214844 -268.85554688 3.17445312 -267.98828125 2.4453125 C-267.03308594 1.60355469 -266.07789063 0.76179688 -265.09375 -0.10546875 C-236.2967975 -25.36794084 -201.33544166 -39.55563082 -163.98828125 -46.5546875 C-162.78558594 -46.78414062 -161.58289063 -47.01359375 -160.34375 -47.25 C-103.36164427 -56.1711235 -43.4380012 -37.1352324 0 0 Z M-261.05078125 6.90234375 C-262.58046808 8.22658062 -264.11502198 9.54663983 -265.6953125 10.81005859 C-267.15949286 11.98148861 -268.57815058 13.20934976 -269.98828125 14.4453125 C-269.98828125 15.1053125 -269.98828125 15.7653125 -269.98828125 16.4453125 C-270.97828125 16.7753125 -271.96828125 17.1053125 -272.98828125 17.4453125 C-274.53623064 18.89587627 -274.53623064 18.89587627 -276.05078125 20.7578125 C-276.664375 21.48484375 -277.27796875 22.211875 -277.91015625 22.9609375 C-278.5959375 23.78078125 -279.28171875 24.600625 -279.98828125 25.4453125 C-280.7565625 26.32703125 -281.52484375 27.20875 -282.31640625 28.1171875 C-290.98830934 38.20713764 -298.45915865 49.05322686 -304.62890625 60.85546875 C-305.54007603 62.59140428 -306.488826 64.30809359 -307.47265625 66.00390625 C-311.62048308 73.19846156 -314.53354967 80.61998217 -317.27685547 88.4296875 C-317.94629932 90.3263685 -318.64032057 92.21432352 -319.3359375 94.1015625 C-322.96956943 104.3246248 -325.24313696 114.74681922 -326.98828125 125.4453125 C-327.14840698 126.42359009 -327.14840698 126.42359009 -327.31176758 127.42163086 C-328.43054574 135.63164944 -328.18776947 143.98798865 -328.17578125 152.2578125 C-328.17484467 153.08545105 -328.17390808 153.9130896 -328.17294312 154.76580811 C-328.12533501 174.13785062 -326.67862917 191.85046275 -320.98828125 210.4453125 C-320.72885742 211.30833984 -320.46943359 212.17136719 -320.20214844 213.06054688 C-316.73220258 224.47188979 -312.63405505 235.16954835 -306.94824219 245.65917969 C-306.03010673 247.36749073 -305.15265743 249.09748197 -304.27734375 250.828125 C-289.39192961 279.83022298 -265.49467356 303.09125207 -238.98828125 321.4453125 C-238.0446875 322.11433594 -237.10109375 322.78335937 -236.12890625 323.47265625 C-222.24017358 332.8718782 -205.98694588 339.57043388 -189.98828125 344.4453125 C-189.24932617 344.67057617 -188.51037109 344.89583984 -187.74902344 345.12792969 C-168.95974449 350.72083183 -150.71967862 352.71375195 -131.17578125 352.7578125 C-130.00405365 352.76332626 -130.00405365 352.76332626 -128.80865479 352.76895142 C-112.57941251 352.80880733 -97.51642958 350.97690894 -81.80078125 346.6328125 C-80.55103516 346.30216797 -79.30128906 345.97152344 -78.01367188 345.63085938 C-66.90360669 342.62080011 -56.17190459 338.84351296 -45.92578125 333.5703125 C-45.25442139 333.22863037 -44.58306152 332.88694824 -43.89135742 332.53491211 C1.93409597 308.98140346 38.81503741 269.41727203 55.18359375 220.12109375 C57.59200029 212.49137688 59.8451142 204.8229151 61.47241211 196.98486328 C61.87293895 195.09881519 62.31685449 193.2218736 62.78344727 191.35107422 C65.46625865 179.78956747 65.5619008 168.45209179 65.51171875 156.6328125 C65.51095337 155.59505676 65.51018799 154.55730103 65.50939941 153.48809814 C65.46632223 137.29950618 64.38977287 122.11344941 60.01171875 106.4453125 C59.83592285 105.77113281 59.66012695 105.09695312 59.47900391 104.40234375 C58.50430331 100.67443689 57.32614239 97.06590902 56.01171875 93.4453125 C55.36783203 91.58326172 55.36783203 91.58326172 54.7109375 89.68359375 C51.2424828 79.86824915 46.92344396 70.61667624 42.01171875 61.4453125 C41.46902344 60.43082031 40.92632812 59.41632813 40.3671875 58.37109375 C31.79980842 43.0915588 21.26246883 29.89091987 9.01171875 17.4453125 C8.0174193 16.41354025 7.02388745 15.38102756 6.03125 14.34765625 C-19.51303495 -11.84514369 -53.88154386 -29.29389376 -89.36328125 -37.1796875 C-90.28359131 -37.38601807 -91.20390137 -37.59234863 -92.15209961 -37.80493164 C-105.50147817 -40.67475091 -118.73282351 -41.97161304 -132.36328125 -41.9296875 C-133.0991748 -41.928479 -133.83506836 -41.92727051 -134.59326172 -41.92602539 C-181.53922543 -41.71865796 -225.7577814 -23.68798891 -261.05078125 6.90234375 Z " fill="#959A9B" transform="translate(342.98828125,51.5546875)"/>
<path d="M0 0 C0.81688293 -0.00199402 1.63376587 -0.00398804 2.47540283 -0.00604248 C15.48543024 -0.00245279 28.22866278 0.56588036 40.6875 4.6875 C41.35209229 4.90696289 42.01668457 5.12642578 42.70141602 5.35253906 C44.05429314 5.80247893 45.4053537 6.25792361 46.75439453 6.71923828 C48.56703087 7.33413361 50.39067087 7.91631787 52.21484375 8.49609375 C66.2518578 13.14294032 79.11882761 20.18076191 90.6875 29.375 C91.5640625 30.04917969 92.440625 30.72335938 93.34375 31.41796875 C118.7635546 51.46893531 136.07763767 78.17147211 144.6875 109.375 C145.038125 110.4475 145.38875 111.52 145.75 112.625 C155.06586828 149.8884731 147.13201444 189.34825632 128.6875 222.375 C125.70985606 227.32725655 122.33459852 231.89970333 118.6875 236.375 C118.22811035 236.94428223 117.7687207 237.51356445 117.29541016 238.10009766 C114.17831425 241.93774965 110.97022095 245.67810398 107.6875 249.375 C107.10742188 250.02855469 106.52734375 250.68210937 105.9296875 251.35546875 C100.63249173 256.95878387 94.32223863 261.53983018 88.20947266 266.20898438 C86.92461586 267.19334049 85.65397198 268.19620733 84.38671875 269.203125 C82.6875 270.375 82.6875 270.375 80.6875 270.375 C80.3575 268.065 80.0275 265.755 79.6875 263.375 C80.50992188 262.75753906 81.33234375 262.14007813 82.1796875 261.50390625 C99.10489051 248.70934974 112.7084535 234.56444539 123.6875 216.375 C124.04440918 215.78477051 124.40131836 215.19454102 124.76904297 214.58642578 C134.83752701 197.44304642 140.92026365 176.22084686 141.6875 156.375 C141.72311035 155.61767578 141.7587207 154.86035156 141.79541016 154.08007812 C142.56745802 135.32273797 140.56246763 116.91397993 133.6875 99.375 C133.227456 98.1230231 132.76915362 96.870405 132.3125 95.6171875 C119.5327903 61.30912386 92.54545014 34.3985343 59.56591797 19.21826172 C26.12498322 4.20591592 -12.88913241 2.60269342 -47.3125 15.375 C-83.77516478 30.08875767 -112.22532445 57.05822203 -127.88964844 93.30883789 C-135.0453812 110.47402922 -137.91407996 127.98649618 -137.8125 146.4375 C-137.81173462 147.24427185 -137.81096924 148.0510437 -137.81018066 148.88226318 C-137.76466008 162.22474167 -136.44766704 174.61601372 -132.3125 187.375 C-131.77689453 189.08236328 -131.77689453 189.08236328 -131.23046875 190.82421875 C-130.04417271 194.2885813 -128.69322586 197.58397734 -127.10546875 200.8828125 C-126.72003906 201.68460938 -126.33460937 202.48640625 -125.9375 203.3125 C-125.57914063 204.00214844 -125.22078125 204.69179688 -124.8515625 205.40234375 C-124.3125 207.375 -124.3125 207.375 -124.9609375 209.56640625 C-126.3125 211.375 -126.3125 211.375 -128.4375 212.125 C-129.05625 212.2075 -129.675 212.29 -130.3125 212.375 C-132.02611479 208.39358011 -133.68036941 204.39048842 -135.3125 200.375 C-135.73144531 199.36179687 -136.15039062 198.34859375 -136.58203125 197.3046875 C-150.57259271 161.1513001 -147.97715166 121.97484199 -132.84375 86.6328125 C-125.84254871 71.73739955 -116.909778 58.14939013 -105.8125 46 C-105.29582764 45.43385986 -104.77915527 44.86771973 -104.24682617 44.28442383 C-102.9800209 42.93784971 -101.65118468 41.65013952 -100.3125 40.375 C-99.6525 40.375 -98.9925 40.375 -98.3125 40.375 C-98.3125 39.715 -98.3125 39.055 -98.3125 38.375 C-96.31010846 36.59475829 -94.3063005 34.94484972 -92.1875 33.3125 C-91.55440918 32.82225342 -90.92131836 32.33200684 -90.26904297 31.8269043 C-74.52624179 19.80055791 -57.22641071 10.38013279 -38.3125 4.375 C-37.67231934 4.16327148 -37.03213867 3.95154297 -36.37255859 3.73339844 C-24.47228006 -0.01832565 -12.35567498 0.00800449 0 0 Z " fill="#959B9D" transform="translate(209.3125,60.625)"/>
<path d="M0 0 C21.25944774 8.24137169 36.32809018 27.07286594 45.52734375 47.234375 C48.9767125 55.74496707 50.50594761 63.29625397 50.375 72.5 C50.36412354 73.55026367 50.35324707 74.60052734 50.34204102 75.68261719 C49.8785181 98.66635747 42.82289103 118.87223382 32 139 C31.34 139 30.68 139 30 139 C29.70867187 138.22398437 29.41734375 137.44796875 29.1171875 136.6484375 C28.0018936 133.70939257 26.86920604 130.77786892 25.72216797 127.85107422 C25.05666511 126.14524505 24.40464888 124.43417057 23.75390625 122.72265625 C19.03061387 110.93544886 12.64308854 98.96321799 4.62890625 89.07421875 C3 87 3 87 3.0625 84.375 C4.078889 81.80014787 4.70906278 80.55456454 7 79 C10.74849077 78.53143865 11.76746204 78.84497469 15 81 C16.39509177 73.55951056 17.89563409 64.65085085 14.3125 57.75 C13.549375 56.8425 12.78625 55.935 12 55 C10.81905356 52.57702368 9.71684182 50.1295826 8.63671875 47.66015625 C7.24499376 45.00118623 7.24499376 45.00118623 5.28735352 43.80786133 C2.35767633 41.66615861 0.34104704 39.76913754 -0.36972046 36.0821228 C-0.89250021 30.24976276 -0.63542309 24.4057658 -0.4375 18.5625 C-0.40235706 16.76373229 -0.37042328 14.96489884 -0.34179688 13.16601562 C-0.26496702 8.77571229 -0.14435078 4.38858109 0 0 Z " fill="#006093" transform="translate(292,135)"/>
<path d="M0 0 C1.63001953 0.01353516 1.63001953 0.01353516 3.29296875 0.02734375 C4.12441406 0.03894531 4.95585937 0.05054688 5.8125 0.0625 C5.53148437 0.62324219 5.25046875 1.18398437 4.9609375 1.76171875 C4.19114728 3.30391753 3.42556165 4.84822174 2.6640625 6.39453125 C0.52439133 10.72157327 -1.69573303 14.95057548 -4.1015625 19.13671875 C-14.72029065 37.96777263 -22.89203435 60.37149706 -22.05078125 82.2578125 C-21.50566351 98.64485062 -21.50566351 98.64485062 -26.953125 105.3515625 C-30.9745224 109.63708897 -35.28133443 113.79577931 -40.1875 117.0625 C-40.8475 117.0625 -41.5075 117.0625 -42.1875 117.0625 C-49.47647591 98.57279778 -53.371216 82.02594075 -53.3125 62.0625 C-53.31636719 60.74765625 -53.32023437 59.4328125 -53.32421875 58.078125 C-53.3072803 41.20742439 -50.25331603 32.9709865 -38.375 20.875 C-28.23332058 10.88328407 -14.84006231 -0.15957056 0 0 Z " fill="#005F93" transform="translate(134.1875,144.9375)"/>
<path d="M0 0 C3.42279039 1.14093013 3.69852182 1.65562495 5.48828125 4.61328125 C5.94436768 5.36061523 6.4004541 6.10794922 6.87036133 6.87792969 C7.58421997 8.08304199 7.58421997 8.08304199 8.3125 9.3125 C9.05052856 10.54274902 9.05052856 10.54274902 9.8034668 11.79785156 C29.99218081 45.77812884 29.99218081 45.77812884 28 58 C26.33124008 60.70810215 24.27727731 62.97954726 22.125 65.3125 C21.53726807 65.96895508 20.94953613 66.62541016 20.34399414 67.30175781 C15.55294036 72.57795693 10.52217298 77.48463204 5 82 C4.31035156 82.57234375 3.62070312 83.1446875 2.91015625 83.734375 C1 85 1 85 -2 85 C-8.3015295 68.37946103 -8.3015295 68.37946103 -11 60 C-11.495 58.515 -11.495 58.515 -12 57 C-13.71081386 36.94926161 -10.53376213 17.30546636 0 0 Z " fill="#005F93" transform="translate(288,228)"/>
<path d="M0 0 C9.92129013 3.2106799 16.12611021 13.86437194 21 22.44921875 C22.44223747 25.3840043 23.27549047 27.65198385 23.6796875 30.8671875 C22.90625 31.29128906 22.1328125 31.71539062 21.3359375 32.15234375 C12.28339931 37.2499983 5.28694077 42.7403933 -1.4140625 50.64453125 C-3.61639101 53.21241019 -5.90253004 55.69230159 -8.1953125 58.1796875 C-11.59564813 61.89993331 -14.84695643 65.69169503 -18.0078125 69.6171875 C-21.54036399 73.9923087 -25.25395109 77.99044917 -29.3203125 81.8671875 C-30.1246875 82.6715625 -30.9290625 83.4759375 -31.7578125 84.3046875 C-32.2734375 84.8203125 -32.7890625 85.3359375 -33.3203125 85.8671875 C-33.62989423 77.73510281 -32.78361186 70.21159084 -31.1953125 62.2421875 C-30.97012939 61.10281738 -30.74494629 59.96344727 -30.51293945 58.78955078 C-28.10966742 47.13487604 -15.39298339 -0.88107986 0 0 Z " fill="#005F93" transform="translate(152.3203125,149.1328125)"/>
<path d="M0 0 C4.99291722 0.06175307 8.67637737 2.27172895 12.890625 4.76171875 C13.68033691 5.21619385 14.47004883 5.67066895 15.28369141 6.13891602 C21.7613861 9.95349949 27.50423051 14.27632344 33.078125 19.32421875 C34.03847656 20.14277344 34.99882812 20.96132812 35.98828125 21.8046875 C49.32930372 33.32569361 59.67293078 47.31720642 67.078125 63.32421875 C66.748125 63.98421875 66.418125 64.64421875 66.078125 65.32421875 C64.578125 63.94921875 64.578125 63.94921875 63.078125 62.32421875 C63.078125 61.66421875 63.078125 61.00421875 63.078125 60.32421875 C62.418125 60.32421875 61.758125 60.32421875 61.078125 60.32421875 C59.95635735 59.2024511 58.83835297 58.07677959 57.734375 56.9375 C49.40934226 48.82844689 39.2889332 41.96631104 28.640625 37.32421875 C24.75346329 35.49830772 23.01735549 32.77750236 20.65625 29.28125 C18.45736883 26.55441964 15.8912081 25.12636269 12.8125 23.52734375 C10.68632781 22.05243151 10.13197133 20.65449103 9.078125 18.32421875 C6.45226212 15.62541524 5.07486244 14.36851819 1.265625 14.19921875 C-4.25187782 16.14657269 -8.67745543 19.45758939 -11.921875 24.32421875 C-15.21950341 24.06477801 -18.51547182 23.78834223 -21.81103516 23.50390625 C-23.31565873 23.37582356 -24.82057828 23.25119797 -26.32568359 23.12890625 C-37.40841048 22.22162218 -48.11392699 21.04891152 -58.921875 18.32421875 C-58.921875 17.66421875 -58.921875 17.00421875 -58.921875 16.32421875 C-40.5958306 6.39761137 -20.62797563 1.70530077 0 0 Z " fill="#005F92" transform="translate(262.921875,88.67578125)"/>
<path d="M0 0 C6.76574467 2.89535168 12.64009834 7.18171914 18.55078125 11.51953125 C18.00396574 15.54186905 15.98296101 17.51059605 13.23828125 20.39453125 C10.53621805 23.25677917 8.59537848 25.43192955 6.80078125 28.95703125 C2.94148891 33.35233641 -2.84102865 33.68598018 -8.44921875 34.51953125 C-9.43921875 34.51953125 -10.42921875 34.51953125 -11.44921875 34.51953125 C-11.93390625 33.48054688 -12.41859375 32.4415625 -12.91796875 31.37109375 C-18.38898067 19.88872305 -24.34977846 10.51492148 -34.44921875 2.51953125 C-25.73733608 -7.10939171 -11.20390589 -3.4503378 0 0 Z " fill="#006093" transform="translate(194.44921875,141.48046875)"/>
<path d="M0 0 C0.82226074 0.19045898 0.82226074 0.19045898 1.66113281 0.38476562 C7.00176909 1.59989122 12.34048992 2.64414967 17.75 3.5 C18.54768799 3.62673096 19.34537598 3.75346191 20.16723633 3.8840332 C29.73428504 5.34513872 39.36004467 6.1846804 49 7 C47.72494758 9.80428566 46.42022876 11.81604371 44.20703125 13.953125 C43.66232178 14.48639404 43.1176123 15.01966309 42.55639648 15.5690918 C41.98091064 16.1237915 41.4054248 16.67849121 40.8125 17.25 C36.46318814 21.50251443 32.29139777 25.77166377 28.46484375 30.51171875 C26.79730897 32.20593408 25.16672851 33.05409487 23 34 C14.62734347 28.91073819 7.00052332 23.51696003 0 16.625 C-0.61697754 16.03058105 -1.23395508 15.43616211 -1.86962891 14.82373047 C-3.5625 13.1015625 -3.5625 13.1015625 -6 10 C-5.41907456 5.56129357 -2.88975888 3.26024079 0 0 Z " fill="#005F93" transform="translate(195,113)"/>
<path d="M0 0 C8.43262309 0.13538615 14.73487874 2.03711784 21.37402344 7.53442383 C22.37402344 10.53442383 22.37402344 10.53442383 20.94433594 14.17504883 C19.8046875 16.0324707 19.8046875 16.0324707 18.37402344 17.53442383 C15.34031812 18.17774595 13.26607238 18.37532062 10.24902344 18.28442383 C8.71371738 18.30715227 7.17851271 18.33835989 5.64355469 18.37817383 C4.90572754 18.39493164 4.16790039 18.41168945 3.40771484 18.42895508 C-0.88643762 18.65165302 -4.68173313 19.90587732 -8.62597656 21.53442383 C-9.40714844 21.85024414 -10.18832031 22.16606445 -10.99316406 22.49145508 C-18.71380166 25.98177527 -25.07549033 31.25454305 -31.62597656 36.53442383 C-32.57859375 37.29625977 -33.53121094 38.0580957 -34.51269531 38.84301758 C-35.21007812 39.40118164 -35.90746094 39.9593457 -36.62597656 40.53442383 C-33.69825556 21.81062674 -19.06982438 0.22825511 0 0 Z " fill="#005F93" transform="translate(126.6259765625,119.465576171875)"/>
<path d="M0 0 C0.01417969 0.68964844 0.02835938 1.37929687 0.04296875 2.08984375 C0.40785991 9.27918571 2.09877441 14.00318364 6 20 C6.495 20.99 6.495 20.99 7 22 C-4.47530158 29.24025548 -15.19455056 28.71904189 -28.3125 28.375 C-30.32482958 28.34484181 -32.33720305 28.31747642 -34.34960938 28.29296875 C-39.23417471 28.22748546 -44.11659176 28.12429219 -49 28 C-39.9792253 16.30348974 -24.32273962 8.76228922 -11 3 C-10.30390625 2.67773438 -9.6078125 2.35546875 -8.890625 2.0234375 C-5.59334993 0.51570915 -3.7212976 0 0 0 Z " fill="#005F92" transform="translate(173,83)"/>
<path d="M0 0 C1.94374512 0.00700928 1.94374512 0.00700928 3.92675781 0.01416016 C31.36993913 0.43243913 31.36993913 0.43243913 37.375 6.4375 C36.52421875 6.58445312 35.6734375 6.73140625 34.796875 6.8828125 C16.73788264 10.22564726 -1.27857805 15.5665546 -17.72265625 23.8359375 C-20.11559461 24.59263669 -21.29868988 24.32933086 -23.625 23.4375 C-26.27052834 21.33310246 -27.31213524 20.4481256 -28.625 17.4375 C-29.04878504 12.73400925 -28.86418403 8.14594427 -28.625 3.4375 C-18.92924705 0.99916397 -10.00919519 -0.07972851 0 0 Z " fill="#005F92" transform="translate(210.625,76.5625)"/>
<path d="M0 0 C3.60311484 1.38638369 6.35855248 3.27578505 8.9375 6.1875 C10.45720564 10.21025023 10.80600857 13.76099197 10 18 C8.32969358 21.12851044 6.01181885 23.23241328 3.1875 25.375 C-1.35063555 26.67161016 -5.40525899 26.61614993 -9.75 24.9375 C-13.63284463 21.59393934 -15.6741921 17.99557337 -16.5 12.9375 C-15.66766938 8.04755758 -13.08036491 5.10956396 -9.6875 1.625 C-6.11587102 -0.53458961 -4.12201565 -0.56855388 0 0 Z " fill="#EDEFF1" transform="translate(121,50)"/>
<path d="M0 0 C4.5581196 0.90697278 6.59695035 2.68343032 9.671875 6.08203125 C11.82215314 10.54799355 11.66237621 13.74300798 10.296875 18.45703125 C8.17669666 21.89318236 6.20065336 24.26421008 2.296875 25.45703125 C-2.43991566 25.91543035 -4.72981129 25.9345059 -9.015625 23.83203125 C-13.00683107 20.30491891 -14.36587182 17.27819845 -15.328125 12.08203125 C-14.55238785 7.58275581 -13.02823991 5.27818835 -9.90625 2.00390625 C-6.60116856 -0.31668285 -3.94482516 -0.35264346 0 0 Z " fill="#F2F3F5" transform="translate(384.703125,195.54296875)"/>
<path d="M0 0 C-1.77945087 4.04420651 -4.39529673 7.46078487 -7 11 C-5.55476763 14.44573823 -3.7397849 16.32071535 -0.875 18.6875 C0.43195447 19.773528 1.72814127 20.87307401 3 22 C3 22.33 3 22.66 3 23 C1.80375 22.835 0.6075 22.67 -0.625 22.5 C-2.41538814 22.32011799 -4.20730828 22.15525341 -6 22 C-7.08667969 21.896875 -8.17335937 21.79375 -9.29296875 21.6875 C-18.69820866 21.18644393 -24.39963952 23.54333094 -32 29 C-32 25.00125986 -30.29449799 23.16526371 -28.09375 19.9375 C-26.75420282 17.93540509 -26.75420282 17.93540509 -27 15 C-29.2264202 13.11399964 -29.2264202 13.11399964 -32 11.375 C-33.67953625 10.2693053 -35.34990704 9.14917188 -37 8 C-37 7.67 -37 7.34 -37 7 C-36.43716309 7.03665771 -35.87432617 7.07331543 -35.29443359 7.11108398 C-21.90814614 7.8653755 -11.13534387 0 0 0 Z " fill="#3FB404" transform="translate(185,110)"/>
<path d="M0 0 C4.25925475 2.01654982 8.02310122 4.28294333 11 8 C11.82295752 11.06580654 11.53179893 12.75602654 11 16 C9.625 18 9.625 18 8 19 C7.34 19 6.68 19 6 19 C5.9175 19.7425 5.835 20.485 5.75 21.25 C4.82469988 24.6427671 3.83491939 25.93127504 1 28 C-2.92145273 28.53994968 -4.50705293 28.34992299 -7.7734375 26.03125 C-9.06121094 24.77828125 -9.06121094 24.77828125 -10.375 23.5 C-11.24898438 22.6646875 -12.12296875 21.829375 -13.0234375 20.96875 C-13.67570312 20.3190625 -14.32796875 19.669375 -15 19 C-10.2318928 12.47423759 -5.1505761 6.22647422 0 0 Z " fill="#F2F3F5" transform="translate(324,63)"/>
<path d="M0 0 C0 3.96595616 -1.28630996 4.80064862 -3.9375 7.6875 C-4.74832031 8.57179688 -5.55914062 9.45609375 -6.39453125 10.3671875 C-9.54531113 13.55103403 -12.90872983 16.36855969 -16.4453125 19.11328125 C-18.32898754 20.94711398 -18.32898754 20.94711398 -17.7421875 23.73046875 C-17.49726562 24.47941406 -17.25234375 25.22835938 -17 26 C-21.34247081 27.21856599 -25.45348464 27.19189998 -29.9375 27.1875 C-30.77982178 27.18669434 -31.62214355 27.18588867 -32.48999023 27.18505859 C-50.99461506 27.00538494 -50.99461506 27.00538494 -55 23 C-53.77667969 22.731875 -52.55335937 22.46375 -51.29296875 22.1875 C-34.60618359 18.37204127 -12.57476565 12.57476565 0 0 Z " fill="#91999B" transform="translate(136,269)"/>
<path d="M0 0 C0.33 1.98 0.66 3.96 1 6 C-1.97 7.98 -4.94 9.96 -8 12 C-4.99895182 13.50052409 -2.90648893 14.38848592 0.25 15.125 C2.10625 15.558125 2.10625 15.558125 4 16 C2.33333333 17.66666667 0.66666667 19.33333333 -1 21 C-1.556875 21.598125 -2.11375 22.19625 -2.6875 22.8125 C-4 24 -4 24 -6 24 C-6 24.66 -6 25.32 -6 26 C-2.04 26.33 1.92 26.66 6 27 C6.33 28.98 6.66 30.96 7 33 C3.79133632 32.69083423 0.58313829 32.37706711 -2.625 32.0625 C-3.52863281 31.97548828 -4.43226563 31.88847656 -5.36328125 31.79882812 C-9.94356654 31.34748614 -14.4698372 30.8352958 -19 30 C-17.83920845 26.51762536 -16.93131619 25.98418684 -14 23.9375 C-10.98371816 21.92046147 -10.98371816 21.92046147 -9 19 C-10.03060547 18.80083984 -10.03060547 18.80083984 -11.08203125 18.59765625 C-11.98308594 18.42105469 -12.88414062 18.24445313 -13.8125 18.0625 C-14.70582031 17.88847656 -15.59914063 17.71445313 -16.51953125 17.53515625 C-19 17 -19 17 -22 16 C-20.50890741 12.06110222 -18.37215462 10.68847303 -14.8125 8.5625 C-11.42362723 6.49893443 -8.12323229 4.42827587 -4.9375 2.0625 C-2 0 -2 0 0 0 Z " fill="#F0F1F3" transform="translate(387,149)"/>
<path d="M0 0 C3.09253849 1.39930977 3.7828779 3.74797518 5.125 6.73046875 C6.18764254 9.67984397 6.44094425 11.75992298 5.890625 14.85546875 C4.328125 17.66796875 4.328125 17.66796875 1.890625 19.85546875 C-2.04444749 20.83923687 -5.25127386 21.24438516 -9.109375 19.85546875 C-9.41875 20.63921875 -9.728125 21.42296875 -10.046875 22.23046875 C-11.109375 24.85546875 -11.109375 24.85546875 -12.109375 26.85546875 C-12.769375 26.85546875 -13.429375 26.85546875 -14.109375 26.85546875 C-16.109375 23.85546875 -16.109375 23.85546875 -16.046875 21.66796875 C-14.70910909 17.65467103 -12.45957268 14.35041216 -10.109375 10.85546875 C-11.7490625 11.84546875 -11.7490625 11.84546875 -13.421875 12.85546875 C-16.04645038 14.44011804 -16.9350128 14.85546875 -20.109375 14.85546875 C-20.769375 13.20546875 -21.429375 11.55546875 -22.109375 9.85546875 C-16.77604167 7.18880208 -11.44270833 4.52213542 -6.109375 1.85546875 C-5.41263672 1.48236572 -4.71589844 1.1092627 -3.99804688 0.72485352 C-2.109375 -0.14453125 -2.109375 -0.14453125 0 0 Z " fill="#EFF1F3" transform="translate(372.109375,119.14453125)"/>
<path d="M0 0 C0 1.65 0 3.3 0 5 C-2.97 5.99 -5.94 6.98 -9 8 C-6.69 9.32 -4.38 10.64 -2 12 C-3.2491742 15.45925163 -4.67527795 18.14693203 -7 21 C-6.29875 20.67 -5.5975 20.34 -4.875 20 C-1.73996884 18.90955438 0.70563182 18.84677357 4 19 C4.33 20.65 4.66 22.3 5 24 C0.7671643 25.8969068 -3.52657288 26.84350989 -8.0625 27.6875 C-8.76955078 27.82994141 -9.47660156 27.97238281 -10.20507812 28.11914062 C-13.9923542 28.83392231 -16.18758437 28.95310391 -20 28 C-17.03 23.71 -14.06 19.42 -11 15 C-14.85759276 12.10680543 -18.77161337 9.77710397 -22.953125 7.40234375 C-23.62859375 6.93957031 -24.3040625 6.47679687 -25 6 C-25 5.34 -25 4.68 -25 4 C-23.94039062 3.79503906 -22.88078125 3.59007812 -21.7890625 3.37890625 C-20.40101178 3.10692334 -19.01299256 2.83477956 -17.625 2.5625 C-16.92632812 2.42779297 -16.22765625 2.29308594 -15.5078125 2.15429688 C-4.23238068 -0.0682642 -4.23238068 -0.0682642 0 0 Z " fill="#ECEEF1" transform="translate(53,230)"/>
<path d="M0 0 C1.974667 2.96200051 2.71955354 5.09771632 3.625 8.5 C3.88539063 9.4590625 4.14578125 10.418125 4.4140625 11.40625 C5 14 5 14 5 17 C5.97582031 16.566875 6.95164062 16.13375 7.95703125 15.6875 C9.2420618 15.1247129 10.52722502 14.56222866 11.8125 14 C12.45509766 13.71382812 13.09769531 13.42765625 13.75976562 13.1328125 C16.67756469 11.86288959 18.78265714 11 22 11 C20.51915193 15.90817171 18.49740404 20.29258523 16.125 24.8125 C15.78597656 25.49248047 15.44695312 26.17246094 15.09765625 26.87304688 C12.51052753 31.80629802 12.51052753 31.80629802 9.99560547 32.76049805 C8 33 8 33 6 32 C7.07710178 27.69159287 8.03947516 24.36423277 11 21 C9.906875 21.495 8.81375 21.99 7.6875 22.5 C4 24 4 24 1 24 C0.01 21.36 -0.98 18.72 -2 16 C-3.32 18.64 -4.64 21.28 -6 24 C-7.65 23.67 -9.3 23.34 -11 23 C-10.42151556 17.83496032 -7.94367079 13.73636773 -5.5 9.25 C-5.08363281 8.47011719 -4.66726563 7.69023438 -4.23828125 6.88671875 C-1.16171288 1.16171288 -1.16171288 1.16171288 0 0 Z " fill="#F0F2F3" transform="translate(286,39)"/>
<path d="M0 0 C6.37637018 1.14983725 11.6926971 3.04536641 17.51953125 5.87890625 C19.69560625 6.86242361 21.67035627 7.51669396 24 8 C24 8.66 24 9.32 24 10 C16.08 13.96 16.08 13.96 8 18 C12.95 19.98 12.95 19.98 18 22 C17.67 23.65 17.34 25.3 17 27 C11.16971962 26.45026573 6.41709832 24.7546141 1.0625 22.4375 C0.28326172 22.10814453 -0.49597656 21.77878906 -1.29882812 21.43945312 C-3.20235303 20.63366651 -5.10163025 19.81785783 -7 19 C-7 18.34 -7 17.68 -7 17 C-1.72 14.69 3.56 12.38 9 10 C7.68 9.34 6.36 8.68 5 8 C3 7 1 6 -1 5 C-0.67 3.35 -0.34 1.7 0 0 Z " fill="#EDEFF1" transform="translate(43,130)"/>
<path d="M0 0 C8.52080037 0.39728885 16.72049367 0.78227509 25 3 C25 3.66 25 4.32 25 5 C22.8664718 6.78770907 20.73155942 8.46872824 18.5 10.125 C17.87996094 10.59292969 17.25992188 11.06085938 16.62109375 11.54296875 C15.08497483 12.70096609 13.54301941 13.85121357 12 15 C15.3 15.99 18.6 16.98 22 18 C22 19.65 22 21.3 22 23 C16.12123504 23.16032995 10.76611905 22.6092534 5 21.5 C4.22527344 21.35691406 3.45054688 21.21382812 2.65234375 21.06640625 C0.76704421 20.71727671 -1.11665939 20.35954684 -3 20 C-3 19.34 -3 18.68 -3 18 C-0.8664718 16.21229093 1.26844058 14.53127176 3.5 12.875 C4.12003906 12.40707031 4.74007812 11.93914062 5.37890625 11.45703125 C6.91502517 10.29903391 8.45698059 9.14878643 10 8 C6.66273931 6.62022499 3.56523819 5.61118369 0 5 C0 3.35 0 1.7 0 0 Z " fill="#EEF0F2" transform="translate(30,170)"/>
<path d="M0 0 C3.93677426 1.31225809 4.8271782 3.1961394 7.1875 6.5625 C7.90292969 7.57441406 8.61835938 8.58632812 9.35546875 9.62890625 C9.89816406 10.41136719 10.44085938 11.19382812 11 12 C10.34 13.32 9.68 14.64 9 16 C8.01 16 7.02 16 6 16 C4.5943808 14.27271873 3.52547246 12.43840964 2.37890625 10.53125 C1.69634766 9.77328125 1.69634766 9.77328125 1 9 C-0.32 9 -1.64 9 -3 9 C-1.02 11.97 0.96 14.94 3 18 C2.01 18.99 1.02 19.98 0 21 C-3.41124018 19.58845234 -4.8456223 17.93778777 -7 15 C-7.66 15 -8.32 15 -9 15 C-8.55744545 17.98724322 -7.85596264 19.17369211 -5.875 21.5625 C-5.25625 22.366875 -4.6375 23.17125 -4 24 C-4.33 24.99 -4.66 25.98 -5 27 C-7.0625 27.6875 -7.0625 27.6875 -9 28 C-10.32074115 26.42353449 -11.63131224 24.83854469 -12.9375 23.25 C-13.66839844 22.36828125 -14.39929688 21.4865625 -15.15234375 20.578125 C-16.87942712 18.16824123 -17.41182178 16.81279893 -18 14 C-15.75043199 12.22861556 -13.50036258 10.45787453 -11.25 8.6875 C-10.29867188 7.93823242 -10.29867188 7.93823242 -9.328125 7.17382812 C-8.09839227 6.20669457 -6.86605045 5.24286739 -5.63085938 4.28271484 C-4.3097069 3.24359282 -3.01725242 2.16805334 -1.734375 1.08203125 C-1.16203125 0.72496094 -0.5896875 0.36789063 0 0 Z " fill="#EEF0F2" transform="translate(351,89)"/>
<path d="M0 0 C1.65 0.33 3.3 0.66 5 1 C4.58893141 3.95969382 4.21179245 5.72304065 2.375 8.125 C1.92125 8.74375 1.4675 9.3625 1 10 C1.33 10.99 1.66 11.98 2 13 C2.8971875 11.824375 2.8971875 11.824375 3.8125 10.625 C6 8 6 8 9 6 C10.32 6.66 11.64 7.32 13 8 C11.33333333 11.33333333 9.66666667 14.66666667 8 18 C10.53910197 17.61479436 11.72751123 17.29902057 13.484375 15.37109375 C14.11085938 14.41396484 14.11085938 14.41396484 14.75 13.4375 C15.17796875 12.79683594 15.6059375 12.15617187 16.046875 11.49609375 C16.36140625 11.00238281 16.6759375 10.50867188 17 10 C18.32 10.66 19.64 11.32 21 12 C20.46719784 16.22489602 19.12321801 18.54080716 16.4375 21.8125 C15.47650391 22.99779297 15.47650391 22.99779297 14.49609375 24.20703125 C13.75552734 25.09455078 13.75552734 25.09455078 13 26 C9.31224144 25.35074673 6.73846267 23.72389645 3.625 21.6875 C2.66207031 21.06101562 1.69914062 20.43453125 0.70703125 19.7890625 C-0.18628906 19.19867188 -1.07960938 18.60828125 -2 18 C-2.67675781 17.55398437 -3.35351562 17.10796875 -4.05078125 16.6484375 C-5.37153285 15.7721393 -6.68667124 14.8873843 -8 14 C-6.6744419 10.37723685 -5.05653045 7.36494652 -2.875 4.1875 C-2.33617187 3.39730469 -1.79734375 2.60710937 -1.2421875 1.79296875 C-0.83226562 1.20128906 -0.42234375 0.60960938 0 0 Z " fill="#EEF0F2" transform="translate(62,98)"/>
<path d="M0 0 C4.88036541 1.67491831 8.99152948 4.36791961 13.3125 7.125 C14.05306641 7.59292969 14.79363281 8.06085938 15.55664062 8.54296875 C17.37341968 9.69164196 19.18703037 10.84532369 21 12 C20.4520917 16.2829452 18.97567196 18.85135641 16.4375 22.3125 C15.79683594 23.19550781 15.15617187 24.07851563 14.49609375 24.98828125 C14.00238281 25.65214844 13.50867188 26.31601562 13 27 C11.35 26.34 9.7 25.68 8 25 C9.81309003 21.22272911 11.9073259 17.62730178 14 14 C12.68 13.67 11.36 13.34 10 13 C9.71125 13.78375 9.4225 14.5675 9.125 15.375 C8 18 8 18 6 20 C3.375 19.625 3.375 19.625 1 19 C1.309375 18.0925 1.61875 17.185 1.9375 16.25 C2.7272263 13.83436662 3.42949297 11.47219715 4 9 C0.00003714 10.33332095 -0.83782337 12.4957827 -3 16 C-4.65 15.67 -6.3 15.34 -8 15 C-6.51194289 9.19657726 -3.40902445 4.82409121 0 0 Z " fill="#EFF1F3" transform="translate(349,287)"/>
<path d="M0 0 C0 1.98 0 3.96 0 6 C-0.639375 6.103125 -1.27875 6.20625 -1.9375 6.3125 C-2.618125 6.539375 -3.29875 6.76625 -4 7 C-4.33 7.99 -4.66 8.98 -5 10 C-3.989375 9.505 -2.97875 9.01 -1.9375 8.5 C1.84138002 6.90124307 4.87290724 6.45491228 9 7 C12.00339193 9.00226129 12.81463343 10.25853373 13.6875 13.75 C12.64749797 18.66637324 9.88946971 21.87910814 6 25 C2.5625 25.5 2.5625 25.5 0 25 C0 23.02 0 21.04 0 19 C0.78375 18.731875 1.5675 18.46375 2.375 18.1875 C5.28114923 17.15185568 5.28114923 17.15185568 7 14 C2.92035719 15.30155006 2.92035719 15.30155006 -1 17 C-7.37059007 17.46331564 -7.37059007 17.46331564 -9.6875 15.7578125 C-11.76171861 12.97984115 -11.5944329 10.60374337 -11.484375 7.23046875 C-10.92532976 4.65615558 -10.25524702 3.6849709 -8.3125 1.9375 C-5.06078363 0.03555269 -3.65790882 -0.53792777 0 0 Z " fill="#EFF0F2" transform="translate(89,74)"/>
<path d="M0 0 C0 1.65 0 3.3 0 5 C-1.134375 5.433125 -2.26875 5.86625 -3.4375 6.3125 C-4.613125 6.869375 -5.78875 7.42625 -7 8 C-7.33 8.99 -7.66 9.98 -8 11 C-6.80375 10.505 -5.6075 10.01 -4.375 9.5 C0.17235255 7.81281972 3.76306153 7.05813117 8.375 9 C10.46399874 11.57107537 10.62364494 13.73011362 10.44921875 16.99609375 C9.66526928 20.49319009 7.83712853 21.96466866 5 24 C1.6875 24.8125 1.6875 24.8125 -1 25 C-1 23.02 -1 21.04 -1 19 C-0.195625 18.731875 0.60875 18.46375 1.4375 18.1875 C2.7059375 17.5996875 2.7059375 17.5996875 4 17 C4.33 16.01 4.66 15.02 5 14 C0.66770285 14.8604139 0.66770285 14.8604139 -3 17 C-6.3125 17.375 -6.3125 17.375 -10 17 C-12.5 14.9375 -12.5 14.9375 -14 12 C-14.16711582 7.32075704 -13.50726483 5.5676535 -10.375 2.0625 C-6.53317357 -0.28528282 -4.41978657 -0.44197866 0 0 Z " fill="#F0F2F4" transform="translate(337,314)"/>
<path d="M0 0 C3.94427079 1.31475693 4.5907 3.02925916 6.8125 6.5 C7.50988281 7.57765625 8.20726562 8.6553125 8.92578125 9.765625 C9.61027344 10.83296875 10.29476562 11.9003125 11 13 C12.16270953 14.75263164 13.32884343 16.5030016 14.5 18.25 C15.33333333 19.5 16.16666667 20.75 17 22 C16.67 22.66 16.34 23.32 16 24 C13.73828125 24.28125 13.73828125 24.28125 11 24 C8.98046875 22.03125 8.98046875 22.03125 7.1875 19.5 C6.58292969 18.6646875 5.97835937 17.829375 5.35546875 16.96875 C4.90816406 16.3190625 4.46085938 15.669375 4 15 C3.81824219 15.61488281 3.63648438 16.22976562 3.44921875 16.86328125 C3.19785156 17.67152344 2.94648438 18.47976562 2.6875 19.3125 C2.44386719 20.11300781 2.20023438 20.91351563 1.94921875 21.73828125 C0.92734721 24.17311097 0.12582615 25.4397143 -2 27 C-3.32 27 -4.64 27 -6 27 C-4.30622972 17.92941442 -2.14412164 8.97200413 0 0 Z " fill="#EBEDF0" transform="translate(177,26)"/>
<path d="M0 0 C8.91 0 17.82 0 27 0 C26.67 1.65 26.34 3.3 26 5 C21.71 5.66 17.42 6.32 13 7 C14.340625 8.216875 15.68125 9.43375 17.0625 10.6875 C19.34765625 12.76171875 19.34765625 12.76171875 21 15 C20.74609375 17.76953125 20.74609375 17.76953125 20 20 C17 20 17 20 15.203125 18.53125 C2.83333333 5.66666667 2.83333333 5.66666667 0 0 Z " fill="#ECEEF0" transform="translate(359,266)"/>
<path d="M0 0 C6.6 0.66 13.2 1.32 20 2 C20 3.98 20 5.96 20 8 C17.36 7.67 14.72 7.34 12 7 C11.93941406 7.78503906 11.87882813 8.57007813 11.81640625 9.37890625 C11.37179786 14.95361148 10.87875357 20.47640616 10 26 C8.02 26 6.04 26 4 26 C4.66 19.4 5.32 12.8 6 6 C4.02 6 2.04 6 0 6 C0 4.02 0 2.04 0 0 Z " fill="#EAEDEF" transform="translate(226,24)"/>
<path d="M0 0 C0.33 1.65 0.66 3.3 1 5 C-0.65 5.66 -2.3 6.32 -4 7 C-3.566875 8.20398438 -3.13375 9.40796875 -2.6875 10.6484375 C-2.12483503 12.22389942 -1.56234403 13.79942349 -1 15.375 C-0.71382812 16.1690625 -0.42765625 16.963125 -0.1328125 17.78125 C0.13789063 18.54179688 0.40859375 19.30234375 0.6875 20.0859375 C0.93886719 20.7876709 1.19023437 21.4894043 1.44921875 22.21240234 C2 24 2 24 2 26 C0.35 26.33 -1.3 26.66 -3 27 C-4.17133058 24.54379149 -5.33721722 22.08525083 -6.5 19.625 C-6.83386719 18.92632812 -7.16773438 18.22765625 -7.51171875 17.5078125 C-10 12.2265625 -10 12.2265625 -10 10 C-10.598125 10.33 -11.19625 10.66 -11.8125 11 C-14 12 -14 12 -17 12 C-17.33 10.35 -17.66 8.7 -18 7 C-4.24137931 0 -4.24137931 0 0 0 Z " fill="#ECEEF0" transform="translate(154,32)"/>
<path d="M0 0 C5.35253614 0.54617716 10.59882618 1.45383494 15.875 2.5 C16.87478882 2.69589722 16.87478882 2.69589722 17.89477539 2.89575195 C22.75246182 3.87623091 22.75246182 3.87623091 25 5 C24.67 6.65 24.34 8.3 24 10 C21.77058595 9.68926976 19.54147788 9.37634375 17.3125 9.0625 C15.45044922 8.80146484 15.45044922 8.80146484 13.55078125 8.53515625 C10.68728921 8.10358484 7.83959648 7.5679193 5 7 C4.34 10.3 3.68 13.6 3 17 C1.02 16.67 -0.96 16.34 -3 16 C-2.30834212 10.58201328 -1.24200752 5.3177215 0 0 Z " fill="#EEF0F2" transform="translate(368,235)"/>
<path d="M0 0 C1.875 1.1875 1.875 1.1875 3 3 C3.53520313 6.59350675 3.44814771 8.31881548 1.4375 11.375 C-1.92058549 13.61372366 -4.04745604 13.57491549 -8 13 C-10 11.4375 -10 11.4375 -11 9 C-10.93375803 5.22420799 -10.78061285 2.92517078 -8.3125 0 C-5.12832007 -1.37694267 -3.29075199 -0.980224 0 0 Z " fill="#0E2A49" transform="translate(387,202)"/>
<path d="M0 0 C4.30169173 1.40272556 4.30169173 1.40272556 5.875 3.9375 C6.41568562 7.56781776 6.33879841 9.25964079 4.25 12.3125 C1.16313568 14.42456506 -0.4532913 14.54945145 -4.125 13.9375 C-7.21384321 11.82408096 -7.99608765 10.62503254 -8.6875 6.9375 C-8.125 3.9375 -8.125 3.9375 -6 1.5 C-3.125 -0.0625 -3.125 -0.0625 0 0 Z " fill="#0D2949" transform="translate(119.125,56.0625)"/>
<path d="M0 0 C8.25 0 16.5 0 25 0 C25 1.98 25 3.96 25 6 C16.75 6 8.5 6 0 6 C0 4.02 0 2.04 0 0 Z " fill="#EAECEF" transform="translate(27,209)"/>
<path d="M0 0 C2.97 0.495 2.97 0.495 6 1 C5.29389586 3.86948703 4.58018826 6.73670886 3.85546875 9.6015625 C3.30180148 11.8010626 2.76180839 14.00406925 2.23828125 16.2109375 C1.99464844 17.19320312 1.75101562 18.17546875 1.5 19.1875 C1.2834375 20.08855469 1.066875 20.98960938 0.84375 21.91796875 C0.5653125 22.60503906 0.286875 23.29210937 0 24 C-3 25 -3 25 -6 24 C-5.36145015 18.47324097 -4.06306646 13.37632649 -2.4375 8.0625 C-2.20353516 7.28326172 -1.96957031 6.50402344 -1.72851562 5.70117188 C-1.15682579 3.79942813 -0.57904309 1.89951774 0 0 Z " fill="#EEF0F2" transform="translate(261,31)"/>
<path d="M0 0 C-0.30759178 1.97993541 -0.6212068 3.95893599 -0.9375 5.9375 C-1.19853516 7.59072266 -1.19853516 7.59072266 -1.46484375 9.27734375 C-2 12 -2 12 -3 13 C-4.47174679 13.32705484 -5.95314372 13.61101152 -7.4375 13.875 C-12.75106289 14.88710722 -17.85103827 16.35671434 -23 18 C-19.5245778 13.06564388 -15.14411319 9.77633769 -10.375 6.1875 C-9.59898437 5.59001953 -8.82296875 4.99253906 -8.0234375 4.37695312 C-2.26086607 0 -2.26086607 0 0 0 Z " fill="#3EB304" transform="translate(193,188)"/>
<path d="M0 0 C0.38063221 2.3260857 0.71269945 4.66055264 1 7 C0 8 0 8 -2.4375 8.25 C-3.283125 8.1675 -4.12875 8.085 -5 8 C-7 5 -7 5 -7 2 C-2.25 0 -2.25 0 0 0 Z " fill="#1C3754" transform="translate(371,126)"/>
<path d="M0 0 C2.5 0.375 2.5 0.375 4.3125 1.75 C5.5 3.375 5.5 3.375 5.5 5.375 C4.89671875 5.35179688 4.2934375 5.32859375 3.671875 5.3046875 C2.87265625 5.28664063 2.0734375 5.26859375 1.25 5.25 C0.06664062 5.21519531 0.06664062 5.21519531 -1.140625 5.1796875 C-3.70731941 5.3921622 -5.2916067 6.08845895 -7.5 7.375 C-5.75751661 3.48792168 -4.44794262 0.66719139 0 0 Z " fill="#3DB005" transform="translate(264.5,107.625)"/>
<path d="M0 0 C2.5 1.25 2.5 1.25 5 3 C5 4.32 5 5.64 5 7 C2.625 6.75 2.625 6.75 0 6 C-1.3125 3.9375 -1.3125 3.9375 -2 2 C-1.34 1.34 -0.68 0.68 0 0 Z " fill="#1B3653" transform="translate(319,78)"/>
<path d="M0 0 C1.9375 0.75 1.9375 0.75 4 2 C4.75 4.125 4.75 4.125 5 6 C3.35 6.66 1.7 7.32 0 8 C0 5.36 0 2.72 0 0 Z " fill="#DEE2E6" transform="translate(280,185)"/>
<path d="M0 0 C1.9375 0.75 1.9375 0.75 4 2 C4.75 4.125 4.75 4.125 5 6 C2.625 5.6875 2.625 5.6875 0 5 C-0.66 4.01 -1.32 3.02 -2 2 C-1.34 1.34 -0.68 0.68 0 0 Z " fill="#203A57" transform="translate(325,71)"/>
<path d="M0 0 C0.66 0.33 1.32 0.66 2 1 C-4.28866906 8.81834532 -4.28866906 8.81834532 -10 10 C-7.02911382 6.00073014 -3.87051275 3.07881696 0 0 Z " fill="#359F0C" transform="translate(180,196)"/>
<path d="M0 0 C0.66 0.33 1.32 0.66 2 1 C1.07347299 2.17539996 0.13336613 3.34010577 -0.8125 4.5 C-1.33457031 5.1496875 -1.85664063 5.799375 -2.39453125 6.46875 C-4 8 -4 8 -7 8 C-5.61918777 3.8575633 -3.40174442 2.67796901 0 0 Z " fill="#DADEE2" transform="translate(375,171)"/>
</svg>
