<?xml version="1.0" encoding="UTF-8"?>
<svg version="1.1" xmlns="http://www.w3.org/2000/svg" width="798" height="313">
<path d="M0 0 C0.98202393 -0.01772461 1.96404785 -0.03544922 2.97583008 -0.05371094 C11.12898705 -0.04514895 17.04196137 1.8943212 23.17578125 7.44921875 C27.89396523 13.03376902 29.22432961 20.21594978 29.75 27.3125 C30.49765625 26.81878906 31.2453125 26.32507813 32.015625 25.81640625 C33.00046875 25.17574219 33.9853125 24.53507812 35 23.875 C35.97453125 23.23691406 36.9490625 22.59882813 37.953125 21.94140625 C40.33381615 20.5548864 42.06780307 19.765919 44.75 19.3125 C44.75 20.6325 44.75 21.9525 44.75 23.3125 C45.83539063 22.72339844 46.92078125 22.13429688 48.0390625 21.52734375 C49.48392937 20.76738131 50.92926704 20.00831352 52.375 19.25 C53.08785156 18.86005859 53.80070312 18.47011719 54.53515625 18.06835938 C57.81463669 16.3684452 60.04289515 15.30521026 63.78125 15.34375 C67.55466794 16.57507585 71.06325182 18.13209028 74.625 19.875 C75.31335938 20.20435547 76.00171875 20.53371094 76.7109375 20.87304688 C78.3938733 21.67945361 80.07240293 22.49504494 81.75 23.3125 C81.75 22.3225 81.75 21.3325 81.75 20.3125 C86.09863652 20.87694825 88.92827655 22.46677964 92.5625 24.875 C94.02623047 25.83599609 94.02623047 25.83599609 95.51953125 26.81640625 C96.25558594 27.31011719 96.99164063 27.80382812 97.75 28.3125 C97.523125 27.36375 97.29625 26.415 97.0625 25.4375 C96.26485554 19.64284758 98.01442573 14.22915197 100.97265625 9.2578125 C105.10301744 3.89639658 110.67614202 0.85311747 117.38818359 -0.03759766 C120.31136946 -0.15498014 123.20042612 -0.13826375 126.125 -0.0625 C127.21876953 -0.04525879 128.31253906 -0.02801758 129.43945312 -0.01025391 C132.87837183 0.06273739 136.31294701 0.17852488 139.75 0.3125 C140.78415039 0.35117188 141.81830078 0.38984375 142.88378906 0.4296875 C196.74036 2.76604911 251.15384955 15.26156436 302.70751953 30.421875 C305.98646597 31.38172066 309.27236406 32.31541375 312.55859375 33.25 C358.31250445 46.4331203 402.97889626 64.07251798 444.875 86.75 C445.76985107 87.2342041 446.66470215 87.7184082 447.58666992 88.21728516 C452.56531285 90.96224602 457.19379692 93.91078198 461.75 97.3125 C459.26933401 107.78642308 449.93583405 118.78628186 440.94921875 124.44677734 C438.43509937 125.8836913 435.91365816 127.27234582 433.30834961 128.53759766 C431.32723143 129.49865543 431.32723143 129.49865543 428.75 131.3125 C427.9731043 133.78018964 427.9731043 133.78018964 427.75 136.3125 C425.72770823 139.24921935 423.20556497 141.73248144 420.75 144.3125 C420.16089844 144.97636719 419.57179688 145.64023438 418.96484375 146.32421875 C413.05108623 152.71509471 405.47178302 157.91242323 397.421875 161.2890625 C395.56407793 162.1771081 395.56407793 162.1771081 395.12890625 164.23046875 C395.00386719 164.91753906 394.87882813 165.60460937 394.75 166.3125 C386.51089798 179.54499718 372.04787356 188.49367862 357.39453125 193.046875 C354.11804683 194.6149414 353.42425522 196.14948942 351.75 199.3125 C341.97446494 210.12385334 329.01074232 215.36958999 315.64501953 220.16748047 C309.75160435 222.35373025 304.60740811 224.96479478 299.375 228.4375 C287.42231314 236.33845384 268.47343308 245.3125 253.75 245.3125 C253.53214844 246.09496094 253.31429687 246.87742188 253.08984375 247.68359375 C251.75 250.3125 251.75 250.3125 249.37890625 251.53515625 C245.84423056 252.50325214 242.31424419 253.46008891 238.75 254.3125 C238.03537598 254.48668457 237.32075195 254.66086914 236.58447266 254.84033203 C206.91235354 261.93513961 176.24440796 262.92266878 146.75 254.3125 C146.4096875 255.05113281 146.069375 255.78976563 145.71875 256.55078125 C142.10501201 264.11464241 137.95599878 270.74798344 132.75 277.3125 C132.14542969 278.08335937 131.54085938 278.85421875 130.91796875 279.6484375 C116.28380197 297.20943763 94.53369407 307.39443657 72.03515625 309.90625 C49.26592429 311.88096077 25.03659826 305.57707234 7.04296875 291.140625 C4.55138735 288.9207829 2.14372282 286.63713405 -0.25 284.3125 C-1.28060547 283.39210938 -1.28060547 283.39210938 -2.33203125 282.453125 C-10.64694384 274.77782107 -16.55429404 264.52055644 -21.25 254.3125 C-22.27996094 254.57804688 -23.30992187 254.84359375 -24.37109375 255.1171875 C-51.73155811 261.98570602 -78.74944446 261.76699416 -106.3125 255.9375 C-107.25198486 255.74067627 -108.19146973 255.54385254 -109.15942383 255.34106445 C-117.8325964 253.4035145 -125.45635609 250.85582402 -132.55126953 245.43261719 C-135.51686362 243.47714928 -138.77143311 242.77715009 -142.1875 241.9375 C-153.42576811 238.90039761 -170.15144586 234.33001435 -177.9609375 225.34375 C-181.17357212 222.49294795 -184.5553622 221.69297163 -188.625 220.5 C-202.73719602 216.05032369 -217.69008507 209.80340055 -227.015625 197.80859375 C-230.49831536 193.62914092 -234.55847154 191.93080067 -239.5 189.875 C-247.00099196 186.53233742 -253.24980338 183.01706649 -259.25 177.3125 C-260.05953125 176.56871094 -260.8690625 175.82492188 -261.703125 175.05859375 C-265.16737105 171.75638501 -267.87577849 169.07430807 -270 164.75 C-272.1379145 160.48397796 -276.10689631 158.74660896 -280.11474609 156.43334961 C-288.600802 151.47543142 -300.52506759 142.75224765 -303.1875 132.8125 C-303.208125 131.9875 -303.22875 131.1625 -303.25 130.3125 C-304.11753906 130.06886719 -304.98507812 129.82523438 -305.87890625 129.57421875 C-318.60522887 124.8110644 -328.9353549 112.96070127 -335.25 101.3125 C-335.6101863 99.9861687 -335.9486945 98.65343396 -336.25 97.3125 C-266.65008294 49.00615088 -172.04720849 24.7086574 0 0 Z " fill="#031043" transform="translate(336.25,-0.3125)"/>
<path d="M0 0 C0.98202393 -0.01772461 1.96404785 -0.03544922 2.97583008 -0.05371094 C11.12898705 -0.04514895 17.04196137 1.8943212 23.17578125 7.44921875 C27.89396523 13.03376902 29.22432961 20.21594978 29.75 27.3125 C30.49765625 26.81878906 31.2453125 26.32507813 32.015625 25.81640625 C33.00046875 25.17574219 33.9853125 24.53507812 35 23.875 C35.97453125 23.23691406 36.9490625 22.59882813 37.953125 21.94140625 C40.33381615 20.5548864 42.06780307 19.765919 44.75 19.3125 C44.75 20.6325 44.75 21.9525 44.75 23.3125 C45.83539063 22.72339844 46.92078125 22.13429688 48.0390625 21.52734375 C49.48392937 20.76738131 50.92926704 20.00831352 52.375 19.25 C53.08785156 18.86005859 53.80070312 18.47011719 54.53515625 18.06835938 C57.81463669 16.3684452 60.04289515 15.30521026 63.78125 15.34375 C67.55466794 16.57507585 71.06325182 18.13209028 74.625 19.875 C75.31335938 20.20435547 76.00171875 20.53371094 76.7109375 20.87304688 C78.3938733 21.67945361 80.07240293 22.49504494 81.75 23.3125 C81.75 22.3225 81.75 21.3325 81.75 20.3125 C86.09863652 20.87694825 88.92827655 22.46677964 92.5625 24.875 C94.02623047 25.83599609 94.02623047 25.83599609 95.51953125 26.81640625 C96.25558594 27.31011719 96.99164063 27.80382812 97.75 28.3125 C97.523125 27.36375 97.29625 26.415 97.0625 25.4375 C96.26485554 19.64284758 98.01442573 14.22915197 100.97265625 9.2578125 C105.10301744 3.89639658 110.67614202 0.85311747 117.38818359 -0.03759766 C120.31136946 -0.15498014 123.20042612 -0.13826375 126.125 -0.0625 C127.21876953 -0.04525879 128.31253906 -0.02801758 129.43945312 -0.01025391 C132.87837183 0.06273739 136.31294701 0.17852488 139.75 0.3125 C140.78415039 0.35117188 141.81830078 0.38984375 142.88378906 0.4296875 C196.74036 2.76604911 251.15384955 15.26156436 302.70751953 30.421875 C305.98646597 31.38172066 309.27236406 32.31541375 312.55859375 33.25 C358.31250445 46.4331203 402.97889626 64.07251798 444.875 86.75 C445.76985107 87.2342041 446.66470215 87.7184082 447.58666992 88.21728516 C452.56531285 90.96224602 457.19379692 93.91078198 461.75 97.3125 C459.26933401 107.78642308 449.93583405 118.78628186 440.94921875 124.44677734 C438.43509937 125.8836913 435.91365816 127.27234582 433.30834961 128.53759766 C431.32723143 129.49865543 431.32723143 129.49865543 428.75 131.3125 C427.9731043 133.78018964 427.9731043 133.78018964 427.75 136.3125 C425.72770823 139.24921935 423.20556497 141.73248144 420.75 144.3125 C420.16089844 144.97636719 419.57179688 145.64023438 418.96484375 146.32421875 C413.05108623 152.71509471 405.47178302 157.91242323 397.421875 161.2890625 C395.56407793 162.1771081 395.56407793 162.1771081 395.12890625 164.23046875 C395.00386719 164.91753906 394.87882813 165.60460937 394.75 166.3125 C386.51089798 179.54499718 372.04787356 188.49367862 357.39453125 193.046875 C354.11804683 194.6149414 353.42425522 196.14948942 351.75 199.3125 C341.97446494 210.12385334 329.01074232 215.36958999 315.64501953 220.16748047 C309.75160435 222.35373025 304.60740811 224.96479478 299.375 228.4375 C287.42231314 236.33845384 268.47343308 245.3125 253.75 245.3125 C253.53214844 246.09496094 253.31429687 246.87742188 253.08984375 247.68359375 C251.75 250.3125 251.75 250.3125 249.37890625 251.53515625 C245.84423056 252.50325214 242.31424419 253.46008891 238.75 254.3125 C238.03537598 254.48668457 237.32075195 254.66086914 236.58447266 254.84033203 C206.91235354 261.93513961 176.24440796 262.92266878 146.75 254.3125 C146.4096875 255.05113281 146.069375 255.78976563 145.71875 256.55078125 C142.10501201 264.11464241 137.95599878 270.74798344 132.75 277.3125 C132.14542969 278.08335937 131.54085938 278.85421875 130.91796875 279.6484375 C116.28380197 297.20943763 94.53369407 307.39443657 72.03515625 309.90625 C49.26592429 311.88096077 25.03659826 305.57707234 7.04296875 291.140625 C4.55138735 288.9207829 2.14372282 286.63713405 -0.25 284.3125 C-1.28060547 283.39210938 -1.28060547 283.39210938 -2.33203125 282.453125 C-10.64694384 274.77782107 -16.55429404 264.52055644 -21.25 254.3125 C-22.27996094 254.57804688 -23.30992187 254.84359375 -24.37109375 255.1171875 C-51.73155811 261.98570602 -78.74944446 261.76699416 -106.3125 255.9375 C-107.25198486 255.74067627 -108.19146973 255.54385254 -109.15942383 255.34106445 C-117.8325964 253.4035145 -125.45635609 250.85582402 -132.55126953 245.43261719 C-135.51686362 243.47714928 -138.77143311 242.77715009 -142.1875 241.9375 C-153.42576811 238.90039761 -170.15144586 234.33001435 -177.9609375 225.34375 C-181.17357212 222.49294795 -184.5553622 221.69297163 -188.625 220.5 C-202.73719602 216.05032369 -217.69008507 209.80340055 -227.015625 197.80859375 C-230.49831536 193.62914092 -234.55847154 191.93080067 -239.5 189.875 C-247.00099196 186.53233742 -253.24980338 183.01706649 -259.25 177.3125 C-260.05953125 176.56871094 -260.8690625 175.82492188 -261.703125 175.05859375 C-265.16737105 171.75638501 -267.87577849 169.07430807 -270 164.75 C-272.1379145 160.48397796 -276.10689631 158.74660896 -280.11474609 156.43334961 C-288.600802 151.47543142 -300.52506759 142.75224765 -303.1875 132.8125 C-303.208125 131.9875 -303.22875 131.1625 -303.25 130.3125 C-304.11753906 130.06886719 -304.98507812 129.82523438 -305.87890625 129.57421875 C-318.60522887 124.8110644 -328.9353549 112.96070127 -335.25 101.3125 C-335.6101863 99.9861687 -335.9486945 98.65343396 -336.25 97.3125 C-266.65008294 49.00615088 -172.04720849 24.7086574 0 0 Z M-97.25 20.3125 C-98.95932501 20.65519773 -100.66895158 20.9963955 -102.37890625 21.3359375 C-112.8410063 23.44154371 -123.18034369 25.97726881 -133.51806641 28.61962891 C-136.46109119 29.3660368 -139.40773157 30.09665079 -142.35546875 30.82421875 C-151.89180389 33.18025449 -161.40552773 35.54930838 -170.83203125 38.31640625 C-174.19950576 39.29778454 -177.57630002 40.23609099 -180.95849609 41.16503906 C-199.95016775 46.38863512 -218.38374712 52.80312551 -236.7265625 59.9765625 C-239.60740793 61.06885644 -242.49504271 62.11860536 -245.3984375 63.1484375 C-255.05525184 66.58013591 -264.47463388 70.1301832 -273.6953125 74.609375 C-276.77628623 76.08553384 -279.87091646 77.45204932 -283.01513672 78.78295898 C-293.06782337 83.04762273 -302.67680657 88.06926948 -312.25 93.3125 C-313.24362549 93.85583984 -313.24362549 93.85583984 -314.25732422 94.41015625 C-319.36427085 97.18237642 -319.36427085 97.18237642 -324.25 100.3125 C-324.25 100.9725 -324.25 101.6325 -324.25 102.3125 C-323.59 102.3125 -322.93 102.3125 -322.25 102.3125 C-321.86908203 103.41658203 -321.86908203 103.41658203 -321.48046875 104.54296875 C-316.97460904 114.68472918 -305.92670518 120.08541679 -296.25 124.3125 C-292.90844088 125.38032605 -289.73510142 125.9726306 -286.25 126.3125 C-285.31542969 126.41949219 -284.38085938 126.52648437 -283.41796875 126.63671875 C-281.03184757 126.89368565 -278.64115023 127.10754427 -276.25 127.3125 C-280.87 129.6225 -285.49 131.9325 -290.25 134.3125 C-289.3425 135.385 -288.435 136.4575 -287.5 137.5625 C-286.98953125 138.16578125 -286.4790625 138.7690625 -285.953125 139.390625 C-276.48472581 150.07514886 -263.06025727 156.01364143 -248.875 157.125 C-247.01875 157.186875 -245.1625 157.24875 -243.25 157.3125 C-249.685 160.7775 -249.685 160.7775 -256.25 164.3125 C-248.42170304 177.35966159 -234.5932046 182.48168348 -220.875 187.5625 C-215.06005056 188.76559299 -209.17121156 189.00042505 -203.25 189.3125 C-206.55 190.9625 -209.85 192.6125 -213.25 194.3125 C-213.25 195.3025 -213.25 196.2925 -213.25 197.3125 C-209.06955053 201.3627174 -204.5876121 203.92551741 -199.375 206.4375 C-198.37146484 206.93830078 -198.37146484 206.93830078 -197.34765625 207.44921875 C-186.08732841 212.98174977 -176.44757673 214.48744043 -163.9375 214.4375 C-162.94943359 214.44136719 -161.96136719 214.44523438 -160.94335938 214.44921875 C-159.52313477 214.44728516 -159.52313477 214.44728516 -158.07421875 214.4453125 C-156.79164185 214.44362061 -156.79164185 214.44362061 -155.4831543 214.44189453 C-153.07752116 214.39990773 -153.07752116 214.39990773 -150.25 213.3125 C-150.25 213.9725 -150.25 214.6325 -150.25 215.3125 C-150.930625 215.539375 -151.61125 215.76625 -152.3125 216 C-156.04614324 217.66822357 -158.97163421 219.86979608 -162.25 222.3125 C-161.59361833 225.33080495 -161.59361833 225.33080495 -159.640625 226.33984375 C-140.01513563 234.68425802 -121.29514026 235.73282197 -100.25 236.3125 C-100.971875 236.86679688 -101.69375 237.42109375 -102.4375 237.9921875 C-103.365625 238.71664062 -104.29375 239.44109375 -105.25 240.1875 C-106.178125 240.90679687 -107.10625 241.62609375 -108.0625 242.3671875 C-108.784375 243.00914062 -109.50625 243.65109375 -110.25 244.3125 C-110.25 244.9725 -110.25 245.6325 -110.25 246.3125 C-107.8546939 246.7737271 -105.45879868 247.23147976 -103.0625 247.6875 C-102.40830078 247.81382812 -101.75410156 247.94015625 -101.08007812 248.0703125 C-98.80620126 248.5013792 -96.52886321 248.90861437 -94.25 249.3125 C-93.29367676 249.48966553 -92.33735352 249.66683105 -91.35205078 249.84936523 C-82.71756813 251.33501786 -74.24821485 251.66992704 -65.5 251.625 C-64.79955566 251.62384186 -64.09911133 251.62268372 -63.37744141 251.62149048 C-47.62094426 251.57001482 -33.70083246 249.67303346 -19.25 243.125 C-18.486875 242.78082031 -17.72375 242.43664062 -16.9375 242.08203125 C-16.380625 241.82808594 -15.82375 241.57414063 -15.25 241.3125 C-15.10304688 241.89515625 -14.95609375 242.4778125 -14.8046875 243.078125 C-9.0035604 264.28224473 4.74773125 280.48983215 23.53125 291.52734375 C41.81049959 301.66522854 62.87215794 304.88661215 83.25 299.25 C104.56315551 292.78684717 122.60903421 279.76410528 133.75 260.3125 C138.55978841 251.65268236 138.55978841 251.65268236 140.75 242.3125 C142.29494141 242.90998047 142.29494141 242.90998047 143.87109375 243.51953125 C173.23285156 254.59035797 205.76240331 254.35767183 235.75 245.3125 C232.57734428 242.04919697 229.32512495 239.12453105 225.75 236.3125 C226.72195313 236.34730469 227.69390625 236.38210937 228.6953125 236.41796875 C249.94953179 236.93400045 269.49834697 233.43170406 288.75 224.3125 C285.49098981 220.79276899 281.8639069 217.78489725 277.75 215.3125 C277.09 215.3125 276.43 215.3125 275.75 215.3125 C275.75 214.6525 275.75 213.9925 275.75 213.3125 C276.74 213.6425 277.73 213.9725 278.75 214.3125 C299.94872057 215.79449257 319.50961896 212.67760955 336.75 199.3125 C338.235 197.3325 338.235 197.3325 339.75 195.3125 C336.12 193.3325 332.49 191.3525 328.75 189.3125 C330.73 189.250625 332.71 189.18875 334.75 189.125 C353.09347073 187.77240064 369.21598487 179.80877219 381.75 166.3125 C381.75 165.6525 381.75 164.9925 381.75 164.3125 C377.46 162.0025 373.17 159.6925 368.75 157.3125 C369.7915625 157.24933594 370.833125 157.18617188 371.90625 157.12109375 C386.8808836 155.94820113 401.04087938 151.41594871 411.75 140.3125 C413.07 138.3325 414.39 136.3525 415.75 134.3125 C411.46 132.0025 407.17 129.6925 402.75 127.3125 C405.658125 126.9103125 405.658125 126.9103125 408.625 126.5 C425.48823659 123.8383432 437.31329605 117.17591946 448.55859375 104.23046875 C449.14833984 103.28107422 449.14833984 103.28107422 449.75 102.3125 C448.47977182 98.50181547 446.6985041 97.97506102 443.25196838 96.20401001 C442.47917038 95.81957733 441.70637238 95.43514465 440.91015625 95.0390625 C440.11403427 94.63344086 439.31791229 94.22781921 438.49766541 93.80990601 C435.9405297 92.50981991 433.37670786 91.22357181 430.8125 89.9375 C429.11868642 89.07902057 427.42532146 88.2196554 425.73242188 87.359375 C421.75584957 85.34131957 417.77325059 83.3355945 413.78735352 81.33602905 C412.01385664 80.44505674 410.24301948 79.54879407 408.47265625 78.65161133 C407.59609375 78.20841553 406.71953125 77.76521973 405.81640625 77.30859375 C405.10814697 76.94950928 404.3998877 76.5904248 403.67016602 76.22045898 C401.0586604 74.98559702 398.37759163 74.01736194 395.6574707 73.05102539 C393.71847631 72.30029481 391.94165782 71.40723137 390.10546875 70.43359375 C385.60155803 68.15409948 380.9675969 66.53582167 376.1875 64.9375 C370.14034907 62.87153788 364.16377041 60.73500836 358.25 58.3125 C337.83955346 50.01181139 316.62873088 42.96218787 295.18164062 37.90966797 C294.40884766 37.72678223 293.63605469 37.54389648 292.83984375 37.35546875 C291.83232056 37.12380005 291.83232056 37.12380005 290.80444336 36.88745117 C288.75 36.3125 288.75 36.3125 286.30371094 35.32128906 C283.80184009 34.33297832 281.42690902 33.69686202 278.80078125 33.12890625 C277.86943359 32.92330078 276.93808594 32.71769531 275.97851562 32.50585938 C275.01623047 32.29767578 274.05394531 32.08949219 273.0625 31.875 C266.6042815 30.47564575 260.27423524 28.92557364 253.95922852 26.9753418 C251.1856412 26.14317365 248.39952758 25.5146496 245.5625 24.9375 C244.38300781 24.69386719 243.20351563 24.45023438 241.98828125 24.19921875 C241.32908691 24.06306152 240.66989258 23.9269043 239.99072266 23.78662109 C237.39933596 23.23830197 234.81508369 22.66142493 232.23046875 22.08203125 C222.94800974 20.00802968 213.72820495 17.97382947 204.28515625 16.76953125 C201.63726422 16.42720709 199.00782585 16.05077915 196.37109375 15.63671875 C183.44227016 13.60887508 170.47872764 12.05286096 157.47045898 10.62719727 C155.26294438 10.37183638 153.06165446 10.06306604 150.86328125 9.73828125 C144.83935162 8.97611437 138.74857967 9.12815846 132.6875 9.125 C131.44677734 9.11275391 130.20605469 9.10050781 128.92773438 9.08789062 C118.1622966 8.92486239 118.1622966 8.92486239 108.8125 13.625 C105.99974278 17.60099918 105.7058081 21.68939446 105.859375 26.4609375 C107.58484485 33.92283781 112.14365816 40.00749459 116.39501953 46.27368164 C120.20901732 52.01254571 122.89233136 57.68425037 124.75 64.3125 C124.95753906 65.03824219 125.16507812 65.76398438 125.37890625 66.51171875 C128.9605282 81.26399377 127.51365179 97.39346017 120.32421875 110.80078125 C115.39446295 118.66637177 109.5639302 125.26644698 101.75 130.3125 C102.29269531 129.33152344 102.83539063 128.35054688 103.39453125 127.33984375 C113.79577663 107.97309286 115.75289499 86.50838981 109.75 65.3125 C105.49299942 52.68907428 98.99227282 41.98613644 88.75 33.3125 C88.09 33.3125 87.43 33.3125 86.75 33.3125 C86.75 33.9725 86.75 34.6325 86.75 35.3125 C79.80430039 33.31119672 74.06076575 30.36365598 67.86328125 26.640625 C64.13220909 25.04895055 62.59819172 25.13458399 58.75 26.3125 C56.5447247 27.40443243 54.37779204 28.57635415 52.25 29.8125 C48.02997792 32.26413187 44.65381421 33.91794024 39.75 34.3125 C39.09 33.9825 38.43 33.6525 37.75 33.3125 C24.53760921 43.98536633 16.18906807 57.89457731 13.9609375 74.98535156 C13.49478379 80.12814918 13.42091199 85.27640938 13.375 90.4375 C13.36098145 91.52192383 13.34696289 92.60634766 13.33251953 93.72363281 C13.39581479 104.43189284 15.6362825 114.00015867 20.4375 123.5625 C20.75783203 124.22378906 21.07816406 124.88507813 21.40820312 125.56640625 C22.17869302 127.15338543 22.96278259 128.73375165 23.75 130.3125 C10.26450808 120.66816254 2.69555505 108.8145489 -0.7109375 92.69921875 C-4.23985996 70.5283798 5.06624173 52.31557938 16.5925293 34.22851562 C19.83521565 28.86074459 20.70108768 24.58373441 19.75 18.3125 C17.74762705 14.01276165 14.26207736 11.67532401 9.92700195 9.92993164 C5.32314401 8.62420587 0.62882084 8.74021292 -4.125 8.75 C-5.34880371 8.75169189 -6.57260742 8.75338379 -7.83349609 8.75512695 C-37.646737 9.14517974 -68.11759853 14.19112933 -97.25 20.3125 Z " fill="#C39F6C" transform="translate(336.25,-0.3125)"/>
<path d="M0 0 C-0.49833015 4.53087014 -1.49335307 7.19889544 -4.25 10.8125 C-7.58935985 15.37856347 -10.43072606 19.96354247 -13 25 C-13.61488281 26.175625 -13.61488281 26.175625 -14.2421875 27.375 C-23.8956845 47.04175164 -26.627963 68.81433164 -19.61328125 89.80859375 C-15.5701449 100.77702698 -9.67562403 110.18295775 -2 119 C-1.10281349 120.12392114 -0.20678063 121.24876533 0.6875 122.375 C2.94152306 125.08620407 2.94152306 125.08620407 5.8125 127.25 C6.534375 127.8275 7.25625 128.405 8 129 C8 129.66 8 130.32 8 131 C5.8046875 131.72265625 5.8046875 131.72265625 3 132 C0.5703125 130.55859375 0.5703125 130.55859375 -1.875 128.4375 C-2.74898438 127.68726563 -3.62296875 126.93703125 -4.5234375 126.1640625 C-5.34070313 125.44992188 -6.15796875 124.73578125 -7 124 C-7.91652344 123.30003906 -7.91652344 123.30003906 -8.8515625 122.5859375 C-16.89158091 116.37492802 -23.36137457 106.96188678 -27.96484375 98 C-29.00811166 95.90680148 -29.00811166 95.90680148 -30.49609375 93.6796875 C-32.24696045 90.55996138 -33.16767647 87.56985713 -34.125 84.125 C-34.62386719 82.36542969 -34.62386719 82.36542969 -35.1328125 80.5703125 C-40.51842768 58.39710405 -36.71866225 35.71365993 -28 15 C-35.91900042 14.81442144 -43.58071053 15.3465304 -51.4375 16.3125 C-52.56623535 16.44785156 -53.6949707 16.58320312 -54.85791016 16.72265625 C-74.63183749 19.06036384 -74.63183749 19.06036384 -94.06640625 23.26171875 C-97.42079845 24.10590001 -100.7811364 24.71137701 -104.1875 25.3125 C-115.57295186 27.35281328 -126.77524426 30.22854333 -138 33 C-138.93553711 33.23009766 -139.87107422 33.46019531 -140.83496094 33.69726562 C-145.8308485 34.92763677 -150.82230405 36.17415144 -155.80859375 37.44287109 C-157.21167738 37.79958197 -158.61527884 38.15426599 -160.01953125 38.50634766 C-168.30467296 40.58817934 -176.40703529 43.04025332 -184.48486328 45.80639648 C-189.11392473 47.39136419 -193.76714228 48.84222965 -198.45776367 50.23413086 C-211.83960342 54.26551771 -224.93234087 59.02392388 -237.91503906 64.18115234 C-241.79124568 65.70349391 -245.69701163 67.14766725 -249.60839844 68.5769043 C-253.65157542 70.0690763 -257.62384403 71.67829803 -261.5859375 73.375 C-284.97333422 83.24813984 -284.97333422 83.24813984 -296.8984375 78.95703125 C-297.59195313 78.64121094 -298.28546875 78.32539062 -299 78 C-298 75 -298 75 -295.8125 73.75390625 C-294.884375 73.36074219 -293.95625 72.96757813 -293 72.5625 C-292.00226563 72.13195312 -291.00453125 71.70140625 -289.9765625 71.2578125 C-288.99429688 70.84273438 -288.01203125 70.42765625 -287 70 C-285.45685583 69.31582281 -283.91504851 68.62861718 -282.375 67.9375 C-281.64667969 67.61523438 -280.91835938 67.29296875 -280.16796875 66.9609375 C-278.73135727 66.32416917 -277.29643 65.68358644 -275.86328125 65.0390625 C-270.6394204 62.69442119 -265.3727287 60.46682735 -260.08203125 58.27734375 C-258.11839333 57.46351663 -256.15716862 56.6438244 -254.19921875 55.81640625 C-251.14012604 54.52591763 -248.07179843 53.25994569 -245 52 C-243.84757812 51.52175781 -242.69515625 51.04351562 -241.5078125 50.55078125 C-227.09227817 44.69657258 -212.25417551 39.98776752 -197.47964478 35.13569641 C-193.95998338 33.9795571 -190.4435447 32.81564485 -186.93505859 31.62597656 C-179.67750161 29.16800477 -172.41521624 26.93098847 -165 25 C-163.11920882 24.49042765 -161.23900726 23.97867449 -159.359375 23.46484375 C-156.53915034 22.69694135 -153.71892392 21.92904986 -150.8984375 21.16210938 C-146.96704985 20.09116414 -143.03898429 19.01761441 -139.12890625 17.87109375 C-136.47060331 17.1310169 -133.90672723 16.56693079 -131.1875 16.125 C-126.23675135 15.25929532 -121.34047012 14.22365183 -116.4375 13.125 C-115.67244141 12.95387695 -114.90738281 12.78275391 -114.11914062 12.60644531 C-110.1761271 11.7213124 -106.23573793 10.82528393 -102.296875 9.921875 C-101.5241626 9.74640137 -100.7514502 9.57092773 -99.95532227 9.39013672 C-98.51221026 9.06233326 -97.06988876 8.73101522 -95.62866211 8.39501953 C-90.37630921 7.20536004 -85.09797615 6.36196433 -79.77270508 5.56689453 C-76.28649063 5.04304868 -72.80476853 4.49703219 -69.32336426 3.94244385 C-36.80822893 -1.23552283 -36.80822893 -1.23552283 -24.6875 -2.375 C-23.92115234 -2.4471875 -23.15480469 -2.519375 -22.36523438 -2.59375 C-6.22657651 -3.93257464 -6.22657651 -3.93257464 0 0 Z " fill="#F5F6F8" transform="translate(344,23)"/>
<path d="M0 0 C31.63999085 0.38174414 65.12980443 6.71012547 95.79321289 14.3125 C101.93752041 15.83050539 108.03272134 16.94627555 114.30688477 17.79296875 C118.60122074 18.53270587 122.62156289 19.89229749 126.75463867 21.24658203 C130.97783054 22.50435874 135.22542348 23.41575662 139.53588867 24.31689453 C145.1880724 25.51347819 150.33799606 26.93125774 155.64135742 29.26220703 C159.24629545 30.66672834 162.92567967 31.63320528 166.66088867 32.62939453 C176.2177988 35.19383712 185.55684428 38.30332511 194.91967773 41.49560547 C197.13859541 42.24595117 199.36215792 42.97815434 201.59057617 43.69970703 C208.11913529 45.8164586 214.50528734 48.10473192 220.81323242 50.81298828 C223.6503815 52.01995225 226.49473377 53.19492669 229.35229492 54.35205078 C239.02090656 58.26732603 248.62287034 62.27493643 258.12963867 66.5690918 C263.53725206 68.99748806 269.0022743 71.1429671 274.55541992 73.21923828 C278.29327665 74.68824211 281.80075105 76.43873344 285.34838867 78.31689453 C285.34838867 78.97689453 285.34838867 79.63689453 285.34838867 80.31689453 C272.91363359 84.25536102 262.89579505 82.80382278 251.25952148 77.17675781 C247.0326119 75.27497248 242.59781844 73.88536306 238.20825195 72.41015625 C234.06030733 70.99453289 230.27457301 69.28253287 226.34838867 67.31689453 C223.62719095 66.29395214 220.91074099 65.31793234 218.16088867 64.37939453 C216.90816162 63.94747803 216.90816162 63.94747803 215.63012695 63.50683594 C213.68505816 62.83688674 211.73936965 62.16873527 209.79321289 61.50195312 C206.56333392 60.39083813 203.33733097 59.26923925 200.11218262 58.14450073 C178.30748965 50.45109415 178.30748965 50.45109415 156.10864258 44.02734375 C152.44694742 43.08487666 148.7944503 42.10844172 145.14135742 41.13330078 C123.18679439 35.13225618 123.18679439 35.13225618 101.03588867 29.94189453 C96.67231248 29.03060624 92.3214509 28.08647008 87.97729492 27.08642578 C78.18252809 24.8544981 68.55749712 22.91197481 58.54882812 21.98461914 C54.1803788 21.56817833 50.05952074 20.86455676 45.78588867 19.81689453 C35.18173902 17.33881923 24.1856765 17.0278921 13.34838867 16.31689453 C13.66291992 17.05810547 13.97745117 17.79931641 14.30151367 18.56298828 C20.12577698 32.89558804 22.702483 45.61790281 22.78588867 61.12939453 C22.79595947 62.34498047 22.80603027 63.56056641 22.81640625 64.81298828 C22.60667055 86.66120039 12.98849722 106.03692122 -1.89770508 121.69189453 C-4.98260139 124.63239144 -8.13989282 127.40186949 -11.46411133 130.06689453 C-12.27283691 130.73156738 -12.27283691 130.73156738 -13.09790039 131.40966797 C-15.76857249 133.45370192 -17.12514032 134.35963913 -20.53833008 134.08251953 C-21.5844043 133.70353516 -21.5844043 133.70353516 -22.65161133 133.31689453 C-21.54050703 129.98358164 -20.88877044 129.51919517 -18.21411133 127.44189453 C-4.11013069 115.3816034 7.0845513 96.15999869 8.56713867 77.57470703 C9.91952061 51.8118312 2.99883604 28.3759471 -13.39770508 8.16455078 C-14.65161133 6.31689453 -14.65161133 6.31689453 -14.40161133 3.62939453 C-12.57149478 -2.01346482 -5.03614464 0.00716436 0 0 Z " fill="#F6F7F8" transform="translate(468.651611328125,20.68310546875)"/>
<path d="M0 0 C-0.33 7.92 -0.66 15.84 -1 24 C-12.51785714 26.94642857 -12.51785714 26.94642857 -17.75 27.9375 C-29.96450242 30.30222767 -41.99531146 33.76748091 -54 37 C-56.41644698 37.64665483 -58.83311624 38.29247957 -61.25 38.9375 C-63.08691406 39.42863281 -63.08691406 39.42863281 -64.9609375 39.9296875 C-67.92144673 40.71767266 -70.8856495 41.49042472 -73.8515625 42.2578125 C-74.68526367 42.47445557 -75.51896484 42.69109863 -76.37792969 42.91430664 C-77.98989168 43.33274222 -79.60248124 43.74877101 -81.21582031 44.16186523 C-85.83571532 45.3634145 -90.35362696 46.74677979 -94.87402344 48.27954102 C-104.83560729 51.65536025 -113.92083544 53.37824371 -124.4375 53.4375 C-125.34846436 53.44740967 -126.25942871 53.45731934 -127.19799805 53.4675293 C-137.10414203 53.34176859 -144.60776246 50.60972591 -152 44 C-154.5625 41.3125 -154.5625 41.3125 -156 39 C-155.67 38.01 -155.34 37.02 -155 36 C-152.64599609 34.89672852 -152.64599609 34.89672852 -149.5234375 33.87890625 C-148.38535645 33.50290283 -147.24727539 33.12689941 -146.07470703 32.73950195 C-144.85380371 32.35109131 -143.63290039 31.96268066 -142.375 31.5625 C-141.13476074 31.15926514 -139.89452148 30.75603027 -138.61669922 30.34057617 C-131.36889766 28.00648204 -124.12306712 25.81778101 -116.73828125 23.9609375 C-111.90058693 22.71739225 -107.11045453 21.32526519 -102.3125 19.9375 C-91.63386105 16.86778212 -80.94949715 14.16403076 -70.07421875 11.87890625 C-66.11778025 11.03713197 -62.17917924 10.12315289 -58.23876953 9.2097168 C-18.37747548 0 -18.37747548 0 0 0 Z " fill="#C39C65" transform="translate(287,65)"/>
<path d="M0 0 C17.47754635 0.91593558 34.11698514 4.29831455 51.13305664 8.13500977 C54.93688848 8.98588269 58.74601752 9.80648899 62.55859375 10.6171875 C76.30365984 13.55145101 89.8015721 17.30085101 103.33789062 21.06811523 C109.89289016 22.88728969 116.44924142 24.65564334 123.0625 26.25 C129.51201005 27.82608606 135.73600906 29.81097091 142 32 C144.24896624 32.7530942 146.49895032 33.50315641 148.75 34.25 C150.5 34.83333333 152.25 35.41666667 154 36 C154 40.11463966 153.55371539 41.39419032 150.8984375 44.41015625 C139.54593362 53.91729427 126.01191083 54.11650538 112 53 C105.50012087 51.95708688 99.25476131 50.01224775 93 48 C91.79601562 47.63132813 90.59203125 47.26265625 89.3515625 46.8828125 C87.22008158 46.22969839 85.09098746 45.5687224 82.96484375 44.8984375 C79.05931652 43.7149444 75.11688582 42.74112862 71.15234375 41.77734375 C65.07713768 40.27924461 59.04282114 38.62289398 53 37 C49.3356138 36.01966798 45.67072676 35.04150375 42.00390625 34.0703125 C39.15215352 33.31298282 36.30771435 32.53217347 33.46484375 31.7421875 C24.53438816 29.28948263 15.68841796 27.26313977 6.5222168 25.90014648 C1.08814452 25.08814452 1.08814452 25.08814452 0 24 C-0.08726223 22.21928754 -0.10699041 20.4351686 -0.09765625 18.65234375 C-0.09443359 17.57275391 -0.09121094 16.49316406 -0.08789062 15.38085938 C-0.07951172 14.24455078 -0.07113281 13.10824219 -0.0625 11.9375 C-0.05798828 10.79732422 -0.05347656 9.65714844 -0.04882812 8.48242188 C-0.03699747 5.65489649 -0.0205141 2.8274736 0 0 Z " fill="#C39C65" transform="translate(512,65)"/>
<path d="M0 0 C1.00736628 2.93502595 2.00460504 5.87339461 3 8.8125 C3.28617187 9.64587891 3.57234375 10.47925781 3.8671875 11.33789062 C4.13789063 12.14033203 4.40859375 12.94277344 4.6875 13.76953125 C5.06455078 14.87711792 5.06455078 14.87711792 5.44921875 16.00708008 C6 18 6 18 6 21 C-3.40166166 25.10869533 -13.20473783 28.0015656 -23 31 C-23.79728516 31.24508301 -24.59457031 31.49016602 -25.41601562 31.74267578 C-36.81598075 35.23794811 -48.26937889 38.51292479 -59.77587891 41.64038086 C-61.2944751 42.05815796 -61.2944751 42.05815796 -62.84375 42.484375 C-63.74287109 42.72897461 -64.64199219 42.97357422 -65.56835938 43.22558594 C-67.86904179 43.95829323 -69.8584643 44.89893143 -72 46 C-86.53122351 49.593982 -102.35286538 49.28120471 -115.9453125 42.5390625 C-119.80514544 40.09408794 -122.17995095 38.26516545 -124 34 C-77.17326731 17.36273733 -77.17326731 17.36273733 -56.91015625 12.46289062 C-54.05857546 11.77186338 -51.21810476 11.03749171 -48.375 10.3125 C-45.05138096 9.48621138 -41.72413085 8.71517898 -38.375 8 C-35.33482386 7.34401934 -32.40725739 6.52030133 -29.4453125 5.57421875 C-23.86296397 3.88213043 -18.24191975 2.80688907 -12.5 1.8125 C-11.51257813 1.63525391 -10.52515625 1.45800781 -9.5078125 1.27539062 C-2.31835183 0 -2.31835183 0 0 0 Z " fill="#C39C65" transform="translate(288,103)"/>
<path d="M0 0 C5.93212658 0.48623988 11.28332166 1.53888746 16.99609375 3.18359375 C20.2288365 4.06219354 23.46926072 4.76063947 26.75 5.4375 C32.68246234 6.68140339 38.50613064 8.17030933 44.3515625 9.76953125 C48.10430989 10.78001795 51.87324468 11.71376484 55.6484375 12.63671875 C57.45900635 13.08096191 57.45900635 13.08096191 59.30615234 13.53417969 C61.69849865 14.11922141 64.09199151 14.69960243 66.48681641 15.27441406 C74.4725112 17.23383033 82.22251152 19.63882566 89.99591064 22.31417847 C93.55075604 23.53068586 97.11802017 24.70992299 100.68359375 25.89453125 C102.13872575 26.37939562 103.59380395 26.86442152 105.04882812 27.34960938 C105.7688501 27.5896167 106.48887207 27.82962402 107.23071289 28.0769043 C116.11535645 31.03845215 116.11535645 31.03845215 125 34 C123.32685863 39.0194241 118.53171782 40.66021945 114 43 C111.04744906 44.23800805 108.09058453 45.17255627 105 46 C104.29359375 46.20496094 103.5871875 46.40992188 102.859375 46.62109375 C90.0506665 49.96149435 77.02632916 47.7156119 64.6484375 43.73046875 C63.2268087 43.27941536 61.80492546 42.82916324 60.3828125 42.37963867 C59.65755371 42.15021576 58.93229492 41.92079285 58.18505859 41.68441772 C54.70246155 40.59357689 51.20728546 39.54576417 47.7109375 38.5 C46.32291284 38.08334608 44.93489202 37.66667938 43.546875 37.25 C41.45720701 36.62329545 39.3672359 35.99768775 37.27636719 35.375 C28.75631194 32.83525368 20.35697396 30.12139628 12.00048828 27.08007812 C8.60765141 25.85876728 5.20657623 24.77481406 1.75 23.75 C-3.80722892 22.09638554 -3.80722892 22.09638554 -6 21 C-4.11380178 13.96354423 -2.13072305 6.96640656 0 0 Z " fill="#C39C65" transform="translate(510,103)"/>
<path d="M0 0 C2.20803085 1.17510733 4.01941331 2.39704369 6 3.9375 C7.72026437 5.44379708 7.72026437 5.44379708 10.1640625 5.0390625 C12.75 5.1875 12.75 5.1875 14.4453125 6.7265625 C22.58640707 18.60455294 24.74264241 28.9693572 23.75 43.1875 C22.8983 46.83319146 21.42117698 49.84514605 19.75 53.1875 C18.0484375 53.4659375 18.0484375 53.4659375 16.3125 53.75 C10.89997357 54.91472088 7.70091527 58.51121474 3.8515625 62.2890625 C1.75 64.1875 1.75 64.1875 -0.25 64.1875 C-0.5 56.5625 -0.5 56.5625 1.75 53.1875 C3.73786788 52.73126803 5.72583389 52.27544603 7.71484375 51.82421875 C11.15366321 50.74835009 12.66240042 49.07329942 14.75 46.1875 C16.32895014 41.6325182 17.06123057 37.01157383 16.75 32.1875 C11.66968694 32.67133934 8.74954036 34.02786311 4.75 37.1875 C2.71852063 39.80249683 1.0450374 42.58178649 -0.625 45.4375 C-1.29982422 46.55511719 -1.29982422 46.55511719 -1.98828125 47.6953125 C-3.08720222 49.51905368 -4.17024641 51.35234568 -5.25 53.1875 C-7.17431641 52.84228516 -7.17431641 52.84228516 -9.25 52.1875 C-11.640055 47.29945202 -11.67064529 42.15126679 -11.875 36.8125 C-11.93300781 35.56533203 -11.93300781 35.56533203 -11.9921875 34.29296875 C-12.08574246 32.25814844 -12.16892713 30.22285584 -12.25 28.1875 C-12.91 28.1875 -13.57 28.1875 -14.25 28.1875 C-14.26458252 28.76717529 -14.27916504 29.34685059 -14.29418945 29.9440918 C-14.36898528 32.58837553 -14.46553898 35.23144002 -14.5625 37.875 C-14.58505859 38.78701172 -14.60761719 39.69902344 -14.63085938 40.63867188 C-14.82946473 45.60380574 -15.06277326 49.12869919 -18.25 53.1875 C-22.72638114 51.70545489 -24.27347202 48.22699678 -26.5 44.375 C-29.71940005 39.09244914 -32.91838588 33.93648977 -39.25 32.1875 C-41.42893073 32.52422949 -41.42893073 32.52422949 -43.25 33.1875 C-42.31426829 43.06012382 -42.31426829 43.06012382 -37.25 51.1875 C-34.9195304 51.96016906 -32.70427425 52.42643848 -30.2734375 52.765625 C-28.25 53.1875 -28.25 53.1875 -26.25 55.1875 C-26.0546875 57.3515625 -26.0546875 57.3515625 -26.125 59.8125 C-26.14304687 60.62976563 -26.16109375 61.44703125 -26.1796875 62.2890625 C-26.20289063 62.91554688 -26.22609375 63.54203125 -26.25 64.1875 C-29.13677665 62.87874442 -31.17065219 61.44968195 -33.4375 59.25 C-36.8096134 56.21291298 -39.80401863 55.20409108 -44.234375 54.4140625 C-47.00851373 52.72592382 -47.71200526 50.55545755 -48.69628906 47.54589844 C-49.67730698 43.36748878 -49.78005131 39.27782284 -49.75 35 C-49.74572998 34.07888428 -49.74145996 33.15776855 -49.73706055 32.20874023 C-49.50815868 22.97582559 -47.3048087 15.16758386 -41.9375 7.5 C-39.11552692 5.07179061 -37.08667044 4.39363857 -33.45703125 3.75390625 C-30.87549379 3.09138779 -29.02855629 1.93729278 -26.75 0.5625 C-18.86739573 -3.54327688 -8.15080311 -3.47587967 0 0 Z " fill="#F8F8FA" transform="translate(412.25,44.8125)"/>
<path d="M0 0 C2.32242669 1.88600761 4.06322416 4.13189082 5.875 6.5 C6.37257813 7.12003906 6.87015625 7.74007812 7.3828125 8.37890625 C8.60480701 9.90639939 9.80464617 11.45157012 11 13 C9.65951331 15.68097338 8.46689611 15.77078057 5.6875 16.8125 C1.84120341 18.28554976 -1.96185107 19.82054516 -5.75 21.4375 C-23.85772516 29 -23.85772516 29 -29 29 C-29 29.66 -29 30.32 -29 31 C-33.1838064 32.48976005 -37.37262632 33.96489906 -41.5625 35.4375 C-42.74392578 35.85837891 -43.92535156 36.27925781 -45.14257812 36.71289062 C-46.29306641 37.11572266 -47.44355469 37.51855469 -48.62890625 37.93359375 C-49.68150635 38.30540771 -50.73410645 38.67722168 -51.81860352 39.06030273 C-62.72412027 42.28149328 -79.71480667 43.81542734 -90.1875 38.75 C-93.20235137 36.93773313 -95.00746193 34.88702111 -97 32 C-91.19099338 28.94474392 -85.40069296 26.59637425 -79.1875 24.5 C-77.40739317 23.88848323 -75.6274437 23.27650819 -73.84765625 22.6640625 C-73.00477051 22.37563477 -72.16188477 22.08720703 -71.29345703 21.79003906 C-68.55942933 20.84823433 -65.83996324 19.87035165 -63.125 18.875 C-62.2896875 18.57078125 -61.454375 18.2665625 -60.59375 17.953125 C-58.71584875 17.26305285 -56.84124872 16.56397503 -54.96875 15.859375 C-46.86847972 12.86908831 -38.70179013 10.4088951 -30.37158203 8.14306641 C-25.36256614 6.76149718 -20.74120812 5.12076099 -16 3 C-14.3246803 2.4021987 -12.63780095 1.83503151 -10.9375 1.3125 C-9.74447266 0.93544922 -9.74447266 0.93544922 -8.52734375 0.55078125 C-5.3842743 -0.13418443 -3.20886474 -0.51227087 0 0 Z " fill="#C29B65" transform="translate(301,136)"/>
<path d="M0 0 C4.00130216 0.5894332 7.69100071 1.44414103 11.51953125 2.7421875 C12.54240234 3.08636719 13.56527344 3.43054688 14.61914062 3.78515625 C16.19985352 4.32462891 16.19985352 4.32462891 17.8125 4.875 C18.85470703 5.22691406 19.89691406 5.57882813 20.97070312 5.94140625 C23.02822744 6.63628891 25.08520408 7.33279557 27.14160156 8.03100586 C32.64022279 9.89503282 38.1518079 11.7197413 43.6640625 13.54296875 C54.06801678 16.98861095 64.43638952 20.52426636 74.78198242 24.14135742 C82.49730211 26.8356487 90.23617938 29.44885515 98 32 C96.51477033 35.92646925 94.54675453 37.31131361 90.875 39.25 C72.20234621 47.25256591 51.9294153 41.06114453 34 34 C26.94934863 31.15653661 19.98764065 28.13472029 13.0625 25 C5.79673133 21.73712451 -1.52181008 18.74816873 -9 16 C-9 11.69252175 -8.92133979 11.44267671 -6.1875 8.5625 C-3.72707997 5.86359954 -1.75810971 3.22320113 0 0 Z " fill="#C29C65" transform="translate(497,135)"/>
<path d="M0 0 C5.8674897 1.57233384 10.24196349 2.95349384 14 8 C20.22526562 21.18912207 20.19333698 31.46619177 15.8125 45.1875 C15.52117187 46.10120361 15.22984375 47.01490723 14.9296875 47.95629883 C12.80939253 54.27339008 10.09242645 60.10591069 7 66 C1.47066502 77.08863926 -2.42592262 88.54252082 -3 101 C-6.37097383 102.49821059 -8.20442119 103 -12 103 C-15.30319614 91.34050411 -16.35061562 80.22548656 -13.5324707 68.37792969 C-12.42635761 63.43820408 -11.79059442 58.40828503 -11.05664062 53.40234375 C-10.10329861 47.10329861 -10.10329861 47.10329861 -9 46 C-8.66755699 44.47495988 -8.3884361 42.93821745 -8.1328125 41.3984375 C-7.97087402 40.4401001 -7.80893555 39.4817627 -7.64208984 38.49438477 C-7.4714502 37.46498779 -7.30081055 36.43559082 -7.125 35.375 C-5.10996913 23.50758661 -3.08939168 11.64463017 0 0 Z " fill="#C09B66" transform="translate(424,155)"/>
<path d="M0 0 C1.34026557 4.21226323 2.25419174 8.31777237 2.9375 12.6875 C3.7569207 17.84088801 4.90899063 22.82502426 6.2109375 27.875 C8.57927069 37.25453737 10.34405242 46.63942774 11.5703125 56.234375 C11.84860485 58.95103848 11.84860485 58.95103848 13 61 C15.34934941 74.75312577 17.34290158 89.76995799 12 103 C6.25 103.125 6.25 103.125 4 102 C3.33523259 99.14452183 2.77059125 96.31966224 2.25 93.4375 C0.96160187 86.83820494 -0.61259609 80.54070367 -3 74.25 C-3.35529785 73.3053186 -3.35529785 73.3053186 -3.71777344 72.34155273 C-4.91734702 69.29826547 -6.26489503 66.56115195 -7.95703125 63.7578125 C-10.73981243 59.03728316 -12.12144703 53.84517656 -13.6875 48.625 C-14.29297124 46.63722651 -14.90090747 44.65020158 -15.51171875 42.6640625 C-15.77428467 41.79217285 -16.03685059 40.9202832 -16.30737305 40.02197266 C-16.824498 38.02890212 -16.824498 38.02890212 -18 37 C-19.4842971 14.2732215 -19.4842971 14.2732215 -12.31640625 6.07421875 C-8.65613681 2.77604048 -5.05090895 0 0 0 Z " fill="#C29C67" transform="translate(374,155)"/>
<path d="M0 0 C2.90972991 1.30436168 5.07416204 2.43221606 7 5 C7.51171875 8.35546875 7.51171875 8.35546875 7.6875 12.1875 C7.78611328 14.09595703 7.78611328 14.09595703 7.88671875 16.04296875 C7.92410156 17.01878906 7.96148437 17.99460937 8 19 C8.66 17.35 9.32 15.7 10 14 C10.33 14 10.66 14 11 14 C11.21550481 22.25884095 10.62200482 30.37713252 9.83197021 38.59042358 C8.30421357 54.53139952 7.171606 70.47701401 6.22070312 86.46240234 C6.0701875 88.87498133 5.90688498 91.28678835 5.73242188 93.69775391 C5.09876987 102.47201077 4.77527098 111.20289259 4.75 120 C4.74400284 120.9931572 4.74400284 120.9931572 4.73788452 122.00637817 C4.69532698 132.05281603 5.36729879 141.81994708 7.37207031 151.69335938 C8.23107462 156.51910331 8.30718931 159.21420223 5.63671875 163.44140625 C5.17354248 164.05830322 4.71036621 164.6752002 4.2331543 165.31079102 C2.79947049 167.09499985 2.79947049 167.09499985 2 170 C1.34 170 0.68 170 0 170 C-4.51628945 161.22549477 -6.05067869 155.82758198 -3.984375 146.26953125 C-2.60540522 138.76201424 -2.73932173 131.28621038 -2.8125 123.6875 C-2.82140257 122.15177521 -2.83010797 120.61604926 -2.83862305 119.08032227 C-2.96939255 100.41066034 -4.10723686 81.86765338 -5.4375 63.25 C-5.49894196 62.3821286 -5.56038391 61.5142572 -5.62368774 60.62008667 C-6.33070963 50.71838285 -7.15052056 40.85054996 -8.35728455 30.9956665 C-9.07641786 24.97935891 -9.21352275 19.04981129 -9 13 C-8.01 13.495 -8.01 13.495 -7 14 C-6.67 14.99 -6.34 15.98 -6 17 C-5.98582031 16.19175781 -5.97164063 15.38351563 -5.95703125 14.55078125 C-5.51896425 4.73571254 -5.51896425 4.73571254 -2.4375 1.75 C-1.633125 1.1725 -0.82875 0.595 0 0 Z " fill="#D1122E" transform="translate(398,104)"/>
<path d="M0 0 C0.66128906 0.44859375 1.32257813 0.8971875 2.00390625 1.359375 C3.28007812 2.21402344 3.28007812 2.21402344 4.58203125 3.0859375 C5.46375 3.71242187 6.34546875 4.33890625 7.25390625 4.984375 C8.1459375 5.61601562 9.03796875 6.24765625 9.95703125 6.8984375 C10.6325 7.38054687 11.30796875 7.86265625 12.00390625 8.359375 C10.68604603 12.31295565 8.26755255 13.40450364 4.87890625 15.484375 C4.25580566 15.87399414 3.63270508 16.26361328 2.99072266 16.66503906 C1.66965785 17.48769465 0.3458448 18.30595087 -0.98046875 19.12011719 C-2.94143953 20.32577219 -4.89094826 21.54838895 -6.83984375 22.7734375 C-24.86031816 33.98313362 -42.40420256 39.0686747 -63.69921875 35.7890625 C-68.78716088 34.52373658 -68.78716088 34.52373658 -70.99609375 33.359375 C-71.49109375 31.874375 -71.49109375 31.874375 -71.99609375 30.359375 C-71.02027344 29.94300781 -70.04445312 29.52664062 -69.0390625 29.09765625 C-54.70742105 22.96548607 -54.70742105 22.96548607 -40.68359375 16.171875 C-35.58820968 13.56772442 -30.38087694 11.5080931 -25.0234375 9.5078125 C-19.9392714 7.57910949 -15.00226451 5.36383259 -10.140625 2.9296875 C-9.16480469 2.45273438 -8.18898438 1.97578125 -7.18359375 1.484375 C-6.29027344 1.03320312 -5.39695312 0.58203125 -4.4765625 0.1171875 C-1.99609375 -0.640625 -1.99609375 -0.640625 0 0 Z " fill="#C09A64" transform="translate(321.99609375,158.640625)"/>
<path d="M0 0 C3.25317857 1.6333654 6.53763601 2.87609427 9.96142578 4.11083984 C13.76536887 5.49130306 17.0198282 7.1104824 20.46142578 9.23583984 C22.1484045 9.98200351 23.83681601 10.72558577 25.53955078 11.43505859 C34.30326736 15.08660717 42.86797413 19.20518268 51.46142578 23.23583984 C51.46142578 24.22583984 51.46142578 25.21583984 51.46142578 26.23583984 C37.68455498 31.65624803 19.19699132 31.27750678 5.640625 25.45361328 C-4.33515665 20.97529818 -13.48434089 15.3280935 -22.53857422 9.23583984 C-23.48603516 8.60806641 -24.43349609 7.98029297 -25.40966797 7.33349609 C-27.45802911 5.97537833 -29.50115489 4.61028939 -31.53857422 3.23583984 C-29.91006497 -1.6496879 -26.74374802 -3.88536593 -22.51904297 -6.66650391 C-15.11909669 -9.67603306 -6.44005348 -3.34586961 0 0 Z " fill="#C09A64" transform="translate(495.53857421875,165.76416015625)"/>
<path d="M0 0 C0.33 0 0.66 0 1 0 C1.03738281 0.93199219 1.07476562 1.86398438 1.11328125 2.82421875 C1.86020547 17.30869036 5.14375521 28.6919052 11.07910156 41.89379883 C14.18193075 48.87971744 16.85260069 55.90885837 19.1875 63.1875 C19.49075195 64.11361084 19.79400391 65.03972168 20.10644531 65.99389648 C20.37424805 66.85571533 20.64205078 67.71753418 20.91796875 68.60546875 C21.15281982 69.35981201 21.3876709 70.11415527 21.62963867 70.89135742 C22.04337093 73.24693128 21.74119641 74.7470817 21 77 C19.47395763 76.1341168 17.95446322 75.25669248 16.4375 74.375 C15.59058594 73.88773437 14.74367188 73.40046875 13.87109375 72.8984375 C1.35945262 64.62543398 -9.0750027 51.41657848 -13.40234375 37.01953125 C-14.23796652 32.79772473 -14.08003645 30.17614095 -13 26 C-12.773125 24.7625 -12.54625 23.525 -12.3125 22.25 C-10.14312657 14.05818689 -5.90707676 6.07585038 0 0 Z " fill="#BF9B67" transform="translate(345,175)"/>
<path d="M0 0 C7.86961031 7.63312786 15.00628219 18.79212175 15.25 30.125 C14.99189155 42.49435101 6.93149013 54.38653335 -1.203125 63.34375 C-6.72820459 68.43643206 -12.8476963 73.51965982 -20 76 C-19.94436726 64.42839081 -14.85471396 53.7548115 -9.9375 43.5 C-4.54708125 32.15175 -1.12119772 20.22943028 -0.4375 7.6875 C-0.39431641 6.94693359 -0.35113281 6.20636719 -0.30664062 5.44335938 C-0.20129568 3.62908536 -0.10021684 1.8145645 0 0 Z " fill="#BF9B67" transform="translate(452,175)"/>
<path d="M0 0 C6.8438514 1.83397325 11.43470587 3.63731229 15.1875 10.01953125 C18.85680667 17.70214208 19.71313258 27.86060226 17 36 C12.30932454 33.84026454 8.21448783 30.79226471 3.97265625 27.875 C1.3444586 26.21726692 -1.08112171 25.03208956 -4 24 C-3.4533512 15.81911794 -1.82876132 7.98214061 0 0 Z " fill="#F6F6F8" transform="translate(424,155)"/>
<path d="M0 0 C2.45947369 7.72977447 4.20868444 15.8613069 4 24 C3.21496094 24.36351562 2.42992187 24.72703125 1.62109375 25.1015625 C-4.75393212 28.15218838 -9.79402361 31.24671721 -15 36 C-15.66 36 -16.32 36 -17 36 C-17.1174875 32.66696997 -17.18767324 29.33448163 -17.25 26 C-17.28351563 25.06542969 -17.31703125 24.13085938 -17.3515625 23.16796875 C-17.44806546 16.26800733 -16.44444577 10.62212621 -11.55175781 5.47705078 C-7.91931303 2.31209181 -4.85236031 0 0 0 Z " fill="#F8F8F9" transform="translate(374,155)"/>
<path d="M0 0 C7.8275034 7.73710371 15.00462109 18.71488055 15.25 30.125 C15.14768053 38.0035991 12.06896969 44.40546291 8 51 C7.34 51 6.68 51 6 51 C5.7525 49.72125 5.505 48.4425 5.25 47.125 C3.82513633 40.69275831 1.66452153 34.4967823 -2 29 C-2.04345703 25.99731445 -2.04345703 25.99731445 -1.7578125 22.36328125 C-1.66113281 21.06455078 -1.56445312 19.76582031 -1.46484375 18.42773438 C-1.35179975 17.05597001 -1.23851541 15.68422543 -1.125 14.3125 C-1.01852343 12.92911366 -0.91304282 11.54565027 -0.80859375 10.16210938 C-0.54886677 6.77385285 -0.27893246 3.38672074 0 0 Z " fill="#F4F5F6" transform="translate(452,175)"/>
<path d="M0 0 C0.33 0 0.66 0 1 0 C1.06058594 1.03640625 1.12117188 2.0728125 1.18359375 3.140625 C1.26803371 4.51042873 1.35267997 5.88021975 1.4375 7.25 C1.47681641 7.93191406 1.51613281 8.61382812 1.55664062 9.31640625 C1.76801838 12.66593068 2.14704388 15.76154059 3 19 C3.13884274 20.64208237 3.21953479 22.28983994 3.25 23.9375 C3.27578125 24.77152344 3.3015625 25.60554688 3.328125 26.46484375 C2.92326899 29.59283843 1.69139342 31.35668709 0 34 C-0.75592798 35.81422714 -1.46461901 37.64885328 -2.125 39.5 C-2.45757812 40.4178125 -2.79015625 41.335625 -3.1328125 42.28125 C-3.95067187 44.84534964 -4.52995766 47.35241457 -5 50 C-6.82421875 49.4140625 -6.82421875 49.4140625 -9 48 C-12.63631484 40.87693597 -15.03537342 33.87011056 -13 26 C-12.773125 24.7625 -12.54625 23.525 -12.3125 22.25 C-10.14312657 14.05818689 -5.90707676 6.07585038 0 0 Z " fill="#F7F7F8" transform="translate(345,175)"/>
<path d="M0 0 C0.66 0 1.32 0 2 0 C0.29334058 8.57820919 -2.3744933 15.58173454 -7 23 C-7.5259375 23.8559375 -8.051875 24.711875 -8.59375 25.59375 C-12.88804061 32.15672244 -18.91140153 40.64634776 -26.8046875 42.74609375 C-27.52914063 42.82988281 -28.25359375 42.91367187 -29 43 C-30.01131225 41.59138651 -31.00866767 40.17274547 -32 38.75 C-32.556875 37.96109375 -33.11375 37.1721875 -33.6875 36.359375 C-35 34 -35 34 -35 30 C-34.11699219 29.52691406 -33.23398437 29.05382812 -32.32421875 28.56640625 C-19.79602954 21.72248158 -6.60169855 13.20339711 0 0 Z " fill="#BF9A67" transform="translate(466,233)"/>
<path d="M0 0 C2.99456217 2.86756065 5.48978335 5.89284064 8 9.1875 C15.61077662 18.54501224 25.31383802 24.63588326 36 30 C35.30925864 34.98868763 34.22396802 38.039125 31 42 C29.16015625 42.875 29.16015625 42.875 27 43 C24.640625 41.63671875 24.640625 41.63671875 22.25 39.6875 C21.45078125 39.05199219 20.6515625 38.41648437 19.828125 37.76171875 C19.22484375 37.18035156 18.6215625 36.59898437 18 36 C18 35.34 18 34.68 18 34 C16.515 33.505 16.515 33.505 15 33 C12.91272924 30.61929959 11.27361164 27.90982703 9.5625 25.25 C9.06967529 24.4873584 8.57685059 23.7247168 8.0690918 22.93896484 C3.69654518 15.93733225 0 8.44031231 0 0 Z " fill="#C19B67" transform="translate(331,233)"/>
<path d="M0 0 C0.3403125 1.485 0.3403125 1.485 0.6875 3 C1.95211844 7.51385707 4.38305754 11.15449295 7 15 C-0.57020457 19.98945301 -8.92585134 22.26966266 -18 22 C-18.57342272 15.182641 -18.39220451 9.66502721 -14.6953125 3.75 C-10.75629701 -0.31608051 -5.32343719 0 0 0 Z " fill="#BE9864" transform="translate(422,267)"/>
<path d="M0 0 C1.94014063 0.22860572 3.87717414 0.48369181 5.8125 0.75 C7.43091797 0.95882813 7.43091797 0.95882813 9.08203125 1.171875 C12.47563041 2.1349848 13.28540426 2.98817721 15 6 C17.39390819 11.29179705 17.20229684 16.31321106 17 22 C8.26005173 22.81301844 -0.71517306 19.72565911 -8 15 C-7.50628906 14.16855469 -7.01257813 13.33710938 -6.50390625 12.48046875 C-5.86324219 11.39378906 -5.22257812 10.30710937 -4.5625 9.1875 C-3.92441406 8.10855469 -3.28632813 7.02960938 -2.62890625 5.91796875 C-0.919233 3.06819358 -0.919233 3.06819358 0 0 Z " fill="#BE9964" transform="translate(377,267)"/>
<path d="M0 0 C1.32 0.33 2.64 0.66 4 1 C3.19267219 9.18291526 1.19005965 17.02637143 -0.74023438 25.00585938 C-2.54979968 32.63477116 -3.87859388 40.24281436 -5 48 C-5.47618923 50.96266607 -5.98274573 53.9192613 -6.5 56.875 C-6.61730469 57.56851563 -6.73460937 58.26203125 -6.85546875 58.9765625 C-7.63273986 63.42288757 -8.69141764 67.67942202 -10 72 C-10.33 72 -10.66 72 -11 72 C-11.25566056 63.35918965 -10.45875254 54.83861599 -9.625 46.25 C-9.34125207 43.31000952 -9.05868202 40.36990955 -8.77734375 37.4296875 C-8.67287682 36.34519821 -8.67287682 36.34519821 -8.56629944 35.23880005 C-8.15501555 30.89381412 -7.82453891 26.5526969 -7.56640625 22.1953125 C-7.50050293 21.19854492 -7.43459961 20.20177734 -7.36669922 19.17480469 C-7.25131471 17.37203956 -7.15626809 15.56779856 -7.08642578 13.76269531 C-6.65423422 7.53663136 -4.50768557 4.26259911 0 0 Z " fill="#C9122F" transform="translate(421,118)"/>
<path d="M0 0 C4.14688997 0.77431089 6.10013151 2.29132621 8.72460938 5.53808594 C11.51262335 10.91984952 11.09133384 17.18426163 11.25 23.125 C11.33875725 25.28513792 11.43724027 27.44470562 11.53579712 29.60441589 C11.60034115 31.03966274 11.66153293 32.47506437 11.71932983 33.91059875 C12.00014367 40.7622479 12.64350893 47.55205107 13.39160156 54.36572266 C13.94452795 59.60733047 14.07329797 64.72778164 14 70 C13.34 69.67 12.68 69.34 12 69 C11.37744141 66.41821289 11.37744141 66.41821289 10.8515625 62.97265625 C10.65288574 61.71372559 10.45420898 60.45479492 10.24951172 59.15771484 C10.14765564 58.48875183 10.04579956 57.81978882 9.94085693 57.1305542 C9.41404438 53.68128083 8.85622744 50.23709318 8.296875 46.79296875 C8.18693207 46.1140155 8.07698914 45.43506226 7.9637146 44.73553467 C6.28579318 34.49552846 3.92732103 24.45868759 1.25 14.4375 C-0.02965629 9.47796725 -0.25540625 5.10812495 0 0 Z " fill="#D4122E" transform="translate(374,118)"/>
<path d="M0 0 C-0.19335938 0.52207031 -0.38671875 1.04414063 -0.5859375 1.58203125 C-2.7287785 7.63926991 -3.99288223 13.66108225 -5 20 C-9.26010789 20.81083624 -13.2901519 21.13515187 -17.625 21.125 C-18.73101562 21.12757813 -19.83703125 21.13015625 -20.9765625 21.1328125 C-23.5118155 21.0214448 -25.58917487 20.74088772 -28 20 C-26.49985801 15.44712152 -22.78128294 13.55732454 -18.9375 11.125 C-17.57804175 10.24492025 -16.21866653 9.36471223 -14.859375 8.484375 C-14.19873047 8.06091797 -13.53808594 7.63746094 -12.85742188 7.20117188 C-9.7403829 5.18542112 -6.69247471 3.06795399 -3.63671875 0.9609375 C-2 0 -2 0 0 0 Z " fill="#BD9864" transform="translate(324,188)"/>
<path d="M0 0 C3.3819651 1.25678139 6.26838589 2.68810536 9.25 4.71484375 C10.0234375 5.23626953 10.796875 5.75769531 11.59375 6.29492188 C12.3878125 6.83697266 13.181875 7.37902344 14 7.9375 C15.58263471 9.01014609 17.16594947 10.0817896 18.75 11.15234375 C19.48605469 11.65233887 20.22210938 12.15233398 20.98046875 12.66748047 C22.63476105 13.7590094 24.3426329 14.76893134 26.0625 15.75390625 C26.701875 16.16511719 27.34125 16.57632813 28 17 C28 17.66 28 18.32 28 19 C20.38667619 20.24299164 12.69840424 20.3300703 5 20 C3.25831747 18.25831747 3.41822834 15.74456235 3.0625 13.375 C2.33223296 8.7737686 1.41123209 4.43530086 0 0 Z " fill="#BD9864" transform="translate(475,189)"/>
<path d="M0 0 C0.33 0 0.66 0 1 0 C1.0501123 0.85940186 1.10022461 1.71880371 1.15185547 2.60424805 C1.38900191 6.63224216 1.63029286 10.65995884 1.875 14.6875 C1.91913025 15.41429962 1.9632605 16.14109924 2.00872803 16.8899231 C2.61213951 26.73598174 3.31840612 36.55560632 4.39013672 46.36401367 C4.94605102 51.60605065 5.07330662 56.72715928 5 62 C4.34 61.67 3.68 61.34 3 61 C2.31396484 58.21191406 2.31396484 58.21191406 1.7109375 54.515625 C1.60278717 53.86301697 1.49463684 53.21040894 1.38320923 52.5380249 C1.15556365 51.15331349 0.93224679 49.76788466 0.71289062 48.38183594 C0.37833697 46.27105378 0.03022791 44.16286714 -0.3203125 42.0546875 C-2.15004444 30.8357834 -2.15004444 30.8357834 -2 26 C-1.34 25.67 -0.68 25.34 0 25 C0 16.75 0 8.5 0 0 Z " fill="#B11231" transform="translate(383,126)"/>
<path d="M0 0 C1.35824882 1.30794331 2.68456137 2.64900897 4 4 C4.86625 4.86625 5.7325 5.7325 6.625 6.625 C9.37671876 9.94546306 9.81564823 13.21280371 10.4609375 17.39453125 C11.19628704 20.94872071 12.66328266 23.96267947 14.29296875 27.1875 C14.52628906 27.785625 14.75960938 28.38375 15 29 C14.67 29.66 14.34 30.32 14 31 C12.8936781 29.43902526 11.79004215 27.87614673 10.6875 26.3125 C9.76517578 25.00732422 9.76517578 25.00732422 8.82421875 23.67578125 C5.63055047 18.99127853 3.44993051 14.83310172 1.8125 9.375 C1.46832031 8.24835938 1.12414062 7.12171875 0.76953125 5.9609375 C0 3 0 3 0 0 Z " fill="#DDDFE4" transform="translate(331,233)"/>
<path d="M0 0 C0.66 0 1.32 0 2 0 C-0.30048852 11.56298178 -4.92967463 20.64221643 -12 30 C-13 27 -13 27 -12.2578125 24.984375 C-11.88398438 24.24703125 -11.51015625 23.5096875 -11.125 22.75 C-9.67226975 19.71736446 -8.99205075 17.9109684 -8.6875 14.5 C-7.78911936 9.92642581 -5.54968864 7.43723176 -2.59375 3.91796875 C-0.94769051 2.0851081 -0.94769051 2.0851081 0 0 Z " fill="#F0F2F4" transform="translate(466,233)"/>
<path d="M0 0 C0.66 0 1.32 0 2 0 C1.01 3.96 0.02 7.92 -1 12 C-1.66 11.01 -2.32 10.02 -3 9 C-5.0245738 10.93254772 -6.42105792 12.63158688 -8 15 C-7.7000013 10.20002081 -5.25737339 7.39328433 -2.375 3.76953125 C-0.93836349 2.03978229 -0.93836349 2.03978229 0 0 Z " fill="#D3D5DB" transform="translate(466,233)"/>
<path d="M0 0 C0.33 0 0.66 0 1 0 C1.144375 0.7425 1.28875 1.485 1.4375 2.25 C1.92645937 4.8747605 1.92645937 4.8747605 2.5859375 6.87890625 C3.08148634 9.4174253 2.76477701 11.17489144 2.1875 13.6875 C2.01605469 14.47511719 1.84460938 15.26273438 1.66796875 16.07421875 C1 18 1 18 -1 19 C-1.12086218 12.56744599 -0.82351864 6.38226945 0 0 Z " fill="#6C1038" transform="translate(411,171)"/>
<path d="M0 0 C0.33 0 0.66 0 1 0 C1.33 6.93 1.66 13.86 2 21 C1.34 20.67 0.68 20.34 0 20 C-1.53783781 13.38061117 -0.9209177 6.6589434 0 0 Z " fill="#801136" transform="translate(386,167)"/>
<path d="M0 0 C4.34464536 0.60825035 8.67551867 1.26167392 13 2 C12.34 3.32 11.68 4.64 11 6 C7.2089881 4.55049545 3.6125362 2.84827434 0 1 C0 0.67 0 0.34 0 0 Z " fill="#F1ECE6" transform="translate(199,242)"/>
<path d="M0 0 C0.33 0 0.66 0 1 0 C1 6.27 1 12.54 1 19 C-1.37555161 16.62444839 -1.36834858 15.69703006 -1.6875 12.4375 C-1.77386719 11.63183594 -1.86023438 10.82617188 -1.94921875 9.99609375 C-1.96597656 9.33738281 -1.98273438 8.67867187 -2 8 C-1.67 7.67 -1.34 7.34 -1 7 C-0.63239269 4.67182036 -0.29758419 2.3381615 0 0 Z " fill="#BA1231" transform="translate(385,158)"/>
<path d="M0 0 C4.29 0.33 8.58 0.66 13 1 C12.67 1.99 12.34 2.98 12 4 C8.35839192 5.21386936 7.66834531 4.6674695 4.3125 3.0625 C3.10013672 2.49208984 3.10013672 2.49208984 1.86328125 1.91015625 C1.24839844 1.60980469 0.63351563 1.30945313 0 1 C0 0.67 0 0.34 0 0 Z " fill="#E3D6C4" transform="translate(150,220)"/>
<path d="M0 0 C-2.1875 2.0625 -2.1875 2.0625 -5 4 C-7.8125 3.75 -7.8125 3.75 -10 3 C-10 2.34 -10 1.68 -10 1 C-6.61981469 -0.04005702 -3.5219721 -0.08004482 0 0 Z " fill="#E9E4DD" transform="translate(646,221)"/>
<path d="M0 0 C0 0.66 0 1.32 0 2 C-3.82810821 3.27603607 -7.23475107 2.86283987 -11.1875 2.5625 C-11.93708984 2.51029297 -12.68667969 2.45808594 -13.45898438 2.40429688 C-15.30637082 2.27486216 -17.15324371 2.13813482 -19 2 C-19 1.67 -19 1.34 -19 1 C-16.39590255 0.83218705 -13.7917318 0.66570349 -11.1875 0.5 C-10.08051758 0.42845703 -10.08051758 0.42845703 -8.95117188 0.35546875 C-5.96175412 0.16609387 -2.99625426 0 0 0 Z " fill="#8D7D6E" transform="translate(186,213)"/>
<path d="M0 0 C0.66 0.33 1.32 0.66 2 1 C-2 3.66666667 -6 6.33333333 -10 9 C-8.50521886 5.19510255 -6.30557786 3.33809165 -3 1 C-2.01 0.67 -1.02 0.34 0 0 Z " fill="#D8C19F" transform="translate(448,1)"/>
<path d="M0 0 C0.33 0 0.66 0 1 0 C1 3.3 1 6.6 1 10 C0.67 10 0.34 10 0 10 C-0.33 8.35 -0.66 6.7 -1 5 C-2.32 5.99 -3.64 6.98 -5 8 C-3.6299034 5.0490227 -2.06764583 2.51713405 0 0 Z " fill="#D6D9E1" transform="translate(345,175)"/>
<path d="M0 0 C0.66 0 1.32 0 2 0 C1.25 5.75 1.25 5.75 -1 8 C-1.99 8 -2.98 8 -4 8 C-4 7.34 -4 6.68 -4 6 C-3.01 6 -2.02 6 -1 6 C-1.020625 5.195625 -1.04125 4.39125 -1.0625 3.5625 C-1 1 -1 1 0 0 Z " fill="#921135" transform="translate(421,86)"/>
<path d="M0 0 C0.66 0.33 1.32 0.66 2 1 C-0.97 3.97 -3.94 6.94 -7 10 C-7 6.04435836 -5.59478606 4.89133304 -3 2 C-2.01 1.34 -1.02 0.68 0 0 Z " fill="#334068" transform="translate(421,78)"/>
<path d="M0 0 C2.64 0 5.28 0 8 0 C8 0.99 8 1.98 8 3 C5.6568787 2.74438677 3.32156597 2.40729228 1 2 C0.67 1.34 0.34 0.68 0 0 Z " fill="#9B8264" transform="translate(664,188)"/>
<path d="M0 0 C3.125 -0.1875 3.125 -0.1875 6 0 C5.38125 0.28875 4.7625 0.5775 4.125 0.875 C1.86674235 1.93720042 1.86674235 1.93720042 0 4 C-0.16677282 7.58343976 -0.16677282 7.58343976 0 11 C-0.66 11 -1.32 11 -2 11 C-2.25 3.375 -2.25 3.375 0 0 Z " fill="#CCD0DA" transform="translate(414,98)"/>
<path d="M0 0 C0.66 0 1.32 0 2 0 C1.34 2.97 0.68 5.94 0 9 C-1.32 8.01 -2.64 7.02 -4 6 C-2.7260411 3.96166576 -1.38938077 1.96147874 0 0 Z " fill="#A8AFBF" transform="translate(466,233)"/>
<path d="M0 0 C2.64 0 5.28 0 8 0 C6.8125 1.5 6.8125 1.5 5 3 C2.3125 3.1875 2.3125 3.1875 0 3 C0 2.01 0 1.02 0 0 Z " fill="#9F8664" transform="translate(126,188)"/>
<path d="M0 0 C0.33 0.66 0.66 1.32 1 2 C1.66 2 2.32 2 3 2 C1.86695008 5.39914975 0.87481525 6.05254451 -2 8 C-2.66 7.67 -3.32 7.34 -4 7 C-2.68 4.69 -1.36 2.38 0 0 Z " fill="#998368" transform="translate(441,123)"/>
<path d="M0 0 C0.33 0.99 0.66 1.98 1 3 C-0.9375 6.1875 -0.9375 6.1875 -3 9 C-3.33 8.01 -3.66 7.02 -4 6 C-2.0625 2.8125 -2.0625 2.8125 0 0 Z " fill="#E1E0E1" transform="translate(457,254)"/>
<path d="M0 0 C-0.99 0.66 -1.98 1.32 -3 2 C-4.0209375 3.051875 -4.0209375 3.051875 -5.0625 4.125 C-7 6 -7 6 -9 6 C-7.01260984 0.46369883 -5.82303895 -0.15323787 0 0 Z " fill="#91795C" transform="translate(416,268)"/>
<path d="M0 0 C0.66 0 1.32 0 2 0 C3.60725635 3.21451269 3.05748185 6.43612536 3 10 C0.64551835 7.44931155 0.01672076 6.28982642 -0.1875 2.75 C-0.125625 1.8425 -0.06375 0.935 0 0 Z " fill="#546082" transform="translate(398,73)"/>
<path d="M0 0 C0.66 0.33 1.32 0.66 2 1 C-0.46153846 4.81538462 -0.46153846 4.81538462 -3.1875 5.75 C-3.785625 5.8325 -4.38375 5.915 -5 6 C-3.63016497 2.83884224 -3.0109362 2.0072908 0 0 Z " fill="#A88960" transform="translate(301,202)"/>
</svg>
