<?xml version="1.0" encoding="UTF-8"?>
<svg version="1.1" xmlns="http://www.w3.org/2000/svg" width="501" height="411">
<path d="M0 0 C3.52483329 0.6125865 7.04593637 1.0647178 10.6015625 1.4609375 C11.59889404 1.57703369 12.59622559 1.69312988 13.6237793 1.81274414 C15.55695703 2.0335019 17.49208132 2.23803024 19.42895508 2.42358398 C23.77129075 2.93714217 26.14551331 3.32623469 29.65625 6.0703125 C34.02403303 11.79219083 37.87367157 17.75120197 39.72265625 24.77734375 C40.89054687 24.73867188 42.0584375 24.7 43.26171875 24.66015625 C59.05154663 24.69476788 76.3883356 33.91450785 90.72265625 39.77734375 C91.51526855 40.09993164 92.30788086 40.42251953 93.12451172 40.75488281 C105.89209811 46.08339287 111.46147265 53.63955619 117.2890625 65.86328125 C118.66660381 68.66340609 120.13384549 71.31770436 121.78515625 73.96484375 C122.22988281 74.68027344 122.67460937 75.39570312 123.1328125 76.1328125 C125.26545271 78.33881134 126.69111499 78.51102973 129.72265625 78.77734375 C131.60137917 78.69194725 133.47764014 78.53967397 135.34765625 78.33984375 C156.00850372 76.58195949 177.02475261 78.14467878 197.72265625 78.77734375 C197.72265625 81.08734375 197.72265625 83.39734375 197.72265625 85.77734375 C196.50578125 86.00421875 195.28890625 86.23109375 194.03515625 86.46484375 C189.63695571 87.59713005 187.67752456 89.23150178 184.72265625 92.77734375 C184.10519531 93.5146875 183.48773438 94.25203125 182.8515625 95.01171875 C179.07364932 99.61091741 175.59067898 104.3128713 172.34765625 109.30078125 C170.3755841 112.30629505 168.33471843 115.261983 166.28515625 118.21484375 C165.90302979 118.7668042 165.52090332 119.31876465 165.12719727 119.88745117 C163.30787248 122.51124718 161.4755902 125.12470849 159.625 127.7265625 C158.99722656 128.60957031 158.36945313 129.49257812 157.72265625 130.40234375 C157.16578125 131.17835938 156.60890625 131.954375 156.03515625 132.75390625 C153.44592168 136.74564287 153.27900252 140.11897962 153.72265625 144.77734375 C155.46188131 149.28529031 157.88617812 153.40979926 160.40234375 157.5234375 C165.36158636 165.64557485 168.61018228 173.83485813 171.72265625 182.77734375 C172.07714844 183.70417969 172.43164062 184.63101563 172.796875 185.5859375 C173.08175781 186.35035156 173.36664063 187.11476562 173.66015625 187.90234375 C173.89605469 188.52367187 174.13195312 189.145 174.375 189.78515625 C175.10630436 193.97577672 174.23073285 196.99577296 171.9375 200.5234375 C167.79114403 205.42367638 163.66766067 209.9297402 158.71582031 214.01879883 C156.88884003 215.63072178 155.39013006 217.2476289 153.8359375 219.1171875 C148.79993606 224.95296925 143.32669712 230.35933386 137.87866211 235.80664062 C136.02363222 237.66388152 134.17678207 239.52901579 132.33007812 241.39453125 C131.14502035 242.58251934 129.95949032 243.77003658 128.7734375 244.95703125 C128.22544998 245.51220428 127.67746246 246.06737732 127.11286926 246.63937378 C123.06968682 250.65852641 120.68683753 252.62514541 114.9921875 253.06640625 C110.47348538 252.94306439 106.61547525 251.72843132 102.41015625 250.15234375 C101.67176514 249.88599121 100.93337402 249.61963867 100.17260742 249.34521484 C94.83434085 247.35798967 89.9454193 244.92092629 85.1171875 241.87890625 C82.08097655 240.48215015 80.03205418 240.39110102 76.72265625 240.77734375 C65.51751864 247.10248685 59.06950362 261.06208376 55.59765625 272.83984375 C44.28582845 310.92788629 23.0927487 337.39472128 -11.27734375 356.77734375 C-12.26476562 357.30972656 -13.2521875 357.84210938 -14.26953125 358.390625 C-24.30450518 363.93955919 -30.55889014 372.90826952 -37.234375 382.015625 C-39.27734375 384.77734375 -39.27734375 384.77734375 -41.43359375 387.2109375 C-43.64702837 390.29192594 -44.23926713 392.81977306 -44.96484375 396.52734375 C-46.20441247 402.70441247 -46.20441247 402.70441247 -47.27734375 403.77734375 C-50.0703125 404.171875 -50.0703125 404.171875 -53.27734375 403.77734375 C-55.515625 401.5390625 -55.515625 401.5390625 -57.58984375 398.46484375 C-58.36605012 397.34986028 -59.1447562 396.2366134 -59.92578125 395.125 C-60.31604492 394.56055176 -60.70630859 393.99610352 -61.10839844 393.41455078 C-62.85283615 390.97131784 -64.77995133 388.69618264 -66.71484375 386.40234375 C-70.62655487 381.698733 -74.17126756 376.80934837 -77.56420898 371.72314453 C-82.67589974 364.29207123 -89.20119313 359.9834956 -97.08984375 355.83984375 C-117.01917351 345.04571625 -130.31878955 331.07206684 -143.27734375 312.77734375 C-143.9425 311.84792969 -144.60765625 310.91851562 -145.29296875 309.9609375 C-152.68501055 299.05601098 -156.91686216 287.03400285 -159.83984375 274.27734375 C-161.50877803 267.04960594 -163.32084422 261.46633089 -168.27734375 255.77734375 C-168.80070312 255.05289062 -169.3240625 254.3284375 -169.86328125 253.58203125 C-173.34915263 249.01603071 -176.7029731 246.24826274 -182.359375 244.921875 C-192.42781155 244.42317065 -202.85285175 249.61157357 -211.9375 253.5078125 C-215.24380589 254.76459544 -217.73893749 255.68991889 -221.27734375 255.77734375 C-226.71247429 253.11463585 -230.63216361 249.84436012 -234.83984375 245.54296875 C-235.43482666 244.94611267 -236.02980957 244.34925659 -236.64282227 243.73431396 C-237.89334955 242.47710178 -239.14029302 241.21631558 -240.38378906 239.95214844 C-242.26512547 238.03976367 -244.15681511 236.13815066 -246.05078125 234.23828125 C-251.46523069 228.78840208 -256.80335193 223.32843225 -261.78710938 217.47705078 C-264.89376763 213.93370957 -268.34087071 210.71263989 -271.734375 207.44726562 C-276.03392118 203.23411694 -279.06171323 200.18848501 -279.62109375 193.93359375 C-279.44993829 189.77918395 -278.32152433 186.11364452 -276.77734375 182.27734375 C-276.51397217 181.59808838 -276.25060059 180.91883301 -275.97924805 180.21899414 C-273.40479483 173.75501513 -270.31626631 167.56751756 -267.109375 161.3984375 C-265.84953061 158.96873761 -264.72614578 156.52486913 -263.6796875 153.99609375 C-262.27734375 150.77734375 -262.27734375 150.77734375 -260.02734375 147.83984375 C-258.15423041 144.56189541 -257.83270535 142.66898177 -258.5546875 138.9609375 C-261.31853501 130.6096361 -267.48884947 123.76563093 -272.828125 116.92578125 C-278.49221228 109.64467383 -283.27451576 102.3567585 -287.26220703 94.04150391 C-289.56653465 89.4437927 -292.14812213 86.85229602 -296.27734375 83.77734375 C-295.94734375 82.12734375 -295.61734375 80.47734375 -295.27734375 78.77734375 C-287.72310669 77.9782436 -280.25375036 77.62188533 -272.66015625 77.56640625 C-270.48566905 77.53837647 -268.31118996 77.50971238 -266.13671875 77.48046875 C-262.75292867 77.43903459 -259.3692968 77.40208874 -255.98535156 77.37597656 C-252.68914871 77.3484211 -249.39360541 77.30260431 -246.09765625 77.25390625 C-245.08615509 77.25065338 -244.07465393 77.24740051 -243.03250122 77.24404907 C-236.14223575 77.16639358 -236.14223575 77.16639358 -230.27734375 73.77734375 C-228.30558458 70.68054464 -228.30558458 70.68054464 -226.71484375 67.08984375 C-226.41312256 66.46134521 -226.11140137 65.83284668 -225.80053711 65.18530273 C-224.55630848 62.58653794 -223.36068171 59.97118168 -222.22265625 57.32421875 C-217.76229017 47.29826313 -207.99159243 42.01013185 -198.27734375 37.77734375 C-194.46311761 36.55100244 -190.60139674 35.64663012 -186.6875 34.796875 C-181.74940655 33.32053778 -178.34604909 31.12894168 -175.15234375 27.08984375 C-173.06234667 24.51218069 -172.43911796 24.25337295 -169.27734375 23.77734375 C-163.08750096 24.88267282 -157.71113829 27.23071543 -152.01171875 29.8515625 C-149.41101321 30.88211539 -149.41101321 30.88211539 -147.078125 30.8359375 C-144.08080984 29.07395831 -143.74245623 26.37423105 -142.71484375 23.15234375 C-142.2789337 21.8696938 -141.84273917 20.58714049 -141.40625 19.3046875 C-140.78788577 17.37256674 -140.18811264 15.43266671 -139.6796875 13.46875 C-138.86355606 10.75435729 -137.65998366 9.05720847 -135.38671875 7.39453125 C-99.14405103 -11.63856784 -38.44290787 -6.78700535 0 0 Z " fill="#1F4389" transform="translate(303.27734375,7.22265625)"/>
<path d="M0 0 C3.52483329 0.6125865 7.04593637 1.0647178 10.6015625 1.4609375 C11.59889404 1.57703369 12.59622559 1.69312988 13.6237793 1.81274414 C15.55695703 2.0335019 17.49208132 2.23803024 19.42895508 2.42358398 C23.77129075 2.93714217 26.14551331 3.32623469 29.65625 6.0703125 C34.02403303 11.79219083 37.87367157 17.75120197 39.72265625 24.77734375 C40.89054687 24.73867188 42.0584375 24.7 43.26171875 24.66015625 C59.05154663 24.69476788 76.3883356 33.91450785 90.72265625 39.77734375 C91.51526855 40.09993164 92.30788086 40.42251953 93.12451172 40.75488281 C105.89209811 46.08339287 111.46147265 53.63955619 117.2890625 65.86328125 C118.66660381 68.66340609 120.13384549 71.31770436 121.78515625 73.96484375 C122.22988281 74.68027344 122.67460937 75.39570312 123.1328125 76.1328125 C125.26545271 78.33881134 126.69111499 78.51102973 129.72265625 78.77734375 C131.60137917 78.69194725 133.47764014 78.53967397 135.34765625 78.33984375 C156.00850372 76.58195949 177.02475261 78.14467878 197.72265625 78.77734375 C197.72265625 81.08734375 197.72265625 83.39734375 197.72265625 85.77734375 C196.50578125 86.00421875 195.28890625 86.23109375 194.03515625 86.46484375 C189.63695571 87.59713005 187.67752456 89.23150178 184.72265625 92.77734375 C184.10519531 93.5146875 183.48773438 94.25203125 182.8515625 95.01171875 C179.07364932 99.61091741 175.59067898 104.3128713 172.34765625 109.30078125 C170.3755841 112.30629505 168.33471843 115.261983 166.28515625 118.21484375 C165.90302979 118.7668042 165.52090332 119.31876465 165.12719727 119.88745117 C163.30787248 122.51124718 161.4755902 125.12470849 159.625 127.7265625 C158.99722656 128.60957031 158.36945313 129.49257812 157.72265625 130.40234375 C157.16578125 131.17835938 156.60890625 131.954375 156.03515625 132.75390625 C153.44592168 136.74564287 153.27900252 140.11897962 153.72265625 144.77734375 C155.46188131 149.28529031 157.88617812 153.40979926 160.40234375 157.5234375 C165.36158636 165.64557485 168.61018228 173.83485813 171.72265625 182.77734375 C172.07714844 183.70417969 172.43164062 184.63101563 172.796875 185.5859375 C173.08175781 186.35035156 173.36664063 187.11476562 173.66015625 187.90234375 C173.89605469 188.52367187 174.13195312 189.145 174.375 189.78515625 C175.10630436 193.97577672 174.23073285 196.99577296 171.9375 200.5234375 C167.79114403 205.42367638 163.66766067 209.9297402 158.71582031 214.01879883 C156.88884003 215.63072178 155.39013006 217.2476289 153.8359375 219.1171875 C148.79993606 224.95296925 143.32669712 230.35933386 137.87866211 235.80664062 C136.02363222 237.66388152 134.17678207 239.52901579 132.33007812 241.39453125 C131.14502035 242.58251934 129.95949032 243.77003658 128.7734375 244.95703125 C128.22544998 245.51220428 127.67746246 246.06737732 127.11286926 246.63937378 C123.06968682 250.65852641 120.68683753 252.62514541 114.9921875 253.06640625 C110.47348538 252.94306439 106.61547525 251.72843132 102.41015625 250.15234375 C101.67176514 249.88599121 100.93337402 249.61963867 100.17260742 249.34521484 C94.83434085 247.35798967 89.9454193 244.92092629 85.1171875 241.87890625 C82.08097655 240.48215015 80.03205418 240.39110102 76.72265625 240.77734375 C65.51751864 247.10248685 59.06950362 261.06208376 55.59765625 272.83984375 C44.28582845 310.92788629 23.0927487 337.39472128 -11.27734375 356.77734375 C-12.26476562 357.30972656 -13.2521875 357.84210938 -14.26953125 358.390625 C-24.30450518 363.93955919 -30.55889014 372.90826952 -37.234375 382.015625 C-39.27734375 384.77734375 -39.27734375 384.77734375 -41.43359375 387.2109375 C-43.64702837 390.29192594 -44.23926713 392.81977306 -44.96484375 396.52734375 C-46.20441247 402.70441247 -46.20441247 402.70441247 -47.27734375 403.77734375 C-50.0703125 404.171875 -50.0703125 404.171875 -53.27734375 403.77734375 C-55.515625 401.5390625 -55.515625 401.5390625 -57.58984375 398.46484375 C-58.36605012 397.34986028 -59.1447562 396.2366134 -59.92578125 395.125 C-60.31604492 394.56055176 -60.70630859 393.99610352 -61.10839844 393.41455078 C-62.85283615 390.97131784 -64.77995133 388.69618264 -66.71484375 386.40234375 C-70.62655487 381.698733 -74.17126756 376.80934837 -77.56420898 371.72314453 C-82.67589974 364.29207123 -89.20119313 359.9834956 -97.08984375 355.83984375 C-117.01917351 345.04571625 -130.31878955 331.07206684 -143.27734375 312.77734375 C-143.9425 311.84792969 -144.60765625 310.91851562 -145.29296875 309.9609375 C-152.68501055 299.05601098 -156.91686216 287.03400285 -159.83984375 274.27734375 C-161.50877803 267.04960594 -163.32084422 261.46633089 -168.27734375 255.77734375 C-168.80070312 255.05289062 -169.3240625 254.3284375 -169.86328125 253.58203125 C-173.34915263 249.01603071 -176.7029731 246.24826274 -182.359375 244.921875 C-192.42781155 244.42317065 -202.85285175 249.61157357 -211.9375 253.5078125 C-215.24380589 254.76459544 -217.73893749 255.68991889 -221.27734375 255.77734375 C-226.71247429 253.11463585 -230.63216361 249.84436012 -234.83984375 245.54296875 C-235.43482666 244.94611267 -236.02980957 244.34925659 -236.64282227 243.73431396 C-237.89334955 242.47710178 -239.14029302 241.21631558 -240.38378906 239.95214844 C-242.26512547 238.03976367 -244.15681511 236.13815066 -246.05078125 234.23828125 C-251.46523069 228.78840208 -256.80335193 223.32843225 -261.78710938 217.47705078 C-264.89376763 213.93370957 -268.34087071 210.71263989 -271.734375 207.44726562 C-276.03392118 203.23411694 -279.06171323 200.18848501 -279.62109375 193.93359375 C-279.44993829 189.77918395 -278.32152433 186.11364452 -276.77734375 182.27734375 C-276.51397217 181.59808838 -276.25060059 180.91883301 -275.97924805 180.21899414 C-273.40479483 173.75501513 -270.31626631 167.56751756 -267.109375 161.3984375 C-265.84953061 158.96873761 -264.72614578 156.52486913 -263.6796875 153.99609375 C-262.27734375 150.77734375 -262.27734375 150.77734375 -260.02734375 147.83984375 C-258.15423041 144.56189541 -257.83270535 142.66898177 -258.5546875 138.9609375 C-261.31853501 130.6096361 -267.48884947 123.76563093 -272.828125 116.92578125 C-278.49221228 109.64467383 -283.27451576 102.3567585 -287.26220703 94.04150391 C-289.56653465 89.4437927 -292.14812213 86.85229602 -296.27734375 83.77734375 C-295.94734375 82.12734375 -295.61734375 80.47734375 -295.27734375 78.77734375 C-287.72310669 77.9782436 -280.25375036 77.62188533 -272.66015625 77.56640625 C-270.48566905 77.53837647 -268.31118996 77.50971238 -266.13671875 77.48046875 C-262.75292867 77.43903459 -259.3692968 77.40208874 -255.98535156 77.37597656 C-252.68914871 77.3484211 -249.39360541 77.30260431 -246.09765625 77.25390625 C-245.08615509 77.25065338 -244.07465393 77.24740051 -243.03250122 77.24404907 C-236.14223575 77.16639358 -236.14223575 77.16639358 -230.27734375 73.77734375 C-228.30558458 70.68054464 -228.30558458 70.68054464 -226.71484375 67.08984375 C-226.41312256 66.46134521 -226.11140137 65.83284668 -225.80053711 65.18530273 C-224.55630848 62.58653794 -223.36068171 59.97118168 -222.22265625 57.32421875 C-217.76229017 47.29826313 -207.99159243 42.01013185 -198.27734375 37.77734375 C-194.46311761 36.55100244 -190.60139674 35.64663012 -186.6875 34.796875 C-181.74940655 33.32053778 -178.34604909 31.12894168 -175.15234375 27.08984375 C-173.06234667 24.51218069 -172.43911796 24.25337295 -169.27734375 23.77734375 C-163.08750096 24.88267282 -157.71113829 27.23071543 -152.01171875 29.8515625 C-149.41101321 30.88211539 -149.41101321 30.88211539 -147.078125 30.8359375 C-144.08080984 29.07395831 -143.74245623 26.37423105 -142.71484375 23.15234375 C-142.2789337 21.8696938 -141.84273917 20.58714049 -141.40625 19.3046875 C-140.78788577 17.37256674 -140.18811264 15.43266671 -139.6796875 13.46875 C-138.86355606 10.75435729 -137.65998366 9.05720847 -135.38671875 7.39453125 C-99.14405103 -11.63856784 -38.44290787 -6.78700535 0 0 Z M-170.27734375 34.77734375 C-170.42171875 35.54046875 -170.56609375 36.30359375 -170.71484375 37.08984375 C-172.71201632 40.52498058 -174.68949933 40.8519242 -178.39453125 41.90625 C-182.54532162 43.16048611 -186.52726753 44.80409924 -190.53344727 46.45166016 C-193.58423066 47.70509171 -196.61137463 48.89170687 -199.734375 49.9609375 C-204.85777391 51.78666165 -208.48018109 53.13338097 -211.27734375 57.96484375 C-211.99043997 59.54891727 -212.65666727 61.15482847 -213.27734375 62.77734375 C-213.78974609 64.02644531 -213.78974609 64.02644531 -214.3125 65.30078125 C-214.99268522 66.98184738 -215.65703318 68.6694161 -216.3046875 70.36328125 C-217.46793223 73.25037058 -218.85650129 75.96563628 -220.34765625 78.6953125 C-221.64461927 81.59985574 -222.40346778 84.71877786 -223.27734375 87.77734375 C-243.73734375 87.77734375 -264.19734375 87.77734375 -285.27734375 87.77734375 C-277.0910153 98.69244836 -268.83727994 109.55286149 -260.40234375 120.27734375 C-259.73150757 121.13718872 -259.73150757 121.13718872 -259.04711914 122.0144043 C-257.08309428 124.52502962 -255.09276983 126.99014289 -253.00390625 129.3984375 C-252.35164063 130.16285156 -251.699375 130.92726563 -251.02734375 131.71484375 C-250.18429688 132.65650391 -250.18429688 132.65650391 -249.32421875 133.6171875 C-247.73099796 136.9046916 -248.56507641 139.23475091 -249.27734375 142.77734375 C-250.29685933 145.33596558 -251.34667937 147.74978617 -252.55078125 150.21484375 C-252.87519196 150.89861084 -253.19960266 151.58237793 -253.53384399 152.28686523 C-254.5645293 154.45469741 -255.60794675 156.61608926 -256.65234375 158.77734375 C-257.68672527 160.93987782 -258.71844332 163.10366325 -259.74942017 165.26782227 C-260.38905749 166.60809372 -261.03112832 167.94720768 -261.67611694 169.28491211 C-263.65714025 173.40596748 -265.49297308 177.56733922 -267.27734375 181.77734375 C-268.60362021 184.63164014 -269.94222572 187.47957234 -271.2890625 190.32421875 C-272.46418447 192.80033632 -272.46418447 192.80033632 -272.27734375 195.77734375 C-270.84972408 197.35143938 -270.84972408 197.35143938 -268.89819336 198.85229492 C-263.76521168 203.15743765 -259.0731714 207.8377534 -254.34375 212.578125 C-252.96593605 213.95450386 -252.96593605 213.95450386 -251.56028748 215.35868835 C-249.63337426 217.28413983 -247.70825 219.21135682 -245.78442383 221.13989258 C-243.31752036 223.6125409 -240.84608839 226.08060694 -238.37333775 228.5474062 C-236.00688254 230.90939089 -233.64423107 233.27516464 -231.28125 235.640625 C-230.39280899 236.52704178 -229.50436798 237.41345856 -228.58900452 238.32673645 C-227.36654274 239.55392647 -227.36654274 239.55392647 -226.11938477 240.8059082 C-225.03972191 241.88676445 -225.03972191 241.88676445 -223.93824768 242.98945618 C-222.27734375 244.77734375 -222.27734375 244.77734375 -221.27734375 246.77734375 C-218.23913315 246.15080813 -215.94649828 245.14979028 -213.29296875 243.5546875 C-212.52992432 243.10198486 -211.76687988 242.64928223 -210.98071289 242.18286133 C-210.17110107 241.69841553 -209.36148926 241.21396973 -208.52734375 240.71484375 C-202.21424805 237.00315474 -195.874166 233.39912721 -189.33984375 230.08984375 C-188.68467773 229.75138428 -188.02951172 229.4129248 -187.35449219 229.06420898 C-183.9878005 227.38751143 -182.12852309 226.77734375 -178.27734375 226.77734375 C-176.15625 229.0234375 -176.15625 229.0234375 -173.83984375 232.21484375 C-172.9665877 233.39746182 -172.0928645 234.57973505 -171.21875 235.76171875 C-170.75098145 236.40302734 -170.28321289 237.04433594 -169.80126953 237.70507812 C-167.01210812 241.49783719 -164.13901793 245.22669968 -161.27734375 248.96484375 C-160.71345947 249.70726318 -160.1495752 250.44968262 -159.56860352 251.21459961 C-159.03936279 251.90948486 -158.51012207 252.60437012 -157.96484375 253.3203125 C-157.49433594 253.9393042 -157.02382812 254.5582959 -156.5390625 255.19604492 C-155.22174195 256.90741571 -155.22174195 256.90741571 -153.27734375 258.77734375 C-152.98059681 261.01943175 -152.76699808 263.27265226 -152.58984375 265.52734375 C-149.90871537 291.67137844 -137.09297093 316.56767796 -117.27734375 333.77734375 C-109.06996879 340.27638589 -100.53990042 346.62839276 -90.43041992 349.65039062 C-80.72628911 352.65029528 -76.75626611 357.21030152 -71.27734375 365.77734375 C-69.43463626 368.23697519 -67.5140802 370.63123424 -65.58984375 373.02734375 C-64.66134643 374.20070539 -63.73421671 375.3751508 -62.80859375 376.55078125 C-62.37546875 377.10088867 -61.94234375 377.65099609 -61.49609375 378.21777344 C-59.03658005 381.36508383 -56.65322305 384.56669605 -54.27734375 387.77734375 C-51.15207565 386.4289097 -49.44925128 385.08265096 -47.4296875 382.35546875 C-46.91269287 381.66614258 -46.39569824 380.97681641 -45.86303711 380.26660156 C-45.3191333 379.52764648 -44.77522949 378.78869141 -44.21484375 378.02734375 C-43.64193604 377.2703418 -43.06902832 376.51333984 -42.47875977 375.73339844 C-39.72883392 372.09930959 -37.02811009 368.43959657 -34.40234375 364.71484375 C-28.7525612 356.86413781 -23.77099403 352.56233075 -14.27734375 349.77734375 C4.7353649 342.30806535 20.69416947 328.88855262 31.72265625 311.77734375 C32.1609375 311.14570313 32.59921875 310.5140625 33.05078125 309.86328125 C41.79428277 296.8587062 48.06827976 278.68647962 47.78515625 262.90234375 C48.2052287 255.49273245 54.3660466 250.16084606 58.99267578 244.83007812 C61.97838977 241.28733423 64.71753803 237.56285277 67.47265625 233.83984375 C67.99770752 233.13512939 68.52275879 232.43041504 69.0637207 231.7043457 C70.28577566 230.06380404 71.50459966 228.42085628 72.72265625 226.77734375 C76.9548692 228.07206421 80.64382923 229.6868882 84.49609375 231.859375 C86.10484375 232.76333008 86.10484375 232.76333008 87.74609375 233.68554688 C89.40511719 234.62817383 89.40511719 234.62817383 91.09765625 235.58984375 C92.1959375 236.20666016 93.29421875 236.82347656 94.42578125 237.45898438 C99.13362655 240.11490909 103.77036547 242.77991821 108.26171875 245.7890625 C111.35033584 248.00418642 111.35033584 248.00418642 113.72245789 247.59584045 C116.08993569 246.62705015 117.38477338 245.48311667 119.18676758 243.66967773 C119.84457718 243.01486923 120.50238678 242.36006073 121.18013 241.68540955 C121.88123398 240.97195877 122.58233795 240.258508 123.3046875 239.5234375 C124.03709152 238.78916031 124.76949554 238.05488312 125.52409363 237.2983551 C127.0749977 235.74072578 128.62229827 234.17950149 130.16625977 232.61499023 C132.50884074 230.24150641 134.86168178 227.87861866 137.21679688 225.51757812 C138.72588 223.9993135 140.23436251 222.48045162 141.7421875 220.9609375 C142.78473442 219.91201576 142.78473442 219.91201576 143.8483429 218.84190369 C147.77764627 214.85602475 151.54593554 210.77691765 155.19158936 206.52955627 C157.40752632 203.99355179 159.7623365 201.64231665 162.16015625 199.27734375 C163.02511719 198.42140625 163.89007813 197.56546875 164.78125 196.68359375 C165.42191406 196.05453125 166.06257813 195.42546875 166.72265625 194.77734375 C164.86525536 188.87152245 162.71807511 183.23927973 160.10546875 177.62890625 C159.76643524 176.89086761 159.42740173 176.15282898 159.07809448 175.39242554 C158.00565603 173.0603532 156.92684529 170.73129864 155.84765625 168.40234375 C155.13237607 166.8504615 154.41752921 165.29837945 153.703125 163.74609375 C153.35433289 162.98899109 153.00554077 162.23188843 152.6461792 161.45184326 C151.95787219 159.95683123 151.270399 158.46143501 150.58380127 156.96563721 C149.1057615 153.75054413 147.61186075 150.54928914 146.06542969 147.36621094 C145.36595215 145.91069824 145.36595215 145.91069824 144.65234375 144.42578125 C144.24999512 143.61028809 143.84764648 142.79479492 143.43310547 141.95458984 C142.59866711 139.39736604 142.75162134 138.25848192 143.72265625 135.77734375 C145.04913261 133.85265256 146.45889009 131.98477444 147.91015625 130.15234375 C148.82163499 128.99220353 149.73309208 127.83204631 150.64453125 126.671875 C151.13888672 126.04748535 151.63324219 125.4230957 152.14257812 124.77978516 C154.40415736 121.91367377 156.63835872 119.02656649 158.87548828 116.14135742 C162.90203364 110.9487113 166.93181647 105.75961202 171.02734375 100.62109375 C171.536604 99.98034912 172.04586426 99.33960449 172.57055664 98.67944336 C173.52181215 97.48462585 174.47653855 96.29256049 175.43530273 95.10375977 C177.38329577 92.65469445 178.72322808 90.77562825 179.72265625 87.77734375 C149.52765625 87.28234375 149.52765625 87.28234375 118.72265625 86.77734375 C116.74265625 82.32234375 116.74265625 82.32234375 114.72265625 77.77734375 C113.22542547 74.82966318 113.22542547 74.82966318 111.7265625 71.8828125 C110.23022291 68.74457499 108.99008667 65.51611008 107.75 62.26953125 C107.41097656 61.44710937 107.07195312 60.6246875 106.72265625 59.77734375 C106.38492187 58.76542969 106.0471875 57.75351563 105.69921875 56.7109375 C102.74585429 52.32758433 99.06429266 51.53843448 94.16015625 49.96484375 C93.20375244 49.63863037 92.24734863 49.31241699 91.26196289 48.97631836 C89.19189653 48.27144156 87.1187427 47.57558232 85.04296875 46.88769531 C81.56937389 45.72608432 78.11416269 44.51934109 74.66015625 43.30078125 C67.89656873 40.92021567 67.89656873 40.92021567 61.125 38.5625 C60.20195068 38.241604 59.27890137 37.92070801 58.32788086 37.59008789 C53.60584086 35.84843239 53.60584086 35.84843239 48.88574219 36.59423828 C48.33176758 37.02849121 47.77779297 37.46274414 47.20703125 37.91015625 C46.59601563 38.38710938 45.985 38.8640625 45.35546875 39.35546875 C44.73414063 39.8659375 44.1128125 40.37640625 43.47265625 40.90234375 C42.83585937 41.38960937 42.1990625 41.876875 41.54296875 42.37890625 C37.79792055 45.36929133 37.79792055 45.36929133 35.80078125 49.64453125 C35.775 50.34835938 35.74921875 51.0521875 35.72265625 51.77734375 C33.5767261 51.31946392 31.43091751 50.86101441 29.28515625 50.40234375 C27.35542969 49.99242187 27.35542969 49.99242187 25.38671875 49.57421875 C22.6298476 48.97464336 19.89805309 48.32912724 17.16015625 47.65234375 C12.65676042 46.64154505 8.16770871 46.42073894 3.5703125 46.125 C-1.04284218 45.70817689 -5.57958586 45.00408255 -10.15234375 44.27734375 C-18.54224945 42.96257837 -26.78719059 42.15512574 -35.27734375 41.77734375 C-36.29570312 41.66648437 -37.3140625 41.555625 -38.36328125 41.44140625 C-42.65064422 41.10076645 -45.17007801 40.97157871 -48.73046875 43.5625 C-50.73254656 45.54707713 -52.54602117 47.55490101 -54.27734375 49.77734375 C-54.60734375 47.13734375 -54.93734375 44.49734375 -55.27734375 41.77734375 C-68.47583817 41.49161759 -81.24978255 42.23115708 -94.33984375 43.90234375 C-95.22123016 44.01105804 -96.10261658 44.11977234 -97.01071167 44.23178101 C-112.03835713 46.0969763 -126.64950711 48.80513836 -141.27734375 52.77734375 C-141.41269531 51.99391602 -141.54804688 51.21048828 -141.6875 50.40332031 C-142.47516752 46.89663495 -143.42055995 45.98960925 -146.27734375 43.77734375 C-149.535911 42.01700258 -152.88686772 40.51430967 -156.27734375 39.02734375 C-157.1796875 38.61613281 -158.08203125 38.20492187 -159.01171875 37.78125 C-164.40996411 35.36384039 -164.40996411 35.36384039 -170.27734375 34.77734375 Z " fill="#F9FAFB" transform="translate(303.27734375,7.22265625)"/>
<path d="M0 0 C17.54910458 4.92868469 32.65795878 12.71943296 47 24 C47.8146875 24.64066406 48.629375 25.28132813 49.46875 25.94140625 C51.99278888 27.94467205 54.49981866 29.96706566 57 32 C57.64195312 32.515625 58.28390625 33.03125 58.9453125 33.5625 C62.72772554 36.68341479 65.94733367 40.06625002 69.1171875 43.8046875 C71.18710196 46.21815623 73.34133766 48.54071768 75.5 50.875 C90.86664333 68.0037542 102.25273048 89.77089145 108 112 C108.22945313 112.8559375 108.45890625 113.711875 108.6953125 114.59375 C109.26442141 118.62129 108.34336039 120.50395959 106.0234375 123.85546875 C94.48714011 137.86830825 75.45693631 150.66511536 57.4140625 153.390625 C52.50009323 152.59548434 49.97715455 147.48221713 47.19824219 143.67675781 C30.37058872 120.12901453 22.74822336 93.45898804 15.9375 65.625 C8.70830629 36.01395107 8.70830629 36.01395107 -12 15 C-10.58397787 11.85093585 -8.86264918 9.50476328 -6.5625 6.9375 C-5.96566406 6.26589844 -5.36882812 5.59429687 -4.75390625 4.90234375 C-3.20703058 3.2245521 -1.62828434 1.59840757 0 0 Z " fill="#F38421" transform="translate(216,201)"/>
<path d="M0 0 C2.12546959 0.81127079 4.25036195 1.62405398 6.375 2.4375 C7.55835938 2.88996094 8.74171875 3.34242187 9.9609375 3.80859375 C13 5 13 5 15 6 C14.35241851 11.89219203 12.82939488 17.2893684 11.0625 22.9375 C9.20644288 28.93017104 7.49416847 34.90689739 6 41 C3.58858866 49.89863207 -1.03631915 54.21042813 -8 60 C-9.75217908 61.57899859 -11.48278824 63.18236937 -13.1875 64.8125 C-13.94417969 65.52019531 -14.70085937 66.22789063 -15.48046875 66.95703125 C-17.20119444 68.83590833 -17.20119444 68.83590833 -16.96484375 70.9453125 C-15.7307822 73.57331401 -14.10054659 75.72854356 -12.375 78.0625 C-9.14761343 83.08287911 -8.22267837 86.20569676 -9.21875 92.07421875 C-10.41358614 96.54888009 -11.94644154 100.84675523 -13.62890625 105.16015625 C-14.66901552 107.90948049 -15.43063746 110.63180886 -16.08984375 113.49609375 C-18.71982759 124.71982759 -18.71982759 124.71982759 -21.9765625 127.9765625 C-24.61203119 129.34277537 -27.15028379 130.16121561 -30 131 C-31.38339055 131.52212384 -32.76203024 132.05693949 -34.13671875 132.6015625 C-45.30602364 137 -45.30602364 137 -48 137 C-47.5875 135.783125 -47.175 134.56625 -46.75 133.3125 C-45.53691632 129.68442945 -44.40768259 126.04021106 -43.3125 122.375 C-41.97466524 117.94013043 -40.50574643 113.58290769 -38.9296875 109.2265625 C-38.56190186 108.20256348 -38.19411621 107.17856445 -37.81518555 106.12353516 C-37.0718939 104.06471868 -36.31837176 102.00956287 -35.55395508 99.95849609 C-35.21001709 99.00281738 -34.8660791 98.04713867 -34.51171875 97.0625 C-34.19678467 96.20785156 -33.88185059 95.35320312 -33.55737305 94.47265625 C-32.92041644 91.64694599 -33.24549228 89.77138276 -34 87 C-38.27814341 87.49763127 -40.10529656 88.66684445 -43 91.8125 C-45.12325213 94.09413989 -47.08275917 96.06132156 -49.59375 97.921875 C-52.34468057 100.29767868 -53.21780096 102.06256896 -54.5 105.4375 C-55.12841797 107.05205078 -55.12841797 107.05205078 -55.76953125 108.69921875 C-56.17558594 109.78847656 -56.58164063 110.87773437 -57 112 C-58.36911113 115.6094748 -59.75560799 119.21129555 -61.16015625 122.80712891 C-61.79841786 124.47365967 -62.42054445 126.14638038 -63.03515625 127.82177734 C-64.22090276 131.03987327 -65.45194288 134.23823397 -66.6875 137.4375 C-67.06092529 138.48067383 -67.43435059 139.52384766 -67.8190918 140.59863281 C-70.90063143 148.4081437 -74.5462507 151.40947888 -82 155 C-83.32741211 155.82213989 -83.32741211 155.82213989 -84.68164062 156.66088867 C-87 158 -87 158 -89.07421875 157.890625 C-91.40861366 156.81102654 -92.96471214 155.53943667 -94.8125 153.75 C-95.43769531 153.16734375 -96.06289062 152.5846875 -96.70703125 151.984375 C-98 150 -98 150 -97.89453125 147.73046875 C-96.75326426 144.2468634 -95.37014387 140.90506157 -93.875 137.5625 C-93.5658667 136.86237793 -93.2567334 136.16225586 -92.93823242 135.44091797 C-90.32533313 129.58617372 -87.46048455 123.88270296 -84.5546875 118.16796875 C-82.86797222 114.73096852 -81.44126273 111.25844601 -80.078125 107.68408203 C-78.91274976 104.78278326 -77.62633002 101.96244477 -76.3046875 99.12890625 C-73.20181524 92.44467923 -70.14952752 85.73820506 -67.10656738 79.02651978 C-61.3933169 66.42895043 -55.65082321 53.84488599 -49.87979126 41.27368164 C-49.13137716 39.64330698 -48.38330544 38.01277509 -47.6355896 36.38208008 C-46.58626823 34.09406443 -45.53554511 31.80669802 -44.484375 29.51953125 C-44.17560928 28.84590042 -43.86684357 28.17226959 -43.54872131 27.47822571 C-38.38673497 16.26248277 -38.38673497 16.26248277 -36.0546875 14.6796875 C-35.33539063 14.41414063 -34.61609375 14.14859375 -33.875 13.875 C-32.68970703 13.41673828 -32.68970703 13.41673828 -31.48046875 12.94921875 C-30.66191406 12.63597656 -29.84335938 12.32273437 -29 12 C-26.67477155 10.891159 -24.35627779 9.77019804 -22.04296875 8.63671875 C-19.63151889 7.8851579 -18.35361821 8.1802004 -16 9 C-16.83333333 11.08333333 -17.66666667 13.16666667 -18.5 15.25 C-18.76482178 15.91241699 -19.02964355 16.57483398 -19.30249023 17.25732422 C-20.86694255 21.17002799 -22.43383463 25.08173494 -24.00390625 28.9921875 C-27.73930579 38.30228027 -31.44010576 47.62104787 -35 57 C-32.32853121 54.84285137 -29.66938276 52.67366715 -27.02734375 50.48046875 C-25.19915016 48.98252949 -23.34364149 47.51599823 -21.44140625 46.11328125 C-14.37001169 40.61595765 -12.55185583 34.3718779 -10 26 C-9.1655259 23.78415032 -8.31185573 21.57541789 -7.4375 19.375 C-5.36781839 14.06042324 -3.53184624 8.69807593 -1.796875 3.265625 C-1 1 -1 1 0 0 Z " fill="#F08323" transform="translate(138,51)"/>
<path d="M0 0 C0.89541504 0.2980957 1.79083008 0.59619141 2.71337891 0.90332031 C3.71264404 1.2357373 4.71190918 1.5681543 5.74145508 1.91064453 C7.32470581 2.44069092 7.32470581 2.44069092 8.93994141 2.98144531 C10.01671143 3.34125488 11.09348145 3.70106445 12.20288086 4.07177734 C20.02513071 6.69467348 27.83238693 9.3526588 35.56494141 12.23144531 C36.78310547 12.56535278 36.78310547 12.56535278 38.02587891 12.90600586 C41.56284561 14.7523705 42.2630212 16.84245487 43.89697266 20.44628906 C44.31918343 21.36360558 44.31918343 21.36360558 44.74992371 22.29945374 C45.3399462 23.5895322 45.92193806 24.88331012 46.49633789 26.18041992 C47.37617362 28.1660841 48.27962289 30.13955225 49.18798828 32.11230469 C53.56494141 41.74289046 53.56494141 41.74289046 53.56494141 45.23144531 C50.96324173 44.55541311 48.37279928 43.85536349 45.78759766 43.11816406 C43.66649491 42.53453943 41.52680658 42.01416128 39.37353516 41.56347656 C34.55944452 40.37652305 31.52023225 39.50457124 28.47509766 35.44628906 C26.10004867 30.84707656 24.56494141 27.45111264 24.56494141 22.23144531 C23.85982422 22.10898438 23.15470703 21.98652344 22.42822266 21.86035156 C19.40990958 21.1973933 16.64604699 20.24968957 13.75244141 19.16894531 C12.77662109 18.80671875 11.80080078 18.44449219 10.79541016 18.07128906 C10.05935547 17.79414062 9.32330078 17.51699219 8.56494141 17.23144531 C9.8010361 21.10565726 11.11332764 24.94988158 12.43994141 28.79394531 C12.78541016 29.87998047 13.13087891 30.96601562 13.48681641 32.08496094 C16.40951237 40.37433139 20.01940226 43.92800369 27.56494141 48.23144531 C28.85088642 49.08381559 30.13034543 49.9461123 31.40087891 50.82128906 C32.57979357 51.60500494 33.75948419 52.38755481 34.93994141 53.16894531 C35.57786621 53.59296631 36.21579102 54.0169873 36.87304688 54.45385742 C39.82580241 56.4163461 42.7812463 58.37476062 45.73681641 60.33300781 C47.69474703 61.63311518 49.64541383 62.94423315 51.58837891 64.26660156 C53.65604121 65.63147576 55.77051116 66.92696632 57.91650391 68.16503906 C64.48677157 72.16006388 68.26114866 75.44926766 71.47119141 82.48535156 C71.80403137 83.1822963 72.13687134 83.87924103 72.47979736 84.5973053 C73.52573929 86.80093785 74.54736281 89.01459071 75.56494141 91.23144531 C76.22394767 92.64802991 76.88312499 94.06453495 77.54248047 95.48095703 C79.49407111 99.6980113 81.40653983 103.93221596 83.31494141 108.16894531 C83.96700513 109.60982728 84.61934839 111.05058278 85.27197266 112.49121094 C87.81540547 118.11063797 90.35037854 123.73345779 92.84228516 129.37597656 C94.67818598 133.52771682 96.68421883 137.59093435 98.70947266 141.65332031 C99.73475493 144.74321209 99.6533371 146.17612825 98.56494141 149.23144531 C96.89306641 151.50488281 96.89306641 151.50488281 94.81494141 153.60644531 C94.13947266 154.31542969 93.46400391 155.02441406 92.76806641 155.75488281 C90.56494141 157.23144531 90.56494141 157.23144531 88.16650391 157.16894531 C85.06915466 156.05278342 82.50203609 154.57455802 79.68994141 152.85644531 C65.2452751 144.29199676 49.33185302 136.37414643 33.32666016 131.18066406 C31.71210938 130.61798828 31.71210938 130.61798828 30.06494141 130.04394531 C29.10587891 129.74101562 28.14681641 129.43808594 27.15869141 129.12597656 C23.03968913 126.11736797 22.11631066 121.96168129 20.56494141 117.23144531 C20.26249512 116.34593994 19.96004883 115.46043457 19.6484375 114.5480957 C18.7358413 111.82640009 17.86280333 109.0950757 17.00244141 106.35644531 C16.69943115 105.39915527 16.3964209 104.44186523 16.08422852 103.45556641 C13.9895494 96.76733251 12.08141269 90.07722997 10.56494141 83.23144531 C13.40792425 83.90761421 16.23519349 84.61154871 19.05712891 85.37207031 C22.52937034 86.29594374 22.52937034 86.29594374 26.01025391 86.65332031 C29.89330141 87.32001524 32.32239505 87.9532579 35.56494141 90.23144531 C37.41532499 93.94848591 38.30944553 98.00828419 39.38671875 102.00219727 C41.01094675 107.06805636 42.56352447 109.7288274 47.20947266 112.48144531 C51.84793367 114.78075339 56.63778891 116.64848064 61.56494141 118.23144531 C61.20142578 117.32265625 60.83791016 116.41386719 60.46337891 115.47753906 C60.22458008 114.87796387 59.98578125 114.27838867 59.73974609 113.66064453 C59.19806185 112.31172511 58.64899857 110.96574956 58.09326172 109.62255859 C56.7008331 106.22959551 55.42685481 102.8934491 54.46337891 99.35253906 C50.91541327 87.77941305 43.80234348 82.99536848 33.80664062 76.66113281 C30.65861262 74.65341641 27.61730801 72.50531883 24.56494141 70.35644531 C22.5650884 68.98123153 20.5650987 67.6062165 18.56494141 66.23144531 C15.95999372 64.41898875 13.35958448 62.60297244 10.77978516 60.75488281 C8.64646305 59.23092457 8.64646305 59.23092457 6.56884766 58.14550781 C-0.84232517 53.9059982 -2.27888163 45.33786692 -4.45458984 37.61035156 C-5.11386852 35.12820675 -5.75949211 32.64239873 -6.39208984 30.15332031 C-7.65508206 25.26958548 -9.20172846 20.47740808 -10.77294922 15.68530273 C-13.21431836 8.1164734 -13.21431836 8.1164734 -13.43505859 4.23144531 C-12.14208984 2.29785156 -12.14208984 2.29785156 -10.24755859 0.79394531 C-9.63525391 0.27960937 -9.02294922 -0.23472656 -8.39208984 -0.76464844 C-5.35572782 -2.32222337 -3.14711623 -0.99329476 0 0 Z " fill="#F08323" transform="translate(361.43505859375,52.7685546875)"/>
<path d="M0 0 C4.90181929 0.28834231 8.54630622 2.6791406 12 6 C20.5476161 16.84889736 24.25683576 29.99629934 27.51062012 43.20223999 C28.18226744 45.92690156 28.87255132 48.6467433 29.56170654 51.36701965 C29.90342652 52.71640162 30.24430063 54.0659981 30.58428955 55.41581726 C37.37980518 82.37463709 46.07057929 107.08913283 62.85083008 129.55883789 C66 133.80412431 66 133.80412431 66 136 C53.42839081 139.2409138 38.27814543 137.65543825 26 134 C24.85402344 133.6596875 23.70804688 133.319375 22.52734375 132.96875 C10.45714814 129.01218533 -1.27396129 124.65205178 -7.43359375 112.83374023 C-19.18332932 88.12112184 -21.96400082 58.51794198 -15 32 C-14.75636719 31.0203125 -14.51273438 30.040625 -14.26171875 29.03125 C-11.68046675 20.12531894 -6.68027886 6.68027886 0 0 Z " fill="#F28422" transform="translate(200,220)"/>
<path d="M0 0 C1.37369751 0.2460498 1.37369751 0.2460498 2.77514648 0.49707031 C5.95894834 1.07972686 9.13582053 1.69221681 12.3125 2.3125 C14.0286853 2.64580322 14.0286853 2.64580322 15.77954102 2.98583984 C25.5414247 4.89169569 35.29140462 6.83782374 45 9 C46.01707031 9.22042969 47.03414063 9.44085938 48.08203125 9.66796875 C60.11531188 12.57498384 71.28847895 18.40122302 81 26 C81.63292969 26.46921875 82.26585937 26.9384375 82.91796875 27.421875 C92.20183371 34.7178042 99.54592343 46.98054742 101.64453125 58.5546875 C104.04120894 82.72310797 102.21115395 106.60209369 88 127 C85.21239982 124.21239982 84.74660422 120.9553027 83.75 117.25 C72.00921569 76.09464315 41.14928212 42.03111543 4.265625 21.26171875 C-3.85841348 16.84965453 -12.4178938 13.40663758 -21 10 C-18.21160189 7.03732701 -15.29726813 4.2502086 -12.1875 1.625 C-11.58292969 1.10164062 -10.97835937 0.57828125 -10.35546875 0.0390625 C-6.79412873 -1.53194321 -3.69420973 -0.70552148 0 0 Z " fill="#F28422" transform="translate(241,188)"/>
<path d="M0 0 C0.13319447 6.1269454 -0.28898025 11.73164053 -1.375 17.75 C-2.52117159 24.52928362 -3.39656151 31.27626608 -4 38.125 C-4.86680611 47.92601593 -6.00803154 57.67945377 -7.203125 67.4453125 C-8.06406708 74.48062274 -8.87865366 81.52103517 -9.6875 88.5625 C-9.81890381 89.70549561 -9.95030762 90.84849121 -10.08569336 92.02612305 C-10.3909474 94.68402678 -10.69575123 97.34198104 -11 100 C-14.08252089 100.50509639 -17.16613525 101.00317999 -20.25 101.5 C-21.12269531 101.64308594 -21.99539062 101.78617187 -22.89453125 101.93359375 C-23.73886719 102.06894531 -24.58320313 102.20429688 -25.453125 102.34375 C-26.61569824 102.53227539 -26.61569824 102.53227539 -27.80175781 102.72460938 C-30 103 -30 103 -34 103 C-33.26780652 92.69148653 -33.26780652 92.69148653 -31.9375 87.625 C-29.16130835 75.91489838 -31.3218421 63.61536794 -34.625 52.25 C-35.95552891 47.64329438 -36.27040834 43.77721407 -36 39 C-36.66 39 -37.32 39 -38 39 C-38.11472656 39.90105469 -38.22945312 40.80210938 -38.34765625 41.73046875 C-39.14419925 47.30067015 -40.31805092 52.80011082 -41.4375 58.3125 C-41.65470703 59.38951172 -41.87191406 60.46652344 -42.09570312 61.57617188 C-42.52744189 63.71671454 -42.96037435 65.8570168 -43.39453125 67.99707031 C-43.76698555 69.84432349 -44.13513961 71.69245749 -44.49609375 73.54199219 C-45.87647336 80.6078103 -47.49142326 87.6139075 -49.125 94.625 C-49.40214844 95.81996094 -49.67929688 97.01492187 -49.96484375 98.24609375 C-50.64188556 101.16437741 -51.32029848 104.08233489 -52 107 C-53.01835937 107.28746094 -54.03671875 107.57492188 -55.0859375 107.87109375 C-59.72190624 109.19515629 -64.31532735 110.65031086 -68.9140625 112.09765625 C-71.60346969 112.88405253 -74.2446901 113.50322479 -77 114 C-75.96046666 106.40867097 -74.29220301 99.31262843 -71.9375 92.0234375 C-71.15295732 89.49328735 -70.52413057 87.03007441 -70 84.4375 C-69.28271902 80.94630939 -68.23873826 77.6769853 -67.0625 74.3125 C-65.6218344 70.1066008 -64.50477591 65.98223335 -63.625 61.625 C-62.31369884 55.1554313 -60.67284762 48.80600664 -58.9375 42.4375 C-58.67984863 41.48504395 -58.42219727 40.53258789 -58.15673828 39.55126953 C-57.90778809 38.64618652 -57.65883789 37.74110352 -57.40234375 36.80859375 C-57.18054443 36.00220459 -56.95874512 35.19581543 -56.73022461 34.36499023 C-56 32 -56 32 -54.96118164 29.41259766 C-53.28188933 25.1975185 -52.65303455 20.71681181 -51.78125 16.27734375 C-50.57325411 11.20980101 -50.57325411 11.20980101 -49 9 C-46.96875 8.0234375 -46.96875 8.0234375 -44.5 7.375 C-43.61570313 7.13910156 -42.73140625 6.90320313 -41.8203125 6.66015625 C-37.56597522 5.66433492 -33.29948825 4.77756702 -29 4 C-27.15042994 10.19564499 -25.76458338 16.44765313 -24.41210938 22.76757812 C-23.55365356 26.9978921 -23.55365356 26.9978921 -22 31 C-21.88930176 30.26885986 -21.77860352 29.53771973 -21.66455078 28.78442383 C-21.15756457 25.45947002 -20.64137966 22.13600736 -20.125 18.8125 C-19.95097656 17.66201172 -19.77695313 16.51152344 -19.59765625 15.32617188 C-19.42363281 14.21435547 -19.24960938 13.10253906 -19.0703125 11.95703125 C-18.91320801 10.93585205 -18.75610352 9.91467285 -18.59423828 8.86254883 C-18.01164943 6.05611735 -17.14892128 3.61979304 -16 1 C-10.65097076 0.40801257 -5.39115154 -0.14187241 0 0 Z " fill="#F08323" transform="translate(209,59)"/>
<path d="M0 0 C5.61 0.33 11.22 0.66 17 1 C18.90201509 8.17578421 20.41653272 15.20845048 21.4609375 22.5546875 C22.25165547 27.60840669 23.33408418 32.5909342 24.4140625 37.58984375 C24.96703972 40.80817119 25.10938228 43.74339115 25 47 C25.66 47 26.32 47 27 47 C27.38671875 46.17242187 27.38671875 46.17242187 27.78125 45.328125 C29.17963125 42.65685825 30.78763305 40.23148091 32.5 37.75 C33.1084375 36.85796875 33.716875 35.9659375 34.34375 35.046875 C34.8903125 34.37140625 35.436875 33.6959375 36 33 C36.66 33 37.32 33 38 33 C37.66226563 31.98421875 37.32453125 30.9684375 36.9765625 29.921875 C34.28453474 21.66779809 32.09710851 13.64587007 31 5 C33.60662244 5.25496307 36.20905522 5.52820293 38.8125 5.8125 C39.55048828 5.88275391 40.28847656 5.95300781 41.04882812 6.02539062 C46.55291422 6.6480248 46.55291422 6.6480248 48.65258789 8.30102539 C50.14144719 10.17835315 50.71808228 11.61163697 51.3515625 13.9140625 C51.56296875 14.67589844 51.774375 15.43773438 51.9921875 16.22265625 C52.20101562 17.01542969 52.40984375 17.80820313 52.625 18.625 C52.8415625 19.39457031 53.058125 20.16414063 53.28125 20.95703125 C57.04307595 34.82005652 57.04307595 34.82005652 54.56640625 39.99609375 C53.90511719 40.80175781 53.24382812 41.60742188 52.5625 42.4375 C49.86080935 45.37871466 49.86080935 45.37871466 49 49 C51.86370863 51.28113118 54.77679174 53.45097326 57.75976562 55.57226562 C64.18331954 60.37162559 65.88757651 65.97804365 67.8125 73.625 C69.70227214 80.98751428 71.77808116 88.28979595 73.89379883 95.59033203 C78 109.82570537 78 109.82570537 78 115 C73.78114031 114.2130204 69.64478867 113.16640906 65.5 112.0625 C64.84902344 111.89298828 64.19804687 111.72347656 63.52734375 111.54882812 C61.67807152 111.05755682 59.83865841 110.52961356 58 110 C56.59814453 109.63648438 56.59814453 109.63648438 55.16796875 109.265625 C53 108 53 108 51.70703125 105.19921875 C51.41183594 104.04035156 51.11664063 102.88148438 50.8125 101.6875 C50.49023438 100.42808594 50.16796875 99.16867188 49.8359375 97.87109375 C49.07239958 94.33527093 48.45665832 90.82878811 47.9375 87.25 C46.51903467 75.60490574 46.51903467 75.60490574 39.3125 66.875 C37.89194989 65.89171651 36.45969842 64.92416965 35 64 C34.71125 64.598125 34.4225 65.19625 34.125 65.8125 C33 68 33 68 31 71 C31.09254582 73.28066494 31.09254582 73.28066494 31.6875 75.875 C32.840671 81.98002292 33.76206885 88.09715078 34.625 94.25 C34.75994873 95.20374512 34.89489746 96.15749023 35.03393555 97.14013672 C35.35727655 99.42657505 35.67928137 101.71319262 36 104 C30.46271164 103.41014978 24.94887293 102.74012713 19.4375 101.9375 C18.21933594 101.76089844 17.00117188 101.58429688 15.74609375 101.40234375 C14.83988281 101.26957031 13.93367188 101.13679688 13 101 C10.96447918 96.68883051 10.4420156 92.45882079 10 87.76953125 C9.91878906 86.97906906 9.83757812 86.18860687 9.75390625 85.37419128 C9.49567416 82.85427133 9.24701439 80.33354241 9 77.8125 C7.75810751 64.55998241 7.75810751 64.55998241 5.46875 51.46264648 C4.41202667 45.91099637 4.02957049 40.24659443 3.5 34.625 C2.74349941 26.64433442 1.9092804 18.76732209 0.38476562 10.89208984 C-0.09434455 7.2908594 0 3.63296123 0 0 Z " fill="#F08323" transform="translate(292,59)"/>
<path d="M0 0 C6.1102198 0.53526184 11.04373744 2.46088326 16.625 4.9375 C17.99338013 5.53594727 17.99338013 5.53594727 19.3894043 6.14648438 C35.01112918 13.03294875 50.26272642 20.37025281 65 29 C63.5158627 32.48654476 61.53785948 34.64191072 58.8125 37.25 C55.9973201 39.99825803 53.28962656 42.74572999 50.75 45.75 C47.39317095 49.61902127 43.92038414 53.36650144 40.375 57.0625 C39.82424805 57.6596582 39.27349609 58.25681641 38.70605469 58.87207031 C37.0859375 60.53515625 37.0859375 60.53515625 34 63 C30.3062411 63.03283341 27.86839918 61.52740421 24.8125 59.5625 C3.7776346 46.45053688 3.7776346 46.45053688 -19 37 C-18.40949312 33.0744513 -17.21264374 30.2271302 -15.234375 26.796875 C-14.67363281 25.81589844 -14.11289062 24.83492187 -13.53515625 23.82421875 C-12.94605469 22.80972656 -12.35695313 21.79523438 -11.75 20.75 C-10.59870562 18.74493675 -9.44766059 16.7397303 -8.296875 14.734375 C-7.74193359 13.77208984 -7.18699219 12.80980469 -6.61523438 11.81835938 C-4.37011222 7.90093341 -2.17753147 3.95531087 0 0 Z " fill="#9DA1A2" transform="translate(383,183)"/>
<path d="M0 0 C8.68781306 0.50660945 17.34655819 1.0535298 26 2 C26.495 10.415 26.495 10.415 27 19 C21.06 18.67 15.12 18.34 9 18 C9.12117188 19.24007812 9.24234375 20.48015625 9.3671875 21.7578125 C10.44974947 33.09857488 11.35571614 44.44636585 12.125 55.8125 C12.21249512 57.0804541 12.29999023 58.3484082 12.39013672 59.65478516 C12.81679266 66.11986744 13.09806004 72.52103287 13 79 C13.64501465 78.98976807 14.2900293 78.97953613 14.95458984 78.96899414 C21.68445157 78.87665717 28.30409943 79.35572091 35 80 C35.91160286 87.35793733 36.11459026 94.58982977 36 102 C35.31679688 101.93941406 34.63359375 101.87882812 33.9296875 101.81640625 C28.40068676 101.35683458 22.92657671 100.97885419 17.37890625 100.88671875 C16.40002441 100.86343506 15.42114258 100.84015137 14.41259766 100.81616211 C12.44776854 100.77246699 10.48240112 100.74816358 8.51708984 100.74438477 C1.58016843 100.56286356 1.58016843 100.56286356 -1.48828125 97.5859375 C-1.98714844 96.73257813 -2.48601562 95.87921875 -3 95 C-4.65893182 93.65705519 -6.32476605 92.32255312 -8 91 C-10.41423672 87.37864493 -10.28917898 84.73098293 -10.2746582 80.546875 C-10.27976913 79.79047729 -10.28488007 79.03407959 -10.29014587 78.25476074 C-10.30405247 75.75309348 -10.30308453 73.25170133 -10.30078125 70.75 C-10.30466721 69.01269427 -10.30900167 67.27538948 -10.31376648 65.53808594 C-10.3212307 61.89645304 -10.32093568 58.2549171 -10.31567383 54.61328125 C-10.30987477 49.94229003 -10.32681961 45.27169477 -10.3500185 40.60076904 C-10.36473531 37.01315992 -10.36563043 33.42564665 -10.36250877 29.8380127 C-10.36302289 28.1155926 -10.36827744 26.39316726 -10.37832069 24.67077637 C-10.39063013 22.26462903 -10.38392738 19.85925948 -10.37231445 17.453125 C-10.38378006 16.38233704 -10.38378006 16.38233704 -10.39547729 15.28991699 C-10.36426238 12.37019078 -10.32258308 10.45351794 -8.60173035 8.03417969 C-7 7 -7 7 -5 7 C-4.731875 6.360625 -4.46375 5.72125 -4.1875 5.0625 C-3 3 -3 3 0 2 C0 1.34 0 0.68 0 0 Z " fill="#F18322" transform="translate(260,56)"/>
<path d="M0 0 C0.11069878 13.00095715 -0.11187766 25.92802074 -0.7979126 38.91098022 C-1.04113868 43.53115908 -1.26591449 48.1522134 -1.48828125 52.7734375 C-1.5331366 53.70546494 -1.57799194 54.63749237 -1.62420654 55.59776306 C-2.07916973 65.29094809 -2.3738633 74.987144 -2.625 84.6875 C-2.64537323 85.47424103 -2.66574646 86.26098206 -2.68673706 87.07156372 C-2.79694202 91.38093599 -2.89946852 95.69037411 -3 100 C-10.92 100.33 -18.84 100.66 -27 101 C-27.17958512 91.07492902 -26.67985932 81.627852 -25.40472412 71.79510498 C-23.75627927 59.00643891 -22.56204416 46.25037882 -21.875 33.375 C-21.29507792 22.51477066 -20.54562953 11.77007812 -19 1 C-17.1461788 0.82953368 -15.29191981 0.66382604 -13.4375 0.5 C-11.88869141 0.36078125 -11.88869141 0.36078125 -10.30859375 0.21875 C-6.86254023 -0.00908825 -3.45258594 -0.01433352 0 0 Z " fill="#EF8323" transform="translate(239,56)"/>
<path d="M0 0 C-0.76183594 1.4540625 -0.76183594 1.4540625 -1.5390625 2.9375 C-17.56890669 33.97309202 -23.14028601 65.55157625 -12.65625 99.51171875 C-11.83322985 102.05052666 -10.95540339 104.55418935 -10.05078125 107.06640625 C-9.22271806 109.37821091 -8.5322854 111.60764035 -8 114 C-16.92481445 107.12045553 -22.96457286 97.99015833 -28 88 C-28.5053125 87.04738281 -29.010625 86.09476562 -29.53125 85.11328125 C-38.50316494 67.23542133 -40.79522951 41.97525651 -35.234375 22.6171875 C-32.81817024 17.49422172 -29.11215502 13.81077558 -25 10 C-24.31164062 9.31808594 -23.62328125 8.63617188 -22.9140625 7.93359375 C-15.8993707 1.29320368 -9.56126285 -0.59757893 0 0 Z " fill="#EF8323" transform="translate(196,218)"/>
<path d="M0 0 C1.9024672 3.39547447 3.80471947 6.79106927 5.70678711 10.18676758 C6.66574368 11.89866143 7.62486215 13.61046458 8.58398438 15.32226562 C9.81620698 17.52220231 11.0465493 19.72319335 12.27490234 21.92529297 C13.36226681 23.86334393 14.46014224 25.79557035 15.57275391 27.71923828 C16.25797119 28.91202393 16.25797119 28.91202393 16.95703125 30.12890625 C17.35510986 30.81154541 17.75318848 31.49418457 18.16333008 32.19750977 C19 34 19 34 19 37 C8.605 41.455 8.605 41.455 -2 46 C-5.71928914 42.28071086 -8.73574804 38.82153368 -11.6875 34.5625 C-12.55431261 33.3265599 -13.42151219 32.09089114 -14.2890625 30.85546875 C-14.95276855 29.90679932 -14.95276855 29.90679932 -15.62988281 28.93896484 C-17.0125309 26.98226649 -18.41962496 25.04572421 -19.8359375 23.11328125 C-20.52103394 22.17343384 -20.52103394 22.17343384 -21.2199707 21.21459961 C-22.0969144 20.01296827 -22.97808937 18.81441039 -23.86401367 17.61938477 C-25.93966671 14.75645866 -27.27943404 12.44925133 -28 9 C-24.46556138 7.48255008 -20.92141301 5.98922514 -17.375 4.5 C-16.37597656 4.07074219 -15.37695312 3.64148438 -14.34765625 3.19921875 C-13.37441406 2.79316406 -12.40117188 2.38710937 -11.3984375 1.96875 C-10.50817871 1.59169922 -9.61791992 1.21464844 -8.70068359 0.82617188 C-5.67962227 -0.09800744 -3.14160956 -0.1451835 0 0 Z " fill="#9CA0A2" transform="translate(119,182)"/>
<path d="M0 0 C9.19384254 0.3899229 17.3466753 3.09050745 26 6 C24.62894543 10.44178088 22.88001289 14.46227978 20.77734375 18.60546875 C20.47180069 19.2113533 20.16625763 19.81723785 19.85145569 20.44148254 C18.88396818 22.35878819 17.91112608 24.27330529 16.9375 26.1875 C15.96103103 28.11275888 14.98576444 30.03860355 14.01283264 31.96565247 C13.13349895 33.70654099 12.25032072 35.44548603 11.36694336 37.18432617 C9.9347852 39.97923904 9.9347852 39.97923904 9 43 C1.7000906 43.48666063 -6.08510084 42.51741291 -11.75 37.625 C-13.51202139 33.92475507 -12.5321261 31.52284453 -11.21557617 27.75512695 C-10.91111572 27.00706787 -10.60665527 26.25900879 -10.29296875 25.48828125 C-9.95330078 24.64716797 -9.61363281 23.80605469 -9.26367188 22.93945312 C-8.90853516 22.07255859 -8.55339844 21.20566406 -8.1875 20.3125 C-7.84396484 19.46494141 -7.50042969 18.61738281 -7.14648438 17.74414062 C-6.45386725 16.03533852 -5.75969976 14.32716398 -5.06396484 12.61962891 C-3.35834051 8.42014539 -1.67900419 4.21018326 0 0 Z " fill="#9CA1A2" transform="translate(344,171)"/>
<path d="M0 0 C2.7590546 5.22249621 4.96708734 10.4154447 6.91796875 15.98828125 C8.50079161 20.39390011 10.27908374 24.7204041 12.046875 29.0546875 C13.00685559 32.02118489 13.60288219 33.93361646 13 37 C9.6785675 39.62411518 5.92928233 40.87036323 1.9375 42.1875 C0.91527344 42.53167969 -0.10695312 42.87585938 -1.16015625 43.23046875 C-4 44 -4 44 -8 44 C-10.34382112 40.03975053 -12.39633862 36.17869222 -14.18579102 31.92895508 C-15.02446021 29.94205094 -15.88585325 27.96641931 -16.75390625 25.9921875 C-17.05103516 25.31542969 -17.34816406 24.63867188 -17.65429688 23.94140625 C-18.26327582 22.55581545 -18.87265541 21.17040066 -19.48242188 19.78515625 C-20.32752675 17.85927456 -21.16549149 15.93049285 -22 14 C-22.40089844 13.07445312 -22.80179688 12.14890625 -23.21484375 11.1953125 C-24 9 -24 9 -24 6 C-16.17315058 2.56950855 -8.6159444 0 0 0 Z " fill="#9CA0A2" transform="translate(157,170)"/>
<path d="M0 0 C8.70815713 6.0211251 18.93468668 13.92718207 23.24511719 23.83886719 C19.86717791 22.26514489 16.90487899 20.27870839 13.80761719 18.21386719 C-1.49625886 8.60430188 -18.07555191 4.78537462 -35.75634766 2.28759766 C-40.7190751 1.54492602 -45.64109258 0.60268628 -50.56738281 -0.34863281 C-51.45103516 -0.51588867 -52.3346875 -0.68314453 -53.24511719 -0.85546875 C-56.51022593 -1.48237997 -59.59521499 -2.10791021 -62.75488281 -3.16113281 C-62.75488281 -3.82113281 -62.75488281 -4.48113281 -62.75488281 -5.16113281 C-38.89536587 -16.55617259 -22.05784235 -14.5947549 0 0 Z " fill="#EB8225" transform="translate(303.7548828125,188.1611328125)"/>
<path d="M0 0 C3.01934604 1.69528855 4.96043867 4.2847039 7.09375 6.9453125 C7.57424805 7.52885498 8.05474609 8.11239746 8.54980469 8.71362305 C10.01109569 10.49194562 11.45956032 12.28010287 12.90625 14.0703125 C14.48908352 16.00822084 16.07237375 17.9457563 17.65625 19.8828125 C18.72746094 21.20732422 18.72746094 21.20732422 19.8203125 22.55859375 C22.36245323 25.61963587 25.04377641 28.53456242 27.7890625 31.4140625 C28.15773437 31.960625 28.52640625 32.5071875 28.90625 33.0703125 C27.65897425 36.81213976 26.40188103 37.35337341 23.09375 39.3828125 C21.78470703 40.21232422 21.78470703 40.21232422 20.44921875 41.05859375 C17.90625 42.0703125 17.90625 42.0703125 15.94781494 41.31985474 C13.90114676 40.06718906 12.38472577 38.79013128 10.69824219 37.08935547 C10.09792175 36.48888397 9.49760132 35.88841248 8.87908936 35.26974487 C8.24352112 34.62385406 7.60795288 33.97796326 6.953125 33.3125 C6.29290344 32.64944855 5.63268188 31.98639709 4.95245361 31.30325317 C2.84897176 29.18859418 0.75255858 27.06708038 -1.34375 24.9453125 C-2.77037261 23.50865693 -4.19745072 22.07245352 -5.625 20.63671875 C-9.11988661 17.11980446 -12.60845062 13.59672703 -16.09375 10.0703125 C-14.70403241 5.90115972 -12.59806741 5.37519529 -8.78125 3.3203125 C-7.05455078 2.36898437 -7.05455078 2.36898437 -5.29296875 1.3984375 C-2.09375 0.0703125 -2.09375 0.0703125 0 0 Z " fill="#9BA0A2" transform="translate(68.09375,202.9296875)"/>
<path d="M0 0 C13.2 0 26.4 0 40 0 C38.44440774 3.11118452 37.09413638 5.33383203 34.98828125 8.01171875 C34.09786133 9.14963867 34.09786133 9.14963867 33.18945312 10.31054688 C32.57005859 11.09494141 31.95066406 11.87933594 31.3125 12.6875 C30.71244141 13.45255859 30.11238281 14.21761719 29.49414062 15.00585938 C28.28231273 16.5509074 27.06762952 18.09372018 25.85009766 19.63427734 C24.56827067 21.27335144 23.30337204 22.92575202 22.05224609 24.58837891 C21.43043457 25.41128418 20.80862305 26.23418945 20.16796875 27.08203125 C19.60746826 27.83331299 19.04696777 28.58459473 18.46948242 29.35864258 C17.98455322 29.90029053 17.49962402 30.44193848 17 31 C16.34 31 15.68 31 15 31 C11.12577387 24.41381558 11.12577387 24.41381558 10.24609375 21.51953125 C8.52224228 18.03400085 6.23184817 16.87752392 2.9375 14.875 C-2.89696366 11.30910901 -2.89696366 11.30910901 -4 8 C-2.68 5.36 -1.36 2.72 0 0 Z " fill="#9BA0A2" transform="translate(425,104)"/>
<path d="M0 0 C1.65 0 3.3 0 5 0 C5.02934711 3.49998201 5.04691445 6.99993179 5.0625 10.5 C5.07087891 11.48226563 5.07925781 12.46453125 5.08789062 13.4765625 C5.13690526 28.18095159 5.13690526 28.18095159 2.4375 32.5 C-1.15251931 34.70924266 -3.82935544 34.27804297 -8 34 C-8 33.34 -8 32.68 -8 32 C-8.66 32.495 -9.32 32.99 -10 33.5 C-14.07400419 35.5370021 -16.46723344 35.43865483 -21 35 C-22.76269531 33.82568359 -22.76269531 33.82568359 -24 32 C-24.08105469 29.44384766 -24.08105469 29.44384766 -23.671875 26.4140625 C-23.53136719 25.31835938 -23.39085937 24.22265625 -23.24609375 23.09375 C-23.08238281 21.9490625 -22.91867188 20.804375 -22.75 19.625 C-22.60175781 18.48804687 -22.45351562 17.35109375 -22.30078125 16.1796875 C-21.66924435 11.41801109 -20.98341943 6.70298283 -20 2 C-18.02 2 -16.04 2 -14 2 C-13.87486966 9.50782065 -13.87486966 9.50782065 -14.46875 11.84375 C-15.19673644 14.79851851 -15.35017335 17.71676219 -15.5625 20.75 C-15.64628906 21.92046875 -15.73007813 23.0909375 -15.81640625 24.296875 C-15.87699219 25.18890625 -15.93757812 26.0809375 -16 27 C-14.68 27 -13.36 27 -12 27 C-12.02320313 26.37996094 -12.04640625 25.75992188 -12.0703125 25.12109375 C-12.23761318 16.91141034 -11.22434345 9.10034375 -10 1 C-8.02 1 -6.04 1 -4 1 C-4.1391669 4.41697238 -4.28749585 7.83348757 -4.4375 11.25 C-4.47681641 12.21808594 -4.51613281 13.18617187 -4.55664062 14.18359375 C-4.59853516 15.11816406 -4.64042969 16.05273438 -4.68359375 17.015625 C-4.72025146 17.87446289 -4.75690918 18.73330078 -4.79467773 19.61816406 C-4.98703514 21.84960143 -5.38846244 23.84982524 -6 26 C-4.68 26 -3.36 26 -2 26 C-2.02320313 25.29617187 -2.04640625 24.59234375 -2.0703125 23.8671875 C-2.21882623 15.74136471 -1.32702577 8.0095484 0 0 Z " fill="#294E93" transform="translate(233,13)"/>
<path d="M0 0 C12.54 0 25.08 0 38 0 C36.61135903 4.1659229 35.22363054 7.88842698 33.3984375 11.8359375 C32.90859375 12.89941406 32.41875 13.96289062 31.9140625 15.05859375 C31.40617187 16.15300781 30.89828125 17.24742188 30.375 18.375 C29.859375 19.49261719 29.34375 20.61023438 28.8125 21.76171875 C27.54446772 24.50912202 26.2735532 27.2551527 25 30 C24.01 30 23.02 30 22 30 C20.0157552 27.81642468 18.22402802 25.65001594 16.4375 23.3125 C15.91317383 22.64001221 15.38884766 21.96752441 14.84863281 21.2746582 C13.76272986 19.87926963 12.68090517 18.48069847 11.60302734 17.07910156 C10.07830596 15.10156161 8.53671883 13.13868401 6.98828125 11.1796875 C6.07496739 10.01605917 5.16218017 8.85201724 4.25 7.6875 C3.82001709 7.14327393 3.39003418 6.59904785 2.94702148 6.03833008 C0 2.230162 0 2.230162 0 0 Z " fill="#9CA0A2" transform="translate(37,104)"/>
<path d="M0 0 C0.86367188 -0.02835938 1.72734375 -0.05671875 2.6171875 -0.0859375 C6.0694401 0.54858868 7.10061453 1.50936991 9.125 4.375 C9.74125893 7.19758219 10.13824704 9.71092834 10.375 12.5625 C10.48666504 13.70162842 10.48666504 13.70162842 10.60058594 14.86376953 C11.92964786 29.1680282 11.92964786 29.1680282 9.125 33.375 C4.44447609 34.19966374 -0.25826469 34.22186135 -4.5 32 C-6.66857626 27.85999077 -6.74537859 24.00192076 -6.875 19.375 C-6.89546387 18.6845459 -6.91592773 17.9940918 -6.93701172 17.28271484 C-6.99691712 14.9800699 -7.03442052 12.67824377 -7.0625 10.375 C-7.07571289 9.62065674 -7.08892578 8.86631348 -7.10253906 8.08911133 C-7.10513461 6.1828998 -6.99806138 4.27723685 -6.875 2.375 C-4.38459058 -0.11540942 -3.44345643 0.05108986 0 0 Z " fill="#244B91" transform="translate(275.875,13.625)"/>
<path d="M0 0 C5.69847658 0.61392427 11.26071056 1.97421008 16.828125 3.3046875 C14.13674868 9.08565398 10.74648947 14.20152156 5.828125 18.3046875 C2.17406583 19.1634756 -1.05787373 19.24267783 -4.8046875 19.2265625 C-12.31033161 19.40070737 -17.84702515 23.48990832 -23.54296875 28.03515625 C-25.171875 29.3046875 -25.171875 29.3046875 -27.171875 30.3046875 C-23.90894974 19.52284752 -16.8732227 11.30453705 -9.171875 3.3046875 C-8.66785156 2.72460938 -8.16382813 2.14453125 -7.64453125 1.546875 C-5.33507908 -0.40115097 -2.89787842 -0.08636062 0 0 Z " fill="#EA8126" transform="translate(194.171875,195.6953125)"/>
<path d="M0 0 C1.89657143 0.03327318 3.79252321 0.10292323 5.6875 0.1875 C7.27111328 0.23970703 7.27111328 0.23970703 8.88671875 0.29296875 C13.03653556 1.23539892 14.47962519 2.58981544 17 6 C17.63036307 8.8092893 18.00740822 11.17073203 18.1875 14 C18.56207593 18.66713003 19.11540172 22.67212807 21 27 C21.49313497 29.66572015 21.72523632 32.29815717 22 35 C18.535 34.505 18.535 34.505 15 34 C14.67 30.7 14.34 27.4 14 24 C12.68 24 11.36 24 10 24 C10 26.97 10 29.94 10 33 C8.02 33 6.04 33 4 33 C3.32091103 29.1896065 2.65902937 25.37640981 2 21.5625 C1.80921875 20.49322266 1.6184375 19.42394531 1.421875 18.32226562 C0.35857789 12.11337002 -0.21193289 6.29838048 0 0 Z " fill="#224990" transform="translate(290,16)"/>
<path d="M0 0 C1.77925711 0.20843589 3.54949775 0.49465653 5.3125 0.8125 C6.92318359 1.09673828 6.92318359 1.09673828 8.56640625 1.38671875 C10.26603516 1.69029297 10.26603516 1.69029297 12 2 C14.24951836 2.37787851 16.49949578 2.75303795 18.75 3.125 C21.375 3.5625 21.375 3.5625 24 4 C23.42242268 7.13308453 22.69919316 10.06515457 21.625 13.0625 C19.72030424 18.61708075 18.36174512 24.2922598 17 30 C13.87982776 28.57021453 11.36283447 26.83061873 8.6875 24.6875 C4.86928107 21.66579694 0.98466616 18.79774433 -3 16 C-2.855625 15.01 -2.71125 14.02 -2.5625 13 C-2.15860169 10.21253281 -1.8182336 7.42343513 -1.5 4.625 C-1 1 -1 1 0 0 Z " fill="#9BA0A2" transform="translate(304,162)"/>
<path d="M0 0 C0.5321441 2.08047297 1.05031786 4.16452293 1.5625 6.25 C1.85253906 7.41015625 2.14257812 8.5703125 2.44140625 9.765625 C3.25175558 14.45771764 3.25175558 14.45771764 2 17 C-0.07421875 18.74609375 -0.07421875 18.74609375 -2.6875 20.4375 C-5.7684429 22.48264664 -8.71412979 24.50418408 -11.5 26.9375 C-14 29 -14 29 -16 29 C-19.93814596 20.74864656 -21.80321296 12.03235503 -23 3 C-7.25512528 -0.44419134 -7.25512528 -0.44419134 0 0 Z " fill="#9AA0A2" transform="translate(198,162)"/>
<path d="M0 0 C-0.43540858 1.33401777 -0.87347586 2.66716774 -1.3125 4 C-1.55613281 4.7425 -1.79976562 5.485 -2.05078125 6.25 C-2.57515332 7.76916846 -3.111645 9.28491148 -3.69799805 10.78125 C-5.6550317 15.78014748 -7.02143019 20.76402893 -8.1875 26 C-8.36474609 26.77472656 -8.54199219 27.54945313 -8.72460938 28.34765625 C-9.1546759 30.23065021 -9.578055 32.11516954 -10 34 C-14.23496273 32.46445924 -16.36338376 29.31227883 -18.9375 25.8125 C-19.37553955 25.22678223 -19.8135791 24.64106445 -20.26489258 24.03759766 C-21.12730079 22.88162755 -21.98638276 21.72316697 -22.84179688 20.56201172 C-23.80861576 19.25811054 -24.79985403 17.97236145 -25.796875 16.69140625 C-27.1875 14.875 -27.1875 14.875 -29 12 C-28.67 11.01 -28.34 10.02 -28 9 C-25.47593245 7.85837227 -23.04679441 6.89862695 -20.4375 6 C-19.40012695 5.62875 -19.40012695 5.62875 -18.34179688 5.25 C-16.93939608 4.74811565 -15.53489737 4.25205697 -14.12841797 3.76171875 C-11.97339326 2.99047797 -9.85127067 2.15348284 -7.72265625 1.3125 C-4 0 -4 0 0 0 Z " fill="#9A9FA2" transform="translate(162,218)"/>
<path d="M0 0 C1.98 0 3.96 0 6 0 C5.50948619 5.98426848 4.42843389 11.37394479 2.765625 17.13671875 C1.54465145 21.70291063 0.76629021 26.33915248 0 31 C-5.75 33 -5.75 33 -8 33 C-7.855625 32.35933594 -7.71125 31.71867187 -7.5625 31.05859375 C-6.45964509 25.91959623 -5.77160689 21.25304157 -6 16 C-8.01026056 19.58587018 -9.02803791 23.30093646 -10.125 27.25 C-10.47820312 28.51328125 -10.83140625 29.7765625 -11.1953125 31.078125 C-11.46085938 32.04234375 -11.72640625 33.0065625 -12 34 C-15.465 34.495 -15.465 34.495 -19 35 C-17.67538182 27.90973609 -16.04772989 20.95140806 -14.125 14 C-13.88136719 13.06027344 -13.63773438 12.12054688 -13.38671875 11.15234375 C-13.01353516 9.80849609 -13.01353516 9.80849609 -12.6328125 8.4375 C-12.41512207 7.63183594 -12.19743164 6.82617188 -11.97314453 5.99609375 C-10.73626572 3.45903374 -9.62957672 2.9137574 -7 2 C-4.8125 2.25 -4.8125 2.25 -3 3 C-2.67 3.66 -2.34 4.32 -2 5 C-1.34 3.35 -0.68 1.7 0 0 Z " fill="#244B91" transform="translate(184,21)"/>
<path d="M0 0 C2.97 0.495 2.97 0.495 6 1 C6.50435694 2.9363704 7.00333874 4.87414146 7.5 6.8125 C7.7784375 7.89144531 8.056875 8.97039063 8.34375 10.08203125 C9 13 9 13 9 16 C10.32 16 11.64 16 13 16 C12.01 11.71 11.02 7.42 10 3 C12.97 3.495 12.97 3.495 16 4 C17.60730716 8.36702324 19.07678419 12.53212611 19.5 17.1875 C19.78003477 20.97430103 19.78003477 20.97430103 21.5 23.9375 C23.44963456 27.91800389 23.71782271 31.62138686 24 36 C22.02 35.67 20.04 35.34 18 35 C17.82984375 34.28972656 17.6596875 33.57945313 17.484375 32.84765625 C17.24203125 31.92855469 16.9996875 31.00945313 16.75 30.0625 C16.51796875 29.14597656 16.2859375 28.22945312 16.046875 27.28515625 C15.70140625 26.53105469 15.3559375 25.77695312 15 25 C13.68 24.67 12.36 24.34 11 24 C11.33 26.97 11.66 29.94 12 33 C10.02 33 8.04 33 6 33 C5.73445313 31.865625 5.46890625 30.73125 5.1953125 29.5625 C4.83857214 28.04165952 4.48179958 26.52082659 4.125 25 C3.86396484 23.88431641 3.86396484 23.88431641 3.59765625 22.74609375 C3.33662109 21.63427734 3.33662109 21.63427734 3.0703125 20.5 C2.89516113 19.75298828 2.72000977 19.00597656 2.53955078 18.23632812 C2.01337354 16.05543061 1.44575511 13.88832842 0.875 11.71875 C-0.10576375 7.55050406 -0.15151766 4.24249446 0 0 Z " fill="#264C92" transform="translate(312,20)"/>
<path d="M0 0 C7.06037065 0.45550778 12.55846556 2.13945016 19 5 C20.37462531 5.58421575 21.74957739 6.16766382 23.125 6.75 C24.07375 7.1625 25.0225 7.575 26 8 C26 12.84474352 25.02835691 13.61160044 21.9375 17.1875 C21.1228125 18.1465625 20.308125 19.105625 19.46875 20.09375 C18.6540625 21.0528125 17.839375 22.011875 17 23 C15.63522358 24.72080506 14.27980289 26.44910773 12.9375 28.1875 C12.36902344 28.92355469 11.80054688 29.65960938 11.21484375 30.41796875 C10.81394531 30.94003906 10.41304688 31.46210938 10 32 C7.74742054 28.20250985 7.03489112 24.07518239 6.125 19.8125 C4.71166322 13.45045772 2.88515474 7.87335072 0 2 C0 1.34 0 0.68 0 0 Z " fill="#999FA2" transform="translate(341,220)"/>
<path d="M0 0 C0 1.98 0 3.96 0 6 C-2.31 6.33 -4.62 6.66 -7 7 C-7.33 9.31 -7.66 11.62 -8 14 C-6.02 14 -4.04 14 -2 14 C-2 15.65 -2 17.3 -2 19 C-3.11375 19.20625 -4.2275 19.4125 -5.375 19.625 C-9.26599195 20.61628301 -9.26599195 20.61628301 -10.4375 24.125 C-10.623125 25.07375 -10.80875 26.0225 -11 27 C-8.69 27 -6.38 27 -4 27 C-3.957279 28.66611905 -3.95936168 30.33382885 -4 32 C-5.95151627 33.95151627 -9.45168745 33.70968749 -12.0625 34.0625 C-13.35285156 34.23910156 -14.64320313 34.41570313 -15.97265625 34.59765625 C-17.47119141 34.79681641 -17.47119141 34.79681641 -19 35 C-19.2062333 29.8175568 -18.5348066 25.64933044 -17.0625 20.6875 C-15.37770372 14.80316586 -14.28802791 9.12059301 -14 3 C-12.906875 2.690625 -11.81375 2.38125 -10.6875 2.0625 C-3.52941176 0 -3.52941176 0 0 0 Z " fill="#274D93" transform="translate(209,16)"/>
<path d="M0 0 C0.79019531 0.45503906 1.58039063 0.91007813 2.39453125 1.37890625 C2.98621094 1.72824219 3.57789063 2.07757813 4.1875 2.4375 C3.09249981 3.60314536 1.97924749 4.75383048 0.8125 5.84765625 C-0.88094354 7.4346005 -0.88094354 7.4346005 -2.375 9.43359375 C-4.82627393 12.05339276 -6.39367738 13.2072111 -9.8125 14.4375 C-17.21606339 14.48121628 -24.58634194 12.92559785 -31.8125 11.4375 C-28.38587042 3.88739849 -19.10126283 0.37212582 -11.8828125 -3.03125 C-7.37337912 -4.18838762 -3.84578106 -2.23858898 0 0 Z " fill="#ED8224" transform="translate(225.8125,181.5625)"/>
<path d="M0 0 C1.65 0 3.3 0 5 0 C5 5.94 5 11.88 5 18 C6.32 18 7.64 18 9 18 C9 12.06 9 6.12 9 0 C10.98 0 12.96 0 15 0 C15.08703823 3.43734063 15.14040272 6.87439837 15.1875 10.3125 C15.22520508 11.77719727 15.22520508 11.77719727 15.26367188 13.27148438 C15.27817383 14.67817383 15.27817383 14.67817383 15.29296875 16.11328125 C15.31653442 17.40939331 15.31653442 17.40939331 15.34057617 18.73168945 C14.92705211 21.48584866 14.04213915 22.19764752 12 24 C11.42676193 26.27161255 11.42676193 26.27161255 11.3125 28.6875 C11.24675781 29.49574219 11.18101562 30.30398437 11.11328125 31.13671875 C11.07589844 31.75160156 11.03851563 32.36648437 11 33 C8.69 33 6.38 33 4 33 C4 30.03 4 27.06 4 24 C3.34 24 2.68 24 2 24 C-0.16926659 20.74610012 -0.24080049 19.86604043 -0.1953125 16.11328125 C-0.18886719 15.17548828 -0.18242187 14.23769531 -0.17578125 13.27148438 C-0.15902344 12.29501953 -0.14226562 11.31855469 -0.125 10.3125 C-0.11597656 9.32443359 -0.10695312 8.33636719 -0.09765625 7.31835938 C-0.0740843 4.87866235 -0.04118022 2.43945303 0 0 Z " fill="#224990" transform="translate(250,13)"/>
<path d="M0 0 C11.435792 -0.38190029 22.64200814 0.79877707 34 2 C33.67 6.29 33.34 10.58 33 15 C29.73050373 14.34610075 27.00230888 13.74113873 23.92578125 12.66015625 C23.17989746 12.40250488 22.43401367 12.14485352 21.66552734 11.87939453 C20.88902832 11.60981934 20.1125293 11.34024414 19.3125 11.0625 C12.91333673 8.87770381 6.69252938 7.07944022 0 6 C0 4.02 0 2.04 0 0 Z " fill="#9A9FA2" transform="translate(262,159)"/>
<path d="M0 0 C13.365 0.495 13.365 0.495 27 1 C25.35406622 4.29186755 23.82192871 6.6623519 21.5625 9.5 C19.79066326 11.73488695 18.03869109 13.94475404 16.40234375 16.28125 C15.93957031 16.8484375 15.47679687 17.415625 15 18 C14.34 18 13.68 18 13 18 C11.484375 16.34765625 11.484375 16.34765625 9.75 14.0625 C9.18796875 13.33160156 8.6259375 12.60070312 8.046875 11.84765625 C5.26049052 7.97117861 2.64813533 3.97220299 0 0 Z " fill="#999EA1" transform="translate(236,363)"/>
<path d="M0 0 C5.41345466 1.10354533 9.89432441 2.73595566 14.75390625 5.33984375 C17.98619943 6.99244477 21.26630068 8.44379444 24.59326172 9.89257812 C36.75112167 15.20004645 48.31836287 21.42648328 59.87109375 27.93359375 C59.37609375 29.41859375 59.37609375 29.41859375 58.87109375 30.93359375 C54.85246798 29.7574106 51.46148977 28.17433102 47.84985352 26.07519531 C30.91279002 16.30373216 13.16018482 8.76327228 -5.12890625 1.93359375 C-2.12890625 -0.06640625 -2.12890625 -0.06640625 0 0 Z " fill="#2B4B89" transform="translate(389.12890625,181.06640625)"/>
<path d="M0 0 C1.09731445 0.00676758 1.09731445 0.00676758 2.21679688 0.01367188 C3.99873419 0.02531852 5.78062863 0.04324809 7.5625 0.0625 C7.5625 2.3725 7.5625 4.6825 7.5625 7.0625 C5.04275747 7.71285371 2.52184065 8.35787493 0 9 C-0.70447266 9.18240234 -1.40894531 9.36480469 -2.13476562 9.55273438 C-6.55887098 10.6740514 -10.90805438 11.49706329 -15.4375 12.0625 C-15.4375 8.4325 -15.4375 4.8025 -15.4375 1.0625 C-10.23576905 0.19440561 -5.26771184 -0.06265348 0 0 Z " fill="#9A9FA2" transform="translate(228.4375,158.9375)"/>
<path d="M0 0 C-1.67914193 3.35828386 -5.43313748 4.14640993 -8.75 5.5625 C-9.46671875 5.87896484 -10.1834375 6.19542969 -10.921875 6.52148438 C-18.48530644 9.79572721 -18.48530644 9.79572721 -22 10 C-24.45703125 9.00390625 -24.45703125 9.00390625 -26.8125 7.5625 C-27.60269531 7.08941406 -28.39289063 6.61632812 -29.20703125 6.12890625 C-29.79871094 5.75636719 -30.39039063 5.38382813 -31 5 C-30 3 -30 3 -27.91015625 2.1484375 C-18.5532063 -0.39295631 -9.60691274 -0.28820738 0 0 Z " fill="#E07E2B" transform="translate(255,172)"/>
<path d="M0 0 C1.65 1.65 3.3 3.3 5 5 C5.763125 5.598125 6.52625 6.19625 7.3125 6.8125 C9.89324842 10.15791462 9.27650533 12.85241998 9 17 C6.03 17 3.06 17 0 17 C0 11.39 0 5.78 0 0 Z " fill="#959BA1" transform="translate(249,148)"/>
<path d="M0 0 C1.32 0 2.64 0 4 0 C4.33 3.3 4.66 6.6 5 10 C5.99 10.33 6.98 10.66 8 11 C7.34 11 6.68 11 6 11 C6 11.66 6 12.32 6 13 C7.65 13 9.3 13 11 13 C11 13.33 11 13.66 11 14 C4.13484138 14.26404456 -2.25846717 13.25841946 -9 12 C-9 11.67 -9 11.34 -9 11 C-7.35 11 -5.7 11 -4 11 C-4 10.34 -4 9.68 -4 9 C-2.68 9 -1.36 9 0 9 C0 6.03 0 3.06 0 0 Z " fill="#E3E8F0" transform="translate(300,40)"/>
<path d="M0 0 C1.65 0.33 3.3 0.66 5 1 C5.66 4.3 6.32 7.6 7 11 C8.65 11 10.3 11 12 11 C10.9375 12.5625 10.9375 12.5625 9 14 C5.625 13.75 5.625 13.75 2 13 C1.030625 12.814375 0.06125 12.62875 -0.9375 12.4375 C-1.9584375 12.2209375 -1.9584375 12.2209375 -3 12 C-2.34 11.67 -1.68 11.34 -1 11 C-1 10.34 -1 9.68 -1 9 C-0.34 9 0.32 9 1 9 C0.67 6.03 0.34 3.06 0 0 Z " fill="#D8DFEB" transform="translate(323,44)"/>
<path d="M0 0 C0 0.33 0 0.66 0 1 C-0.55945313 1.14695313 -1.11890625 1.29390625 -1.6953125 1.4453125 C-8.40651465 3.32272275 -14.65736946 5.93323694 -20.99609375 8.79296875 C-24 10 -24 10 -27 10 C-27.33 10.66 -27.66 11.32 -28 12 C-28 10.35 -28 8.7 -28 7 C-5.04277119 -3.09073073 -5.04277119 -3.09073073 0 0 Z " fill="#2F4B84" transform="translate(118,181)"/>
<path d="M0 0 C6.11090483 -0.09945415 11.97403427 -0.0712828 18 1 C17.67 1.66 17.34 2.32 17 3 C19.31 3.33 21.62 3.66 24 4 C24 4.33 24 4.66 24 5 C12.65171498 4.49945871 1.3183131 3.9869401 -10 3 C-10 4.98 -10 6.96 -10 9 C-9.01 9.33 -8.02 9.66 -7 10 C-8.32 10 -9.64 10 -11 10 C-11 7.36 -11 4.72 -11 2 C-5.555 1.505 -5.555 1.505 0 1 C0 0.67 0 0.34 0 0 Z " fill="#3E588B" transform="translate(272,156)"/>
<path d="M0 0 C0.66 0.66 1.32 1.32 2 2 C0.62328125 2.27263672 0.62328125 2.27263672 -0.78125 2.55078125 C-7.45823808 3.91844162 -13.68455611 5.44953227 -20 8 C-20.66 8 -21.32 8 -22 8 C-22.33 8.66 -22.66 9.32 -23 10 C-23 8.35 -23 6.7 -23 5 C-19.21361744 3.43882361 -15.39670473 2.07346637 -11.5 0.8125 C-10.3965625 0.44769531 -9.293125 0.08289063 -8.15625 -0.29296875 C-4.91808315 -1.01835018 -3.12335897 -1.0392867 0 0 Z " fill="#304C86" transform="translate(155,168)"/>
<path d="M0 0 C1.32 0 2.64 0 4 0 C4.88277755 4.51815281 5.10589503 8.77512694 5.0625 13.375 C5.05347656 14.62023438 5.04445313 15.86546875 5.03515625 17.1484375 C5.02355469 18.08945312 5.01195312 19.03046875 5 20 C4.01 20 3.02 20 2 20 C1.13580777 17.40742331 0.82419068 15.65962293 0.68359375 12.98828125 C0.64169922 12.23095703 0.59980469 11.47363281 0.55664062 10.69335938 C0.51732422 9.90767578 0.47800781 9.12199219 0.4375 8.3125 C0.39431641 7.51521484 0.35113281 6.71792969 0.30664062 5.89648438 C0.20072632 3.93118553 0.09987449 1.96561504 0 0 Z " fill="#DFE4EE" transform="translate(275,20)"/>
<path d="M0 0 C0.61746094 0.19335938 1.23492187 0.38671875 1.87109375 0.5859375 C6.9467128 2.14647791 11.96671346 3.49375877 17.1875 4.47265625 C19 5 19 5 21 7 C21.33 7.99 21.66 8.98 22 10 C21.35675781 9.81824219 20.71351563 9.63648438 20.05078125 9.44921875 C12.74600012 7.41721829 5.39794893 5.65836375 -2 4 C-1.34 3.67 -0.68 3.34 0 3 C0 2.01 0 1.02 0 0 Z " fill="#2C4B88" transform="translate(346,167)"/>
<path d="M0 0 C0.66 0.33 1.32 0.66 2 1 C1.67 5.29 1.34 9.58 1 14 C0.67 14 0.34 14 0 14 C-0.33 12.35 -0.66 10.7 -1 9 C-1.66 9.99 -2.32 10.98 -3 12 C-2.49202991 7.6822542 -1.80317221 3.96697886 0 0 Z " fill="#D4DCE9" transform="translate(177,36)"/>
<path d="M0 0 C1.32 0.33 2.64 0.66 4 1 C4.33 3.64 4.66 6.28 5 9 C3.68 9 2.36 9 1 9 C0.67 6.03 0.34 3.06 0 0 Z " fill="#CAD3E4" transform="translate(297,23)"/>
<path d="M0 0 C0.33 0.99 0.66 1.98 1 3 C-0.45537568 3.83848804 -1.91440373 4.67063934 -3.375 5.5 C-4.59316406 6.19609375 -4.59316406 6.19609375 -5.8359375 6.90625 C-8 8 -8 8 -10 8 C-10.33 7.01 -10.66 6.02 -11 5 C-9.54462432 4.16151196 -8.08559627 3.32936066 -6.625 2.5 C-5.81289063 2.0359375 -5.00078125 1.571875 -4.1640625 1.09375 C-2 0 -2 0 0 0 Z " fill="#2C4884" transform="translate(65,201)"/>
<path d="M0 0 C1.33998047 0.31324219 1.33998047 0.31324219 2.70703125 0.6328125 C3.60808594 0.83648437 4.50914062 1.04015625 5.4375 1.25 C6.46810547 1.50136719 6.46810547 1.50136719 7.51953125 1.7578125 C6.52953125 2.0878125 5.53953125 2.4178125 4.51953125 2.7578125 C4.51953125 3.4178125 4.51953125 4.0778125 4.51953125 4.7578125 C1.21953125 3.7678125 -2.08046875 2.7778125 -5.48046875 1.7578125 C-2.48046875 -0.2421875 -2.48046875 -0.2421875 0 0 Z " fill="#364E84" transform="translate(389.48046875,181.2421875)"/>
<path d="M0 0 C2.64 0.33 5.28 0.66 8 1 C7.34 1.66 6.68 2.32 6 3 C6.99 3.66 7.98 4.32 9 5 C-0.41002278 4.03644647 -0.41002278 4.03644647 -5 3 C-5 2.67 -5 2.34 -5 2 C-3.35 1.67 -1.7 1.34 0 1 C0 0.67 0 0.34 0 0 Z " fill="#3F598C" transform="translate(316,161)"/>
<path d="M0 0 C0.33 0.66 0.66 1.32 1 2 C-0.65 2.33 -2.3 2.66 -4 3 C-1.03 3.495 -1.03 3.495 2 4 C2 4.33 2 4.66 2 5 C-0.64 5 -3.28 5 -6 5 C-6 4.34 -6 3.68 -6 3 C-7.65 3 -9.3 3 -11 3 C-8.09907498 1.06604999 -7.10325263 0.69868059 -3.8125 0.375 C-2.554375 0.25125 -1.29625 0.1275 0 0 Z " fill="#BEC9DE" transform="translate(204,48)"/>
<path d="M0 0 C2.64 0.33 5.28 0.66 8 1 C8.33 2.32 8.66 3.64 9 5 C6.03 4.01 3.06 3.02 0 2 C0 1.34 0 0.68 0 0 Z " fill="#2B4D8D" transform="translate(359,172)"/>
<path d="M0 0 C0.66 0.33 1.32 0.66 2 1 C0.515 2.485 0.515 2.485 -1 4 C-0.34 4.66 0.32 5.32 1 6 C-0.98 6 -2.96 6 -5 6 C-3.63016497 2.83884224 -3.0109362 2.0072908 0 0 Z " fill="#C1743A" transform="translate(199,187)"/>
<path d="M0 0 C3.5 0.25 3.5 0.25 5.5 2.25 C2.53 1.755 2.53 1.755 -0.5 1.25 C-0.5 1.91 -0.5 2.57 -0.5 3.25 C-2.15 2.92 -3.8 2.59 -5.5 2.25 C-3.5 0.25 -3.5 0.25 0 0 Z " fill="#41507C" transform="translate(359.5,170.75)"/>
</svg>
