<?xml version="1.0" encoding="UTF-8"?>
<svg version="1.1" xmlns="http://www.w3.org/2000/svg" width="411" height="236">
<path d="M0 0 C1.98 0.495 1.98 0.495 4 1 C4.10957031 1.94359375 4.21914063 2.8871875 4.33203125 3.859375 C5.24847984 11.28037335 6.41983096 18.38275379 8.4140625 25.609375 C9 28 9 28 9 31 C9.55945313 31.15855469 10.11890625 31.31710938 10.6953125 31.48046875 C16.02410798 33.0311311 21.30897154 34.7112633 26.5625 36.5 C27.76003906 36.9021875 28.95757812 37.304375 30.19140625 37.71875 C31.11824219 38.1415625 32.04507812 38.564375 33 39 C33.33 39.99 33.66 40.98 34 42 C31.35261084 43.4606285 30.10551666 44 27 44 C27 44.66 27 45.32 27 46 C24.69 46.99 22.38 47.98 20 49 C20.82242187 49.42410156 21.64484375 49.84820312 22.4921875 50.28515625 C33.85835305 56.25698688 43.72049654 63.0420635 53 72 C53.67804688 72.64066406 54.35609375 73.28132813 55.0546875 73.94140625 C70.71259558 90.0080549 78.66084259 114.34705914 79.25 136.375 C79.19803717 138.25113147 79.11181469 140.12648274 79 142 C78.93167969 143.17820313 78.86335938 144.35640625 78.79296875 145.5703125 C76.75355579 168.11591072 66.28384087 190.34068144 50 206 C49.175 206.82113281 48.35 207.64226562 47.5 208.48828125 C31.92919379 223.33544422 9.77884429 230.74961262 -11.5625 231.375 C-35.1582041 230.70417034 -56.60642586 220.24132362 -72.6875 203.25 C-85.88334387 188.00408753 -94.71862467 168.55426818 -95.375 148.3125 C-95.59308973 143.19787739 -95.59308973 143.19787739 -98.4375 139 C-99.60162487 138.29330772 -100.79252732 137.62977014 -102 137 C-102.67933594 136.54882812 -103.35867187 136.09765625 -104.05859375 135.6328125 C-111.55636423 130.7523076 -119.77412168 127.42946545 -128 124 C-129.1034375 123.52949219 -130.206875 123.05898437 -131.34375 122.57421875 C-137.59899309 119.98004667 -143.8870021 117.68580488 -150.3203125 115.578125 C-151.64500684 115.13928608 -152.96963186 114.70023785 -154.29418945 114.26098633 C-156.94757603 113.38162724 -159.60787075 112.52945698 -162.27416992 111.69018555 C-163.49982666 111.28582275 -164.7254834 110.88145996 -165.98828125 110.46484375 C-167.09727783 110.110271 -168.20627441 109.75569824 -169.34887695 109.39038086 C-172 108 -172 108 -173.37573242 105.34594727 C-173.58174072 104.57178467 -173.78774902 103.79762207 -174 103 C-180.03758602 103.55859556 -185.66964541 104.47483775 -191.5 106.125 C-192.26103027 106.33729248 -193.02206055 106.54958496 -193.80615234 106.76831055 C-202.13924887 109.1862971 -210.06571628 112.5149412 -218 116 C-217.48623571 111.76014726 -216.834591 108.00633145 -215.1875 104.0625 C-214.87167969 103.29035156 -214.55585938 102.51820312 -214.23046875 101.72265625 C-212.59108301 98.09519002 -210.8017968 94.54902709 -209 91 C-223.25749934 95.60232276 -236.97625247 100.29359476 -249.95947266 107.83203125 C-252.1330325 109.07614591 -254.33238608 110.26051535 -256.54296875 111.4375 C-266.24214009 116.63159175 -275.26353341 122.31575743 -284 129 C-284.8655249 129.65935547 -284.8655249 129.65935547 -285.74853516 130.33203125 C-297.27862692 139.15682715 -308.43961099 148.42361774 -318.9765625 158.41796875 C-321 160 -321 160 -324 160 C-321.76691393 143.34894519 -308.00672788 126.98862303 -298 114 C-297.35675781 113.15953125 -296.71351563 112.3190625 -296.05078125 111.453125 C-276.92113743 87.20791351 -253.83431526 67.23871574 -227 52 C-226.4131543 51.6587207 -225.82630859 51.31744141 -225.22167969 50.96582031 C-217.39606749 46.43017708 -209.37054908 42.77417033 -200.9375 39.5 C-200.04466309 39.14929443 -199.15182617 38.79858887 -198.23193359 38.43725586 C-193.67216531 36.72529288 -189.95350083 35.54450567 -185 36 C-183.875 39.75 -183.875 39.75 -185 42 C-180.55547052 41.46619228 -176.42162973 40.62907859 -172.10644531 39.38818359 C-131.2252946 27.6963534 -77.68988979 20.39509501 -36 32 C-37.06451188 28.61291675 -38.04148153 26.95950613 -40.625 24.4375 C-43 22 -43 22 -43 18 C-37.32703522 18.65964707 -31.90970866 19.96057778 -26.37890625 21.37890625 C-22.21468233 22.14435319 -19.23500446 22.54163703 -15 22 C-12.93725523 19.74050111 -11.77145027 18.12395634 -10.375 15.5 C-9.62606461 14.21476379 -8.87476566 12.93090192 -8.12109375 11.6484375 C-7.7638623 11.02291992 -7.40663086 10.39740234 -7.03857422 9.75292969 C-4.98282886 6.28319493 -2.47629836 3.17474148 0 0 Z M4 76 C6.36761459 78.54499289 8.94082278 80.42525909 11.8125 82.375 C14.8447993 84.45252285 17.70528747 86.54238169 20.4375 89 C21.283125 89.66 22.12875 90.32 23 91 C23.99 90.67 24.98 90.34 26 90 C25.66176494 87.19748095 25.28130318 86.22325649 23.03125 84.4375 C14.02612166 78.6713467 14.02612166 78.6713467 4 76 Z M-152 99 C-154.06145107 99.068991 -156.12501401 99.08467727 -158.1875 99.0625 C-159.81751953 99.04896484 -159.81751953 99.04896484 -161.48046875 99.03515625 C-162.31191406 99.02355469 -163.14335937 99.01195313 -164 99 C-163.34 100.65 -162.68 102.3 -162 104 C-161.09121094 103.90912109 -161.09121094 103.90912109 -160.1640625 103.81640625 C-158.40508916 103.64050892 -156.6459633 103.46613262 -154.88671875 103.29296875 C-152.97146999 103.09859303 -151.05732776 102.89296608 -149.14453125 102.67578125 C-148.25121094 102.57652344 -147.35789063 102.47726563 -146.4375 102.375 C-145.19806641 102.23191406 -145.19806641 102.23191406 -143.93359375 102.0859375 C-142.97646484 102.04339844 -142.97646484 102.04339844 -142 102 C-141.67 102.33 -141.34 102.66 -141 103 C-139.52192535 103.13292576 -138.0381109 103.20332761 -136.5546875 103.24609375 C-135.64203125 103.27896484 -134.729375 103.31183594 -133.7890625 103.34570312 C-131.86988875 103.40615967 -129.95061491 103.46353007 -128.03125 103.51757812 C-122.68808372 103.71588892 -118.12229818 104.33170023 -113 106 C-110.77526182 106.49932431 -108.54588021 106.97837306 -106.3125 107.4375 C-99.83104531 108.79909177 -93.41201329 110.34415041 -87 112 C-86.67 111.34 -86.34 110.68 -86 110 C-90.56133826 103.7492772 -96.72169934 103.33853805 -104 102 C-105.20269531 101.731875 -106.40539062 101.46375 -107.64453125 101.1875 C-120.57594489 98.42235409 -139.38733672 94.79577891 -152 99 Z M38 99 C35.7182133 101.78144476 35.7182133 101.78144476 36.125 104.75 C37.18894987 108.70181381 38.84707542 111.52754099 41 115 C42.65 114.34 44.3 113.68 46 113 C46.33186393 108.87334422 45.69566647 106.97255796 43.125 103.75 C42.59132813 103.06421875 42.05765625 102.3784375 41.5078125 101.671875 C40.08602025 99.89105517 40.08602025 99.89105517 38 99 Z M52 126 C49.73040118 127.3442285 49.73040118 127.3442285 48 130 C47.94136885 133.40060685 48.41281408 136.65559323 49 140 C50.65 140 52.3 140 54 140 C55.013244 135.38411065 54.99847037 131.62927172 54 127 C53.34 126.67 52.68 126.34 52 126 Z M51 155 C50.67 156.98 50.34 158.96 50 161 C50.66 160.67 51.32 160.34 52 160 C52.65555119 157.47266765 52.65555119 157.47266765 53 155 C52.34 155 51.68 155 51 155 Z " fill="#161112" transform="translate(328,2)"/>
<path d="M0 0 C1.98 0.495 1.98 0.495 4 1 C4.10957031 1.94359375 4.21914063 2.8871875 4.33203125 3.859375 C5.24847984 11.28037335 6.41983096 18.38275379 8.4140625 25.609375 C9 28 9 28 9 31 C9.55945313 31.15855469 10.11890625 31.31710938 10.6953125 31.48046875 C16.02410798 33.0311311 21.30897154 34.7112633 26.5625 36.5 C27.76003906 36.9021875 28.95757812 37.304375 30.19140625 37.71875 C31.11824219 38.1415625 32.04507812 38.564375 33 39 C33.33 39.99 33.66 40.98 34 42 C31.35261084 43.4606285 30.10551666 44 27 44 C27 44.66 27 45.32 27 46 C24.69 46.99 22.38 47.98 20 49 C20.82242187 49.42410156 21.64484375 49.84820312 22.4921875 50.28515625 C33.85835305 56.25698688 43.72049654 63.0420635 53 72 C53.67804688 72.64066406 54.35609375 73.28132813 55.0546875 73.94140625 C70.71259558 90.0080549 78.66084259 114.34705914 79.25 136.375 C79.19803717 138.25113147 79.11181469 140.12648274 79 142 C78.93167969 143.17820313 78.86335938 144.35640625 78.79296875 145.5703125 C76.75355579 168.11591072 66.28384087 190.34068144 50 206 C49.175 206.82113281 48.35 207.64226562 47.5 208.48828125 C31.92919379 223.33544422 9.77884429 230.74961262 -11.5625 231.375 C-35.1582041 230.70417034 -56.60642586 220.24132362 -72.6875 203.25 C-85.88334387 188.00408753 -94.71862467 168.55426818 -95.375 148.3125 C-95.59308973 143.19787739 -95.59308973 143.19787739 -98.4375 139 C-99.60162487 138.29330772 -100.79252732 137.62977014 -102 137 C-102.67933594 136.54882812 -103.35867187 136.09765625 -104.05859375 135.6328125 C-111.55636423 130.7523076 -119.77412168 127.42946545 -128 124 C-129.1034375 123.52949219 -130.206875 123.05898437 -131.34375 122.57421875 C-137.59899309 119.98004667 -143.8870021 117.68580488 -150.3203125 115.578125 C-151.64500684 115.13928608 -152.96963186 114.70023785 -154.29418945 114.26098633 C-156.94757603 113.38162724 -159.60787075 112.52945698 -162.27416992 111.69018555 C-163.49982666 111.28582275 -164.7254834 110.88145996 -165.98828125 110.46484375 C-167.09727783 110.110271 -168.20627441 109.75569824 -169.34887695 109.39038086 C-172 108 -172 108 -173.37573242 105.34594727 C-173.58174072 104.57178467 -173.78774902 103.79762207 -174 103 C-180.03758602 103.55859556 -185.66964541 104.47483775 -191.5 106.125 C-192.26103027 106.33729248 -193.02206055 106.54958496 -193.80615234 106.76831055 C-202.13924887 109.1862971 -210.06571628 112.5149412 -218 116 C-217.48623571 111.76014726 -216.834591 108.00633145 -215.1875 104.0625 C-214.87167969 103.29035156 -214.55585938 102.51820312 -214.23046875 101.72265625 C-212.59108301 98.09519002 -210.8017968 94.54902709 -209 91 C-223.25749934 95.60232276 -236.97625247 100.29359476 -249.95947266 107.83203125 C-252.1330325 109.07614591 -254.33238608 110.26051535 -256.54296875 111.4375 C-266.24214009 116.63159175 -275.26353341 122.31575743 -284 129 C-284.8655249 129.65935547 -284.8655249 129.65935547 -285.74853516 130.33203125 C-297.27862692 139.15682715 -308.43961099 148.42361774 -318.9765625 158.41796875 C-321 160 -321 160 -324 160 C-321.76691393 143.34894519 -308.00672788 126.98862303 -298 114 C-297.35675781 113.15953125 -296.71351563 112.3190625 -296.05078125 111.453125 C-276.92113743 87.20791351 -253.83431526 67.23871574 -227 52 C-226.4131543 51.6587207 -225.82630859 51.31744141 -225.22167969 50.96582031 C-217.39606749 46.43017708 -209.37054908 42.77417033 -200.9375 39.5 C-200.04466309 39.14929443 -199.15182617 38.79858887 -198.23193359 38.43725586 C-193.67216531 36.72529288 -189.95350083 35.54450567 -185 36 C-183.875 39.75 -183.875 39.75 -185 42 C-180.55547052 41.46619228 -176.42162973 40.62907859 -172.10644531 39.38818359 C-131.2252946 27.6963534 -77.68988979 20.39509501 -36 32 C-37.06451188 28.61291675 -38.04148153 26.95950613 -40.625 24.4375 C-43 22 -43 22 -43 18 C-37.32703522 18.65964707 -31.90970866 19.96057778 -26.37890625 21.37890625 C-22.21468233 22.14435319 -19.23500446 22.54163703 -15 22 C-12.93725523 19.74050111 -11.77145027 18.12395634 -10.375 15.5 C-9.62606461 14.21476379 -8.87476566 12.93090192 -8.12109375 11.6484375 C-7.7638623 11.02291992 -7.40663086 10.39740234 -7.03857422 9.75292969 C-4.98282886 6.28319493 -2.47629836 3.17474148 0 0 Z M-3 14 C-4.76033665 16.53545982 -4.76033665 16.53545982 -6.5 19.6875 C-7.1084375 20.74324219 -7.716875 21.79898437 -8.34375 22.88671875 C-9.76389787 25.55619481 -10.94958999 28.16914502 -12 31 C-13.77117187 30.44119141 -13.77117187 30.44119141 -15.578125 29.87109375 C-17.13525381 29.39269875 -18.69255461 28.91486334 -20.25 28.4375 C-21.02730469 28.19064453 -21.80460937 27.94378906 -22.60546875 27.68945312 C-23.35957031 27.46064453 -24.11367188 27.23183594 -24.890625 26.99609375 C-25.58188477 26.78138428 -26.27314453 26.5666748 -26.98535156 26.34545898 C-29.34679535 25.80123519 -29.34679535 25.80123519 -33 27 C-29.7 31.29 -26.4 35.58 -23 40 C-24.61648438 39.72285156 -26.23296875 39.44570313 -27.8984375 39.16015625 C-30.05726181 38.79409474 -32.21611767 38.42821922 -34.375 38.0625 C-35.96634766 37.78889648 -35.96634766 37.78889648 -37.58984375 37.50976562 C-39.16572266 37.24389648 -39.16572266 37.24389648 -40.7734375 36.97265625 C-41.72653809 36.81031494 -42.67963867 36.64797363 -43.66162109 36.48071289 C-52.08964049 35.26711261 -60.40677141 34.82292579 -68.91796875 34.76171875 C-70.04124573 34.75197021 -71.16452271 34.74222168 -72.32183838 34.73217773 C-96.1993603 34.5675591 -119.47200327 34.58129228 -143 39 C-144.05445313 39.18723633 -145.10890625 39.37447266 -146.1953125 39.56738281 C-172.46650578 44.12522068 -172.46650578 44.12522068 -197 54 C-196.505 52.906875 -196.01 51.81375 -195.5 50.6875 C-193.81160094 47.20033755 -193.81160094 47.20033755 -194 44 C-201.38167603 45.96951443 -208.15142812 48.62444258 -215 52 C-216.10988281 52.54269531 -217.21976562 53.08539063 -218.36328125 53.64453125 C-255.06005873 72.12070475 -288.79439016 103.14975536 -309 139 C-309.74689852 141.23650724 -309.74689852 141.23650724 -310 143 C-305.83942089 140.00710385 -301.87492899 136.93495852 -298.125 133.4375 C-270.59864552 108.84542696 -235.61753942 91.92932711 -200 83 C-200.24234375 83.55985596 -200.4846875 84.11971191 -200.734375 84.6965332 C-201.82852775 87.23281085 -202.91434254 89.77257504 -204 92.3125 C-204.57234375 93.63411133 -204.57234375 93.63411133 -205.15625 94.98242188 C-205.5171875 95.82998047 -205.878125 96.67753906 -206.25 97.55078125 C-206.58515625 98.33106689 -206.9203125 99.11135254 -207.265625 99.9152832 C-208.16612692 102.10321451 -208.16612692 102.10321451 -208 105 C-206.31075464 104.56928825 -204.62368565 104.13003863 -202.9375 103.6875 C-201.99777344 103.44386719 -201.05804688 103.20023437 -200.08984375 102.94921875 C-196.92177354 102.04731857 -196.92177354 102.04731857 -193.74609375 100.52734375 C-189.35748514 98.59216659 -184.81912824 97.76001664 -180.125 96.875 C-178.85462891 96.62169922 -178.85462891 96.62169922 -177.55859375 96.36328125 C-166.83326312 94.27734405 -156.35074908 93.75913113 -145.4375 93.75 C-144.34727036 93.74898788 -144.34727036 93.74898788 -143.23501587 93.74795532 C-121.86501522 93.77927633 -98.85773289 95.36447287 -79 104 C-79.45712238 105.54202616 -79.91576347 107.08360214 -80.375 108.625 C-80.63023437 109.48351562 -80.88546875 110.34203125 -81.1484375 111.2265625 C-82.05156688 114.16794719 -83.01677227 117.08451604 -84 120 C-84.92296875 119.62488281 -85.8459375 119.24976562 -86.796875 118.86328125 C-109.76707936 109.75538727 -132.39064895 106.47076664 -157 107 C-156.67 107.66 -156.34 108.32 -156 109 C-153.97096406 109.45478392 -151.93984306 109.90118127 -149.90234375 110.31640625 C-144.48016988 111.59349969 -139.24456329 113.47017666 -133.99267578 115.31005859 C-132.07406081 115.97435729 -130.14457036 116.60698782 -128.21484375 117.23828125 C-115.91026663 121.40380314 -103.09369602 127.53242173 -92.91113281 135.66918945 C-90.97782062 137.28572419 -90.97782062 137.28572419 -88 137 C-88.04640625 138.19753906 -88.0928125 139.39507812 -88.140625 140.62890625 C-88.82405328 165.79621762 -79.22329437 185.19814073 -62.1875 203.3125 C-47.86944172 217.09446874 -29.70793207 223.65091446 -10.125 224.3125 C11.58527437 223.87713354 29.92173814 214.78983794 45.3046875 199.83984375 C49.37457601 195.55171484 52.75021065 190.92638522 56 186 C56.64839844 185.08734375 57.29679687 184.1746875 57.96484375 183.234375 C70.5620487 163.21424889 73.78863243 139.28831722 70 116.1875 C66.93303851 103.15651339 60.44453007 91.30433729 52 81 C51.14921875 79.88818359 51.14921875 79.88818359 50.28125 78.75390625 C39.49670693 65.48608023 22.72675905 55.29070362 7 49 C11.29 47.02 15.58 45.04 20 43 C20 42.34 20 41.68 20 41 C14.06 39.02 8.12 37.04 2 35 C1.0625 26.75 1.0625 26.75 0.77368164 24.17089844 C0.69496826 23.4905957 0.61625488 22.81029297 0.53515625 22.109375 C0.456604 21.41811523 0.37805176 20.72685547 0.29711914 20.01464844 C-0.00544983 17.96304687 -0.46412384 16.00217465 -1 14 C-1.66 14 -2.32 14 -3 14 Z M-152 99 C-154.06145107 99.068991 -156.12501401 99.08467727 -158.1875 99.0625 C-159.81751953 99.04896484 -159.81751953 99.04896484 -161.48046875 99.03515625 C-162.31191406 99.02355469 -163.14335937 99.01195313 -164 99 C-163.34 100.65 -162.68 102.3 -162 104 C-161.09121094 103.90912109 -161.09121094 103.90912109 -160.1640625 103.81640625 C-158.40508916 103.64050892 -156.6459633 103.46613262 -154.88671875 103.29296875 C-152.97146999 103.09859303 -151.05732776 102.89296608 -149.14453125 102.67578125 C-148.25121094 102.57652344 -147.35789063 102.47726563 -146.4375 102.375 C-145.19806641 102.23191406 -145.19806641 102.23191406 -143.93359375 102.0859375 C-142.97646484 102.04339844 -142.97646484 102.04339844 -142 102 C-141.67 102.33 -141.34 102.66 -141 103 C-139.52192535 103.13292576 -138.0381109 103.20332761 -136.5546875 103.24609375 C-135.64203125 103.27896484 -134.729375 103.31183594 -133.7890625 103.34570312 C-131.86988875 103.40615967 -129.95061491 103.46353007 -128.03125 103.51757812 C-122.68808372 103.71588892 -118.12229818 104.33170023 -113 106 C-110.77526182 106.49932431 -108.54588021 106.97837306 -106.3125 107.4375 C-99.83104531 108.79909177 -93.41201329 110.34415041 -87 112 C-86.67 111.34 -86.34 110.68 -86 110 C-90.56133826 103.7492772 -96.72169934 103.33853805 -104 102 C-105.20269531 101.731875 -106.40539062 101.46375 -107.64453125 101.1875 C-120.57594489 98.42235409 -139.38733672 94.79577891 -152 99 Z " fill="#C1C4C6" transform="translate(328,2)"/>
<path d="M0 0 C0.984375 1.92578125 0.984375 1.92578125 1.75 4.3125 C2.14445312 5.48232422 2.14445312 5.48232422 2.546875 6.67578125 C3.05413501 9.27767524 3.07076461 10.5769552 2 13 C0.21484375 14.45703125 0.21484375 14.45703125 -2.0625 15.8125 C-20.66249332 27.68358578 -29.79120209 47.80351875 -37.65234375 67.7109375 C-39 71 -39 71 -40 72 C-53.3499904 73.66281019 -67.03391051 68.39456493 -78 61 C-81.54946339 58.19751323 -84.79823521 55.19107442 -88 52 C-88.69996094 51.32324219 -89.39992188 50.64648438 -90.12109375 49.94921875 C-95.28312346 44.60606519 -104 33.83723408 -104 26 C-103.06655762 25.93268677 -103.06655762 25.93268677 -102.11425781 25.86401367 C-81.5067688 24.34586563 -61.77735865 22.15394144 -42 16 C-40.88882813 15.65839844 -39.77765625 15.31679687 -38.6328125 14.96484375 C-27.86791155 11.51168721 -17.77999057 7.13671444 -7.98706055 1.50292969 C-3.32137218 -1.10712406 -3.32137218 -1.10712406 0 0 Z " fill="#B7BFC3" transform="translate(358,143)"/>
<path d="M0 0 C3.92215302 1.27896294 7.79065712 2.66572427 11.65576172 4.10693359 C32.0671574 11.59285698 54.53159838 16.71646329 75.25 7.4375 C78.84801011 5.83362512 82.10509172 4.63256722 86 4 C97 16.09621993 97 16.09621993 97 22 C75.28439135 34.20488618 53.47728773 41.52421217 29 46 C27.1746875 46.34417969 27.1746875 46.34417969 25.3125 46.6953125 C15.22998348 48.38365843 5.18739346 48.18447996 -5 48 C-10.66423209 34.38757126 -7.55038125 17.47870509 -2.41015625 4.2265625 C-1 1 -1 1 0 0 Z " fill="#B6BEC2" transform="translate(257,115)"/>
<path d="M0 0 C3.50347552 3.06439465 6.4015116 6.35910135 9.296875 9.98095703 C7.84442005 10.76281044 6.38443583 11.53067531 4.921875 12.29345703 C4.10976563 12.72271484 3.29765625 13.15197266 2.4609375 13.59423828 C-5.30550625 16.99805005 -12.42191739 18.49559471 -20.890625 18.35595703 C-21.8098877 18.34435547 -22.72915039 18.33275391 -23.67626953 18.32080078 C-40.05823825 17.93177551 -54.4700974 12.5655402 -69.703125 6.98095703 C-67.59171416 1.52150865 -64.95138625 -2.92715943 -60.703125 -7.01904297 C-51.95552054 -9.03772092 -41.22749299 -3.5743578 -33.33203125 -0.10498047 C-31.11300744 0.81164452 -29.04452829 1.48278612 -26.703125 1.98095703 C-38.98891141 -8.41970871 -51.30320355 -14.13736103 -66.703125 -18.01904297 C-68.07319641 -18.37996187 -69.44299363 -18.74192341 -70.8125 -19.10498047 C-74.7625785 -20.13822524 -78.72779615 -21.08745075 -82.703125 -22.01904297 C-83.85554688 -22.29748047 -85.00796875 -22.57591797 -86.1953125 -22.86279297 C-110.47684674 -28.27070705 -135.95248333 -27.5544018 -160.703125 -28.01904297 C-128.52398192 -60.19818604 -27.75429612 -23.41768735 0 0 Z " fill="#BAC1C3" transform="translate(329.703125,104.01904296875)"/>
<path d="M0 0 C13.7051237 4.16938989 25.1414192 14.92314804 35 25 C37.95800528 24.29231642 37.95800528 24.29231642 41 23 C41.70122034 21.68451064 42.36362209 20.34805244 43 19 C44.13180227 17.65731948 45.30089935 16.34543608 46.5 15.0625 C49.08789963 12.18406694 50.93260271 9.79519037 52 6 C52.99 6.66 53.98 7.32 55 8 C55 8.66 55 9.32 55 10 C55.99 10.495 55.99 10.495 57 11 C56.34 11 55.68 11 55 11 C54.79375 11.66 54.5875 12.32 54.375 13 C51.32964617 19.64440836 46.3710298 25.11724564 41 30 C40.34 30 39.68 30 39 30 C39.71027344 31.03640625 40.42054688 32.0728125 41.15234375 33.140625 C42.08103466 34.51020957 43.00940326 35.88001273 43.9375 37.25 C44.40607422 37.93191406 44.87464844 38.61382812 45.35742188 39.31640625 C45.80537109 39.98027344 46.25332031 40.64414063 46.71484375 41.328125 C47.12855225 41.9355957 47.54226074 42.54306641 47.96850586 43.16894531 C49.05717058 45.10148624 49.56305737 46.83410258 50 49 C53.4191442 47.18357964 56.15255068 45.02609029 59 42.4375 C61.87593895 39.86486158 64.23065306 38.07695627 68 37 C68.99 36.67 69.98 36.34 71 36 C71 36.66 71 37.32 71 38 C71.66 38.33 72.32 38.66 73 39 C72.0479279 40.00596297 71.08812654 41.00461563 70.125 42 C69.59132813 42.556875 69.05765625 43.11375 68.5078125 43.6875 C67 45 67 45 65 45 C65 45.66 65 46.32 65 47 C62.8125 48.7265625 62.8125 48.7265625 60 50.625 C59.071875 51.25664062 58.14375 51.88828125 57.1875 52.5390625 C56.465625 53.02117187 55.74375 53.50328125 55 54 C55.60814242 57.12837226 56.27726229 60.22389834 57.0625 63.3125 C57.371875 64.529375 57.68125 65.74625 58 67 C56.02 66.505 56.02 66.505 54 66 C54.33 66.33 54.66 66.66 55 67 C54.01 68.98 54.01 68.98 53 71 C51.68 67.04 50.36 63.08 49 59 C43.99726616 60.6375204 43.99726616 60.6375204 39.37109375 62.76953125 C38.73494141 63.09864502 38.09878906 63.42775879 37.44335938 63.7668457 C36.45045898 64.28444458 36.45045898 64.28444458 35.4375 64.8125 C28.45310095 68.38142454 21.37718319 71.32487081 14 74 C13.33355469 74.27328125 12.66710937 74.5465625 11.98046875 74.828125 C7.37527038 76.71435004 2.6253293 77.95525579 -2.1875 79.1875 C-2.87755127 79.36676025 -3.56760254 79.54602051 -4.27856445 79.73071289 C-7.92439332 80.63521073 -11.24159669 81.21163824 -15 81 C-14.360625 80.54625 -13.72125 80.0925 -13.0625 79.625 C-10.90297594 78.16078274 -10.90297594 78.16078274 -10 76 C-10.99 75.01 -10.99 75.01 -12 74 C-10.96101563 73.74605469 -9.92203125 73.49210937 -8.8515625 73.23046875 C7.819635 69.13027155 23.34301142 64.26345566 38.43969727 55.94677734 C43.81136185 53 43.81136185 53 46 53 C42.80456974 46.82875668 39.7166334 41.13280694 35 36 C29.42211926 36.84194426 24.66255397 39.29711819 19.5703125 41.625 C-0.18580556 49.2334831 -24.10980532 42.00071397 -43 35 C-42.34 34.34 -41.68 33.68 -41 33 C-41.3185177 30.89179203 -41.3185177 30.89179203 -42 29 C-37.01684054 29.98029366 -32.42199619 31.15574858 -27.6875 33 C-11.6119571 38.92605983 7.0001067 39.35113096 23.06640625 33.38671875 C25.69161475 32.14577465 27.77795762 30.85260746 30 29 C21.02578669 19.31312858 10.78589527 11.91614822 -1 6 C-0.01 5.01 0.98 4.02 2 3 C1.34 2.67 0.68 2.34 0 2 C0 1.34 0 0.68 0 0 Z " fill="#1B1B1E" transform="translate(308,84)"/>
<path d="M0 0 C0.99 0.495 0.99 0.495 2 1 C0.71372289 2.17260611 -0.57919783 3.3379283 -1.875 4.5 C-2.59429687 5.1496875 -3.31359375 5.799375 -4.0546875 6.46875 C-6 8 -6 8 -8 8 C-8 8.66 -8 9.32 -8 10 C-9.97482702 11.44499538 -11.91303408 12.73599885 -14 14 C-14.62261719 14.37898437 -15.24523437 14.75796875 -15.88671875 15.1484375 C-20.71010638 18 -20.71010638 18 -23 18 C-23.495 19.485 -23.495 19.485 -24 21 C-25.67407227 22.07495117 -25.67407227 22.07495117 -27.81640625 23.04296875 C-28.58017578 23.39423828 -29.34394531 23.74550781 -30.13085938 24.10742188 C-30.93330078 24.46384766 -31.73574219 24.82027344 -32.5625 25.1875 C-33.36880859 25.55552734 -34.17511719 25.92355469 -35.00585938 26.30273438 C-36.99986298 27.21124489 -38.99776958 28.10980336 -41 29 C-25.65207118 29 -10.23304014 17.38651299 1 8 C1.99 8.495 1.99 8.495 3 9 C2.45472656 9.6084375 1.90945313 10.216875 1.34765625 10.84375 C-4.91214467 18.12009979 -9.44752647 25.73109089 -13.98193359 34.14648438 C-15.83970889 37.52879374 -17.87425166 40.8026117 -19.90625 44.08203125 C-21.14471902 46.10873149 -21.14471902 46.10873149 -22 49 C-35.94427857 49.67472316 -46.73249688 44.42649006 -57.234375 35.58203125 C-61.63165851 31.47665781 -65.6674367 27.01941633 -69 22 C-69 21.01 -69 20.02 -69 19 C-67.99324219 18.90203125 -66.98648437 18.8040625 -65.94921875 18.703125 C-44.97994885 16.52918865 -21.36292078 12.65267969 -3 1.6875 C-2.01 1.130625 -1.02 0.57375 0 0 Z " fill="#0878C0" transform="translate(334,158)"/>
<path d="M0 0 C29.24358968 2.08308182 67.67888942 5.95148462 89 29 C89.9140625 30.98828125 89.9140625 30.98828125 90 33 C88.9609375 34.9296875 88.9609375 34.9296875 87.375 36.875 C86.818125 37.56722656 86.26125 38.25945312 85.6875 38.97265625 C85.130625 39.64167969 84.57375 40.31070313 84 41 C83.54625 41.57621094 83.0925 42.15242188 82.625 42.74609375 C80.33648119 45.61389389 78.05667192 47.96221872 75 50 C72.05220866 48.6849293 70.16177479 47.31883004 68 44.9375 C57.18814737 33.87314126 43.20556813 25.87816612 29 20 C29 19.67 29 19.34 29 19 C37.92782202 17.2144356 44.50373665 18.07505688 53 21 C44.81346417 16.7453916 36.75237308 12.97398072 28 10 C26.29114517 9.35554779 24.58282519 8.70967586 22.875 8.0625 C15.37309303 5.3216286 7.67499466 3.19542637 0 1 C0 0.67 0 0.34 0 0 Z M62 18 C64.36761459 20.54499289 66.94082278 22.42525909 69.8125 24.375 C72.8447993 26.45252285 75.70528747 28.54238169 78.4375 31 C79.283125 31.66 80.12875 32.32 81 33 C81.99 32.67 82.98 32.34 84 32 C83.66176494 29.19748095 83.28130318 28.22325649 81.03125 26.4375 C72.02612166 20.6713467 72.02612166 20.6713467 62 18 Z " fill="#BCC2C5" transform="translate(270,60)"/>
<path d="M0 0 C1.03500467 5.97818695 1.18338876 11.81503296 1.1875 17.875 C1.19974609 18.81730469 1.21199219 19.75960937 1.22460938 20.73046875 C1.25532053 35.53324318 1.25532053 35.53324318 -3 40.1875 C-3.99 40.785625 -4.98 41.38375 -6 42 C-6.72574219 42.47050781 -7.45148438 42.94101563 -8.19921875 43.42578125 C-18.15510707 49.72440447 -27.3093266 52.6073806 -39 54 C-36.57325065 35.63391968 -23.71485689 15.35071409 -9.40625 3.9296875 C-3.77674419 0 -3.77674419 0 0 0 Z " fill="#B4BDC2" transform="translate(364,161)"/>
<path d="M0 0 C4.17018302 0.76249396 8.09619451 2.48116855 12.05078125 3.96484375 C19.27970994 6.50214985 25.95992259 7.50526839 33.5625 8.0625 C45.86098866 9.00733627 45.86098866 9.00733627 51 10 C48.26517034 11.82321978 46.42457151 12.6017179 43.33203125 13.5078125 C42.43935547 13.77207031 41.54667969 14.03632813 40.62695312 14.30859375 C39.69818359 14.57800781 38.76941406 14.84742188 37.8125 15.125 C36.87212891 15.40214844 35.93175781 15.67929688 34.96289062 15.96484375 C32.64322404 16.64779127 30.3222749 17.32598547 28 18 C41.50327969 18.23272257 54.63189206 18.00970213 68 16 C66.59633065 18.80733871 64.62305008 19.06908005 61.78125 20.078125 C56.17981037 21.93478195 50.55205015 23.71262305 44.90356445 25.42089844 C43.17271688 25.94745615 41.44915783 26.49782404 39.7265625 27.05078125 C34.67285387 28.33804666 29.60905536 28.99190518 24.4375 29.625 C23.37789063 29.75688721 22.31828125 29.88877441 21.2265625 30.0246582 C13.43543623 30.94444394 5.84800366 31.37305651 -2 31 C-5.81185006 24.80384531 -4.59794793 16.31423576 -3.359375 9.44921875 C-1.39055071 1.39055071 -1.39055071 1.39055071 0 0 Z " fill="#0678C1" transform="translate(260,126)"/>
<path d="M0 0 C7.30323897 3.09045747 12.07255008 10.79070306 16.3828125 17.17578125 C17 19 17 19 16.48046875 20.88671875 C14.41751756 23.8314591 11.86059966 26.12750284 9.1875 28.5 C8.40536133 29.20962891 8.40536133 29.20962891 7.60742188 29.93359375 C6.08529616 31.3055972 4.54732422 32.65652399 3 34 C2.10925781 34.7734375 1.21851563 35.546875 0.30078125 36.34375 C-2 38 -2 38 -5 38 C-6.4296875 36.05859375 -6.4296875 36.05859375 -7.875 33.4375 C-9.73759211 30.15468141 -11.62127626 27.02844127 -13.875 24 C-16 21 -16 21 -16 19 C-14.85423404 17.95244255 -13.6560644 16.96190283 -12.4375 16 C-7.20787812 11.57994592 -3.06729312 6.13458624 0 0 Z M3 6 C0.7182133 8.78144476 0.7182133 8.78144476 1.125 11.75 C2.18894987 15.70181381 3.84707542 18.52754099 6 22 C7.65 21.34 9.3 20.68 11 20 C11.33186393 15.87334422 10.69566647 13.97255796 8.125 10.75 C7.59132813 10.06421875 7.05765625 9.3784375 6.5078125 8.671875 C5.08602025 6.89105517 5.08602025 6.89105517 3 6 Z " fill="#BEC2C5" transform="translate(363,95)"/>
<path d="M0 0 C0.66 0 1.32 0 2 0 C2.33 4.29 2.66 8.58 3 13 C4.60875 13.45375 6.2175 13.9075 7.875 14.375 C12.75 15.75 12.75 15.75 15 18 C13.5437455 18.67119549 12.08492133 19.33681807 10.625 20 C9.81289063 20.37125 9.00078125 20.7425 8.1640625 21.125 C6 22 6 22 4 22 C4.24556641 22.84304687 4.24556641 22.84304687 4.49609375 23.703125 C5.02864997 26.13059056 5.09898681 28.26889681 5.0625 30.75 C5.05347656 31.54921875 5.04445313 32.3484375 5.03515625 33.171875 C5.02355469 33.77515625 5.01195312 34.3784375 5 35 C-0.75 30.375 -0.75 30.375 -3 27 C-7.23867082 27.57401413 -7.23867082 27.57401413 -11.1875 29.125 C-13 30 -13 30 -16 29 C-15.69964844 28.49210937 -15.39929688 27.98421875 -15.08984375 27.4609375 C-13.24271359 24.11731884 -12.01486188 21.74309388 -11.9375 17.875 C-13.32906368 14.10959241 -15.27362502 11.93609613 -18 9 C-17.67 8.34 -17.34 7.68 -17 7 C-11.06 8.485 -11.06 8.485 -5 10 C-4.34 8.35 -3.68 6.7 -3 5 C-1.5 2.1875 -1.5 2.1875 0 0 Z " fill="#B6BBBD" transform="translate(323,27)"/>
<path d="M0 0 C0.33 1.32 0.66 2.64 1 4 C2.18078125 3.77183594 3.3615625 3.54367188 4.578125 3.30859375 C6.13533463 3.01778954 7.69263094 2.7274492 9.25 2.4375 C10.02730469 2.28603516 10.80460937 2.13457031 11.60546875 1.97851562 C12.35957031 1.83994141 13.11367187 1.70136719 13.890625 1.55859375 C14.58188477 1.42767334 15.27314453 1.29675293 15.98535156 1.16186523 C18.24356289 0.98043114 19.82154659 1.41190041 22 2 C23.6586512 2.14298131 25.3210869 2.24541225 26.984375 2.31640625 C28.38623047 2.37924805 28.38623047 2.37924805 29.81640625 2.44335938 C30.78449219 2.48267578 31.75257813 2.52199219 32.75 2.5625 C33.73355469 2.60568359 34.71710938 2.64886719 35.73046875 2.69335938 C38.15351275 2.79922052 40.5766554 2.90130171 43 3 C43.495 3.99 43.495 3.99 44 5 C38.06 5 32.12 5 26 5 C25.67 5.66 25.34 6.32 25 7 C19.06 7.33 13.12 7.66 7 8 C8.175625 8.226875 9.35125 8.45375 10.5625 8.6875 C20.26732221 10.83730239 29.74619535 14.41179003 39 18 C38.34 19.32 37.68 20.64 37 22 C29.27581503 21.16528969 22.66662311 19.71611892 15.6015625 16.48828125 C12.62294659 15.25742153 9.72057966 14.24641058 6.6484375 13.29296875 C5.69904297 12.99608154 4.74964844 12.69919434 3.77148438 12.39331055 C1.86349349 11.80486326 -0.04928471 11.23168745 -1.96679688 10.67504883 C-8.69192411 8.57806547 -8.69192411 8.57806547 -10.421875 5.33203125 C-10.70804688 4.17767578 -10.70804688 4.17767578 -11 3 C-14.05272465 2.10169161 -14.05272465 2.10169161 -17 2 C-11.88758902 -1.19525686 -5.70478724 -1.60447141 0 0 Z " fill="#C2C7C8" transform="translate(165,102)"/>
<path d="M0 0 C0.97608217 2.92824652 1.08226668 4.95613276 1 8 C1.34933594 7.4225 1.69867188 6.845 2.05859375 6.25 C2.74115234 5.13625 2.74115234 5.13625 3.4375 4 C3.88996094 3.2575 4.34242188 2.515 4.80859375 1.75 C5.20175781 1.1725 5.59492188 0.595 6 0 C6.33 0 6.66 0 7 0 C7.05447822 2.52113092 7.09389852 5.0410585 7.125 7.5625 C7.14175781 8.26697266 7.15851563 8.97144531 7.17578125 9.69726562 C7.21957049 14.44839791 6.78429584 18.52273915 5 23 C2.9765625 24.890625 2.9765625 24.890625 0.625 26.25 C-0.14585937 26.70890625 -0.91671875 27.1678125 -1.7109375 27.640625 C-2.46632813 28.08921875 -3.22171875 28.5378125 -4 29 C-4.65742188 29.52722656 -5.31484375 30.05445313 -5.9921875 30.59765625 C-8.26648209 32.1861227 -10.03910747 32.66924113 -12.75 33.1875 C-13.54921875 33.34605469 -14.3484375 33.50460938 -15.171875 33.66796875 C-15.77515625 33.77753906 -16.3784375 33.88710937 -17 34 C-15.26930165 20.5124887 -8.27475517 10.37102648 0 0 Z " fill="#0879BF" transform="translate(350,174)"/>
<path d="M0 0 C4.39108046 4.39108046 4.89936038 11.94613022 5.19140625 17.90625 C5.18798159 21.27611583 5.13448108 24.63299224 5 28 C0.33333333 28.66666667 -4.33333333 29.33333333 -9 30 C-9.6688623 30.09555176 -10.33772461 30.19110352 -11.02685547 30.28955078 C-12.68457031 30.52636719 -14.34228516 30.76318359 -16 31 C-16.70088156 29.25531628 -17.38524009 27.50398839 -18.0625 25.75 C-18.44535156 24.77546875 -18.82820313 23.8009375 -19.22265625 22.796875 C-20.03236385 19.88355521 -20.2743507 18.70943032 -19 16 C-17.22265625 14.296875 -17.22265625 14.296875 -15.0625 12.75 C-14.35222656 12.22921875 -13.64195312 11.7084375 -12.91015625 11.171875 C-11 10 -11 10 -9 10 C-9 9.34 -9 8.68 -9 8 C-7.28515625 6.30859375 -7.28515625 6.30859375 -5.0625 4.4375 C-4.33160156 3.81746094 -3.60070312 3.19742188 -2.84765625 2.55859375 C-2.23792969 2.04425781 -1.62820313 1.52992187 -1 1 C-0.67 0.67 -0.34 0.34 0 0 Z M-2 7 C-4.26959882 8.3442285 -4.26959882 8.3442285 -6 11 C-6.05863115 14.40060685 -5.58718592 17.65559323 -5 21 C-3.35 21 -1.7 21 0 21 C1.013244 16.38411065 0.99847037 12.62927172 0 8 C-0.66 7.67 -1.32 7.34 -2 7 Z " fill="#BDC1C4" transform="translate(382,121)"/>
<path d="M0 0 C0.4371587 12.89618157 -6.89124953 24.65999932 -14 35 C-14.33 35 -14.66 35 -15 35 C-15.08302368 33.91900024 -15.08302368 33.91900024 -15.16772461 32.81616211 C-15.42197408 29.52308909 -15.67970742 26.23029747 -15.9375 22.9375 C-16.02451172 21.80376953 -16.11152344 20.67003906 -16.20117188 19.50195312 C-16.63691287 13.96642862 -17.11666835 8.48302256 -18 3 C-12.39004157 -0.73997229 -6.52699931 -0.11406407 0 0 Z M-7 2 C-7.33 3.98 -7.66 5.96 -8 8 C-7.34 7.67 -6.68 7.34 -6 7 C-5.34444881 4.47266765 -5.34444881 4.47266765 -5 2 C-5.66 2 -6.32 2 -7 2 Z " fill="#B7BCBF" transform="translate(386,155)"/>
<path d="M0 0 C0.66 0 1.32 0 2 0 C3.56307307 6.99589016 4.45016222 13.85210884 5 21 C9.29 22.32 13.58 23.64 18 25 C16.68 26.65 15.36 28.3 14 30 C13.34 29.67 12.68 29.34 12 29 C11.15308594 28.66484375 10.30617188 28.3296875 9.43359375 27.984375 C8.44488281 27.57703125 7.45617187 27.1696875 6.4375 26.75 C5.44621094 26.35296875 4.45492187 25.9559375 3.43359375 25.546875 C1 24 1 24 0.1640625 21.59765625 C-0.06066561 18.03946124 -0.06044247 14.56610556 0 11 C-0.66 11 -1.32 11 -2 11 C-2.268125 11.721875 -2.53625 12.44375 -2.8125 13.1875 C-5.11764706 18.64705882 -5.11764706 18.64705882 -7 21 C-11.41108904 21.68616941 -14.88134787 20.56901033 -19 19 C-18.505 19.61875 -18.01 20.2375 -17.5 20.875 C-16 23 -16 23 -16 25 C-16.99 25 -17.98 25 -19 25 C-19 25.66 -19 26.32 -19 27 C-19.99 26.67 -20.98 26.34 -22 26 C-21.34 26 -20.68 26 -20 26 C-23.3 21.71 -26.6 17.42 -30 13 C-25.9647383 11.99118457 -25.3481716 11.94700682 -21.75 13.3125 C-17.53815439 14.83519045 -13.35764827 15.97001041 -9 17 C-8.7421875 16.30519531 -8.484375 15.61039063 -8.21875 14.89453125 C-6.86111864 11.67015678 -5.24670987 8.71833768 -3.5 5.6875 C-2.58734375 4.08455078 -2.58734375 4.08455078 -1.65625 2.44921875 C-1.1096875 1.64097656 -0.563125 0.83273438 0 0 Z " fill="#1F2022" transform="translate(325,16)"/>
<path d="M0 0 C-0.9590625 0.3403125 -0.9590625 0.3403125 -1.9375 0.6875 C-4.2772507 1.84191647 -4.2772507 1.84191647 -4.62890625 4.58203125 C-4.81259766 5.77892578 -4.81259766 5.77892578 -5 7 C-5.69971924 7.08040527 -6.39943848 7.16081055 -7.12036133 7.24365234 C-10.35151226 7.61708187 -13.58199644 7.99601255 -16.8125 8.375 C-17.91271484 8.50132813 -19.01292969 8.62765625 -20.14648438 8.7578125 C-26.37516188 9.4927597 -32.50845683 10.39379666 -38.65454102 11.65014648 C-42.03538185 12.1544397 -44.68676029 11.79229645 -48 11 C-48.33 10.67 -48.66 10.34 -49 10 C-52.83920863 10.39175598 -56.47631362 11.10338128 -60.1875 12.125 C-63.72998143 12.93802853 -64.75589395 13.02142585 -68 12 C-51.80553021 6.13196338 -34.35564078 3.67789181 -17.375 1.1875 C-16.54162109 1.06366943 -15.70824219 0.93983887 -14.84960938 0.81225586 C-9.8511098 0.11796304 -5.04630306 -0.10970224 0 0 Z " fill="#C9CDCE" transform="translate(215,32)"/>
<path d="M0 0 C0.66 0.33 1.32 0.66 2 1 C0.71372289 2.17260611 -0.57919783 3.3379283 -1.875 4.5 C-2.59429687 5.1496875 -3.31359375 5.799375 -4.0546875 6.46875 C-6 8 -6 8 -8 8 C-8 8.66 -8 9.32 -8 10 C-9.97482702 11.44499538 -11.91303408 12.73599885 -14 14 C-14.62261719 14.37898437 -15.24523437 14.75796875 -15.88671875 15.1484375 C-20.71010638 18 -20.71010638 18 -23 18 C-23.33 18.99 -23.66 19.98 -24 21 C-26.80810666 22.83919383 -29.77368104 24.08523724 -33 25 C-36.0625 24.25 -36.0625 24.25 -38 23 C-37.835 22.401875 -37.67 21.80375 -37.5 21.1875 C-36.8885876 18.88655664 -36.8885876 18.88655664 -37 16 C-36 14 -36 14 -34.30102539 13.28564453 C-33.21035767 12.96249268 -33.21035767 12.96249268 -32.09765625 12.6328125 C-31.29424805 12.38901855 -30.49083984 12.14522461 -29.66308594 11.89404297 C-28.3757959 11.5133667 -28.3757959 11.5133667 -27.0625 11.125 C-14.63025776 7.37167945 -14.63025776 7.37167945 -3 1.6875 C-2.01 1.130625 -1.02 0.57375 0 0 Z " fill="#0C78BB" transform="translate(334,158)"/>
<path d="M0 0 C2.5654594 2.5654594 2.54046087 4.47686668 3 8 C5.64 8.66 8.28 9.32 11 10 C10.195625 10.639375 9.39125 11.27875 8.5625 11.9375 C6.7249496 13.40603502 6.7249496 13.40603502 5 15 C4.92820036 16.51928038 4.91607993 18.04167482 4.9375 19.5625 C4.94652344 20.38878906 4.95554687 21.21507813 4.96484375 22.06640625 C4.97644531 22.70449219 4.98804688 23.34257813 5 24 C3.02 22.35 1.04 20.7 -1 19 C-2.11375 19.4640625 -2.11375 19.4640625 -3.25 19.9375 C-5.50692176 20.8094925 -7.6450153 21.47667007 -10 22 C-9.05485232 17.13924051 -9.05485232 17.13924051 -8.1875 14.9375 C-8.0946875 13.9784375 -8.0946875 13.9784375 -8 13 C-9.89586384 10.85410577 -9.89586384 10.85410577 -12 9 C-12 8.34 -12 7.68 -12 7 C-9.03 7 -6.06 7 -3 7 C-2.690625 6.030625 -2.38125 5.06125 -2.0625 4.0625 C-1 1 -1 1 0 0 Z " fill="#EDECEC" transform="translate(252,45)"/>
<path d="M0 0 C0.33 0.66 0.66 1.32 1 2 C1.66 2 2.32 2 3 2 C2.39301257 6.12751449 0.96189209 9.3321148 -1 13 C3.455 12.505 3.455 12.505 8 12 C4.2032583 15.93967786 0.0208968 19.27118823 -4.24609375 22.68359375 C-7.07698379 24.97947799 -7.07698379 24.97947799 -9.66015625 27.78515625 C-12 30 -12 30 -15 30 C-13.54851821 18.68845222 -6.38914726 9.14588592 0 0 Z " fill="#C9CFD2" transform="translate(19,132)"/>
<path d="M0 0 C0.66 0.33 1.32 0.66 2 1 C1.01 1.99 0.02 2.98 -1 4 C-0.34 4.99 0.32 5.98 1 7 C-11.21271275 17.20514353 -25.11871787 25.93941907 -41 29 C-41.99 28.67 -42.98 28.34 -44 28 C-41.23116804 26.51706418 -38.4596027 25.03931138 -35.6875 23.5625 C-34.90181641 23.14162109 -34.11613281 22.72074219 -33.30664062 22.28710938 C-32.54931641 21.88427734 -31.79199219 21.48144531 -31.01171875 21.06640625 C-29.96697388 20.5086853 -29.96697388 20.5086853 -28.90112305 19.93969727 C-27 19 -27 19 -24 18 C-22.98502638 17.01520127 -21.98627765 16.01353658 -21 15 C-16.91792987 12.12205516 -12.74013621 9.62942182 -8 8 C-8 7.34 -8 6.68 -8 6 C-6.25 4.4921875 -6.25 4.4921875 -4 2.875 C-3.2575 2.33617187 -2.515 1.79734375 -1.75 1.2421875 C-0.88375 0.62730469 -0.88375 0.62730469 0 0 Z " fill="#B6C0CD" transform="translate(334,160)"/>
<path d="M0 0 C-1.81885876 5.70460249 -3.86487199 11.2362753 -6.23046875 16.73828125 C-7.21473861 19.23296065 -7.21473861 19.23296065 -7 23 C-7.66 23 -8.32 23 -9 23 C-11.99793771 17.56623789 -10.50339947 13.73171048 -9 8 C-9.86882812 8.20496094 -10.73765625 8.40992187 -11.6328125 8.62109375 C-12.78523438 8.89050781 -13.93765625 9.15992187 -15.125 9.4375 C-16.26195313 9.70433594 -17.39890625 9.97117187 -18.5703125 10.24609375 C-21.70461304 10.9350687 -24.83017726 11.50381194 -28 12 C-28.33 10.68 -28.66 9.36 -29 8 C-6.46331685 -0.21582253 -6.46331685 -0.21582253 0 0 Z " fill="#B9BDBF" transform="translate(128,85)"/>
<path d="M0 0 C0.33 0.66 0.66 1.32 1 2 C1.99 1.67 2.98 1.34 4 1 C5.35384615 8.38461538 5.35384615 8.38461538 3.5625 11.5 C3.046875 11.995 2.53125 12.49 2 13 C2 10.03 2 7.06 2 4 C-4.76834674 13.40785451 -11.26269676 22.55309553 -14 34 C-14.33 33.34 -14.66 32.68 -15 32 C-15.99 31.67 -16.98 31.34 -18 31 C-17.38766206 26.47214905 -15.58013095 22.7865474 -13.4375 18.8125 C-13.0861499 18.15556152 -12.7347998 17.49862305 -12.37280273 16.82177734 C-8.99297897 10.68060078 -4.97331152 4.97331152 0 0 Z " fill="#ABB5BE" transform="translate(348,171)"/>
<path d="M0 0 C0.33 1.32 0.66 2.64 1 4 C2.18078125 3.77183594 3.3615625 3.54367188 4.578125 3.30859375 C6.13533463 3.01778954 7.69263094 2.7274492 9.25 2.4375 C10.02730469 2.28603516 10.80460937 2.13457031 11.60546875 1.97851562 C12.35957031 1.83994141 13.11367187 1.70136719 13.890625 1.55859375 C14.58188477 1.42767334 15.27314453 1.29675293 15.98535156 1.16186523 C18.24356289 0.98043114 19.82154659 1.41190041 22 2 C23.6586512 2.14298131 25.3210869 2.24541225 26.984375 2.31640625 C28.38623047 2.37924805 28.38623047 2.37924805 29.81640625 2.44335938 C30.78449219 2.48267578 31.75257813 2.52199219 32.75 2.5625 C33.73355469 2.60568359 34.71710938 2.64886719 35.73046875 2.69335938 C38.15351275 2.79922052 40.5766554 2.90130171 43 3 C43.495 3.99 43.495 3.99 44 5 C42.48200806 4.99214478 42.48200806 4.99214478 40.93334961 4.98413086 C37.10328083 4.96574368 33.27321576 4.95444758 29.44311523 4.94506836 C27.79955383 4.94010388 26.15599668 4.93333009 24.51245117 4.92456055 C13.95716771 4.86973628 3.5229569 5.12873492 -7 6 C-6.67 6.66 -6.34 7.32 -6 8 C-7.32 7.67 -8.64 7.34 -10 7 C-10.33 5.68 -10.66 4.36 -11 3 C-13.97 2.505 -13.97 2.505 -17 2 C-11.88758902 -1.19525686 -5.70478724 -1.60447141 0 0 Z " fill="#EAEAEB" transform="translate(165,102)"/>
<path d="M0 0 C0.928125 0.680625 0.928125 0.680625 1.875 1.375 C2.98875 2.0865625 2.98875 2.0865625 4.125 2.8125 C4.7025 3.328125 5.28 3.84375 5.875 4.375 C5.875 5.365 5.875 6.355 5.875 7.375 C2.92667589 8.84916206 0.08070265 8.23574558 -3.125 8 C-12.82651248 7.36638497 -22.53315068 7.08440043 -32.25 6.8125 C-33.03149414 6.79044495 -33.81298828 6.76838989 -34.61816406 6.7456665 C-39.12035965 6.6189655 -43.62263527 6.49556444 -48.125 6.375 C-48.125 6.045 -48.125 5.715 -48.125 5.375 C-43.1953976 5.35028545 -38.26583126 5.33213309 -33.33618164 5.32006836 C-31.65909192 5.31503887 -29.98200658 5.30821452 -28.30493164 5.29956055 C-25.894683 5.28743441 -23.48449232 5.28175785 -21.07421875 5.27734375 C-20.32412033 5.27218246 -19.57402191 5.26702118 -18.80119324 5.26170349 C-15.63548768 5.26136215 -13.15162028 5.36612657 -10.125 6.375 C-9.91875 5.776875 -9.7125 5.17875 -9.5 4.5625 C-7.3594262 1.15704168 -4.07460117 -1.19841211 0 0 Z " fill="#3A3639" transform="translate(251.125,63.625)"/>
<path d="M0 0 C12.52324668 0.95593373 24.75327691 2.1386161 37 5 C36.01 5.66 35.02 6.32 34 7 C34 8.32 34 9.64 34 11 C22.39738387 8.72091469 11.18131974 4.79366205 0 1 C0 0.67 0 0.34 0 0 Z " fill="#AFB7B7" transform="translate(270,60)"/>
<path d="M0 0 C0.33 0.66 0.66 1.32 1 2 C-0.98 2.33 -2.96 2.66 -5 3 C-4.24849977 6.27773504 -4.24849977 6.27773504 -1 8 C-3.03404358 8.87216409 -5.07765486 9.72203505 -7.125 10.5625 C-8.83042969 11.27599609 -8.83042969 11.27599609 -10.5703125 12.00390625 C-14.22919405 13.06656547 -16.34774355 12.92694047 -20 12 C-20.33 10.02 -20.66 8.04 -21 6 C-20.32195312 5.81824219 -19.64390625 5.63648438 -18.9453125 5.44921875 C-12.59735393 3.73474241 -6.28782256 1.92317349 0 0 Z " fill="#B2B8BC" transform="translate(326,156)"/>
<path d="M0 0 C-0.639375 0.45375 -1.27875 0.9075 -1.9375 1.375 C-4.09702406 2.83921726 -4.09702406 2.83921726 -5 5 C-3.35 5 -1.7 5 0 5 C-0.33 5.66 -0.66 6.32 -1 7 C-1.64066406 6.97679687 -2.28132813 6.95359375 -2.94140625 6.9296875 C-8.40987096 6.81559137 -12.83098277 7.20208096 -18 9 C-18 10.65 -18 12.3 -18 14 C-18.99 14.33 -19.98 14.66 -21 15 C-22.20882096 17.00016466 -22.20882096 17.00016466 -23 19 C-23 16.69 -23 14.38 -23 12 C-23.66 11.67 -24.32 11.34 -25 11 C-23.68 11 -22.36 11 -21 11 C-20.7834375 10.0409375 -20.7834375 10.0409375 -20.5625 9.0625 C-20 7 -20 7 -19 6 C-19.66 5.67 -20.32 5.34 -21 5 C-21 4.34 -21 3.68 -21 3 C-13.82140651 0.95938459 -7.47394574 -0.37369729 0 0 Z " fill="#201D22" transform="translate(387,149)"/>
<path d="M0 0 C4.58697861 0.53336961 8.95132405 1.45660546 13.4375 2.5625 C21.80221056 4.69433019 21.80221056 4.69433019 30 3 C29.34 4.32 28.68 5.64 28 7 C23.21521178 7.09764874 18.72314313 6.77112541 14 6 C14.33 6.66 14.66 7.32 15 8 C12.69 7.67 10.38 7.34 8 7 C7.67 7.99 7.34 8.98 7 10 C5.82174642 9.09827532 4.65768423 8.17798498 3.5 7.25 C2.8503125 6.73953125 2.200625 6.2290625 1.53125 5.703125 C0 4 0 4 0 0 Z " fill="#D6DADB" transform="translate(285,20)"/>
<path d="M0 0 C2.01822917 0.29296875 4.03645833 0.5859375 6.0546875 0.87890625 C8.08140667 1.1684297 8.08140667 1.1684297 10 0 C10 0.66 10 1.32 10 2 C10.928125 1.87625 11.85625 1.7525 12.8125 1.625 C18.99802789 1.58705198 25.40121627 5.58446384 29.828125 9.69921875 C30.21484375 10.12847656 30.6015625 10.55773437 31 11 C25.9131463 12.31713176 23.53177909 11.68592725 19 9.125 C14.88999984 6.82382803 11.65614122 5.65338221 7 5 C4.57999041 4.13826227 2.33889818 3.07589316 0 2 C0 1.34 0 0.68 0 0 Z " fill="#BCC2C1" transform="translate(321,73)"/>
<path d="M0 0 C0.66 0.33 1.32 0.66 2 1 C1.41992188 1.66644531 0.83984375 2.33289063 0.2421875 3.01953125 C-5.09648733 9.31846277 -9.34804545 15.59584117 -13 23 C-13.33 23 -13.66 23 -14 23 C-14 21.35 -14 19.7 -14 18 C-14.99 18 -15.98 18 -17 18 C-17.0047917 14.80872486 -16.69318507 12.70965383 -14.41748047 10.37988281 C-12.30599045 8.71299779 -10.14989604 7.15535081 -7.9375 5.625 C-6.79958008 4.80708984 -6.79958008 4.80708984 -5.63867188 3.97265625 C-3.76957825 2.63255138 -1.89058346 1.3095253 0 0 Z " fill="#0B79B5" transform="translate(335,166)"/>
<path d="M0 0 C0.66 0.33 1.32 0.66 2 1 C2 2.65 2 4.3 2 6 C3.98 6 5.96 6 8 6 C7.2884375 6.556875 7.2884375 6.556875 6.5625 7.125 C4.47794198 9.62646962 4.35378509 11.81593418 4 15 C3.01 14.67 2.02 14.34 1 14 C1 13.34 1 12.68 1 12 C-1.31 12.66 -3.62 13.32 -6 14 C-5.773125 13.0925 -5.54625 12.185 -5.3125 11.25 C-4.67394455 8.00496499 -4.67394455 8.00496499 -6.4375 5.625 C-6.953125 5.08875 -7.46875 4.5525 -8 4 C-5.69 4 -3.38 4 -1 4 C-0.67 2.68 -0.34 1.36 0 0 Z " fill="#DEDDDC" transform="translate(152,72)"/>
<path d="M0 0 C1.09570312 0.19464844 2.19140625 0.38929687 3.3203125 0.58984375 C4.16335937 0.74582031 5.00640625 0.90179688 5.875 1.0625 C6.0703125 7.1171875 6.0703125 7.1171875 5.875 9.0625 C5.215 9.7225 4.555 10.3825 3.875 11.0625 C3.318125 10.299375 2.76125 9.53625 2.1875 8.75 C-3.15537469 3.33035987 -12.96217312 3.22929533 -20.125 2.0625 C-20.125 1.7325 -20.125 1.4025 -20.125 1.0625 C-15.96361737 0.98090426 -12.1777516 1.08001476 -8.125 2.0625 C-8.125 1.4025 -8.125 0.7425 -8.125 0.0625 C-5.2144446 -1.3927777 -3.16650948 -0.57266661 0 0 Z " fill="#BFC6C9" transform="translate(238.125,101.9375)"/>
<path d="M0 0 C0 0.66 0 1.32 0 2 C1.98 2.66 3.96 3.32 6 4 C6 4.33 6 4.66 6 5 C-4.56 5 -15.12 5 -26 5 C-23.77310135 2.77310135 -23.07551844 2.63796155 -20.078125 2.1484375 C-18.91023437 1.95507812 -18.91023437 1.95507812 -17.71875 1.7578125 C-16.49671875 1.56832031 -16.49671875 1.56832031 -15.25 1.375 C-14.05117187 1.17390625 -14.05117187 1.17390625 -12.828125 0.96875 C-8.50637029 0.27215138 -4.39333326 -0.15589247 0 0 Z " fill="#B9BDBC" transform="translate(195,71)"/>
<path d="M0 0 C2.54194161 0.14188985 5.08347993 0.28839155 7.625 0.4375 C8.69427734 0.49647461 8.69427734 0.49647461 9.78515625 0.55664062 C13.91803682 0.80309681 17.92269024 1.23470053 22 2 C18.82848903 4.11434065 16.13567139 5.01955937 12.5 6.125 C11.3553125 6.47820312 10.210625 6.83140625 9.03125 7.1953125 C6 8 6 8 3 8 C1.9375 6.125 1.9375 6.125 1 4 C1.33 3.34 1.66 2.68 2 2 C1.34 1.34 0.68 0.68 0 0 Z " fill="#167EBE" transform="translate(289,134)"/>
<path d="M0 0 C7.99852497 1.99963124 13.85578045 7.77741338 20 13 C19.01 13.495 19.01 13.495 18 14 C15.94502165 13.1626774 13.92919007 12.22837407 11.9375 11.25 C6.68648109 8.74117985 1.56104506 6.69659002 -4 5 C-3.34 4.54625 -2.68 4.0925 -2 3.625 C-1.34 3.08875 -0.68 2.5525 0 2 C0 1.34 0 0.68 0 0 Z " fill="#191B1F" transform="translate(285,94)"/>
<path d="M0 0 C0.33 0 0.66 0 1 0 C1.33 3.63 1.66 7.26 2 11 C6.29 12.32 10.58 13.64 15 15 C13.68 16.65 12.36 18.3 11 20 C10.34 19.67 9.68 19.34 9 19 C7.72962891 18.566875 7.72962891 18.566875 6.43359375 18.125 C3.35705251 16.96979286 0.71493612 15.86055526 -2 14 C-3.24274403 10.93422238 -3.30634309 8.27003439 -3 5 C-2.34 5 -1.68 5 -1 5 C-0.67 3.35 -0.34 1.7 0 0 Z " fill="#222428" transform="translate(328,26)"/>
<path d="M0 0 C2.60466543 0.30872329 5.20867691 0.62181723 7.8125 0.9375 C8.55048828 1.02451172 9.28847656 1.11152344 10.04882812 1.20117188 C13.16733121 1.58216546 16.01108122 2.00369374 19 3 C19 3.66 19 4.32 19 5 C18.34 5 17.68 5 17 5 C17 5.66 17 6.32 17 7 C10.42208127 6.58955515 4.25948114 6.13391403 -2 4 C-1.34 2.68 -0.68 1.36 0 0 Z " fill="#B7BABC" transform="translate(213,97)"/>
<path d="M0 0 C2.9375 0.375 2.9375 0.375 6 1 C6.33 1.66 6.66 2.32 7 3 C4.71000939 4.81465313 2.41810968 6.62679598 0.125 8.4375 C-0.85146484 9.2119043 -0.85146484 9.2119043 -1.84765625 10.00195312 C-2.47285156 10.49501953 -3.09804687 10.98808594 -3.7421875 11.49609375 C-4.3182373 11.95169678 -4.89428711 12.4072998 -5.48779297 12.87670898 C-7 14 -7 14 -9 15 C-9 14.34 -9 13.68 -9 13 C-9.66 12.67 -10.32 12.34 -11 12 C-10.37351562 11.38511719 -9.74703125 10.77023438 -9.1015625 10.13671875 C-8.28429687 9.32847656 -7.46703125 8.52023438 -6.625 7.6875 C-5.40683594 6.48673828 -5.40683594 6.48673828 -4.1640625 5.26171875 C-1.87395158 2.99990063 -1.87395158 2.99990063 0 0 Z " fill="#BDBFC2" transform="translate(75,71)"/>
<path d="M0 0 C-13.36893204 6 -13.36893204 6 -17 6 C-17 5.34 -17 4.68 -17 4 C-29.87 3.505 -29.87 3.505 -43 3 C-43.33 2.34 -43.66 1.68 -44 1 C-42.87525269 1.01571045 -42.87525269 1.01571045 -41.7277832 1.03173828 C-38.25605769 1.07389095 -34.78438633 1.09951158 -31.3125 1.125 C-30.13365234 1.14175781 -28.95480469 1.15851563 -27.74023438 1.17578125 C-20.54759037 1.215193 -13.80199211 0.68031951 -6.73120117 -0.66455078 C-4.10211632 -0.98745796 -2.48034823 -0.84716511 0 0 Z " fill="#2581BA" transform="translate(328,143)"/>
<path d="M0 0 C0.99 0.33 1.98 0.66 3 1 C3 1.33 3 1.66 3 2 C5.97 2.495 5.97 2.495 9 3 C9 3.33 9 3.66 9 4 C4.9247366 4.76776475 1.08994553 5.11902034 -3.0546875 5.09765625 C-4.16328125 5.09443359 -5.271875 5.09121094 -6.4140625 5.08789062 C-7.55617188 5.07951172 -8.69828125 5.07113281 -9.875 5.0625 C-11.0403125 5.05798828 -12.205625 5.05347656 -13.40625 5.04882812 C-16.27088645 5.03708781 -19.13541633 5.0206657 -22 5 C-18.9624947 2.5929732 -17.14625246 1.59898915 -13.25 1.3125 C-12.45078125 1.24675781 -11.6515625 1.18101562 -10.828125 1.11328125 C-10.22484375 1.07589844 -9.6215625 1.03851563 -9 1 C-9 1.66 -9 2.32 -9 3 C-4.545 2.505 -4.545 2.505 0 2 C0 1.34 0 0.68 0 0 Z " fill="#A4BED1" transform="translate(308,140)"/>
<path d="M0 0 C0.66 0.33 1.32 0.66 2 1 C0.71372289 2.17260611 -0.57919783 3.3379283 -1.875 4.5 C-2.59429687 5.1496875 -3.31359375 5.799375 -4.0546875 6.46875 C-6 8 -6 8 -8 8 C-8 8.66 -8 9.32 -8 10 C-11.67452438 12.8394052 -13.26886581 14 -18 14 C-18 12.68 -18 11.36 -18 10 C-17.195625 9.71125 -16.39125 9.4225 -15.5625 9.125 C-12.8673532 8.26737432 -12.8673532 8.26737432 -12 6 C-10.05831897 4.87045065 -8.0712024 3.81804543 -6.0625 2.8125 C-4.98097656 2.26207031 -3.89945312 1.71164063 -2.78515625 1.14453125 C-1.86605469 0.76683594 -0.94695312 0.38914063 0 0 Z " fill="#0C78BF" transform="translate(334,158)"/>
<path d="M0 0 C0.33 0.99 0.66 1.98 1 3 C0.34 3.66 -0.32 4.32 -1 5 C-1.33 5.99 -1.66 6.98 -2 8 C-4.60242414 9.64820195 -5.86248779 10 -9 10 C-9 9.01 -9 8.02 -9 7 C-9.70125 7.33 -10.4025 7.66 -11.125 8 C-14.26003116 9.09044562 -16.70563182 9.15322643 -20 9 C-19.67 8.34 -19.34 7.68 -19 7 C-17.14453125 6.5078125 -17.14453125 6.5078125 -14.8125 6.125 C-10.44873078 5.25917277 -7.62770053 3.61531899 -4 1 C-1.625 0.25 -1.625 0.25 0 0 Z " fill="#A8BBC8" transform="translate(352,200)"/>
<path d="M0 0 C-1.49275118 2.98550237 -3.78470324 3.55351378 -6.75 5 C-7.79671875 5.515625 -8.8434375 6.03125 -9.921875 6.5625 C-12.58689455 7.80707766 -15.25620727 8.94313169 -18 10 C-17.67 9.01 -17.34 8.02 -17 7 C-16.01 7 -15.02 7 -14 7 C-14.33 5.35 -14.66 3.7 -15 2 C-9.32010626 -0.49118146 -6.05525768 -1.38766322 0 0 Z " fill="#C7CCCC" transform="translate(76,110)"/>
<path d="M0 0 C0.66 0.33 1.32 0.66 2 1 C1.3503125 1.60328125 0.700625 2.2065625 0.03125 2.828125 C-0.8040625 3.62734375 -1.639375 4.4265625 -2.5 5.25 C-3.3353125 6.03890625 -4.170625 6.8278125 -5.03125 7.640625 C-7.42712294 9.99972193 -7.42712294 9.99972193 -7 14 C-8.5 15.75 -8.5 15.75 -10 17 C-11.98 16.34 -13.96 15.68 -16 15 C-13.12999596 11.15514898 -10.0624814 8.23396384 -6.3125 5.25 C-5.33925781 4.47140625 -4.36601563 3.6928125 -3.36328125 2.890625 C-2.58339844 2.26671875 -1.80351563 1.6428125 -1 1 C-0.67 0.67 -0.34 0.34 0 0 Z " fill="#CCCFD1" transform="translate(72,73)"/>
<path d="M0 0 C1.90389849 2.85584773 2.69462177 4.9311762 3.625 8.1875 C3.88539063 9.08855469 4.14578125 9.98960937 4.4140625 10.91796875 C4.60742188 11.60503906 4.80078125 12.29210937 5 13 C3.68 12.67 2.36 12.34 1 12 C1.33 12.33 1.66 12.66 2 13 C1.34 14.32 0.68 15.64 0 17 C-0.27714844 16.15695313 -0.55429687 15.31390625 -0.83984375 14.4453125 C-1.20207031 13.34960938 -1.56429688 12.25390625 -1.9375 11.125 C-2.29714844 10.03445312 -2.65679687 8.94390625 -3.02734375 7.8203125 C-3.89914074 5.09241318 -3.89914074 5.09241318 -5 3 C-3.68 3 -2.36 3 -1 3 C-0.67 2.01 -0.34 1.02 0 0 Z " fill="#232626" transform="translate(361,138)"/>
<path d="M0 0 C0.99 0.66 1.98 1.32 3 2 C3 2.66 3 3.32 3 4 C1.27318563 4.50806447 -0.45657979 5.00610467 -2.1875 5.5 C-3.63189453 5.91765625 -3.63189453 5.91765625 -5.10546875 6.34375 C-7.85345876 6.96677608 -10.19598416 7.12302812 -13 7 C-9.86052332 2.29078498 -5.86695173 -0.95139758 0 0 Z " fill="#B9BDBF" transform="translate(166,41)"/>
<path d="M0 0 C2.475 0.99 2.475 0.99 5 2 C5 2.99 5 3.98 5 5 C5.99 5.33 6.98 5.66 8 6 C7.01 7.485 7.01 7.485 6 9 C5.31822584 10.32567199 4.64808564 11.65753688 4 13 C4 12.34 4 11.68 4 11 C1.69 10.34 -0.62 9.68 -3 9 C-3 8.34 -3 7.68 -3 7 C-1.68 6.67 -0.36 6.34 1 6 C0.67 4.02 0.34 2.04 0 0 Z " fill="#100E12" transform="translate(361,149)"/>
<path d="M0 0 C0 0.33 0 0.66 0 1 C0.66 1 1.32 1 2 1 C2 1.66 2 2.32 2 3 C-2.92737019 4.97094808 -6.78020872 5.1799928 -12 5 C-11.67 4.34 -11.34 3.68 -11 3 C-10.01 3 -9.02 3 -8 3 C-8 2.34 -8 1.68 -8 1 C-8.495 1.165 -8.99 1.33 -9.5 1.5 C-13.03444089 2.20688818 -16.39690701 2.06005155 -20 2 C-20 1.67 -20 1.34 -20 1 C-17.41765641 0.63667026 -14.83460218 0.28405133 -12.25 -0.0625 C-11.52039063 -0.16626953 -10.79078125 -0.27003906 -10.0390625 -0.37695312 C-6.3892704 -0.85806208 -3.52327086 -1.04532842 0 0 Z " fill="#B2C3CE" transform="translate(300,154)"/>
<path d="M0 0 C0.88655273 0.00193359 1.77310547 0.00386719 2.68652344 0.00585938 C8.60025159 0.04497996 14.38236936 0.34264925 20.25 1.125 C20.25 1.455 20.25 1.785 20.25 2.125 C19.47809326 2.11976318 18.70618652 2.11452637 17.91088867 2.10913086 C14.41976737 2.08836758 10.92865905 2.07534189 7.4375 2.0625 C6.22255859 2.05412109 5.00761719 2.04574219 3.75585938 2.03710938 C2.59248047 2.03388672 1.42910156 2.03066406 0.23046875 2.02734375 C-0.84307861 2.02210693 -1.91662598 2.01687012 -3.02270508 2.01147461 C-5.84499365 2.00305412 -5.84499365 2.00305412 -8.75 3.125 C-10.47795352 3.19302967 -12.20835365 3.20995645 -13.9375 3.1875 C-15.28908203 3.17396484 -15.28908203 3.17396484 -16.66796875 3.16015625 C-17.35503906 3.14855469 -18.04210937 3.13695313 -18.75 3.125 C-13.09331991 -0.64612006 -6.57942637 -0.03438297 0 0 Z " fill="#E3E4E5" transform="translate(184.75,98.875)"/>
<path d="M0 0 C0.66 0.66 1.32 1.32 2 2 C1.9765625 5.0390625 1.9765625 5.0390625 1.625 8.625 C1.45871094 10.40777344 1.45871094 10.40777344 1.2890625 12.2265625 C1.19367188 13.14179688 1.09828125 14.05703125 1 15 C0.67 15 0.34 15 0 15 C-0.33 12.69 -0.66 10.38 -1 8 C-4.0210714 10.0140476 -5.60667426 11.63279613 -7 15 C-7.48311017 11.77926556 -7.4060262 9.66939455 -5.69921875 6.85546875 C-3.90328071 4.47660094 -2.11074387 2.11074387 0 0 Z " fill="#D4D4D8" transform="translate(382,121)"/>
<path d="M0 0 C0.66 0.33 1.32 0.66 2 1 C-5.36143498 11.49686099 -5.36143498 11.49686099 -9.37890625 12.73046875 C-11.5625 12.6875 -11.5625 12.6875 -15 12 C-10 8 -5 4 0 0 Z " fill="#2782BE" transform="translate(335,166)"/>
<path d="M0 0 C0.66 1.32 1.32 2.64 2 4 C1.01 4 0.02 4 -1 4 C-1.66 5.65 -2.32 7.3 -3 9 C-5.64 8.67 -8.28 8.34 -11 8 C-7.72291137 4.32966073 -4.28477792 2.30718811 0 0 Z " fill="#B5B7B8" transform="translate(60,113)"/>
<path d="M0 0 C1.125 3.75 1.125 3.75 0 6 C1.32 6.66 2.64 7.32 4 8 C1.09399739 9.25664978 -0.79604584 10 -4 10 C-3.01 7.03 -2.02 4.06 -1 1 C-2.2375 1.515625 -3.475 2.03125 -4.75 2.5625 C-7.9493138 3.89554742 -9.69564916 4.12377697 -13 3 C-8.37802694 0.78145293 -5.23175837 -0.38281159 0 0 Z " fill="#EAEBEB" transform="translate(143,38)"/>
<path d="M0 0 C0.99 1.32 1.98 2.64 3 4 C-2.93661416 6.41862058 -8.68878497 7.9007105 -15 9 C-10.50898372 4.95808535 -5.41015011 2.56325559 0 0 Z " fill="#A4BDD0" transform="translate(305,180)"/>
<path d="M0 0 C0.66 0 1.32 0 2 0 C2.33 2.97 2.66 5.94 3 9 C0.69 9.66 -1.62 10.32 -4 11 C-4.33 10.34 -4.66 9.68 -5 9 C-4.00390625 6.8359375 -4.00390625 6.8359375 -2.5625 4.375 C-2.08941406 3.55773437 -1.61632812 2.74046875 -1.12890625 1.8984375 C-0.75636719 1.27195312 -0.38382812 0.64546875 0 0 Z " fill="#202323" transform="translate(325,16)"/>
<path d="M0 0 C7.26 0.66 14.52 1.32 22 2 C21.34 3.32 20.68 4.64 20 6 C13.08336373 4.90109517 6.57263201 3.43430815 0 1 C0 0.67 0 0.34 0 0 Z " fill="#9D9B9A" transform="translate(270,60)"/>
<path d="M0 0 C2.01822917 0.29296875 4.03645833 0.5859375 6.0546875 0.87890625 C8.08140667 1.1684297 8.08140667 1.1684297 10 0 C10 0.66 10 1.32 10 2 C11.65 2 13.3 2 15 2 C15 3.32 15 4.64 15 6 C9.17728663 6.59720137 5.0790596 4.528243 0 2 C0 1.34 0 0.68 0 0 Z " fill="#D4D7DB" transform="translate(321,73)"/>
<path d="M0 0 C1.4540625 0.0309375 1.4540625 0.0309375 2.9375 0.0625 C2.2775 3.0325 1.6175 6.0025 0.9375 9.0625 C-0.3825 8.4025 -1.7025 7.7425 -3.0625 7.0625 C-3.875 4 -3.875 4 -4.0625 1.0625 C-3.0625 0.0625 -3.0625 0.0625 0 0 Z " fill="#C5C4C7" transform="translate(383.0625,154.9375)"/>
<path d="M0 0 C0.66 0.33 1.32 0.66 2 1 C0.69267618 3.91633776 -0.75864056 5.75864056 -3 8 C-3 8.66 -3 9.32 -3 10 C-5.64 10.33 -8.28 10.66 -11 11 C-7.81316569 6.66590534 -4.13621084 3.3810038 0 0 Z " fill="#B4B9BA" transform="translate(30,134)"/>
<path d="M0 0 C0.33 0 0.66 0 1 0 C2.823321 6.15370839 3.2361959 11.59646678 3 18 C2.67 18 2.34 18 2 18 C1.87625 17.195625 1.7525 16.39125 1.625 15.5625 C1.315625 14.2940625 1.315625 14.2940625 1 13 C0.34 12.67 -0.32 12.34 -1 12 C-1.02712066 10.56260487 -1.04645067 9.12506137 -1.0625 7.6875 C-1.07410156 6.88699219 -1.08570313 6.08648437 -1.09765625 5.26171875 C-1 3 -1 3 0 0 Z " fill="#AFB0B2" transform="translate(384,127)"/>
<path d="M0 0 C2.3125 0 2.3125 0 5 1 C6.38293093 3.55518097 7.21791649 6.20866129 8 9 C4.54074837 7.7508258 1.85306797 6.32472205 -1 4 C-0.67 2.68 -0.34 1.36 0 0 Z " fill="#B5B6BA" transform="translate(277,197)"/>
<path d="M0 0 C0.66 1.32 1.32 2.64 2 4 C0.8572081 5.16964602 -0.28931715 6.33564556 -1.4375 7.5 C-2.07558594 8.1496875 -2.71367187 8.799375 -3.37109375 9.46875 C-5 11 -5 11 -6 11 C-6.375 8.875 -6.375 8.875 -6 6 C-4.20659643 3.76086748 -2.16547337 1.87545461 0 0 Z " fill="#ACAEB3" transform="translate(378,112)"/>
<path d="M0 0 C2 3 2 3 2 5 C2.66 5 3.32 5 4 5 C4 5.66 4 6.32 4 7 C1.69 7.33 -0.62 7.66 -3 8 C-3.1875 5.125 -3.1875 5.125 -3 2 C-2.01 1.34 -1.02 0.68 0 0 Z " fill="#BCC2D2" transform="translate(304,163)"/>
<path d="M0 0 C0.66 0.33 1.32 0.66 2 1 C0.71372289 2.17260611 -0.57919783 3.3379283 -1.875 4.5 C-2.59429687 5.1496875 -3.31359375 5.799375 -4.0546875 6.46875 C-6 8 -6 8 -8 8 C-8.33 8.66 -8.66 9.32 -9 10 C-9.99 8.68 -10.98 7.36 -12 6 C-10.04669132 4.96958487 -8.08718472 3.9509107 -6.125 2.9375 C-5.03445313 2.36902344 -3.94390625 1.80054688 -2.8203125 1.21484375 C-1.42425781 0.61349609 -1.42425781 0.61349609 0 0 Z " fill="#4089BC" transform="translate(334,158)"/>
<path d="M0 0 C0.33 0.99 0.66 1.98 1 3 C1.66 3 2.32 3 3 3 C1.48328036 7.55015893 -2.16891053 9.50057264 -6 12 C-4.68139111 7.38486888 -2.78644563 3.90102388 0 0 Z " fill="#2E3135" transform="translate(24,133)"/>
<path d="M0 0 C0 0.99 0 1.98 0 3 C-4.95 3 -9.9 3 -15 3 C-11.07677056 -0.92322944 -5.25785342 -0.10515707 0 0 Z " fill="#B1B0B0" transform="translate(184,73)"/>
<path d="M0 0 C0.33 0.66 0.66 1.32 1 2 C1.99 1.67 2.98 1.34 4 1 C5.35384615 8.38461538 5.35384615 8.38461538 3.5625 11.5 C3.046875 11.995 2.53125 12.49 2 13 C2 10.03 2 7.06 2 4 C0.68 4.33 -0.64 4.66 -2 5 C-1.125 1.125 -1.125 1.125 0 0 Z " fill="#95B4C2" transform="translate(348,171)"/>
<path d="M0 0 C-0.33 2.97 -0.66 5.94 -1 9 C-3 6 -3 6 -3 2 C-3.66 2 -4.32 2 -5 2 C-5.33 2.99 -5.66 3.98 -6 5 C-6.99 5 -7.98 5 -9 5 C-9 4.01 -9 3.02 -9 2 C-7.68786298 1.66524067 -6.37527913 1.33223233 -5.0625 1 C-3.96615234 0.7215625 -3.96615234 0.7215625 -2.84765625 0.4375 C-1 0 -1 0 0 0 Z " fill="#101211" transform="translate(328,25)"/>
<path d="M0 0 C2 3 2 3 2 5 C1.01 5.495 1.01 5.495 0 6 C-1.05352843 8.30965848 -2.05719096 10.6429774 -3 13 C-3.66 13 -4.32 13 -5 13 C-5.33 14.32 -5.66 15.64 -6 17 C-6.33 16.34 -6.66 15.68 -7 15 C-6.07421875 12.5390625 -6.07421875 12.5390625 -4.6875 9.625 C-4.23761719 8.66851562 -3.78773438 7.71203125 -3.32421875 6.7265625 C-2.23131415 4.47627515 -1.12721261 2.2332569 0 0 Z " fill="#2782C0" transform="translate(341,186)"/>
<path d="M0 0 C0.66 0 1.32 0 2 0 C2 0.66 2 1.32 2 2 C3.98 2 5.96 2 8 2 C7.67 2.66 7.34 3.32 7 4 C4.93359375 4.6328125 4.93359375 4.6328125 2.4375 5.125 C1.61121094 5.29257813 0.78492188 5.46015625 -0.06640625 5.6328125 C-0.70449219 5.75398437 -1.34257812 5.87515625 -2 6 C-1.125 1.125 -1.125 1.125 0 0 Z " fill="#177CB8" transform="translate(335,202)"/>
<path d="M0 0 C3.63 0 7.26 0 11 0 C10.01 0.495 10.01 0.495 9 1 C9.66 2.32 10.32 3.64 11 5 C9.35153231 4.55123384 7.70626545 4.09069512 6.0625 3.625 C5.14597656 3.36976563 4.22945313 3.11453125 3.28515625 2.8515625 C1 2 1 2 0 0 Z " fill="#9FBFCE" transform="translate(263,126)"/>
<path d="M0 0 C9.59453303 1.74259681 9.59453303 1.74259681 13 5 C8.80838094 5 5.11142314 4.86556277 1 4 C0.67 2.68 0.34 1.36 0 0 Z " fill="#AFAFB2" transform="translate(323,70)"/>
<path d="M0 0 C3.14737182 0.69941596 6.02588876 1.76078698 9 3 C9 3.33 9 3.66 9 4 C7.39125 3.938125 7.39125 3.938125 5.75 3.875 C2.34252515 3.9885825 0.79260369 4.21273364 -2 6 C-1.34 4.02 -0.68 2.04 0 0 Z " fill="#1D84BF" transform="translate(260,126)"/>
<path d="M0 0 C-1.98 0.66 -3.96 1.32 -6 2 C-6 2.99 -6 3.98 -6 5 C-9.63 5 -13.26 5 -17 5 C-13.97546033 2.98364022 -11.36924652 1.96753498 -7.9375 0.8125 C-6.87402344 0.44769531 -5.81054688 0.08289063 -4.71484375 -0.29296875 C-2 -1 -2 -1 0 0 Z " fill="#3385B9" transform="translate(322,166)"/>
<path d="M0 0 C1 2 1 2 0.375 5.4375 C-1.16163629 9.41878493 -2.1915187 10.29620573 -6 12 C-4.68139111 7.38486888 -2.78644563 3.90102388 0 0 Z " fill="#8EB1CC" transform="translate(318,194)"/>
<path d="M0 0 C-1.875 4.75 -1.875 4.75 -3 7 C-3.66 7 -4.32 7 -5 7 C-5.33 5.02 -5.66 3.04 -6 1 C-4 0 -4 0 0 0 Z " fill="#151112" transform="translate(342,177)"/>
<path d="M0 0 C0.66 0 1.32 0 2 0 C1.979375 0.78375 1.95875 1.5675 1.9375 2.375 C1.81315937 4.98114961 1.81315937 4.98114961 3 7 C2.06421005 9.35981813 1.06652192 11.69631264 0 14 C-0.33 14 -0.66 14 -1 14 C-0.67 9.38 -0.34 4.76 0 0 Z " fill="#EAF1F4" transform="translate(377,157)"/>
<path d="M0 0 C0.99 0 1.98 0 3 0 C3 1.65 3 3.3 3 5 C2.34 5 1.68 5 1 5 C0.67 6.32 0.34 7.64 0 9 C-1.32 8.67 -2.64 8.34 -4 8 C-4 7.34 -4 6.68 -4 6 C-2.68 6 -1.36 6 0 6 C-0.2784375 4.7934375 -0.2784375 4.7934375 -0.5625 3.5625 C-0.706875 2.716875 -0.85125 1.87125 -1 1 C-0.67 0.67 -0.34 0.34 0 0 Z " fill="#0C0B10" transform="translate(360,133)"/>
<path d="M0 0 C0.33 0.99 0.66 1.98 1 3 C-2.3 6.3 -5.6 9.6 -9 13 C-9 8.86218946 -7.28490393 7.79080004 -4.5 4.8125 C-3.6646875 3.91144531 -2.829375 3.01039062 -1.96875 2.08203125 C-0.99421875 1.05142578 -0.99421875 1.05142578 0 0 Z " fill="#D7D9DA" transform="translate(45,98)"/>
<path d="M0 0 C0 0.33 0 0.66 0 1 C-1.98 1.33 -3.96 1.66 -6 2 C-6 2.99 -6 3.98 -6 5 C-8.35171131 4.40138258 -10.6859378 3.73075648 -13 3 C-13.33 2.34 -13.66 1.68 -14 1 C-9.23692563 0.04738513 -4.8333472 -0.08333357 0 0 Z " fill="#9A9E9D" transform="translate(313,78)"/>
<path d="M0 0 C0.99 0.33 1.98 0.66 3 1 C3 2.65 3 4.3 3 6 C2.01 6.33 1.02 6.66 0 7 C-1.20882096 9.00016466 -1.20882096 9.00016466 -2 11 C-2 8.69 -2 6.38 -2 4 C-2.66 3.67 -3.32 3.34 -4 3 C-2.68 3 -1.36 3 0 3 C0 2.01 0 1.02 0 0 Z " fill="#252529" transform="translate(366,157)"/>
<path d="M0 0 C3.1875 0.875 3.1875 0.875 6 2 C4.68 3.32 3.36 4.64 2 6 C1.01 5.67 0.02 5.34 -1 5 C-1 4.34 -1 3.68 -1 3 C-1.66 2.67 -2.32 2.34 -3 2 C-2.01 1.34 -1.02 0.68 0 0 Z " fill="#221F25" transform="translate(346,108)"/>
<path d="M0 0 C0.66 0.66 1.32 1.32 2 2 C3.31747324 2.69748583 4.64914193 3.36959957 6 4 C1.375 7 1.375 7 -2 7 C-1.34 4.69 -0.68 2.38 0 0 Z " fill="#1D1F23" transform="translate(26,130)"/>
<path d="M0 0 C2.00720923 0.28674418 4.0085944 0.61866701 6 1 C5.360625 1.28875 4.72125 1.5775 4.0625 1.875 C1.84793921 2.82823451 1.84793921 2.82823451 1 5 C-4.75 3.25 -4.75 3.25 -7 1 C-5.5459375 1.0309375 -5.5459375 1.0309375 -4.0625 1.0625 C-1.12534105 1.35618499 -1.12534105 1.35618499 0 0 Z " fill="#2C2D2F" transform="translate(302,82)"/>
<path d="M0 0 C-0.99 1.485 -0.99 1.485 -2 3 C-4.1640625 3.29296875 -4.1640625 3.29296875 -6.625 3.1875 C-7.44226563 3.16042969 -8.25953125 3.13335937 -9.1015625 3.10546875 C-10.04128906 3.05326172 -10.04128906 3.05326172 -11 3 C-7.70039114 0.18922208 -4.22288017 -2.11144009 0 0 Z " fill="#A8BFCD" transform="translate(297,142)"/>
<path d="M0 0 C0.99 0.33 1.98 0.66 3 1 C1.60667426 4.36720387 0.0210714 5.9859524 -3 8 C-2.25 2.25 -2.25 2.25 0 0 Z " fill="#B7BABC" transform="translate(45,101)"/>
<path d="M0 0 C3.3 1.65 6.6 3.3 10 5 C6.52128379 6.15957207 5.65780355 5.77456651 2.3125 4.5625 C1.50425781 4.27503906 0.69601562 3.98757812 -0.13671875 3.69140625 C-0.75160156 3.46324219 -1.36648438 3.23507813 -2 3 C-1.34 2.67 -0.68 2.34 0 2 C0 1.34 0 0.68 0 0 Z " fill="#373C42" transform="translate(315,76)"/>
<path d="M0 0 C1.67542976 0.28604898 3.34385343 0.61781233 5 1 C5 1.66 5 2.32 5 3 C1.535 4.485 1.535 4.485 -2 6 C-1.125 1.125 -1.125 1.125 0 0 Z " fill="#17191D" transform="translate(343,42)"/>
<path d="M0 0 C0.66 0.99 1.32 1.98 2 3 C1.67 3.99 1.34 4.98 1 6 C-2.0625 7.1875 -2.0625 7.1875 -5 8 C-3.8141763 4.62496331 -2.72426311 2.35277269 0 0 Z " fill="#D4D6D7" transform="translate(30,116)"/>
<path d="M0 0 C3.46941546 0.45822468 6.67395049 0.89131683 10 2 C9.67 3.65 9.34 5.3 9 7 C7.53515625 5.76302083 6.0703125 4.52604167 4.60546875 3.2890625 C3.1344954 2.10798901 1.56962206 1.04641471 0 0 Z " fill="#E2E5E6" transform="translate(234,106)"/>
<path d="M0 0 C2.64 1.98 5.28 3.96 8 6 C7.01 6.495 7.01 6.495 6 7 C3.8359375 6.22265625 3.8359375 6.22265625 1.375 5.0625 C0.55773437 4.68222656 -0.25953125 4.30195312 -1.1015625 3.91015625 C-1.72804688 3.60980469 -2.35453125 3.30945313 -3 3 C-2.01 2.67 -1.02 2.34 0 2 C0 1.34 0 0.68 0 0 Z " fill="#2A3033" transform="translate(297,101)"/>
<path d="M0 0 C2.31 0.33 4.62 0.66 7 1 C5.68 2.65 4.36 4.3 3 6 C2.34 5.67 1.68 5.34 1 5 C0.375 2.4375 0.375 2.4375 0 0 Z " fill="#28252B" transform="translate(336,40)"/>
<path d="M0 0 C0.66 0 1.32 0 2 0 C2 1.32 2 2.64 2 4 C-0.97 4.66 -3.94 5.32 -7 6 C-5.62209707 3.24419414 -3.62850007 2.51138754 -1 1 C-0.67 0.67 -0.34 0.34 0 0 Z " fill="#A0BBC8" transform="translate(322,169)"/>
<path d="M0 0 C0 0.99 0 1.98 0 3 C-4.29 3 -8.58 3 -13 3 C-13 2.67 -13 2.34 -13 2 C-11.58461283 1.66127487 -10.16762037 1.32925376 -8.75 1 C-7.56664062 0.7215625 -7.56664062 0.7215625 -6.359375 0.4375 C-4 0 -4 0 0 0 Z " fill="#A3BBCC" transform="translate(331,140)"/>
<path d="M0 0 C1.32 0.66 2.64 1.32 4 2 C2.3545622 3.68762851 0.68711423 5.3540349 -1 7 C-1.33 7 -1.66 7 -2 7 C-2.125 4.625 -2.125 4.625 -2 2 C-1.34 1.34 -0.68 0.68 0 0 Z " fill="#B6B7B9" transform="translate(78,71)"/>
<path d="M0 0 C-1.32 1.32 -2.64 2.64 -4 4 C-4 3.34 -4 2.68 -4 2 C-6.64 2.33 -9.28 2.66 -12 3 C-7.86112344 0.24074896 -4.92824278 -0.13689563 0 0 Z " fill="#207DB7" transform="translate(305,186)"/>
<path d="M0 0 C3.96 0 7.92 0 12 0 C11.01 0.33 10.02 0.66 9 1 C8.67 1.99 8.34 2.98 8 4 C7.34 4 6.68 4 6 4 C6 3.01 6 2.02 6 1 C4.02 1 2.04 1 0 1 C0 0.67 0 0.34 0 0 Z " fill="#BABBBE" transform="translate(284,63)"/>
<path d="M0 0 C1.32 0.33 2.64 0.66 4 1 C4 4.3 4 7.6 4 11 C2.16163081 7.32326162 1.06348187 3.95007553 0 0 Z " fill="#EAEAEB" transform="translate(328,2)"/>
<path d="M0 0 C0.33 0.66 0.66 1.32 1 2 C1.66 2 2.32 2 3 2 C3 3.98 3 5.96 3 8 C2.67 7.34 2.34 6.68 2 6 C1.01 5.67 0.02 5.34 -1 5 C-0.67 3.35 -0.34 1.7 0 0 Z " fill="#A5B1BB" transform="translate(331,197)"/>
<path d="M0 0 C0.99 0 1.98 0 3 0 C3 0.66 3 1.32 3 2 C4.65 2.33 6.3 2.66 8 3 C7.34 3.66 6.68 4.32 6 5 C3.375 4.625 3.375 4.625 1 4 C0.67 2.68 0.34 1.36 0 0 Z " fill="#A7B2B9" transform="translate(314,148)"/>
<path d="M0 0 C4.875 1.875 4.875 1.875 6 3 C6.04063832 4.66617115 6.042721 6.33388095 6 8 C3.38472619 5.63379989 1.73559438 3.057952 0 0 Z " fill="#CCCCCD" transform="translate(368,102)"/>
<path d="M0 0 C1.5 1.375 1.5 1.375 3 3 C3 3.66 3 4.32 3 5 C-0.63 4.67 -4.26 4.34 -8 4 C-8 3.67 -8 3.34 -8 3 C-2.25 2.875 -2.25 2.875 0 4 C0 2.68 0 1.36 0 0 Z " fill="#E9EAEA" transform="translate(292,30)"/>
<path d="M0 0 C2.31 0.66 4.62 1.32 7 2 C7 2.66 7 3.32 7 4 C5.35 4 3.7 4 2 4 C2 3.34 2 2.68 2 2 C1.34 2 0.68 2 0 2 C0 1.34 0 0.68 0 0 Z " fill="#B9C2D5" transform="translate(301,206)"/>
<path d="M0 0 C0.33 0.66 0.66 1.32 1 2 C1.66 2.33 2.32 2.66 3 3 C-0.3 3.66 -3.6 4.32 -7 5 C-2.25 1.125 -2.25 1.125 0 0 Z " fill="#86B0C6" transform="translate(297,184)"/>
<path d="M0 0 C0.625 1.875 0.625 1.875 1 4 C-0.95216435 5.95216435 -2.53199953 6.84826645 -5 8 C-1.125 1.125 -1.125 1.125 0 0 Z " fill="#1E7CBB" transform="translate(347,178)"/>
<path d="M0 0 C0.94875 0.350625 1.8975 0.70125 2.875 1.0625 C2.875 1.7225 2.875 2.3825 2.875 3.0625 C1.555 3.3925 0.235 3.7225 -1.125 4.0625 C-1.125 3.4025 -1.125 2.7425 -1.125 2.0625 C-2.445 1.4025 -3.765 0.7425 -5.125 0.0625 C-3.125 -0.9375 -3.125 -0.9375 0 0 Z " fill="#9FBCCD" transform="translate(316.125,175.9375)"/>
<path d="M0 0 C0.33 0 0.66 0 1 0 C1 1.65 1 3.3 1 5 C-0.98 5.66 -2.96 6.32 -5 7 C-4.19152271 5.83054208 -3.37810888 4.66449539 -2.5625 3.5 C-2.11003906 2.8503125 -1.65757812 2.200625 -1.19140625 1.53125 C-0.79824219 1.0259375 -0.40507812 0.520625 0 0 Z " fill="#242727" transform="translate(344,167)"/>
<path d="M0 0 C1.2077558 3.62326739 0.54311128 4.64146369 -1 8 C-0.34 8.33 0.32 8.66 1 9 C-0.32 9.33 -1.64 9.66 -3 10 C-2.49287967 6.28111761 -1.88391785 3.26545761 0 0 Z " fill="#E8E9EA" transform="translate(7,152)"/>
<path d="M0 0 C0.66 0.66 1.32 1.32 2 2 C1.625 4.125 1.625 4.125 1 6 C-0.65 5.67 -2.3 5.34 -4 5 C-2.68 3.35 -1.36 1.7 0 0 Z " fill="#A6A7A9" transform="translate(382,121)"/>
<path d="M0 0 C3 0 3 0 6 1 C6 1.99 6 2.98 6 4 C3.03 3.505 3.03 3.505 0 3 C0 2.01 0 1.02 0 0 Z " fill="#101115" transform="translate(324,96)"/>
<path d="M0 0 C0.99 0 1.98 0 3 0 C2.67 1.65 2.34 3.3 2 5 C1.01 5 0.02 5 -1 5 C-0.67 3.35 -0.34 1.7 0 0 Z " fill="#B9BEC0" transform="translate(338,184)"/>
<path d="M0 0 C1.32 0 2.64 0 4 0 C4 1.32 4 2.64 4 4 C2.02 4 0.04 4 -2 4 C-1.34 2.68 -0.68 1.36 0 0 Z " fill="#CCD0D3" transform="translate(332,75)"/>
</svg>
