<?xml version="1.0" encoding="UTF-8"?>
<!DOCTYPE svg PUBLIC "-//W3C//DTD SVG 1.1//EN" "http://www.w3.org/Graphics/SVG/1.1/DTD/svg11.dtd">
<svg xmlns="http://www.w3.org/2000/svg" version="1.1" width="840px" height="1024px" style="shape-rendering:geometricPrecision; text-rendering:geometricPrecision; image-rendering:optimizeQuality; fill-rule:evenodd; clip-rule:evenodd" xmlns:xlink="http://www.w3.org/1999/xlink">
<g><path style="opacity:0.976" fill="#c3cdd3" d="M 282.5,19.5 C 462.168,19.1667 641.835,19.5 821.5,20.5C 733.084,348.001 644.75,675.501 556.5,1003C 376.832,1003.83 197.166,1003.67 17.5,1002.5C 105.603,676.55 193.937,348.883 282.5,19.5 Z"/></g>
<g><path style="opacity:1" fill="#626467" d="M 298.5,40.5 C 463.666,39.5003 628.999,39.167 794.5,39.5C 794.737,40.791 794.404,41.791 793.5,42.5C 628.837,40.5014 463.837,39.8347 298.5,40.5 Z"/></g>
<g><path style="opacity:1" fill="#231f20" d="M 298.5,40.5 C 463.837,39.8347 628.837,40.5014 793.5,42.5C 709.451,356.038 625.118,669.371 540.5,982.5C 375.163,983.165 210.163,982.499 45.5,980.5C 129.339,666.944 213.672,353.611 298.5,40.5 Z"/></g>
<g><path style="opacity:1" fill="#f9f9f9" d="M 397.5,67.5 C 416.561,65.7055 423.061,73.7055 417,91.5C 409.193,117.254 401.193,142.921 393,168.5C 384.006,178.5 373.173,181.333 360.5,177C 356.812,174.458 355.146,170.958 355.5,166.5C 362.785,138.476 370.785,110.643 379.5,83C 377.636,78.7725 375.636,74.6058 373.5,70.5C 380.476,69.6689 387.476,69.1689 394.5,69C 395.737,68.7679 396.737,68.2679 397.5,67.5 Z"/></g>
<g><path style="opacity:1" fill="#b4b2b3" d="M 528.5,72.5 C 521.532,71.1693 514.198,70.5026 506.5,70.5C 498.802,70.5026 491.468,71.1693 484.5,72.5C 483.596,71.791 483.263,70.791 483.5,69.5C 498.833,69.5 514.167,69.5 529.5,69.5C 529.737,70.791 529.404,71.791 528.5,72.5 Z"/></g>
<g><path style="opacity:1" fill="#b4b2b3" d="M 538.5,70.5 C 546.65,69.5073 554.983,69.1739 563.5,69.5C 563.737,70.791 563.404,71.791 562.5,72.5C 554.903,70.5332 546.903,69.8665 538.5,70.5 Z"/></g>
<g><path style="opacity:1" fill="#a4a2a3" d="M 628.5,72.5 C 623.376,71.1714 617.876,70.5048 612,70.5C 606.323,70.5006 600.823,70.8339 595.5,71.5C 594.957,71.44 594.624,71.1067 594.5,70.5C 606.148,69.5011 617.814,69.1678 629.5,69.5C 629.737,70.791 629.404,71.791 628.5,72.5 Z"/></g>
<g><path style="opacity:1" fill="#b1afb0" d="M 645.5,70.5 C 656.321,69.5054 667.321,69.1721 678.5,69.5C 678.737,70.791 678.404,71.791 677.5,72.5C 667.219,70.5238 656.552,69.8572 645.5,70.5 Z"/></g>
<g><path style="opacity:1" fill="#adabac" d="M 744.5,70.5 C 732.988,70.1719 721.654,70.5052 710.5,71.5C 709.957,71.44 709.624,71.1067 709.5,70.5C 721.327,69.1757 732.993,69.1757 744.5,70.5 Z"/></g>
<g><path style="opacity:1" fill="#fafafa" d="M 311.5,176.5 C 306.305,176.821 301.305,176.487 296.5,175.5C 304.951,144.534 313.951,113.7 323.5,83C 321.183,78.6766 318.85,74.3433 316.5,70C 327.5,69.3333 338.5,69.3333 349.5,70C 357.442,70.2801 361.775,74.2801 362.5,82C 359.945,93.9991 356.778,105.832 353,117.5C 347.971,131.506 337.971,137.84 323,136.5C 318.852,149.763 315.018,163.096 311.5,176.5 Z"/></g>
<g><path style="opacity:1" fill="#f9f9f9" d="M 423.5,176.5 C 418.305,176.821 413.305,176.487 408.5,175.5C 417.189,144.596 426.189,113.763 435.5,83C 433.636,78.7725 431.636,74.6058 429.5,70.5C 441.486,69.3341 453.486,69.1674 465.5,70C 474.084,72.3773 476.918,77.8773 474,86.5C 471.131,95.4405 468.464,104.441 466,113.5C 464.437,116.728 461.937,118.895 458.5,120C 461.394,122.909 462.227,126.409 461,130.5C 456.035,146.023 451.535,161.69 447.5,177.5C 442.5,177.5 437.5,177.5 432.5,177.5C 436.528,161.917 440.861,146.417 445.5,131C 444.909,126.515 442.242,124.682 437.5,125.5C 432.832,142.504 428.165,159.504 423.5,176.5 Z"/></g>
<g><path style="opacity:1" fill="#fbfbfb" d="M 528.5,72.5 C 528.004,75.9793 527.004,79.3127 525.5,82.5C 520.952,83.1924 516.452,83.8591 512,84.5C 502.862,114.748 494.028,145.081 485.5,175.5C 482.92,176.116 480.253,176.449 477.5,176.5C 474.731,176.471 472.397,175.805 470.5,174.5C 479.167,144.167 487.833,113.833 496.5,83.5C 494.143,83.6633 491.81,83.4966 489.5,83C 487.418,79.6711 485.752,76.1711 484.5,72.5C 491.468,71.1693 498.802,70.5026 506.5,70.5C 514.198,70.5026 521.532,71.1693 528.5,72.5 Z"/></g>
<g><path style="opacity:1" fill="#fbfbfb" d="M 538.5,70.5 C 546.903,69.8665 554.903,70.5332 562.5,72.5C 553.63,102.442 544.964,132.442 536.5,162.5C 542.735,162.853 548.735,163.853 554.5,165.5C 553.344,169.123 552.344,172.789 551.5,176.5C 539.988,176.828 528.654,176.495 517.5,175.5C 525.951,144.534 534.951,113.7 544.5,83C 542.255,78.9303 540.255,74.7637 538.5,70.5 Z"/></g>
<g><path style="opacity:1" fill="#fbfafb" d="M 628.5,72.5 C 622.352,107.2 616.019,141.866 609.5,176.5C 604.056,177.108 599.056,176.442 594.5,174.5C 595.751,165.904 597.418,157.404 599.5,149C 595.789,148.175 592.122,148.341 588.5,149.5C 584.544,158.408 580.877,167.408 577.5,176.5C 572.706,177.097 568.373,176.43 564.5,174.5C 576.436,143.697 588.769,113.031 601.5,82.5C 599.234,78.9663 597.234,75.2996 595.5,71.5C 600.823,70.8339 606.323,70.5006 612,70.5C 617.876,70.5048 623.376,71.1714 628.5,72.5 Z"/></g>
<g><path style="opacity:1" fill="#f9f9f9" d="M 671.5,175.5 C 663.92,176.466 656.253,176.799 648.5,176.5C 652.91,146.04 657.744,115.707 663,85.5C 653.699,115.706 644.866,146.039 636.5,176.5C 632.298,176.817 628.298,176.483 624.5,175.5C 632.951,144.534 641.951,113.7 651.5,83C 649.609,78.7197 647.609,74.5531 645.5,70.5C 656.552,69.8572 667.219,70.5238 677.5,72.5C 673.181,97.1106 669.181,121.777 665.5,146.5C 664.6,150.717 663.6,155.051 662.5,159.5C 662.737,162.063 663.237,162.063 664,159.5C 664.685,156.421 665.519,153.421 666.5,150.5C 674.015,123.438 681.682,96.4376 689.5,69.5C 693.884,69.1744 698.217,69.5078 702.5,70.5C 691.559,105.324 681.225,140.324 671.5,175.5 Z"/></g>
<g><path style="opacity:1" fill="#fbfafa" d="M 744.5,70.5 C 753.732,71.9468 757.232,77.2801 755,86.5C 748,110.5 741,134.5 734,158.5C 730.495,167.842 723.995,173.842 714.5,176.5C 705.766,177.135 697.433,176.468 689.5,174.5C 697.987,143.87 706.987,113.37 716.5,83C 714.367,79.2343 712.367,75.401 710.5,71.5C 721.654,70.5052 732.988,70.1719 744.5,70.5 Z"/></g>
<g><path style="opacity:1" fill="#282425" d="M 397.5,80.5 C 399.199,80.3398 400.866,80.5065 402.5,81C 403.059,81.7247 403.392,82.5581 403.5,83.5C 395.791,110.677 387.624,137.677 379,164.5C 377.192,166.396 375.025,166.896 372.5,166C 371.919,165.107 371.585,164.107 371.5,163C 378.435,137.757 385.602,112.591 393,87.5C 394.012,84.7982 395.512,82.4649 397.5,80.5 Z"/></g>
<g><path style="opacity:1" fill="#2a2627" d="M 338.5,82.5 C 345,81.4987 347.5,84.1653 346,90.5C 342.834,100.494 339.668,110.494 336.5,120.5C 333.85,122.494 330.85,123.494 327.5,123.5C 330.962,109.781 334.628,96.1145 338.5,82.5 Z"/></g>
<g><path style="opacity:1" fill="#2a2627" d="M 450.5,82.5 C 457.107,80.749 459.607,83.0823 458,89.5C 455.797,97.2763 453.297,104.943 450.5,112.5C 447.972,114.874 444.972,115.874 441.5,115.5C 444.295,104.449 447.295,93.4489 450.5,82.5 Z"/></g>
<g><path style="opacity:1" fill="#282425" d="M 714.5,163.5 C 712.265,163.795 710.265,163.461 708.5,162.5C 715.694,136.061 723.361,109.727 731.5,83.5C 737.001,81.1496 739.501,82.8163 739,88.5C 732.127,112.999 724.793,137.332 717,161.5C 716.292,162.381 715.458,163.047 714.5,163.5 Z"/></g>
<g><path style="opacity:1" fill="#2d292a" d="M 602.5,133.5 C 599.941,133.802 597.607,133.468 595.5,132.5C 600.432,118.038 605.766,103.705 611.5,89.5C 608.956,104.051 605.956,118.717 602.5,133.5 Z"/></g>
<g><path style="opacity:1" fill="#939293" d="M 595.5,132.5 C 597.607,133.468 599.941,133.802 602.5,133.5C 599.976,134.8 597.309,134.8 594.5,133.5C 594.624,132.893 594.957,132.56 595.5,132.5 Z"/></g>
<g><path style="opacity:1" fill="#514f50" d="M 665.5,146.5 C 665.232,148.099 665.566,149.432 666.5,150.5C 665.519,153.421 664.685,156.421 664,159.5C 663.237,162.063 662.737,162.063 662.5,159.5C 663.6,155.051 664.6,150.717 665.5,146.5 Z"/></g>
<g><path style="opacity:1" fill="#8a8889" d="M 536.5,162.5 C 542.833,162.5 549.167,162.5 555.5,162.5C 555.737,163.791 555.404,164.791 554.5,165.5C 548.735,163.853 542.735,162.853 536.5,162.5 Z"/></g>
<g><path style="opacity:1" fill="#726f71" d="M 708.5,162.5 C 710.265,163.461 712.265,163.795 714.5,163.5C 712.307,164.797 709.973,164.797 707.5,163.5C 707.624,162.893 707.957,162.56 708.5,162.5 Z"/></g>
<g><path style="opacity:1" fill="#929091" d="M 296.5,175.5 C 301.305,176.487 306.305,176.821 311.5,176.5C 306.32,177.815 300.986,177.815 295.5,176.5C 295.624,175.893 295.957,175.56 296.5,175.5 Z"/></g>
<g><path style="opacity:1" fill="#918f90" d="M 408.5,175.5 C 413.305,176.487 418.305,176.821 423.5,176.5C 418.32,177.815 412.986,177.815 407.5,176.5C 407.624,175.893 407.957,175.56 408.5,175.5 Z"/></g>
<g><path style="opacity:1" fill="#949293" d="M 470.5,174.5 C 472.397,175.805 474.731,176.471 477.5,176.5C 480.253,176.449 482.92,176.116 485.5,175.5C 480.604,177.446 475.271,178.113 469.5,177.5C 469.263,176.209 469.596,175.209 470.5,174.5 Z"/></g>
<g><path style="opacity:1" fill="#969495" d="M 517.5,175.5 C 528.654,176.495 539.988,176.828 551.5,176.5C 539.993,177.824 528.327,177.824 516.5,176.5C 516.624,175.893 516.957,175.56 517.5,175.5 Z"/></g>
<g><path style="opacity:1" fill="#9a9899" d="M 564.5,174.5 C 568.373,176.43 572.706,177.097 577.5,176.5C 573.03,177.486 568.363,177.819 563.5,177.5C 563.263,176.209 563.596,175.209 564.5,174.5 Z"/></g>
<g><path style="opacity:1" fill="#908e8f" d="M 594.5,174.5 C 599.056,176.442 604.056,177.108 609.5,176.5C 604.36,177.488 599.026,177.821 593.5,177.5C 593.263,176.209 593.596,175.209 594.5,174.5 Z"/></g>
<g><path style="opacity:1" fill="#939192" d="M 624.5,175.5 C 628.298,176.483 632.298,176.817 636.5,176.5C 632.317,177.811 627.984,177.811 623.5,176.5C 623.624,175.893 623.957,175.56 624.5,175.5 Z"/></g>
<g><path style="opacity:1" fill="#939192" d="M 671.5,175.5 C 668.062,176.823 664.229,177.49 660,177.5C 655.985,177.499 652.151,177.165 648.5,176.5C 656.253,176.799 663.92,176.466 671.5,175.5 Z"/></g>
<g><path style="opacity:1" fill="#918f90" d="M 689.5,174.5 C 697.433,176.468 705.766,177.135 714.5,176.5C 706.016,177.493 697.349,177.826 688.5,177.5C 688.263,176.209 688.596,175.209 689.5,174.5 Z"/></g>
<g><path style="opacity:1" fill="#c1cbd1" d="M 421.5,209.5 C 424.187,209.336 426.854,209.503 429.5,210C 386.639,252.528 344.139,295.361 302,338.5C 260.739,392.328 252.406,450.994 277,514.5C 289.415,542.078 307.582,565.078 331.5,583.5C 326.167,589.5 320.5,595.167 314.5,600.5C 265.031,560.722 240.031,508.888 239.5,445C 241.315,382.705 266.315,332.039 314.5,293C 350.353,265.303 386.019,237.47 421.5,209.5 Z"/></g>
<g><path style="opacity:1" fill="#c1cbd1" d="M 469.5,209.5 C 472.85,209.335 476.183,209.502 479.5,210C 430,259.5 380.5,309 331,358.5C 295.601,403.053 288.935,451.719 311,504.5C 322.022,526.02 337.189,544.02 356.5,558.5C 351.682,563.819 346.682,568.985 341.5,574C 340.5,574.667 339.5,574.667 338.5,574C 289.399,534.94 268.566,484.107 276,421.5C 282.969,384.054 300.469,352.554 328.5,327C 375.69,287.969 422.69,248.802 469.5,209.5 Z"/></g>
<g><path style="opacity:1" fill="#c2ccd1" d="M 518.5,209.5 C 521.85,209.335 525.183,209.502 528.5,210C 468.753,269.077 409.92,328.577 352,388.5C 330.338,421.615 327.671,456.282 344,492.5C 353.403,509.237 366.237,522.737 382.5,533C 376.985,538.682 371.319,544.182 365.5,549.5C 324.693,520.878 306.193,481.544 310,431.5C 315.306,398.208 330.806,370.708 356.5,349C 410.987,303.009 464.987,256.509 518.5,209.5 Z"/></g>
<g><path style="opacity:1" fill="#c1cbd1" d="M 567.5,209.5 C 571.182,209.335 574.848,209.501 578.5,210C 513.667,274.833 448.833,339.667 384,404.5C 364.041,431.625 363.375,459.291 382,487.5C 389.495,495.654 397.995,502.487 407.5,508C 402.5,513 397.5,518 392.5,523C 390.711,523.52 389.044,523.187 387.5,522C 355.868,501.566 341.702,472.399 345,434.5C 347.893,416.125 355.56,400.125 368,386.5C 434.397,327.263 500.897,268.263 567.5,209.5 Z"/></g>
<g><path style="opacity:1" fill="#c0cad0" d="M 616.5,209.5 C 620.514,209.334 624.514,209.501 628.5,210C 555.333,283.167 482.167,356.333 409,429.5C 399.682,446.893 402.515,462.06 417.5,475C 422.373,477.936 427.373,480.603 432.5,483C 427.255,488.75 421.588,493.917 415.5,498.5C 387.771,485.569 376.271,463.903 381,433.5C 383.279,426.276 386.612,419.609 391,413.5C 465.764,344.895 540.931,276.895 616.5,209.5 Z"/></g>
<g><path style="opacity:1" fill="#de393d" d="M 556.5,296.5 C 604.894,334.953 630.227,385.286 632.5,447.5C 632.282,504.365 611.948,552.531 571.5,592C 531.788,624.047 491.788,655.714 451.5,687C 448.5,687.667 445.5,687.667 442.5,687C 485.361,644.472 527.861,601.639 570,558.5C 602.995,515.849 614.662,467.849 605,414.5C 595.074,373.286 573.574,339.62 540.5,313.5C 545.855,307.813 551.188,302.146 556.5,296.5 Z"/></g>
<g><path style="opacity:1" fill="#de393d" d="M 401.5,687.5 C 398.615,687.806 395.948,687.473 393.5,686.5C 442.465,637.035 491.632,587.701 541,538.5C 575.047,494.839 582.047,447.172 562,395.5C 550.98,372.63 535.146,353.797 514.5,339C 520.015,333.318 525.681,327.818 531.5,322.5C 584.585,363.38 605.418,417.046 594,483.5C 585.94,518.134 568.773,547.301 542.5,571C 495.626,610.045 448.626,648.879 401.5,687.5 Z"/></g>
<g><path style="opacity:1" fill="#de393d" d="M 505.5,347.5 C 552.762,381.069 570.262,426.402 558,483.5C 549.932,509.575 535.432,531.408 514.5,549C 460.539,594.626 406.872,640.626 353.5,687C 350.167,687.667 346.833,687.667 343.5,687C 401.442,629.392 458.942,571.558 516,513.5C 542.685,476.861 545.352,438.528 524,398.5C 514.5,385 503,373.5 489.5,364C 495.036,358.631 500.37,353.131 505.5,347.5 Z"/></g>
<g><path style="opacity:1" fill="#de393d" d="M 479.5,373.5 C 506.772,387.975 522.606,410.642 527,441.5C 528.798,470.725 519.298,495.558 498.5,516C 434.13,573.372 369.463,630.372 304.5,687C 300.833,687.667 297.167,687.667 293.5,687C 358.333,622.167 423.167,557.333 488,492.5C 501.802,474.618 506.135,454.618 501,432.5C 494.438,413.436 482.271,399.102 464.5,389.5C 469.522,384.146 474.522,378.813 479.5,373.5 Z"/></g>
<g><path style="opacity:1" fill="#dd393d" d="M 255.5,687.5 C 251.629,687.815 247.962,687.482 244.5,686.5C 316.799,613.701 389.299,541.035 462,468.5C 467.654,458.793 468.987,448.46 466,437.5C 460.132,425.965 450.966,418.465 438.5,415C 444.015,409.318 449.681,403.818 455.5,398.5C 482.114,410.731 493.948,431.398 491,460.5C 487.94,475.114 480.44,486.948 468.5,496C 397.331,559.67 326.331,623.504 255.5,687.5 Z"/></g>
<g><path style="opacity:1" fill="#64282a" d="M 244.5,686.5 C 247.962,687.482 251.629,687.815 255.5,687.5C 251.649,688.809 247.649,688.809 243.5,687.5C 243.624,686.893 243.957,686.56 244.5,686.5 Z"/></g>
<g><path style="opacity:1" fill="#72292c" d="M 393.5,686.5 C 395.948,687.473 398.615,687.806 401.5,687.5C 398.645,688.803 395.645,688.803 392.5,687.5C 392.624,686.893 392.957,686.56 393.5,686.5 Z"/></g>
<g><path style="opacity:1" fill="#d63a3d" d="M 201.5,719.5 C 203.42,722.339 205.087,725.339 206.5,728.5C 204.396,728.799 202.396,728.466 200.5,727.5C 199.42,725.004 198.086,722.67 196.5,720.5C 198.045,719.548 199.712,719.215 201.5,719.5 Z"/></g>
<g><path style="opacity:1" fill="#f8f8f8" d="M 201.5,719.5 C 214.837,719.333 228.171,719.5 241.5,720C 240.039,722.421 238.706,724.921 237.5,727.5C 233.833,728.167 230.167,728.833 226.5,729.5C 222.863,743.738 218.863,757.738 214.5,771.5C 210.029,772.089 206.029,771.423 202.5,769.5C 205.994,755.857 209.328,742.19 212.5,728.5C 210.833,728.5 209.167,728.5 207.5,728.5C 207.167,728.5 206.833,728.5 206.5,728.5C 205.087,725.339 203.42,722.339 201.5,719.5 Z"/></g>
<g><path style="opacity:1" fill="#d53b3e" d="M 268.5,719.5 C 270.544,722.418 272.21,725.585 273.5,729C 271.443,735.396 269.776,741.896 268.5,748.5C 265.643,757.597 263.309,766.931 261.5,776.5C 259.423,780.497 258.09,784.831 257.5,789.5C 253.803,801.949 250.47,814.615 247.5,827.5C 245.396,827.799 243.396,827.466 241.5,826.5C 250.407,793.95 259.407,761.45 268.5,729C 266.84,726.016 265.174,723.016 263.5,720C 265.134,719.506 266.801,719.34 268.5,719.5 Z"/></g>
<g><path style="opacity:1" fill="#faf9f9" d="M 268.5,719.5 C 279.172,719.333 289.839,719.5 300.5,720C 305.709,720.869 308.375,723.869 308.5,729C 306.991,736.524 305.324,744.024 303.5,751.5C 299.066,752.794 294.733,752.794 290.5,751.5C 291.303,744.456 292.969,737.623 295.5,731C 295.355,730.228 295.022,729.561 294.5,729C 292.866,728.506 291.199,728.34 289.5,728.5C 288.5,728.5 287.5,728.5 286.5,728.5C 284.846,735.817 283.179,743.151 281.5,750.5C 276.706,751.097 272.373,750.43 268.5,748.5C 269.776,741.896 271.443,735.396 273.5,729C 272.21,725.585 270.544,722.418 268.5,719.5 Z"/></g>
<g><path style="opacity:1" fill="#d73b3e" d="M 349.5,719.5 C 350.567,722.632 351.9,725.632 353.5,728.5C 348.631,741.108 343.965,753.774 339.5,766.5C 335.796,775.271 332.462,784.271 329.5,793.5C 324.929,803.871 320.929,814.537 317.5,825.5C 316.662,825.842 316.328,826.508 316.5,827.5C 314.833,827.5 313.167,827.5 311.5,827.5C 323.028,795.42 334.861,763.42 347,731.5C 347.882,727.469 347.049,723.802 344.5,720.5C 346.045,719.548 347.712,719.215 349.5,719.5 Z"/></g>
<g><path style="opacity:1" fill="#f8f8f8" d="M 349.5,719.5 C 358.833,719.5 368.167,719.5 377.5,719.5C 374.741,734.815 372.074,750.149 369.5,765.5C 365.298,765.817 361.298,765.483 357.5,764.5C 358.784,756.467 359.951,748.467 361,740.5C 357.766,750.048 354.266,759.382 350.5,768.5C 346.351,769.08 342.684,768.414 339.5,766.5C 343.965,753.774 348.631,741.108 353.5,728.5C 351.9,725.632 350.567,722.632 349.5,719.5 Z"/></g>
<g><path style="opacity:1" fill="#d43b3e" d="M 418.5,719.5 C 420.544,722.418 422.21,725.585 423.5,729C 418.79,744.673 414.79,760.506 411.5,776.5C 409.423,780.497 408.09,784.831 407.5,789.5C 403.928,801.66 400.594,813.993 397.5,826.5C 395.636,827.793 393.636,827.793 391.5,826.5C 400.401,793.966 409.401,761.466 418.5,729C 416.84,726.016 415.174,723.016 413.5,720C 415.134,719.506 416.801,719.34 418.5,719.5 Z"/></g>
<g><path style="opacity:1" fill="#f5f4f5" d="M 418.5,719.5 C 425.5,719.5 432.5,719.5 439.5,719.5C 434.627,738.531 429.627,757.531 424.5,776.5C 420.167,776.5 415.833,776.5 411.5,776.5C 414.79,760.506 418.79,744.673 423.5,729C 422.21,725.585 420.544,722.418 418.5,719.5 Z"/></g>
<g><path style="opacity:1" fill="#d53b3e" d="M 478.5,719.5 C 480.384,722.603 481.717,725.936 482.5,729.5C 478.704,743.815 475.038,758.149 471.5,772.5C 466.465,790.316 461.799,808.316 457.5,826.5C 455.621,827.341 453.621,827.675 451.5,827.5C 459.649,794.55 468.315,761.717 477.5,729C 476.303,726.106 474.97,723.273 473.5,720.5C 475.045,719.548 476.712,719.215 478.5,719.5 Z"/></g>
<g><path style="opacity:1" fill="#f6f6f6" d="M 478.5,719.5 C 485.167,719.5 491.833,719.5 498.5,719.5C 494.126,737.913 489.459,756.246 484.5,774.5C 479.706,775.097 475.373,774.43 471.5,772.5C 475.038,758.149 478.704,743.815 482.5,729.5C 481.717,725.936 480.384,722.603 478.5,719.5 Z"/></g>
<g><path style="opacity:1" fill="#30292a" d="M 289.5,728.5 C 287.3,739.968 284.466,751.301 281,762.5C 279.887,763.305 278.721,763.972 277.5,764.5C 278.525,759.732 279.858,755.066 281.5,750.5C 283.179,743.151 284.846,735.817 286.5,728.5C 287.5,728.5 288.5,728.5 289.5,728.5 Z"/></g>
<g><path style="opacity:1" fill="#d53f40" d="M 289.5,728.5 C 291.199,728.34 292.866,728.506 294.5,729C 295.022,729.561 295.355,730.228 295.5,731C 292.969,737.623 291.303,744.456 290.5,751.5C 288.738,754.503 287.572,757.837 287,761.5C 284.423,765.068 281.256,766.068 277.5,764.5C 278.721,763.972 279.887,763.305 281,762.5C 284.466,751.301 287.3,739.968 289.5,728.5 Z"/></g>
<g><path style="opacity:1" fill="#d43b3e" d="M 207.5,728.5 C 209.167,728.5 210.833,728.5 212.5,728.5C 209.328,742.19 205.994,755.857 202.5,769.5C 200.307,775.934 198.64,782.601 197.5,789.5C 193.095,801.444 189.762,813.778 187.5,826.5C 185.516,827.694 183.516,827.694 181.5,826.5C 190.169,793.826 198.835,761.159 207.5,728.5 Z"/></g>
<g><path style="opacity:1" fill="#d54142" d="M 357.5,764.5 C 355.259,772.685 353.259,781.019 351.5,789.5C 349.833,789.5 348.167,789.5 346.5,789.5C 347.167,785.5 347.833,781.5 348.5,777.5C 349.167,774.5 349.833,771.5 350.5,768.5C 354.266,759.382 357.766,750.048 361,740.5C 359.951,748.467 358.784,756.467 357.5,764.5 Z"/></g>
<g><path style="opacity:1" fill="#ebeced" d="M 268.5,748.5 C 272.373,750.43 276.706,751.097 281.5,750.5C 279.858,755.066 278.525,759.732 277.5,764.5C 281.256,766.068 284.423,765.068 287,761.5C 287.572,757.837 288.738,754.503 290.5,751.5C 294.733,752.794 299.066,752.794 303.5,751.5C 302.003,756.148 300.503,760.815 299,765.5C 296.92,767.123 294.754,768.623 292.5,770C 294.426,770.422 295.426,771.589 295.5,773.5C 295.5,774.5 295.5,775.5 295.5,776.5C 291.167,776.5 286.833,776.5 282.5,776.5C 279.966,774.408 277.299,774.074 274.5,775.5C 274.5,775.833 274.5,776.167 274.5,776.5C 270.167,776.5 265.833,776.5 261.5,776.5C 263.309,766.931 265.643,757.597 268.5,748.5 Z"/></g>
<g><path style="opacity:1" fill="#d33b3e" d="M 274.5,775.5 C 277.299,774.074 279.966,774.408 282.5,776.5C 281.343,781.462 280.343,786.462 279.5,791.5C 275.584,802.491 272.584,813.824 270.5,825.5C 269.662,825.842 269.328,826.508 269.5,827.5C 267.833,827.5 266.167,827.5 264.5,827.5C 268.188,811.414 272.188,795.414 276.5,779.5C 276.415,777.667 275.748,776.334 274.5,775.5 Z"/></g>
<g><path style="opacity:1" fill="#d6dbdf" d="M 202.5,769.5 C 206.029,771.423 210.029,772.089 214.5,771.5C 213.754,777.649 212.421,783.649 210.5,789.5C 206.167,789.5 201.833,789.5 197.5,789.5C 198.64,782.601 200.307,775.934 202.5,769.5 Z"/></g>
<g><path style="opacity:1" fill="#d3d8dd" d="M 261.5,776.5 C 265.833,776.5 270.167,776.5 274.5,776.5C 272.832,781.838 271.166,787.172 269.5,792.5C 265.563,792.207 261.73,792.54 258,793.5C 257.51,792.207 257.343,790.873 257.5,789.5C 258.09,784.831 259.423,780.497 261.5,776.5 Z"/></g>
<g><path style="opacity:1" fill="#d4d9de" d="M 295.5,773.5 C 296.139,774.097 296.472,774.93 296.5,776C 294.928,781.454 293.595,786.954 292.5,792.5C 287.968,792.818 283.634,792.485 279.5,791.5C 280.343,786.462 281.343,781.462 282.5,776.5C 286.833,776.5 291.167,776.5 295.5,776.5C 295.5,775.5 295.5,774.5 295.5,773.5 Z"/></g>
<g><path style="opacity:1" fill="#d4d9dd" d="M 411.5,776.5 C 415.833,776.5 420.167,776.5 424.5,776.5C 422.702,781.359 421.368,786.359 420.5,791.5C 416.265,792.436 411.931,792.769 407.5,792.5C 407.5,791.5 407.5,790.5 407.5,789.5C 408.09,784.831 409.423,780.497 411.5,776.5 Z"/></g>
<g><path style="opacity:1" fill="#d5dadf" d="M 357.5,764.5 C 361.298,765.483 365.298,765.817 369.5,765.5C 367.37,774.408 365.703,783.408 364.5,792.5C 352.914,793.478 341.247,793.811 329.5,793.5C 332.462,784.271 335.796,775.271 339.5,766.5C 342.684,768.414 346.351,769.08 350.5,768.5C 349.833,771.5 349.167,774.5 348.5,777.5C 346.399,780.797 345.065,784.463 344.5,788.5C 343.957,788.56 343.624,788.893 343.5,789.5C 346.309,790.8 348.976,790.8 351.5,789.5C 353.259,781.019 355.259,772.685 357.5,764.5 Z"/></g>
<g><path style="opacity:1" fill="#a07578" d="M 344.5,788.5 C 344.842,789.338 345.508,789.672 346.5,789.5C 348.167,789.5 349.833,789.5 351.5,789.5C 348.976,790.8 346.309,790.8 343.5,789.5C 343.624,788.893 343.957,788.56 344.5,788.5 Z"/></g>
<g><path style="opacity:1" fill="#332c2d" d="M 348.5,777.5 C 347.833,781.5 347.167,785.5 346.5,789.5C 345.508,789.672 344.842,789.338 344.5,788.5C 345.065,784.463 346.399,780.797 348.5,777.5 Z"/></g>
<g><path style="opacity:1" fill="#c3cbd0" d="M 197.5,789.5 C 201.833,789.5 206.167,789.5 210.5,789.5C 206.773,801.689 203.439,814.022 200.5,826.5C 196.167,826.5 191.833,826.5 187.5,826.5C 189.762,813.778 193.095,801.444 197.5,789.5 Z"/></g>
<g><path style="opacity:1" fill="#c0c8cd" d="M 257.5,789.5 C 257.343,790.873 257.51,792.207 258,793.5C 261.73,792.54 265.563,792.207 269.5,792.5C 266.819,803.89 263.819,815.224 260.5,826.5C 256.217,827.492 251.884,827.826 247.5,827.5C 250.47,814.615 253.803,801.949 257.5,789.5 Z"/></g>
<g><path style="opacity:1" fill="#c2cacf" d="M 279.5,791.5 C 283.634,792.485 287.968,792.818 292.5,792.5C 289.5,803.833 286.5,815.167 283.5,826.5C 278.968,826.818 274.634,826.485 270.5,825.5C 272.584,813.824 275.584,802.491 279.5,791.5 Z"/></g>
<g><path style="opacity:1" fill="#c2cbd1" d="M 364.5,792.5 C 362.036,803.744 360.036,815.077 358.5,826.5C 353.833,826.5 349.167,826.5 344.5,826.5C 346.036,817.488 347.702,808.488 349.5,799.5C 347.833,799.5 346.167,799.5 344.5,799.5C 342.712,799.215 341.045,799.548 339.5,800.5C 336.486,809.188 333.486,817.854 330.5,826.5C 325.968,826.818 321.634,826.485 317.5,825.5C 320.929,814.537 324.929,803.871 329.5,793.5C 341.247,793.811 352.914,793.478 364.5,792.5 Z"/></g>
<g><path style="opacity:1" fill="#c2cacf" d="M 407.5,789.5 C 407.5,790.5 407.5,791.5 407.5,792.5C 411.931,792.769 416.265,792.436 420.5,791.5C 417.193,803.106 414.193,814.772 411.5,826.5C 406.833,826.5 402.167,826.5 397.5,826.5C 400.594,813.993 403.928,801.66 407.5,789.5 Z"/></g>
<g><path style="opacity:1" fill="#c6ced3" d="M 471.5,772.5 C 475.373,774.43 479.706,775.097 484.5,774.5C 480.052,788.625 476.385,802.958 473.5,817.5C 477.833,817.5 482.167,817.5 486.5,817.5C 486.148,820.428 485.482,823.262 484.5,826C 475.506,826.5 466.506,826.666 457.5,826.5C 461.799,808.316 466.465,790.316 471.5,772.5 Z"/></g>
<g><path style="opacity:1" fill="#d13b3e" d="M 344.5,799.5 C 346.167,799.5 347.833,799.5 349.5,799.5C 347.702,808.488 346.036,817.488 344.5,826.5C 342.621,827.341 340.621,827.675 338.5,827.5C 340.121,818.058 342.121,808.725 344.5,799.5 Z"/></g>
<g><path style="opacity:1" fill="#757476" d="M 270.5,825.5 C 274.634,826.485 278.968,826.818 283.5,826.5C 279.03,827.486 274.363,827.819 269.5,827.5C 269.328,826.508 269.662,825.842 270.5,825.5 Z"/></g>
<g><path style="opacity:1" fill="#656366" d="M 317.5,825.5 C 321.634,826.485 325.968,826.818 330.5,826.5C 326.03,827.486 321.363,827.819 316.5,827.5C 316.328,826.508 316.662,825.842 317.5,825.5 Z"/></g>
<g><path style="opacity:1" fill="#d53b3e" d="M 111.5,844.5 C 113.368,847.577 114.701,850.91 115.5,854.5C 111.85,867.768 108.516,881.101 105.5,894.5C 103.233,899.568 101.9,904.902 101.5,910.5C 97.1335,924.292 93.1335,938.292 89.5,952.5C 87.8333,952.5 86.1667,952.5 84.5,952.5C 92.655,919.535 101.322,886.701 110.5,854C 109.303,851.106 107.97,848.273 106.5,845.5C 108.045,844.548 109.712,844.215 111.5,844.5 Z"/></g>
<g><path style="opacity:1" fill="#d53c3e" d="M 184.5,844.5 C 186.034,847.735 187.701,850.901 189.5,854C 185.136,867.99 181.469,882.156 178.5,896.5C 172.691,914.499 167.691,932.832 163.5,951.5C 161.621,952.341 159.621,952.675 157.5,952.5C 165.684,920.432 174.184,888.432 183,856.5C 183.667,854.833 183.667,853.167 183,851.5C 181.581,849.664 180.414,847.664 179.5,845.5C 181.045,844.548 182.712,844.215 184.5,844.5 Z"/></g>
<g><path style="opacity:1" fill="#d43b3e" d="M 377.5,844.5 C 379.034,847.735 380.701,850.901 382.5,854C 379.795,861.654 377.795,869.488 376.5,877.5C 373.858,886.065 371.525,894.732 369.5,903.5C 364.408,919.528 360.075,935.862 356.5,952.5C 354.396,952.799 352.396,952.466 350.5,951.5C 359.154,919.883 367.654,888.216 376,856.5C 376.667,854.833 376.667,853.167 376,851.5C 374.634,849.63 373.467,847.63 372.5,845.5C 374.045,844.548 375.712,844.215 377.5,844.5 Z"/></g>
<g><path style="opacity:1" fill="#d63c3f" d="M 508.5,844.5 C 509.838,847.176 511.172,849.843 512.5,852.5C 509.677,860.616 508.01,868.95 507.5,877.5C 507.547,880.568 508.047,883.568 509,886.5C 512.337,894.346 515.17,902.346 517.5,910.5C 516.13,920.984 513.963,931.318 511,941.5C 509.447,945.293 506.947,946.293 503.5,944.5C 504.117,944.389 504.617,944.056 505,943.5C 507.583,933.334 510.083,923.167 512.5,913C 510.337,903.512 507.17,894.346 503,885.5C 500.854,874.213 502.354,863.38 507.5,853C 506.385,850.384 505.051,847.884 503.5,845.5C 505.045,844.548 506.712,844.215 508.5,844.5 Z"/></g>
<g><path style="opacity:1" fill="#fbfafa" d="M 508.5,844.5 C 519.505,844.333 530.505,844.5 541.5,845C 547.089,847.451 548.922,851.617 547,857.5C 545.48,863.942 543.646,870.275 541.5,876.5C 537.217,877.492 532.884,877.826 528.5,877.5C 529.795,869.488 531.795,861.654 534.5,854C 532.49,851.499 530.157,850.999 527.5,852.5C 526.21,853.058 525.377,854.058 525,855.5C 523.358,860.402 522.191,865.402 521.5,870.5C 520.532,872.607 520.198,874.941 520.5,877.5C 516.167,877.5 511.833,877.5 507.5,877.5C 508.01,868.95 509.677,860.616 512.5,852.5C 511.172,849.843 509.838,847.176 508.5,844.5 Z"/></g>
<g><path style="opacity:1" fill="#f6f6f6" d="M 111.5,844.5 C 122.172,844.333 132.839,844.5 143.5,845C 150.543,846.916 153.043,851.416 151,858.5C 147.847,868.777 144.847,879.11 142,889.5C 140.242,891.765 138.075,893.432 135.5,894.5C 125.5,894.5 115.5,894.5 105.5,894.5C 108.516,881.101 111.85,867.768 115.5,854.5C 114.701,850.91 113.368,847.577 111.5,844.5 Z"/></g>
<g><path style="opacity:1" fill="#f7f7f7" d="M 184.5,844.5 C 191.167,844.5 197.833,844.5 204.5,844.5C 200.182,861.814 195.849,879.147 191.5,896.5C 187.167,896.5 182.833,896.5 178.5,896.5C 181.469,882.156 185.136,867.99 189.5,854C 187.701,850.901 186.034,847.735 184.5,844.5 Z"/></g>
<g><path style="opacity:1" fill="#d63a3d" d="M 252.5,844.5 C 254.096,847.361 255.43,850.361 256.5,853.5C 252.631,863.776 248.964,874.109 245.5,884.5C 242.129,892.27 239.129,900.27 236.5,908.5C 230.792,922.616 225.459,936.949 220.5,951.5C 218.516,952.694 216.516,952.694 214.5,951.5C 226.833,918.833 239.167,886.167 251.5,853.5C 250.167,850.833 248.833,848.167 247.5,845.5C 249.045,844.548 250.712,844.215 252.5,844.5 Z"/></g>
<g><path style="opacity:1" fill="#f9f9f9" d="M 252.5,844.5 C 261.833,844.5 271.167,844.5 280.5,844.5C 278.352,858.533 276.019,872.533 273.5,886.5C 269.298,886.817 265.298,886.483 261.5,885.5C 262.745,878.452 263.912,871.452 265,864.5C 262.06,871.823 259.227,879.156 256.5,886.5C 252.351,887.08 248.684,886.414 245.5,884.5C 248.964,874.109 252.631,863.776 256.5,853.5C 255.43,850.361 254.096,847.361 252.5,844.5 Z"/></g>
<g><path style="opacity:1" fill="#d63b3e" d="M 312.5,844.5 C 314.091,847.352 315.424,850.352 316.5,853.5C 314.801,853.66 313.134,853.494 311.5,853C 310.084,850.165 308.417,847.498 306.5,845C 308.473,844.505 310.473,844.338 312.5,844.5 Z"/></g>
<g><path style="opacity:1" fill="#fbfafa" d="M 312.5,844.5 C 325.171,844.333 337.838,844.5 350.5,845C 345.086,855.66 340.086,866.493 335.5,877.5C 330.637,877.819 325.97,877.486 321.5,876.5C 324.29,868.92 327.623,861.586 331.5,854.5C 329.604,853.534 327.604,853.201 325.5,853.5C 322.5,853.5 319.5,853.5 316.5,853.5C 315.424,850.352 314.091,847.352 312.5,844.5 Z"/></g>
<g><path style="opacity:1" fill="#f8f7f7" d="M 377.5,844.5 C 389.5,844.5 401.5,844.5 413.5,844.5C 413.277,847.784 412.61,850.951 411.5,854C 406.136,854.171 400.802,854.671 395.5,855.5C 393.495,862.84 391.495,870.173 389.5,877.5C 385.167,877.5 380.833,877.5 376.5,877.5C 377.795,869.488 379.795,861.654 382.5,854C 380.701,850.901 379.034,847.735 377.5,844.5 Z"/></g>
<g><path style="opacity:1" fill="#d43b3e" d="M 439.5,844.5 C 441.034,847.735 442.701,850.901 444.5,854C 441.968,860.626 440.302,867.46 439.5,874.5C 437.079,879.833 435.412,885.5 434.5,891.5C 431.588,899.148 429.588,907.148 428.5,915.5C 424.171,927.434 420.838,939.767 418.5,952.5C 416.5,952.5 414.5,952.5 412.5,952.5C 420.996,920.519 429.496,888.519 438,856.5C 438.667,854.833 438.667,853.167 438,851.5C 436.581,849.664 435.414,847.664 434.5,845.5C 436.045,844.548 437.712,844.215 439.5,844.5 Z"/></g>
<g><path style="opacity:1" fill="#faf9f9" d="M 439.5,844.5 C 449.839,844.334 460.172,844.5 470.5,845C 476.008,845.345 479.008,848.178 479.5,853.5C 478.338,860.979 476.672,868.312 474.5,875.5C 469.968,875.818 465.634,875.485 461.5,874.5C 463.599,867.672 464.932,860.672 465.5,853.5C 463.5,853.5 461.5,853.5 459.5,853.5C 458.503,853.47 457.836,853.97 457.5,855C 455.443,861.396 453.776,867.896 452.5,874.5C 448.066,875.794 443.733,875.794 439.5,874.5C 440.302,867.46 441.968,860.626 444.5,854C 442.701,850.901 441.034,847.735 439.5,844.5 Z"/></g>
<g><path style="opacity:1" fill="#d64042" d="M 527.5,852.5 C 530.157,850.999 532.49,851.499 534.5,854C 531.795,861.654 529.795,869.488 528.5,877.5C 526.396,877.799 524.396,877.466 522.5,876.5C 524.331,870.511 526.165,864.511 528,858.5C 528.789,856.288 528.622,854.288 527.5,852.5 Z"/></g>
<g><path style="opacity:1" fill="#d53d3f" d="M 131.5,853.5 C 133.199,853.34 134.866,853.506 136.5,854C 137.059,854.725 137.392,855.558 137.5,856.5C 135.176,864.795 133.01,873.129 131,881.5C 130.24,888.777 126.406,891.444 119.5,889.5C 119.624,888.893 119.957,888.56 120.5,888.5C 122.017,888.489 123.184,887.823 124,886.5C 126.596,876.283 129.43,866.116 132.5,856C 132.257,855.098 131.923,854.265 131.5,853.5 Z"/></g>
<g><path style="opacity:1" fill="#d63d3f" d="M 459.5,853.5 C 461.5,853.5 463.5,853.5 465.5,853.5C 464.932,860.672 463.599,867.672 461.5,874.5C 460.068,878.732 458.568,883.065 457,887.5C 454.489,890.299 451.655,890.965 448.5,889.5C 449.721,888.972 450.887,888.305 452,887.5C 454.358,878.066 457.025,868.732 460,859.5C 460.678,857.402 460.511,855.402 459.5,853.5 Z"/></g>
<g><path style="opacity:1" fill="#312829" d="M 131.5,853.5 C 131.923,854.265 132.257,855.098 132.5,856C 129.43,866.116 126.596,876.283 124,886.5C 123.184,887.823 122.017,888.489 120.5,888.5C 123.328,877.507 126.161,866.507 129,855.5C 129.417,854.244 130.25,853.577 131.5,853.5 Z"/></g>
<g><path style="opacity:1" fill="#d63b3e" d="M 325.5,853.5 C 327.604,853.201 329.604,853.534 331.5,854.5C 327.623,861.586 324.29,868.92 321.5,876.5C 316.99,884.858 312.99,893.525 309.5,902.5C 301.323,918.859 293.656,935.525 286.5,952.5C 284.833,952.5 283.167,952.5 281.5,952.5C 295.892,919.382 310.559,886.382 325.5,853.5 Z"/></g>
<g><path style="opacity:1" fill="#31292a" d="M 459.5,853.5 C 460.511,855.402 460.678,857.402 460,859.5C 457.025,868.732 454.358,878.066 452,887.5C 450.887,888.305 449.721,888.972 448.5,889.5C 449.368,884.359 450.702,879.359 452.5,874.5C 453.776,867.896 455.443,861.396 457.5,855C 457.836,853.97 458.503,853.47 459.5,853.5 Z"/></g>
<g><path style="opacity:1" fill="#d34445" d="M 261.5,885.5 C 259.804,891.3 258.471,897.3 257.5,903.5C 256.734,907.163 255.9,910.829 255,914.5C 253.057,915.807 251.223,915.807 249.5,914.5C 250.442,910.582 251.108,906.582 251.5,902.5C 253.16,897.176 254.826,891.843 256.5,886.5C 259.227,879.156 262.06,871.823 265,864.5C 263.912,871.452 262.745,878.452 261.5,885.5 Z"/></g>
<g><path style="opacity:1" fill="#e4e8ea" d="M 521.5,870.5 C 521.336,873.187 521.503,875.854 522,878.5C 524.803,886.578 527.803,894.578 531,902.5C 531.499,906.821 531.666,911.154 531.5,915.5C 527.167,915.5 522.833,915.5 518.5,915.5C 518.784,913.585 518.451,911.919 517.5,910.5C 515.17,902.346 512.337,894.346 509,886.5C 508.047,883.568 507.547,880.568 507.5,877.5C 511.833,877.5 516.167,877.5 520.5,877.5C 520.198,874.941 520.532,872.607 521.5,870.5 Z"/></g>
<g><path style="opacity:1" fill="#e7eaec" d="M 261.5,885.5 C 265.298,886.483 269.298,886.817 273.5,886.5C 272.183,891.769 271.183,897.103 270.5,902.5C 266.265,903.436 261.931,903.769 257.5,903.5C 258.471,897.3 259.804,891.3 261.5,885.5 Z"/></g>
<g><path style="opacity:1" fill="#e9ebed" d="M 376.5,877.5 C 380.833,877.5 385.167,877.5 389.5,877.5C 388.032,881.706 387.032,886.039 386.5,890.5C 391.179,890.334 395.845,890.501 400.5,891C 399.009,893.621 398.342,896.455 398.5,899.5C 393.456,899.173 388.456,899.506 383.5,900.5C 382.754,901.736 382.421,903.07 382.5,904.5C 381.883,904.611 381.383,904.944 381,905.5C 377.065,904.862 373.231,904.196 369.5,903.5C 371.525,894.732 373.858,886.065 376.5,877.5 Z"/></g>
<g><path style="opacity:1" fill="#eeeff0" d="M 439.5,874.5 C 443.733,875.794 448.066,875.794 452.5,874.5C 450.702,879.359 449.368,884.359 448.5,889.5C 451.655,890.965 454.489,890.299 457,887.5C 458.568,883.065 460.068,878.732 461.5,874.5C 465.634,875.485 469.968,875.818 474.5,875.5C 472.98,880.902 471.146,886.236 469,891.5C 467.887,892.305 466.721,892.972 465.5,893.5C 454.779,894.142 444.446,893.475 434.5,891.5C 435.412,885.5 437.079,879.833 439.5,874.5 Z"/></g>
<g><path style="opacity:1" fill="#e8eaec" d="M 321.5,876.5 C 325.97,877.486 330.637,877.819 335.5,877.5C 330.955,885.923 326.955,894.589 323.5,903.5C 318.637,903.819 313.97,903.486 309.5,902.5C 312.99,893.525 316.99,884.858 321.5,876.5 Z"/></g>
<g><path style="opacity:1" fill="#e0e4e8" d="M 105.5,894.5 C 115.5,894.5 125.5,894.5 135.5,894.5C 138.143,897.234 139.143,900.567 138.5,904.5C 134.265,905.436 129.931,905.769 125.5,905.5C 125.737,904.209 125.404,903.209 124.5,902.5C 122.964,899.908 120.631,898.908 117.5,899.5C 116.055,902.937 115.055,906.603 114.5,910.5C 110.066,911.794 105.733,911.794 101.5,910.5C 101.9,904.902 103.233,899.568 105.5,894.5 Z"/></g>
<g><path style="opacity:1" fill="#dee2e5" d="M 434.5,891.5 C 444.446,893.475 454.779,894.142 465.5,893.5C 465.082,894.222 464.416,894.722 463.5,895C 466.231,897.897 467.231,901.397 466.5,905.5C 462.167,905.5 457.833,905.5 453.5,905.5C 453.768,903.901 453.434,902.568 452.5,901.5C 450.345,899.466 448.012,899.133 445.5,900.5C 443.878,905.415 442.544,910.415 441.5,915.5C 437.066,916.794 432.733,916.794 428.5,915.5C 429.588,907.148 431.588,899.148 434.5,891.5 Z"/></g>
<g><path style="opacity:1" fill="#d53b3e" d="M 117.5,899.5 C 120.631,898.908 122.964,899.908 124.5,902.5C 121.951,916.312 118.284,929.812 113.5,943C 111.613,943.78 109.946,943.613 108.5,942.5C 112.326,929.67 115.993,916.67 119.5,903.5C 119.248,901.927 118.582,900.594 117.5,899.5 Z"/></g>
<g><path style="opacity:1" fill="#d43b3e" d="M 445.5,900.5 C 448.012,899.133 450.345,899.466 452.5,901.5C 449.263,918.688 445.263,935.688 440.5,952.5C 438.833,952.5 437.167,952.5 435.5,952.5C 438.978,936.227 442.978,920.06 447.5,904C 447.613,902.301 446.947,901.134 445.5,900.5 Z"/></g>
<g><path style="opacity:1" fill="#30292a" d="M 117.5,899.5 C 118.582,900.594 119.248,901.927 119.5,903.5C 115.993,916.67 112.326,929.67 108.5,942.5C 107.176,943.85 106.176,943.683 105.5,942C 108.277,931.387 111.277,920.887 114.5,910.5C 115.055,906.603 116.055,902.937 117.5,899.5 Z"/></g>
<g><path style="opacity:1" fill="#dee2e5" d="M 245.5,884.5 C 248.684,886.414 252.351,887.08 256.5,886.5C 254.826,891.843 253.16,897.176 251.5,902.5C 250.129,904.936 249.129,907.603 248.5,910.5C 244.029,911.089 240.029,910.423 236.5,908.5C 239.129,900.27 242.129,892.27 245.5,884.5 Z"/></g>
<g><path style="opacity:1" fill="#382b2b" d="M 251.5,902.5 C 251.108,906.582 250.442,910.582 249.5,914.5C 247.158,913.789 246.825,912.456 248.5,910.5C 249.129,907.603 250.129,904.936 251.5,902.5 Z"/></g>
<g><path style="opacity:1" fill="#85888c" d="M 495.5,914.5 C 495.5,914.167 495.5,913.833 495.5,913.5C 500.167,913.5 504.833,913.5 509.5,913.5C 509.737,914.791 509.404,915.791 508.5,916.5C 504.627,914.57 500.294,913.903 495.5,914.5 Z"/></g>
<g><path style="opacity:1" fill="#d43a3d" d="M 495.5,913.5 C 495.5,913.833 495.5,914.167 495.5,914.5C 493.168,923.826 490.835,933.159 488.5,942.5C 488.529,947.518 490.862,950.851 495.5,952.5C 484.972,952.808 481.138,947.808 484,937.5C 486.174,929.47 488.34,921.47 490.5,913.5C 492.167,913.5 493.833,913.5 495.5,913.5 Z"/></g>
<g><path style="opacity:1" fill="#c5ccd2" d="M 178.5,896.5 C 182.833,896.5 187.167,896.5 191.5,896.5C 186.878,911.656 182.878,926.989 179.5,942.5C 183.833,942.5 188.167,942.5 192.5,942.5C 192.424,945.973 191.758,949.306 190.5,952.5C 181.318,952.827 172.318,952.493 163.5,951.5C 167.691,932.832 172.691,914.499 178.5,896.5 Z"/></g>
<g><path style="opacity:1" fill="#c3cbd0" d="M 270.5,902.5 C 267.183,919.102 264.183,935.769 261.5,952.5C 256.833,952.5 252.167,952.5 247.5,952.5C 249.422,943.223 251.088,933.89 252.5,924.5C 250.833,924.5 249.167,924.5 247.5,924.5C 245.856,924.286 244.356,924.62 243,925.5C 239.932,934.205 236.765,942.872 233.5,951.5C 229.016,952.811 224.683,952.811 220.5,951.5C 225.459,936.949 230.792,922.616 236.5,908.5C 240.029,910.423 244.029,911.089 248.5,910.5C 246.825,912.456 247.158,913.789 249.5,914.5C 251.223,915.807 253.057,915.807 255,914.5C 255.9,910.829 256.734,907.163 257.5,903.5C 261.931,903.769 266.265,903.436 270.5,902.5 Z"/></g>
<g><path style="opacity:1" fill="#c2cbd0" d="M 309.5,902.5 C 313.97,903.486 318.637,903.819 323.5,903.5C 317.514,916.14 311.514,928.807 305.5,941.5C 311.833,942.167 318.167,942.833 324.5,943.5C 323.358,946.399 322.692,949.399 322.5,952.5C 310.5,952.5 298.5,952.5 286.5,952.5C 293.656,935.525 301.323,918.859 309.5,902.5 Z"/></g>
<g><path style="opacity:1" fill="#c2cacf" d="M 369.5,903.5 C 373.231,904.196 377.065,904.862 381,905.5C 381.383,904.944 381.883,904.611 382.5,904.5C 378.585,917.002 375.251,929.669 372.5,942.5C 377.5,942.5 382.5,942.5 387.5,942.5C 386.833,945.833 386.167,949.167 385.5,952.5C 375.833,952.5 366.167,952.5 356.5,952.5C 360.075,935.862 364.408,919.528 369.5,903.5 Z"/></g>
<g><path style="opacity:1" fill="#c0c9ce" d="M 428.5,915.5 C 432.733,916.794 437.066,916.794 441.5,915.5C 437.878,927.748 434.544,940.081 431.5,952.5C 427.167,952.5 422.833,952.5 418.5,952.5C 420.838,939.767 424.171,927.434 428.5,915.5 Z"/></g>
<g><path style="opacity:1" fill="#c3cad0" d="M 452.5,901.5 C 453.434,902.568 453.768,903.901 453.5,905.5C 457.833,905.5 462.167,905.5 466.5,905.5C 462.024,920.737 457.857,936.07 454,951.5C 449.599,952.467 445.099,952.8 440.5,952.5C 445.263,935.688 449.263,918.688 452.5,901.5 Z"/></g>
<g><path style="opacity:1" fill="#c2cad0" d="M 517.5,910.5 C 518.451,911.919 518.784,913.585 518.5,915.5C 522.833,915.5 527.167,915.5 531.5,915.5C 528.829,925.177 525.996,934.844 523,944.5C 520.313,948.194 516.813,950.694 512.5,952C 506.843,952.499 501.176,952.666 495.5,952.5C 490.862,950.851 488.529,947.518 488.5,942.5C 490.835,933.159 493.168,923.826 495.5,914.5C 500.294,913.903 504.627,914.57 508.5,916.5C 506.964,923.906 505.131,931.239 503,938.5C 502.211,940.712 502.378,942.712 503.5,944.5C 506.947,946.293 509.447,945.293 511,941.5C 513.963,931.318 516.13,920.984 517.5,910.5 Z"/></g>
<g><path style="opacity:1" fill="#c3cbd0" d="M 124.5,902.5 C 125.404,903.209 125.737,904.209 125.5,905.5C 129.931,905.769 134.265,905.436 138.5,904.5C 135.357,915.071 132.524,925.738 130,936.5C 128.718,945.571 123.552,950.738 114.5,952C 106.173,952.5 97.84,952.666 89.5,952.5C 93.1335,938.292 97.1335,924.292 101.5,910.5C 105.733,911.794 110.066,911.794 114.5,910.5C 111.277,920.887 108.277,931.387 105.5,942C 106.176,943.683 107.176,943.85 108.5,942.5C 109.946,943.613 111.613,943.78 113.5,943C 118.284,929.812 121.951,916.312 124.5,902.5 Z"/></g>
<g><path style="opacity:1" fill="#d23b3e" d="M 247.5,924.5 C 249.167,924.5 250.833,924.5 252.5,924.5C 251.088,933.89 249.422,943.223 247.5,952.5C 245.5,952.5 243.5,952.5 241.5,952.5C 243.501,943.163 245.501,933.829 247.5,924.5 Z"/></g>
<g><path style="opacity:1" fill="#6d7073" d="M 45.5,980.5 C 210.163,982.499 375.163,983.165 540.5,982.5C 375.334,983.5 210.001,983.833 44.5,983.5C 44.2627,982.209 44.596,981.209 45.5,980.5 Z"/></g>
</svg>
